<svg xmlns="http://www.w3.org/2000/svg" width="433.061" height="347.75" viewBox="0 0 433.061 347.75">
  <g id="グループ_5472" data-name="グループ 5472" transform="translate(-140 -1333.129)">
    <g id="グループ_5291" data-name="グループ 5291" transform="translate(337.283 1368.033)">
      <g id="グループ_5283" data-name="グループ 5283" transform="translate(0 0)">
        <circle id="楕円形_101" data-name="楕円形 101" cx="40.295" cy="40.295" r="40.295" fill="#fff" stroke="#2a4f2c" stroke-linecap="round" stroke-linejoin="round" stroke-width="0.5"/>
        <g id="グループ_5282" data-name="グループ 5282" transform="translate(8.361 22.68)">
          <path id="パス_8141" data-name="パス 8141" d="M474.914,378.582c-1.779,3.486-7.8,7.25-7.8,7.25l1.573,7.524H465.27l-3.285-13.271s-.477-1.642-2.189-6.155c-2.393-8.483,3.84-13.385,8.183-13.515a32.016,32.016,0,0,0,7.618-1.138c17.92-2.875,22.984.289,29.551,2.341s8.552,5.091,8.754,7.591c.318,3.968,8.756,4.515,8.756,4.515l-1.356,3.914s-4.64,3.04-14.92,1.757" transform="translate(-458.789 -358.125)" fill="none" stroke="#2a4f2c" stroke-linecap="round" stroke-linejoin="round" stroke-width="0.5"/>
          <path id="パス_8142" data-name="パス 8142" d="M465.09,370.638s10.544,2.9,21.014-.446a27.922,27.922,0,0,0,5.868-2.633l-1.472,6.428,1.745,7.354h-3.8l-2.153-5.541-.24-5.162" transform="translate(-451.564 -346.42)" fill="none" stroke="#2a4f2c" stroke-linecap="round" stroke-linejoin="round" stroke-width="0.5"/>
          <path id="パス_8143" data-name="パス 8143" d="M477,366.663l4.025,16.1H485.2l-1.984-7.524,1.167-6.436" transform="translate(-436.789 -347.533)" fill="none" stroke="#2a4f2c" stroke-linecap="round" stroke-linejoin="round" stroke-width="0.5"/>
          <path id="パス_8144" data-name="パス 8144" d="M478.828,361.888c.41-.036,8.994-2.189,8.994-2.189s-2.2,4.965-5.881,6.737" transform="translate(-434.522 -356.172)" fill="#fff" stroke="#2a4f2c" stroke-linecap="round" stroke-linejoin="round" stroke-width="0.5"/>
          <path id="パス_8145" data-name="パス 8145" d="M482.22,360.795H490.8a9.616,9.616,0,0,1-5.492,4.282" transform="translate(-430.314 -354.812)" fill="none" stroke="#2a4f2c" stroke-linecap="round" stroke-linejoin="round" stroke-width="0.5"/>
          <path id="パス_8146" data-name="パス 8146" d="M468.925,369.3l-.684,2.993,1.608,6.891H466.36l-2.018-5.643v-3.9" transform="translate(-452.492 -344.261)" fill="none" stroke="#2a4f2c" stroke-linecap="round" stroke-linejoin="round" stroke-width="0.5"/>
          <path id="パス_8147" data-name="パス 8147" d="M460.388,364.244s-2.366-2.7-.8-4.851" transform="translate(-459.053 -356.552)" fill="none" stroke="#2a4f2c" stroke-linecap="round" stroke-linejoin="round" stroke-width="0.5"/>
          <path id="パス_8148" data-name="パス 8148" d="M482.048,364.034" transform="translate(-430.527 -350.794)" fill="none" stroke="#2a4f2c" stroke-linecap="round" stroke-linejoin="round" stroke-width="0.5"/>
          <circle id="楕円形_102" data-name="楕円形 102" cx="0.737" cy="0.737" r="0.737" transform="translate(50.785 12.503)" fill="#2a4f2c"/>
        </g>
      </g>
    </g>
    <g id="グループ_5289" data-name="グループ 5289" transform="translate(337.283 1568.908)">
      <circle id="楕円形_104" data-name="楕円形 104" cx="40.295" cy="40.295" r="40.295" transform="translate(0 0)" fill="#fff" stroke="#2a4f2c" stroke-linecap="round" stroke-linejoin="round" stroke-width="0.5"/>
      <path id="パス_8149" data-name="パス 8149" d="M475.249,455.206s3.294,3.029,3.294,6.767-3.294,6.769-3.294,6.769-3.294-3.031-3.294-6.769S475.249,455.206,475.249,455.206Z" transform="translate(-434.687 -447.298)" fill="#fff" stroke="#2a4f2c" stroke-linecap="round" stroke-linejoin="round" stroke-width="0.5"/>
      <g id="グループ_5284" data-name="グループ 5284" transform="translate(28.148 21.442)">
        <path id="パス_8150" data-name="パス 8150" d="M484.266,461.25s.186,4.472-2.458,7.114-7.114,2.458-7.114,2.458-.186-4.472,2.456-7.116S484.266,461.25,484.266,461.25Z" transform="translate(-459.44 -461.247)" fill="#fff" stroke="#2a4f2c" stroke-linecap="round" stroke-linejoin="round" stroke-width="0.5"/>
        <path id="パス_8151" data-name="パス 8151" d="M467.888,461.25s-.188,4.472,2.456,7.114,7.114,2.458,7.114,2.458.188-4.472-2.456-7.116S467.888,461.25,467.888,461.25Z" transform="translate(-467.885 -461.247)" fill="#fff" stroke="#2a4f2c" stroke-linecap="round" stroke-linejoin="round" stroke-width="0.5"/>
        <path id="パス_8152" data-name="パス 8152" d="M484.266,467.29s.186,4.472-2.458,7.116-7.114,2.456-7.114,2.456-.186-4.472,2.456-7.116S484.266,467.29,484.266,467.29Z" transform="translate(-459.44 -453.754)" fill="#fff" stroke="#2a4f2c" stroke-linecap="round" stroke-linejoin="round" stroke-width="0.5"/>
        <path id="パス_8153" data-name="パス 8153" d="M467.888,467.29s-.188,4.472,2.456,7.116,7.114,2.456,7.114,2.456.188-4.472-2.456-7.116S467.888,467.29,467.888,467.29Z" transform="translate(-467.885 -453.754)" fill="#fff" stroke="#2a4f2c" stroke-linecap="round" stroke-linejoin="round" stroke-width="0.5"/>
        <path id="パス_8154" data-name="パス 8154" d="M484.266,473.33s.186,4.472-2.458,7.116-7.114,2.456-7.114,2.456-.186-4.472,2.456-7.114S484.266,473.33,484.266,473.33Z" transform="translate(-459.44 -446.261)" fill="#fff" stroke="#2a4f2c" stroke-linecap="round" stroke-linejoin="round" stroke-width="0.5"/>
        <path id="パス_8155" data-name="パス 8155" d="M467.888,473.33s-.188,4.472,2.456,7.116,7.114,2.456,7.114,2.456.188-4.472-2.456-7.114S467.888,473.33,467.888,473.33Z" transform="translate(-467.885 -446.261)" fill="#fff" stroke="#2a4f2c" stroke-linecap="round" stroke-linejoin="round" stroke-width="0.5"/>
      </g>
      <line id="線_191" data-name="線 191" y2="49.098" transform="translate(40.562 25.632)" fill="#2a4f2c" stroke="#2a4f2c" stroke-linecap="round" stroke-linejoin="round" stroke-width="0.5"/>
    </g>
    <g id="グループ_5292" data-name="グループ 5292" transform="translate(446.762 1463.168)">
      <circle id="楕円形_105" data-name="楕円形 105" cx="40.295" cy="40.295" r="40.295" transform="translate(0 0)" fill="#fff" stroke="#2a4f2c" stroke-linecap="round" stroke-linejoin="round" stroke-width="0.5"/>
      <g id="グループ_5286" data-name="グループ 5286" transform="translate(33.997 10.837)">
        <g id="グループ_5285" data-name="グループ 5285" transform="translate(0 29.582)">
          <path id="パス_8156" data-name="パス 8156" d="M519.357,424.478l2.895-6.984a4.81,4.81,0,0,1,8.889,3.681l-2.893,6.986" transform="translate(-519.357 -414.523)" fill="none" stroke="#2a4f2c" stroke-linecap="round" stroke-linejoin="round" stroke-width="0.5"/>
          <line id="線_192" data-name="線 192" x1="4.587" y2="11.074" transform="translate(2.822 0.113)" fill="none" stroke="#2a4f2c" stroke-linecap="round" stroke-linejoin="round" stroke-width="0.5"/>
          <line id="線_193" data-name="線 193" x1="4.587" y2="11.074" transform="translate(5.622 1.273)" fill="none" stroke="#2a4f2c" stroke-linecap="round" stroke-linejoin="round" stroke-width="0.5"/>
        </g>
        <line id="線_194" data-name="線 194" x1="8.187" y2="19.763" transform="translate(10.265 7.567)" fill="none" stroke="#2a4f2c" stroke-linecap="round" stroke-linejoin="round" stroke-width="0.5"/>
        <path id="パス_8157" data-name="パス 8157" d="M528.028,401.32l6.006,2.488-1.118,2.7-2.254.8-3.069-1.271-.661-2.071Z" transform="translate(-509.96 -401.32)" fill="none" stroke="#2a4f2c" stroke-linecap="round" stroke-linejoin="round" stroke-width="0.5"/>
      </g>
      <path id="パス_8158" data-name="パス 8158" d="M505.834,423.284s19.461-8.27,36.6,1.866,27.781,11.508,27.781,11.508" transform="translate(-502.137 -367.18)" fill="none" stroke="#2a4f2c" stroke-linecap="round" stroke-linejoin="round" stroke-width="0.5"/>
      <path id="パス_8159" data-name="パス 8159" d="M507.96,425.839a32.3,32.3,0,0,1,24.144.609c12.614,5.619,24.828,10.5,27.758,10.625" transform="translate(-499.499 -362.615)" fill="#fff" stroke="#2a4f2c" stroke-linecap="round" stroke-linejoin="round" stroke-width="0.5" stroke-dasharray="1 2"/>
      <path id="パス_8160" data-name="パス 8160" d="M510.45,428.459s10.495-2.019,19.128,1.156,15.877,6.072,17.3,6.473" transform="translate(-496.41 -357.6)" fill="#fff" stroke="#2a4f2c" stroke-linecap="round" stroke-linejoin="round" stroke-width="0.5" stroke-dasharray="1 2"/>
      <path id="パス_8161" data-name="パス 8161" d="M556.522,421.9s-17.9-1.362-32.39,3.717" transform="translate(-479.437 -365.157)" fill="none" stroke="#2a4f2c" stroke-linecap="round" stroke-linejoin="round" stroke-width="0.5"/>
      <path id="パス_8162" data-name="パス 8162" d="M545.045,425.323a33.846,33.846,0,0,0-14.83.009" transform="translate(-471.89 -361.707)" fill="#fff" stroke="#2a4f2c" stroke-linecap="round" stroke-linejoin="round" stroke-width="0.5" stroke-dasharray="1 2"/>
    </g>
    <g id="グループ_5290" data-name="グループ 5290" transform="translate(220.899 1463.168)">
      <circle id="楕円形_103" data-name="楕円形 103" cx="40.295" cy="40.295" r="40.295" transform="translate(0 0)" fill="#fff" stroke="#2a4f2c" stroke-linecap="round" stroke-linejoin="round" stroke-width="0.5"/>
      <g id="グループ_5288" data-name="グループ 5288" transform="translate(13.423 25.572)">
        <path id="パス_8163" data-name="パス 8163" d="M463.112,417.376v8.2H409.368v-8.2" transform="translate(-409.368 -396.137)" fill="#fff" stroke="#2a4f2c" stroke-linecap="round" stroke-linejoin="round" stroke-width="0.5"/>
        <g id="グループ_5287" data-name="グループ 5287" transform="translate(4.409)">
          <path id="パス_8164" data-name="パス 8164" d="M416.016,417.844a.825.825,0,0,0-.816.813.814.814,0,0,0,1.629,0A.825.825,0,0,0,416.016,417.844Z" transform="translate(-406.542 -395.557)" fill="#2a4f2c"/>
          <path id="パス_8165" data-name="パス 8165" d="M422.458,417.844a.825.825,0,0,0-.816.813.814.814,0,0,0,1.629,0A.825.825,0,0,0,422.458,417.844Z" transform="translate(-398.551 -395.557)" fill="#2a4f2c"/>
          <path id="パス_8166" data-name="パス 8166" d="M414.728,417.844a.825.825,0,0,0-.816.813.814.814,0,0,0,1.629,0A.825.825,0,0,0,414.728,417.844Z" transform="translate(-408.14 -395.557)" fill="#2a4f2c"/>
          <path id="パス_8167" data-name="パス 8167" d="M423.744,417.844a.824.824,0,0,0-.813.813.813.813,0,0,0,1.627,0A.825.825,0,0,0,423.744,417.844Z" transform="translate(-396.952 -395.557)" fill="#2a4f2c"/>
          <path id="パス_8168" data-name="パス 8168" d="M417.3,417.844a.825.825,0,0,0-.815.813.814.814,0,0,0,1.629,0A.825.825,0,0,0,417.3,417.844Z" transform="translate(-404.945 -395.557)" fill="#2a4f2c"/>
          <path id="パス_8169" data-name="パス 8169" d="M425.031,417.844a.825.825,0,0,0-.811.813.812.812,0,0,0,1.624,0A.824.824,0,0,0,425.031,417.844Z" transform="translate(-395.353 -395.557)" fill="#2a4f2c"/>
          <path id="パス_8170" data-name="パス 8170" d="M419.882,417.844a.825.825,0,0,0-.815.813.812.812,0,0,0,1.624,0A.823.823,0,0,0,419.882,417.844Z" transform="translate(-401.746 -395.557)" fill="#2a4f2c"/>
          <path id="パス_8171" data-name="パス 8171" d="M418.589,417.844a.845.845,0,0,0-.811.813.824.824,0,0,0,.811.811.8.8,0,0,0,.813-.811A.825.825,0,0,0,418.589,417.844Z" transform="translate(-403.344 -395.557)" fill="#2a4f2c"/>
          <path id="パス_8172" data-name="パス 8172" d="M421.17,417.844a.825.825,0,0,0-.816.813.814.814,0,0,0,1.629,0A.825.825,0,0,0,421.17,417.844Z" transform="translate(-400.149 -395.557)" fill="#2a4f2c"/>
          <path id="パス_8173" data-name="パス 8173" d="M413.44,417.844a.825.825,0,0,0-.816.813.812.812,0,0,0,1.624,0A.823.823,0,0,0,413.44,417.844Z" transform="translate(-409.738 -395.557)" fill="#2a4f2c"/>
          <path id="パス_8174" data-name="パス 8174" d="M430.186,417.844a.824.824,0,0,0-.813.813.813.813,0,0,0,1.627,0A.825.825,0,0,0,430.186,417.844Z" transform="translate(-388.96 -395.557)" fill="#2a4f2c"/>
          <path id="パス_8175" data-name="パス 8175" d="M428.9,417.844a.846.846,0,0,0-.816.813.825.825,0,0,0,.816.811.8.8,0,0,0,.813-.811A.825.825,0,0,0,428.9,417.844Z" transform="translate(-390.559 -395.557)" fill="#2a4f2c"/>
          <path id="パス_8176" data-name="パス 8176" d="M431.473,417.844a.825.825,0,0,0-.811.813.812.812,0,0,0,1.624,0A.823.823,0,0,0,431.473,417.844Z" transform="translate(-387.361 -395.557)" fill="#2a4f2c"/>
          <path id="パス_8177" data-name="パス 8177" d="M427.612,417.844a.825.825,0,0,0-.816.813.814.814,0,0,0,1.629,0A.825.825,0,0,0,427.612,417.844Z" transform="translate(-392.157 -395.557)" fill="#2a4f2c"/>
          <path id="パス_8178" data-name="パス 8178" d="M412.178,417.844a.828.828,0,0,0-.842.813.81.81,0,0,0,.842.811.8.8,0,0,0,.782-.811A.818.818,0,0,0,412.178,417.844Z" transform="translate(-411.336 -395.557)" fill="#2a4f2c"/>
          <path id="パス_8179" data-name="パス 8179" d="M426.324,417.844a.825.825,0,0,0-.816.813.812.812,0,0,0,1.624,0A.823.823,0,0,0,426.324,417.844Z" transform="translate(-393.755 -395.557)" fill="#2a4f2c"/>
          <path id="パス_8180" data-name="パス 8180" d="M428.9,415.358a.811.811,0,1,0,.813.811A.806.806,0,0,0,428.9,415.358Z" transform="translate(-390.559 -398.641)" fill="#2a4f2c"/>
          <path id="パス_8181" data-name="パス 8181" d="M417.3,415.358a.811.811,0,1,0,.813.811A.806.806,0,0,0,417.3,415.358Z" transform="translate(-404.945 -398.641)" fill="#2a4f2c"/>
          <path id="パス_8182" data-name="パス 8182" d="M419.882,415.358a.811.811,0,1,0,.809.811A.806.806,0,0,0,419.882,415.358Z" transform="translate(-401.746 -398.641)" fill="#2a4f2c"/>
          <path id="パス_8183" data-name="パス 8183" d="M426.324,415.358a.811.811,0,1,0,.809.811A.806.806,0,0,0,426.324,415.358Z" transform="translate(-393.755 -398.641)" fill="#2a4f2c"/>
          <path id="パス_8184" data-name="パス 8184" d="M418.589,415.358a.811.811,0,1,0,.813.811A.8.8,0,0,0,418.589,415.358Z" transform="translate(-403.344 -398.641)" fill="#2a4f2c"/>
          <path id="パス_8185" data-name="パス 8185" d="M421.17,415.358a.811.811,0,1,0,.813.811A.806.806,0,0,0,421.17,415.358Z" transform="translate(-400.149 -398.641)" fill="#2a4f2c"/>
          <path id="パス_8186" data-name="パス 8186" d="M416.016,415.358a.811.811,0,1,0,.813.811A.806.806,0,0,0,416.016,415.358Z" transform="translate(-406.542 -398.641)" fill="#2a4f2c"/>
          <path id="パス_8187" data-name="パス 8187" d="M425.031,415.358a.811.811,0,1,0,.813.811A.8.8,0,0,0,425.031,415.358Z" transform="translate(-395.353 -398.641)" fill="#2a4f2c"/>
          <path id="パス_8188" data-name="パス 8188" d="M422.458,415.358a.811.811,0,1,0,.813.811A.806.806,0,0,0,422.458,415.358Z" transform="translate(-398.551 -398.641)" fill="#2a4f2c"/>
          <path id="パス_8189" data-name="パス 8189" d="M423.744,415.358a.811.811,0,1,0,.813.811A.8.8,0,0,0,423.744,415.358Z" transform="translate(-396.952 -398.641)" fill="#2a4f2c"/>
          <path id="パス_8190" data-name="パス 8190" d="M427.612,415.358a.811.811,0,1,0,.813.811A.806.806,0,0,0,427.612,415.358Z" transform="translate(-392.157 -398.641)" fill="#2a4f2c"/>
          <path id="パス_8191" data-name="パス 8191" d="M414.728,415.358a.811.811,0,1,0,.813.811A.806.806,0,0,0,414.728,415.358Z" transform="translate(-408.14 -398.641)" fill="#2a4f2c"/>
          <path id="パス_8192" data-name="パス 8192" d="M417.3,412.87a.812.812,0,1,0,.813.813A.807.807,0,0,0,417.3,412.87Z" transform="translate(-404.945 -401.728)" fill="#2a4f2c"/>
          <path id="パス_8193" data-name="パス 8193" d="M421.17,412.87a.812.812,0,1,0,.813.813A.807.807,0,0,0,421.17,412.87Z" transform="translate(-400.149 -401.728)" fill="#2a4f2c"/>
          <path id="パス_8194" data-name="パス 8194" d="M425.031,412.87a.812.812,0,1,0,.813.813A.8.8,0,0,0,425.031,412.87Z" transform="translate(-395.353 -401.728)" fill="#2a4f2c"/>
          <path id="パス_8195" data-name="パス 8195" d="M418.589,412.87a.812.812,0,1,0,.813.813A.8.8,0,0,0,418.589,412.87Z" transform="translate(-403.344 -401.728)" fill="#2a4f2c"/>
          <path id="パス_8196" data-name="パス 8196" d="M422.458,412.87a.812.812,0,1,0,.813.813A.807.807,0,0,0,422.458,412.87Z" transform="translate(-398.551 -401.728)" fill="#2a4f2c"/>
          <path id="パス_8197" data-name="パス 8197" d="M419.882,412.87a.812.812,0,1,0,.809.813A.807.807,0,0,0,419.882,412.87Z" transform="translate(-401.746 -401.728)" fill="#2a4f2c"/>
          <path id="パス_8198" data-name="パス 8198" d="M426.324,412.87a.812.812,0,1,0,.809.813A.807.807,0,0,0,426.324,412.87Z" transform="translate(-393.755 -401.728)" fill="#2a4f2c"/>
          <path id="パス_8199" data-name="パス 8199" d="M423.744,412.87a.812.812,0,1,0,.813.813A.8.8,0,0,0,423.744,412.87Z" transform="translate(-396.952 -401.728)" fill="#2a4f2c"/>
          <path id="パス_8200" data-name="パス 8200" d="M424.391,410.385a.811.811,0,1,0,.813.809A.806.806,0,0,0,424.391,410.385Z" transform="translate(-396.153 -404.811)" fill="#2a4f2c"/>
          <path id="パス_8201" data-name="パス 8201" d="M420.523,410.385a.811.811,0,1,0,.813.809A.8.8,0,0,0,420.523,410.385Z" transform="translate(-400.948 -404.811)" fill="#2a4f2c"/>
          <path id="パス_8202" data-name="パス 8202" d="M419.237,410.385a.811.811,0,1,0,.813.809A.806.806,0,0,0,419.237,410.385Z" transform="translate(-402.547 -404.811)" fill="#2a4f2c"/>
          <path id="パス_8203" data-name="パス 8203" d="M421.81,410.385a.811.811,0,1,0,.813.809A.8.8,0,0,0,421.81,410.385Z" transform="translate(-399.349 -404.811)" fill="#2a4f2c"/>
          <path id="パス_8204" data-name="パス 8204" d="M423.1,410.385a.811.811,0,1,0,.809.809A.806.806,0,0,0,423.1,410.385Z" transform="translate(-397.751 -404.811)" fill="#2a4f2c"/>
          <path id="パス_8205" data-name="パス 8205" d="M421.17,409.492a.8.8,0,1,0-.816-.782A.8.8,0,0,0,421.17,409.492Z" transform="translate(-400.149 -407.897)" fill="#2a4f2c"/>
          <path id="パス_8206" data-name="パス 8206" d="M422.458,409.492a.8.8,0,1,0-.816-.782A.8.8,0,0,0,422.458,409.492Z" transform="translate(-398.551 -407.897)" fill="#2a4f2c"/>
        </g>
      </g>
    </g>
    <path id="パス_8207" data-name="パス 8207" d="M437.573,459.322c-1.156-1.342-2.359-2.868-3.612-4.528l20.364,1.53a.752.752,0,0,0,.782-.674.772.772,0,0,0-.69-.8l-21.982-1.654a.6.6,0,0,0-.3.1c-.063.022-.13,0-.186.043l-.009.018a.67.67,0,0,0-.17.28.714.714,0,0,0-.1.213c0,.009-.013.016-.013.025L430,475.853a.776.776,0,0,0,.692.8l.054,0a.732.732,0,0,0,.728-.677l1.508-20.064c1.205,1.586,2.368,3.061,3.486,4.36A98.23,98.23,0,0,0,457.8,478.817l.123-1.651A96.761,96.761,0,0,1,437.573,459.322Z" transform="translate(-149.458 1122.648)" fill="#2a4f2c"/>
    <path id="パス_8208" data-name="パス 8208" d="M529.521,402.553c.119.013.2-.058.3-.1.06-.022.128,0,.184-.045l.009-.016a.678.678,0,0,0,.17-.282.736.736,0,0,0,.1-.211c0-.011.011-.016.011-.027l1.656-21.982a.777.777,0,0,0-.69-.8l-.054,0a.728.728,0,0,0-.728.677l-1.51,20.064c-1.206-1.586-2.368-3.061-3.486-4.36a98.112,98.112,0,0,0-21.332-18.541l-.123,1.649a96.776,96.776,0,0,1,20.349,17.846c1.156,1.342,2.359,2.868,3.614,4.528l-20.367-1.533a.753.753,0,0,0-.782.674.707.707,0,0,0,.188.538.716.716,0,0,0,.5.267Z" transform="translate(-57.607 1042.428)" fill="#2a4f2c"/>
    <path id="パス_8209" data-name="パス 8209" d="M448.891,385.1c1.342-1.154,2.87-2.357,4.53-3.612l-1.533,20.364a.75.75,0,0,0,.674.782.776.776,0,0,0,.8-.69l1.654-21.982a.643.643,0,0,0-.1-.3c-.022-.06,0-.13-.045-.184l-.016-.011a.7.7,0,0,0-.282-.17c-.072-.031-.128-.092-.211-.1-.011,0-.016-.011-.027-.013l-21.984-1.656a.722.722,0,0,0-.538.188.741.741,0,0,0-.264.5v.054a.731.731,0,0,0,.677.728l20.062,1.508c-1.584,1.205-3.058,2.368-4.358,3.486A98.161,98.161,0,0,0,429.4,405.33l1.649.123A96.763,96.763,0,0,1,448.891,385.1Z" transform="translate(-150.198 1043.168)" fill="#2a4f2c"/>
    <path id="パス_8210" data-name="パス 8210" d="M505.662,477.053a.632.632,0,0,0,.094.3c.022.06.007.128.045.184l.018.011a.677.677,0,0,0,.28.168c.074.034.128.094.211.1.011,0,.016.011.027.011l21.984,1.656a.72.72,0,0,0,.538-.186.732.732,0,0,0,.264-.5l0-.054a.731.731,0,0,0-.677-.728l-20.064-1.51c1.586-1.2,3.061-2.368,4.358-3.486a98.094,98.094,0,0,0,18.541-21.33l-1.649-.125a96.706,96.706,0,0,1-17.844,20.349c-1.342,1.156-2.87,2.359-4.528,3.614l1.53-20.367a.752.752,0,0,0-.674-.782.78.78,0,0,0-.8.692Z" transform="translate(-55.59 1120.633)" fill="#2a4f2c"/>
    <text id="豚の排せつ物" transform="translate(330.526 1349.129)" fill="#2a4f2c" font-size="14" font-family="NotoSansJP-Regular, Noto Sans JP"><tspan x="0" y="0">豚</tspan><tspan y="0">の</tspan><tspan y="0">排</tspan><tspan y="0">せつ</tspan><tspan y="0">物</tspan></text>
    <text id="資源循環型_農業" data-name="資源循環型
農業" transform="translate(370.295 1506.547)" fill="#2a4f2c" font-size="17" font-family="NotoSerifJP-Bold, Noto Serif JP" font-weight="700"><tspan x="-42.5" y="0">資源循環型</tspan><tspan x="-17" y="27">農業</tspan></text>
    <text id="農産物" transform="translate(354.053 1676.879)" fill="#2a4f2c" font-size="14" font-family="NotoSansJP-Regular, Noto Sans JP"><tspan x="0" y="0">農産物</tspan></text>
    <text id="堆肥" transform="translate(545.061 1507.701)" fill="#2a4f2c" font-size="14" font-family="NotoSansJP-Regular, Noto Sans JP"><tspan x="0" y="0">堆肥</tspan></text>
    <text id="配合飼料" transform="translate(140 1510.947)" fill="#2a4f2c" font-size="14" font-family="NotoSansJP-Regular, Noto Sans JP"><tspan x="0" y="0">配合飼料</tspan></text>
  </g>
</svg>
