<svg xmlns="http://www.w3.org/2000/svg" width="327.431" height="337.239" viewBox="0 0 327.431 337.239">
  <g id="グループ_5467" data-name="グループ 5467" transform="translate(-158.939 -2496.09)">
    <g id="グループ_5212" data-name="グループ 5212" transform="translate(110.881 1915.699)">
      <path id="パス_7961" data-name="パス 7961" d="M93.977,680.669l39.553,79.119,79.529-10.413L133.944,593.222Z" transform="translate(92.02 25.713)" fill="#2a4f2c"/>
      <g id="グループ_5213" data-name="グループ 5213" transform="translate(178.752 580.391)">
        <g id="グループ_5212-2" data-name="グループ 5212">
          <path id="パス_7962" data-name="パス 7962" d="M96.4,580.85a.243.243,0,0,1,.2-.123.458.458,0,0,1,.231.108l.823.73a.4.4,0,0,1,.141.276c0,.189-.156.3-.514.544v8.759c0,.325.03,1.751.03,2.031,0,1.379-.634,1.472-1.64,1.628-.015-.778-.237-.868-1.538-1.46v-.309l1.55.063c.484.015.484-.2.484-.481V588.8h-2a8.9,8.9,0,0,1-2.37,5.843l-.234-.183a15.8,15.8,0,0,0,1.442-7.6v-4.356c0-.607-.015-1.274-.063-1.8l1.379.682h1.706Zm-.231,4.593H94.23v1.406c0,.529,0,.7-.015,1.133H96.17Zm0-3.244H94.23v2.436H96.17Zm3.656,2.809c0,.388.048.559.637.559h3.226c.865,0,.91-.171,1.391-2.079h.312c.075,1.472.093,1.628.339,1.908a.556.556,0,0,1,.2.433c0,.9-1.49.931-2.421.931h-3.361c-1.535,0-1.643-.4-1.643-1.565v-3.226a11.679,11.679,0,0,0-.063-1.505l1.535.186c.186.018.421.063.421.234,0,.108-.048.231-.577.435V583.1a14.977,14.977,0,0,0,4.59-2.127l.976.976c.216.219.2.346.2.372a.225.225,0,0,1-.234.234,1.208,1.208,0,0,1-.5-.153,28.334,28.334,0,0,1-5.038,1.223Zm3.659,3.052.421-.559c.075-.093.123-.156.231-.156a.407.407,0,0,1,.231.108l.991.808a.306.306,0,0,1,.156.264c0,.171-.108.261-.559.571v2.992c0,.249.063,1.956.063,2.112,0,.231,0,.589-.976.589-.388,0-.388-.189-.388-.436v-.309h-3.611c0,.6,0,.79-.931.79-.339,0-.421-.138-.421-.4,0-.123.048-1.721.048-2.049v-3.067c0-.619,0-1.427-.048-1.937l1.46.682Zm-3.44.805v1.751h3.611v-1.751Zm0,2.559v1.812h3.611v-1.812Z" transform="translate(-91.565 -580.247)" fill="#1a1311"/>
          <path id="パス_7963" data-name="パス 7963" d="M102.595,591.2c0,.324.03,1.736.03,2.031,0,1.349-.652,1.475-1.673,1.613-.015-.76-.2-.838-1.55-1.442v-.294l1.55.045c.481.018.5-.2.5-.478V588.83H99.416a8.929,8.929,0,0,1-2.37,5.876l-.249-.189c.916-1.89,1.472-3.752,1.472-7.579v-4.4c0-.586-.033-1.208-.06-1.8l1.379.682h1.7l.372-.544a.23.23,0,0,1,.216-.138.338.338,0,0,1,.231.108l.856.73a.423.423,0,0,1,.153.291c0,.156-.126.265-.526.544v.742c.291.015.835.06,1.517.06h1.908v-.988a15.9,15.9,0,0,0-.075-1.769l1.562.189c.249.03.406.075.406.231,0,.141-.063.249-.574.45v1.887h1.736l.556-.832a.253.253,0,0,1,.219-.141c.06,0,.123.033.231.123l1.148,1.054a.427.427,0,0,1,.153.307c0,.234-.246.3-.433.3h-4.527c0,.637-.015.76-.075,2.31h2.307l.421-.574c.093-.123.138-.156.216-.156a.4.4,0,0,1,.264.123l.913.808a.431.431,0,0,1,.186.324c0,.1,0,.219-.589.526a25.928,25.928,0,0,1-.619,5.957,2.1,2.1,0,0,1-2.172,1.439c-.018-.571-.018-.835-1.442-1.394l.03-.309c.171.015,1.46.075,1.49.075.913,0,1.036-.85,1.117-1.364a43.7,43.7,0,0,0,.339-4.65H106.3a11.363,11.363,0,0,1-.946,4.139,8.2,8.2,0,0,1-2.635,3.271l-.219-.216c2.451-3.211,2.577-6.591,2.592-10.325h-1.054c-.216,0-.589.015-1.151.063l-.291-.868Zm-1.147-5.735H99.477v1.457c0,.5,0,.712-.012,1.1h1.983Zm0-3.238H99.477v2.433h1.971Z" transform="translate(-81.08 -580.257)" fill="#1a1311"/>
          <path id="パス_7964" data-name="パス 7964" d="M113.43,585.1l.433-.6c.048-.06.108-.156.2-.156a.367.367,0,0,1,.231.111l1.021.835c.111.093.186.156.186.309,0,.171-.09.279-.559.607v1.334c0,.294.048,1.841.048,1.859,0,.246,0,.634-.961.634-.436,0-.436-.093-.436-.619h-8.279V592c0,.775.2.931,1.039.931h7.348c.484,0,.775-.015.979-.481.093-.234.466-1.535.574-1.937l.294.015c.123,1.505.153,1.874.466,2.157.231.2.294.291.294.511,0,1.051-1.706,1.051-2.484,1.051h-7.717c-1.844,0-2.124-.481-2.124-2.043v-5.488c0-.2,0-.559-.015-.913a12.616,12.616,0,0,1-1.661,1.174l-.183-.247a17.649,17.649,0,0,0,4.17-6.263l1.409.37c.5.126.511.264.511.36,0,.232-.183.246-.679.325-.156.279-.231.4-.387.667h3.488l.556-.637a.359.359,0,0,1,.234-.138.405.405,0,0,1,.231.123l1.132,1.084a.5.5,0,0,1,.186.34c0,.279-.264.327-.946.42-.219.189-1.087,1.085-1.271,1.256-.2.174-.357.282-.577.466Zm-4.079,0a15.389,15.389,0,0,0,1.181-2.109h-3.923a12.884,12.884,0,0,1-1.613,1.892l.574.216Zm-.5.808h-3.536V588.6h3.536Zm1.319,2.695H113.6v-2.695h-3.425Z" transform="translate(-70.395 -580.247)" fill="#1a1311"/>
          <path id="パス_7965" data-name="パス 7965" d="M111.728,580.391a12.031,12.031,0,0,0,0,14.837h-.808a10.942,10.942,0,0,1,0-14.837Z" transform="translate(-58.587 -580.391)" fill="#1a1311"/>
          <path id="パス_7966" data-name="パス 7966" d="M113.745,581.265l.339-.5c.063-.078.108-.141.216-.141a.3.3,0,0,1,.219.108l.925.778a.4.4,0,0,1,.174.294c0,.2-.156.31-.529.574v5.84c0,.313.048,1.74.048,2.034,0,.153,0,.526-.9.526-.372,0-.372-.186-.372-.417v-.249h-2.355v.823c0,.309,0,.619-.853.619-.4,0-.466-.153-.466-.369,0-.234.063-1.8.063-2.082v-6.6c0-1.069-.015-1.274-.063-1.926l1.475.685Zm-2.232.808v3.13h2.355v-3.13Zm0,3.935v3.3h2.355v-3.3Zm1.61,8.4c2.962-2.46,3.581-4.725,3.581-8.786v-2.962c0-.463,0-1.223-.06-2.139l1.52.667h3.067l.339-.511c.1-.141.171-.156.237-.156a.448.448,0,0,1,.246.108l.991.823c.153.123.186.216.186.291,0,.189-.063.234-.574.6v8.733c0,.307.03,1.625.03,1.89,0,.9-.015,1.61-1.968,1.763-.045-.928-.5-1.129-1.908-1.547v-.312l2.064.066c.4.015.463-.048.463-.387V589h-3.581a7.555,7.555,0,0,1-4.449,5.656Zm4.884-8.988a21.612,21.612,0,0,1-.123,2.776h3.455v-2.776Zm0-.808h3.331v-2.62h-3.331Z" transform="translate(-54.233 -580.132)" fill="#1a1311"/>
          <path id="パス_7967" data-name="パス 7967" d="M127.179,582.227l.592-.856a.272.272,0,0,1,.234-.15.411.411,0,0,1,.231.138l1.1,1.036a.553.553,0,0,1,.171.357c0,.279-.264.279-.372.279H117.942v1.706h2.451a12.913,12.913,0,0,0-.078-1.583l1.532.2c.141.012.406.045.406.261s-.171.262-.589.451v.667h3.022a11.955,11.955,0,0,0-.075-1.583l1.55.2c.135.012.384.045.384.261s-.168.279-.589.451v.667h1.2l.526-.748c.045-.075.093-.15.2-.15a.4.4,0,0,1,.249.138l.916.883a.662.662,0,0,1,.183.4c0,.265-.264.279-.388.279h-2.884v.436c0,.261.048,1.406.048,1.64,0,.2,0,.649-.961.649-.357,0-.357-.15-.357-.523h-3.022c0,.246,0,.589-.871.589-.415,0-.448-.2-.448-.387,0-.126.048-1.535.048-1.8v-.6h-2.451v.448c0,3.16-.339,6.48-2.619,8.555l-.246-.183c1.024-1.974,1.535-3.707,1.535-8.384v-2.607c0-.4-.015-1.283-.063-1.874l1.6.73h3.842a15.161,15.161,0,0,0-.075-1.784l1.64.2c.123.015.4.048.4.265,0,.2-.2.294-.6.45v.868Zm-.865,6.089c.108-.108.153-.123.219-.123a.331.331,0,0,1,.216.123l1.039,1.039a.433.433,0,0,1,.15.294c0,.279-.09.294-.991.511a15.485,15.485,0,0,1-2.292,2.061,13.972,13.972,0,0,0,4.788.913v.312a2.064,2.064,0,0,0-1.16,1.3,12.908,12.908,0,0,1-4.758-1.784,14.155,14.155,0,0,1-6.263,1.893l-.081-.3a21.694,21.694,0,0,0,5.4-2.232,7.2,7.2,0,0,1-2.154-2.665h-.7a9.991,9.991,0,0,0-1.208.063l-.312-.931c.451.033.946.063,1.568.063h6.059Zm-5.3,1.349a8.017,8.017,0,0,0,2.5,2.061,10.554,10.554,0,0,0,2.157-2.061Zm.652-4.121v1.394h3.022v-1.394Z" transform="translate(-44.449 -580.287)" fill="#1a1311"/>
          <path id="パス_7968" data-name="パス 7968" d="M120.51,595.228a12.042,12.042,0,0,0,0-14.837h.805a10.942,10.942,0,0,1,0,14.837Z" transform="translate(-33.56 -580.391)" fill="#1a1311"/>
        </g>
      </g>
      <g id="グループ_5215" data-name="グループ 5215" transform="translate(304.478 612.257)">
        <g id="グループ_5214" data-name="グループ 5214">
          <path id="パス_7969" data-name="パス 7969" d="M139.372,591.526a1.744,1.744,0,0,1,.808-.234c.589,0,1.721.529,1.721,1.009,0,.111-.126.619-.141.742a11.923,11.923,0,0,0-.108,1.412c1.3-.108,1.442-.123,1.688-.168.045,0,.745-.123.76-.123.372,0,1.364.5,1.364.958,0,.42-.619.42-.76.42-.279,0-1.643-.048-1.938-.048-.433,0-.76.015-1.148.033v.6c0,.9.138,5.239.138,6.212,0,1.072-.541,1.751-1.006,1.751a.449.449,0,0,1-.418-.249c-.063-.123-.312-.742-.387-.865a11.992,11.992,0,0,0-1.814-1.364l.123-.264c.372.123,1.814.634,2.016.634.279,0,.279-.417.279-1.114,0-.637-.063-3.427-.063-3.983a12.9,12.9,0,0,1-6.942,5.5l-.126-.264a18.019,18.019,0,0,0,6.45-6.495c-.868.075-2.5.291-3.268.436-.237.048-1.382.342-1.643.342a1.728,1.728,0,0,1-1.43-1.493,1.666,1.666,0,0,1,.048-.37l.264-.126a1.417,1.417,0,0,0,1.286.637,10.4,10.4,0,0,0,1.133-.093c1.319-.123,2.992-.306,4.218-.418v-.261c0-1.691,0-2.112-1.117-2.466Z" transform="translate(-133.418 -590.412)" fill="#1a1311"/>
          <path id="パス_7970" data-name="パス 7970" d="M138.577,591.913a1.384,1.384,0,0,1,.961-.328c.679,0,1.721.5,1.721.964,0,.168-.186.835-.2.976-.063.76-.156,5.053-.156,6.882,0,.387,0,.556.171.556a13.541,13.541,0,0,0,3.037-1.532,22.71,22.71,0,0,0,5.086-4.419l.246.156c-.526,1.331-1.766,3.89-7.068,6.774-.183.09-.961.478-1.115.571-.433.294-.481.324-.622.324-.481,0-1.163-.928-1.163-1.316,0-.156.138-.808.156-.943.045-.592.078-4.776.078-5.257a13.1,13.1,0,0,0-.156-2.6c-.138-.264-.418-.388-1.006-.514Z" transform="translate(-123.14 -589.823)" fill="#1a1311"/>
          <path id="パス_7971" data-name="パス 7971" d="M142.692,599.514a34.386,34.386,0,0,0,7.083-4.96c.622-.574,2.061-1.937,2.061-2.31,0-.324-.354-.514-.664-.652l.075-.28a2.334,2.334,0,0,1,.529-.093c.805,0,2.076.853,2.076,1.412,0,.216-.123.339-.481.556a13.835,13.835,0,0,0-1.8,1.505c-.91.805-1.391,1.178-1.8,1.5.433.249.622.469.622.733,0,.09-.093.5-.108.586-.048.514-.048,1.688-.048,1.908,0,.913.015,1.892.048,2.787,0,.156.045,1.289.045,1.337,0,.168,0,.991-.559.991-.619,0-.913-1.133-.913-1.535,0-.2.123-1.132.138-1.316.048-.76.048-1.926.048-2.373a10.753,10.753,0,0,0-.171-2.451,17.751,17.751,0,0,1-6.062,2.917Z" transform="translate(-114.833 -590.556)" fill="#1a1311"/>
          <path id="パス_7972" data-name="パス 7972" d="M147.975,591.632c.835.171,4.263.931,4.263,2.7,0,.511-.264.883-.622.883-.327,0-.5-.219-.868-.73a10.468,10.468,0,0,0-2.914-2.589Zm.37,8.618c.2.249.574.76,1.054.76.883,0,6.263-3.085,9.517-7.519l.264.141c-1.781,4.2-5.008,6.294-8.432,8.492-.063.048-.451.346-.667.514a.686.686,0,0,1-.418.186,2.3,2.3,0,0,1-1.646-2.016,3.337,3.337,0,0,1,.048-.463Z" transform="translate(-104.529 -589.731)" fill="#1a1311"/>
          <path id="パス_7973" data-name="パス 7973" d="M157.329,604.5h-3.193v.34c0,.357-.015.589-.775.589-.3,0-.372-.156-.372-.373s.06-2.154.06-2.415v-6.375c0-.913,0-.928-.06-2.121l1.16.619h.372v-1.9h-.745a9.3,9.3,0,0,0-1.175.06l-.327-.928c.5.027.961.06,1.583.06h2.959l.5-.7c.048-.063.093-.138.2-.138a.4.4,0,0,1,.231.108l1.069.943a.469.469,0,0,1,.171.312c0,.279-.357.279-.466.279h-1.658v1.9h.5l.309-.466c.03-.045.108-.171.2-.171a.348.348,0,0,1,.234.141l.541.607a.483.483,0,0,1,.153.291c0,.171-.138.279-.4.463v6.747a12.185,12.185,0,0,0,2.112-4.683l1.256.391c.306.09.388.183.388.294,0,.231-.2.261-.577.309-.108.217-.138.31-.264.559h2.421l.433-.544c.093-.108.153-.123.219-.123a.365.365,0,0,1,.231.108l.928.916a.449.449,0,0,1,.156.307c0,.2-.078.234-.775.469a10.245,10.245,0,0,1-1.628,2.4,8.014,8.014,0,0,0,3.349,1.133v.312a1.83,1.83,0,0,0-1.072,1.114,8.4,8.4,0,0,1-3.067-1.826,9.5,9.5,0,0,1-4.263,1.889l-.078-.249a1.386,1.386,0,0,1-.511.1c-.324,0-.324-.126-.324-.469Zm-3.349-4.917c.448-.712.7-1.394.682-4.029h-.682Zm3.349-.063h-.3c-.9,0-1.018-.123-1.018-.976v-2.989h-.637c-.015,2.046-.015,3.5-1.241,4.461v1.166h3.193Zm0,2.469h-3.193v1.7h3.193Zm-1.953-7.224h.637v-1.9h-.637Zm2.139.79h-.823v2.4c0,.339.108.339.451.339h.373Zm3.016,5.023a7.522,7.522,0,0,1-2.151,2.355c.015.279.06,1.487.06,1.721a.868.868,0,0,1-.06.342,12.382,12.382,0,0,0,3.41-2.247A7.024,7.024,0,0,1,160.531,600.576Zm3.244-5.765c.168.03.4.048.4.246s-.141.249-.526.436v.976c0,.465.045.574.787.574s.76,0,1.087-1.424l.309.012c.03.265.093,1.133.264,1.271.306.249.372.312.372.514,0,.79-1.069.79-2.109.79-1.379,0-1.859-.093-1.859-1.238v-.949c0-.354-.015-.463-.048-1.364-.306.048-.463.078-1.8.279l.949.313c.246.075.339.153.339.309,0,.231-.231.279-.5.294a4.923,4.923,0,0,1-2.9,2.8l-.141-.264a5.7,5.7,0,0,0,2-3.425c-.372.06-.481.075-.772.123-.066.156-.141.372-.345.372-.123,0-.168-.063-.231-.279l-.387-1.286c.342.015.79.03,1.442.03A11.445,11.445,0,0,0,161.141,591l1.457.5c.216.075.339.135.339.291,0,.264-.309.279-.634.294-.171.234-.264.391-1.49,1.829.466,0,2.28-.108,3.428-.168a6.843,6.843,0,0,0-1.054-1.211l.156-.264c.742.312,2.743,1.162,2.743,2.436a.654.654,0,0,1-.589.679c-.312,0-.373-.09-.823-.943-.06-.108-.123-.216-.153-.279a9.986,9.986,0,0,1-1.971.481Zm-2.944,5.3a6.137,6.137,0,0,0,1.55,2.016,7.969,7.969,0,0,0,1.256-2.079h-2.761Z" transform="translate(-95.633 -590.999)" fill="#1a1311"/>
          <path id="パス_7974" data-name="パス 7974" d="M141.991,597.717a12.042,12.042,0,0,0,0,14.837h-.805a10.942,10.942,0,0,1,0-14.837Z" transform="translate(-123.661 -577.536)" fill="#1a1311"/>
          <path id="パス_7975" data-name="パス 7975" d="M142.147,601.8c0,.634.108.79.793.79h7.642c.82,0,.868-.2,1.379-2.295l.309.018c0,.078.108,1.58.123,1.706.033.153.081.2.327.511a.466.466,0,0,1,.123.309c0,.991-1.673.991-2.325.991h-8.03c-1.55,0-1.688-.622-1.688-1.628v-2.634c0-.481-.033-1.271-.078-1.766l1.58.186c.171.015.421.06.421.246,0,.2-.2.294-.577.466v1.691c2.094-.4,6.468-1.24,8.048-2.343l1.039,1.118a.577.577,0,0,1,.183.387.213.213,0,0,1-.231.219c-.141,0-.186-.018-.529-.189a43.856,43.856,0,0,1-8.51,1.289Zm7.939,3.566.4-.574a.323.323,0,0,1,.231-.153.528.528,0,0,1,.249.123l.976.79a.4.4,0,0,1,.183.309c0,.171-.06.216-.556.574v3.13c0,.156.06,1.829.06,2.016s0,.574-1.006.574c-.373,0-.418-.123-.418-.4v-.372h-8.063c0,.556,0,.76-.883.76-.372,0-.511-.081-.511-.358,0-.327.063-1.781.063-2.094V606.4c0-.373-.033-1.352-.063-1.83l1.535.79Zm-7.939.805v1.751h8.063v-1.751Zm0,2.559v1.841h8.063v-1.841Z" transform="translate(-118.779 -577.37)" fill="#1a1311"/>
          <path id="パス_7976" data-name="パス 7976" d="M155.162,601.127a1.758,1.758,0,0,1,1.148.31,1.346,1.346,0,0,1,.664.991,6.257,6.257,0,0,1-.291.856c-.1.276-.421,1.424-.484,1.673,1.893.823,2.31,1.162,2.31,1.889,0,.421-.2.7-.5.7-.216,0-.279-.048-.79-.451a13.353,13.353,0,0,0-1.424-.961c-1.3,3.424-3.319,4.091-4.467,4.341l-.123-.279a8.9,8.9,0,0,0,3.5-4.62,11.221,11.221,0,0,0-4.124-1.036,24.023,24.023,0,0,1-1.688,3.533,2.087,2.087,0,0,1-1.751,1.054,1.813,1.813,0,0,1-1.766-1.983c0-1.382,1.039-3.223,4.419-3.473.2-.435,1.8-3.956,1.8-4.064,0-.03-.015-.093-.108-.093a9.9,9.9,0,0,0-2.061.7,1.606,1.606,0,0,1-.529.189c-.589,0-1.319-.856-1.319-1.661,0-.048.018-.063.048-.264l.264-.108a1.188,1.188,0,0,0,1.024.637,13.364,13.364,0,0,0,2-.373,11.994,11.994,0,0,1,1.364-.4,1.28,1.28,0,0,1,1.036.943,5.458,5.458,0,0,1-.634,1.087c-.153.279-1.117,2.079-1.706,3.4a14.517,14.517,0,0,1,4.091.835,10.156,10.156,0,0,0,.421-2.124,1.017,1.017,0,0,0-.463-.976Zm-8.742,5.984c0,.637.339.916.679.916.466,0,.826-.529,1.241-1.334.387-.715.745-1.457,1.039-2.109C146.886,604.924,146.42,606.369,146.42,607.111Z" transform="translate(-109.444 -576.512)" fill="#1a1311"/>
          <path id="パス_7977" data-name="パス 7977" d="M150.546,612.554a12.042,12.042,0,0,0,0-14.837h.805a10.941,10.941,0,0,1,0,14.837Z" transform="translate(-99.094 -577.536)" fill="#1a1311"/>
        </g>
      </g>
      <g id="グループ_5217" data-name="グループ 5217" transform="translate(303.316 816.597)">
        <g id="グループ_5216" data-name="グループ 5216">
          <path id="パス_7978" data-name="パス 7978" d="M133.031,667.535a34.4,34.4,0,0,0,7.083-4.96c.622-.571,2.061-1.938,2.061-2.31,0-.324-.354-.511-.667-.649l.078-.279a2.144,2.144,0,0,1,.529-.093c.805,0,2.076.853,2.076,1.409,0,.219-.123.342-.481.559a13.841,13.841,0,0,0-1.8,1.505c-.91.8-1.394,1.174-1.8,1.5.433.249.622.466.622.73,0,.09-.1.5-.108.586-.048.513-.048,1.691-.048,1.907,0,.916.015,1.893.048,2.791,0,.156.045,1.289.045,1.334,0,.171,0,.991-.559.991-.619,0-.913-1.133-.913-1.535,0-.2.123-1.129.138-1.316.045-.76.045-1.926.045-2.373a10.9,10.9,0,0,0-.168-2.448,17.713,17.713,0,0,1-6.062,2.914Z" transform="translate(-133.031 -658.577)" fill="#1a1311"/>
          <path id="パス_7979" data-name="パス 7979" d="M144.746,659.584a3.736,3.736,0,0,1,.541-.078c.823,0,1.986,1.024,1.986,1.5,0,.126,0,.141-.357.592-.2.234-.249.357-.649,1.442-2.079,5.578-5.425,7.609-8.621,8.432l-.123-.264a14.964,14.964,0,0,0,7.023-7.549,9.174,9.174,0,0,0,.79-2.758,1.348,1.348,0,0,0-.7-1.039Z" transform="translate(-124.033 -658.052)" fill="#1a1311"/>
          <path id="パス_7980" data-name="パス 7980" d="M142.14,662.865c2.325-.1,4.2.541,4.2,1.733a.68.68,0,0,1-.6.712c-.279,0-.436-.123-.712-.4a8.51,8.51,0,0,0-2.947-1.751Zm1.409,5.873c.171.264.559.805.979.805.556,0,3.007-1.472,4.77-2.851a22.834,22.834,0,0,0,4.62-4.851l.279.141c-1.1,2.866-3.13,5.236-7.825,8.276a9.213,9.213,0,0,0-.964.679.877.877,0,0,1-.589.312,2.219,2.219,0,0,1-1.628-1.922,1.7,1.7,0,0,1,.081-.5Zm.078-9.174c2.124-.015,4.185.511,4.185,1.781a.654.654,0,0,1-.6.712c-.294,0-.433-.138-.679-.4a8.471,8.471,0,0,0-2.98-1.8Z" transform="translate(-114.903 -657.936)" fill="#1a1311"/>
          <path id="パス_7981" data-name="パス 7981" d="M147.124,659.656c.838.168,4.263.928,4.263,2.7,0,.51-.264.883-.622.883-.324,0-.5-.216-.868-.73a10.455,10.455,0,0,0-2.914-2.586Zm.37,8.619c.2.249.577.76,1.057.76.883,0,6.263-3.088,9.517-7.519l.264.141c-1.784,4.2-5.008,6.29-8.435,8.492-.06.048-.448.342-.667.514a.7.7,0,0,1-.415.183,2.3,2.3,0,0,1-1.646-2.016,3.377,3.377,0,0,1,.048-.463Z" transform="translate(-105.071 -657.751)" fill="#1a1311"/>
          <path id="パス_7982" data-name="パス 7982" d="M156.476,672.522h-3.193v.34c0,.361-.015.592-.775.592-.294,0-.372-.156-.372-.372s.063-2.154.063-2.418v-6.371c0-.916,0-.931-.063-2.121l1.163.619h.373v-1.908h-.745a9.211,9.211,0,0,0-1.178.063l-.324-.931c.5.03.958.063,1.58.063h2.962l.5-.7c.045-.06.093-.138.2-.138a.407.407,0,0,1,.231.108l1.072.946a.472.472,0,0,1,.168.309c0,.279-.357.279-.466.279H156.01v1.908h.5l.312-.466c.027-.045.108-.171.2-.171a.331.331,0,0,1,.234.141l.544.6a.492.492,0,0,1,.153.294c0,.168-.138.277-.4.463V670.4a12.18,12.18,0,0,0,2.109-4.683l1.256.391c.309.093.388.186.388.294,0,.231-.2.264-.574.312-.111.216-.138.307-.264.556h2.418l.436-.544a.259.259,0,0,1,.216-.123.36.36,0,0,1,.231.111l.931.913a.475.475,0,0,1,.156.31c0,.2-.081.234-.775.466a10.339,10.339,0,0,1-1.628,2.4,8,8,0,0,0,3.346,1.133v.309a1.82,1.82,0,0,0-1.069,1.115,8.444,8.444,0,0,1-3.07-1.826,9.437,9.437,0,0,1-4.263,1.892l-.075-.249a1.436,1.436,0,0,1-.511.093c-.327,0-.327-.126-.327-.466Zm-3.349-4.917c.451-.712.7-1.394.685-4.025h-.685Zm3.349-.06h-.294c-.9,0-1.021-.123-1.021-.976v-2.989h-.637c-.015,2.043-.015,3.5-1.241,4.461v1.166h3.193Zm0,2.466h-3.193v1.706h3.193Zm-1.953-7.221h.637v-1.908h-.637Zm2.139.79h-.82v2.4c0,.342.108.342.448.342h.373Zm3.019,5.02a7.545,7.545,0,0,1-2.154,2.358c.015.276.063,1.487.063,1.721a.789.789,0,0,1-.063.339,12.393,12.393,0,0,0,3.413-2.247A6.875,6.875,0,0,1,159.681,668.6Zm3.241-5.765c.171.03.406.048.406.249,0,.186-.141.249-.529.433v.976c0,.469.048.577.79.577s.76,0,1.084-1.427l.309.015c.03.264.1,1.132.264,1.271.309.249.372.31.372.514,0,.787-1.069.787-2.109.787-1.379,0-1.859-.093-1.859-1.238v-.946c0-.354-.015-.463-.048-1.364-.306.045-.463.075-1.8.276l.946.312c.246.075.342.156.342.312,0,.231-.234.276-.5.292a4.944,4.944,0,0,1-2.9,2.806l-.141-.264a5.718,5.718,0,0,0,2-3.428c-.373.063-.481.078-.775.123-.063.156-.141.373-.342.373-.123,0-.171-.06-.231-.276l-.387-1.286c.339.015.787.03,1.439.03a11.412,11.412,0,0,0,1.024-2.929l1.457.5c.219.075.342.138.342.294,0,.264-.312.277-.634.292-.174.234-.264.391-1.49,1.832.466,0,2.277-.108,3.425-.171a6.8,6.8,0,0,0-1.051-1.208l.153-.264c.742.309,2.743,1.162,2.743,2.433a.655.655,0,0,1-.589.682c-.309,0-.372-.09-.82-.946-.063-.108-.123-.216-.156-.276a10.407,10.407,0,0,1-1.968.481Zm-2.944,5.3a6.141,6.141,0,0,0,1.55,2.016,7.821,7.821,0,0,0,1.256-2.076h-2.761Z" transform="translate(-96.174 -659.022)" fill="#1a1311"/>
          <path id="パス_7983" data-name="パス 7983" d="M141.45,665.741a12.037,12.037,0,0,0,0,14.834h-.805a10.938,10.938,0,0,1,0-14.834Z" transform="translate(-123.582 -645.557)" fill="#1a1311"/>
          <path id="パス_7984" data-name="パス 7984" d="M141.606,669.822c0,.634.108.787.793.787h7.642c.82,0,.868-.2,1.379-2.292l.309.018c0,.075.108,1.577.123,1.7.033.156.081.2.327.511a.466.466,0,0,1,.123.309c0,.994-1.673.994-2.325.994h-8.033c-1.547,0-1.685-.622-1.685-1.628V667.59c0-.484-.033-1.271-.078-1.766l1.58.183c.171.015.421.063.421.246,0,.2-.2.3-.577.469v1.688c2.094-.4,6.468-1.241,8.048-2.34l1.039,1.118a.565.565,0,0,1,.183.387.212.212,0,0,1-.231.216c-.141,0-.186-.018-.529-.189a43.629,43.629,0,0,1-8.51,1.289Zm7.939,3.563.4-.571a.319.319,0,0,1,.231-.156.529.529,0,0,1,.249.123l.976.793a.4.4,0,0,1,.183.306c0,.171-.06.219-.556.577v3.13c0,.153.06,1.827.06,2.016s0,.571-1.006.571c-.373,0-.418-.123-.418-.4V679.4h-8.063c0,.559,0,.76-.883.76-.372,0-.511-.078-.511-.358,0-.324.063-1.781.063-2.091v-3.286c0-.372-.033-1.349-.063-1.826l1.535.787Zm-7.939.808v1.751h8.063v-1.751Zm0,2.556v1.845h8.063v-1.845Z" transform="translate(-118.701 -645.391)" fill="#1a1311"/>
          <path id="パス_7985" data-name="パス 7985" d="M154.621,669.15a1.743,1.743,0,0,1,1.148.312,1.336,1.336,0,0,1,.664.991,6.107,6.107,0,0,1-.291.853c-.1.279-.421,1.427-.484,1.676,1.893.82,2.31,1.159,2.31,1.889,0,.418-.2.7-.5.7-.216,0-.279-.048-.79-.448a13.235,13.235,0,0,0-1.424-.964c-1.3,3.427-3.319,4.094-4.467,4.344l-.123-.279a8.906,8.906,0,0,0,3.5-4.62,11.146,11.146,0,0,0-4.124-1.039,24.33,24.33,0,0,1-1.688,3.536,2.085,2.085,0,0,1-1.751,1.051,1.813,1.813,0,0,1-1.766-1.983c0-1.382,1.039-3.223,4.419-3.473.2-.435,1.8-3.953,1.8-4.064a.094.094,0,0,0-.108-.093,10.043,10.043,0,0,0-2.064.7,1.548,1.548,0,0,1-.526.186c-.589,0-1.319-.853-1.319-1.661,0-.045.018-.06.048-.264l.264-.108a1.188,1.188,0,0,0,1.024.637,13.378,13.378,0,0,0,2-.372,12.6,12.6,0,0,1,1.364-.4,1.283,1.283,0,0,1,1.036.946,5.517,5.517,0,0,1-.634,1.084c-.153.279-1.117,2.082-1.706,3.4a14.625,14.625,0,0,1,4.091.835,10.156,10.156,0,0,0,.421-2.124,1.021,1.021,0,0,0-.463-.976Zm-8.742,5.984c0,.637.339.916.679.916.466,0,.823-.529,1.241-1.331.388-.715.745-1.46,1.039-2.109C146.345,672.95,145.879,674.392,145.879,675.134Z" transform="translate(-109.366 -644.535)" fill="#1a1311"/>
          <path id="パス_7986" data-name="パス 7986" d="M150,680.575a12.037,12.037,0,0,0,0-14.834h.805a10.937,10.937,0,0,1,0,14.834Z" transform="translate(-99.015 -645.557)" fill="#1a1311"/>
        </g>
      </g>
      <g id="グループ_5219" data-name="グループ 5219" transform="translate(174.096 864.574)">
        <g id="グループ_5218" data-name="グループ 5218">
          <path id="パス_7987" data-name="パス 7987" d="M96.882,675.174c.291.033.448.078.448.279,0,.234-.2.294-.544.372a8.385,8.385,0,0,1-.231,1.349h4.17l.388-.544c.048-.06.108-.156.216-.156a.4.4,0,0,1,.249.123l.931.841c.108.108.2.168.2.31,0,.108-.03.231-.556.589V686.1c0,.264.03,1.394.03,1.628,0,.979-.342,1.475-1.983,1.613-.045-.913-.418-1.021-1.844-1.49v-.31l1.923.078c.541.015.541-.186.541-.541v-9.1h-4.5a3.8,3.8,0,0,1-.2.529c.279.108,4.124,1.427,4.124,3.208,0,.511-.282.73-.577.73s-.339-.063-.745-.667a11.268,11.268,0,0,0-2.974-2.869,7.85,7.85,0,0,1-4.218,3.89l-.171-.264a10.262,10.262,0,0,0,3.488-4.557H91.394v8.9c0,.294.03,1.613.03,1.893,0,.216,0,.574-.976.574-.406,0-.421-.219-.421-.4,0-.328.048-1.751.048-2.049v-8.447c0-.838-.015-1.349-.06-1.938l1.6.667h3.626a9.842,9.842,0,0,0,.2-2.157Zm.09,6.248c.066.015.324.123.324.324,0,.219-.216.279-.649.294a6.83,6.83,0,0,1-.388.868,13.166,13.166,0,0,1,2.776,1.349,2.423,2.423,0,0,1,1.193,1.736c0,.5-.279.76-.6.76-.186,0-.354-.06-.574-.406a10.152,10.152,0,0,0-3.01-3.034,9.8,9.8,0,0,1-4.26,3.905l-.186-.247c3.313-2.917,3.8-4.947,4.028-5.954Z" transform="translate(-90.015 -674.943)" fill="#1a1311"/>
          <path id="パス_7988" data-name="パス 7988" d="M101.135,686.686c3.193-1.208,5.1-3.331,5.1-6.014a4.075,4.075,0,0,0-4.263-4.185c-.168,0-.264,0-.7.03a1.576,1.576,0,0,1,.637,1.148,27.447,27.447,0,0,1-1.736,4.713c-.793,1.814-1.52,3.316-2.683,3.316-1.226,0-2.5-1.6-2.5-3.659a6.656,6.656,0,0,1,6.975-6.356c3.04,0,5.69,1.784,5.69,5.134,0,3.409-2.758,5.7-6.435,6.152Zm-4.993-4.71c0,1.4.712,2.448,1.256,2.448s.9-.727,1.55-2.124c.511-1.069,1.781-4.046,1.781-5.026a1.069,1.069,0,0,0-.216-.646A5.706,5.706,0,0,0,96.143,681.975Z" transform="translate(-80.035 -673.618)" fill="#1a1311"/>
          <path id="パス_7989" data-name="パス 7989" d="M101.4,677.882a3.3,3.3,0,0,0,1.3.2,11.106,11.106,0,0,0,2.731-.4c-.637-1.646-.718-1.814-1.646-1.8l-.03-.279a1.382,1.382,0,0,1,1.084-.436c.078,0,1.226,0,1.319.682.033.171.108.883.141,1.024.03.093.075.291.153.511a9.19,9.19,0,0,0,1.3-.544c.466-.246.577-.324.823-.324.357,0,.9.216.9.6,0,.342-.216.559-2.619,1.256.264.589.357.763.73,1.49a14.991,14.991,0,0,0,1.766-.652c.7-.339.775-.372,1.069-.372.231,0,.976.078.976.6,0,.312,0,.511-3.256,1.409.652,1.069.73,1.193,1.52,2.313a2.047,2.047,0,0,1,.514,1.316c0,.231-.048.76-.5.76-.138,0-.2-.018-.835-.357a7.76,7.76,0,0,0-3.89-.991c-1.865,0-2.514.76-2.514,1.487,0,1.613,2.65,1.613,3.4,1.613a9.056,9.056,0,0,0,1.409-.093,7,7,0,0,1,.745-.093c.619,0,1.163.309,1.163.715,0,.388-.448.511-.652.556a10.9,10.9,0,0,1-2.34.2c-.883,0-4.854,0-4.854-2.637,0-1.394,1.241-2.589,3.674-2.589a9.919,9.919,0,0,1,2.4.327c.327.09.934.246,1.009.246.093,0,.123-.048.123-.078s-.339-.589-.544-.9c-.481-.76-.712-1.165-.91-1.5a24.053,24.053,0,0,1-4.422.712,2.632,2.632,0,0,1-2.406-1.208l.2-.219a4.4,4.4,0,0,0,1.893.342,19.438,19.438,0,0,0,4.188-.634c-.324-.637-.589-1.256-.7-1.487a10.839,10.839,0,0,1-2.637.447,2.347,2.347,0,0,1-1.956-.976Z" transform="translate(-69.53 -674.64)" fill="#1a1311"/>
          <path id="パス_7990" data-name="パス 7990" d="M105.716,676.756c.231-.018.246-.033.324-.033.186,0,1.658.2,1.814,1.148.045.249.156,1.331.2,1.55a8.1,8.1,0,0,1,3.286-1.13,5.894,5.894,0,0,0,.544-1.8,1.129,1.129,0,0,0-.715-.943l.108-.264a1.856,1.856,0,0,1,.421-.063c.868,0,1.766.742,1.766,1.319,0,.183-.048.264-.421.958-.15.279-.216.436-.37.745,2.9.186,4.587,1.844,4.587,4.308,0,3.44-3.115,5.365-6.681,5.455l-.03-.294c2-.5,5.332-2,5.332-5.332,0-3.022-2.806-3.3-3.6-3.316a48.947,48.947,0,0,1-2.4,4.866c.153.2.309.4.649.805a.806.806,0,0,1,.264.5c0,.249-.246.436-.6.436a1.345,1.345,0,0,1-1.024-.6c-.541.772-1.379,1.781-2.43,1.781-1.148,0-1.908-1.085-1.908-2.542a5.683,5.683,0,0,1,2.247-4.2c-.481-2.154-.589-2.587-1.442-3.052Zm.231,7.468c0,.883.339,1.442.835,1.442.67,0,1.49-1.241,1.754-1.628a13.879,13.879,0,0,1-1.211-2.977A4.736,4.736,0,0,0,105.947,684.224Zm5.041-5.05a6.737,6.737,0,0,0-2.746,1.1,10.915,10.915,0,0,0,.991,2.586A36.173,36.173,0,0,0,110.988,679.174Z" transform="translate(-60.32 -674.536)" fill="#1a1311"/>
          <path id="パス_7991" data-name="パス 7991" d="M115.432,678c.373.232.373.291.373.4,0,.264-.249.249-.685.219a15.117,15.117,0,0,1-2.974,3.223c.048,0,1.956-.108,2.214-.123a6.675,6.675,0,0,0-.6-1.084l.219-.219c.372.231,1.814,1.1,1.814,2.25,0,.634-.388.823-.6.823-.282,0-.342-.219-.451-.7a5.082,5.082,0,0,0-.2-.649,6.783,6.783,0,0,1-.9.261v4.713c0,.28.048,1.535.048,1.8,0,.544-.712.544-.853.544-.388,0-.418-.126-.418-.391,0-.306.03-1.67.03-1.95v-4.389c-.264.063-1.442.357-1.691.417-.027.186-.093.436-.291.436-.141,0-.2-.108-.279-.339l-.451-1.412a13.991,13.991,0,0,0,1.721.048,20.518,20.518,0,0,0,2.8-4.608Zm-3.47,6.245c.264.093.339.126.339.276,0,.2-.264.265-.448.3a12.381,12.381,0,0,1-1.754,3.707l-.279-.141a15.02,15.02,0,0,0,.976-4.527Zm-1.784-6.822a4.919,4.919,0,0,1,1.316.589,10.905,10.905,0,0,0,1.054-3.022l1.379.6c.406.168.406.295.406.388,0,.234-.231.249-.685.279a15.356,15.356,0,0,1-1.7,2.064,1.639,1.639,0,0,1,.727,1.19c0,.327-.2.826-.619.826-.294,0-.4-.216-.637-.715a5.944,5.944,0,0,0-1.394-1.938Zm3.923,6.155a3.9,3.9,0,0,1,1.61,2.653.714.714,0,0,1-.634.79c-.249,0-.264-.063-.436-.883a6.939,6.939,0,0,0-.775-2.343Zm7.7-7.348.436-.6c.06-.1.123-.141.186-.141a.354.354,0,0,1,.231.108l.9.79a.4.4,0,0,1,.156.279c0,.141-.078.249-.544.559V686.9c0,.277.048,1.532.048,1.781,0,.436-.388.559-.868.559-.388,0-.388-.186-.388-.4V688.2h-4.617v.619c0,.436-.4.514-.79.514s-.448-.126-.448-.433.027-1.628.027-1.908V677.27c0-.324,0-1.24-.045-1.721l1.457.685Zm-4.461.805v4.635h1.718v-4.635Zm0,5.443V687.4h1.718v-4.915Zm4.617-.808v-4.635H120.2v4.635Zm0,5.723v-4.915H120.2V687.4Z" transform="translate(-50.512 -674.993)" fill="#1a1311"/>
          <path id="パス_7992" data-name="パス 7992" d="M115.547,678.825a.768.768,0,0,0,.823.571c.279,0,2.109-.417,2.556-.511a12.1,12.1,0,0,0,.7-2.358c0-.5-.5-.712-.79-.853l.075-.279a2.041,2.041,0,0,1,.652-.138c.727,0,1.568.7,1.568,1.148,0,.138-.033.2-.312.712a16.579,16.579,0,0,0-.637,1.535c.189-.015.454-.045.808-.045,1.793,0,2.385,1.051,2.385,3.037a11.975,11.975,0,0,1-1.1,5.116,2.147,2.147,0,0,1-1.6,1.2c-.514,0-.529-.312-.559-.667a1.114,1.114,0,0,0-.421-.82c-.153-.156-.85-.808-.991-.931l.171-.249a8.982,8.982,0,0,0,1.908.868c.961,0,1.424-3.16,1.424-4.788,0-1.46-.5-1.784-1.3-1.784a6.631,6.631,0,0,0-1.145.123c-.793,2.061-1.4,3.566-2.622,6.218-.342.727-.76,1.625-1.226,1.625-.357,0-.589-.418-.589-.85,0-.373.048-.466.571-1.271A41.963,41.963,0,0,0,118.493,680a9.042,9.042,0,0,0-1.289.469,3.522,3.522,0,0,1-.85.339,1.535,1.535,0,0,1-1.211-1.412,1.253,1.253,0,0,1,.126-.541Zm8.108-1.2a4.22,4.22,0,0,1,2.668,1.087,4.71,4.71,0,0,1,1.706,3.346c0,.7-.372.916-.592.916a.912.912,0,0,1-.448-.126,1.4,1.4,0,0,0-.481-.093c-.249,0-1.337.138-1.553.156l-.09-.282c1.223-.571,1.643-.757,1.643-1.208,0-.883-1.226-2.695-2.932-3.518Z" transform="translate(-39.657 -674.466)" fill="#1a1311"/>
          <path id="パス_7993" data-name="パス 7993" d="M120.4,678.552a4.072,4.072,0,0,0,2.292.544,9.987,9.987,0,0,0,3.055-.511,15.137,15.137,0,0,0-1.58-1.364c-.529-.421-.637-.715-.637-.965a1.192,1.192,0,0,1,1.286-1.066,2.7,2.7,0,0,1,1.039.264l-.045.291c-.279,0-.7.033-.7.342,0,.216.093.324.946,1.256.261.276.712.775.79.853a9.5,9.5,0,0,0,1.766-.9,1.615,1.615,0,0,1,1.1-.447c.4,0,.991.141.991.571,0,.342-.291.5-.82.76-.667.324-1.5.652-2.232.931.961,1.117,1.688,1.953,2.463,3.007.562.76.7,1.036.7,1.319,0,.478-.451,1.178-.871,1.178-.183,0-.291-.078-.649-.294a7.479,7.479,0,0,0-4.028-1.241c-1.472,0-2.9.574-2.9,1.877,0,1.148,1.238,1.751,3.394,1.751.372,0,2.016-.141,2.34-.141a1.144,1.144,0,0,1,1.178.868c0,.4-.186.6-2.728.6-1.193,0-5.269,0-5.269-2.866,0-1.49,1.286-2.947,4-2.947a8.765,8.765,0,0,1,3.409.7.972.972,0,0,0,.309.093.1.1,0,0,0,.108-.108c0-.574-1.968-2.821-2.5-3.424a13.145,13.145,0,0,1-3.686.76,2.971,2.971,0,0,1-2.731-1.475Z" transform="translate(-29.543 -674.598)" fill="#1a1311"/>
        </g>
      </g>
      <g id="グループ_5221" data-name="グループ 5221" transform="translate(50.044 783.154)">
        <g id="グループ_5220" data-name="グループ 5220">
          <path id="パス_7994" data-name="パス 7994" d="M58.157,648.526a1.7,1.7,0,0,1,.931-.291c.622,0,1.646.433,1.646.943,0,.126-.174.715-.189.823-.03.234-.03.372-.048,1.613.5-.033.856-.063,1.166-.108.123-.015.652-.123.76-.123.294,0,1.61.447,1.61,1.024,0,.354-.372.4-.556.4-.279,0-1.49-.093-1.739-.108-.6-.033-.928-.033-1.256-.033a12.544,12.544,0,0,1-.679,4.776,6.825,6.825,0,0,1-4.713,3.5l-.138-.264c4.167-2.124,4.215-4.725,4.278-7.982-1.289.063-2.451.186-3.707.354,0,.454.048,2.388.048,2.776,0,.958-.451,1.054-.577,1.054-.481,0-.712-.7-.712-1.211,0-.216.048-1.159.048-1.364.015-.093,0-.976,0-1.07-.141.033-.838.141-1.039.2a9.263,9.263,0,0,1-1.241.372,1.68,1.68,0,0,1-1.256-1.424,1.467,1.467,0,0,1,.108-.514l.279-.063a1.048,1.048,0,0,0,.928.592c.033,0,1.475-.171,2.22-.249-.015-2.418-.015-2.556-1.006-2.806l.015-.294a1.333,1.333,0,0,1,.805-.264c.634,0,1.5.388,1.5.868,0,.141-.108.76-.123.883-.015.451-.015.529-.015,1.475,1.766-.171,2.559-.264,3.734-.342,0-2.571,0-2.62-1.084-2.869Z" transform="translate(-44.561 -647.196)" fill="#1a1311"/>
          <path id="パス_7995" data-name="パス 7995" d="M56.235,651.728c2.328-.093,4.2.544,4.2,1.733a.68.68,0,0,1-.6.712c-.279,0-.436-.123-.715-.4a8.374,8.374,0,0,0-2.944-1.751Zm1.412,5.873c.171.264.559.808.976.808.559,0,3.007-1.475,4.773-2.854a22.907,22.907,0,0,0,4.62-4.851l.279.141c-1.1,2.866-3.13,5.236-7.828,8.276a9.009,9.009,0,0,0-.961.679.876.876,0,0,1-.589.312,2.219,2.219,0,0,1-1.628-1.922,1.82,1.82,0,0,1,.078-.5Zm.075-9.174c2.124-.015,4.188.511,4.188,1.781a.654.654,0,0,1-.6.712c-.294,0-.436-.138-.682-.4a8.449,8.449,0,0,0-2.977-1.8Z" transform="translate(-33.777 -646.813)" fill="#1a1311"/>
          <path id="パス_7996" data-name="パス 7996" d="M72.789,649.673l.589-.853a.274.274,0,0,1,.234-.153.393.393,0,0,1,.231.138l1.1,1.039a.552.552,0,0,1,.168.358c0,.276-.264.276-.372.276H63.552v1.706H66a13.45,13.45,0,0,0-.075-1.583l1.529.2c.141.015.406.045.406.264,0,.2-.168.261-.589.448v.667H70.3a11.528,11.528,0,0,0-.078-1.583l1.55.2c.138.015.388.045.388.264,0,.2-.171.276-.589.448v.667h1.193l.529-.745c.042-.078.09-.153.2-.153a.393.393,0,0,1,.249.138l.916.883a.655.655,0,0,1,.183.406c0,.261-.261.276-.385.276H71.566v.436c0,.261.045,1.409.045,1.643,0,.2,0,.649-.961.649-.354,0-.354-.153-.354-.526H67.271c0,.246,0,.589-.868.589-.418,0-.451-.2-.451-.387,0-.126.048-1.535.048-1.8v-.607H63.552v.451c0,3.16-.342,6.477-2.619,8.552l-.246-.183c1.021-1.971,1.532-3.7,1.532-8.384v-2.6c0-.4-.015-1.286-.06-1.875l1.6.727H67.6a14.506,14.506,0,0,0-.075-1.784l1.643.2c.123.012.4.045.4.261s-.2.295-.607.451v.868Zm-.865,6.089c.108-.108.153-.123.216-.123a.332.332,0,0,1,.216.123L73.4,656.8a.438.438,0,0,1,.153.3c0,.276-.093.291-.991.508a15.517,15.517,0,0,1-2.3,2.06,13.973,13.973,0,0,0,4.791.916v.309a2.068,2.068,0,0,0-1.163,1.3,12.874,12.874,0,0,1-4.758-1.784,14.156,14.156,0,0,1-6.263,1.893l-.078-.3a21.7,21.7,0,0,0,5.4-2.232,7.171,7.171,0,0,1-2.154-2.665h-.7a10.018,10.018,0,0,0-1.208.063l-.309-.931c.448.033.943.063,1.565.063h6.062Zm-5.305,1.349a8.093,8.093,0,0,0,2.5,2.061,10.568,10.568,0,0,0,2.157-2.061Zm.652-4.121v1.394H70.3V652.99Z" transform="translate(-24.737 -647.889)" fill="#1a1311"/>
          <path id="パス_7997" data-name="パス 7997" d="M52.423,654.6a12.037,12.037,0,0,0,0,14.833h-.805a10.937,10.937,0,0,1,0-14.833Z" transform="translate(-48.719 -634.434)" fill="#1a1311"/>
          <path id="パス_7998" data-name="パス 7998" d="M50.515,667.723a16.346,16.346,0,0,0,2.821-4.124H52.128a10.073,10.073,0,0,0-1.166.06l-.309-.928c.484.03.946.06,1.55.06h1.322a17.436,17.436,0,0,0-.081-1.967l1.472.186c.123.015.357.063.357.261s-.186.279-.559.421v1.1h.76l.418-.571a.3.3,0,0,1,.2-.126.314.314,0,0,1,.216.108l.9.82a.414.414,0,0,1,.174.3c0,.231-.249.279-.454.279H54.715v.5c.216.045,2.247.544,2.247,1.736,0,.433-.231.652-.514.652-.231,0-.279-.078-.694-.715a4.454,4.454,0,0,0-1.039-1.208v1.661c0,.354.033,1.919.033,2.244,0,.2,0,.574-.883.574-.339,0-.372-.141-.372-.433,0-.249.033-2.217.033-2.31v-.913a10.472,10.472,0,0,1-2.776,2.556Zm6.663-11.394H53.567a9.956,9.956,0,0,0-1.148.06l-.324-.928c.436.03.934.06,1.565.06h7.828l.556-.7c.063-.075.111-.138.2-.138a.462.462,0,0,1,.231.108l1.114.976a.4.4,0,0,1,.171.294c0,.216-.231.264-.436.264H58.449v.652h4.467l.433-.514a.261.261,0,0,1,.2-.123.4.4,0,0,1,.249.123l.979.931a.59.59,0,0,1,.2.373c0,.153-.063.309-.931.357-.324.31-.928.835-1.379,1.226L62.4,659.2l.03-.048c-.06.063-.123.108-.388.108H60.389a9.869,9.869,0,0,0-1.087.048l-.324-.9c.943.048.976.048,1.487.048h.372l.339-.451c.063-.078.111-.138.2-.138a.326.326,0,0,1,.216.108l.727.712c.141.141.171.2.156.312a12.466,12.466,0,0,0,.436-1.21H58.449v.511c0,.3.033,1.583.033,1.844,0,.2,0,.592-.9.592-.418,0-.448-.156-.448-.436,0-.309.045-1.7.045-2v-.511H52.657c.027,1.472-.5,2.2-1.229,2.2a.558.558,0,0,1-.589-.526c0-.265.048-.342.622-1.148a4.038,4.038,0,0,0,.682-1.769l.309-.015c.048.2.063.246.108.451h4.617Zm-2.232,3.551.339-.451a.264.264,0,0,1,.219-.141.333.333,0,0,1,.216.108l.727.715a.409.409,0,0,1,.156.294c0,.246-.231.294-.436.294H53.937a9.928,9.928,0,0,0-1.084.048l-.309-.916c.589.033.979.06,1.475.06C54.156,659.892,54.651,659.892,54.946,659.88Zm0-1.427.327-.436c.06-.075.108-.138.216-.138a.316.316,0,0,1,.231.111l.712.679a.437.437,0,0,1,.171.312c0,.276-.339.276-.448.276H54.2a9.768,9.768,0,0,0-1.069.048l-.327-.9c.964.048.979.048,1.49.048Zm7.6,3.163.384-.51a.279.279,0,0,1,.237-.141.4.4,0,0,1,.216.093l.991.775a.327.327,0,0,1,.171.261c0,.141-.063.186-.544.559v3.722c0,.324.06,2,.06,2.046,0,.231,0,.589-.976.589-.388,0-.388-.186-.388-.418v-.264H59.148c0,.51,0,.712-.916.712-.324,0-.436-.123-.436-.4,0-.328.063-1.751.063-2.049v-3.875c0-.342-.015-1.1-.063-1.766l1.445.667Zm-1.1-1.736.327-.451a.289.289,0,0,1,.216-.141.389.389,0,0,1,.231.108l.73.715a.4.4,0,0,1,.153.294c0,.246-.231.279-.433.279h-2.3a7.448,7.448,0,0,0-1.069.063l-.309-.916c.448.033.82.048,1.472.048ZM59.148,662.4v1.087H62.7V662.4Zm0,1.892v1.133H62.7V664.3Zm0,1.94v1.283H62.7v-1.283Z" transform="translate(-45.12 -634.268)" fill="#1a1311"/>
          <path id="パス_7999" data-name="パス 7999" d="M59.44,655.065c.063-.063.111-.126.2-.126a.4.4,0,0,1,.234.126l1.006,1.039a.405.405,0,0,1,.123.264c0,.216-.063.231-.745.463a19.555,19.555,0,0,1-1.889,3.2,4.644,4.644,0,0,1,1.923,3.764c0,.931-.246,2.187-1.844,2.265,0-.805-.9-1.2-1.036-1.259l.015-.291c1.349,0,1.751,0,1.751-1.271a4.161,4.161,0,0,0-1.352-3.148,15.947,15.947,0,0,0,1.229-3.7H57.38v9.859c0,.357.048,1.907.048,2.217,0,.388-.279.577-.9.577-.388,0-.433-.141-.433-.405,0-.373.03-2.031.03-2.37V657.1c0-.339,0-1.487-.063-2.2l1.5.682h1.46Zm7.393,7.519.544-.745c.063-.09.108-.153.2-.153a.32.32,0,0,1,.234.123l.961.961a.513.513,0,0,1,.153.342c0,.279-.246.279-.354.279H65.95v2.184h1.286l.562-.823c.06-.078.108-.153.216-.153a.365.365,0,0,1,.216.123l1.039,1.024a.477.477,0,0,1,.153.342c0,.294-.246.294-.342.294H65.95c0,.325.03,1.751.03,2.043,0,.237,0,.61-.868.61-.4,0-.478-.1-.478-.405,0-.354.03-1.923.03-2.247H61.519a10.578,10.578,0,0,0-1.211.06L60,665.515c.652.045.835.045,1.442.06v-1.937c0-.246-.015-1.1-.078-1.721l1.472.667h1.829c-.015-.9-.048-1.331-.063-1.58l1.52.183c.249.033.372.108.372.264,0,.171-.108.264-.544.451v.682Zm1.5-5.936a.34.34,0,0,1,.153.291c0,.249-.075.264-.79.481a13.7,13.7,0,0,1-1.64,1.784,10.654,10.654,0,0,0,3.827.883v.312a1.847,1.847,0,0,0-1.133,1.241,10.274,10.274,0,0,1-3.6-1.694,11.085,11.085,0,0,1-4.975,2l-.1-.291a16.74,16.74,0,0,0,4.2-2.469,5.294,5.294,0,0,1-1.129-1.842,10.156,10.156,0,0,1-2.917,2.418l-.183-.249a13.783,13.783,0,0,0,3.16-4.839l1.319.358c.264.078.463.171.463.372,0,.219-.216.246-.667.309-.138.216-.183.312-.291.466h2.433l.418-.511c.06-.078.123-.141.2-.141.108,0,.186.1.231.141Zm-3.674,8.928v-2.184H62.634v2.184ZM63.5,656.987a5.469,5.469,0,0,0,1.472,1.628,9.125,9.125,0,0,0,1.364-1.628Z" transform="translate(-34.006 -634.292)" fill="#1a1311"/>
          <path id="パス_8000" data-name="パス 8000" d="M61.883,654.84a1.86,1.86,0,0,1,.82.108,1.646,1.646,0,0,1,1.133,1.319A16.439,16.439,0,0,1,63.28,658a12.638,12.638,0,0,0-.436,3.055c0,.153.015,1.009.141,1.009a3.575,3.575,0,0,0,.246-.775,16.1,16.1,0,0,1,1.208-3.241c.5-.991,1.412-2.277,2.839-2.277,2.8,0,2.8,4.181,2.8,4.9,0,6.17-4.013,7.363-6.4,7.891l-.123-.279c4.293-1.892,5.146-4.836,5.146-7.765,0-.73-.015-3.737-1.643-3.737-2.076,0-3.223,4.431-3.223,6.338,0,.544,0,1.4-.7,1.4-1.114,0-1.364-2.232-1.364-3.331a25.467,25.467,0,0,1,.433-3.785,6.446,6.446,0,0,0,.156-1.177,1.263,1.263,0,0,0-.6-1.115Z" transform="translate(-22.585 -633.959)" fill="#1a1311"/>
          <path id="パス_8001" data-name="パス 8001" d="M66.156,669.437a12.026,12.026,0,0,0,0-14.833h.808a10.937,10.937,0,0,1,0,14.833Z" transform="translate(-13.776 -634.434)" fill="#1a1311"/>
        </g>
      </g>
      <g id="グループ_5223" data-name="グループ 5223" transform="translate(48.058 612.242)">
        <g id="グループ_5222" data-name="グループ 5222">
          <path id="パス_8002" data-name="パス 8002" d="M52.891,591.412a.237.237,0,0,1,.2-.123.434.434,0,0,1,.231.108l.823.727a.41.41,0,0,1,.141.279c0,.186-.156.3-.514.544v8.76c0,.324.033,1.751.033,2.028,0,1.379-.637,1.475-1.643,1.628-.015-.775-.234-.868-1.538-1.457v-.312l1.553.066c.481.015.481-.2.481-.481v-3.815h-2a8.885,8.885,0,0,1-2.37,5.846l-.231-.186a15.779,15.779,0,0,0,1.439-7.594v-4.356c0-.61-.015-1.274-.06-1.8l1.379.679h1.7ZM52.66,596H50.72v1.409c0,.529,0,.7-.015,1.132H52.66Zm0-3.242H50.72V595.2H52.66Zm3.659,2.809c0,.385.045.556.634.556h3.226c.865,0,.91-.171,1.394-2.076h.309c.078,1.472.093,1.628.339,1.9a.557.557,0,0,1,.2.436c0,.9-1.49.931-2.421.931H56.643c-1.535,0-1.643-.4-1.643-1.568v-3.223a12.568,12.568,0,0,0-.06-1.5l1.532.183c.186.018.421.066.421.237,0,.108-.048.231-.574.433v1.784a15.049,15.049,0,0,0,4.587-2.127l.976.976c.216.216.2.343.2.373a.227.227,0,0,1-.237.231,1.161,1.161,0,0,1-.5-.153,28.384,28.384,0,0,1-5.035,1.226Zm3.656,3.049.421-.556c.075-.1.123-.156.231-.156a.4.4,0,0,1,.231.108l.991.808a.3.3,0,0,1,.156.261c0,.171-.108.261-.556.574v2.992c0,.249.06,1.953.06,2.109,0,.231,0,.589-.976.589-.388,0-.388-.186-.388-.432V604.6H56.535c0,.607,0,.79-.931.79-.339,0-.418-.138-.418-.4,0-.123.045-1.721.045-2.046v-3.07c0-.619,0-1.424-.045-1.934l1.457.679Zm-3.44.808v1.751h3.611v-1.751Zm0,2.556V603.8h3.611v-1.814Z" transform="translate(-48.058 -590.934)" fill="#1a1311"/>
          <path id="パス_8003" data-name="パス 8003" d="M59.087,601.758c0,.328.03,1.736.03,2.034,0,1.346-.649,1.472-1.673,1.61-.015-.76-.2-.835-1.55-1.439v-.294l1.55.045c.481.015.5-.2.5-.481v-3.845H55.908a8.923,8.923,0,0,1-2.37,5.876l-.249-.186c.916-1.889,1.472-3.752,1.472-7.582v-4.4c0-.586-.03-1.208-.06-1.794l1.379.679h1.7l.372-.541c.063-.1.108-.138.216-.138a.35.35,0,0,1,.234.108l.853.727a.43.43,0,0,1,.153.295c0,.153-.123.264-.526.541v.742c.291.015.835.063,1.52.063h1.9v-.988a15.812,15.812,0,0,0-.075-1.769l1.562.189c.249.027.406.075.406.231,0,.141-.063.249-.574.447v1.89h1.736l.556-.832a.251.251,0,0,1,.219-.141c.06,0,.123.033.231.123l1.148,1.052a.431.431,0,0,1,.153.309c0,.234-.246.3-.433.3H62.914c0,.634-.015.757-.075,2.307h2.307l.421-.571c.093-.123.138-.156.216-.156a.394.394,0,0,1,.264.123l.913.805a.443.443,0,0,1,.186.327c0,.093,0,.216-.589.526a25.736,25.736,0,0,1-.619,5.954,2.107,2.107,0,0,1-2.172,1.442c-.018-.574-.018-.838-1.442-1.394l.033-.312c.168.015,1.457.078,1.487.078.913,0,1.036-.853,1.117-1.367A42.859,42.859,0,0,0,65.3,597.7H62.791a11.433,11.433,0,0,1-.943,4.139,8.22,8.22,0,0,1-2.638,3.268l-.219-.216c2.451-3.208,2.577-6.588,2.592-10.322H60.529c-.216,0-.589.015-1.151.06l-.291-.868Zm-1.148-5.732H55.972v1.454c0,.5,0,.715-.015,1.1h1.983Zm0-3.238H55.972v2.43h1.968Z" transform="translate(-37.575 -590.944)" fill="#1a1311"/>
          <path id="パス_8004" data-name="パス 8004" d="M64.192,591.95l.511-.73c.06-.093.093-.138.2-.138a.3.3,0,0,1,.219.108l1.066.976a.507.507,0,0,1,.171.309c0,.279-.342.279-.436.279H59.944a8.454,8.454,0,0,0-1.084.063l-.327-.931c.436.03.883.063,1.472.063Zm-3.878,9.189v1.815c0,.276.033,1.628.033,1.938,0,.294-.156.526-.73.526-.342,0-.388-.156-.388-.388,0-.279.045-1.736.045-2.061v-3.98c0-.589-.03-1.1-.06-1.781l1.283.649h4.019l.342-.526c.078-.123.126-.153.186-.153a.4.4,0,0,1,.216.108L66,598c.138.123.156.2.156.28,0,.186-.123.279-.481.559v3.638c0,.216.048,1.241.048,1.472,0,.868-.189,1.316-1.505,1.472.018-.775-.171-1.054-.964-1.271v-.309l.871.045c.544.033.544-.249.544-.556v-2.7c-.156.126-.309.2-1.054.2-.868,0-.979-.249-.979-.946v-1.223h-.853l.466.216c.048.03.234.108.234.264,0,.213-.279.213-.466.213a2.928,2.928,0,0,1-1.658,1.829Zm3.539-7.393.369-.541c.06-.1.108-.123.168-.123a.3.3,0,0,1,.2.093l.805.742a.4.4,0,0,1,.153.294c0,.126-.045.22-.463.511v.607c0,.2.045,1.117.045,1.3,0,.5-.508.559-.787.559-.345,0-.357-.138-.357-.4H61.106c0,.138-.015.481-.742.481-.345,0-.406-.141-.406-.421,0-.2.045-1.132.045-1.316v-.991c0-.391-.027-1.072-.045-1.43l1.331.637Zm-3.539,4.918v2.121a3.525,3.525,0,0,0,1.009-2.121Zm2.637,4.07c0,.279.033,1.52,0,1.724-.063.292-.312.4-.7.4-.339,0-.339-.216-.339-.384,0-.313.033-1.643.033-1.908v-.354a9.761,9.761,0,0,0-1.117.06l-.312-.928c.421.03.868.06,1.475.06h.9l.294-.433c.078-.111.141-.126.2-.126a.268.268,0,0,1,.2.1l.712.694a.418.418,0,0,1,.153.3c0,.28-.324.28-.433.28H62.951Zm-1.844-8.18v1.424H63.99v-1.424Zm3.566,4.11H63.428v.943c0,.264.063.343.324.343.373,0,.391-.078.469-.823h.309a2.967,2.967,0,0,0,.141.745Zm5.858,1.995c.7.559,2.28,1.829,2.28,3.521,0,.5-.279.82-.67.82-.369,0-.478-.294-.619-.9-.045-.2-.108-.388-.261-.931-.4.171-.964.405-1.832.7-1.379.483-1.908.652-2.355.808-.063.324-.123.5-.309.5-.108,0-.2-.048-.309-.324l-.6-1.535a18.484,18.484,0,0,0,2.836-.3V599.5H67.553v.4c0,.312-.108.529-.679.529-.36,0-.4-.123-.4-.421,0-.168.03-.928.03-1.084V595.33c0-.73-.015-1.148-.048-1.814l1.208.619h1.024v-1.3a18.1,18.1,0,0,0-.06-1.815l1.364.2c.168.03.4.063.4.246,0,.2-.2.3-.589.45v2.217h1.024l.406-.529c.06-.075.108-.123.168-.123a.27.27,0,0,1,.186.1l.82.742a.456.456,0,0,1,.156.294c0,.108-.03.231-.5.544v2.682c0,.277.048,1.547.048,1.67,0,.343-.123.577-.823.577-.324,0-.324-.1-.324-.592H69.8v3.334c.2-.033,1.1-.186,1.289-.219a7.344,7.344,0,0,0-.775-1.733Zm-2.977-5.717v3.749h1.132v-3.749Zm3.413,3.749v-3.749H69.8v3.749Z" transform="translate(-27.068 -590.944)" fill="#1a1311"/>
          <path id="パス_8005" data-name="パス 8005" d="M66.488,601.736c.018,1.688-.526,3.611-1.859,3.611a.613.613,0,0,1-.682-.544c0-.264.015-.276.931-1.208a6.622,6.622,0,0,0,1.3-1.923Zm3.4-5.786V592.6a12.332,12.332,0,0,0-.078-1.61l1.6.183c.2.033.4.063.4.249,0,.171-.135.261-.556.436v1.331h3.935l.607-.82c.09-.123.138-.156.216-.156a.352.352,0,0,1,.246.141l1.166,1.021c.042.045.2.2.2.342,0,.279-.369.279-.463.279H71.25v1.95h3.361l.436-.6a.245.245,0,0,1,.216-.138.413.413,0,0,1,.231.09l1.024.868a.334.334,0,0,1,.168.279c0,.126-.045.216-.556.574v2.139c0,.219.033,1.322.033,1.568,0,.264,0,.667-.964.667-.418,0-.418-.186-.418-.4v-.279H66.738c0,.436,0,.7-.931.7-.324,0-.466-.093-.466-.4,0-.246.048-1.52.048-1.814V596.96c0-.451,0-1.225-.048-1.721l1.568.712Zm-3.148.808V599.9h8.045v-3.145Zm1.054,4.914a3.6,3.6,0,0,1,2.127,2.619c0,.652-.39.931-.748.931-.4,0-.481-.3-.634-.9a10.977,10.977,0,0,0-.979-2.43Zm3.145.015c1.229.463,2.649,1.535,2.649,2.7a.778.778,0,0,1-.709.82c-.327,0-.388-.138-.961-1.412a6.084,6.084,0,0,0-1.163-1.859Zm3.473-.123c1.754.574,3.193,1.751,3.193,2.962a.728.728,0,0,1-.667.82c-.324,0-.385-.108-.928-1.1a10.219,10.219,0,0,0-1.784-2.421Z" transform="translate(-16.217 -590.994)" fill="#1a1311"/>
          <path id="パス_8006" data-name="パス 8006" d="M75.224,602.691c3.19-1.208,5.1-3.331,5.1-6.014a4.075,4.075,0,0,0-4.263-4.185c-.168,0-.264,0-.7.03A1.576,1.576,0,0,1,76,593.669a27.448,27.448,0,0,1-1.736,4.713c-.793,1.815-1.52,3.316-2.683,3.316-1.226,0-2.5-1.6-2.5-3.659a6.654,6.654,0,0,1,6.975-6.356c3.04,0,5.69,1.784,5.69,5.134,0,3.409-2.758,5.7-6.435,6.152Zm-4.993-4.71c0,1.4.712,2.448,1.256,2.448s.9-.727,1.547-2.124c.514-1.069,1.784-4.049,1.784-5.026a1.083,1.083,0,0,0-.216-.649A5.705,5.705,0,0,0,70.232,597.98Z" transform="translate(-5.922 -589.611)" fill="#1a1311"/>
          <path id="パス_8007" data-name="パス 8007" d="M59.756,602.044c.075,0,.294.033.294.231,0,.078-.015.2-.451.406v6.555c0,.388.048,2.094.048,2.433,0,.2,0,.574-1.006.574-.372,0-.406-.168-.406-.4,0-.373.033-2.019.033-2.358v-5.563a12.9,12.9,0,0,1-2.094,2.541l-.234-.219c1.52-2.758,3.226-5.843,3.6-8.447l1.562.556c.373.123.421.219.421.342,0,.264-.231.276-.667.31A22.422,22.422,0,0,1,59.444,602Zm8.525,1.241.5-.745c.063-.09.108-.138.2-.138a.418.418,0,0,1,.249.123l1.006.991a.556.556,0,0,1,.156.313c0,.265-.357.265-.448.265h-2.98c.264,2.635.841,4.136,1.769,5.221.123.141.327.339.478.339.108,0,.219-.09.372-.4.111-.216.5-1.145.577-1.331l.291.075c-.075.373-.448,1.971-.448,2.31,0,.171.231.9.231,1.057a.585.585,0,0,1-.637.619c-.526,0-.85-.342-1.5-1.1a10.637,10.637,0,0,1-1.721-3.175,42.578,42.578,0,0,1-4.9,1.889c-.075.325-.156.481-.339.481s-.216-.141-.279-.355l-.466-1.46a11.085,11.085,0,0,0,1.193-.093V600.65a15.438,15.438,0,0,0-.06-1.847l1.613.7c3.752-.961,3.983-1.024,5.056-1.736l1.126,1.148a.5.5,0,0,1,.2.357c0,.156-.108.2-.231.2a1.948,1.948,0,0,1-.622-.171c-.544.108-.913.171-1.874.3.03,2.418.03,2.68.093,3.689ZM65.2,610.569l.511-.727c.1-.108.156-.156.219-.156a.366.366,0,0,1,.249.138l1.036.961a.458.458,0,0,1,.171.312c0,.276-.372.276-.448.276H62.159a9.143,9.143,0,0,0-1.166.063l-.309-.931c.544.03.931.063,1.55.063Zm.357-7.285c-.03-.667-.045-.943-.078-3.521-.853.093-1.424.141-2.541.2v3.316Zm-2.619,4.7c.291-.063,2.665-.544,3.316-.667a14.562,14.562,0,0,1-.634-3.223H62.934Z" transform="translate(-32.261 -577.429)" fill="#1a1311"/>
          <path id="パス_8008" data-name="パス 8008" d="M61.682,601.324a4.082,4.082,0,0,0,2.3.541,9.988,9.988,0,0,0,3.052-.511,15.536,15.536,0,0,0-1.58-1.364c-.529-.417-.637-.712-.637-.961A1.193,1.193,0,0,1,66.1,597.96a2.7,2.7,0,0,1,1.036.264l-.045.294c-.279,0-.7.033-.7.339,0,.219.093.328.946,1.256.264.279.712.775.79.853a9.244,9.244,0,0,0,1.766-.9,1.606,1.606,0,0,1,1.1-.45c.4,0,.994.141.994.574,0,.342-.294.5-.823.76-.667.325-1.5.649-2.232.928.961,1.118,1.688,1.953,2.463,3.007.562.76.7,1.039.7,1.322,0,.478-.451,1.174-.868,1.174-.186,0-.294-.075-.652-.294a7.48,7.48,0,0,0-4.028-1.241c-1.472,0-2.9.577-2.9,1.877,0,1.148,1.238,1.751,3.395,1.751.372,0,2.016-.138,2.34-.138a1.139,1.139,0,0,1,1.178.868c0,.4-.186.6-2.728.6-1.193,0-5.269,0-5.269-2.866,0-1.49,1.289-2.95,4-2.95a8.758,8.758,0,0,1,3.41.7,1.056,1.056,0,0,0,.309.093.106.106,0,0,0,.108-.108c0-.577-1.968-2.824-2.5-3.428a13.141,13.141,0,0,1-3.686.76,2.968,2.968,0,0,1-2.731-1.472Z" transform="translate(-21.165 -577.034)" fill="#1a1311"/>
          <path id="パス_8009" data-name="パス 8009" d="M55.356,604.483a12.026,12.026,0,0,0,0,14.834h-.808a10.938,10.938,0,0,1,0-14.834Z" transform="translate(-40.862 -563.962)" fill="#1a1311"/>
          <path id="パス_8010" data-name="パス 8010" d="M63.876,605.7l.406-.559c.093-.123.138-.153.216-.153a.387.387,0,0,1,.231.108l1.039.853c.063.063.2.171.2.309,0,.186-.171.295-.592.6v7.75c0,.126.048,1.878.048,2.094,0,.171,0,.559-.991.559-.421,0-.421-.156-.421-.544v-.775H55.429v.667c0,.465,0,.712-.946.712-.357,0-.481-.06-.481-.388,0-.108.048-1.736.048-2.076V606.8c0-.4-.015-1.3-.063-1.8l1.658.7Zm-8.447.808v8.633h8.588v-8.633Z" transform="translate(-36.176 -562.948)" fill="#1a1311"/>
          <path id="パス_8011" data-name="パス 8011" d="M60.868,605.211a1.891,1.891,0,0,1,.787-.2c.778,0,1.724.667,1.724,1.148,0,.126-.156.682-.171.79-.033.294-.033,1.024-.033,1.367a3.027,3.027,0,0,0,.357,1.859c.559-.249,3.07-1.337,3.581-1.568a.779.779,0,0,1,.388-.123c.466,0,1.178.436,1.178.9,0,.358-.141.388-1.271.67-1.117.261-7.393,2.076-7.393,4.461,0,1.661,2.418,1.784,3.887,1.784A20.212,20.212,0,0,0,67.192,616a5.4,5.4,0,0,1,.991-.171c.592,0,1.178.481,1.178.868,0,.481-.667.574-1.069.634a34.915,34.915,0,0,1-3.968.219c-2.448,0-3.346-.387-3.89-.7a2.617,2.617,0,0,1-1.412-2.232c0-1.875,1.739-2.989,3.5-3.935-.523-.526-.586-1.148-.619-2.683-.03-1.935-.06-2.154-1.069-2.5Zm6.278.559c1.736.448,2.773,1.424,2.773,2.139a.546.546,0,0,1-.466.589c-.249,0-.324-.123-.637-.6a6.522,6.522,0,0,0-1.841-1.874Zm1.346-1.054c2.109.387,2.944,1.394,2.944,1.97a.5.5,0,0,1-.433.541c-.231,0-.294-.078-.652-.541a6.337,6.337,0,0,0-2-1.706Z" transform="translate(-26.088 -563.497)" fill="#1a1311"/>
          <path id="パス_8012" data-name="パス 8012" d="M64.152,605.507a1.467,1.467,0,0,1,1.021.216,1.629,1.629,0,0,1,.883,1.223,2.784,2.784,0,0,1-.276.995,11.978,11.978,0,0,0-.7,4.259c0,.279.015,1.848.231,1.848.081,0,.126-.1.171-.2.108-.2.82-1.736.976-2.061l.279.093c-.075.339-.436,1.811-.5,2.109a4,4,0,0,0-.156,1.085c0,.156.093.838.093.979a.581.581,0,0,1-.6.6c-1.039,0-1.628-2.031-1.628-4.311a22.221,22.221,0,0,1,.357-3.686,11.4,11.4,0,0,0,.231-1.817,1.334,1.334,0,0,0-.526-1.066Zm4.662,12.3c3.458-2,3.428-4.233,3.334-8.138-.652.063-1.766.171-2.34.171-1.394,0-1.673-.481-2-1.066l.189-.234a4.026,4.026,0,0,0,1.472.186,18.356,18.356,0,0,0,2.634-.2c-.093-2.806-.093-2.962-1.006-3.208v-.294a1.412,1.412,0,0,1,.727-.234c.559,0,1.61.372,1.61,1.009,0,.171-.075.946-.075,1.1,0,.448,0,.742.015,1.439.3-.06,1.751-.421,1.811-.421.387,0,.931.279.931.7,0,.324-.246.481-.544.556-.354.078-.556.111-2.169.342,0,.324.03,1.829.03,2.124,0,2.043,0,5.224-4.512,6.446Z" transform="translate(-16.215 -563.343)" fill="#1a1311"/>
          <path id="パス_8013" data-name="パス 8013" d="M68.846,619.317a12.038,12.038,0,0,0,0-14.834h.805a10.938,10.938,0,0,1,0,14.834Z" transform="translate(-6.399 -563.962)" fill="#1a1311"/>
        </g>
      </g>
      <g id="グループ_5225" data-name="グループ 5225" transform="translate(73.52 841.455)">
        <g id="グループ_5224" data-name="グループ 5224">
          <path id="パス_8014" data-name="パス 8014" d="M68.379,678.893l.622-.916a.261.261,0,0,1,.231-.156.512.512,0,0,1,.231.108l1.3,1.18a.44.44,0,0,1,.171.309c0,.294-.339.294-.448.294h-12.5a8.59,8.59,0,0,0-1.129.063l-.327-.946c.451.03.931.063,1.568.063Zm-1.352-10.358.652-.9c.048-.063.093-.153.2-.153a.391.391,0,0,1,.249.108l1.286,1.163a.447.447,0,0,1,.189.324c0,.279-.345.294-.454.294H59.34a9.138,9.138,0,0,0-1.13.06l-.327-.958c.451.03.946.06,1.565.06Zm-.712,5.056.637-.916c.048-.06.093-.141.216-.141a.387.387,0,0,1,.231.111l1.289,1.162a.5.5,0,0,1,.171.312c0,.279-.327.291-.451.291H60.118a8.628,8.628,0,0,0-1.133.063l-.327-.943c.451.027.931.06,1.55.06Z" transform="translate(-56.534 -666.922)" fill="#1a1311"/>
          <path id="パス_8015" data-name="パス 8015" d="M71.165,679.138c0,.484.078.577.667.577h1.92c.775,0,.775-.033,1.379-2.436h.312c.075,1.784.075,1.986.231,2.157.234.279.406.421.406.652,0,.928-1.538.928-2.265.928H71.288c-1.424,0-1.472-.619-1.472-1.472V673.25H66.824l.838.168c.171.033.4.093.4.3,0,.246-.279.324-.574.387-.712,5.224-3.875,6.837-5.7,7.489l-.123-.282a9.367,9.367,0,0,0,4.106-5.41,10.256,10.256,0,0,0,.373-2.65H63.291a9.7,9.7,0,0,0-1.226.06l-.294-.931c.451.03.946.063,1.568.063H73.613l.667-.976a.253.253,0,0,1,.219-.153.385.385,0,0,1,.246.123l1.241,1.178a.564.564,0,0,1,.168.339c0,.3-.279.3-.4.3H71.165Zm.7-10.724.649-.943c.078-.126.153-.156.216-.156a.383.383,0,0,1,.234.123l1.223,1.148a.533.533,0,0,1,.171.339c0,.3-.264.3-.373.3H64.964c-.418,0-.619.015-1.211.06l-.306-.928c.448.027.943.06,1.562.06Z" transform="translate(-46.256 -667.263)" fill="#1a1311"/>
          <path id="パス_8016" data-name="パス 8016" d="M71.249,667.67c.063-.075.123-.138.2-.138a.378.378,0,0,1,.231.123l.778.7a.453.453,0,0,1,.15.306c0,.141-.06.249-.511.544v8.76c0,.327.033,1.751.033,2.046,0,1.256-.589,1.472-1.565,1.613-.015-.562-.1-.961-1.565-1.457v-.312l1.517.066c.481.012.481-.2.481-.484v-3.827H69.356c-.075,1.054-.276,3.923-2.139,5.888l-.231-.186c.637-1.472,1.256-3.3,1.256-7.594V669.3c0-.82-.03-1.424-.06-1.8l1.364.679h1.346ZM71,672.244H69.4v1.439c0,.406,0,.529-.015,1.117H71Zm0-3.256H69.4v2.448H71Zm1.427,6.867a14.8,14.8,0,0,0,3.644-3.611,7.382,7.382,0,0,0-.529-.991,12.022,12.022,0,0,1-2.559,1.58l-.183-.249a13.543,13.543,0,0,0,3.286-3.563H74.163a9.266,9.266,0,0,0-1.117.06l-.327-.928c.76.06,1.024.06,1.553.06h4.978l.559-.745c.06-.108.123-.171.216-.171a.4.4,0,0,1,.246.141l1.117,1.024a.416.416,0,0,1,.171.294c0,.231-.264.264-.466.264H77.851a27.616,27.616,0,0,0,.73,4.14,8.309,8.309,0,0,0,1.427-2.56l1.223,1.115c.186.171.249.216.249.339,0,.189-.216.234-.357.234a1.683,1.683,0,0,1-.388-.045,13.956,13.956,0,0,1-1.983,1.52,13.6,13.6,0,0,0,3.037,5.146l-.03.309a2.021,2.021,0,0,0-1.286.835c-2.451-3.719-2.995-8.694-3.04-10.787a8.854,8.854,0,0,1-1.55,1.688,10.771,10.771,0,0,1,2.478,7.008c0,2.016-.339,3.629-2.788,3.737,0-.838-.883-1.193-1.553-1.382v-.306c.961.06,1.274.075,1.646.075.82,0,1.439-.168,1.439-2.728,0-.481-.03-.712-.045-.961a13.229,13.229,0,0,1-4.7,3.193l-.141-.279a17.392,17.392,0,0,0,4.635-4.416,12.771,12.771,0,0,0-.321-1.364,12.35,12.35,0,0,1-3.968,2.586Z" transform="translate(-35.588 -667.297)" fill="#1a1311"/>
        </g>
      </g>
      <g id="グループ_5227" data-name="グループ 5227" transform="translate(73.535 863.117)">
        <g id="グループ_5226" data-name="グループ 5226">
          <path id="パス_8017" data-name="パス 8017" d="M68.246,677.523l.679-1.006a.279.279,0,0,1,.216-.156.342.342,0,0,1,.249.138l1.364,1.256a.564.564,0,0,1,.171.342c0,.294-.264.294-.388.294H58.089a10.951,10.951,0,0,0-1.226.06l-.324-.991c.448.03.931.063,1.568.063Z" transform="translate(-56.539 -670.794)" fill="#1a1311"/>
          <path id="パス_8018" data-name="パス 8018" d="M66.874,676.229c.048-.063.123-.156.216-.156a.42.42,0,0,1,.234.126l.805.742c.108.108.156.168.156.294s-.048.2-.529.559v3.07c.685-.111.76-.126.883-.138l-.246-.174a7.889,7.889,0,0,0,1.084-4.278c0-.481-.03-.943-.06-1.271l1.331.6h1.676l.321-.448c.081-.108.126-.156.2-.156a.365.365,0,0,1,.231.108l.886.79a.408.408,0,0,1,.168.282c0,.183-.06.216-.541.541v2.109c0,.354.027.448.481.448.619,0,.694,0,.82-.279a9.516,9.516,0,0,0,.4-1.517h.312a13.881,13.881,0,0,0,.108,1.5c.027.078.276.342.306.4a.662.662,0,0,1,.093.343c0,.745-.85.745-2.091.745-1.5,0-1.613-.063-1.613-1.337v-2.724h-1.89a5.387,5.387,0,0,1-1.968,4.311l.183-.033L68.9,681c-.339.123-.5.186-1.148.388v4.356c0,.264.015,1.427.015,1.676,0,.991-.156,1.442-1.55,1.5,0-.727-.324-.913-1.58-1.331v-.313l1.688.048c.246,0,.342-.048.342-.358v-5.254c-.123.045-.715.2-.823.231v1.829c0,.279.033,1.628.033,1.751,0,.232,0,.511-.622.511-.231,0-.276-.09-.276-.339,0-.312.03-1.628.03-1.893v-1.643l-.79.2c-.06,2.127-.141,4.668-1.844,6.576l-.279-.156a13.991,13.991,0,0,0,1.054-6.14,2.376,2.376,0,0,1-.312.078c-.09.249-.138.373-.306.373-.093,0-.2-.048-.279-.357l-.324-1.286c.448,0,.82-.015,1.223-.033v-3.578c0-.667-.015-1.024-.063-1.736l1.241.6h.279a12.174,12.174,0,0,0,.279-2.2l1.439.342c.234.06.388.123.388.261,0,.219-.168.247-.619.343-.126.183-.682,1.084-.805,1.256h1.256Zm-.2,1.286H64.239v3.8c.835-.063,1.6-.156,2.433-.294Zm-2,.481c.463.234,1.562,1.055,1.562,1.938,0,.574-.324.7-.541.7-.309,0-.4-.186-.5-.6a5.726,5.726,0,0,0-.754-1.829Zm11.685,9.721a1.6,1.6,0,0,0-1.163,1.117,10.062,10.062,0,0,1-3.253-2.082,9.046,9.046,0,0,1-3.971,2.238l-.123-.282a11.217,11.217,0,0,0,3.428-2.649,7.681,7.681,0,0,1-1.751-3.677,6.35,6.35,0,0,0-.931.063l-.309-.931c.448.03.943.063,1.565.063h3.425l.388-.451c.078-.093.141-.153.234-.153a.413.413,0,0,1,.261.141l.916.88c.138.138.186.219.186.342,0,.249-.078.264-.778.433a13.819,13.819,0,0,1-1.8,3.148A8.627,8.627,0,0,0,76.36,687.4Zm-6.48-5.335a7.153,7.153,0,0,0,1.983,2.9,8.441,8.441,0,0,0,1.364-2.9Z" transform="translate(-45.732 -674.508)" fill="#1a1311"/>
          <path id="パス_8019" data-name="パス 8019" d="M71.48,674.911c.06-.078.123-.138.2-.138a.356.356,0,0,1,.231.123l.778.7a.463.463,0,0,1,.153.309c0,.141-.063.249-.511.541v8.76c0,.328.033,1.751.033,2.046,0,1.256-.592,1.472-1.568,1.613-.015-.559-.093-.961-1.562-1.457v-.312l1.517.066c.481.015.481-.2.481-.48v-3.83H69.587c-.078,1.054-.279,3.923-2.139,5.888l-.231-.183c.637-1.475,1.256-3.3,1.256-7.6V676.54c0-.823-.033-1.427-.063-1.8l1.364.679h1.349Zm-.249,4.572h-1.6v1.442c0,.4,0,.526-.012,1.117h1.61Zm0-3.256h-1.6v2.448h1.6Zm1.424,6.867a14.8,14.8,0,0,0,3.644-3.611,6.755,6.755,0,0,0-.529-.991,11.985,11.985,0,0,1-2.556,1.58l-.186-.249a13.49,13.49,0,0,0,3.286-3.562H74.391a9.275,9.275,0,0,0-1.117.06l-.324-.928c.76.06,1.024.06,1.553.06h4.978l.556-.745c.063-.108.123-.168.219-.168a.409.409,0,0,1,.246.138l1.117,1.024a.427.427,0,0,1,.168.294c0,.232-.264.265-.466.265H78.082a27.352,27.352,0,0,0,.727,4.139,8.257,8.257,0,0,0,1.43-2.559l1.223,1.114c.183.171.246.219.246.343,0,.186-.213.234-.354.234a1.69,1.69,0,0,1-.388-.048A13.917,13.917,0,0,1,78.984,681a13.649,13.649,0,0,0,3.034,5.146l-.027.309a2.022,2.022,0,0,0-1.289.838c-2.448-3.722-2.992-8.7-3.04-10.791a8.634,8.634,0,0,1-1.547,1.688,10.772,10.772,0,0,1,2.478,7.008c0,2.016-.339,3.629-2.791,3.737,0-.838-.883-1.193-1.55-1.379v-.31c.961.06,1.271.075,1.643.075.823,0,1.442-.168,1.442-2.728,0-.481-.033-.712-.048-.961a13.2,13.2,0,0,1-4.7,3.193l-.141-.276a17.435,17.435,0,0,0,4.635-4.419,12.106,12.106,0,0,0-.324-1.364,12.3,12.3,0,0,1-3.968,2.586Z" transform="translate(-35.14 -674.446)" fill="#1a1311"/>
        </g>
      </g>
      <rect id="長方形_902" data-name="長方形 902" width="13.869" height="13.877" transform="translate(53.064 842.187)" fill="#2a4f2c"/>
      <rect id="長方形_903" data-name="長方形 903" width="13.869" height="13.861" transform="translate(53.064 864.386)" fill="#ef8661"/>
      <path id="パス_8020" data-name="パス 8020" d="M100.468,628.971l11.374,16.95,8.742,36.615,33.7-22.054-5.415-36.2-28.279,1.389Z" transform="translate(105.029 87.957)" fill="#ef8661"/>
      <g id="グループ_5228" data-name="グループ 5228" transform="translate(111.854 613.933)" style="mix-blend-mode: multiply;isolation: isolate">
        <line id="線_177" data-name="線 177" y2="229.213" transform="translate(113.762)" fill="none" stroke="#8e8e8f" stroke-linejoin="round" stroke-width="0.992"/>
        <line id="線_178" data-name="線 178" x2="198.497" y2="114.607" transform="translate(14.511 57.308)" fill="none" stroke="#8e8e8f" stroke-linejoin="round" stroke-width="0.992"/>
        <line id="線_179" data-name="線 179" y1="114.607" x2="198.497" transform="translate(14.511 57.308)" fill="none" stroke="#8e8e8f" stroke-linejoin="round" stroke-width="0.992"/>
        <path id="パス_8021" data-name="パス 8021" d="M297.445,705.83A114.075,114.075,0,1,1,183.368,591.757,114.074,114.074,0,0,1,297.445,705.83Z" transform="translate(-69.295 -591.155)" fill="none" stroke="#8e8e8f" stroke-linejoin="round" stroke-width="0.992"/>
        <path id="パス_8022" data-name="パス 8022" d="M297.445,705.83A114.075,114.075,0,1,1,183.368,591.757,114.074,114.074,0,0,1,297.445,705.83Z" transform="translate(-69.295 -591.155)" fill="none" stroke="#8e8e8f" stroke-linejoin="round" stroke-width="0.992"/>
      </g>
      <g id="グループ_5229" data-name="グループ 5229" transform="translate(51.341 904.052)">
        <path id="パス_8023" data-name="パス 8023" d="M59.316,698.286a9.906,9.906,0,0,0-.105-1.863,7.989,7.989,0,0,1,1.006.09c.105.015.18.057.18.12a1.3,1.3,0,0,1-.075.27,6.174,6.174,0,0,0-.09,1.412v1.769c0,.859.033,1.2.033,1.28,0,.1-.018.12-.108.12h-.721c-.105,0-.12-.018-.12-.12v-.826H50.172v.871c0,.1-.015.12-.12.12h-.706c-.105,0-.12-.015-.12-.12,0-.078.03-.406.03-1.232v-1.8a9.848,9.848,0,0,0-.105-1.862,9.729,9.729,0,0,1,1.006.087c.1.015.2.063.2.135a.964.964,0,0,1-.078.255,4.964,4.964,0,0,0-.1,1.352v1.34h3.965v-5.11h-3.53v.751c0,.108-.015.12-.12.12h-.706c-.105,0-.12-.012-.12-.12,0-.075.03-.432.03-1.337v-2.043a10.124,10.124,0,0,0-.105-1.877,8.636,8.636,0,0,1,1.006.09c.105.018.165.06.165.138a.738.738,0,0,1-.06.267,4.918,4.918,0,0,0-.09,1.37v1.8h3.53v-3.65a9.993,9.993,0,0,0-.108-1.923c.391.018.736.045,1.039.09.105.015.18.048.18.12a1.524,1.524,0,0,1-.075.27,6.061,6.061,0,0,0-.09,1.427v3.665H58.9v-1.878a9.865,9.865,0,0,0-.105-1.877,8.843,8.843,0,0,1,1.006.09c.105.015.18.06.18.135a.96.96,0,0,1-.075.255,6.383,6.383,0,0,0-.09,1.427v2.031c0,.913.03,1.289.03,1.382s-.015.12-.12.12h-.7c-.108,0-.123-.015-.123-.12v-.724H55.084v5.11h4.233Z" transform="translate(-49.151 -688.087)" fill="#1a1311"/>
        <path id="パス_8024" data-name="パス 8024" d="M67.49,697.958c0,.105-.015.12-.105.12s-.541-.03-1.938-.03H56.21c-1.4,0-1.862.03-1.941.03-.105,0-.12-.015-.12-.12v-.646c0-.1.015-.12.12-.12.063,0,.484.03,1.6.03v-4.855c0-1.217-.03-1.727-.03-1.814,0-.105.015-.12.105-.12s.613.03,2.148.03h.8v-.736a6.851,6.851,0,0,0-.108-1.532,7.553,7.553,0,0,1,.964.09c.105.015.162.06.162.12a1.02,1.02,0,0,1-.072.285,3.747,3.747,0,0,0-.075.992v.781h2.133v-.736a6.851,6.851,0,0,0-.108-1.532,7.294,7.294,0,0,1,.964.09c.105.015.177.06.177.12a.855.855,0,0,1-.087.3,3.442,3.442,0,0,0-.075.976v.781h.913c1.52,0,2.046-.03,2.133-.03s.105.015.105.12c0,.087-.027.6-.027,1.814v4.855c1.033,0,1.409-.03,1.5-.03s.105.015.105.12Zm-8.231,1.367a2.241,2.241,0,0,0-.661.466,10.847,10.847,0,0,1-3.349,1.712.891.891,0,0,1-.213.045c-.087,0-.135-.06-.222-.225a2.181,2.181,0,0,0-.451-.511,9.605,9.605,0,0,0,3.59-1.652,2.261,2.261,0,0,0,.6-.616,5.233,5.233,0,0,1,.751.421c.105.075.153.12.153.21C59.454,699.235,59.364,699.295,59.259,699.325Zm-.375-8.054H56.75v2.466h2.133Zm0,3.229H56.75v2.722h2.133Zm3-3.229H59.754v2.466h2.133Zm0,3.229H59.754v2.722h2.133Zm.736,4.179c.135-.105.135-.105.225-.03a11.314,11.314,0,0,0,4.188,2.073,1.878,1.878,0,0,0-.433.556c-.09.165-.135.24-.21.24a1.229,1.229,0,0,1-.213-.06,11.9,11.9,0,0,1-4.037-2.268c-.108-.09-.015-.135.09-.225ZM65,691.271H62.758v2.466H65Zm0,3.229H62.758v2.722H65Z" transform="translate(-39.135 -688.015)" fill="#1a1311"/>
        <path id="パス_8025" data-name="パス 8025" d="M62.273,690.086a1.051,1.051,0,1,1-1.054-1.051A1.029,1.029,0,0,1,62.273,690.086Zm0,6.083a1.051,1.051,0,0,1-2.1,0,1.051,1.051,0,1,1,2.1,0Z" transform="translate(-27.069 -686.331)" fill="#1a1311"/>
        <path id="パス_8026" data-name="パス 8026" d="M75.579,698.21c0,.105-.012.12-.12.12-.072,0-.538-.027-1.95-.027H71.662v1.622c0,1.018.03,1.439.03,1.529s-.015.105-.123.105h-.718c-.105,0-.12-.012-.12-.105s.03-.511.03-1.529V698.3H67.126c-.225,1.394-1.039,2.493-3.382,3.244a1.13,1.13,0,0,1-.222.057c-.09,0-.135-.057-.24-.255a1.861,1.861,0,0,0-.454-.511c2.226-.526,3.109-1.334,3.379-2.535H64.57c-1.409,0-1.877.027-1.95.027-.105,0-.12-.015-.12-.12V697.6c0-.1.015-.12.12-.12.072,0,.541.03,1.95.03h1.742v-.15a5.7,5.7,0,0,0-.057-1.216,8.582,8.582,0,0,1,.931.09c.12.015.18.045.18.135a.537.537,0,0,1-.075.225,1.693,1.693,0,0,0-.078.631c0,.105-.015.2-.015.285h3.563a7.656,7.656,0,0,0-.09-1.352,8.417,8.417,0,0,1,.961.09c.105.015.165.057.165.135a.379.379,0,0,1-.078.21,3.259,3.259,0,0,0-.057.916H73.51c1.412,0,1.877-.03,1.95-.03.108,0,.12.015.12.12ZM67.291,691c1.274,0,1.7-.03,1.784-.03.108,0,.12.015.12.12,0,.078-.027.5-.027,1.352v.694c0,.673.015,1.036.015,1.544a1.1,1.1,0,0,1-.33.934,1.916,1.916,0,0,1-1.232.255c-.288,0-.315-.03-.36-.27a1.364,1.364,0,0,0-.168-.466,7.18,7.18,0,0,0,.889.042c.33,0,.421-.147.421-.553v-2.932H66.42v2.118c0,1.172.027,1.637.027,1.715,0,.105-.012.12-.12.12h-.568c-.09,0-.105-.015-.105-.12s.03-.544.03-1.715v-2.118h-2V694.5c0,.928.03,1.292.03,1.367,0,.105-.015.12-.12.12H63c-.105,0-.12-.015-.12-.12,0-.09.03-.391.03-1.367v-2.016c0-.973-.03-1.319-.03-1.4,0-.105.015-.12.12-.12.087,0,.526.03,1.8.03h.856v-.886a9.116,9.116,0,0,0-.105-1.908,6.433,6.433,0,0,1,.871.078c.105.012.177.057.177.12a1.105,1.105,0,0,1-.1.282,6.769,6.769,0,0,0-.048,1.4V691Zm-3.755-2.4c.12-.072.162-.057.24.03a8.952,8.952,0,0,1,.928,1.487c.063.12.048.15-.09.225l-.376.183c-.165.072-.192.072-.255-.048A6.666,6.666,0,0,0,63.116,689c-.075-.1-.06-.135.087-.222Zm1.742,4.193a.877.877,0,0,0-.15.328,11.773,11.773,0,0,1-.481,1.5c-.09.207-.105.207-.3.12a1.982,1.982,0,0,0-.448-.138,6.861,6.861,0,0,0,.583-1.694,2.912,2.912,0,0,0,.078-.559,4.711,4.711,0,0,1,.673.183c.078.027.12.057.12.12A.231.231,0,0,1,65.279,692.791Zm1.908-.375c.132-.048.165-.048.21.042a6.955,6.955,0,0,1,.541,1.445c.027.147.027.162-.09.207l-.3.105c-.15.063-.18.063-.213-.042a6.892,6.892,0,0,0-.5-1.49c-.042-.09-.042-.135.093-.177Zm1.8-3.247a.777.777,0,0,0-.21.3,7.435,7.435,0,0,1-.589.934c-.162.222-.192.24-.4.135a1.759,1.759,0,0,0-.454-.153,5.473,5.473,0,0,0,.709-1.2,2.6,2.6,0,0,0,.2-.643,3.5,3.5,0,0,1,.718.282c.153.078.168.105.168.15C69.124,689.063,69.076,689.108,68.989,689.168Zm6.879,1.682c0,.105-.018.12-.105.12s-.33-.015-1.054-.03a8.355,8.355,0,0,1-1.514,3.1,8.71,8.71,0,0,0,2.824,1.409,2.043,2.043,0,0,0-.36.559c-.078.18-.105.255-.183.255a.656.656,0,0,1-.222-.075,9.356,9.356,0,0,1-2.644-1.547,8.977,8.977,0,0,1-2.613,1.547.761.761,0,0,1-.225.075c-.06,0-.09-.045-.15-.18a1.684,1.684,0,0,0-.375-.514,7.674,7.674,0,0,0,2.779-1.517,8.222,8.222,0,0,1-1.367-2.238,8.1,8.1,0,0,1-.646.781c-.09.09-.15.135-.21.135s-.108-.045-.18-.15a1.2,1.2,0,0,0-.375-.345,7.514,7.514,0,0,0,1.95-3.109,4.223,4.223,0,0,0,.228-.958,7.443,7.443,0,0,1,.811.207c.12.033.15.09.15.153a.351.351,0,0,1-.12.207,1.744,1.744,0,0,0-.3.586c-.1.27-.222.571-.376.886h2.481c1.232,0,1.607-.03,1.7-.03s.105.015.105.12Zm-4.659.09-.087.165a7.322,7.322,0,0,0,1.442,2.358,6.79,6.79,0,0,0,1.259-2.523Z" transform="translate(-22.4 -688.075)" fill="#1a1311"/>
        <path id="パス_8027" data-name="パス 8027" d="M72.5,690.711a.4.4,0,0,0,.27-.057.445.445,0,0,1,.135-.033c.075,0,.18.063.379.255.177.2.252.3.252.361,0,.078-.03.12-.12.2a.849.849,0,0,0-.3.36,15.473,15.473,0,0,1-1.442,2.418,9.515,9.515,0,0,0,2.283,1.848,2.3,2.3,0,0,0-.421.553c-.06.12-.105.168-.165.168a.375.375,0,0,1-.2-.105,10.518,10.518,0,0,1-1.7-1.67V699.7c0,1.2.03,1.8.03,1.877,0,.105-.015.12-.12.12h-.706c-.105,0-.12-.015-.12-.12,0-.075.03-.676.03-1.877V695.5a15.771,15.771,0,0,1-1.968,1.757c-.105.078-.165.12-.225.12s-.09-.057-.15-.192a1.631,1.631,0,0,0-.36-.559,11.9,11.9,0,0,0,4.386-5.119H70.1c-1.111,0-1.457.03-1.532.03-.105,0-.12-.015-.12-.12V690.8c0-.105.015-.12.12-.12.075,0,.421.027,1.532.027h.5v-.871a8.21,8.21,0,0,0-.105-1.694c.375.015.661.045.976.087.12.015.192.078.192.12a.646.646,0,0,1-.087.289,3.347,3.347,0,0,0-.09,1.172v.9Zm9.1,10.246c0,.105-.015.12-.12.12-.075,0-.571-.03-2.058-.03H75.175c-1.472,0-1.983.03-2.058.03-.12,0-.135-.015-.135-.12V700.3c0-.105.015-.12.135-.12.075,0,.586.03,2.058.03h1.517V694h-.946c-1.382,0-1.847.033-1.923.033-.105,0-.12-.015-.12-.12v-.664c0-.1.015-.12.12-.12.075,0,.541.033,1.923.033h.946V690.23a10.605,10.605,0,0,0-.105-2.055,7.969,7.969,0,0,1,1.006.09c.105.015.18.06.18.12a1.049,1.049,0,0,1-.06.255,5.547,5.547,0,0,0-.105,1.562v2.959h1.277c1.382,0,1.847-.033,1.923-.033.105,0,.12.018.12.12v.664c0,.105-.015.12-.12.12-.075,0-.541-.033-1.923-.033H77.608v6.206h1.817c1.487,0,1.983-.03,2.058-.03.105,0,.12.015.12.12Z" transform="translate(-11.598 -688.115)" fill="#1a1311"/>
        <path id="パス_8028" data-name="パス 8028" d="M78.165,691.221c0,.12-.012.135-.12.135-.075,0-.4-.03-1.5-.03H75.071c-1.111,0-1.424.03-1.5.03-.105,0-.12-.015-.12-.135v-.628c0-.105.015-.105.12-.105.078,0,.391.03,1.5.03h1.472c1.1,0,1.427-.03,1.5-.03.108,0,.12,0,.12.105Zm-.436-2.01c0,.105-.015.12-.12.12-.072,0-.342-.03-1.262-.03h-.991c-.916,0-1.187.03-1.262.03-.105,0-.12-.015-.12-.12v-.586c0-.1.015-.12.12-.12.075,0,.345.03,1.262.03h.991c.919,0,1.19-.03,1.262-.03.105,0,.12.015.12.12ZM77.655,699c0,.8.03,1.051.03,1.123,0,.105-.018.135-.105.12-.09,0-.36-.03-1.217-.03h-1.5v.856c0,.105-.015.12-.105.12H74.14c-.105,0-.12-.015-.12-.12,0-.09.03-.345.03-1.667v-1.352c0-.961-.03-1.277-.03-1.364,0-.108.015-.12.12-.12.075,0,.391.027,1.292.027h.931c.856,0,1.126-.027,1.217-.027s.105.012.105.12c0,.072-.03.388-.03,1.154Zm-.117-5.756c0,.105-.015.12-.135.12-.078,0-.3-.03-1.126-.03H75.4c-.844,0-1.069.03-1.142.03-.105,0-.12-.015-.12-.12v-.583c0-.105.015-.12.12-.12.072,0,.3.027,1.142.027h.871c.823,0,1.048-.027,1.126-.027.12,0,.135.015.135.12Zm0,2.046c0,.09-.015.105-.135.105-.078,0-.3-.033-1.126-.033H75.4c-.844,0-1.069.033-1.142.033-.105,0-.12-.015-.12-.105v-.6c0-.108.015-.12.12-.12.072,0,.3.027,1.142.027h.871c.823,0,1.048-.027,1.126-.027.12,0,.135.012.135.12Zm-.679,2.04h-2V699.5h2Zm9.357.228c0,.853.03,1.544.03,2.19a1.163,1.163,0,0,1-.406,1.006c-.21.18-.511.27-1.772.255-.225,0-.255-.015-.3-.24a2.168,2.168,0,0,0-.285-.706,10.063,10.063,0,0,0,1.367.06c.376,0,.511-.2.511-.673V689.166H79.712V692.2c0,3.965-.21,6.819-1.262,8.727-.06.135-.12.2-.18.2-.045,0-.105-.045-.2-.135a1.783,1.783,0,0,0-.5-.345c1.172-1.815,1.292-4.852,1.292-8.531v-1.664c0-1.307-.03-1.893-.03-1.982,0-.105.015-.12.12-.12.075,0,.556.03,1.953.03h3.244c1.412,0,1.893-.03,1.968-.03.105,0,.12.015.12.12,0,.09-.03.676-.03,1.982ZM84.954,694c0,.105-.015.12-.105.12s-.433-.03-1.457-.03H81.638c-.934,0-1.295.03-1.367.03-.105,0-.12-.015-.12-.12v-.478c0-.105.015-.12.12-.12.072,0,.433.03,1.367.03h.433v-1.565h-.24c-.856,0-1.157.033-1.247.033-.105,0-.105-.018-.105-.12v-.5c0-.105,0-.12.105-.12.09,0,.391.03,1.247.03h.24v-.213a6.885,6.885,0,0,0-.09-1.349,7.187,7.187,0,0,1,.841.09c.105.015.165.06.165.135a.528.528,0,0,1-.072.225,2.124,2.124,0,0,0-.078.868v.243h.375c.931,0,1.232-.03,1.325-.03s.12.015.12.12v.5c0,.1-.018.12-.12.12s-.394-.033-1.325-.033h-.375v1.565h.556c1.024,0,1.367-.03,1.457-.03s.105.015.105.12Zm-.736,3.172c0,1.532.03,1.8.03,1.878,0,.105-.015.12-.12.12H83.6c-.105,0-.12-.015-.12-.12v-.556H81.395v.718c0,.108-.015.12-.12.12h-.526c-.105,0-.12-.012-.12-.12,0-.09.03-.343.03-1.965v-.769c0-.778-.03-1.063-.03-1.141,0-.105.015-.12.12-.12.09,0,.345.03,1.2.03h.991c.841,0,1.1-.03,1.187-.03.105,0,.12.015.12.12,0,.078-.03.363-.03.979Zm-.736-1.232H81.395V697.8h2.088Z" transform="translate(-0.458 -687.724)" fill="#1a1311"/>
        <path id="パス_8029" data-name="パス 8029" d="M86.547,690.853a13.744,13.744,0,0,0,5.9,3.181,1.92,1.92,0,0,0-.421.6c-.075.165-.12.24-.2.24a.808.808,0,0,1-.225-.075,13.257,13.257,0,0,1-5.663-3.722c0,1.169.075,2.358.075,2.628,0,.105-.015.12-.12.12H85.2c-.105,0-.12-.015-.12-.12,0-.27.06-1.43.075-2.6a12.9,12.9,0,0,1-5.467,3.665c-.27.105-.285.105-.421-.162a1.853,1.853,0,0,0-.406-.541,13.182,13.182,0,0,0,5.647-3.214H81.591c-1.442,0-1.938.027-2.013.027-.108,0-.12-.015-.12-.12v-.6c0-.105.012-.12.12-.12.075,0,.571.03,2.013.03H85.1v-.361a7.444,7.444,0,0,0-.1-1.577,9.066,9.066,0,0,1,.991.09c.105.012.18.075.18.132a.7.7,0,0,1-.09.288,2.968,2.968,0,0,0-.09.931v.5h3.77c1.457,0,1.938-.03,2.028-.03.105,0,.12.015.12.12v.6c0,.105-.015.12-.12.12-.09,0-.571-.027-2.028-.027Zm5.828,10.166c0,.1-.015.12-.12.12-.075,0-.541-.027-1.923-.027H81.08c-1.382,0-1.847.027-1.923.027-.105,0-.12-.015-.12-.12v-.613c0-.105.015-.12.12-.12.075,0,.541.03,1.923.03h.811v-4.284c0-1.127-.03-1.607-.03-1.694,0-.105.015-.12.135-.12.075,0,.571.027,1.98.027h3.413c1.412,0,1.908-.027,1.983-.027.105,0,.117.015.117.12,0,.087-.027.568-.027,1.694v4.284h.871c1.382,0,1.847-.03,1.923-.03.105,0,.12.015.12.12Zm-3.8-6.008h-5.8v1.247h5.8Zm0,1.94h-5.8v1.289h5.8Zm0,1.983h-5.8v1.382h5.8Z" transform="translate(10.379 -688.135)" fill="#1a1311"/>
      </g>
    </g>
  </g>
</svg>
