<svg xmlns="http://www.w3.org/2000/svg" width="16.362" height="24.419" viewBox="0 0 16.362 24.419">
  <g id="Expanded" transform="translate(-8)">
    <path id="パス_527" data-name="パス 527" d="M16.181,24.419l-.421-.609C15.443,23.352,8,12.526,8,8.181a8.181,8.181,0,1,1,16.362,0c0,4.346-7.443,15.171-7.76,15.629Zm0-23.4A7.166,7.166,0,0,0,9.023,8.181c0,3.47,5.565,12.044,7.158,14.426,1.593-2.382,7.158-10.956,7.158-14.426A7.166,7.166,0,0,0,16.181,1.023Z" fill="#2e5c3d"/>
    <path id="パス_528" data-name="パス 528" d="M20.579,16.158a3.579,3.579,0,1,1,3.579-3.579A3.583,3.583,0,0,1,20.579,16.158Zm0-6.136a2.556,2.556,0,1,0,2.556,2.556A2.559,2.559,0,0,0,20.579,10.023Z" transform="translate(-4.398 -4.398)" fill="#2e5c3d"/>
  </g>
</svg>
