<svg xmlns="http://www.w3.org/2000/svg" width="327.37" height="337.173" viewBox="0 0 327.37 337.173">
  <g id="グループ_5140" data-name="グループ 5140" transform="translate(-48.058 -580.391)">
    <g id="グループ_5123" data-name="グループ 5123" transform="translate(178.727 580.391)">
      <g id="グループ_5122" data-name="グループ 5122">
        <path id="パス_7808" data-name="パス 7808" d="M96.4,580.85a.243.243,0,0,1,.2-.123.459.459,0,0,1,.231.108l.823.73a.4.4,0,0,1,.141.276c0,.189-.156.3-.514.544v8.758c0,.324.033,1.751.033,2.03,0,1.378-.637,1.472-1.643,1.628-.015-.778-.234-.868-1.538-1.46v-.309l1.553.063c.481.015.481-.2.481-.481V588.8h-2a8.878,8.878,0,0,1-2.37,5.842l-.234-.183a15.794,15.794,0,0,0,1.442-7.6v-4.355c0-.607-.015-1.273-.063-1.8l1.379.682h1.706Zm-.231,4.592h-1.94v1.406c0,.529,0,.7-.015,1.132h1.955Zm0-3.243h-1.94v2.436h1.94Zm3.655,2.808c0,.387.048.559.637.559h3.226c.865,0,.91-.171,1.391-2.078h.312c.075,1.472.093,1.628.339,1.907a.556.556,0,0,1,.2.433c0,.9-1.49.931-2.421.931h-3.361c-1.535,0-1.643-.4-1.643-1.565v-3.226a11.672,11.672,0,0,0-.063-1.5l1.535.186c.186.018.42.063.42.234,0,.108-.048.231-.577.435V583.1a14.971,14.971,0,0,0,4.589-2.126l.976.976c.216.219.2.345.2.372a.225.225,0,0,1-.234.234,1.206,1.206,0,0,1-.5-.153,28.345,28.345,0,0,1-5.037,1.222Zm3.658,3.051.42-.559c.075-.093.123-.156.231-.156a.408.408,0,0,1,.231.108l.991.808a.306.306,0,0,1,.156.264c0,.171-.108.261-.559.571v2.992c0,.249.063,1.955.063,2.111,0,.231,0,.589-.976.589-.387,0-.387-.189-.387-.435v-.309h-3.61c0,.6,0,.79-.931.79-.339,0-.417-.138-.417-.4,0-.123.045-1.721.045-2.048v-3.067c0-.619,0-1.427-.045-1.937l1.457.682Zm-3.439.8v1.751h3.61v-1.751Zm0,2.559v1.811h3.61v-1.811Z" transform="translate(-91.565 -580.247)" fill="#1a1311"/>
        <path id="パス_7809" data-name="パス 7809" d="M102.594,591.2c0,.325.03,1.736.03,2.031,0,1.348-.649,1.475-1.673,1.613-.015-.76-.2-.838-1.55-1.442v-.294l1.55.045c.481.018.5-.2.5-.477v-3.844h-2.03a8.927,8.927,0,0,1-2.37,5.875l-.249-.189c.916-1.889,1.472-3.751,1.472-7.577v-4.4c0-.586-.033-1.208-.06-1.8l1.379.682h1.7l.372-.544c.063-.093.108-.138.216-.138a.338.338,0,0,1,.231.108l.856.73a.423.423,0,0,1,.153.291c0,.156-.126.264-.526.544v.742c.291.015.835.06,1.517.06h1.907v-.988a15.9,15.9,0,0,0-.075-1.769l1.562.189c.249.03.405.075.405.231,0,.141-.063.249-.574.45v1.886h1.736l.556-.832a.253.253,0,0,1,.219-.141c.06,0,.123.033.231.123l1.147,1.054a.427.427,0,0,1,.153.307c0,.234-.246.3-.432.3H106.42c0,.637-.015.76-.075,2.31h2.307l.42-.574c.093-.123.138-.156.216-.156a.394.394,0,0,1,.264.123l.913.808a.431.431,0,0,1,.186.324c0,.1,0,.219-.589.526a25.754,25.754,0,0,1-.619,5.956,2.1,2.1,0,0,1-2.171,1.439c-.018-.571-.018-.835-1.442-1.394l.03-.309c.171.015,1.46.075,1.49.075.913,0,1.036-.85,1.117-1.364a42.915,42.915,0,0,0,.339-4.649H106.3a11.419,11.419,0,0,1-.943,4.139,8.241,8.241,0,0,1-2.637,3.271l-.219-.216c2.451-3.211,2.577-6.59,2.592-10.323h-1.054c-.216,0-.589.015-1.15.063l-.291-.868Zm-1.147-5.733h-1.97v1.457c0,.5,0,.712-.012,1.1h1.982Zm0-3.238h-1.97v2.433h1.97Z" transform="translate(-81.083 -580.257)" fill="#1a1311"/>
        <path id="パス_7810" data-name="パス 7810" d="M113.428,585.1l.432-.6c.048-.06.108-.156.2-.156a.368.368,0,0,1,.231.111l1.024.835c.108.093.183.156.183.309,0,.171-.09.279-.556.607v1.334c0,.294.045,1.841.045,1.859,0,.246,0,.634-.961.634-.436,0-.436-.093-.436-.619h-8.277v2.586c0,.775.2.931,1.039.931H113.7c.484,0,.775-.015.979-.48.093-.234.466-1.535.574-1.937l.294.015c.123,1.5.153,1.874.466,2.157.231.2.294.291.294.51,0,1.051-1.706,1.051-2.484,1.051h-7.716c-1.844,0-2.123-.481-2.123-2.042V586.71c0-.2,0-.559-.015-.913a12.6,12.6,0,0,1-1.661,1.174l-.183-.246a17.647,17.647,0,0,0,4.169-6.262l1.409.369c.5.126.511.264.511.36,0,.231-.183.246-.679.324-.156.279-.231.4-.387.667h3.487l.559-.637a.352.352,0,0,1,.231-.138.406.406,0,0,1,.231.123l1.132,1.084a.5.5,0,0,1,.186.34c0,.279-.264.327-.946.42-.216.189-1.087,1.084-1.27,1.255-.2.174-.357.282-.574.466Zm-4.079,0a15.06,15.06,0,0,0,1.18-2.108h-3.922a12.685,12.685,0,0,1-1.613,1.892l.574.216Zm-.5.808h-3.535V588.6h3.535Zm1.318,2.694H113.6v-2.694h-3.424Z" transform="translate(-70.401 -580.247)" fill="#1a1311"/>
        <path id="パス_7811" data-name="パス 7811" d="M111.725,580.391a12.028,12.028,0,0,0,0,14.834h-.808a10.948,10.948,0,0,1,0-14.834Z" transform="translate(-58.595 -580.391)" fill="#1a1311"/>
        <path id="パス_7812" data-name="パス 7812" d="M113.744,581.265l.339-.5c.063-.078.108-.141.219-.141a.3.3,0,0,1,.216.108l.925.778a.4.4,0,0,1,.174.294c0,.2-.156.309-.529.574v5.839c0,.312.048,1.739.048,2.033,0,.153,0,.526-.9.526-.372,0-.372-.186-.372-.417v-.249h-2.355v.823c0,.309,0,.619-.853.619-.4,0-.466-.153-.466-.369,0-.234.063-1.8.063-2.081v-6.6c0-1.069-.015-1.273-.063-1.925l1.475.685Zm-2.232.808v3.13h2.355v-3.13Zm0,3.934v3.3h2.355v-3.3Zm1.61,8.4c2.961-2.46,3.58-4.724,3.58-8.785v-2.961c0-.463,0-1.222-.06-2.138l1.52.667h3.066l.339-.51c.1-.141.171-.156.237-.156a.449.449,0,0,1,.246.108l.991.823c.153.123.186.216.186.291,0,.189-.063.234-.574.6v8.731c0,.306.033,1.625.033,1.889,0,.9-.018,1.61-1.97,1.763-.045-.928-.5-1.129-1.9-1.547v-.312l2.06.066c.4.015.463-.048.463-.387V589h-3.58a7.553,7.553,0,0,1-4.448,5.655Zm4.884-8.986a21.611,21.611,0,0,1-.123,2.775h3.454v-2.775Zm0-.808h3.331v-2.619h-3.331Z" transform="translate(-54.244 -580.133)" fill="#1a1311"/>
        <path id="パス_7813" data-name="パス 7813" d="M127.18,582.227l.589-.856a.272.272,0,0,1,.234-.15.4.4,0,0,1,.231.138l1.1,1.036a.553.553,0,0,1,.171.357c0,.279-.264.279-.372.279H117.941v1.706h2.451a12.91,12.91,0,0,0-.078-1.583l1.532.2c.141.012.405.045.405.261s-.171.261-.589.451v.667h3.021a11.952,11.952,0,0,0-.075-1.583l1.55.2c.138.012.387.045.387.261s-.171.279-.592.451v.667h1.2l.529-.748c.042-.075.09-.15.2-.15a.4.4,0,0,1,.249.138l.916.883a.661.661,0,0,1,.183.4c0,.264-.264.279-.387.279h-2.883v.435c0,.261.048,1.406.048,1.64,0,.2,0,.649-.961.649-.357,0-.357-.15-.357-.522h-3.021c0,.246,0,.589-.868.589-.417,0-.451-.2-.451-.387,0-.126.048-1.535.048-1.8v-.6h-2.451v.447c0,3.159-.339,6.478-2.619,8.554l-.246-.183c1.024-1.973,1.535-3.706,1.535-8.383v-2.607c0-.4-.015-1.282-.063-1.874l1.6.73h3.841a15.157,15.157,0,0,0-.075-1.784l1.64.2c.123.015.4.048.4.264,0,.2-.2.294-.6.45v.868Zm-.868,6.088c.111-.108.153-.123.219-.123a.331.331,0,0,1,.216.123l1.039,1.039a.433.433,0,0,1,.15.294c0,.279-.09.294-.991.51a15.483,15.483,0,0,1-2.292,2.06,13.969,13.969,0,0,0,4.787.913v.312a2.064,2.064,0,0,0-1.159,1.3,12.907,12.907,0,0,1-4.757-1.784,14.155,14.155,0,0,1-6.262,1.892l-.081-.3a21.637,21.637,0,0,0,5.394-2.232,7.2,7.2,0,0,1-2.153-2.664h-.7a10.023,10.023,0,0,0-1.207.063l-.312-.931c.451.033.946.063,1.568.063h6.058Zm-5.3,1.348a8.054,8.054,0,0,0,2.5,2.06,10.554,10.554,0,0,0,2.156-2.06Zm.652-4.121v1.393h3.021v-1.393Z" transform="translate(-44.463 -580.287)" fill="#1a1311"/>
        <path id="パス_7814" data-name="パス 7814" d="M120.51,595.225a12.039,12.039,0,0,0,0-14.834h.8a10.939,10.939,0,0,1,0,14.834Z" transform="translate(-33.577 -580.391)" fill="#1a1311"/>
      </g>
    </g>
    <g id="グループ_5125" data-name="グループ 5125" transform="translate(304.431 612.251)">
      <g id="グループ_5124" data-name="グループ 5124">
        <path id="パス_7815" data-name="パス 7815" d="M139.372,591.526a1.743,1.743,0,0,1,.808-.234c.589,0,1.721.529,1.721,1.009,0,.111-.126.619-.141.742a11.919,11.919,0,0,0-.108,1.411c1.3-.108,1.442-.123,1.688-.168.045,0,.745-.123.76-.123.372,0,1.364.5,1.364.958,0,.42-.619.42-.76.42-.279,0-1.643-.048-1.937-.048-.433,0-.76.015-1.147.033v.6c0,.9.138,5.238.138,6.211,0,1.072-.541,1.751-1.006,1.751a.449.449,0,0,1-.417-.25c-.063-.123-.312-.742-.387-.865a12.008,12.008,0,0,0-1.814-1.364l.123-.264c.372.123,1.814.634,2.015.634.279,0,.279-.417.279-1.114,0-.637-.06-3.427-.06-3.982a12.919,12.919,0,0,1-6.944,5.5l-.126-.264a18.017,18.017,0,0,0,6.448-6.493c-.868.075-2.5.291-3.268.436-.237.048-1.382.342-1.643.342a1.731,1.731,0,0,1-1.43-1.492,1.666,1.666,0,0,1,.048-.37l.264-.126a1.417,1.417,0,0,0,1.285.637,10.337,10.337,0,0,0,1.132-.093c1.319-.123,2.991-.306,4.217-.418v-.261c0-1.691,0-2.111-1.114-2.466Z" transform="translate(-133.419 -590.412)" fill="#1a1311"/>
        <path id="パス_7816" data-name="パス 7816" d="M138.578,591.913a1.384,1.384,0,0,1,.961-.327c.682,0,1.721.5,1.721.964,0,.168-.186.835-.2.976-.063.76-.156,5.052-.156,6.881,0,.387,0,.556.171.556a13.532,13.532,0,0,0,3.036-1.532,22.624,22.624,0,0,0,5.085-4.418l.246.156c-.526,1.33-1.766,3.889-7.067,6.773-.183.09-.961.478-1.114.571-.432.294-.481.324-.622.324-.481,0-1.162-.928-1.162-1.316,0-.156.138-.808.156-.943.045-.592.078-4.775.078-5.256a13.091,13.091,0,0,0-.156-2.6c-.138-.264-.417-.388-1.006-.514Z" transform="translate(-123.144 -589.823)" fill="#1a1311"/>
        <path id="パス_7817" data-name="パス 7817" d="M142.693,599.513a34.382,34.382,0,0,0,7.082-4.959c.622-.574,2.06-1.937,2.06-2.31,0-.324-.354-.513-.664-.652l.075-.279a2.341,2.341,0,0,1,.529-.093c.8,0,2.075.853,2.075,1.412,0,.216-.123.339-.481.556a13.84,13.84,0,0,0-1.8,1.5c-.91.8-1.391,1.177-1.8,1.5.433.249.622.469.622.733,0,.09-.093.5-.108.586-.048.514-.048,1.688-.048,1.907,0,.913.015,1.892.048,2.787,0,.156.045,1.289.045,1.337,0,.168,0,.991-.559.991-.619,0-.913-1.132-.913-1.535,0-.2.123-1.132.138-1.316.048-.76.048-1.925.048-2.373a10.751,10.751,0,0,0-.171-2.451,17.747,17.747,0,0,1-6.061,2.916Z" transform="translate(-114.84 -590.556)" fill="#1a1311"/>
        <path id="パス_7818" data-name="パス 7818" d="M147.976,591.632c.835.171,4.262.931,4.262,2.7,0,.51-.264.883-.622.883-.327,0-.5-.219-.868-.73a10.466,10.466,0,0,0-2.913-2.589Zm.369,8.617c.2.249.574.76,1.054.76.883,0,6.262-3.085,9.515-7.518l.264.141c-1.781,4.2-5.007,6.292-8.431,8.491-.063.048-.45.345-.667.514a.685.685,0,0,1-.417.186,2.3,2.3,0,0,1-1.643-2.015,3.383,3.383,0,0,1,.045-.462Z" transform="translate(-104.538 -589.731)" fill="#1a1311"/>
        <path id="パス_7819" data-name="パス 7819" d="M157.329,604.5h-3.193v.339c0,.357-.015.589-.775.589-.3,0-.372-.156-.372-.372s.06-2.153.06-2.415v-6.373c0-.913,0-.928-.06-2.12l1.159.619h.375v-1.9h-.748a9.31,9.31,0,0,0-1.174.06l-.327-.928c.5.027.961.06,1.583.06h2.958l.5-.7c.048-.063.093-.138.2-.138a.4.4,0,0,1,.231.108l1.069.943a.47.47,0,0,1,.171.312c0,.279-.357.279-.466.279h-1.658v1.9h.5l.309-.466c.03-.045.108-.171.2-.171a.348.348,0,0,1,.234.141l.544.607a.5.5,0,0,1,.15.291c0,.171-.138.279-.4.463v6.746a12.217,12.217,0,0,0,2.108-4.682l1.255.39c.306.09.387.183.387.294,0,.231-.2.261-.577.309-.108.216-.138.309-.264.559h2.421l.432-.544c.093-.108.153-.123.219-.123a.365.365,0,0,1,.231.108l.928.916a.449.449,0,0,1,.156.307c0,.2-.078.234-.775.468a10.238,10.238,0,0,1-1.628,2.4,8.012,8.012,0,0,0,3.349,1.132v.312a1.829,1.829,0,0,0-1.072,1.114,8.4,8.4,0,0,1-3.067-1.826,9.493,9.493,0,0,1-4.262,1.889l-.078-.249a1.385,1.385,0,0,1-.511.1c-.324,0-.324-.126-.324-.469Zm-3.349-4.917c.447-.712.7-1.393.682-4.027h-.682Zm3.349-.063h-.3c-.895,0-1.018-.123-1.018-.976v-2.988h-.637c-.015,2.045-.015,3.5-1.24,4.46v1.165h3.193Zm0,2.469h-3.193v1.7h3.193Zm-1.952-7.223h.637v-1.9h-.637Zm2.138.79h-.823v2.4c0,.339.108.339.451.339h.372Zm3.015,5.022a7.52,7.52,0,0,1-2.15,2.355c.015.279.06,1.487.06,1.721a.87.87,0,0,1-.06.343,12.382,12.382,0,0,0,3.409-2.247A7.023,7.023,0,0,1,160.53,600.574Zm3.244-5.763c.168.03.4.048.4.246s-.141.249-.526.435v.976c0,.465.045.574.787.574s.76,0,1.087-1.424l.309.012c.03.264.093,1.132.264,1.27.309.249.372.312.372.514,0,.79-1.069.79-2.108.79-1.379,0-1.859-.093-1.859-1.237v-.949c0-.354-.015-.462-.048-1.363-.306.048-.463.078-1.8.279l.949.312c.246.075.339.153.339.309,0,.231-.231.279-.5.294a4.922,4.922,0,0,1-2.9,2.8l-.141-.264a5.694,5.694,0,0,0,2-3.424c-.372.06-.481.075-.772.123-.066.156-.141.372-.345.372-.123,0-.168-.063-.231-.279l-.387-1.285c.342.015.79.03,1.442.03A11.44,11.44,0,0,0,161.14,591l1.457.5c.216.075.339.135.339.291,0,.264-.309.279-.634.294-.171.234-.264.391-1.49,1.829.469,0,2.28-.108,3.427-.168a6.844,6.844,0,0,0-1.054-1.21l.156-.264c.742.312,2.742,1.162,2.742,2.436a.654.654,0,0,1-.589.679c-.312,0-.372-.09-.823-.943-.06-.108-.123-.216-.153-.279a10,10,0,0,1-1.97.48Zm-2.943,5.3a6.134,6.134,0,0,0,1.55,2.015,7.88,7.88,0,0,0,1.255-2.078h-2.76Z" transform="translate(-95.645 -590.999)" fill="#1a1311"/>
        <path id="パス_7820" data-name="パス 7820" d="M141.994,597.717a12.028,12.028,0,0,0,0,14.834h-.808a10.939,10.939,0,0,1,0-14.834Z" transform="translate(-123.665 -577.54)" fill="#1a1311"/>
        <path id="パス_7821" data-name="パス 7821" d="M142.148,601.8c0,.634.108.79.793.79h7.641c.82,0,.868-.2,1.379-2.294l.309.018c0,.078.111,1.58.123,1.706.033.153.081.2.327.511a.466.466,0,0,1,.123.309c0,.991-1.673.991-2.325.991H142.49c-1.55,0-1.688-.622-1.688-1.628v-2.634c0-.48-.033-1.27-.078-1.766l1.58.186c.171.015.42.06.42.246,0,.2-.2.294-.577.466v1.691c2.093-.4,6.466-1.24,8.046-2.342l1.039,1.117a.577.577,0,0,1,.183.388.212.212,0,0,1-.231.219c-.141,0-.183-.018-.529-.189a43.825,43.825,0,0,1-8.509,1.288Zm7.938,3.565.4-.574a.329.329,0,0,1,.231-.153.528.528,0,0,1,.249.123l.976.79a.406.406,0,0,1,.186.309c0,.171-.063.216-.559.574v3.13c0,.156.06,1.829.06,2.015s0,.574-1,.574c-.372,0-.42-.123-.42-.4v-.372h-8.061c0,.555,0,.76-.883.76-.372,0-.511-.081-.511-.357,0-.327.063-1.781.063-2.093V606.4c0-.372-.033-1.352-.063-1.829l1.535.79Zm-7.938.8v1.751h8.061v-1.751Zm0,2.559v1.841h8.061v-1.841Z" transform="translate(-118.784 -577.374)" fill="#1a1311"/>
        <path id="パス_7822" data-name="パス 7822" d="M155.161,601.126a1.753,1.753,0,0,1,1.147.309,1.346,1.346,0,0,1,.664.991,6.25,6.25,0,0,1-.291.856c-.1.276-.42,1.424-.484,1.673,1.892.823,2.31,1.162,2.31,1.889,0,.421-.2.7-.5.7-.216,0-.279-.048-.79-.451a13.374,13.374,0,0,0-1.424-.961c-1.3,3.424-3.319,4.091-4.466,4.34l-.123-.279a8.9,8.9,0,0,0,3.5-4.619,11.2,11.2,0,0,0-4.124-1.036,24.022,24.022,0,0,1-1.688,3.532,2.086,2.086,0,0,1-1.751,1.054,1.813,1.813,0,0,1-1.766-1.982c0-1.381,1.039-3.223,4.418-3.472.2-.435,1.8-3.955,1.8-4.064,0-.03-.015-.093-.108-.093a9.893,9.893,0,0,0-2.06.7,1.607,1.607,0,0,1-.529.189c-.589,0-1.318-.856-1.318-1.661,0-.048.018-.063.048-.264l.264-.108a1.188,1.188,0,0,0,1.024.637,13.373,13.373,0,0,0,2-.373,11.991,11.991,0,0,1,1.364-.4,1.279,1.279,0,0,1,1.036.943,5.593,5.593,0,0,1-.631,1.087c-.156.279-1.12,2.078-1.709,3.4a14.516,14.516,0,0,1,4.091.835,10.153,10.153,0,0,0,.42-2.123,1.017,1.017,0,0,0-.463-.976Zm-8.74,5.983c0,.637.339.916.679.916.466,0,.826-.529,1.24-1.333.387-.715.745-1.457,1.039-2.108C146.887,604.922,146.421,606.367,146.421,607.109Z" transform="translate(-109.452 -576.517)" fill="#1a1311"/>
        <path id="パス_7823" data-name="パス 7823" d="M150.547,612.551a12.039,12.039,0,0,0,0-14.834h.8a10.939,10.939,0,0,1,0,14.834Z" transform="translate(-99.105 -577.54)" fill="#1a1311"/>
      </g>
    </g>
    <g id="グループ_5127" data-name="グループ 5127" transform="translate(303.262 816.551)">
      <g id="グループ_5126" data-name="グループ 5126">
        <path id="パス_7824" data-name="パス 7824" d="M133.03,667.533a34.4,34.4,0,0,0,7.082-4.959c.622-.571,2.06-1.937,2.06-2.31,0-.324-.354-.51-.664-.649l.075-.279a2.145,2.145,0,0,1,.529-.093c.8,0,2.075.853,2.075,1.409,0,.219-.123.342-.48.559a13.814,13.814,0,0,0-1.8,1.5c-.91.8-1.391,1.174-1.8,1.5.432.249.622.466.622.73,0,.09-.093.5-.108.586-.048.514-.048,1.691-.048,1.907,0,.916.015,1.892.048,2.79,0,.156.045,1.288.045,1.334,0,.171,0,.991-.559.991-.619,0-.913-1.132-.913-1.535,0-.2.123-1.129.138-1.315.048-.76.048-1.925.048-2.373a10.711,10.711,0,0,0-.171-2.448,17.707,17.707,0,0,1-6.061,2.913Z" transform="translate(-133.03 -658.577)" fill="#1a1311"/>
        <path id="パス_7825" data-name="パス 7825" d="M144.741,659.584a3.715,3.715,0,0,1,.544-.078c.82,0,1.982,1.024,1.982,1.5,0,.126,0,.141-.354.592-.2.234-.252.357-.652,1.441-2.078,5.577-5.424,7.608-8.617,8.431l-.123-.264a14.966,14.966,0,0,0,7.019-7.547,9.171,9.171,0,0,0,.79-2.757,1.347,1.347,0,0,0-.7-1.039Z" transform="translate(-124.033 -658.052)" fill="#1a1311"/>
        <path id="パス_7826" data-name="パス 7826" d="M142.139,662.865c2.325-.1,4.2.541,4.2,1.733a.68.68,0,0,1-.6.712c-.279,0-.436-.123-.712-.4a8.508,8.508,0,0,0-2.946-1.751Zm1.409,5.872c.171.264.559.8.979.8.556,0,3.006-1.472,4.772-2.85a22.978,22.978,0,0,0,4.619-4.85l.276.141c-1.1,2.865-3.13,5.235-7.824,8.274a8.622,8.622,0,0,0-.961.679.883.883,0,0,1-.592.312,2.219,2.219,0,0,1-1.628-1.922,1.7,1.7,0,0,1,.081-.5Zm.078-9.172c2.123-.015,4.184.51,4.184,1.781a.653.653,0,0,1-.6.712c-.291,0-.432-.138-.679-.4a8.469,8.469,0,0,0-2.979-1.8Z" transform="translate(-114.907 -657.936)" fill="#1a1311"/>
        <path id="パス_7827" data-name="パス 7827" d="M147.123,659.656c.838.168,4.262.928,4.262,2.7,0,.51-.264.883-.622.883-.324,0-.5-.216-.868-.73a10.449,10.449,0,0,0-2.913-2.586Zm.369,8.617c.2.249.577.76,1.057.76.883,0,6.262-3.088,9.515-7.518l.264.141c-1.784,4.2-5.007,6.289-8.434,8.49-.06.048-.448.342-.664.514a.716.716,0,0,1-.417.183,2.3,2.3,0,0,1-1.646-2.015,3.375,3.375,0,0,1,.048-.462Z" transform="translate(-105.079 -657.752)" fill="#1a1311"/>
        <path id="パス_7828" data-name="パス 7828" d="M156.477,672.519h-3.2v.34c0,.36-.015.591-.775.591-.294,0-.372-.156-.372-.372s.063-2.154.063-2.418v-6.37c0-.916,0-.931-.063-2.12l1.162.619h.372v-1.907h-.745a9.2,9.2,0,0,0-1.177.063l-.324-.931c.5.03.958.063,1.58.063h2.961l.5-.7c.045-.06.093-.138.2-.138a.405.405,0,0,1,.231.108l1.072.946a.472.472,0,0,1,.168.309c0,.279-.357.279-.465.279h-1.658v1.907h.5l.312-.466c.03-.045.108-.171.2-.171a.331.331,0,0,1,.234.141l.544.6a.491.491,0,0,1,.153.294c0,.168-.138.276-.4.463V670.4a12.182,12.182,0,0,0,2.108-4.682l1.255.391c.309.093.387.186.387.294,0,.231-.2.264-.574.312-.111.216-.138.307-.264.556h2.418l.436-.544a.259.259,0,0,1,.216-.123.361.361,0,0,1,.231.111l.931.913a.475.475,0,0,1,.156.309c0,.2-.081.234-.775.466a10.331,10.331,0,0,1-1.628,2.4,8,8,0,0,0,3.346,1.132v.309a1.819,1.819,0,0,0-1.069,1.114,8.442,8.442,0,0,1-3.069-1.826,9.434,9.434,0,0,1-4.262,1.892l-.075-.249a1.428,1.428,0,0,1-.511.093c-.324,0-.324-.126-.324-.465Zm-3.352-4.916c.451-.712.7-1.394.685-4.025h-.685Zm3.352-.06h-.3c-.9,0-1.021-.123-1.021-.976v-2.988h-.637c-.015,2.042-.015,3.5-1.24,4.46V669.2h3.2Zm0,2.466h-3.2v1.706h3.2Zm-1.955-7.22h.637v-1.907h-.637Zm2.138.79h-.82v2.4c0,.343.108.343.448.343h.372Zm3.018,5.019a7.508,7.508,0,0,1-2.153,2.358c.015.276.063,1.487.063,1.721a.788.788,0,0,1-.063.339,12.392,12.392,0,0,0,3.412-2.247A6.876,6.876,0,0,1,159.678,668.6Zm3.241-5.763c.171.03.405.048.405.249,0,.186-.141.249-.529.432v.976c0,.469.048.577.79.577s.76,0,1.084-1.427l.312.015c.027.264.093,1.132.261,1.27.309.249.372.309.372.514,0,.787-1.069.787-2.108.787-1.379,0-1.859-.093-1.859-1.237v-.946c0-.354-.015-.463-.045-1.363-.309.045-.466.075-1.8.276l.946.312c.246.075.342.156.342.312,0,.231-.234.277-.5.292a4.934,4.934,0,0,1-2.9,2.805l-.141-.264a5.717,5.717,0,0,0,2-3.427c-.372.063-.481.078-.775.123-.063.156-.141.373-.342.373-.123,0-.171-.06-.231-.277l-.387-1.285c.339.015.787.03,1.439.03a11.294,11.294,0,0,0,1.024-2.928l1.457.5c.219.075.342.138.342.294,0,.264-.312.276-.634.291-.174.234-.264.391-1.49,1.832.465,0,2.277-.108,3.424-.171a6.8,6.8,0,0,0-1.051-1.207l.153-.264c.745.309,2.745,1.162,2.745,2.433a.657.657,0,0,1-.592.682c-.309,0-.372-.09-.82-.946-.063-.108-.123-.216-.156-.276a10.337,10.337,0,0,1-1.967.48Zm-2.94,5.3a6.1,6.1,0,0,0,1.547,2.015,7.818,7.818,0,0,0,1.255-2.075h-2.76Z" transform="translate(-96.184 -659.022)" fill="#1a1311"/>
        <path id="パス_7829" data-name="パス 7829" d="M141.451,665.741a12.024,12.024,0,0,0,0,14.831h-.808a10.935,10.935,0,0,1,0-14.831Z" transform="translate(-123.584 -645.561)" fill="#1a1311"/>
        <path id="パス_7830" data-name="パス 7830" d="M141.6,669.822c0,.634.108.787.793.787h7.641c.82,0,.868-.2,1.379-2.292l.309.018c0,.075.111,1.577.123,1.7.033.156.081.2.327.51a.467.467,0,0,1,.123.31c0,.994-1.673.994-2.325.994h-8.028c-1.55,0-1.688-.622-1.688-1.628V667.59c0-.484-.033-1.27-.078-1.766l1.58.183c.171.015.42.063.42.246,0,.2-.2.3-.577.469v1.688c2.093-.4,6.466-1.241,8.046-2.34l1.039,1.117a.564.564,0,0,1,.183.387.212.212,0,0,1-.231.216c-.141,0-.183-.018-.529-.189a43.569,43.569,0,0,1-8.509,1.288Zm7.938,3.562.4-.571a.324.324,0,0,1,.231-.156.527.527,0,0,1,.249.123l.976.793a.4.4,0,0,1,.186.306c0,.171-.063.219-.559.577v3.129c0,.153.063,1.826.063,2.015s0,.571-1.006.571c-.372,0-.42-.123-.42-.4V679.4H141.6c0,.559,0,.76-.883.76-.372,0-.511-.078-.511-.357,0-.324.063-1.781.063-2.09v-3.286c0-.372-.033-1.349-.063-1.826l1.535.787Zm-7.938.808v1.751h8.061v-1.751Zm0,2.556v1.844h8.061v-1.844Z" transform="translate(-118.704 -645.395)" fill="#1a1311"/>
        <path id="パス_7831" data-name="パス 7831" d="M154.618,669.149a1.738,1.738,0,0,1,1.147.312,1.336,1.336,0,0,1,.664.991,6.115,6.115,0,0,1-.291.853c-.1.279-.42,1.426-.484,1.676,1.892.82,2.31,1.159,2.31,1.889,0,.418-.2.7-.5.7-.216,0-.279-.048-.79-.448a13.229,13.229,0,0,0-1.424-.964c-1.3,3.427-3.319,4.094-4.466,4.343l-.123-.279a8.888,8.888,0,0,0,3.5-4.619,11.131,11.131,0,0,0-4.124-1.039,24.326,24.326,0,0,1-1.688,3.535,2.085,2.085,0,0,1-1.751,1.051,1.813,1.813,0,0,1-1.766-1.982c0-1.382,1.039-3.223,4.418-3.472.2-.435,1.8-3.952,1.8-4.063a.094.094,0,0,0-.108-.093,9.982,9.982,0,0,0-2.06.7,1.577,1.577,0,0,1-.529.186c-.589,0-1.318-.853-1.318-1.661,0-.045.018-.06.048-.264l.264-.108a1.188,1.188,0,0,0,1.024.637,13.372,13.372,0,0,0,2-.372,12.607,12.607,0,0,1,1.363-.4,1.287,1.287,0,0,1,1.039.946,5.67,5.67,0,0,1-.634,1.084c-.156.279-1.117,2.081-1.709,3.4a14.658,14.658,0,0,1,4.094.835,10.351,10.351,0,0,0,.417-2.123,1.021,1.021,0,0,0-.463-.976Zm-8.74,5.983c0,.637.339.916.679.916.465,0,.826-.529,1.24-1.33.387-.715.745-1.46,1.039-2.109C146.344,672.949,145.878,674.39,145.878,675.132Z" transform="translate(-109.372 -644.539)" fill="#1a1311"/>
        <path id="パス_7832" data-name="パス 7832" d="M150,680.572a12.024,12.024,0,0,0,0-14.831h.808a10.944,10.944,0,0,1,0,14.831Z" transform="translate(-99.024 -645.561)" fill="#1a1311"/>
      </g>
    </g>
    <g id="グループ_5129" data-name="グループ 5129" transform="translate(174.071 864.518)">
      <g id="グループ_5128" data-name="グループ 5128">
        <path id="パス_7833" data-name="パス 7833" d="M96.881,675.174c.291.033.447.078.447.279,0,.234-.2.294-.541.372a8.65,8.65,0,0,1-.234,1.349h4.169l.387-.544c.048-.06.108-.156.216-.156a.4.4,0,0,1,.249.123l.931.841c.108.108.2.168.2.309,0,.108-.027.231-.556.589V686.1c0,.264.03,1.394.03,1.628,0,.979-.342,1.475-1.982,1.613-.045-.913-.417-1.021-1.844-1.49v-.309l1.922.078c.541.015.541-.186.541-.541v-9.1h-4.5a3.809,3.809,0,0,1-.2.528c.279.108,4.124,1.427,4.124,3.208,0,.511-.282.73-.574.73s-.342-.063-.748-.667a11.265,11.265,0,0,0-2.973-2.868,7.848,7.848,0,0,1-4.217,3.889l-.171-.264a10.261,10.261,0,0,0,3.487-4.556H91.394v8.9c0,.294.03,1.613.03,1.892,0,.216,0,.574-.976.574-.405,0-.417-.219-.417-.4,0-.328.045-1.751.045-2.048v-8.446c0-.838-.015-1.348-.06-1.937l1.595.667h3.625a9.84,9.84,0,0,0,.2-2.156Zm.09,6.247c.066.015.324.123.324.324,0,.219-.216.279-.649.294a6.437,6.437,0,0,1-.387.868,13.162,13.162,0,0,1,2.775,1.348,2.423,2.423,0,0,1,1.192,1.736c0,.5-.279.76-.6.76-.186,0-.354-.06-.574-.406a10.174,10.174,0,0,0-3.006-3.033,9.82,9.82,0,0,1-4.262,3.9l-.186-.246c3.316-2.916,3.8-4.946,4.028-5.953Z" transform="translate(-90.015 -674.943)" fill="#1a1311"/>
        <path id="パス_7834" data-name="パス 7834" d="M101.134,686.683c3.193-1.207,5.1-3.331,5.1-6.013a4.075,4.075,0,0,0-4.262-4.184c-.168,0-.261,0-.7.03a1.576,1.576,0,0,1,.637,1.147,27.436,27.436,0,0,1-1.736,4.712c-.793,1.814-1.52,3.316-2.682,3.316-1.225,0-2.5-1.595-2.5-3.658a6.654,6.654,0,0,1,6.974-6.355c3.039,0,5.688,1.784,5.688,5.133,0,3.409-2.757,5.7-6.433,6.151Zm-4.992-4.709c0,1.4.712,2.448,1.255,2.448.559,0,.9-.727,1.55-2.123.511-1.069,1.781-4.045,1.781-5.025a1.069,1.069,0,0,0-.216-.646A5.7,5.7,0,0,0,96.142,681.974Z" transform="translate(-80.038 -673.619)" fill="#1a1311"/>
        <path id="パス_7835" data-name="パス 7835" d="M101.4,677.881a3.3,3.3,0,0,0,1.3.2,11.107,11.107,0,0,0,2.73-.4c-.637-1.646-.715-1.814-1.646-1.8l-.03-.279a1.384,1.384,0,0,1,1.087-.436c.075,0,1.222,0,1.315.682.033.171.108.883.141,1.024.03.093.075.291.153.51a9.054,9.054,0,0,0,1.3-.544c.469-.246.577-.324.823-.324.357,0,.9.216.9.6,0,.342-.216.559-2.619,1.255.264.589.357.763.73,1.49a14.983,14.983,0,0,0,1.766-.652c.7-.339.775-.372,1.069-.372.231,0,.976.078.976.6,0,.312,0,.51-3.256,1.408.652,1.069.73,1.192,1.52,2.313a2.047,2.047,0,0,1,.514,1.316c0,.231-.048.76-.5.76-.138,0-.2-.018-.835-.358a7.75,7.75,0,0,0-3.889-.991c-1.862,0-2.514.76-2.514,1.487,0,1.613,2.652,1.613,3.4,1.613a9.029,9.029,0,0,0,1.409-.093,7.009,7.009,0,0,1,.745-.093c.619,0,1.162.309,1.162.715,0,.388-.447.511-.652.556a10.885,10.885,0,0,1-2.34.2c-.883,0-4.853,0-4.853-2.637,0-1.394,1.24-2.589,3.673-2.589a9.919,9.919,0,0,1,2.4.328c.327.09.934.246,1.009.246.093,0,.123-.048.123-.078s-.339-.589-.541-.9c-.484-.76-.715-1.165-.913-1.5a24.033,24.033,0,0,1-4.421.712,2.634,2.634,0,0,1-2.406-1.208l.2-.219a4.4,4.4,0,0,0,1.892.342,19.4,19.4,0,0,0,4.187-.634c-.324-.637-.589-1.255-.7-1.487a10.833,10.833,0,0,1-2.637.448,2.346,2.346,0,0,1-1.955-.976Z" transform="translate(-69.536 -674.64)" fill="#1a1311"/>
        <path id="パス_7836" data-name="パス 7836" d="M105.716,676.756c.231-.018.246-.033.324-.033.186,0,1.658.2,1.814,1.147.048.249.156,1.33.2,1.55a8.1,8.1,0,0,1,3.286-1.13,5.893,5.893,0,0,0,.544-1.8,1.124,1.124,0,0,0-.715-.943l.111-.264a1.811,1.811,0,0,1,.417-.063c.868,0,1.766.742,1.766,1.318,0,.183-.048.264-.42.958-.15.279-.216.436-.369.745,2.9.186,4.586,1.844,4.586,4.307,0,3.439-3.115,5.364-6.68,5.454l-.03-.294c2-.5,5.331-2,5.331-5.331,0-3.021-2.805-3.3-3.6-3.316a48.966,48.966,0,0,1-2.4,4.865c.153.2.309.4.649.8a.805.805,0,0,1,.264.5c0,.249-.246.436-.6.436a1.351,1.351,0,0,1-1.024-.6c-.541.772-1.379,1.781-2.43,1.781-1.147,0-1.907-1.084-1.907-2.541a5.682,5.682,0,0,1,2.247-4.2c-.481-2.153-.589-2.586-1.442-3.051Zm.231,7.467c0,.883.339,1.442.835,1.442.67,0,1.493-1.241,1.754-1.628a13.872,13.872,0,0,1-1.21-2.976A4.735,4.735,0,0,0,105.947,684.222Zm5.04-5.049a6.733,6.733,0,0,0-2.745,1.1,10.916,10.916,0,0,0,.991,2.586A36.174,36.174,0,0,0,110.987,679.173Z" transform="translate(-60.329 -674.536)" fill="#1a1311"/>
        <path id="パス_7837" data-name="パス 7837" d="M115.43,678c.372.231.372.291.372.4,0,.264-.249.249-.682.219a15.206,15.206,0,0,1-2.976,3.223c.048,0,1.955-.108,2.217-.123a7.035,7.035,0,0,0-.607-1.084l.219-.219c.372.231,1.814,1.1,1.814,2.249,0,.634-.387.823-.6.823-.282,0-.342-.219-.451-.7a5.1,5.1,0,0,0-.2-.649,6.666,6.666,0,0,1-.9.261v4.712c0,.279.048,1.535.048,1.8,0,.544-.712.544-.853.544-.387,0-.417-.126-.417-.39,0-.306.03-1.67.03-1.949v-4.388c-.264.063-1.442.357-1.691.417-.027.186-.093.435-.291.435-.141,0-.2-.108-.279-.339l-.451-1.412a13.968,13.968,0,0,0,1.721.048,20.517,20.517,0,0,0,2.8-4.607Zm-3.469,6.244c.264.093.339.126.339.277,0,.2-.264.264-.447.3a12.377,12.377,0,0,1-1.754,3.706l-.279-.141a15.015,15.015,0,0,0,.976-4.526Zm-1.784-6.821a4.914,4.914,0,0,1,1.315.589,10.9,10.9,0,0,0,1.054-3.021l1.379.6c.405.168.405.294.405.387,0,.234-.231.249-.685.279a15.361,15.361,0,0,1-1.7,2.063,1.629,1.629,0,0,1,.727,1.189c0,.327-.2.826-.619.826-.294,0-.4-.216-.637-.715a5.941,5.941,0,0,0-1.394-1.937Zm3.922,6.154a3.9,3.9,0,0,1,1.61,2.652.714.714,0,0,1-.634.79c-.249,0-.264-.063-.435-.883a6.942,6.942,0,0,0-.772-2.342Zm7.7-7.346.436-.6c.06-.1.123-.141.186-.141a.347.347,0,0,1,.231.108l.9.79a.4.4,0,0,1,.156.279c0,.141-.075.249-.544.559V686.9c0,.277.048,1.532.048,1.781,0,.435-.387.559-.868.559-.387,0-.387-.186-.387-.4V688.2h-4.616v.619c0,.435-.4.514-.79.514s-.448-.126-.448-.433.027-1.628.027-1.907V677.27c0-.324,0-1.24-.045-1.721l1.457.685Zm-4.46.8v4.634h1.718v-4.634Zm0,5.442v4.914h1.718v-4.914Zm4.616-.808v-4.634H120.2v4.634Zm0,5.722v-4.914H120.2v4.914Z" transform="translate(-50.524 -674.993)" fill="#1a1311"/>
        <path id="パス_7838" data-name="パス 7838" d="M115.544,678.824a.768.768,0,0,0,.823.571c.282,0,2.108-.417,2.556-.51a12.1,12.1,0,0,0,.7-2.357c0-.5-.5-.712-.79-.853l.075-.279a2.043,2.043,0,0,1,.652-.138c.727,0,1.568.7,1.568,1.147,0,.138-.033.2-.312.712a16.6,16.6,0,0,0-.637,1.535c.189-.015.454-.045.808-.045,1.8,0,2.385,1.051,2.385,3.036a11.973,11.973,0,0,1-1.1,5.115,2.146,2.146,0,0,1-1.595,1.2c-.514,0-.526-.312-.559-.667a1.114,1.114,0,0,0-.42-.82c-.153-.156-.85-.808-.991-.931l.171-.249a8.985,8.985,0,0,0,1.907.868c.961,0,1.424-3.16,1.424-4.787,0-1.46-.5-1.784-1.3-1.784a6.671,6.671,0,0,0-1.144.123c-.793,2.06-1.4,3.565-2.622,6.217-.342.727-.76,1.625-1.225,1.625-.357,0-.589-.418-.589-.85,0-.372.048-.466.574-1.27A42.37,42.37,0,0,0,118.491,680a9.073,9.073,0,0,0-1.288.469,3.519,3.519,0,0,1-.85.339,1.532,1.532,0,0,1-1.207-1.412,1.25,1.25,0,0,1,.123-.54Zm8.106-1.2a4.219,4.219,0,0,1,2.667,1.087,4.709,4.709,0,0,1,1.706,3.346c0,.7-.372.916-.592.916a.912.912,0,0,1-.448-.126,1.386,1.386,0,0,0-.48-.093c-.249,0-1.337.138-1.553.156l-.09-.283c1.222-.571,1.643-.757,1.643-1.207,0-.883-1.225-2.694-2.931-3.517Z" transform="translate(-39.67 -674.466)" fill="#1a1311"/>
        <path id="パス_7839" data-name="パス 7839" d="M120.4,678.551a4.075,4.075,0,0,0,2.295.543,9.981,9.981,0,0,0,3.051-.51,15.136,15.136,0,0,0-1.58-1.363c-.529-.421-.637-.715-.637-.964a1.193,1.193,0,0,1,1.288-1.066,2.693,2.693,0,0,1,1.036.264l-.045.291c-.279,0-.7.033-.7.342,0,.216.093.324.946,1.255.264.276.712.775.79.853a9.51,9.51,0,0,0,1.766-.9,1.615,1.615,0,0,1,1.1-.447c.4,0,.991.141.991.571,0,.342-.291.5-.82.76-.667.325-1.5.652-2.232.931.961,1.117,1.688,1.952,2.463,3.006.562.76.7,1.036.7,1.318,0,.478-.451,1.178-.868,1.178-.186,0-.294-.078-.652-.294a7.477,7.477,0,0,0-4.028-1.241c-1.472,0-2.9.574-2.9,1.877,0,1.147,1.237,1.751,3.394,1.751.372,0,2.015-.141,2.34-.141a1.144,1.144,0,0,1,1.177.868c0,.4-.186.6-2.727.6-1.192,0-5.268,0-5.268-2.865,0-1.49,1.285-2.947,4-2.947a8.764,8.764,0,0,1,3.409.7.97.97,0,0,0,.309.093.1.1,0,0,0,.108-.108c0-.574-1.967-2.82-2.5-3.424a13.145,13.145,0,0,1-3.685.76,2.97,2.97,0,0,1-2.73-1.475Z" transform="translate(-29.561 -674.598)" fill="#1a1311"/>
      </g>
    </g>
    <g id="グループ_5131" data-name="グループ 5131" transform="translate(50.043 783.114)">
      <g id="グループ_5130" data-name="グループ 5130">
        <path id="パス_7840" data-name="パス 7840" d="M58.155,648.526a1.714,1.714,0,0,1,.931-.291c.622,0,1.646.433,1.646.943,0,.126-.174.715-.189.823-.03.234-.03.373-.048,1.613.5-.033.856-.063,1.165-.108.123-.015.652-.123.76-.123.294,0,1.61.447,1.61,1.024,0,.354-.372.4-.556.4-.279,0-1.487-.093-1.736-.108-.607-.033-.931-.033-1.255-.033a12.535,12.535,0,0,1-.682,4.775,6.823,6.823,0,0,1-4.712,3.5l-.138-.264c4.166-2.123,4.214-4.724,4.277-7.98-1.288.063-2.451.186-3.706.354,0,.454.048,2.388.048,2.775,0,.958-.451,1.054-.577,1.054-.481,0-.712-.7-.712-1.21,0-.216.048-1.159.048-1.363.015-.093,0-.976,0-1.069-.141.033-.838.141-1.039.2a9.113,9.113,0,0,1-1.24.372,1.679,1.679,0,0,1-1.255-1.424,1.466,1.466,0,0,1,.108-.513l.279-.063a1.048,1.048,0,0,0,.928.592c.033,0,1.475-.171,2.22-.249-.015-2.418-.015-2.556-1.006-2.8l.015-.294a1.332,1.332,0,0,1,.8-.264c.634,0,1.5.387,1.5.868,0,.141-.108.76-.123.883-.015.451-.015.529-.015,1.475,1.766-.171,2.559-.264,3.733-.342,0-2.571,0-2.619-1.084-2.868Z" transform="translate(-44.562 -647.196)" fill="#1a1311"/>
        <path id="パス_7841" data-name="パス 7841" d="M56.235,651.727c2.328-.093,4.2.544,4.2,1.733a.68.68,0,0,1-.6.712c-.279,0-.435-.123-.715-.4a8.373,8.373,0,0,0-2.943-1.751Zm1.412,5.872c.171.264.559.808.976.808.559,0,3.006-1.475,4.772-2.853a22.83,22.83,0,0,0,4.619-4.85l.279.141c-1.1,2.865-3.13,5.235-7.824,8.274a8.858,8.858,0,0,0-.964.679.876.876,0,0,1-.589.313,2.219,2.219,0,0,1-1.628-1.922,1.817,1.817,0,0,1,.078-.5Zm.075-9.172c2.126-.015,4.187.51,4.187,1.781a.654.654,0,0,1-.6.712c-.294,0-.435-.138-.682-.4a8.45,8.45,0,0,0-2.976-1.8Z" transform="translate(-33.782 -646.813)" fill="#1a1311"/>
        <path id="パス_7842" data-name="パス 7842" d="M72.787,649.673l.589-.853a.273.273,0,0,1,.234-.153.393.393,0,0,1,.231.138l1.1,1.039a.552.552,0,0,1,.168.358c0,.276-.264.276-.372.276H63.551v1.706H66a13.445,13.445,0,0,0-.075-1.583l1.529.2c.141.015.405.045.405.264,0,.2-.168.261-.589.448v.667h3.024a11.524,11.524,0,0,0-.078-1.583l1.55.2c.138.015.387.045.387.264,0,.2-.171.276-.589.448v.667h1.192l.529-.745c.045-.078.09-.153.2-.153a.387.387,0,0,1,.249.138l.916.883a.653.653,0,0,1,.186.406c0,.261-.264.276-.387.276H71.564v.436c0,.261.045,1.409.045,1.643,0,.2,0,.649-.961.649-.354,0-.354-.153-.354-.525H67.269c0,.246,0,.589-.868.589-.417,0-.451-.2-.451-.387,0-.126.048-1.535.048-1.8v-.607H63.551v.451c0,3.16-.342,6.475-2.619,8.551l-.246-.183c1.021-1.97,1.532-3.7,1.532-8.383v-2.6c0-.4-.015-1.285-.06-1.874l1.595.727h3.841a14.507,14.507,0,0,0-.075-1.784l1.643.2c.123.012.4.045.4.261s-.2.294-.607.45v.868Zm-.865,6.088c.108-.108.153-.123.216-.123a.331.331,0,0,1,.216.123l1.039,1.039a.438.438,0,0,1,.153.3c0,.276-.09.291-.991.508a15.524,15.524,0,0,1-2.295,2.06,13.979,13.979,0,0,0,4.79.916v.309a2.068,2.068,0,0,0-1.162,1.3,12.874,12.874,0,0,1-4.757-1.784,14.15,14.15,0,0,1-6.262,1.892l-.078-.3a21.682,21.682,0,0,0,5.394-2.232,7.168,7.168,0,0,1-2.153-2.664h-.7a10.033,10.033,0,0,0-1.207.063l-.309-.931c.448.033.943.063,1.565.063h6.061Zm-5.3,1.349a8.088,8.088,0,0,0,2.5,2.06,10.56,10.56,0,0,0,2.156-2.06Zm.652-4.121v1.394h3.024v-1.394Z" transform="translate(-24.744 -647.889)" fill="#1a1311"/>
        <path id="パス_7843" data-name="パス 7843" d="M52.422,654.6a12.035,12.035,0,0,0,0,14.831h-.8a10.935,10.935,0,0,1,0-14.831Z" transform="translate(-48.719 -634.438)" fill="#1a1311"/>
        <path id="パス_7844" data-name="パス 7844" d="M50.515,667.721a16.342,16.342,0,0,0,2.82-4.124H52.128a10.1,10.1,0,0,0-1.165.06l-.306-.928c.481.03.943.06,1.547.06h1.321a17.433,17.433,0,0,0-.081-1.967l1.475.186c.123.015.354.063.354.261s-.186.279-.559.421v1.1h.76l.417-.571a.3.3,0,0,1,.2-.126.313.313,0,0,1,.216.108l.9.82a.413.413,0,0,1,.174.3c0,.231-.249.279-.453.279H54.714v.5c.216.045,2.247.544,2.247,1.736,0,.432-.231.652-.514.652-.231,0-.276-.078-.694-.715a4.4,4.4,0,0,0-1.039-1.207v1.661c0,.354.033,1.919.033,2.244,0,.2,0,.574-.883.574-.339,0-.372-.141-.372-.432,0-.249.033-2.217.033-2.309v-.913a10.47,10.47,0,0,1-2.775,2.556Zm6.662-11.392h-3.61a9.952,9.952,0,0,0-1.147.06l-.324-.928c.435.03.934.06,1.568.06h7.824l.559-.7c.06-.075.108-.138.2-.138a.462.462,0,0,1,.231.108l1.114.976a.4.4,0,0,1,.171.294c0,.216-.231.264-.435.264H58.447v.652h4.466l.432-.514a.262.262,0,0,1,.2-.123.419.419,0,0,1,.249.123l.976.931a.59.59,0,0,1,.2.372c0,.153-.063.309-.928.357-.327.309-.931.835-1.382,1.225L62.4,659.2l.03-.048c-.06.063-.123.108-.384.108H60.387a9.878,9.878,0,0,0-1.087.048l-.324-.9c.946.048.976.048,1.487.048h.372l.339-.451c.063-.078.111-.138.2-.138a.319.319,0,0,1,.216.108l.727.712c.141.141.171.2.156.312a12.479,12.479,0,0,0,.435-1.21H58.447v.51c0,.3.033,1.583.033,1.844,0,.2,0,.592-.9.592-.414,0-.448-.156-.448-.435,0-.309.045-1.7.045-2v-.51h-4.52c.027,1.472-.5,2.2-1.228,2.2a.558.558,0,0,1-.589-.526c0-.264.048-.342.622-1.147a4.037,4.037,0,0,0,.682-1.769l.309-.015c.048.2.063.246.108.451h4.616Zm-2.232,3.55.342-.45a.255.255,0,0,1,.216-.141.333.333,0,0,1,.216.108l.727.715a.409.409,0,0,1,.156.294c0,.246-.231.294-.432.294H53.936a9.911,9.911,0,0,0-1.084.048l-.309-.916c.589.033.979.06,1.475.06C54.155,659.891,54.651,659.891,54.945,659.879Zm0-1.427.327-.436c.06-.075.108-.138.216-.138a.316.316,0,0,1,.231.111l.712.679a.437.437,0,0,1,.171.312c0,.276-.339.276-.448.276H54.2a9.8,9.8,0,0,0-1.069.048l-.327-.9c.964.048.979.048,1.49.048Zm7.6,3.162.387-.51a.27.27,0,0,1,.234-.141.405.405,0,0,1,.216.093l.991.775a.327.327,0,0,1,.171.261c0,.141-.063.186-.544.559v3.721c0,.324.06,2,.06,2.045,0,.231,0,.589-.976.589-.387,0-.387-.186-.387-.417v-.264H59.147c0,.51,0,.712-.916.712-.324,0-.435-.123-.435-.4,0-.327.063-1.751.063-2.048v-3.874c0-.342-.015-1.1-.063-1.766l1.445.667Zm-1.1-1.736.327-.45a.289.289,0,0,1,.216-.141.379.379,0,0,1,.231.108l.73.715a.4.4,0,0,1,.153.294c0,.246-.231.279-.432.279H60.369a7.446,7.446,0,0,0-1.069.063l-.309-.916c.448.033.82.048,1.472.048ZM59.147,662.4v1.087h3.547V662.4Zm0,1.892v1.132h3.547v-1.132Zm0,1.94v1.282h3.547v-1.282Z" transform="translate(-45.121 -634.272)" fill="#1a1311"/>
        <path id="パス_7845" data-name="パス 7845" d="M59.441,655.065c.06-.063.108-.126.2-.126a.4.4,0,0,1,.234.126l1.006,1.039a.406.406,0,0,1,.123.264c0,.216-.06.231-.745.463a19.56,19.56,0,0,1-1.889,3.2,4.643,4.643,0,0,1,1.922,3.763c0,.931-.246,2.187-1.844,2.265,0-.8-.9-1.2-1.036-1.258l.015-.291c1.349,0,1.751,0,1.751-1.271a4.16,4.16,0,0,0-1.352-3.147,15.8,15.8,0,0,0,1.228-3.7H57.377v9.857c0,.357.048,1.907.048,2.216,0,.388-.279.577-.9.577-.387,0-.432-.141-.432-.406,0-.372.03-2.03.03-2.37v-9.163c0-.339,0-1.487-.06-2.2l1.5.682H59.02Zm7.391,7.518.541-.745c.063-.09.108-.153.2-.153a.319.319,0,0,1,.231.123l.961.961a.513.513,0,0,1,.153.342c0,.279-.246.279-.354.279H65.949v2.183h1.282l.562-.823c.06-.078.108-.153.216-.153a.366.366,0,0,1,.216.123l1.039,1.024a.477.477,0,0,1,.153.342c0,.294-.246.294-.339.294h-3.13c0,.324.027,1.751.027,2.042,0,.237,0,.61-.868.61-.4,0-.478-.1-.478-.406,0-.354.03-1.922.03-2.246H61.516a10.606,10.606,0,0,0-1.21.06L60,665.513c.652.045.835.045,1.442.06v-1.937c0-.246-.015-1.1-.078-1.721l1.472.667h1.829c-.015-.9-.048-1.331-.063-1.58l1.52.183c.249.033.372.108.372.264s-.108.264-.541.451v.682Zm1.5-5.935a.34.34,0,0,1,.153.291c0,.249-.075.264-.787.481a13.882,13.882,0,0,1-1.643,1.784,10.65,10.65,0,0,0,3.826.883v.312a1.847,1.847,0,0,0-1.132,1.24,10.3,10.3,0,0,1-3.6-1.694,11.083,11.083,0,0,1-4.974,2l-.1-.291a16.738,16.738,0,0,0,4.2-2.469,5.292,5.292,0,0,1-1.129-1.841,10.156,10.156,0,0,1-2.916,2.418l-.183-.249a13.781,13.781,0,0,0,3.16-4.838l1.318.357c.264.078.463.171.463.372,0,.219-.216.246-.667.309-.135.216-.183.312-.291.466h2.433l.417-.51c.063-.078.123-.141.2-.141.111,0,.186.1.234.141Zm-3.673,8.926V663.39H62.63v2.183ZM63.5,656.987a5.467,5.467,0,0,0,1.472,1.628,9.115,9.115,0,0,0,1.364-1.628Z" transform="translate(-34.008 -634.296)" fill="#1a1311"/>
        <path id="パス_7846" data-name="パス 7846" d="M61.883,654.84a1.862,1.862,0,0,1,.82.108,1.646,1.646,0,0,1,1.132,1.319A16.43,16.43,0,0,1,63.28,658a12.636,12.636,0,0,0-.436,3.054c0,.153.015,1.009.141,1.009a3.575,3.575,0,0,0,.246-.775,16.272,16.272,0,0,1,1.207-3.241c.5-.991,1.412-2.277,2.838-2.277,2.8,0,2.8,4.181,2.8,4.9,0,6.169-4.013,7.361-6.4,7.89l-.123-.279c4.292-1.892,5.145-4.836,5.145-7.764,0-.73-.015-3.736-1.643-3.736-2.075,0-3.223,4.43-3.223,6.337,0,.544,0,1.4-.7,1.4-1.114,0-1.364-2.231-1.364-3.331a25.458,25.458,0,0,1,.433-3.784,6.446,6.446,0,0,0,.156-1.177,1.263,1.263,0,0,0-.6-1.114Z" transform="translate(-22.593 -633.963)" fill="#1a1311"/>
        <path id="パス_7847" data-name="パス 7847" d="M66.156,669.434a12.024,12.024,0,0,0,0-14.831h.808a10.935,10.935,0,0,1,0,14.831Z" transform="translate(-13.786 -634.438)" fill="#1a1311"/>
      </g>
    </g>
    <g id="グループ_5133" data-name="グループ 5133" transform="translate(48.058 612.236)">
      <g id="グループ_5132" data-name="グループ 5132">
        <path id="パス_7848" data-name="パス 7848" d="M52.89,591.411c.063-.078.108-.123.2-.123a.454.454,0,0,1,.234.108l.82.727a.41.41,0,0,1,.141.279c0,.186-.156.3-.514.544V601.7c0,.324.033,1.751.033,2.027,0,1.378-.637,1.474-1.643,1.628-.015-.775-.234-.868-1.538-1.457v-.312l1.553.066c.481.015.481-.2.481-.48v-3.814h-2a8.868,8.868,0,0,1-2.37,5.844l-.231-.186a15.775,15.775,0,0,0,1.439-7.593v-4.355c0-.61-.015-1.273-.06-1.8l1.379.679h1.7ZM52.659,596h-1.94v1.409c0,.529,0,.7-.015,1.132h1.955Zm0-3.241h-1.94V595.2h1.94Zm3.658,2.808c0,.384.045.556.637.556h3.223c.865,0,.913-.171,1.394-2.075h.309c.078,1.472.093,1.628.339,1.9a.557.557,0,0,1,.2.436c0,.9-1.49.931-2.421.931H56.642c-1.535,0-1.643-.4-1.643-1.568v-3.223a12.562,12.562,0,0,0-.06-1.5l1.532.183c.186.018.42.066.42.237,0,.108-.048.231-.574.432v1.784a15.051,15.051,0,0,0,4.586-2.126l.976.976c.216.216.2.342.2.372a.227.227,0,0,1-.237.231,1.16,1.16,0,0,1-.5-.153,28.386,28.386,0,0,1-5.034,1.225Zm3.655,3.048.42-.556c.075-.1.123-.156.231-.156a.4.4,0,0,1,.231.108l.991.808a.3.3,0,0,1,.156.261c0,.171-.108.261-.556.574v2.991c0,.249.06,1.952.06,2.109,0,.231,0,.589-.976.589-.387,0-.387-.186-.387-.432V604.6h-3.61c0,.607,0,.79-.931.79-.339,0-.417-.138-.417-.4,0-.123.045-1.721.045-2.045v-3.07c0-.619,0-1.424-.045-1.934l1.457.679Zm-3.439.808v1.751h3.61v-1.751Zm0,2.556v1.814h3.61V601.98Z" transform="translate(-48.058 -590.934)" fill="#1a1311"/>
        <path id="パス_7849" data-name="パス 7849" d="M59.086,601.756c0,.328.033,1.736.033,2.033,0,1.346-.652,1.472-1.676,1.61-.015-.76-.2-.835-1.55-1.439v-.294l1.55.045c.481.015.5-.2.5-.48v-3.844h-2.03a8.922,8.922,0,0,1-2.37,5.875l-.249-.186c.916-1.889,1.472-3.751,1.472-7.581v-4.4c0-.586-.03-1.207-.06-1.793l1.379.679h1.7l.372-.541c.063-.1.108-.138.216-.138a.35.35,0,0,1,.234.108l.853.727a.433.433,0,0,1,.156.294c0,.153-.126.264-.529.54v.742c.291.015.835.063,1.52.063h1.9v-.988a15.8,15.8,0,0,0-.075-1.769l1.565.189c.249.027.4.075.4.231s-.063.249-.574.448v1.889h1.736l.559-.832a.243.243,0,0,1,.216-.141c.06,0,.123.033.231.123l1.147,1.051a.438.438,0,0,1,.156.309c0,.234-.246.3-.435.3H62.912c0,.634-.015.757-.075,2.307h2.307l.42-.571c.093-.123.138-.156.216-.156a.388.388,0,0,1,.264.123l.913.8a.443.443,0,0,1,.186.328c0,.093,0,.216-.589.525a25.731,25.731,0,0,1-.619,5.953,2.107,2.107,0,0,1-2.171,1.442c-.015-.574-.015-.838-1.442-1.393l.033-.312c.168.015,1.457.078,1.487.078.913,0,1.036-.853,1.117-1.367A42.853,42.853,0,0,0,65.3,597.7H62.789a11.431,11.431,0,0,1-.943,4.139,8.218,8.218,0,0,1-2.637,3.268l-.216-.216c2.448-3.208,2.574-6.587,2.589-10.32H60.527c-.216,0-.589.015-1.15.06l-.291-.868Zm-1.147-5.73H55.971v1.454c0,.5,0,.715-.015,1.1h1.982Zm0-3.238H55.971v2.43h1.967Z" transform="translate(-37.578 -590.944)" fill="#1a1311"/>
        <path id="パス_7850" data-name="パス 7850" d="M64.19,591.95l.511-.73c.06-.093.093-.138.2-.138a.3.3,0,0,1,.219.108l1.066.976a.507.507,0,0,1,.171.309c0,.279-.342.279-.435.279h-5.98a8.466,8.466,0,0,0-1.084.063l-.327-.931c.435.03.883.063,1.475.063Zm-3.877,9.187v1.814c0,.276.033,1.628.033,1.937,0,.294-.156.526-.73.526-.342,0-.387-.156-.387-.388,0-.279.045-1.736.045-2.06v-3.979c0-.589-.027-1.1-.06-1.781l1.285.649h4.016l.342-.525c.078-.123.126-.153.186-.153a.409.409,0,0,1,.219.108L66,598c.135.123.153.2.153.279,0,.186-.123.279-.481.559v3.637c0,.216.048,1.241.048,1.472,0,.868-.189,1.316-1.5,1.472.018-.775-.171-1.054-.961-1.271v-.309l.871.045c.541.033.541-.249.541-.556v-2.7c-.156.126-.309.2-1.054.2-.868,0-.979-.249-.979-.946v-1.222h-.853l.469.216c.045.03.231.108.231.264,0,.213-.279.213-.466.213a2.928,2.928,0,0,1-1.658,1.829Zm3.538-7.391.369-.541c.06-.1.108-.123.168-.123a.3.3,0,0,1,.2.093l.8.742a.4.4,0,0,1,.153.294c0,.126-.042.219-.463.511v.607c0,.2.048,1.117.048,1.3,0,.5-.511.559-.79.559-.342,0-.357-.138-.357-.4H61.106c0,.138-.015.48-.742.48-.345,0-.405-.141-.405-.42,0-.2.048-1.132.048-1.315v-.991c0-.391-.03-1.072-.048-1.43l1.331.637Zm-3.538,4.917v2.12a3.524,3.524,0,0,0,1.009-2.12Zm2.637,4.07c0,.279.033,1.52,0,1.724-.063.291-.312.4-.7.4-.342,0-.342-.216-.342-.384,0-.312.033-1.643.033-1.907v-.354a9.747,9.747,0,0,0-1.117.06l-.312-.928c.42.03.868.06,1.475.06h.9l.294-.433c.078-.111.141-.126.2-.126a.267.267,0,0,1,.2.1l.712.693a.419.419,0,0,1,.153.3c0,.279-.321.279-.432.279H62.95Zm-1.844-8.178v1.424h2.883v-1.424Zm3.565,4.109H63.428v.943c0,.264.063.342.327.342.372,0,.387-.078.466-.823h.309a2.966,2.966,0,0,0,.141.745Zm5.857,1.994c.7.559,2.28,1.829,2.28,3.52,0,.5-.279.82-.667.82-.372,0-.481-.294-.622-.9-.045-.2-.108-.387-.261-.931-.4.171-.964.405-1.832.7-1.379.483-1.907.652-2.355.808-.06.324-.123.5-.306.5-.111,0-.2-.048-.312-.324l-.6-1.535a18.477,18.477,0,0,0,2.835-.3v-3.517H67.551v.4c0,.312-.108.529-.679.529-.36,0-.4-.123-.4-.421,0-.168.03-.928.03-1.084v-3.592c0-.73-.015-1.147-.048-1.814l1.207.619h1.024v-1.3a18.1,18.1,0,0,0-.06-1.814l1.364.2c.168.03.4.063.4.246,0,.2-.2.3-.592.45v2.217h1.024l.405-.529c.06-.075.108-.123.168-.123a.269.269,0,0,1,.186.1l.82.742a.456.456,0,0,1,.156.294c0,.108-.03.231-.5.544v2.682c0,.276.048,1.547.048,1.67,0,.342-.123.577-.823.577-.324,0-.324-.1-.324-.592H69.8v3.334c.2-.033,1.1-.186,1.288-.219a7.347,7.347,0,0,0-.775-1.733Zm-2.976-5.715v3.748h1.132v-3.748Zm3.412,3.748v-3.748H69.8v3.748Z" transform="translate(-27.074 -590.944)" fill="#1a1311"/>
        <path id="パス_7851" data-name="パス 7851" d="M66.488,601.734c.018,1.688-.526,3.61-1.859,3.61a.613.613,0,0,1-.682-.543c0-.264.015-.276.931-1.207a6.622,6.622,0,0,0,1.3-1.922Zm3.4-5.785V592.6a12.33,12.33,0,0,0-.078-1.61l1.6.183c.2.033.4.063.4.249,0,.171-.138.261-.559.436v1.33h3.937l.6-.82c.09-.123.138-.156.216-.156a.352.352,0,0,1,.246.141l1.165,1.021c.042.045.2.2.2.342,0,.279-.369.279-.463.279h-5.9v1.949h3.361l.435-.6a.245.245,0,0,1,.216-.138.414.414,0,0,1,.231.09l1.024.868a.338.338,0,0,1,.171.279c0,.126-.048.216-.559.574v2.138c0,.219.033,1.322.033,1.568,0,.264,0,.667-.964.667-.417,0-.417-.186-.417-.4v-.279H66.737c0,.435,0,.7-.931.7-.324,0-.466-.093-.466-.4,0-.246.048-1.52.048-1.814v-2.232c0-.45,0-1.225-.048-1.721l1.568.712Zm-3.148.808V599.9H74.78v-3.145Zm1.054,4.914a3.6,3.6,0,0,1,2.126,2.619c0,.652-.39.931-.745.931-.405,0-.484-.3-.637-.9a10.973,10.973,0,0,0-.979-2.43Zm3.145.015c1.228.463,2.649,1.535,2.649,2.7a.777.777,0,0,1-.709.82c-.324,0-.387-.138-.961-1.411a6.085,6.085,0,0,0-1.162-1.859Zm3.472-.123c1.754.574,3.193,1.751,3.193,2.961a.728.728,0,0,1-.664.82c-.327,0-.387-.108-.931-1.1a10.128,10.128,0,0,0-1.784-2.421Z" transform="translate(-16.226 -590.994)" fill="#1a1311"/>
        <path id="パス_7852" data-name="パス 7852" d="M75.223,602.689c3.19-1.208,5.1-3.331,5.1-6.013a4.075,4.075,0,0,0-4.262-4.184c-.168,0-.264,0-.7.03A1.576,1.576,0,0,1,76,593.669a27.43,27.43,0,0,1-1.736,4.712c-.793,1.814-1.52,3.316-2.682,3.316-1.225,0-2.5-1.595-2.5-3.658a6.653,6.653,0,0,1,6.974-6.355c3.039,0,5.688,1.784,5.688,5.133,0,3.409-2.757,5.7-6.433,6.151Zm-4.992-4.709c0,1.4.712,2.448,1.255,2.448s.9-.727,1.547-2.123c.514-1.069,1.784-4.049,1.784-5.025a1.083,1.083,0,0,0-.216-.649A5.708,5.708,0,0,0,70.231,597.979Z" transform="translate(-5.935 -589.612)" fill="#1a1311"/>
        <path id="パス_7853" data-name="パス 7853" d="M59.755,602.043c.075,0,.294.033.294.231,0,.078-.015.2-.451.406v6.553c0,.388.048,2.094.048,2.433,0,.2,0,.573-1.006.573-.372,0-.405-.168-.405-.4,0-.372.033-2.018.033-2.358V603.92a13,13,0,0,1-2.09,2.541l-.237-.219c1.52-2.757,3.226-5.842,3.6-8.445l1.562.556c.372.123.42.219.42.342,0,.264-.231.276-.667.309a22.436,22.436,0,0,1-1.412,2.991Zm8.524,1.24.5-.745c.063-.09.108-.138.2-.138a.419.419,0,0,1,.249.123l1.006.991a.555.555,0,0,1,.156.312c0,.265-.357.265-.447.265H66.96c.264,2.634.841,4.136,1.769,5.22.123.141.327.339.478.339.111,0,.219-.09.372-.4.111-.216.5-1.144.577-1.33l.294.075c-.078.372-.451,1.97-.451,2.31,0,.171.231.9.231,1.057a.585.585,0,0,1-.637.619c-.523,0-.85-.342-1.5-1.1a10.638,10.638,0,0,1-1.721-3.175,42.58,42.58,0,0,1-4.9,1.889c-.075.324-.156.481-.339.481s-.216-.141-.279-.355l-.466-1.459a11.067,11.067,0,0,0,1.192-.093v-7.515a15.437,15.437,0,0,0-.06-1.847l1.613.7c3.751-.961,3.983-1.024,5.055-1.736l1.129,1.147a.491.491,0,0,1,.2.357c0,.156-.108.2-.231.2a1.969,1.969,0,0,1-.622-.171c-.544.108-.913.171-1.874.3.03,2.418.03,2.679.093,3.688ZM65.2,610.567l.508-.727c.1-.108.156-.156.219-.156a.366.366,0,0,1,.249.138l1.036.961a.458.458,0,0,1,.171.312c0,.276-.372.276-.447.276H62.158a9.166,9.166,0,0,0-1.165.063l-.306-.931c.541.03.928.063,1.547.063Zm.354-7.283c-.03-.667-.045-.943-.078-3.52-.853.093-1.424.141-2.541.2v3.316Zm-2.619,4.7c.291-.063,2.664-.544,3.316-.667a14.559,14.559,0,0,1-.634-3.223H62.933Z" transform="translate(-32.265 -577.433)" fill="#1a1311"/>
        <path id="パス_7854" data-name="パス 7854" d="M61.68,601.324a4.082,4.082,0,0,0,2.295.541,9.984,9.984,0,0,0,3.051-.511,15.531,15.531,0,0,0-1.58-1.364c-.529-.417-.637-.712-.637-.961A1.193,1.193,0,0,1,66.1,597.96a2.7,2.7,0,0,1,1.036.264l-.045.294c-.279,0-.7.033-.7.339,0,.219.1.327.946,1.256.264.279.712.775.79.853a9.253,9.253,0,0,0,1.766-.9,1.606,1.606,0,0,1,1.1-.45c.4,0,.991.141.991.574,0,.342-.294.5-.823.76-.667.324-1.5.649-2.232.928.961,1.117,1.691,1.952,2.463,3.006.562.76.7,1.039.7,1.322,0,.477-.451,1.174-.868,1.174-.186,0-.294-.075-.652-.294a7.46,7.46,0,0,0-4.028-1.241c-1.472,0-2.9.577-2.9,1.877,0,1.147,1.237,1.751,3.394,1.751.372,0,2.015-.138,2.34-.138a1.139,1.139,0,0,1,1.177.868c0,.4-.186.6-2.727.6-1.192,0-5.268,0-5.268-2.865,0-1.49,1.288-2.949,4-2.949a8.756,8.756,0,0,1,3.409.7,1.06,1.06,0,0,0,.309.093.106.106,0,0,0,.108-.108c0-.577-1.967-2.823-2.5-3.427a13.14,13.14,0,0,1-3.685.76,2.96,2.96,0,0,1-2.727-1.472Z" transform="translate(-21.17 -577.038)" fill="#1a1311"/>
        <path id="パス_7855" data-name="パス 7855" d="M55.355,604.483a12.024,12.024,0,0,0,0,14.831h-.808a10.936,10.936,0,0,1,0-14.831Z" transform="translate(-40.864 -563.97)" fill="#1a1311"/>
        <path id="パス_7856" data-name="パス 7856" d="M63.874,605.7l.405-.559c.093-.123.138-.153.216-.153a.4.4,0,0,1,.234.108l1.036.853c.063.063.2.171.2.309,0,.186-.171.294-.592.6v7.749c0,.126.048,1.877.048,2.093,0,.171,0,.559-.991.559-.42,0-.42-.156-.42-.544v-.775H55.429v.667c0,.466,0,.712-.946.712-.357,0-.481-.06-.481-.388,0-.108.048-1.736.048-2.075V606.8c0-.4-.015-1.3-.063-1.8l1.658.7Zm-8.446.808v8.632h8.587v-8.632Z" transform="translate(-36.18 -562.957)" fill="#1a1311"/>
        <path id="パス_7857" data-name="パス 7857" d="M60.866,605.211a1.892,1.892,0,0,1,.787-.2c.778,0,1.724.667,1.724,1.147,0,.126-.156.682-.171.79-.033.294-.033,1.024-.033,1.367a3.027,3.027,0,0,0,.357,1.859c.559-.249,3.069-1.337,3.58-1.568a.778.778,0,0,1,.387-.123c.466,0,1.177.436,1.177.9,0,.357-.141.387-1.267.67-1.12.261-7.394,2.075-7.394,4.46,0,1.661,2.418,1.784,3.889,1.784A20.2,20.2,0,0,0,67.188,616a5.445,5.445,0,0,1,.991-.171c.592,0,1.177.481,1.177.868,0,.481-.667.574-1.069.634a34.9,34.9,0,0,1-3.967.219c-2.448,0-3.346-.387-3.889-.7a2.612,2.612,0,0,1-1.409-2.231c0-1.874,1.736-2.988,3.5-3.934-.526-.526-.589-1.147-.622-2.682-.03-1.934-.06-2.154-1.069-2.5Zm6.277.559c1.736.448,2.772,1.424,2.772,2.139a.546.546,0,0,1-.466.589c-.249,0-.324-.123-.637-.6a6.521,6.521,0,0,0-1.841-1.874Zm1.346-1.054c2.108.387,2.943,1.394,2.943,1.97a.5.5,0,0,1-.433.541c-.231,0-.294-.078-.652-.541a6.337,6.337,0,0,0-2-1.706Z" transform="translate(-26.093 -563.505)" fill="#1a1311"/>
        <path id="パス_7858" data-name="パス 7858" d="M64.152,605.507a1.465,1.465,0,0,1,1.021.216,1.629,1.629,0,0,1,.883,1.222,2.782,2.782,0,0,1-.276.994,11.98,11.98,0,0,0-.7,4.259c0,.279.015,1.847.231,1.847.081,0,.126-.1.171-.2.108-.2.82-1.736.976-2.06l.279.093c-.075.339-.435,1.811-.5,2.108a3.993,3.993,0,0,0-.156,1.084c0,.156.093.838.093.979a.581.581,0,0,1-.6.6c-1.036,0-1.628-2.03-1.628-4.31a22.219,22.219,0,0,1,.357-3.685,11.606,11.606,0,0,0,.234-1.817,1.335,1.335,0,0,0-.529-1.066Zm4.661,12.3c3.457-2,3.427-4.232,3.334-8.136-.652.063-1.766.171-2.34.171-1.394,0-1.673-.48-2-1.066l.189-.234a4.028,4.028,0,0,0,1.472.186,18.358,18.358,0,0,0,2.634-.2c-.093-2.805-.093-2.961-1.006-3.208v-.294a1.412,1.412,0,0,1,.727-.234c.559,0,1.61.372,1.61,1.009,0,.171-.075.946-.075,1.1,0,.448,0,.742.015,1.439.3-.06,1.751-.421,1.811-.421.387,0,.931.279.931.7,0,.324-.246.481-.544.556-.354.078-.556.111-2.168.342,0,.324.03,1.829.03,2.123,0,2.042,0,5.223-4.508,6.445Z" transform="translate(-16.224 -563.351)" fill="#1a1311"/>
        <path id="パス_7859" data-name="パス 7859" d="M68.846,619.314a12.035,12.035,0,0,0,0-14.831h.8a10.936,10.936,0,0,1,0,14.831Z" transform="translate(-6.411 -563.97)" fill="#1a1311"/>
      </g>
    </g>
    <g id="グループ_5135" data-name="グループ 5135" transform="translate(73.377 841.347)">
      <g id="グループ_5134" data-name="グループ 5134">
        <path id="パス_7860" data-name="パス 7860" d="M64.426,675.084h3.238l.637-.928a.3.3,0,0,1,.231-.138.355.355,0,0,1,.231.123l1.18,1.115a.6.6,0,0,1,.168.357c0,.279-.261.279-.372.279H64.426v4.262h4.058l.637-.961a.278.278,0,0,1,.219-.153.46.46,0,0,1,.246.123l1.21,1.147a.544.544,0,0,1,.186.339c0,.3-.294.309-.4.309H58.2c-.405,0-.5,0-1.21.048l-.309-.928c.481.042.928.075,1.565.075h4.881v-4.262H58.984c-.414,0-.619.015-1.207.06l-.294-.928c.451.03.931.06,1.55.06h4.091v-1.9H61.684a9.458,9.458,0,0,0-1.213.06l-.246-.745a13.32,13.32,0,0,1-3.58,1.922l-.156-.264A17.052,17.052,0,0,0,62.6,667.9c.045-.093.234-.529.261-.619l1.52.429c.123.033.342.141.342.282,0,.216-.246.261-.436.294a12.188,12.188,0,0,0,6.914,4.355v.309a2.034,2.034,0,0,0-1.255,1.177,13.266,13.266,0,0,1-2.619-1.58.486.486,0,0,1,.168.339c0,.3-.264.3-.372.3H64.426Zm-5.193,1.1c.511.324,2.358,1.517,2.358,2.82a.847.847,0,0,1-.73.916c-.357,0-.39-.108-.682-1.039a9.5,9.5,0,0,0-1.162-2.5Zm6.631-4.6a.258.258,0,0,1,.2-.138,10.844,10.844,0,0,1-2.138-2.868,16.037,16.037,0,0,1-3.472,3.751c.73.048.961.048,1.267.048h3.628Zm2.544,5.226c.4.183.417.291.417.387,0,.261-.342.261-.727.261a13.926,13.926,0,0,1-2.295,2.664L65.5,680a13.972,13.972,0,0,0,1.475-3.874Z" transform="translate(-56.488 -667.278)" fill="#1a1311"/>
        <path id="パス_7861" data-name="パス 7861" d="M72.807,673.64h1.159l.544-.853a.254.254,0,0,1,.216-.156.375.375,0,0,1,.249.141l1.069,1.051a.551.551,0,0,1,.153.328c0,.294-.276.294-.384.294H72.807v1.706h.448l.529-.823c.045-.075.108-.168.216-.168a.353.353,0,0,1,.246.138l.976,1.039a.522.522,0,0,1,.156.342c0,.276-.264.276-.387.276H69.627v1.394h3.982l.637-.916c.048-.06.108-.15.216-.15a.393.393,0,0,1,.249.138l1.129,1.1a.543.543,0,0,1,.189.357c0,.279-.279.279-.387.279H69.627c0,.309.033,1.688.033,1.967,0,.2,0,.571-.976.571-.387,0-.436-.168-.436-.4,0-.171.033-1.766.048-2.139H63.833a10.57,10.57,0,0,0-1.21.06l-.294-.928c.435.03.931.06,1.568.06h4.4v-1.394H64.2a10.255,10.255,0,0,0-1.222.063l-.264-.931c.451.033.946.063,1.568.063h.775v-1.706H63.383a8.93,8.93,0,0,0-1.207.063l-.294-.931c.448.033.928.063,1.562.063h1.616v-1.691h-.748a11.4,11.4,0,0,0-1.222.078l-.291-.946c.448.033.943.063,1.562.063h8.479l.607-.853c.045-.063.123-.153.216-.153a.4.4,0,0,1,.246.138l1.1,1.051a.569.569,0,0,1,.171.345c0,.276-.279.276-.387.276H72.807Zm-5.163-6.169c.156.018.387.048.387.234s-.123.261-.592.451v.772h3.087a11.24,11.24,0,0,0-.063-1.64l1.58.183c.153.018.39.048.39.234s-.156.261-.577.451v.772H73.78l.637-.913a.265.265,0,0,1,.2-.138.41.41,0,0,1,.246.123L76,669.114a.555.555,0,0,1,.156.342c0,.279-.279.279-.372.279H71.858a3.2,3.2,0,0,1-.06.991c-.219.249-.838.249-.853.249-.451,0-.451-.234-.451-.372s.018-.745.033-.868H67.455a7.821,7.821,0,0,1,0,.883c-.09.294-.634.357-.91.357-.469,0-.469-.216-.469-.357,0-.048.033-.76.033-.883H63.458a9.065,9.065,0,0,0-1.207.063l-.294-.931c.451.033.931.06,1.568.06H66.11a13.5,13.5,0,0,0-.06-1.64Zm.652,4.478H66.359v1.691H68.3Zm0,2.5H66.359v1.706H68.3Zm3.223-2.5H69.627v1.691h1.892Zm0,2.5H69.627v1.706h1.892Z" transform="translate(-45.684 -667.258)" fill="#1a1311"/>
        <path id="パス_7862" data-name="パス 7862" d="M71.335,667.669c.063-.075.123-.138.2-.138a.378.378,0,0,1,.231.123l.778.7a.453.453,0,0,1,.15.306c0,.141-.06.25-.511.544v8.758c0,.327.033,1.751.033,2.045,0,1.255-.589,1.472-1.565,1.613-.015-.561-.1-.961-1.565-1.457v-.312l1.517.066c.481.012.481-.2.481-.484v-3.826H69.443c-.075,1.054-.276,3.922-2.138,5.886l-.231-.186c.637-1.472,1.255-3.3,1.255-7.593V669.3c0-.82-.03-1.424-.06-1.8l1.364.679h1.346Zm-.249,4.574H69.491v1.439c0,.406,0,.529-.015,1.117h1.61Zm0-3.256H69.491v2.448h1.595Zm1.427,6.866a14.8,14.8,0,0,0,3.643-3.61,7.382,7.382,0,0,0-.529-.991,12.027,12.027,0,0,1-2.559,1.58l-.183-.249a13.547,13.547,0,0,0,3.286-3.562H74.248a9.247,9.247,0,0,0-1.117.06l-.327-.928a15.537,15.537,0,0,0,1.553.06h4.977l.559-.745c.06-.108.123-.171.216-.171a.4.4,0,0,1,.246.141l1.117,1.024a.416.416,0,0,1,.171.294c0,.231-.264.264-.466.264H77.936a27.6,27.6,0,0,0,.73,4.139,8.307,8.307,0,0,0,1.427-2.559l1.222,1.114c.186.171.249.216.249.339,0,.189-.216.234-.357.234a1.679,1.679,0,0,1-.387-.045,13.955,13.955,0,0,1-1.982,1.52,13.6,13.6,0,0,0,3.036,5.145l-.03.309a2.02,2.02,0,0,0-1.285.835c-2.451-3.718-2.994-8.692-3.039-10.785a8.852,8.852,0,0,1-1.55,1.688,10.769,10.769,0,0,1,2.478,7.007c0,2.015-.339,3.628-2.787,3.736,0-.838-.883-1.192-1.553-1.381v-.306c.961.06,1.273.075,1.646.075.82,0,1.439-.168,1.439-2.727,0-.48-.03-.712-.045-.961a13.224,13.224,0,0,1-4.7,3.193l-.141-.279a17.387,17.387,0,0,0,4.634-4.415,12.77,12.77,0,0,0-.321-1.364,12.343,12.343,0,0,1-3.967,2.586Z" transform="translate(-35.282 -667.24)" fill="#1a1311"/>
      </g>
    </g>
    <g id="グループ_5137" data-name="グループ 5137" transform="translate(73.533 863.061)">
      <g id="グループ_5136" data-name="グループ 5136">
        <path id="パス_7863" data-name="パス 7863" d="M68.244,677.523l.679-1.006a.279.279,0,0,1,.216-.156.337.337,0,0,1,.249.138l1.367,1.256a.582.582,0,0,1,.168.342c0,.294-.264.294-.387.294H58.09a10.935,10.935,0,0,0-1.225.06l-.324-.991c.447.03.931.063,1.568.063Z" transform="translate(-56.54 -670.796)" fill="#1a1311"/>
        <path id="パス_7864" data-name="パス 7864" d="M66.874,676.229c.048-.063.123-.156.216-.156a.419.419,0,0,1,.234.126l.8.742c.108.108.156.168.156.294s-.048.2-.529.559v3.07c.685-.111.76-.126.883-.138l-.246-.174a7.888,7.888,0,0,0,1.084-4.277c0-.481-.03-.943-.06-1.271l1.33.6h1.676l.321-.448c.081-.108.126-.156.2-.156a.364.364,0,0,1,.231.108l.886.79a.408.408,0,0,1,.168.282c0,.183-.06.216-.541.54v2.109c0,.354.027.447.481.447.619,0,.694,0,.82-.279a9.517,9.517,0,0,0,.4-1.517h.312a13.871,13.871,0,0,0,.108,1.5c.027.078.276.342.306.4a.662.662,0,0,1,.093.342c0,.745-.85.745-2.09.745-1.5,0-1.613-.063-1.613-1.337v-2.724H70.625a5.386,5.386,0,0,1-1.967,4.31l.183-.033L68.9,681c-.339.123-.5.186-1.147.388v4.355c0,.264.015,1.426.015,1.676,0,.991-.156,1.442-1.55,1.5,0-.727-.324-.913-1.58-1.331v-.312l1.691.048c.246,0,.339-.048.339-.357v-5.253c-.123.045-.715.2-.823.231v1.829c0,.279.033,1.628.033,1.751,0,.231,0,.51-.622.51-.231,0-.276-.09-.276-.339,0-.312.03-1.628.03-1.892v-1.643l-.79.2c-.06,2.126-.141,4.667-1.844,6.574l-.279-.156a13.988,13.988,0,0,0,1.054-6.139,2.262,2.262,0,0,1-.312.078c-.09.249-.138.372-.306.372-.093,0-.2-.048-.279-.357l-.324-1.285c.448,0,.82-.015,1.222-.033v-3.577c0-.667-.015-1.024-.063-1.736l1.24.6h.279a12.17,12.17,0,0,0,.279-2.2l1.442.342c.231.06.384.123.384.261,0,.219-.168.246-.619.342-.126.183-.682,1.084-.8,1.255h1.255Zm-.2,1.285H64.24v3.8c.838-.063,1.595-.156,2.433-.294Zm-2,.481c.463.234,1.562,1.054,1.562,1.937,0,.573-.324.7-.541.7-.309,0-.4-.186-.5-.6a5.74,5.74,0,0,0-.757-1.829Zm11.683,9.719a1.6,1.6,0,0,0-1.162,1.117,10.059,10.059,0,0,1-3.253-2.081,9.044,9.044,0,0,1-3.97,2.238l-.123-.282a11.217,11.217,0,0,0,3.427-2.649,7.708,7.708,0,0,1-1.751-3.676,6.331,6.331,0,0,0-.931.063l-.309-.931c.448.03.943.063,1.565.063h3.424l.387-.451c.078-.093.141-.153.234-.153a.412.412,0,0,1,.261.141l.916.88c.141.138.186.219.186.342,0,.249-.078.264-.778.432a13.816,13.816,0,0,1-1.8,3.148,8.626,8.626,0,0,0,3.673,1.487ZM69.88,682.38a7.153,7.153,0,0,0,1.982,2.9,8.44,8.44,0,0,0,1.364-2.9Z" transform="translate(-45.736 -674.508)" fill="#1a1311"/>
        <path id="パス_7865" data-name="パス 7865" d="M71.48,674.912c.06-.078.123-.138.2-.138a.356.356,0,0,1,.231.123l.778.7a.462.462,0,0,1,.153.309c0,.141-.063.249-.511.541V685.2c0,.327.033,1.751.033,2.045,0,1.255-.592,1.472-1.568,1.613-.015-.559-.093-.961-1.562-1.457v-.312l1.517.066c.481.015.481-.2.481-.481v-3.829H69.588c-.078,1.054-.279,3.923-2.138,5.887l-.231-.183c.637-1.475,1.255-3.3,1.255-7.6v-4.415c0-.823-.033-1.427-.063-1.8l1.364.679h1.349Zm-.249,4.571H69.636v1.442c0,.4,0,.526-.015,1.117h1.61Zm0-3.256H69.636v2.448h1.595Zm1.424,6.866a14.792,14.792,0,0,0,3.643-3.61,6.761,6.761,0,0,0-.529-.991,11.977,11.977,0,0,1-2.556,1.58l-.186-.249a13.488,13.488,0,0,0,3.286-3.562H74.39a9.293,9.293,0,0,0-1.117.06l-.324-.928a15.537,15.537,0,0,0,1.553.06h4.977l.556-.745c.063-.108.123-.168.219-.168a.409.409,0,0,1,.246.138l1.117,1.024a.427.427,0,0,1,.168.294c0,.231-.261.264-.466.264H78.081a27.339,27.339,0,0,0,.727,4.139,8.256,8.256,0,0,0,1.43-2.559l1.222,1.114c.186.171.246.219.246.342,0,.186-.213.234-.354.234a1.683,1.683,0,0,1-.387-.048A13.736,13.736,0,0,1,78.982,681a13.6,13.6,0,0,0,3.036,5.145l-.03.309a2.021,2.021,0,0,0-1.288.838c-2.448-3.721-2.991-8.695-3.039-10.788a8.637,8.637,0,0,1-1.547,1.688,10.77,10.77,0,0,1,2.478,7.007c0,2.015-.339,3.628-2.79,3.736,0-.838-.883-1.193-1.55-1.379v-.309c.961.06,1.27.075,1.643.075.823,0,1.442-.168,1.442-2.727,0-.48-.033-.712-.048-.961a13.194,13.194,0,0,1-4.694,3.193l-.141-.276a17.433,17.433,0,0,0,4.634-4.418,12.945,12.945,0,0,0-.321-1.363,12.317,12.317,0,0,1-3.971,2.586Z" transform="translate(-35.148 -674.446)" fill="#1a1311"/>
      </g>
    </g>
    <rect id="長方形_896" data-name="長方形 896" width="13.866" height="13.874" transform="translate(53.064 842.136)" fill="#e7ac49"/>
    <rect id="長方形_897" data-name="長方形 897" width="13.866" height="13.859" transform="translate(53.064 864.33)" fill="#e55552"/>
    <path id="パス_7866" data-name="パス 7866" d="M75.406,636.022,91.334,736.774,170.24,791.96l66.568-62.925,13.431-84.006-79.447-45.865Z" transform="translate(54.789 37.609)" fill="#e7ac49"/>
    <path id="パス_7867" data-name="パス 7867" d="M100.468,628.97l11.372,16.947,8.74,36.607,33.69-22.049-5.414-36.193-28.274,1.389Z" transform="translate(104.998 87.931)" fill="#ef8661"/>
    <g id="グループ_5138" data-name="グループ 5138" transform="translate(111.841 613.926)" style="mix-blend-mode: multiply;isolation: isolate">
      <line id="線_160" data-name="線 160" y2="229.168" transform="translate(113.74)" fill="none" stroke="#8e8e8f" stroke-linejoin="round" stroke-width="0.992"/>
      <line id="線_161" data-name="線 161" x2="198.458" y2="114.584" transform="translate(14.509 57.297)" fill="none" stroke="#8e8e8f" stroke-linejoin="round" stroke-width="0.992"/>
      <line id="線_162" data-name="線 162" y1="114.584" x2="198.458" transform="translate(14.509 57.297)" fill="none" stroke="#8e8e8f" stroke-linejoin="round" stroke-width="0.992"/>
      <path id="パス_7868" data-name="パス 7868" d="M297.4,705.808A114.052,114.052,0,1,1,183.346,591.757,114.052,114.052,0,0,1,297.4,705.808Z" transform="translate(-69.295 -591.155)" fill="none" stroke="#8e8e8f" stroke-linejoin="round" stroke-width="0.992"/>
      <path id="パス_7869" data-name="パス 7869" d="M297.4,705.808A114.052,114.052,0,1,1,183.346,591.757,114.052,114.052,0,0,1,297.4,705.808Z" transform="translate(-69.295 -591.155)" fill="none" stroke="#8e8e8f" stroke-linejoin="round" stroke-width="0.992"/>
    </g>
    <g id="グループ_5139" data-name="グループ 5139" transform="translate(55.344 903.989)">
      <path id="パス_7870" data-name="パス 7870" d="M60.647,698.284a9.9,9.9,0,0,0-.105-1.862,8,8,0,0,1,1.006.09c.105.015.183.057.183.12a1.33,1.33,0,0,1-.078.27,6.378,6.378,0,0,0-.09,1.411v1.769c0,.859.033,1.2.033,1.279,0,.1-.018.12-.108.12h-.721c-.105,0-.12-.018-.12-.12v-.826H51.505v.871c0,.105-.015.12-.12.12h-.706c-.105,0-.12-.015-.12-.12,0-.078.033-.406.033-1.232v-1.8a9.792,9.792,0,0,0-.108-1.862,9.779,9.779,0,0,1,1.006.087c.105.015.2.063.2.135a.965.965,0,0,1-.078.255,4.961,4.961,0,0,0-.1,1.352v1.339H55.47v-5.109H51.941v.751c0,.108-.015.12-.12.12h-.706c-.105,0-.12-.012-.12-.12,0-.075.03-.432.03-1.336v-2.042a10.121,10.121,0,0,0-.105-1.877,8.646,8.646,0,0,1,1.006.09c.105.018.165.06.165.138a.737.737,0,0,1-.06.267,5.054,5.054,0,0,0-.09,1.37v1.8H55.47v-3.649a9.99,9.99,0,0,0-.108-1.922,10.391,10.391,0,0,1,1.039.09c.105.015.18.048.18.12a1.526,1.526,0,0,1-.075.27,6.058,6.058,0,0,0-.09,1.427v3.664H60.23v-1.877a9.81,9.81,0,0,0-.108-1.877,8.881,8.881,0,0,1,1.006.09c.108.015.18.06.18.135a1.072,1.072,0,0,1-.072.255,6.084,6.084,0,0,0-.093,1.427v2.03c0,.913.03,1.288.03,1.381s-.015.12-.12.12h-.7c-.108,0-.12-.015-.12-.12v-.724H56.416v5.109h4.232Z" transform="translate(-50.484 -688.087)" fill="#1a1311"/>
      <path id="パス_7871" data-name="パス 7871" d="M68.82,697.956c0,.1-.015.12-.105.12s-.541-.03-1.937-.03H57.542c-1.4,0-1.862.03-1.937.03-.108,0-.123-.015-.123-.12v-.646c0-.105.015-.12.123-.12.06,0,.481.03,1.592.03v-4.853c0-1.216-.03-1.727-.03-1.814,0-.1.015-.12.105-.12s.613.03,2.147.03h.8v-.736a7.068,7.068,0,0,0-.105-1.532,7.5,7.5,0,0,1,.961.09c.105.015.165.06.165.12a1.029,1.029,0,0,1-.075.285,3.743,3.743,0,0,0-.075.991v.781h2.132v-.736a7.068,7.068,0,0,0-.105-1.532,7.291,7.291,0,0,1,.961.09c.105.015.177.06.177.12a.854.854,0,0,1-.087.3,3.443,3.443,0,0,0-.075.976v.781H65c1.52,0,2.045-.03,2.132-.03s.108.015.108.12c0,.087-.03.6-.03,1.814v4.853c1.033,0,1.409-.03,1.5-.03s.105.015.105.12Zm-8.229,1.367a2.242,2.242,0,0,0-.661.466,10.808,10.808,0,0,1-3.349,1.712.858.858,0,0,1-.213.045c-.087,0-.135-.06-.222-.225a2.18,2.18,0,0,0-.451-.51,9.608,9.608,0,0,0,3.589-1.652,2.262,2.262,0,0,0,.6-.616,5.225,5.225,0,0,1,.751.421c.105.075.153.12.153.21C60.786,699.232,60.7,699.293,60.591,699.323Zm-.375-8.052H58.083v2.466h2.132Zm0,3.229H58.083v2.721h2.132Zm3-3.229H61.086v2.466h2.132Zm0,3.229H61.086v2.721h2.132Zm.736,4.178c.135-.1.135-.1.225-.03a11.3,11.3,0,0,0,4.19,2.072,1.837,1.837,0,0,0-.435.556c-.09.165-.135.24-.21.24a1.322,1.322,0,0,1-.213-.06,11.9,11.9,0,0,1-4.037-2.268c-.108-.09-.015-.135.09-.225Zm2.373-7.406H64.09v2.466h2.238Zm0,3.229H64.09v2.721h2.238Z" transform="translate(-40.471 -688.015)" fill="#1a1311"/>
      <path id="パス_7872" data-name="パス 7872" d="M63.605,690.086a1.051,1.051,0,1,1-1.051-1.051A1.028,1.028,0,0,1,63.605,690.086Zm0,6.082a1.051,1.051,0,0,1-2.1,0,1.051,1.051,0,1,1,2.1,0Z" transform="translate(-28.409 -686.332)" fill="#1a1311"/>
      <path id="パス_7873" data-name="パス 7873" d="M76.913,698.208c0,.105-.015.12-.12.12-.075,0-.541-.027-1.952-.027H72.993v1.622c0,1.018.03,1.439.03,1.529s-.015.105-.12.105h-.721c-.105,0-.12-.012-.12-.105s.03-.511.03-1.529V698.3H68.458c-.225,1.394-1.039,2.493-3.382,3.244a1.138,1.138,0,0,1-.222.057c-.09,0-.135-.057-.24-.255a1.859,1.859,0,0,0-.454-.511c2.226-.526,3.112-1.333,3.379-2.535H65.905c-1.412,0-1.877.027-1.952.027-.105,0-.12-.015-.12-.12V697.6c0-.105.015-.12.12-.12.075,0,.541.03,1.952.03h1.742v-.15a5.656,5.656,0,0,0-.06-1.216,8.58,8.58,0,0,1,.931.09c.12.015.18.045.18.135a.537.537,0,0,1-.075.225,1.693,1.693,0,0,0-.078.631c0,.105-.012.2-.012.285h3.559a7.655,7.655,0,0,0-.09-1.352,8.438,8.438,0,0,1,.961.09c.105.015.165.057.165.135a.379.379,0,0,1-.078.21,3.258,3.258,0,0,0-.057.916H74.84c1.412,0,1.877-.03,1.952-.03.105,0,.12.015.12.12ZM68.623,691c1.276,0,1.7-.03,1.787-.03s.12.015.12.12c0,.078-.03.5-.03,1.352v.694c0,.673.015,1.036.015,1.544a1.1,1.1,0,0,1-.33.934,1.917,1.917,0,0,1-1.231.255c-.288,0-.315-.03-.36-.27a1.363,1.363,0,0,0-.168-.465,7.2,7.2,0,0,0,.889.042c.33,0,.42-.147.42-.553v-2.932H67.752v2.118c0,1.171.03,1.637.03,1.715,0,.105-.015.12-.123.12h-.568c-.09,0-.105-.015-.105-.12s.03-.544.03-1.715v-2.118h-2V694.5c0,.928.027,1.291.027,1.366,0,.105-.015.12-.12.12h-.6c-.105,0-.12-.015-.12-.12,0-.09.03-.39.03-1.366v-2.015c0-.973-.03-1.319-.03-1.4,0-.105.015-.12.12-.12.087,0,.526.03,1.8.03h.856v-.886a9.112,9.112,0,0,0-.105-1.907,6.412,6.412,0,0,1,.871.078c.105.012.177.057.177.12a1.109,1.109,0,0,1-.1.282,7.212,7.212,0,0,0-.045,1.4V691Zm-3.754-2.4c.12-.072.162-.057.24.03a8.951,8.951,0,0,1,.928,1.487c.063.12.048.15-.09.225l-.375.183c-.165.072-.192.072-.255-.048A6.666,6.666,0,0,0,64.449,689c-.075-.1-.06-.135.087-.222Zm1.742,4.193a.876.876,0,0,0-.15.327,11.782,11.782,0,0,1-.481,1.5c-.09.207-.105.207-.3.12a1.942,1.942,0,0,0-.448-.138,6.856,6.856,0,0,0,.583-1.694,2.91,2.91,0,0,0,.078-.559,4.607,4.607,0,0,1,.673.183c.078.027.12.057.12.12A.215.215,0,0,1,66.611,692.79Zm1.907-.375c.135-.048.165-.048.21.042a6.958,6.958,0,0,1,.541,1.445c.027.147.027.162-.09.207l-.3.105c-.15.063-.18.063-.213-.042a6.887,6.887,0,0,0-.5-1.49c-.042-.09-.042-.135.093-.177Zm1.8-3.247a.775.775,0,0,0-.21.3,7.407,7.407,0,0,1-.586.934c-.165.222-.2.24-.405.135a1.763,1.763,0,0,0-.454-.153,5.468,5.468,0,0,0,.709-1.2,2.6,2.6,0,0,0,.2-.643,3.5,3.5,0,0,1,.718.282c.153.078.168.105.168.15C70.455,689.063,70.41,689.108,70.32,689.168ZM77.2,690.85c0,.1-.018.12-.105.12s-.33-.015-1.051-.03a8.4,8.4,0,0,1-1.517,3.1,8.708,8.708,0,0,0,2.823,1.409,2.039,2.039,0,0,0-.36.559c-.075.18-.105.255-.183.255a.657.657,0,0,1-.222-.075,9.352,9.352,0,0,1-2.643-1.547,8.976,8.976,0,0,1-2.613,1.547.763.763,0,0,1-.225.075c-.06,0-.09-.045-.15-.18a1.682,1.682,0,0,0-.375-.513,7.673,7.673,0,0,0,2.778-1.517,8.218,8.218,0,0,1-1.367-2.237,8.086,8.086,0,0,1-.646.781c-.09.09-.15.135-.21.135s-.105-.045-.18-.15a1.2,1.2,0,0,0-.375-.345,7.55,7.55,0,0,0,1.952-3.108,4.366,4.366,0,0,0,.225-.958,7.412,7.412,0,0,1,.811.207c.12.033.15.09.15.153a.351.351,0,0,1-.12.207,1.743,1.743,0,0,0-.3.586c-.1.27-.222.571-.375.886H75.4c1.231,0,1.607-.03,1.7-.03s.105.015.105.12Zm-4.658.09-.087.165a7.321,7.321,0,0,0,1.442,2.358,6.838,6.838,0,0,0,1.261-2.523Z" transform="translate(-23.741 -688.075)" fill="#1a1311"/>
      <path id="パス_7874" data-name="パス 7874" d="M73.833,690.71a.4.4,0,0,0,.27-.057.446.446,0,0,1,.135-.033c.075,0,.18.063.378.255.177.2.255.3.255.36,0,.078-.033.12-.12.2a.832.832,0,0,0-.3.361,15.484,15.484,0,0,1-1.442,2.418,9.511,9.511,0,0,0,2.283,1.847,2.214,2.214,0,0,0-.417.553c-.063.12-.108.168-.168.168a.374.374,0,0,1-.2-.105,10.515,10.515,0,0,1-1.7-1.67v4.688c0,1.2.03,1.8.03,1.877,0,.105-.015.12-.12.12h-.706c-.105,0-.12-.015-.12-.12,0-.075.03-.676.03-1.877V695.5a15.765,15.765,0,0,1-1.967,1.757c-.105.078-.165.12-.225.12s-.09-.057-.15-.192a1.632,1.632,0,0,0-.36-.559,11.9,11.9,0,0,0,4.385-5.118H71.431c-1.111,0-1.457.03-1.532.03-.105,0-.12-.015-.12-.12V690.8c0-.105.015-.12.12-.12.075,0,.42.027,1.532.027h.5v-.871a8.208,8.208,0,0,0-.105-1.694c.375.015.661.045.976.087.12.015.2.078.2.12a.65.65,0,0,1-.09.288,3.346,3.346,0,0,0-.09,1.171v.9Zm9.1,10.244c0,.105-.015.12-.12.12-.075,0-.571-.03-2.054-.03H76.506c-1.472,0-1.982.03-2.057.03-.12,0-.135-.015-.135-.12v-.661c0-.105.015-.12.135-.12.075,0,.586.03,2.057.03h1.517V694h-.946c-1.382,0-1.847.033-1.922.033-.105,0-.12-.015-.12-.12v-.664c0-.1.015-.12.12-.12.075,0,.541.033,1.922.033h.946v-2.931a10.6,10.6,0,0,0-.105-2.054,7.979,7.979,0,0,1,1.006.09c.105.015.18.06.18.12a1.048,1.048,0,0,1-.06.255,5.547,5.547,0,0,0-.105,1.562v2.958h1.276c1.382,0,1.847-.033,1.922-.033.105,0,.123.018.123.12v.664c0,.1-.018.12-.123.12-.075,0-.541-.033-1.922-.033H78.939v6.2h1.82c1.484,0,1.979-.03,2.054-.03.105,0,.12.015.12.12Z" transform="translate(-12.942 -688.115)" fill="#1a1311"/>
      <path id="パス_7875" data-name="パス 7875" d="M79.5,691.22c0,.12-.015.135-.12.135-.078,0-.405-.03-1.5-.03H76.4c-1.111,0-1.424.03-1.5.03-.105,0-.12-.015-.12-.135v-.628c0-.105.015-.105.12-.105.078,0,.39.03,1.5.03h1.475c1.1,0,1.424-.03,1.5-.03.105,0,.12,0,.12.105Zm-.438-2.009c0,.105-.015.12-.12.12-.072,0-.342-.03-1.261-.03h-.991c-.916,0-1.183.03-1.261.03-.105,0-.12-.015-.12-.12v-.586c0-.1.015-.12.12-.12.078,0,.345.03,1.261.03h.991c.919,0,1.189-.03,1.261-.03.105,0,.12.015.12.12ZM78.987,699c0,.8.03,1.051.03,1.123,0,.105-.015.135-.105.12-.09,0-.36-.03-1.216-.03h-1.5v.856c0,.105-.015.12-.105.12h-.616c-.105,0-.12-.015-.12-.12,0-.09.03-.345.03-1.667v-1.352c0-.961-.03-1.276-.03-1.363,0-.108.015-.12.12-.12.075,0,.39.027,1.291.027H77.7c.856,0,1.126-.027,1.216-.027s.105.012.105.12c0,.072-.03.387-.03,1.153Zm-.117-5.755c0,.1-.015.12-.135.12-.078,0-.3-.03-1.126-.03h-.871c-.844,0-1.069.03-1.141.03-.105,0-.12-.015-.12-.12v-.583c0-.105.015-.12.12-.12.072,0,.3.027,1.141.027h.871c.823,0,1.048-.027,1.126-.027.12,0,.135.015.135.12Zm0,2.045c0,.09-.015.105-.135.105-.078,0-.3-.033-1.126-.033h-.871c-.844,0-1.069.033-1.141.033-.105,0-.12-.015-.12-.105v-.6c0-.108.015-.12.12-.12.072,0,.3.027,1.141.027h.871c.823,0,1.048-.027,1.126-.027.12,0,.135.012.135.12Zm-.679,2.039h-2v2.163h2Zm9.356.228c0,.853.03,1.544.03,2.189a1.162,1.162,0,0,1-.405,1.006c-.21.18-.511.27-1.772.255-.225,0-.255-.015-.3-.24a2.168,2.168,0,0,0-.285-.706,10.129,10.129,0,0,0,1.367.06c.375,0,.511-.2.511-.673V689.166H81.044V692.2c0,3.964-.21,6.818-1.261,8.725-.06.135-.12.2-.18.2s-.105-.045-.2-.135a1.741,1.741,0,0,0-.5-.345c1.171-1.814,1.291-4.851,1.291-8.53v-1.664c0-1.307-.03-1.892-.03-1.982,0-.105.015-.12.12-.12.075,0,.556.03,1.952.03h3.244c1.412,0,1.9-.03,1.967-.03.105,0,.12.015.12.12,0,.09-.03.676-.03,1.982ZM86.285,694c0,.105-.015.12-.105.12s-.433-.03-1.457-.03H82.969c-.934,0-1.294.03-1.367.03-.105,0-.12-.015-.12-.12v-.477c0-.105.015-.12.12-.12.072,0,.432.03,1.367.03H83.4v-1.565h-.24c-.856,0-1.153.033-1.246.033s-.105-.018-.105-.12v-.5c0-.105,0-.12.105-.12s.39.03,1.246.03h.24v-.213a6.656,6.656,0,0,0-.09-1.348,7.146,7.146,0,0,1,.841.09c.108.015.165.06.165.135a.528.528,0,0,1-.072.225,2.122,2.122,0,0,0-.078.868v.243h.375c.931,0,1.231-.03,1.325-.03s.12.015.12.12v.5c0,.1-.018.12-.12.12s-.393-.033-1.325-.033h-.375v1.565h.556c1.024,0,1.367-.03,1.457-.03s.105.015.105.12Zm-.736,3.172c0,1.532.03,1.8.03,1.877,0,.1-.015.12-.12.12h-.526c-.105,0-.12-.015-.12-.12v-.556H82.726v.718c0,.108-.015.12-.12.12H82.08c-.105,0-.12-.012-.12-.12,0-.09.03-.343.03-1.964v-.769c0-.778-.03-1.063-.03-1.141,0-.105.015-.12.12-.12.09,0,.345.03,1.2.03h.991c.841,0,1.1-.03,1.186-.03.105,0,.12.015.12.12,0,.078-.03.363-.03.979Zm-.736-1.231H82.726V697.8h2.087Z" transform="translate(-1.806 -687.724)" fill="#1a1311"/>
      <path id="パス_7876" data-name="パス 7876" d="M87.879,690.853a13.74,13.74,0,0,0,5.9,3.181,1.921,1.921,0,0,0-.42.6c-.075.165-.12.24-.2.24a.8.8,0,0,1-.225-.075,13.272,13.272,0,0,1-5.661-3.721c0,1.169.075,2.358.075,2.628,0,.105-.015.12-.12.12h-.706c-.105,0-.12-.015-.12-.12,0-.27.06-1.43.075-2.6a12.9,12.9,0,0,1-5.466,3.664c-.27.105-.285.105-.42-.162a1.851,1.851,0,0,0-.405-.54,13.181,13.181,0,0,0,5.646-3.214H82.923c-1.442,0-1.937.027-2.012.027-.105,0-.12-.015-.12-.12v-.6c0-.1.015-.12.12-.12.075,0,.571.03,2.012.03h3.514v-.36a7.236,7.236,0,0,0-.105-1.577,9.038,9.038,0,0,1,.991.09c.105.012.18.075.18.132a.7.7,0,0,1-.09.288,2.969,2.969,0,0,0-.09.931v.5h3.769c1.457,0,1.937-.03,2.027-.03s.12.015.12.12v.6c0,.105-.015.12-.12.12s-.571-.027-2.027-.027Zm5.827,10.164c0,.1-.015.12-.12.12-.075,0-.541-.027-1.922-.027h-9.25c-1.382,0-1.847.027-1.922.027-.105,0-.12-.015-.12-.12V700.4c0-.1.015-.12.12-.12.075,0,.541.03,1.922.03h.811v-4.283c0-1.126-.03-1.607-.03-1.694,0-.105.015-.12.135-.12.075,0,.571.027,1.982.027H88.72c1.412,0,1.907-.027,1.982-.027.105,0,.12.015.12.12,0,.087-.03.567-.03,1.694v4.283h.871c1.382,0,1.847-.03,1.922-.03.105,0,.12.015.12.12Zm-3.8-6.007h-5.8v1.246h5.8Zm0,1.94h-5.8v1.289h5.8Zm0,1.982h-5.8v1.382h5.8Z" transform="translate(9.029 -688.135)" fill="#1a1311"/>
    </g>
  </g>
</svg>
