<svg xmlns="http://www.w3.org/2000/svg" width="106.719" height="120.418" viewBox="0 0 106.719 120.418">
  <g id="関東イラスト" transform="translate(-789.35 -2698.356)">
    <path id="パス_3823" data-name="パス 3823" d="M403.524,3020.136l-6.992-3.648-5.471,6.688-8.815-6.688a6,6,0,0,0-1.824-5.775c-2.736-2.432-7.9-9.917-14.287-5.263s-14.287,12.254-17.023,13.166-9.423-1.52-9.423-1.52l-6.08-3.53s-2.735-2.549-3.951,2.01-1.216,9.967-4.864,10-7.3,0-7.3,0a56.213,56.213,0,0,1-6.992,4.288c-4.56,2.432-10.639,13.957-3.952,14.73s9.424,2.9,8.512,6.853,0,5.167,0,8.815a6.1,6.1,0,0,0,2.432,5.168l2.735,5.775,7.6,2.128s0,5.168,6.991,9.423c0,7.3-5.775,13.679-4.863,17.327s3.039,10.639,6.079,9.423,1.216-1.52,3.04-3.648,2.432-3.039,7.6-3.039,7.861-.3,9.706,3.039-.282,5.168,1.845,3.344,4.256-3.344,2.432-6.383-8.858-4.56-4.277-7.9,8.229-3.04,6.709-5.471l-1.52-2.432s-.608-4.56,1.52-4.864,2.736,1.824,4.864,1.824,3.951-2.128,6.383-.3,5.472,4.56,1.52,7.6-7.3-2.128-8.511,6.687.912,16.174.608,20.062-3.344,7.056,0,5.472,6.687-10.031,11.551-11.855,10.335-3.952,10.335-3.952a26.266,26.266,0,0,1,.912-14.287c2.736-6.991,4.256-13.172,11.247-13.274s8.511-1.317,7.6-3.748-6.991-9.1-6.991-9.1-6.991-7.014-6.991-16.133S403.524,3020.136,403.524,3020.136Z" transform="translate(486 -305.367)" fill="none" stroke="#284525" stroke-miterlimit="10" stroke-width="0.47"/>
    <path id="パス_3824" data-name="パス 3824" d="M392.885,3067.275s-1.824-7.318-4.56-9.75-2.128-.912-3.344,0-3.343,0-3.951,1.52S392.885,3067.275,392.885,3067.275Z" transform="translate(486 -305.367)" fill="none" stroke="#284525" stroke-miterlimit="10" stroke-width="0.47"/>
    <path id="パス_3825" data-name="パス 3825" d="M367.959,3083.971a15.786,15.786,0,0,0,0-4.971c-.442-2.642-.442-4.415-2.538-4.093a69.879,69.879,0,0,1-7.738,1.29c-2.9.161-3.708.085-3.869-1.328s-3.869,0-3.869,0-.484,3.1-3.869,1.005-8.061-4.352-8.061-4.352h-7.738l-2.443,1.81s-.551,5.019,6.991,9.423c2.545-.593,9.477,1.019,12.218,4.082s3.869,5.8,4.191,4.675-.322-.806.323-2.9a7.28,7.28,0,0,0,0-4.03l2.9-.645,8.636,5.508c.069-3.09-.576-1.639.069-3.09s.069-.63,0-2.418,1.93-1.29,1.93-1.29Z" transform="translate(486 -305.367)" fill="#2e5c3d" stroke="#284525" stroke-miterlimit="10" stroke-width="0.454"/>
  </g>
</svg>
