<svg xmlns="http://www.w3.org/2000/svg" width="126.368" height="185.109" viewBox="0 0 126.368 185.109">
  <g id="東方靴方イラスト" transform="translate(0.197 0.231)">
    <g id="グループ_1972" data-name="グループ 1972">
      <path id="パス_3826" data-name="パス 3826" d="M411.531,2800.97l.86-17.2-1.208-12.563a12.378,12.378,0,0,0-1-3.785l-3.263-7.167a7.655,7.655,0,0,0-2.432-2.965,3.7,3.7,0,0,1-1.571-3.1l.48-12.976a12.129,12.129,0,0,1,.76-3.812l4.689-12.484a1.209,1.209,0,0,0-1.446-1.523l-1.573.253a4.568,4.568,0,0,1-3.695-1.01l-8.585-7.46a1.606,1.606,0,0,0-2.452.429l-6.481,13.125a1.246,1.246,0,0,0,1.288,1.731l4.525-.12a13.016,13.016,0,0,0,4.17-.819l3.481-1.307a1.575,1.575,0,0,1,2.139,1.113,5.683,5.683,0,0,1-.577,3.471l-3.337,6.347a3.189,3.189,0,0,1-2.719,1.641,4.061,4.061,0,0,1-3.137-1.244l-2.956-3.168a1.529,1.529,0,0,0-2.39.24l-1.324,2.321a3.067,3.067,0,0,1-2.21,1.474,1.3,1.3,0,0,1-1.562-1.137l-.441-12.8a3.147,3.147,0,0,0-2.073-2.739l-4.666-1.81a2.166,2.166,0,0,0-2.777,1.058l-6.313,14.827a3.027,3.027,0,0,1-2.941,1.753l-2.839-.108a6.405,6.405,0,0,0-3.889,1.131l-4.2,2.945a2.137,2.137,0,0,0-.448,3.05,5.634,5.634,0,0,1,.991,3.624l-.279,3.826a14.888,14.888,0,0,1-.786,3.824l-1.819,5.213a8.241,8.241,0,0,1-2.16,3.286l-.541.509a4.173,4.173,0,0,1-3.619,1l-3.813-.743a1.336,1.336,0,0,0-1.667,1.508l.847,3.611a2.5,2.5,0,0,0,2.608,1.816l4.374-.208a1.878,1.878,0,0,1,2.056,1.861l-.313,5.357a7.514,7.514,0,0,1-1.2,3.657l-7.652,12.08-4.261,9.134a11.762,11.762,0,0,1-2.308,3.261l-12.644,12.537,10.44,4.01,4.451,13.766-18.163,9.358.788,2.76s-1.28,2.657-1.584,3.686-7.4,3.443-15.652,2.544-6.5,4.49-9.838,15.813.335,5.046,9.208,6.923,15.4-.673,20.863,2.015,7.643,9.592,10.352,12.776,9.078-.874,9.078-.874l5.4,4.882a6.116,6.116,0,0,1,.767-.308l3.1-.974a4.119,4.119,0,0,0,2.716-2.511l8.175-22.961a11.209,11.209,0,0,0,.626-3.833l-.2-10.794s-3.674,5.071-7.96,4.371-2.152-2.22-3.944-5.032-11.435-6.111-11.435-6.111l-.745-9.068,7.151-9.638,4.55-6.535,8.845-5.146,9.031-.869s5.712,4.115,8.939,5.231,9.919,4.45,11.355,2.757,4.891-.759,4.891-.759,1.809-2.32,3.4-2.477l4.8-2.008a8.318,8.318,0,0,0,3.257-2.4l5.507-6.747,5.05-8.887A8.327,8.327,0,0,0,411.531,2800.97Z" transform="translate(-286.448 -2714.782)" fill="none" stroke="#284525" stroke-miterlimit="10" stroke-width="0.454"/>
      <path id="パス_3827" data-name="パス 3827" d="M389.568,2854.18c-1.436,1.866-8.128-1.806-11.355-3.037s-8.939-5.762-8.939-5.762l-9.031.957h0a2.878,2.878,0,0,1,.027.34,10.413,10.413,0,0,1-.368,2.445c-.333,1.329-1.221,2.414-1.514,3.726-.743,3.276-.1,6.39-1.557,9.635a23.42,23.42,0,0,1-4.593,6.162c-1.484,1.576-2.616,3.674-4.157,5.14-1.837,1.751-4.68,2.335-6.575,4.317a5.336,5.336,0,0,0-1.061,1.711c.021.008,9.644,3.637,11.433,6.731s-.342,4.771,3.944,5.543,7.961-4.815,7.961-4.815a7.5,7.5,0,0,1,1.071-4.011l4.6-7.655a11.316,11.316,0,0,1,2.83-3.173l2.364-1.809a4.192,4.192,0,0,1,3.79-.661l2.315.711c.594.181.248,1.208.836,1.4,4.695,1.543,6.17.015,6.17.015a15.989,15.989,0,0,0,1.042-4.164l.692-5.952a8.268,8.268,0,0,1,1.523-3.9l3.448-4.732S391,2852.313,389.568,2854.18Z" transform="translate(-292.479 -2743.376)" fill="#2e5c3d" stroke="#284525" stroke-miterlimit="10" stroke-width="0.454"/>
      <path id="パス_3828" data-name="パス 3828" d="M357.666,2843.924c-.1-.7-.49-1.087-1.519-.432a16.64,16.64,0,0,0-2.3-3.994c-1.415-1.855-2.112-4.02-3.391-5.969-1.335-2.038-3.4-3.2-5.378-4.54-.8-.547-1.563-1.084-2.375-1.613a43.053,43.053,0,0,0-4.3-3.02,4.906,4.906,0,0,0-1.266-.42l-1.5,3.554a13.033,13.033,0,0,1-2.308,3.593l-13.788,15.058a7.541,7.541,0,0,0,1.984,1.759c1.6,1.023,4.062,2.147,4.412,4.144.312,1.81-.559,3.857.579,5.421,1.419,1.938,3.576,1.975,2.6,5.063-.751,2.383-3.32,2.1-5.244,3.014-2.686,1.27-2.765,3.135-3.326,5.644a4.307,4.307,0,0,1-3.133,3.6c-.2.823.51,2.232.788,3.041,1.082,3.164,3.495,3.545,6.275,4.9a19.27,19.27,0,0,1,3.592,2.183c.891.716,1.358,1.89,2.192,2.572,1.73,1.41,4.261-2.685,5.319-3.985,1.425-1.758,1.5-4.15,2.294-6.1a5.336,5.336,0,0,1,1.061-1.711c1.9-1.982,4.738-2.565,6.575-4.317,1.541-1.466,2.673-3.564,4.157-5.14a23.42,23.42,0,0,0,4.593-6.162c1.454-3.245.815-6.359,1.557-9.635.293-1.312,1.181-2.4,1.514-3.726a10.415,10.415,0,0,0,.368-2.445A2.878,2.878,0,0,0,357.666,2843.924Z" transform="translate(-289.902 -2740.1)" fill="#2e5c3d" stroke="#284525" stroke-miterlimit="10" stroke-width="0.454"/>
    </g>
    <path id="パス_3829" data-name="パス 3829" d="M340.671,2880.69c.256-.627.384-2.378.86-2.877,1.9-1.982,4.738-2.565,6.575-4.317,1.541-1.466,2.673-3.564,4.157-5.14a23.419,23.419,0,0,0,4.593-6.162c1.454-3.246.815-6.359,1.557-9.635.293-1.312,1.181-2.4,1.514-3.726a10.414,10.414,0,0,0,.368-2.445c0-.12,2.077-3.481,2.062-3.589" transform="translate(-292.504 -2742.079)" fill="none" stroke="#fff" stroke-miterlimit="10" stroke-width="0.454"/>
  </g>
</svg>
