<svg xmlns="http://www.w3.org/2000/svg" width="142.199" height="229.689" viewBox="0 0 142.199 229.689">
  <g id="東北地方イラスト" transform="translate(-414.253 -2634.469)">
    <g id="グループ_1972" data-name="グループ 1972" transform="translate(414.448 2634.701)">
      <path id="パス_3826" data-name="パス 3826" d="M427.257,2821.779l.968-21.358-1.36-15.6a16.635,16.635,0,0,0-1.129-4.7l-3.673-8.9a9.373,9.373,0,0,0-2.738-3.681,4.766,4.766,0,0,1-1.769-3.852l.54-16.109a16.42,16.42,0,0,1,.856-4.732l5.278-15.5a1.445,1.445,0,0,0-1.628-1.891l-1.771.314a4.807,4.807,0,0,1-4.159-1.254l-9.664-9.261a1.717,1.717,0,0,0-2.76.533l-7.3,16.294a1.524,1.524,0,0,0,1.45,2.149l5.094-.149a13.464,13.464,0,0,0,4.694-1.017l3.919-1.622a1.755,1.755,0,0,1,2.408,1.381,7.694,7.694,0,0,1-.649,4.309l-3.756,7.88a3.563,3.563,0,0,1-3.061,2.037,4.36,4.36,0,0,1-3.531-1.544l-3.328-3.933a1.629,1.629,0,0,0-2.691.3l-1.491,2.881a3.461,3.461,0,0,1-2.488,1.83,1.494,1.494,0,0,1-1.758-1.412l-.5-15.885a3.879,3.879,0,0,0-2.334-3.4l-5.253-2.247a2.352,2.352,0,0,0-3.126,1.313l-7.107,18.407a3.384,3.384,0,0,1-3.311,2.177l-3.2-.134a6.737,6.737,0,0,0-4.378,1.4l-4.732,3.656a2.832,2.832,0,0,0-.5,3.786,7.537,7.537,0,0,1,1.116,4.5l-.314,4.75a20.146,20.146,0,0,1-.885,4.747l-2.048,6.471a10.375,10.375,0,0,1-2.432,4.079l-.609.632a4.4,4.4,0,0,1-4.074,1.24l-4.292-.922a1.573,1.573,0,0,0-1.877,1.872l.954,4.483a2.849,2.849,0,0,0,2.936,2.254l4.924-.258a2.21,2.21,0,0,1,2.314,2.31l-.352,6.651a10,10,0,0,1-1.349,4.54l-8.614,15-4.8,11.34a14.688,14.688,0,0,1-2.6,4.049L321.1,2847.554l11.752,4.978,5.011,17.09-20.446,11.617.887,3.427s-1.441,3.3-1.783,4.576-8.334,4.274-17.62,3.158-7.313,5.574-11.075,19.63.377,6.264,10.366,8.595,17.341-.835,23.486,2.5,8.6,11.908,11.654,15.86,10.219-1.085,10.219-1.085l6.077,6.06a6.6,6.6,0,0,1,.864-.382l3.487-1.209a4.852,4.852,0,0,0,3.057-3.117l9.2-28.5a15.221,15.221,0,0,0,.7-4.758l-.223-13.4s-4.136,6.3-8.961,5.426-2.423-2.756-4.44-6.247-12.873-7.586-12.873-7.586l-.839-11.257,8.05-11.965,5.122-8.113,9.957-6.389,10.166-1.079s6.43,5.108,10.063,6.494,11.166,5.525,12.783,3.422,5.506-.942,5.506-.942,2.037-2.88,3.833-3.075l5.4-2.493a9.489,9.489,0,0,0,3.667-2.982l6.2-8.376,5.685-11.033A11.14,11.14,0,0,0,427.257,2821.779Z" transform="translate(-286.448 -2714.782)" fill="none" stroke="#284525" stroke-miterlimit="10" stroke-width="0.454"/>
      <path id="パス_3827" data-name="パス 3827" d="M395.744,2855.3c-1.617,2.1-9.15-2.035-12.783-3.422s-10.063-6.494-10.063-6.494l-10.166,1.079h0a3.254,3.254,0,0,1,.03.383,11.745,11.745,0,0,1-.414,2.755c-.375,1.5-1.374,2.72-1.7,4.2-.836,3.692-.116,7.2-1.753,10.858a26.387,26.387,0,0,1-5.17,6.944c-1.671,1.776-2.945,4.14-4.68,5.792-2.068,1.974-5.268,2.632-7.4,4.865a6.012,6.012,0,0,0-1.194,1.928c.024.009,10.857,4.1,12.87,7.585s-.385,5.377,4.44,6.247,8.962-5.426,8.962-5.426a8.459,8.459,0,0,1,1.206-4.52l5.174-8.626a12.743,12.743,0,0,1,3.186-3.576l2.661-2.039a4.715,4.715,0,0,1,4.266-.745l2.606.8c.669.2.279,1.361.941,1.579,5.285,1.739,6.946.017,6.946.017a18.03,18.03,0,0,0,1.173-4.692l.779-6.707a9.324,9.324,0,0,1,1.714-4.4l3.881-5.332S397.361,2853.193,395.744,2855.3Z" transform="translate(-286.448 -2714.782)" fill="#2e5c3d" stroke="#284525" stroke-miterlimit="10" stroke-width="0.454"/>
      <path id="パス_3828" data-name="パス 3828" d="M362.732,2846.461c-.112-.792-.552-1.225-1.71-.487a18.758,18.758,0,0,0-2.586-4.5c-1.593-2.091-2.377-4.53-3.817-6.727-1.5-2.3-3.823-3.6-6.054-5.116-.906-.616-1.759-1.222-2.674-1.818-1.652-1.075-3.067-2.534-4.846-3.4a5.512,5.512,0,0,0-1.425-.473l-1.693,4a14.688,14.688,0,0,1-2.6,4.049l-15.522,16.969a8.5,8.5,0,0,0,2.233,1.982c1.8,1.153,4.573,2.419,4.967,4.67.351,2.04-.629,4.347.652,6.109,1.6,2.184,4.026,2.226,2.927,5.705-.845,2.685-3.737,2.371-5.9,3.4-3.024,1.431-3.113,3.533-3.744,6.36a4.852,4.852,0,0,1-3.527,4.058c-.229.928.574,2.516.887,3.427,1.218,3.565,3.934,3.995,7.064,5.527a21.7,21.7,0,0,1,4.044,2.46c1,.807,1.529,2.13,2.468,2.9,1.947,1.589,4.8-3.026,5.988-4.491,1.6-1.981,1.686-4.677,2.582-6.875a6.012,6.012,0,0,1,1.194-1.928c2.134-2.233,5.334-2.891,7.4-4.865,1.735-1.652,3.009-4.016,4.68-5.792a26.387,26.387,0,0,0,5.17-6.944c1.637-3.657.917-7.166,1.753-10.858.33-1.479,1.329-2.7,1.7-4.2a11.745,11.745,0,0,0,.414-2.755A3.254,3.254,0,0,0,362.732,2846.461Z" transform="translate(-286.448 -2714.782)" fill="#2e5c3d" stroke="#284525" stroke-miterlimit="10" stroke-width="0.454"/>
    </g>
    <path id="パス_3829" data-name="パス 3829" d="M340.671,2885.5c.288-.707.432-2.68.968-3.242,2.134-2.233,5.334-2.891,7.4-4.865,1.735-1.652,3.009-4.016,4.68-5.792a26.387,26.387,0,0,0,5.17-6.944c1.637-3.657.917-7.166,1.753-10.858.33-1.479,1.329-2.7,1.7-4.2a11.745,11.745,0,0,0,.414-2.755c0-.135,2.338-3.923,2.321-4.044" transform="translate(128 -80.081)" fill="none" stroke="#fff" stroke-miterlimit="10" stroke-width="0.454"/>
  </g>
</svg>
