<svg xmlns="http://www.w3.org/2000/svg" width="24.346" height="24.347" viewBox="0 0 24.346 24.347">
  <g id="店舗アイコン" transform="translate(560.274 -674.85)">
    <path id="パス_5187" data-name="パス 5187" d="M-539.069,696.317" transform="translate(-8.81 -8.919)" fill="#fff"/>
    <path id="パス_5188" data-name="パス 5188" d="M-539.069,696.317" transform="translate(-8.81 -8.919)" fill="#fff"/>
    <path id="パス_5189" data-name="パス 5189" d="M-555.344,705.387l-.322-.321a.839.839,0,0,1,0-1.185l5.89-5.89a.218.218,0,0,1,.309,0,.218.218,0,0,1,0,.309l-5.89,5.89a.4.4,0,0,0,0,.567l.322.321a.4.4,0,0,0,.567,0l5.89-5.89a.219.219,0,0,1,.309,0,.219.219,0,0,1,0,.309l-5.89,5.89A.839.839,0,0,1-555.344,705.387Z" transform="translate(-1.813 -9.588)" fill="#fff"/>
    <path id="パス_5190" data-name="パス 5190" d="M-546.924,690.727l-5.811-5.812a4.893,4.893,0,0,1-1.706-3.528,3.572,3.572,0,0,1,1.067-2.416.219.219,0,0,1,.3.008l17.07,17.07a.91.91,0,0,1,0,1.284l-.186.186a.91.91,0,0,1-1.284,0l-6.4-6.4a.218.218,0,0,1,0-.309.218.218,0,0,1,.309,0l6.4,6.4a.472.472,0,0,0,.666,0l.186-.186a.472.472,0,0,0,0-.666l-16.911-16.911a3.176,3.176,0,0,0-.78,1.959,4.488,4.488,0,0,0,1.578,3.2l5.744,5.744,1.478-.06a.219.219,0,0,1,.227.209.218.218,0,0,1-.21.227l-1.574.064A.222.222,0,0,1-546.924,690.727Z" transform="translate(-2.423 -1.689)" fill="#fff"/>
    <path id="パス_5191" data-name="パス 5191" d="M-537.714,685.592a.218.218,0,0,1,0-.309l1.091-1.091.6-2.2a.218.218,0,0,1,.056-.1l3.592-3.592a.218.218,0,0,1,.309,0,.219.219,0,0,1,0,.309l-3.551,3.551-.6,2.2a.22.22,0,0,1-.056.1l-1.132,1.132A.218.218,0,0,1-537.714,685.592Z" transform="translate(-9.347 -1.407)" fill="#fff"/>
    <path id="パス_5192" data-name="パス 5192" d="M-535.68,688.8a.219.219,0,0,1,0-.309l1.132-1.132a.219.219,0,0,1,.1-.057l2.2-.6,3.551-3.551a.219.219,0,0,1,.309,0,.219.219,0,0,1,0,.309l-3.592,3.592a.212.212,0,0,1-.1.057l-2.2.6-1.091,1.091A.219.219,0,0,1-535.68,688.8Z" transform="translate(-10.192 -3.422)" fill="#fff"/>
    <path id="パス_5193" data-name="パス 5193" d="M-533.037,683.9a.219.219,0,0,1,0-.309l3.592-3.592a.219.219,0,0,1,.309,0,.219.219,0,0,1,0,.309l-3.592,3.592A.219.219,0,0,1-533.037,683.9Z" transform="translate(-11.29 -2.11)" fill="#fff"/>
    <path id="パス_5194" data-name="パス 5194" d="M-531.593,685.34a.218.218,0,0,1,0-.309l3.592-3.592a.219.219,0,0,1,.309,0,.218.218,0,0,1,0,.309l-3.592,3.592A.218.218,0,0,1-531.593,685.34Z" transform="translate(-11.89 -2.711)" fill="#fff"/>
    <path id="パス_5195" data-name="パス 5195" d="M-537.4,711.089a11.764,11.764,0,0,1-14.9.138l-.067.067a1.42,1.42,0,0,1-.279.216,12.2,12.2,0,0,0,15.556-.115c-.027-.023-.054-.046-.079-.071Z" transform="translate(-3.171 -15.056)" fill="#fff"/>
    <path id="パス_5196" data-name="パス 5196" d="M-522.683,684.432a11.778,11.778,0,0,1-.079,12.964l.314.314a12.213,12.213,0,0,0,.051-13.636.82.82,0,0,1-.161.233Z" transform="translate(-15.586 -3.832)" fill="#fff"/>
    <path id="パス_5197" data-name="パス 5197" d="M-538.661,676.735l.279-.279c.015-.015.033-.026.049-.039a12.217,12.217,0,0,0-12.842.538l.314.314A11.781,11.781,0,0,1-538.661,676.735Z" transform="translate(-3.78 0)" fill="#fff"/>
    <path id="パス_5198" data-name="パス 5198" d="M-557.761,696.8a11.77,11.77,0,0,1,.286-13.75c0-.089-.012-.178-.009-.268a3.847,3.847,0,0,1,.044-.476,12.2,12.2,0,0,0-.624,14.825,1.478,1.478,0,0,1,.147-.175Z" transform="translate(0 -3.096)" fill="#fff"/>
  </g>
</svg>
