<svg xmlns="http://www.w3.org/2000/svg" width="17.143" height="15.745" viewBox="0 0 17.143 15.745"><g transform="translate(0.5 0.5)"><path d="M559.438,11.255h2.573a1.143,1.143,0,0,1,1.1.817l3,10.028a.508.508,0,0,0,.486.361h6.959" transform="translate(-559.438 -11.255)" fill="none" stroke="#2a4f2c" stroke-linecap="round" stroke-miterlimit="10" stroke-width="1"/><ellipse cx="1.224" cy="1.224" rx="1.224" ry="1.224" transform="translate(5.822 12.296)" fill="none" stroke="#2a4f2c" stroke-linecap="round" stroke-miterlimit="10" stroke-width="1"/><ellipse cx="1.224" cy="1.224" rx="1.224" ry="1.224" transform="translate(12.888 12.296)" fill="none" stroke="#2a4f2c" stroke-linecap="round" stroke-miterlimit="10" stroke-width="1"/><path d="M561.017,11.938h10.451a.5.5,0,0,1,.483.647l-1.658,5.551a.739.739,0,0,1-.706.525h-7.651" transform="translate(-555.834 -9.696)" fill="none" stroke="#2a4f2c" stroke-linecap="round" stroke-miterlimit="10" stroke-width="1"/></g></svg>