<svg xmlns="http://www.w3.org/2000/svg" width="24.347" height="24.347" viewBox="0 0 24.347 24.347">
  <g id="カートアイコン" transform="translate(511.182 -674.85)">
    <path id="パス_5199" data-name="パス 5199" d="M-487.19,683.336l.109-.05a.215.215,0,0,0,.107-.285.207.207,0,0,0-.109-.1.176.176,0,0,0-.038-.011.228.228,0,0,0-.05-.014.222.222,0,0,0-.088.018l-.2.089-1.223.557-1.944,12.087a.415.415,0,0,1-.411.349h-13.3a.416.416,0,0,1-.416-.416.416.416,0,0,1,.416-.414h12.942l.179-1.109-4.462-.72-.038,0h0l-9.054-1.488a.418.418,0,0,1-.347-.368l-.556-5.505a.418.418,0,0,1,.105-.32.415.415,0,0,1,.309-.137h15.421l.371-2.311a.418.418,0,0,1,.238-.312l1.242-.564.105-.048a.216.216,0,0,0,.107-.285.21.21,0,0,0-.108-.1.176.176,0,0,0-.038-.011.219.219,0,0,0-.05-.015.217.217,0,0,0-.089.019l-.231.105-1.116.507a.852.852,0,0,0-.486.636l-.313,1.948h-15.054a.848.848,0,0,0-.628.28.847.847,0,0,0-.214.652l.556,5.505a.851.851,0,0,0,.706.75l8.949,1.457.095.03a.874.874,0,0,0,.123.009h.009l3.96.645-.052.322h-12.575a.847.847,0,0,0-.846.846.847.847,0,0,0,.846.847h13.3a.845.845,0,0,0,.836-.712l1.907-11.858Z" transform="translate(-2.111 -2.909)" fill="#fff"/>
    <path id="パス_5200" data-name="パス 5200" d="M-493.252,715.388a11.711,11.711,0,0,1-3.5-.531,2.321,2.321,0,0,1-.578.249,12.123,12.123,0,0,0,4.073.713,12.123,12.123,0,0,0,4.011-.69,2.294,2.294,0,0,1-.606-.248A11.691,11.691,0,0,1-493.252,715.388Z" transform="translate(-5.757 -16.622)" fill="#fff"/>
    <path id="パス_5201" data-name="パス 5201" d="M-475.176,684.9a.862.862,0,0,1-.312.254l-.033.015a11.656,11.656,0,0,1,1.684,6.028,11.723,11.723,0,0,1-4.857,9.491,2.328,2.328,0,0,1-.168.658,12.16,12.16,0,0,0,5.456-10.148A12.1,12.1,0,0,0-475.176,684.9Z" transform="translate(-13.428 -4.177)" fill="#fff"/>
    <path id="パス_5202" data-name="パス 5202" d="M-510.751,687.024a11.756,11.756,0,0,1,11.742-11.743,11.694,11.694,0,0,1,8.121,3.281l.432-.2a12.133,12.133,0,0,0-8.553-3.515,12.174,12.174,0,0,0-12.173,12.174A12.156,12.156,0,0,0-505.9,697.05a2.305,2.305,0,0,1-.137-.646A11.719,11.719,0,0,1-510.751,687.024Z" fill="#fff"/>
    <path id="パス_5203" data-name="パス 5203" d="M-483.848,708.283a1.846,1.846,0,0,0-1.846,1.846,1.847,1.847,0,0,0,1.846,1.846A1.847,1.847,0,0,0-482,710.13,1.846,1.846,0,0,0-483.848,708.283Zm0,3.262a1.417,1.417,0,0,1-1.415-1.416,1.417,1.417,0,0,1,1.415-1.416,1.417,1.417,0,0,1,1.416,1.416A1.418,1.418,0,0,1-483.848,711.545Z" transform="translate(-10.59 -13.891)" fill="#fff"/>
    <path id="パス_5204" data-name="パス 5204" d="M-497.874,710.13a1.847,1.847,0,0,0-1.847-1.846,1.846,1.846,0,0,0-1.846,1.846,1.847,1.847,0,0,0,1.846,1.846A1.847,1.847,0,0,0-497.874,710.13Zm-1.847,1.416a1.417,1.417,0,0,1-1.415-1.416,1.417,1.417,0,0,1,1.415-1.416,1.417,1.417,0,0,1,1.416,1.416A1.418,1.418,0,0,1-499.721,711.545Z" transform="translate(-3.995 -13.891)" fill="#fff"/>
  </g>
</svg>
