<svg xmlns="http://www.w3.org/2000/svg" width="41.05" height="41.05" viewBox="0 0 41.05 41.05">
  <g id="インスタ" transform="translate(0.496 0.496)">
    <ellipse id="楕円形_18" data-name="楕円形 18" cx="20.029" cy="20.029" rx="20.029" ry="20.029" fill="none" stroke="#1a1a1a" stroke-miterlimit="10" stroke-width="0.992"/>
    <g id="グループ_1991" data-name="グループ 1991" transform="translate(13.46 12.629)">
      <path id="パス_3849" data-name="パス 3849" d="M261.37,4303.678c-1.879,0-2.114.007-2.852.042a5.065,5.065,0,0,0-1.68.321,3.539,3.539,0,0,0-2.023,2.023,5.066,5.066,0,0,0-.321,1.679c-.034.738-.042.974-.042,2.853s.008,2.116.042,2.854a5.06,5.06,0,0,0,.321,1.679,3.538,3.538,0,0,0,2.023,2.024,5.089,5.089,0,0,0,1.68.322c.738.034.973.041,2.852.041s2.115-.007,2.853-.041a5.077,5.077,0,0,0,1.679-.322,3.536,3.536,0,0,0,2.024-2.024,5.06,5.06,0,0,0,.321-1.679c.034-.738.042-.975.042-2.854s-.008-2.115-.042-2.853a5.065,5.065,0,0,0-.321-1.679,3.537,3.537,0,0,0-2.024-2.023,5.054,5.054,0,0,0-1.679-.321c-.738-.035-.973-.042-2.853-.042Zm0,1.246c1.848,0,2.067.008,2.8.041a3.808,3.808,0,0,1,1.285.239,2.291,2.291,0,0,1,1.314,1.313A3.841,3.841,0,0,1,267,4307.8c.033.73.04.949.04,2.8s-.007,2.066-.04,2.8a3.842,3.842,0,0,1-.238,1.285,2.294,2.294,0,0,1-1.314,1.313,3.837,3.837,0,0,1-1.285.238c-.729.033-.948.041-2.8.041s-2.066-.007-2.8-.041a3.848,3.848,0,0,1-1.285-.238,2.3,2.3,0,0,1-1.313-1.313,3.816,3.816,0,0,1-.238-1.285c-.033-.73-.04-.948-.04-2.8s.007-2.065.04-2.8a3.815,3.815,0,0,1,.238-1.284,2.293,2.293,0,0,1,1.313-1.313,3.819,3.819,0,0,1,1.285-.239c.73-.033.949-.041,2.8-.041" transform="translate(-254.451 -4303.678)" fill="#1a1a1a"/>
      <path id="パス_3850" data-name="パス 3850" d="M261.365,4312.9a2.306,2.306,0,1,1,2.307-2.307,2.306,2.306,0,0,1-2.307,2.307Zm0-5.86a3.553,3.553,0,1,0,3.554,3.553,3.553,3.553,0,0,0-3.554-3.553Z" transform="translate(-254.446 -4303.673)" fill="#1a1a1a"/>
      <path id="パス_3851" data-name="パス 3851" d="M265.88,4306.9a.83.83,0,1,1-.83-.831.83.83,0,0,1,.83.831Z" transform="translate(-254.437 -4303.674)" fill="#1a1a1a"/>
    </g>
  </g>
</svg>
