<svg xmlns="http://www.w3.org/2000/svg" width="41.05" height="41.05" viewBox="0 0 41.05 41.05">
  <g id="ツイッター" transform="translate(0.496 0.496)">
    <ellipse id="楕円形_19" data-name="楕円形 19" cx="20.029" cy="20.029" rx="20.029" ry="20.029" fill="none" stroke="#1a1a1a" stroke-miterlimit="10" stroke-width="0.992"/>
    <g id="グループ_1993" data-name="グループ 1993" transform="translate(12.846 13.16)">
      <path id="パス_3852" data-name="パス 3852" d="M324.889,4316.984a9.113,9.113,0,0,0,9.176-9.175q0-.211-.009-.418a6.559,6.559,0,0,0,1.608-1.669,6.469,6.469,0,0,1-1.852.508,3.239,3.239,0,0,0,1.418-1.785,6.461,6.461,0,0,1-2.048.784,3.228,3.228,0,0,0-5.5,2.941,9.156,9.156,0,0,1-6.648-3.37,3.229,3.229,0,0,0,1,4.306,3.209,3.209,0,0,1-1.461-.4v.041a3.225,3.225,0,0,0,2.587,3.162,3.209,3.209,0,0,1-.85.113,3.177,3.177,0,0,1-.606-.058,3.228,3.228,0,0,0,3.013,2.24,6.476,6.476,0,0,1-4.006,1.381,6.663,6.663,0,0,1-.769-.045,9.133,9.133,0,0,0,4.943,1.448" transform="translate(-319.946 -4304.208)" fill="#1a1a1a"/>
    </g>
  </g>
</svg>
