<svg id="logo_平田牧場ヘッダー" xmlns="http://www.w3.org/2000/svg" width="180.716" height="41.913" viewBox="0 0 180.716 41.913">
  <g id="グループ_90" data-name="グループ 90">
    <g id="グループ_89" data-name="グループ 89">
      <g id="グループ_88" data-name="グループ 88">
        <g id="グループ_87" data-name="グループ 87" transform="translate(7.853 7.367)">
          <g id="グループ_78" data-name="グループ 78" transform="translate(0.203 0.155)">
            <path id="パス_91" data-name="パス 91" d="M-1872.6-524.285l-.022.228v.22l-.035.215-.049.215-.026.215-.041.215-.1.2-.021.219-.038.216-.073.206-.1.2-.052.211-.062.208-.094.2-.047.215-.1.2-.066.208-.1.194-.105.175-.13-.154-.141-.162-.115-.181-.118-.179-.075-.2-.121-.177-.1-.19-.078-.2-.139-.17-.092-.193-.034-.217-.112-.186-.056-.206-.044-.211-.1-.191-.016-.217-.1-.195-.008-.206.084-.182.065-.173.114-.151.223.028.221-.038.221,0,.221.02.22.02.221-.033.221.023.221.01.223,0,.222-.02Zm-5.477,2.714.01-.21-.026-.2,0-.2.013-.2-.013-.2-.006-.2.057-.2-.034-.2-.022-.2.011-.2.038-.2-.017-.2-.008-.211.2.016.2-.033.2.014.2-.022.2.012.2.035.2-.023.2-.023.247-.062-.061.222-.122.17-.075.191-.1.179-.118.168-.056.2-.1.179-.151.148-.079.192-.125.163-.132.158-.083.178.112.187.184-.153.2-.091.155-.144.143-.159.174-.123.173-.122.129-.173.153-.145.163-.136.135-.131.044.182.009.213.025.211.044.208.062.2.077.2.04.207.044.208.023.213.1.192.061.2.053.2.066.2.066.2.108.184.048.21.091.191.112.181.069.2.1.184.083.177-.06.2-.134.17-.134.167-.119.179-.113.183-.125.175-.16.144-.151.153-.113.185-.143.16-.171.131-.127.177-.15.152-.169.132-.14.165-.185.112-.155.148-.157.145-.145.16-.2.1-.167.134-.162.142.01.019.16.275.02-.042.206-.047.177-.113.205-.051.187-.093.162-.137.2-.071.184-.095.161-.135.183-.1.177-.107.168-.122.174-.113.149-.149.174-.115.186-.1.146-.151.137-.16.187-.1.138-.158.136-.157.165-.132.125-.143.146.141.137.172.154.154.108.194.17.14.132.175.139.168.171.137.178.131.166.141.158.151.155.156.179.125.207.085.17.134.171.137.19.1.05,0,.034,0,.069-.21.082-.208.143-.172.153-.16.152-.16.167-.145.188-.12.219-.045,0-.025.032-.286-.022,0,.017-.051-.193-.078-.19-.089-.2-.073-.187-.093-.189-.09-.188-.09-.176-.115-.175-.116-.2-.074-.144-.163-.206-.069-.14-.165-.195-.09-.164-.132-.161-.134-.128-.172-.169-.129-.171-.137.115-.195.114-.184.094-.195.129-.179.112-.186.07-.207.074-.205.134-.177.036-.222.1-.191.065-.207.072-.206.079-.2.06-.208.068-.206.085-.2.1-.2.058-.21.015-.22.092-.2.018-.229.224-.05.193-.08.129-.175-.12-.207-.225-.058-.232-.077-.237-.072-.234-.1.238.02.228-.016.229-.026.229.032.229.02.229-.054.191.03.156-.114.05-.176-.024-.181-.146-.114-.129-.193-.18-.139-.187-.132-.172-.149-.15-.171-.179-.143-.162-.158-.265-.16-.214.2-.138.171-.138.17-.093.2-.165.155-.1.205-.221-.015-.214,0-.213.014-.214-.019h-.214l-.213.034-.215-.006-.214,0-.214.006-.214-.013-.221,0,.08-.22.133-.172.056-.21.123-.177.082-.2.079-.2.1-.19.046-.213.08-.2.1-.19v.01l.217-.075.2-.082.109-.172-.057-.165-.151-.1-.186-.016-.194-.082-.195-.078-.207-.034-.191-.094-.2-.065-.212-.026-.2-.077-.2-.068-.027.029-.036.011,0,.218-.042.214-.023.215-.021.216-.065.209-.034.214-.077.2-.015.219-.072.207-.065.206-.039.215-.058.209-.083.2-.023.221-.087.2-.088.193-.126-.131-.136-.186-.176-.146-.151-.172-.148-.172-.155-.169-.227-.153-.217.177-.108.16-.084.178-.1.167-.118.172-.258-.007.03-.231-.034-.217.035-.217-.01-.217,0-.217v-.652l.009-.217-.015-.218.223-.074.207-.117.1-.216-.141-.206-.246-.039-.205-.049-.214.018-.209-.03-.2-.06-.21-.022-.212,0-.208-.035-.211-.056.035.084.022.222-.016.223.024.22-.022.221.043.221-.015.222.023.223-.05.2.046.2.005.2-.04.2.036.2-.031.2.029.222-.253-.025-.239,0-.239-.008-.237.013.088-.193.01-.218.095-.2.023-.214.022-.214.046-.133.208-.044.176-.11.073-.186-.129-.207-.257-.047-.188-.074-.19-.047-.193-.044-.2-.01-.192-.054-.2-.031-.188-.062-.021.016-.04.014.013.217-.029.215.039.217-.036.214-.013.215-.005.216-.014.215-.013.214-.042.212-.022.215-.018.214-.034.213-.046.21-.066.207-.036.212-.033.21,0,.217-.041.211-.07.206-.039.211-.057.208-.02.215-.06.209-.049.21.012.093.275.141v-.054l.129-.17.144-.161.071-.207.117-.18.119-.179.062-.208.134-.172.048-.212.122-.179.05-.212.11-.186.056-.207.082-.178.187.007.194-.056.193.056.2-.057.195.03.177.013.009.2-.017.215.03.217.025.215,0,.217-.038.215-.011.217.055.216-.06.217.034.216,0,.217-.022.216,0,.218.022.218-.206.029-.2.047-.2.032-.2.064-.2.027-.2.032-.2.049-.2.06-.2.013-.2.056-.2.023-.207,0-.207.01-.007.013.032.21.1.2.079.2.034.217.095.195.066.207.074.2.058.21.133.2.181.124.178-.065.035-.194.065-.177.153-.1.2-.075.2-.07.183-.11.216-.033.189-.091.174-.127.224-.08-.051.232.025.222.024.223-.044.224.048.222-.041.224.03.224.008.224-.053.21.013.21-.019.21v.21l.038.21-.035.21.042.212-.052.21v.209l.044.238-.006.195.054.189.185.063h.2l.21.035.214-.008.207-.054.19-.1.17-.127.06-.2.022-.21-.014-.226.014-.229-.034-.225,0-.228.023-.228-.023-.227-.022-.235.044-.235-.062-.232.036-.235-.029-.209.021-.208.01-.211-.005-.208.026-.21-.041-.21.013-.208.02-.211-.053-.21.034-.21.174-.11.186-.1.193-.083.166-.131.2-.062.171-.122.165-.129.195-.079.164-.129.188-.094.167-.124.03-.035-.158-.267-.173.072-.215.027-.2.09-.211.04-.205.065-.212.047-.218.026-.209.053Z" transform="translate(1882.212 528.088)" fill="#2a4f2c"/>
          </g>
          <g id="グループ_81" data-name="グループ 81" transform="translate(0 14.572)">
            <g id="グループ_79" data-name="グループ 79" transform="translate(3.085)">
              <path id="パス_92" data-name="パス 92" d="M-1868.755-501.888l-.134-.145-.125-.156-.177-.1-.14-.139-.136-.145-.142-.14-.158-.125-.224-.111.006-.217-.027-.2-.009-.2.04-.2,0-.2-.025-.238,0-.24,0-.238-.033-.214v-.215l.022-.215-.009-.214.007-.215,0-.215.058-.013.166-.14.167-.132.1-.184-.147-.241-.075-.04-.178-.128-.165-.145-.16-.151-.166-.143-.144-.172-.144-.082-.156-.044-.221.136-.135.2-.17.171-.14.212-.219-.01h-.206l-.207-.034-.2.027-.206,0h-.2l-.208.025-.206-.049-.206.026-.2-.037-.209.019-.2.037-.207-.05-.206.019-.2-.014-.209-.039-.185-.111-.2-.084-.2-.082-.2-.066-.214-.035-.19-.1-.2-.075.008.048-.022.2.017.2.048.2-.006.2-.028.2.032.2-.021.2.014.2.015.2-.022.2-.007.2-.01.2.018.2-.026.2v.2l.031.2,0,.2.009.2-.022.2.015.2-.027.212-.043.21.036.213.041.229.189.117.226.068h.2l.191-.061.188-.042.192-.045.136-.137.091-.17.208,0,.209.008.207-.03.207.016h.207l.209-.011h.207l.206.023.208.018.207-.02.209.024.206-.041.208.036.208,0,.209.008h.2l.059.2.167.155.238-.018.2.013.2-.006.187-.077.167-.051-.076.171-.138.132-.087.174-.139.131-.213.03-.216-.025h-.216l-.214.024-.216-.019-.216-.031-.216.034-.216-.015-.215.026-.216,0-.216-.049-.216.007-.216.044-.216-.011-.215-.025-.216.012-.216-.012-.217-.009-.214.006-.217.016-.216-.033-.216.02-.216.016-.217,0-.217-.013-.217-.018-.217.011-.214-.008-.216-.023-.218.036-.214-.04-.093-.008.054.208.072.2.094.193.071.2,0,.024.02-.015.205-.011.209-.013.2-.034.209.03.208-.03.231.025.237-.018-.1.2-.078.194-.072.2-.072.2-.138.165-.107.18-.074.2-.128.169-.146.155-.13.165-.1.189-.154.148-.14.157-.115.18-.142.156-.138.16-.137.164-.136.163-.168.133-.132.171-.049.023.178.233.038,0,.01-.02.191-.085.2-.063.157-.148.181-.1.206-.064.165-.129.185-.1.168-.126.17-.122.134-.167.2-.09.146-.151.145-.151.121-.172.176-.124.095-.193.156-.122.183-.028.187,0,.194-.006-.122.194-.092.192-.11.182-.11.182-.117.179-.118.177-.127.173-.134.166-.139.16-.181.125-.116.182-.147.155-.172.132-.167.132-.127.177-.177.123-.165.133-.144.161-.173.126-.173.127-.173.126-.021.049.2.255.036,0,.2-.071.189-.1.188-.1.19-.1.169-.134.192-.1.2-.077.156-.153.177-.116.193-.1.158-.148.183-.113.143-.163.151-.151.154-.146.173-.131.161-.141.143-.162.128-.17.131-.169.144-.159.126-.172.121-.174.11-.184.1-.189.117-.2.2.013.19.008.19-.019.182.047-.085.163-.065.2-.074.2-.112.18-.1.186-.118.176-.1.186-.134.165-.141.158-.111.18-.155.143-.137.159-.115.179-.153.147-.164.132-.115.184-.163.134-.179.115-.131.17-.179.118-.168.126-.172.122-.155.141-.179.114-.142.163-.177.115-.184.106-.158.141-.022,0,.052.151.109.12-.008-.016.2-.062.205-.06.2-.079.21-.049.192-.1.177-.125.209-.057.194-.093.167-.138.182-.109.191-.1.16-.141.191-.1.161-.139.165-.133,0,.039.209.044.2.076.207.061.18.115.181.113.165.14.066.206.111.189-.016.218.042.21-.011.039.035-.035.214,0,.216.023.207-.073.218.027.2-.073.212-.031.181-.12.187-.093.163-.135.156-.148.107-.184.1-.189.064-.2.095-.191.047-.207.031-.212.071-.2.047-.208-.008-.217.027-.211.08-.2-.006-.215.043-.209.023-.212.007-.214.032-.21v-.215l.056-.194.2-.1.165-.167.128-.179-.095-.156-.1-.161-.164-.118-.15-.134-.172-.109-.13-.16-.154-.131-.169-.115-.036-.039-.174-.061-.178.115-.138.13-.1.156-.114.149-.087.175-.212.01-.207.006-.206-.042-.207-.008h-.207l-.207.01-.207-.006-.207.021h-.206l-.207.016-.206-.013-.207.025-.207-.037-.207.007-.207.031-.208-.036-.207.008-.208.011-.215.006.146-.163.089-.176.074-.184.11-.162.095-.188.219.036.212-.039h.214l.211.032.214-.027.212.006.215.037.213-.044.212.049h.213l.213-.056.214.053.214-.042.214.022.214-.039.212.043.214.009.213,0,.213-.037.215.008.212.01.216.008.214.011.214,0,.188-.052.162-.087.084-.159-.053-.178Zm-2.682-4.317-.011.24-.029.232.046.231-.01.238-.213-.009-.208-.008-.206.014-.207.017-.207-.015-.206.023-.207,0-.207-.045-.208,0-.206.018-.208-.006-.208-.006-.208.032h-.206l-.208-.023-.216.007.007-.236,0-.232.022-.232-.025-.238h.216l.206.011.207,0,.207-.018.208-.017h.207l.207.009h.207l.206.036.209-.015.207-.006.208,0,.207-.021.208.025.207-.027Zm0,1.635-.011.205-.029.2.046.2-.008.2-.012.192-.2-.008-.208.015-.206.015-.207-.015-.207.023-.206,0-.207-.046-.207,0-.208.018-.206,0-.208-.007-.208.034h-.208l-.206-.023-.208.01-.209-.008,0-.2.022-.2-.027-.2v-.2l.012-.192.2,0,.206-.018.207-.018h.207l.208.009.207,0,.207.037.207-.016.206,0,.209-.006.207-.02.208.027.207-.029.208.013.207,0Zm.793,4.839-.035.205-.047.2.025.21-.027.206-.037.206-.033.205-.013.208-.015.208-.05.2-.018.208-.043.2-.1.188-.087.187-.144.145-.206.046-.211.006-.228.027-.226-.01-.226-.032h-.228l-.228-.016-.23-.008.174-.139.136-.174.153-.158.152-.155.145-.166.12-.183.117-.186.127-.177.129-.176.118-.184.142-.168.1-.2.1-.2.093-.2.079-.205.115-.184.2-.03.2.014Z" transform="translate(1878.111 507.596)" fill="#2a4f2c"/>
            </g>
            <g id="グループ_80" data-name="グループ 80" transform="translate(0 0.087)">
              <path id="パス_93" data-name="パス 93" d="M-1878.171-500.046l-.206.106-.206.071-.21.061-.212.048-.194.1-.2.032-.019-.2-.012-.209.03-.208.011-.209-.007-.209.007-.209-.048-.21.052-.209-.052-.209.029-.208.008-.21-.015-.209-.02-.209.04-.211-.031-.209.041-.21-.038-.223.223-.005.213.028.211.013.213-.055.213,0,.212.046.18-.067.173-.046.1-.163-.154-.281-.124-.165-.173-.121-.123-.168-.161-.132-.126-.167-.255-.143-.179.186-.166.152-.1.2-.126.176-.072.017.047-.219-.04-.21.05-.211-.042-.21,0-.211.017-.211v-.421l.006-.212.015-.211-.039-.212.023-.212,0-.209.193-.091.191-.106.108-.185-.129-.178-.212-.091-.048-.029-.2,0-.2-.014-.2-.025-.2-.05-.205.036-.2-.029-.2-.018-.194-.067-.03.025-.009.029.044.2-.018.209.016.206,0,.207.029.206-.034.207.035.206v.208l.007.208-.023.209-.015.208v.208l.011.209.016.209-.04.208.014.21.024.214-.238.013-.224-.04-.225.013-.222.023-.223-.026-.223-.035-.223-.016-.051.007.059.193.1.179.082.186.041.2.023,0,.012-.008.224.015.223-.018.224.035.223-.05.224.032.183,0,.025.206-.03.208-.007.209,0,.208.03.209-.043.208.005.208.054.208-.01.208.006.208-.026.208.008.209v.208l-.037.209.009.209.021.208.009.208-.02.211.019.211-.2.045-.193.059-.2.037-.2.02-.2.016-.194.053-.2.017-.2.031-.029-.005.1.2.061.219.085.208.088.207.1.2.081.212.1.2.072.214.019.055.109.187.162.1.147-.1.059-.182.056-.178.154-.14.177-.125.175-.129.2-.091.176-.129.176-.125.187-.114.193-.1.158-.158.178-.1.159-.128.171-.112L-1879-499l.185-.092.151-.138.174-.109.16-.126.151-.137.162-.152-.113-.133Z" transform="translate(1882.5 507.473)" fill="#2a4f2c"/>
            </g>
          </g>
          <g id="グループ_85" data-name="グループ 85" transform="translate(13.148)">
            <g id="グループ_82" data-name="グループ 82" transform="translate(8.127 2.477)">
              <path id="パス_94" data-name="パス 94" d="M-1848.812-523.96l-.168-.123-.209-.042-.16-.14-.185-.089-.2-.053-.178-.1-.167-.126-.19-.081-.193-.072.008.027-.083.2-.041.213-.042.214-.08.2-.1.194-.036.219-.112.189-.061.211-.114.187-.092.2-.068.208-.073.207-.124.181-.1.191-.071.208-.092.2-.12.183-.087.2-.132.177-.126.181-.013.041.234.187.02.031.027-.022.181-.113.158-.142.189-.1.16-.138.147-.156.17-.124.154-.145.149-.152.155-.142.168-.131.156-.142.151-.149.144-.155.1-.2.147-.153.165-.137.143-.155.112-.182.127-.176.2-.015.188-.024.163-.063.079-.15-.053-.171-.15-.107Z" transform="translate(1852.228 524.789)" fill="#2a4f2c"/>
            </g>
            <g id="グループ_83" data-name="グループ 83" transform="translate(1.195 2.637)">
              <path id="パス_95" data-name="パス 95" d="M-1860-520.563l.188-.038.188-.055.162-.111.166-.114.108-.173.058-.2.051-.194.022-.2-.052-.207-.038-.2-.044-.2-.085-.191-.119-.172-.1-.185-.111-.179-.13-.163-.183-.115-.135-.161-.145-.154-.181-.108-.163-.131-.186-.1-.166-.13-.174-.117-.188-.091-.184-.1-.18-.108-.192-.077-.036-.026-.242.214.058.06.106.187.1.19.118.18.114.181.08.2.1.187.131.177.072.2.093.193.088.2.079.2.022.22.106.192.054.21.034.2.051.193.109.171.084.179.1.176.186.085Z" transform="translate(1862.092 524.561)" fill="#2a4f2c"/>
            </g>
            <g id="グループ_84" data-name="グループ 84">
              <path id="パス_96" data-name="パス 96" d="M-1850.9-520.8l-.127-.17-.159-.135-.137-.159-.157-.136-.184-.11-.121-.176-.16-.138-.14-.157-.278-.127-.263.161-.093.217-.145.183-.122.2-.15.182-.121.186-.192.007-.206.029-.205,0-.207.019-.2-.053-.206.037-.206-.011-.2.008-.207,0-.2-.008-.206-.027-.2,0-.207.005-.207.04-.205-.024-.189-.016-.045-.192.051-.209-.041-.209-.009-.211.042-.21-.04-.209.053-.208-.047-.211.016-.21-.016-.209.009-.21.019-.211,0-.209.016-.21-.012-.21v-.21l-.026-.21v-.209l.008-.211.024-.21-.035-.21.007-.211.025-.21.007-.209-.036-.212.005-.221.221,0,.213.044.211-.028.212.01.213-.023.212.007.211.013.213-.019.211.025.212-.043.213.055.211-.008.213-.014.212,0,.212,0,.212-.015.213.018.211-.022.213-.011h.213l.213.023.213-.014.185-.045.15-.1.077-.167-.032-.2-.128-.155-.171-.118-.165-.124-.139-.155-.17-.121-.124-.168-.166-.125-.167-.125-.142-.153-.256-.126-.24.128-.132.188-.135.189-.092.214-.122.2-.141.189-.216-.039-.208.052-.21-.015-.21-.017-.209.008-.209.024-.21.009-.21-.052-.211.033-.211.015-.21-.034-.21-.005-.21.024-.211-.019-.21.005-.209.03-.211-.038-.21.022-.211-.011-.21.009-.211-.036-.209.035-.212.016-.209-.031-.212.037-.209-.023-.211-.013-.211,0-.211.011-.211.008-.211-.013h-.211l-.212.018-.211.011-.211-.041-.212.021-.212.023-.224-.018-.224-.028-.224.022-.224-.014-.222-.033-.22-.037-.077.029.082.225.1.216.039.234.064.224.026.028.03-.035.21.013.2-.062.211.045.206-.01.2-.062.217.057.215,0,.217-.043.215.043.216-.047.216.054.216-.016.216-.035.215.033.216-.031.216.021.215,0,.217-.015.216-.015.217.054.217-.055.218.023-.026.209.029.211-.031.21.018.208.015.211.022.208-.038.21v.21l.018.209-.009.21-.009.209-.012.211-.006.21,0,.21.049.211-.042.21.034.208,0,.211-.007.21.018.21-.027.21-.026.211.043.21-.033.211v.211l.025.216-.216,0-.214-.015-.213.04-.211-.041h-.213l-.213-.016-.213,0-.214.035-.211-.017-.214-.021-.211.033-.214.018-.213-.009-.212-.007-.214-.015h-.213l-.213.006-.213-.028-.215.008-.214-.009-.225.036-.225.016-.223-.023-.223-.023-.222-.013-.223,0-.058-.014.1.211.06.225.071.22.075.219-.008.025.022,0,.207-.022.207,0,.205-.012.209.019.206-.055.213.045.214-.051.217.041.213.019.214-.028.216-.009.214-.014.214.026.216-.011.215.032.214-.033.215-.008.215-.013.215.034.216.021.214,0,.215-.052.215.022.214-.019.233.009,0,.238-.033.222.007.223,0,.221.031.224-.024.222.015.223.009.223-.033.223.034.217-.032.216-.013.217.035.218,0,.218-.014.216-.007.218-.021.216.036.217-.048.216.009.211.123.173.188.088.208.019.216-.035.214-.016.214-.028.216-.04.172-.139.086-.2.045-.211,0-.2-.015-.2-.012-.2-.03-.214,0-.216.037-.216-.028-.215.009-.215-.013-.216v-.213l.027-.209-.03-.208v-.21l.031-.208-.045-.21.023-.209v-.209l.019-.21-.026-.218.218.039.207,0,.207-.039.21.011.207-.024.209.028.207-.031.209.029.209.013.209-.005.207.016.209,0,.209-.037.208.035.208-.005.209,0,.208-.033h.208l.208.022.207-.015.21-.014.209.028.209-.021.209.025.209.006.209.015.194-.061.179-.1.044-.2-.059-.182Z" transform="translate(1863.793 528.309)" fill="#2a4f2c"/>
            </g>
          </g>
          <g id="グループ_86" data-name="グループ 86" transform="translate(14.229 14.802)">
            <path id="パス_97" data-name="パス 97" d="M-1851.2-506.359l-.159-.155-.185-.117-.149-.165-.191-.111-.169-.139-.165-.146-.264-.077-.277.117-.082.17-.105.155-.106.156-.107.141-.2.025h-.209l-.209.016-.209-.037-.209.033-.21-.018-.209-.009-.21-.008-.207.032-.209-.013-.21.011-.209.013-.209-.051-.209.04-.209-.015-.209.034-.21-.034-.21.033-.21-.039-.209-.011-.209.034-.21-.025-.209-.008h-.21l-.211-.008-.208.03-.21-.018-.209.036-.209-.027-.21-.017-.21,0-.211.037-.21-.034-.21.02-.208-.013-.182-.08-.2-.067-.195-.063-.192-.072-.19-.075-.186-.087-.2-.049-.176-.111-.207-.039-.04-.052-.009.058.068.218-.036.227.036.222.026.224-.036.226.032.223.012.225-.029.225.025.212.006.213v.213l-.014.212,0,.212-.02.212.041.215v.214l0,.212-.061.213.052.213-.029.213.016.212-.007.214.01.213-.037.213.031.213-.036.214.011.213.03.215-.022.212,0,.214,0,.215,0,.213.044.212,0,.214-.049.215,0,.212.039.213-.036.215,0,.213.032.215.02.214-.047.214-.008.214.011.215-.014.215.025.235,0,.234,0,.236v.236l-.053.241.025.241-.032.241.021.2.146.13.176.077.2.037.222-.039.223-.018.219-.033.2-.1.19-.119.035-.225-.006-.22.041-.165-.031-.189.233.027.214.023.212-.023.214.028.214-.02.214-.006.214.006.215-.011.213,0,.214-.033.212.06.214-.028.214.007.215.015.212-.018.215-.025.214.032.214.006.215-.023.214-.02.215.042.212-.02h.431l.213.028.214-.034.215-.023.213.006.213.02.216.029.214-.013.214,0,.216-.022.216.023.225-.022,0,.21-.02.2-.019.2.09.179.107.137.169.1.2,0,.2.01.2-.007.189-.072.195-.037.18-.094.1-.174.062-.192-.042-.2.02-.2-.039-.2.009-.2-.013-.2.007-.2v-.2l.008-.2-.02-.2.013-.213.018-.21-.037-.212.023-.212.02-.21-.037-.212v-.213l.029-.21-.051-.213.061-.212-.061-.211.044-.212-.03-.213v-.213l.029-.212.011-.212-.03-.212.037-.213-.017-.212-.015-.212.021-.212,0-.214-.037-.211.02-.212v-.213l.006-.212,0-.212-.025-.211,0-.214,0-.213.042-.212-.026-.213.016-.213-.009-.213-.022-.213.014-.215.185-.087.146-.141.155-.13.063-.19-.084-.2Zm-1.875,5.241-.017.229.022.216-.037.217.029.217-.005.217-.013.217.038.217-.055.217.025.217,0,.216v.216l-.014.218.027.215,0,.217.018.217-.037.217.032.219-.018.217-.21-.011-.213-.008-.213.032-.213-.013-.211.011-.213.011-.213-.049-.213.041-.212-.017-.213.033-.214-.033-.212.033-.214-.04-.2,0-.029-.2.025-.217.009-.216v-.217l.01-.216-.032-.217.018-.217-.034-.217.028-.215.017-.216v-.217l-.037-.217.036-.217-.019-.217.011-.217.008-.217-.012-.217-.016-.219.213-.006.213,0,.212.012.212-.03.214.037.212-.042.212.039.211.011.214-.044.214.052.212-.024.214-.019.214.039Zm0-4.655-.017.228.022.217-.037.217.029.216-.005.218-.013.216.038.217-.055.216.025.217,0,.215v.217l-.014.217.027.216,0,.217.018.217-.037.217.032.218-.018.216-.21-.011-.213-.007-.213.032-.213-.013-.211.012-.213.012-.213-.048-.213.038-.212-.015-.213.034-.214-.033-.212.032-.214-.039-.2,0-.029-.2.025-.216.009-.216v-.218l.01-.215-.032-.218.018-.215-.034-.217.028-.216.017-.217v-.217l-.037-.217.036-.217-.019-.217.011-.216.008-.219-.012-.218-.016-.217.213-.006.213,0,.212.013.212-.03.214.038.212-.043.212.039.211.011.214-.045.214.052.212-.023.214-.018.214.039Zm-4.515,0-.019.228.023.217-.039.217.031.216-.006.218-.014.216.038.217-.056.216.026.217,0,.215v.217l-.013.217.027.216,0,.217.018.217-.036.217.032.218-.016.216-.212-.011-.214-.007-.211.032-.213-.013-.212.012-.212.012-.212-.048-.212.038-.213-.015-.213.034-.213-.033-.212.032-.214-.039-.2,0-.03-.2.026-.216.008-.216v-.218l.01-.215-.032-.218.019-.215-.035-.217.027-.216.018-.217,0-.217-.038-.217.037-.217-.022-.217.013-.216.006-.219-.01-.218-.015-.217.213-.006.213,0,.211.013.213-.03.212.038.213-.043.212.039.212.011.212-.045.214.052.212-.023.214-.018.213.039Zm0,4.655-.019.229.023.216-.039.217.031.217-.006.217-.014.217.038.217-.056.217.026.217,0,.216v.216l-.013.218.027.215,0,.217.018.217-.036.217.032.219-.016.217-.212-.011-.214-.008-.211.032-.213-.013-.212.011-.212.011-.212-.049-.212.041-.213-.017-.213.033-.213-.033-.212.033-.214-.04-.2,0-.03-.2.026-.217.008-.216v-.217l.01-.216-.032-.217.019-.217-.035-.217.027-.215.018-.216,0-.217-.038-.217.037-.217-.022-.217.013-.217.006-.217-.01-.217-.015-.219.213-.006.213,0,.211.012.213-.03.212.037.213-.042.212.039.212.011.212-.044.214.052.212-.024.214-.019.213.039Z" transform="translate(1862.254 507.27)" fill="#2a4f2c"/>
          </g>
        </g>
        <path id="パス_98" data-name="パス 98" d="M-1872.745-538.669l-.211-.021-.212-.015-.214-.064-.209.079-.211,0-.214-.02h-.212l-.212,0-.207.082-.217-.055-.209.035-.205.075-.217-.028-.207.05-.214,0-.191.156h-.213l-.217,0-.2.052-.2.075-.2.057-.222-.026-.214.013-.19.119-.2.058-.223-.014-.186.121-.2.068-.214.023-.186.113-.225-.009-.194.089-.2.079-.179.128-.234-.024-.2.069-.191.092-.165.158-.223.013-.165.155-.224.015-.166.144-.228.012-.19.094-.148.177-.218.039-.195.082-.157.158-.2.077-.191.089-.177.116-.194.091-.151.16-.2.081-.221.044-.158.146-.145.166-.232.034-.156.148-.155.146-.2.077-.175.12-.127.186-.173.124-.142.158-.224.06-.126.179-.2.1-.188.106-.136.167-.13.175-.152.146-.18.117-.19.106-.148.152-.082.222-.176.121-.185.116-.132.165-.11.188-.211.093-.12.179-.1.193-.174.127-.16.143-.12.177-.116.179-.12.173-.191.12-.068.215-.16.145-.079.2-.221.1-.116.177-.132.167-.09.195-.121.174-.107.184-.1.19-.136.163-.128.17-.032.229-.207.125v.244l-.193.134-.021.231-.1.186-.1.186-.181.145-.063.205-.052.21-.091.192-.1.184-.063.2-.141.169-.11.185-.029.216-.043.21-.168.162.023.235-.118.181-.04.21-.058.2-.081.2-.042.208-.062.2-.1.191-.126.185-.053.205.029.227-.129.186.029.224-.029.21-.056.2-.136.187-.02.213.047.224-.047.206-.031.21-.072.2-.088.2v.214l.025.217-.087.2-.063.208.089.22-.12.2.032.215,0,.213-.069.208.091.217-.116.208.033.213.056.213.016.212-.051.212.035.211-.009.212-.034.213.081.208-.025.213-.023.215.086.2-.078.221.092.2-.011.214.018.212.054.206-.009.216.03.21.1.2.022.211.05.207.046.206.016.212.048.205.064.2-.034.224.131.187-.022.223.068.2.074.2.021.215.134.181.066.2.013.218.048.208.129.18.075.2.041.209.065.2.046.21.161.164.034.215.048.21.132.173.023.222.079.2.157.16.057.209.082.2.171.15.023.226.152.158.085.2.127.171.134.167.061.21.126.171.06.212.168.144.081.2.1.191.151.153.125.172.086.2.2.118.1.191.1.193.171.135.09.2.18.127.125.172.122.174.136.161.117.179.145.155.138.161.182.12.154.144.144.153.142.158.1.2.2.1.1.2.167.132.164.135.155.144.16.141.157.142.15.15.182.112.14.162.161.14.174.121.176.119.193.1.144.162.221.053.167.129.134.179.178.115.205.07.169.13.145.167.228.035.181.108.148.164.2.086.155.155.224.034.17.13.209.058.141.186.229.013.2.083.158.161.222.025.167.144.224.016.17.139.195.089.19.091.207.054.18.123.229-.01.171.152.217.019.216.016.193.1.187.109.208.048.211.023.2.072.217,0,.19.113.2.061.206.055.221-.023.2.065.212.019.2.08.219-.02.193.136h.213l.2.077.222-.066.2.077.211.023.214,0,.21.008h.213l.208.051.211,0,.213-.013.211.018.21.029.211.065.211,0,.214-.009.212-.076.211,0,.213.051.212-.012.214.016.207-.06.214.02.211-.008.2-.11.221.089.2-.112.212,0,.221.042.2-.119.214,0,.214,0,.2-.112.224.056.191-.127.223.038.193-.117.221.026.2-.086.219,0,.208-.043.177-.16.233.05.173-.168.219,0,.214-.023.193-.092.213-.033.181-.126.182-.12.2-.064.226,0,.2-.058.155-.182.242.032.17-.145.2-.08.211-.046.189-.1.173-.129.207-.059.187-.1.2-.072.169-.139.2-.076.192-.093.169-.128.158-.152.2-.076.15-.159.185-.1.2-.079.195-.089.129-.189.219-.051.145-.163.163-.136.217-.06.141-.166.176-.116.163-.136.183-.108.122-.187.189-.1.182-.113.119-.186.219-.071.11-.2.165-.133.172-.124.114-.191.228-.067.141-.16.091-.208.143-.156.224-.079.108-.189.108-.186.209-.1.068-.222.2-.108.094-.2.122-.172.212-.1.109-.186.157-.146.126-.17.064-.218.176-.133.051-.224.2-.116.117-.178.04-.229.14-.161.152-.151.083-.2.087-.195.176-.139.129-.172.084-.2.07-.2.131-.169.072-.2.119-.175.073-.2.128-.174.039-.216.092-.19.138-.17.054-.209.056-.205.169-.158-.023-.239.151-.168.025-.217.11-.184.093-.192.059-.2.118-.184-.011-.227.089-.194.1-.19-.044-.234.125-.184.025-.214.056-.2.088-.2-.018-.222.137-.185.005-.216,0-.217.111-.193,0-.215.1-.2.028-.209.048-.207-.076-.226.025-.209.1-.2-.041-.217.058-.206v-.213l.032-.209.071-.208.005-.211,0-.213.035-.21-.069-.215.094-.21-.092-.213.018-.212.076-.212-.082-.211-.013-.211.016-.212-.046-.21.022-.213,0-.212.022-.215-.091-.205.063-.219-.053-.206-.036-.21-.045-.208-.062-.206-.037-.208-.016-.213v-.214l-.082-.2.034-.222-.117-.192.029-.223-.125-.189.031-.225-.089-.2-.089-.2-.054-.2.018-.224-.115-.187.025-.229-.155-.174-.018-.217-.073-.2-.028-.215-.063-.2-.143-.175-.072-.2-.029-.216-.043-.211-.163-.163-.073-.2-.018-.222-.113-.182-.063-.2-.137-.171-.1-.184-.107-.182-.111-.182-.11-.181-.055-.21-.138-.165-.049-.216-.116-.179-.122-.173-.063-.21-.124-.17-.118-.177-.11-.181-.132-.168-.1-.189-.136-.165-.114-.178-.106-.185-.157-.148-.107-.185-.143-.158-.138-.16-.118-.177-.192-.115-.07-.217-.136-.164-.206-.1-.147-.152-.138-.159-.06-.233-.19-.113-.161-.136-.143-.157-.157-.143-.1-.2-.2-.1-.117-.183-.141-.16-.223-.068-.1-.208-.162-.136-.167-.133-.212-.075-.156-.144-.155-.146-.194-.094-.16-.139-.156-.143-.142-.165-.194-.09-.139-.171-.176-.12-.2-.077-.16-.143-.2-.084-.2-.075-.128-.194-.173-.124-.181-.113-.193-.084-.187-.1-.216-.045-.172-.125-.169-.137-.2-.073-.175-.127-.211-.05-.211-.046-.177-.119-.2-.066-.179-.117-.2-.076-.214-.038-.2-.078-.191-.09-.2-.059-.164-.164-.2-.078-.2-.071-.2-.068-.213-.031-.225.009-.189-.1-.206-.049-.2-.071-.2-.053-.213-.019-.182-.147-.206-.048-.207-.046-.219,0-.2-.075-.214-.013-.216.012-.209-.039-.2-.1h-.215l-.21-.027-.2-.084-.212-.013-.222.087-.2-.12-.217.051-.207-.069-.212.015-.209-.04-.21-.044-.214.042-.212.014-.211-.071Zm0,40.021-.214-.024-.212-.021-.21-.075-.214.062-.213-.016-.21-.044-.212-.029-.209-.037-.219.044-.2-.1-.212-.012-.216.024-.2-.084-.213-.011-.206-.063-.23.087-.2-.075-.2-.075-.21-.03-.216-.013-.212-.035-.189-.122-.2-.089-.224.014-.208-.052-.184-.127h-.224l-.206-.054-.189-.1-.219-.02-.175-.143-.207-.053-.2-.063-.221-.02-.158-.177-.193-.086-.2-.072-.231-.007-.161-.156-.227-.019-.158-.163-.218-.039-.151-.172-.19-.095-.232-.02-.155-.158-.176-.12-.218-.051-.169-.133-.174-.125-.187-.1-.168-.13-.211-.068-.158-.148-.127-.186-.2-.091-.208-.077-.108-.208-.191-.1-.186-.108-.131-.177-.162-.137-.21-.08-.158-.143-.187-.113-.1-.208-.2-.1-.121-.183-.126-.174-.179-.122-.184-.118-.154-.146-.124-.177-.107-.191-.149-.15-.218-.091-.115-.183-.1-.195-.154-.148-.174-.133-.061-.222-.158-.148-.172-.136-.091-.2-.1-.186-.141-.16-.144-.162-.132-.166-.057-.217-.181-.138-.082-.2-.16-.151-.01-.243-.114-.179-.1-.189-.134-.169-.1-.188-.111-.182-.116-.18-.07-.2-.075-.2-.173-.153.015-.241-.2-.144.011-.238-.168-.16-.079-.2-.077-.2.011-.233-.105-.187-.111-.186-.069-.2-.051-.206-.09-.2,0-.221-.03-.214-.111-.189-.092-.2.043-.229-.155-.183v-.218l-.075-.2-.057-.2-.027-.214-.06-.206-.036-.211,0-.216.038-.221-.032-.21-.115-.2.056-.221-.1-.2-.041-.21,0-.214.078-.219-.034-.211-.1-.209v-.214l-.006-.213.034-.215.057-.213-.029-.212-.048-.215.07-.211.047-.21-.1-.219.115-.206-.031-.215,0-.214.077-.208-.076-.222.131-.2-.011-.216-.03-.219.016-.213.083-.2.006-.216.054-.206.082-.2-.027-.223.08-.2.086-.2-.02-.224.148-.183-.015-.224.088-.2.068-.2.035-.212.1-.192.066-.2,0-.224.083-.2.064-.2.069-.2.1-.189.077-.2.065-.206.16-.162.011-.229.158-.162.077-.2.077-.2.129-.173.032-.224.095-.191.149-.163.12-.175.05-.216.105-.186.137-.167.122-.175.14-.163.042-.227.16-.149.148-.155.082-.2.181-.132.132-.165.07-.215.16-.146.143-.158.067-.22.2-.112.091-.2.154-.148.122-.177.117-.182.182-.121.132-.169.19-.112.1-.2.18-.12.169-.13.128-.177.15-.148.186-.113.1-.209.184-.115.186-.108.129-.178.2-.095.129-.182.174-.12.18-.117.172-.127.188-.1.171-.127.177-.118.145-.164.172-.129.18-.114.185-.107.221-.048.146-.168.219-.047.176-.122.18-.113.188-.1.188-.1.191-.094.2-.079.178-.121.207-.06.2-.077.188-.1.189-.1.181-.118.214-.039.167-.158.2-.067.224-.008.2-.075.183-.12.207-.049.223,0,.177-.146.2-.063.223,0,.2-.076.221,0,.187-.125.215-.015.2-.09.229.056.191-.133.208-.047.222.04.2-.1.221.031.2-.1.219.034.213-.016.212-.008.208-.046.216.034.206-.1.217.075.21-.064.212-.06.213.027.215.045.211-.016.213-.034.212.02.216-.045.209.07.211.022.212.019.216-.053.211.04.214,0,.209.064.217-.034.2.128.215,0,.2.077.225-.059.2.085.209.036.215.016.211.032.211.029.2.081.208.042.212.03.2.063.2.078.188.117.2.062.2.056.225,0,.2.068.182.125.2.068.188.1.216.032.185.11.193.091h.232l.151.186.229.008.183.111.16.155.232.013.178.121.169.134.224.033.14.187.228.027.143.178.222.046.142.174.2.08.148.162.172.127.238.029.11.212.24.031.137.174.145.16.188.1.144.16.2.085.2.094.157.145.113.2.146.156.232.06.076.234.2.1.15.151.121.181.154.146.18.121.12.18.147.154.124.174.174.128.119.179.128.17.157.145.178.131.1.189.177.132.124.174.095.2.1.19.195.124.055.219.163.148.132.168.049.221.157.153.1.188.118.178.083.2.167.151.067.205.074.2.158.159.016.229.161.158.082.2.065.2.146.167-.013.241.1.189.159.164.085.2-.02.236.122.181.118.183-.015.231.161.17-.012.227.121.185.078.2-.038.234.087.2.022.214.057.2.128.188-.014.222.135.188-.054.229.047.208.132.192.009.215-.013.218.069.2.057.207-.053.221v.214l.049.21.059.208-.013.214.047.21-.012.214.038.212-.029.215.067.211v.214l-.053.213.035.213.029.214-.1.209.1.217-.086.21.043.215-.056.21-.037.211-.008.212-.075.207.057.221-.051.207-.073.2.076.227-.1.2,0,.215-.041.209-.077.2.023.223-.134.189-.007.217,0,.219-.121.189-.022.215-.117.188-.051.206-.076.2.038.236-.063.2-.136.178-.009.224-.108.187-.059.207-.088.193-.131.177-.074.2-.071.2-.11.183-.02.225-.169.155-.008.234-.111.182-.167.155-.029.224-.095.191-.124.176-.074.2-.136.168-.127.173-.143.16-.053.219-.186.134-.09.193-.111.183-.108.185-.1.192-.119.177-.142.16-.156.148-.1.2-.193.12-.075.213-.193.116-.077.215-.2.107-.113.186-.112.184-.15.156-.2.1-.107.193-.212.087-.085.219-.188.111-.149.152-.186.111-.162.137-.113.194-.164.137-.195.1-.189.1-.112.2-.174.123-.212.071-.152.151-.188.1-.143.165-.168.132-.168.132-.169.132-.171.127-.207.07-.16.148-.214.054-.179.117-.176.12-.211.057-.18.117-.185.1-.191.092-.181.11-.2.072-.184.106-.2.079-.2.066-.178.121-.207.058-.189.1-.193.087-.206.057-.173.146-.229-.01-.2.066-.174.151-.2.074-.206.058-.236-.048-.189.115-.2.077-.209.046-.2.06-.224-.027-.192.116-.22-.008-.213.018-.191.136-.223-.051-.209.038-.208.039-.2.109-.214.013-.213.007-.209.069-.212.006h-.214l-.216-.034-.209.055-.214-.05-.213.009-.211.057-.214-.029Z" transform="translate(1893.674 538.781)" fill="#2a4f2c"/>
      </g>
    </g>
  </g>
  <g id="グループ_95" data-name="グループ 95" transform="translate(47.777 5.019)">
    <g id="グループ_91" data-name="グループ 91" transform="translate(69.02 0.235)">
      <path id="パス_99" data-name="パス 99" d="M-1704.426-522.193l-.057.545v.528l-.084.515-.114.514-.063.516-.1.516-.25.476-.051.526-.089.518-.177.5-.245.471-.128.505-.147.5-.223.475-.116.514-.23.47-.157.5-.235.463-.255.421-.307-.37-.34-.39-.278-.433-.281-.427-.18-.492-.29-.421-.231-.457-.185-.482-.338-.405-.22-.464-.081-.521-.264-.447-.135-.493-.109-.5-.234-.46-.039-.523-.231-.465-.021-.5.2-.435.156-.416.273-.359.533.067.529-.091.529.008.532.048.528.046.531-.078.53.054.532.024.532-.006.532-.051Zm-13.136,6.506.023-.5-.063-.489.008-.49.031-.487-.034-.491-.011-.49.136-.492-.081-.488-.054-.492.03-.488.09-.491-.041-.492-.021-.5.494.036.48-.08.481.032.481-.051.481.029.483.084.482-.051.483-.058.59-.145-.143.531-.293.406-.179.459-.24.426-.285.4-.135.491-.246.43-.361.354-.191.461-.3.391-.316.379-.2.426.268.45.443-.367.469-.216.373-.346.343-.382.414-.295.419-.293.309-.411.368-.351.393-.326.321-.313.1.438.023.51.063.506.1.5.15.49.188.476.092.5.106.5.057.509.227.463.146.483.13.493.157.483.159.481.259.443.114.5.221.457.27.435.161.483.251.44.2.424-.139.479-.321.405-.323.4-.284.429-.271.439-.3.42-.387.346-.362.367-.272.445-.341.382-.412.314-.3.422-.36.367-.407.317-.335.394-.444.27-.369.355-.38.347-.346.386-.476.23-.4.32-.387.342.024.046.385.66.046-.1.5-.114.422-.272.494-.118.446-.224.391-.331.472-.168.444-.23.387-.322.438-.237.427-.257.4-.3.419-.272.356-.357.418-.274.448-.24.351-.362.326-.381.447-.25.334-.381.328-.377.392-.312.3-.346.351.339.323.409.37.371.263.466.407.337.314.419.338.405.411.329.424.312.4.336.377.362.373.375.427.3.5.2.409.322.407.331.458.246.121.011.081,0,.164-.5.2-.5.344-.409.366-.384.364-.386.4-.347.452-.288.523-.108-.008-.061.075-.687-.051-.011.041-.118-.465-.191-.451-.213-.471-.174-.451-.226-.452-.215-.453-.215-.421-.277-.417-.281-.485-.175-.342-.39-.5-.167-.333-.4-.465-.215-.4-.315-.388-.324-.307-.412-.4-.31-.414-.33.277-.468.275-.442.227-.466.309-.427.268-.447.167-.5.179-.493.321-.426.086-.531.25-.458.154-.5.172-.494.192-.482.143-.5.165-.5.2-.48.232-.474.14-.5.036-.53.221-.476.042-.55.534-.119.465-.193.309-.421-.29-.494-.539-.141-.559-.185-.564-.174-.563-.238.569.047.545-.034.549-.065.548.075.55.048.551-.128.459.074.374-.272.116-.423-.055-.435-.349-.274-.313-.462-.43-.334-.448-.317-.413-.356-.358-.41-.427-.343-.389-.382-.637-.383-.511.471-.331.411-.332.405-.223.481-.4.372-.234.495-.529-.035-.512-.011-.511.035-.512-.045h-.513l-.511.083-.514-.016-.512.015-.514.011-.513-.031-.529,0,.188-.527.32-.413.133-.505.3-.426.2-.474.186-.476.244-.454.112-.511.191-.479.25-.455,0,.024.518-.182.489-.195.262-.415-.136-.391-.363-.246-.446-.035-.465-.2-.467-.187-.5-.085-.458-.223-.477-.155-.508-.062-.47-.185-.477-.16-.064.067-.087.027-.006.523-.1.513-.055.516-.051.517-.16.5-.082.511-.181.494-.04.527-.172.495-.159.494-.091.514-.141.5-.2.482-.056.531-.208.481-.208.464-.3-.313-.324-.445-.423-.351-.358-.414-.355-.415-.371-.4-.548-.367-.513.421-.263.388-.2.425-.245.4-.284.41-.617-.016.072-.554-.082-.52.082-.52-.021-.52-.012-.521,0-.521v-.521l.005-.521.019-.519-.034-.525.533-.177.5-.279.25-.52-.339-.49-.593-.095-.493-.115-.511.042-.5-.072-.491-.146-.5-.055-.509,0-.5-.084-.508-.136.085.2.053.528-.037.536.056.528-.053.531.1.528-.035.532.053.534-.119.485.108.487.011.486-.092.485.086.489-.077.487.071.531-.606-.06-.573-.009-.573-.018-.568.031.208-.461.027-.523.227-.47.055-.514.053-.513.115-.317.493-.106.425-.265.173-.449-.308-.492-.618-.114-.446-.177-.458-.114-.461-.107-.479-.025-.457-.127-.468-.076-.454-.148-.047.038-.1.036.032.519-.07.514.092.524-.089.512-.028.514-.008.517-.036.514-.03.516-.1.507-.053.515-.042.514-.084.512-.107.5-.157.5-.089.508-.079.505-.006.521-.1.508-.165.494-.094.507-.137.5-.046.518-.146.5-.115.506.027.222.66.341.007-.13.307-.408.346-.388.17-.5.28-.428.284-.429.148-.5.324-.414.117-.51.291-.432.116-.506.267-.445.135-.5.194-.426.449.016.467-.132.467.132.468-.137.469.073.425.031.021.48-.044.518.074.518.061.519-.009.519-.093.516-.023.521.131.516-.144.52.08.521-.007.519-.054.52.008.521.051.524-.5.07-.48.111-.491.077-.472.153-.487.065-.487.077-.479.116-.474.143-.493.031-.477.136-.49.054-.5.012-.5.022-.014.029.077.509.228.466.192.484.082.518.227.468.156.5.181.486.139.5.32.487.431.3.429-.158.084-.464.157-.425.367-.245.469-.182.481-.168.439-.264.516-.078.456-.219.416-.3.536-.19-.123.556.062.533.056.537-.107.537.115.534-.1.535.07.537.02.538-.125.5.031.5-.048.5v.5l.09.5-.084.5.1.506-.124.5v.5l.105.569-.016.468.133.45.442.155h.47l.507.083.51-.017.5-.129.455-.229.408-.3.146-.485.053-.5-.035-.543.035-.547-.082-.543,0-.545.055-.547-.055-.545-.051-.563.1-.562-.146-.559.085-.561-.069-.5.049-.5.026-.5-.015-.5.062-.5-.1-.5.032-.5.049-.505-.129-.5.082-.5.419-.265.443-.238.461-.2.4-.317.489-.148.409-.293.4-.308.468-.19.394-.31.452-.225.4-.3.073-.086-.383-.639-.414.174-.515.063-.472.215-.506.1-.492.157-.508.114-.522.062-.5.128Z" transform="translate(1727.486 531.312)" fill="#2a4f2c"/>
    </g>
    <g id="グループ_92" data-name="グループ 92" transform="translate(102.662 0.445)">
      <path id="パス_100" data-name="パス 100" d="M-1646.655-517.327l-.323-.349-.3-.372-.423-.241-.336-.335-.329-.347-.34-.335-.374-.3-.541-.268.018-.519-.067-.483-.023-.485.1-.49-.006-.487-.059-.573-.007-.575.006-.571-.082-.512v-.515l.056-.515-.022-.512.013-.516-.007-.517.139-.03.4-.336.4-.316.234-.44-.354-.582-.178-.093-.426-.31-.4-.345-.383-.362-.4-.345-.342-.411-.346-.2-.375-.1-.529.324-.325.477-.41.408-.33.511-.526-.023-.492,0-.494-.08-.495.062-.493-.01-.493,0-.494.061-.493-.117-.495.063-.493-.088-.494.046-.5.088-.493-.119-.5.046-.489-.037-.5-.093-.445-.267-.469-.2-.471-.2-.487-.158-.516-.086-.45-.25-.484-.177.022.114-.052.48.039.477.117.477-.01.48-.071.476.078.476-.052.478.035.478.035.481-.055.485-.018.481-.02.482.043.483-.062.485v.483l.074.478,0,.478.023.476-.051.481.037.48-.067.507-.1.505.084.51.1.551.451.277.548.165h.474l.457-.145.453-.1.458-.109.326-.324.218-.407.5-.006.5.016.495-.072.5.037.5,0,.5-.025.5,0,.495.055.5.044.5-.05.5.055.5-.1.5.089.5.006.5.019h.473l.146.473.4.373.571-.049.47.035.474-.013.446-.186.4-.12-.185.408-.332.318-.207.417-.332.313-.513.074-.516-.059h-.517l-.516.056-.518-.042-.516-.077-.519.083-.515-.035-.517.063-.518.011-.519-.115-.519.016-.517.1-.517-.025-.521-.06-.516.027-.515-.027-.521-.025-.517.018-.519.037-.517-.078-.519.049-.519.037-.521-.012-.52-.029-.52-.044-.516.03-.518-.022-.516-.054-.524.087-.512-.1-.225-.018.132.5.174.478.219.462.172.477.009.054.048-.037.5-.029.495-.028.491-.081.5.073.5-.073.557.058.564-.042-.227.489-.188.465-.172.476-.174.481-.332.395-.256.433-.179.489-.3.407-.351.371-.313.4-.248.453-.37.356-.337.374-.276.431-.343.376-.332.384-.325.391-.326.391-.406.318-.312.407-.119.057.426.561.089-.011.028-.049.457-.2.485-.153.375-.353.434-.246.493-.152.4-.312.446-.236.4-.3.408-.292.318-.4.473-.217.346-.362.348-.361.292-.412.42-.3.228-.463.376-.289.434-.071.453,0,.46-.019-.29.465-.218.464-.266.434-.264.435-.281.429-.286.424-.3.414-.32.4-.334.387-.432.3-.282.438-.351.37-.409.314-.4.319-.3.423-.425.294-.4.319-.342.385-.414.3-.414.306-.415.3-.051.119.47.611.091-.014.486-.167.455-.239.451-.241.456-.237.406-.322.457-.23.486-.186.373-.367.427-.279.461-.235.378-.355.438-.268.341-.393.361-.363.372-.348.412-.312.386-.338.34-.387.309-.41.311-.4.346-.379.3-.412.294-.419.26-.442.239-.451.278-.475.472.03.455.02.455-.046.437.114-.2.391-.16.48-.176.478-.269.431-.233.449-.281.418-.239.452-.32.395-.338.378-.265.43-.374.345-.328.381-.277.427-.363.351-.394.319-.275.442-.393.324-.432.272-.311.41-.427.283-.4.3-.411.293-.373.339-.431.272-.339.394-.424.275-.439.255-.381.34-.052,0,.125.362.261.291-.02-.039.488-.149.494-.144.473-.191.5-.117.458-.232.425-.3.5-.138.463-.223.4-.333.437-.26.459-.234.382-.338.458-.24.385-.332.4-.319-.007.088.5.107.476.182.493.148.434.277.431.272.4.336.157.494.269.451-.039.523.1.5-.027.093.086-.085.512.006.514.056.5-.176.524.067.486-.177.51-.074.432-.288.451-.225.389-.319.373-.354.259-.443.237-.453.154-.488.226-.458.117-.5.068-.507.171-.485.113-.5-.02-.521.065-.506.191-.486-.015-.514.1-.5.057-.509.017-.514.075-.5,0-.515.134-.466.476-.244.4-.4.306-.429-.229-.375-.228-.385-.4-.282-.358-.32-.414-.262-.309-.381-.369-.314-.4-.279-.089-.091-.414-.147-.433.276-.33.313-.245.374-.272.359-.207.42-.509.025-.5.012-.493-.1-.5-.019h-.5l-.5.025-.5-.015-.5.049h-.5l-.494.041-.5-.031-.5.058-.5-.088-.5.017-.5.074-.5-.085-.5.02-.5.026-.514.014.348-.392.216-.422.176-.442.263-.386.226-.45.524.085.514-.1.51,0,.51.077.51-.068.51.016.514.09.509-.108.51.118.514,0,.51-.136.512.125.514-.1.512.056.51-.094.511.1.515.02.508.014.514-.091.513.02.511.022.515.018.514.025.511.012.452-.127.387-.2.2-.382-.127-.428Zm-6.431-10.352-.029.576-.069.556.112.556-.023.57-.513-.026-.5-.017-.5.035-.5.04-.5-.034-.5.054-.5.009-.495-.11-.5-.011-.5.044-.5-.013-.5-.015-.495.079h-.5l-.5-.054-.513.018.011-.567-.008-.556.053-.556-.059-.572.512,0,.5.027.5.009.5-.044.5-.042.5,0,.5.02.495,0,.5.09.494-.039.5-.013.5-.014.5-.047.5.058.5-.067Zm0,3.92-.027.5-.069.467.112.471-.018.47-.028.464-.49-.02-.5.034-.5.036-.5-.034-.5.055-.5.008-.5-.108-.495-.011-.5.044-.5-.011-.5-.015-.5.081h-.495l-.5-.055-.5.021-.5-.014-.009-.475.053-.469-.066-.471.007-.469.025-.464.487.013.5-.044.5-.044.5.005.5.02.5.007.5.086.495-.037.5-.013.494-.013.5-.05.5.063.5-.07.5.03.5,0Zm1.9,11.6-.082.491-.113.489.062.506-.07.493-.089.495-.08.49-.03.5-.036.5-.121.488-.042.5-.1.49-.242.449-.208.451-.347.345-.492.113-.506.01-.548.065-.542-.02-.54-.078-.546,0-.544-.035-.554-.02.419-.335.325-.417.363-.376.368-.37.346-.4.29-.437.278-.446.305-.424.308-.425.281-.44.342-.4.227-.476.235-.468.226-.473.187-.489.28-.443.48-.071.487.033Z" transform="translate(1676.488 531.014)" fill="#2a4f2c"/>
      <path id="パス_101" data-name="パス 101" d="M-1669.236-512.911l-.5.254-.494.173-.5.146-.512.115-.466.243-.489.077-.045-.491-.031-.5.073-.5.025-.5-.014-.5.013-.5-.115-.5.13-.5-.126-.5.069-.5.02-.5-.036-.505-.049-.5.1-.5-.076-.5.1-.5-.1-.536.541-.012.509.067.507.032.507-.129.511.012.509.109.429-.161.418-.109.236-.393-.37-.673-.3-.395-.414-.287-.3-.4-.383-.319-.3-.4-.614-.341-.429.444-.4.366-.229.477-.3.422-.168.041.108-.521-.094-.507.12-.5-.1-.5,0-.505.041-.505,0-.505,0-.505.014-.509.035-.505-.091-.507.051-.509.01-.5.463-.22.458-.252.258-.444-.31-.426-.51-.218-.113-.07-.486.007-.478-.035-.476-.061-.47-.118-.493.089-.477-.07-.48-.044-.467-.157-.071.06-.02.069.106.487-.041.5.036.5.007.5.068.494-.081.5.085.5,0,.5.017.5-.052.5-.04.5,0,.5.024.5.04.5-.09.5.029.5.057.514-.57.029-.54-.094-.535.035-.538.052-.534-.062-.534-.084-.536-.037-.123.017.143.463.235.429.2.443.1.482.059.008.026-.018.538.035.535-.041.535.084.538-.12.535.076.435-.008.06.5-.072.5-.017.5-.006.5.07.5-.1.5.015.5.128.5-.022.5.014.5-.066.5.018.5,0,.5-.09.5.024.5.045.5.024.5-.048.5.043.506-.485.11-.462.141-.475.088-.48.048-.481.042-.468.125-.478.04-.477.078-.067-.013.24.477.14.524.206.5.212.5.241.48.192.5.238.486.174.51.042.133.26.451.389.244.351-.238.141-.436.137-.426.368-.335.428-.3.417-.309.482-.217.419-.312.425-.3.445-.273.465-.254.378-.378.428-.239.38-.308.41-.27.356-.34.445-.219.359-.332.419-.261.381-.3.365-.325.39-.366-.27-.317Z" transform="translate(1679.617 530.926)" fill="#2a4f2c"/>
    </g>
    <g id="グループ_93" data-name="グループ 93">
      <path id="パス_102" data-name="パス 102" d="M-1789.769-521.22l-.4-.293-.5-.1-.383-.337-.443-.213-.489-.13-.428-.248-.4-.3-.456-.193-.462-.17.019.064-.2.489-.1.513-.1.513-.192.487-.234.467-.088.523-.269.453-.143.505-.274.449-.224.472-.16.5-.175.494-.3.436-.249.46-.17.5-.221.473-.287.441-.208.481-.318.425-.3.434-.031.1.559.446.048.073.066-.051.43-.272.379-.34.454-.237.386-.332.349-.374.411-.3.368-.348.357-.364.372-.34.4-.312.378-.343.36-.355.346-.375.234-.467.35-.367.4-.33.345-.369.267-.437.3-.422.473-.035.448-.056.392-.15.191-.359-.126-.411-.359-.256Z" transform="translate(1817.451 529.144)" fill="#2a4f2c"/>
      <path id="パス_103" data-name="パス 103" d="M-1816.6-513.075l.453-.092.448-.132.389-.264.4-.275.259-.415.137-.467.122-.464.052-.483-.122-.494-.093-.491-.108-.489-.2-.459-.286-.41-.236-.445-.263-.429-.317-.389-.436-.277-.323-.386-.347-.369-.433-.259-.391-.313-.448-.235-.4-.308-.417-.281-.454-.219-.44-.235-.43-.258-.464-.185-.082-.065-.58.515.138.145.254.449.241.456.283.43.274.435.19.482.249.449.31.424.173.487.225.463.213.474.185.48.056.528.253.461.126.5.082.472.123.463.26.411.2.427.247.424.447.2Z" transform="translate(1824.48 528.984)" fill="#2a4f2c"/>
      <path id="パス_104" data-name="パス 104" d="M-1794.781-513.65l-.3-.407-.384-.324-.327-.381-.375-.328-.441-.264-.294-.422-.381-.332-.334-.375-.668-.3-.63.383-.219.522-.349.438-.295.474-.357.435-.289.449-.464.014-.492.071-.491,0-.493.043-.493-.128-.493.09-.493-.028-.492.02-.492.008-.493-.02-.495-.063-.494-.01-.494.014-.493.1-.5-.059-.452-.038-.11-.459.124-.5-.1-.5-.022-.5.1-.5-.1-.5.13-.5-.113-.5.039-.5-.039-.5.023-.5.043-.5-.007-.5.04-.5-.029-.5v-.5l-.066-.5v-.5l.02-.5.058-.5-.084-.5.015-.507.061-.5.017-.5-.088-.508.014-.531.532-.008.508.1.507-.065.509.024.51-.053.507.016.508.033.51-.045.507.06.509-.1.508.133.511-.021.506-.034.508-.006.51.006.509-.035.508.042.511-.053.509-.025h.51l.512.057.511-.037.442-.108.36-.229.186-.4-.079-.471-.3-.373-.415-.281-.393-.3-.333-.369-.4-.292-.3-.4-.4-.3-.4-.3-.34-.366-.612-.3-.576.306-.316.453-.322.45-.222.516-.293.47-.338.455-.516-.1-.5.124-.5-.034-.5-.043-.5.018-.5.059-.5.023-.505-.128-.5.081-.5.033-.5-.08-.5-.013-.5.06-.5-.047-.506.011-.5.074-.5-.094-.5.056-.505-.029-.506.021-.5-.085-.5.082-.506.038-.5-.072-.506.091-.5-.056-.507-.033-.5-.011-.505.029-.505.017-.5-.031h-.507l-.507.043-.505.027-.506-.1-.509.048-.507.053-.536-.043-.538-.066-.537.052-.535-.034-.532-.08-.527-.086-.186.067.2.541.236.518.09.559.156.54.063.067.074-.084.5.033.487-.151.507.11.493-.023.494-.15.517.138.516-.011.518-.1.518.1.518-.115.517.127.517-.034.519-.083.515.079.518-.074.518.053.518.007.52-.036.516-.036.519.132.522-.134.521.056-.06.5.07.5-.076.5.044.5.038.5.05.5-.092.5v.505l.044.5-.02.505-.022.5-.032.5-.014.5.008.505.117.5-.1.506.081.5-.007.5-.014.5.042.505-.067.505-.062.5.1.5-.081.506,0,.507.064.517-.521,0-.51-.036-.511.094-.509-.1-.508.005-.511-.038-.511.008-.51.084-.51-.042-.512-.051-.506.08-.51.044-.51-.02-.51-.016-.511-.036-.512,0-.508.013-.513-.067-.512.022-.514-.024-.538.087-.538.038-.535-.056-.534-.054-.535-.031-.534-.011-.139-.033.253.507.143.536.169.531.178.525-.018.059.051-.008.5-.051.5-.012.5-.028.5.045.494-.132.513.109.515-.122.515.1.514.045.514-.069.516-.02.515-.034.514.061.517-.026.515.079.512-.08.515-.02.515-.03.515.081.516.052.517-.006.514-.125.518.054.516-.045.558.02-.014.571-.078.533.019.534,0,.53.078.534-.058.534.036.534.024.534-.081.534.082.52-.08.518-.027.52.083.526-.01.52-.032.518-.017.525-.049.518.087.519-.116.518.022.508.293.416.45.21.5.045.519-.083.513-.036.513-.069.517-.094.415-.333.2-.473.11-.506,0-.487-.034-.482-.03-.49-.075-.513.008-.515.09-.519-.069-.516.021-.517-.029-.517v-.513l.06-.5-.069-.5,0-.5.073-.5-.108-.5.053-.5v-.5l.045-.5-.062-.523.518.092.5-.005.5-.094.5.023.5-.058.5.069.5-.073.5.068.5.03.5-.011.5.039.5-.011.5-.089.5.084.5-.012.5.012.5-.082.5,0,.5.054.5-.036.5-.033.5.065.5-.049.5.062.5.015.5.034.465-.145.427-.231.109-.473-.146-.436Z" transform="translate(1825.693 531.646)" fill="#2a4f2c"/>
    </g>
    <g id="グループ_94" data-name="グループ 94" transform="translate(36.94 1.079)">
      <path id="パス_105" data-name="パス 105" d="M-1746.632-527.93l-.378-.371-.447-.281-.358-.395-.458-.268-.4-.335-.4-.35-.635-.184-.66.278-.2.409-.254.372-.253.373-.258.339-.474.06-.5,0-.5.041-.5-.089-.5.077-.5-.043-.5-.024-.5-.018-.5.077-.5-.032-.5.027-.5.03-.5-.12-.5.1-.5-.039-.5.079-.5-.078-.5.076-.5-.093-.5-.025-.5.082-.5-.064-.505-.018-.5,0-.505-.021-.5.072-.5-.042-.5.085-.5-.065-.5-.039-.5-.008-.5.089-.5-.085-.507.049-.5-.03-.44-.194-.463-.16-.468-.151-.46-.17-.458-.179-.445-.21-.481-.118-.422-.27-.493-.089-.1-.126-.02.138.16.523-.087.547.087.532.061.536-.083.542.077.535.028.537-.071.542.061.511.013.511,0,.51-.034.509.01.51-.048.511.1.511,0,.512.012.51-.148.511.123.509-.069.514.04.511-.016.511.023.512-.091.512.078.509-.084.514.025.511.072.515-.053.509-.006.513.007.514,0,.51.1.512-.013.512-.115.515-.01.509.092.514-.088.514.006.512.077.514.05.513-.113.511-.017.515.025.516-.032.514.06.564.006.561-.011.565.008.568-.131.574.063.58-.078.574.047.492.352.31.421.186.481.087.536-.094.528-.044.528-.077.467-.239.457-.288.087-.534-.017-.531.1-.4-.073-.453.559.064.511.056.512-.058.511.069.513-.047.513-.013.512.013.512-.027.512.014.513-.08.512.141.512-.062.514.014.514.036.51-.045.514-.06.513.077.513.011.515-.053.511-.047.516.1.51-.047h.516l.514,0,.515.068.513-.082.512-.055.514.013.514.049.512.071.516-.034.514-.008.516-.051.515.056.542-.054.007.5-.046.474-.046.469.216.429.258.328.4.238.47-.008.476.024.476-.018.454-.174.469-.089.429-.226.251-.417.148-.462-.1-.471.046-.473-.093-.471.02-.476-.031-.488.021-.493-.006-.487.021-.488-.049-.488.03-.511.043-.507-.091-.507.056-.5.051-.507-.092-.511v-.509l.07-.509-.12-.507.144-.507-.147-.509.106-.507-.07-.511-.006-.509.065-.509.03-.509-.07-.507.086-.511-.039-.509-.039-.509.051-.509-.005-.509-.092-.511.048-.507v-.512l.015-.511.011-.507-.065-.507.011-.512-.006-.509.1-.511-.064-.508.039-.511-.021-.511-.054-.512.032-.515.446-.206.349-.34.37-.312.151-.456-.2-.488Zm-4.494,12.567-.044.547.051.52-.088.519.07.519-.014.521-.031.518.091.521-.134.521.061.52-.007.517,0,.52-.033.521.068.52-.008.518.043.523-.088.518.077.524-.042.521-.507-.028-.51-.019-.508.076-.513-.029-.508.024-.509.03-.51-.119-.51.1-.51-.042-.511.08-.512-.078-.51.076-.513-.094-.477-.01-.068-.485.059-.519.022-.519v-.518l.025-.521-.075-.52.043-.52-.083-.521.065-.518.042-.518,0-.523-.089-.516.084-.522-.048-.521.028-.521.02-.521-.028-.521-.037-.523.509-.013.511-.008.51.028.508-.072.512.094.507-.1.511.09.51.024.51-.106.51.126.51-.056.511-.043.515.092Zm0-11.161-.044.547.051.519-.088.523.07.518-.014.52-.031.519.091.521-.134.518.061.516-.007.52,0,.52-.033.521.068.52-.008.521.043.521-.088.52.077.523-.042.52-.507-.026-.51-.018-.508.075-.513-.03-.508.025-.509.029-.51-.118-.51.1-.51-.04-.511.082-.512-.079-.51.075-.513-.092-.477-.013-.068-.485.059-.518.022-.52v-.519l.025-.518-.075-.523.043-.518-.083-.521.065-.517.042-.519,0-.521-.089-.518.084-.523-.048-.518.028-.519.02-.522-.028-.523-.037-.522.509-.013.511-.006.51.027.508-.069.512.089.507-.1.511.091.51.027.51-.107.51.124.51-.057.511-.044.515.094Zm-10.828,0-.044.547.054.519-.091.523.072.518-.015.52-.033.519.091.521-.133.518.062.516-.006.52,0,.52-.031.521.066.52-.006.521.039.521-.086.52.077.523-.039.52-.51-.026-.508-.018-.508.075-.509-.03-.508.025-.51.029-.508-.118-.509.1-.51-.04-.511.082-.508-.079-.512.075-.51-.092-.477-.013-.069-.485.061-.518.023-.52v-.519l.02-.518-.073-.523.041-.518-.082-.521.065-.517.041-.519.007-.521-.09-.518.085-.523-.051-.518.03-.519.017-.522-.025-.523-.037-.522.51-.013.509-.006.51.027.51-.069.508.089.509-.1.509.091.508.027.51-.107.511.124.511-.057.51-.044.512.094Zm0,11.161-.044.547.054.52-.091.519.072.519-.015.521-.033.518.091.521-.133.521.062.52-.006.517,0,.52-.031.521.066.52-.006.518.039.523-.086.518.077.524-.039.521-.51-.028-.508-.019-.508.076-.509-.029-.508.024-.51.03-.508-.119-.509.1-.51-.042-.511.08-.508-.078-.512.076-.51-.094-.477-.01-.069-.485.061-.519.023-.519v-.518l.02-.521-.073-.52.041-.52-.082-.521.065-.518.041-.518.007-.523-.09-.516.085-.522-.051-.521.03-.521.017-.521-.025-.521-.037-.523.51-.013.509-.008.51.028.51-.072.508.094.509-.1.509.09.508.024.51-.106.511.126.511-.056.51-.043.512.092Z" transform="translate(1773.132 530.113)" fill="#2a4f2c"/>
    </g>
  </g>
</svg>
