<svg xmlns="http://www.w3.org/2000/svg" xmlns:xlink="http://www.w3.org/1999/xlink" width="424.627" height="91.184" viewBox="0 0 424.627 91.184"><defs><clipPath id="a"><rect width="108.563" height="91.184" fill="none"/></clipPath><clipPath id="b"><path d="M48.087,169.682a2.879,2.879,0,0,0-.851,2.279,3.586,3.586,0,0,0,.159,1.118,2.3,2.3,0,0,0,.5.851,3.235,3.235,0,0,0,.844.642,7.456,7.456,0,0,0,1.2.505,8.185,8.185,0,0,1,.873.338,2.222,2.222,0,0,1,.57.368,1.185,1.185,0,0,1,.31.454,1.712,1.712,0,0,1,.094.6,1.164,1.164,0,0,1-.383.96,1.328,1.328,0,0,1-.858.31,1.693,1.693,0,0,1-.671-.116,1.06,1.06,0,0,1-.426-.317,1.143,1.143,0,0,1-.216-.5,3.422,3.422,0,0,1-.058-.656v-.3H47.092v.418a2.983,2.983,0,0,0,.757,2.193,3.447,3.447,0,0,0,2.517.765A4.159,4.159,0,0,0,53,178.85a2.833,2.833,0,0,0,.945-2.373,4.005,4.005,0,0,0-.086-.866,2.015,2.015,0,0,0-.31-.714,2.633,2.633,0,0,0-.6-.606,4.926,4.926,0,0,0-.967-.541l-1.6-.693a1.8,1.8,0,0,1-.866-.6,1.486,1.486,0,0,1-.2-.8,1.951,1.951,0,0,1,.051-.447.92.92,0,0,1,.187-.383.981.981,0,0,1,.368-.267,1.447,1.447,0,0,1,.577-.1.956.956,0,0,1,.866.4,2.066,2.066,0,0,1,.26,1.133h1.991V171.7a3.05,3.05,0,0,0-.238-1.263,2.3,2.3,0,0,0-.664-.866,2.684,2.684,0,0,0-1.01-.49,5.072,5.072,0,0,0-1.276-.152,3.411,3.411,0,0,0-2.337.751" transform="translate(-47.092 -168.931)" fill="none"/></clipPath><linearGradient id="c" x1="-1.589" y1="0.946" x2="-1.551" y2="0.946" gradientUnits="objectBoundingBox"><stop offset="0" stop-color="#867552"/><stop offset="1" stop-color="#b6ab96"/></linearGradient><clipPath id="d"><rect width="2.078" height="10.302" fill="none"/></clipPath><linearGradient id="e" x1="-3.096" y1="1.124" x2="-3.041" y2="1.124" xlink:href="#c"/><clipPath id="f"><path d="M76.393,169.354v7.056h-.029l-2.511-7.056h-2.4v10.3h1.9v-7.214h.029l2.539,7.214H78.3v-10.3Z" transform="translate(-71.458 -169.354)" fill="none"/></clipPath><linearGradient id="g" x1="-2.592" y1="0.947" x2="-2.553" y2="0.947" xlink:href="#c"/><clipPath id="h"><path d="M90.024,169.328a2.667,2.667,0,0,0-1.061,1.1,4.769,4.769,0,0,0-.476,1.695,21.624,21.624,0,0,0,0,4.321,4.758,4.758,0,0,0,.476,1.688,2.527,2.527,0,0,0,1.061,1.082,3.923,3.923,0,0,0,1.861.375,3.766,3.766,0,0,0,1.666-.318,2.394,2.394,0,0,0,1-.88,3.6,3.6,0,0,0,.484-1.313,9.335,9.335,0,0,0,.129-1.587H93.083a7.249,7.249,0,0,1-.1,1.349,2.435,2.435,0,0,1-.274.794.867.867,0,0,1-.411.375,1.377,1.377,0,0,1-.512.094,1.2,1.2,0,0,1-.584-.137,1.022,1.022,0,0,1-.418-.533,4.2,4.2,0,0,1-.245-1.119,18.138,18.138,0,0,1-.079-1.89q0-1.1.057-1.854a5.82,5.82,0,0,1,.2-1.226,1.392,1.392,0,0,1,.4-.678.975.975,0,0,1,.642-.209,1,1,0,0,1,.974.512A3.732,3.732,0,0,1,93,172.61h2.077a9.933,9.933,0,0,0-.079-1.2,3.192,3.192,0,0,0-.4-1.2,2.456,2.456,0,0,0-.96-.916,3.589,3.589,0,0,0-1.753-.361,3.744,3.744,0,0,0-1.861.4" transform="translate(-88.379 -168.931)" fill="none"/></clipPath><linearGradient id="i" x1="-3.19" y1="0.937" x2="-3.152" y2="0.937" xlink:href="#c"/><clipPath id="j"><path d="M105.088,169.354v10.3h5.9v-1.7h-3.824v-2.77h3.463v-1.7h-3.463v-2.424h3.679v-1.7Z" transform="translate(-105.088 -169.354)" fill="none"/></clipPath><linearGradient id="k" x1="-4.129" y1="0.964" x2="-4.088" y2="0.964" xlink:href="#c"/><clipPath id="l"><path d="M126.8,169.536a1.8,1.8,0,0,1-.757,1.255,2.983,2.983,0,0,1-1.638.389h-.187v1.357h2.035v7.214h2.077V169.536Z" transform="translate(-124.218 -169.536)" fill="none"/></clipPath><linearGradient id="m" x1="-5.547" y1="1.015" x2="-5.5" y2="1.015" xlink:href="#c"/><clipPath id="n"><path d="M137.845,174.4a3.132,3.132,0,0,1-.26-1.487q0-.433.036-.8a2.206,2.206,0,0,1,.151-.642.943.943,0,0,1,.339-.426,1.047,1.047,0,0,1,.6-.152,1.021,1.021,0,0,1,.585.152,1,1,0,0,1,.346.418,2.143,2.143,0,0,1,.166.643,7,7,0,0,1,.043.807,3.133,3.133,0,0,1-.259,1.487.935.935,0,0,1-.88.447.921.921,0,0,1-.866-.447m-1.551-3.925a4.118,4.118,0,0,0-.786,2.712,5.556,5.556,0,0,0,.138,1.277,2.89,2.89,0,0,0,.433,1.01,2.027,2.027,0,0,0,.772.664,2.565,2.565,0,0,0,1.154.237,2.65,2.65,0,0,0,1.176-.237,1.855,1.855,0,0,0,.743-.628h.029V176q0,.563-.043,1.039a3,3,0,0,1-.18.823,1.272,1.272,0,0,1-.383.541,1.038,1.038,0,0,1-.663.195.8.8,0,0,1-.729-.325,1.657,1.657,0,0,1-.209-.9h-1.991a2.977,2.977,0,0,0,.253,1.234,2.122,2.122,0,0,0,.627.794,2.232,2.232,0,0,0,.9.4,5.127,5.127,0,0,0,1.061.109,3.572,3.572,0,0,0,1.955-.455,2.653,2.653,0,0,0,1.024-1.234,5.553,5.553,0,0,0,.389-1.8q.065-1.017.065-2.114a15.6,15.6,0,0,0-.1-1.8,4.4,4.4,0,0,0-.44-1.522,2.663,2.663,0,0,0-.974-1.053,3.186,3.186,0,0,0-1.7-.4,3.107,3.107,0,0,0-2.518.938" transform="translate(-135.508 -169.536)" fill="none"/></clipPath><linearGradient id="o" x1="-5.179" y1="0.927" x2="-5.139" y2="0.927" xlink:href="#c"/><clipPath id="p"><path d="M153.983,178.446a.991.991,0,0,1-.346-.418,2.119,2.119,0,0,1-.166-.642,7.02,7.02,0,0,1-.043-.808,3.132,3.132,0,0,1,.26-1.486.935.935,0,0,1,.88-.447.922.922,0,0,1,.866.447,3.131,3.131,0,0,1,.26,1.486q0,.433-.036.8a2.221,2.221,0,0,1-.152.642.939.939,0,0,1-.339.426,1.05,1.05,0,0,1-.6.152,1.023,1.023,0,0,1-.584-.152m-1.262-8.433a2.787,2.787,0,0,0-1.017,1.263,5.654,5.654,0,0,0-.39,1.8q-.064,1.017-.065,2.1a15.6,15.6,0,0,0,.1,1.8,4.411,4.411,0,0,0,.44,1.522,2.513,2.513,0,0,0,.974,1.031,3.34,3.34,0,0,0,1.7.375,3.149,3.149,0,0,0,2.518-.916,4.032,4.032,0,0,0,.786-2.691,5.56,5.56,0,0,0-.137-1.277,2.923,2.923,0,0,0-.432-1.01,2.025,2.025,0,0,0-.772-.663,2.553,2.553,0,0,0-1.154-.239,2.636,2.636,0,0,0-1.176.239,1.8,1.8,0,0,0-.743.642h-.029v-.5q0-.563.043-1.039a2.952,2.952,0,0,1,.18-.822,1.244,1.244,0,0,1,.39-.541,1.045,1.045,0,0,1,.656-.194.806.806,0,0,1,.728.317,1.68,1.68,0,0,1,.21.923h1.991a2.987,2.987,0,0,0-.253-1.234,2.191,2.191,0,0,0-.627-.8,2.426,2.426,0,0,0-.9-.433,4.289,4.289,0,0,0-1.06-.13,3.438,3.438,0,0,0-1.962.476" transform="translate(-151.249 -169.536)" fill="none"/></clipPath><linearGradient id="q" x1="-5.807" y1="0.923" x2="-5.767" y2="0.923" xlink:href="#c"/><clipPath id="r"><path d="M170.6,172.133h.029v3.881h-2.02Zm-.216-2.6-3.39,6.392v1.7h3.635v2.121h1.9V177.63h.981v-1.616h-.981v-6.478Z" transform="translate(-166.99 -169.536)" fill="none"/></clipPath><linearGradient id="s" x1="-6.501" y1="0.929" x2="-6.461" y2="0.929" xlink:href="#c"/><clipPath id="u"><path d="M201.715,127.93v2.691h-1.223v1.642h1.223v5.381a6.676,6.676,0,0,0,.087,1.188,1.656,1.656,0,0,0,.323.76,1.159,1.159,0,0,0,.682.384,5.6,5.6,0,0,0,1.144.1q.42,0,.795-.026t.778-.026v-1.677c-.082.011-.169.02-.263.027s-.186.009-.28.009a.806.806,0,0,1-.69-.236,1.427,1.427,0,0,1-.166-.8v-5.084h1.4v-1.642h-1.4V127.93Z" transform="translate(-200.492 -127.93)" fill="none"/></clipPath><linearGradient id="v" x1="-7.576" y1="2.497" x2="-7.537" y2="2.497" xlink:href="#c"/><clipPath id="w"><path d="M212.808,127.124V139.6h2.411v-6.237q0-1.555,1.275-1.555a.976.976,0,0,1,.786.289,1.609,1.609,0,0,1,.244,1.022V139.6h2.411v-6.971a2.836,2.836,0,0,0-.62-2.044,2.38,2.38,0,0,0-1.774-.629,2.439,2.439,0,0,0-2.289,1.206h-.034v-4.036Z" transform="translate(-212.808 -127.124)" fill="none"/></clipPath><linearGradient id="x" x1="-7.075" y1="2.253" x2="-7.04" y2="2.253" xlink:href="#c"/><clipPath id="z"><path d="M24.8,0,5.937,29.451A26.517,26.517,0,0,0,.036,44.98C.013,45.458,0,45.93,0,46.4v.182C.074,73.224,34.461,82.336,48.573,62.154a28.893,28.893,0,0,0,2.612-4.6q.282-.618.542-1.261l.022.038a27.94,27.94,0,0,0,.964-2.875H52.68a26.337,26.337,0,0,0,.933-5.574h.006c.032-.706.05-1.413.032-2.12a27.324,27.324,0,0,0-.754-5.728l-.009,0c-.157-.673-.355-1.341-.569-1.994h.012c-.186-.57-.395-1.13-.617-1.683l-.006.009,0,.01v0c-.012.018-.022.037-.035.054l-.037.05-.126.317a1.527,1.527,0,0,1-.146.283,1.589,1.589,0,0,1-.357.686L50.913,38a1.729,1.729,0,0,1-.083.182l-.068.127-.113.356c-.012.039-.025.077-.04.115a1.582,1.582,0,0,1-.08.454l-.085.257a1.567,1.567,0,0,1-.1.239l-.013.04a1.6,1.6,0,0,1-.061.243l-.087.258-.012.036a1.6,1.6,0,0,1-.177.727,1.588,1.588,0,0,1-.115.418l-.049.114a1.588,1.588,0,0,1-.119.661l-.06.144,0,.085a1.575,1.575,0,0,1-.107.538l0,.025c.005.042.01.084.012.127l.015.276a1.589,1.589,0,0,1-.069.553,1.572,1.572,0,0,1-.083.582l.01.069a1.588,1.588,0,0,1-.008.48,22.748,22.748,0,0,1,.008,2.872,1.582,1.582,0,0,1-.034.488c0,.027,0,.055-.006.082A21.523,21.523,0,0,1,47,56.715C40.494,69.129,22.567,74.17,10.746,62.379c-8.659-8.245-8.779-23.417-.227-31.757,10.178-10.885,28.849-8.387,35.837,4.32a1.648,1.648,0,0,1,.11-.248l.136-.252.031-.121c0-.021.011-.042.017-.063L46.73,34a1.585,1.585,0,0,1,.461-.723,1.593,1.593,0,0,1,.3-.725,1.589,1.589,0,0,1,.376-.635,1.653,1.653,0,0,1,.178-.3l.164-.218c.016-.021.032-.041.049-.061l.061-.073.042-.084c.013-.025.027-.051.041-.076l.136-.235c.021-.037.045-.073.069-.109l.02-.029C41.466,20.443,27.61,17.006,16.059,21.576L28.326,2.424Z" fill="none"/></clipPath><linearGradient id="aa" x1="0" y1="1.107" x2="0.009" y2="1.107" xlink:href="#c"/><clipPath id="ac"><rect width="292.668" height="56.171" fill="none"/></clipPath></defs><g transform="translate(-169.134 -37.956)"><g transform="translate(169.134 37.956)"><g clip-path="url(#a)"><path d="M49.169,176.52a3.422,3.422,0,0,0,.058.656,1.135,1.135,0,0,0,.217.5,1.056,1.056,0,0,0,.425.317,1.691,1.691,0,0,0,.671.116,1.325,1.325,0,0,0,.858-.311,1.162,1.162,0,0,0,.382-.959,1.708,1.708,0,0,0-.094-.6,1.179,1.179,0,0,0-.31-.455,2.214,2.214,0,0,0-.57-.368,8.169,8.169,0,0,0-.873-.339,7.509,7.509,0,0,1-1.2-.5,3.226,3.226,0,0,1-.844-.643,2.3,2.3,0,0,1-.5-.851,3.586,3.586,0,0,1-.159-1.118,2.879,2.879,0,0,1,.851-2.279,3.412,3.412,0,0,1,2.337-.75,5.073,5.073,0,0,1,1.277.152,2.674,2.674,0,0,1,1.01.49,2.3,2.3,0,0,1,.664.866,3.049,3.049,0,0,1,.238,1.263v.288H51.622a2.067,2.067,0,0,0-.26-1.133.956.956,0,0,0-.866-.4,1.447,1.447,0,0,0-.577.1.976.976,0,0,0-.368.267.915.915,0,0,0-.187.382,1.955,1.955,0,0,0-.051.448,1.484,1.484,0,0,0,.2.8,1.8,1.8,0,0,0,.866.6l1.6.693a4.926,4.926,0,0,1,.967.541,2.649,2.649,0,0,1,.6.606,2.021,2.021,0,0,1,.31.714,4,4,0,0,1,.086.866A2.834,2.834,0,0,1,53,178.85a4.162,4.162,0,0,1-2.634.744,3.447,3.447,0,0,1-2.517-.765,2.984,2.984,0,0,1-.758-2.193v-.419h2.078Z" transform="translate(-24.645 -88.41)" fill="#1a1311"/><rect width="2.078" height="10.302" transform="translate(30.439 80.723)" fill="#1a1311"/><path d="M76.364,176.41h.029v-7.055h1.9v10.3H75.931l-2.54-7.214h-.029v7.214h-1.9v-10.3h2.4Z" transform="translate(-37.398 -88.632)" fill="#1a1311"/><path d="M92.728,170.973a1,1,0,0,0-.974-.512.973.973,0,0,0-.642.209,1.386,1.386,0,0,0-.4.678,5.784,5.784,0,0,0-.2,1.226q-.058.757-.058,1.854a18,18,0,0,0,.08,1.89,4.158,4.158,0,0,0,.245,1.118,1.022,1.022,0,0,0,.418.534,1.2,1.2,0,0,0,.584.137,1.387,1.387,0,0,0,.512-.094.87.87,0,0,0,.411-.375,2.431,2.431,0,0,0,.274-.794,7.2,7.2,0,0,0,.1-1.349h2.077a9.341,9.341,0,0,1-.13,1.588,3.591,3.591,0,0,1-.483,1.313,2.4,2.4,0,0,1-1,.88,3.769,3.769,0,0,1-1.666.318,3.919,3.919,0,0,1-1.861-.376,2.532,2.532,0,0,1-1.061-1.082,4.781,4.781,0,0,1-.476-1.688,21.629,21.629,0,0,1,0-4.321,4.789,4.789,0,0,1,.476-1.695,2.668,2.668,0,0,1,1.061-1.1,3.74,3.74,0,0,1,1.861-.4,3.6,3.6,0,0,1,1.753.36,2.461,2.461,0,0,1,.959.916,3.178,3.178,0,0,1,.4,1.2,9.851,9.851,0,0,1,.08,1.2H93a3.74,3.74,0,0,0-.267-1.637" transform="translate(-46.253 -88.41)" fill="#1a1311"/><path d="M110.844,171.057h-3.679v2.424h3.463v1.7h-3.463v2.77h3.824v1.7h-5.9v-10.3h5.757Z" transform="translate(-54.997 -88.632)" fill="#1a1311"/><path d="M126.252,172.538h-2.034v-1.357h.187a2.982,2.982,0,0,0,1.638-.389,1.8,1.8,0,0,0,.757-1.255h1.53v10.215h-2.078Z" transform="translate(-65.009 -88.727)" fill="#1a1311"/><path d="M137.954,178.273a.8.8,0,0,0,.729.325,1.039,1.039,0,0,0,.663-.195,1.273,1.273,0,0,0,.383-.541,3,3,0,0,0,.18-.823q.044-.476.043-1.039v-.491h-.029a1.845,1.845,0,0,1-.743.628,2.641,2.641,0,0,1-1.176.238,2.557,2.557,0,0,1-1.154-.238,2.026,2.026,0,0,1-.772-.664,2.919,2.919,0,0,1-.433-1.01,5.579,5.579,0,0,1-.137-1.277,4.119,4.119,0,0,1,.786-2.713,3.107,3.107,0,0,1,2.518-.938,3.185,3.185,0,0,1,1.7.4,2.667,2.667,0,0,1,.974,1.053,4.412,4.412,0,0,1,.44,1.522,15.587,15.587,0,0,1,.1,1.8q0,1.1-.065,2.114a5.587,5.587,0,0,1-.39,1.8,2.658,2.658,0,0,1-1.024,1.234,3.578,3.578,0,0,1-1.955.454,5.133,5.133,0,0,1-1.061-.108,2.236,2.236,0,0,1-.9-.4,2.128,2.128,0,0,1-.627-.794,2.985,2.985,0,0,1-.253-1.234h1.991a1.655,1.655,0,0,0,.209.9m-.108-3.874a.92.92,0,0,0,.866.447.934.934,0,0,0,.88-.447,3.131,3.131,0,0,0,.26-1.486,7.115,7.115,0,0,0-.043-.808,2.135,2.135,0,0,0-.166-.642,1,1,0,0,0-.347-.419,1.023,1.023,0,0,0-.584-.152,1.052,1.052,0,0,0-.6.152.938.938,0,0,0-.339.426,2.19,2.19,0,0,0-.152.642c-.024.245-.036.512-.036.8a3.131,3.131,0,0,0,.26,1.486" transform="translate(-70.918 -88.727)" fill="#1a1311"/><path d="M155.325,171.21a.807.807,0,0,0-.729-.317,1.045,1.045,0,0,0-.656.194,1.24,1.24,0,0,0-.39.541,2.952,2.952,0,0,0-.18.822q-.043.476-.043,1.039v.505h.029a1.805,1.805,0,0,1,.743-.642,2.643,2.643,0,0,1,1.176-.238,2.56,2.56,0,0,1,1.154.238,2.03,2.03,0,0,1,.772.664,2.932,2.932,0,0,1,.432,1.01,5.578,5.578,0,0,1,.137,1.277,4.03,4.03,0,0,1-.786,2.691,3.148,3.148,0,0,1-2.518.917,3.338,3.338,0,0,1-1.7-.375,2.514,2.514,0,0,1-.974-1.032,4.405,4.405,0,0,1-.44-1.522,15.487,15.487,0,0,1-.1-1.8q0-1.082.065-2.1a5.647,5.647,0,0,1,.389-1.8,2.788,2.788,0,0,1,1.017-1.262,3.437,3.437,0,0,1,1.962-.476,4.311,4.311,0,0,1,1.06.13,2.421,2.421,0,0,1,.9.433,2.186,2.186,0,0,1,.628.8,3,3,0,0,1,.253,1.234h-1.991a1.685,1.685,0,0,0-.209-.923m-1.854,6.175a2.1,2.1,0,0,0,.166.642.988.988,0,0,0,.346.418,1.023,1.023,0,0,0,.584.152,1.05,1.05,0,0,0,.6-.152.939.939,0,0,0,.339-.426,2.221,2.221,0,0,0,.152-.642c.024-.245.036-.512.036-.8a3.131,3.131,0,0,0-.259-1.486.922.922,0,0,0-.866-.447.934.934,0,0,0-.88.447,3.125,3.125,0,0,0-.26,1.486,7.011,7.011,0,0,0,.043.808" transform="translate(-79.156 -88.727)" fill="#1a1311"/><path d="M170.38,169.536h2.15v6.478h.981v1.616h-.981v2.121h-1.9V177.63h-3.636v-1.7Zm.216,2.6-1.991,3.881h2.02v-3.881Z" transform="translate(-87.394 -88.727)" fill="#1a1311"/></g><g transform="translate(22.446 80.521)"><g clip-path="url(#b)"><rect width="12.385" height="12.385" transform="translate(-5.331 5.331) rotate(-45)" fill="url(#c)"/></g></g><g transform="translate(30.439 80.723)"><g clip-path="url(#d)"><rect width="8.754" height="8.754" transform="translate(-5.151 5.151) rotate(-45)" fill="url(#e)"/></g></g><g transform="translate(34.061 80.723)"><g clip-path="url(#f)"><rect width="12.121" height="12.121" transform="translate(-5.151 5.151) rotate(-45)" fill="url(#g)"/></g></g><g transform="translate(42.126 80.521)"><g clip-path="url(#h)"><rect width="12.334" height="12.334" transform="translate(-5.331 5.331) rotate(-45)" fill="url(#i)"/></g></g><g transform="translate(50.09 80.723)"><g clip-path="url(#j)"><rect width="11.458" height="11.458" transform="translate(-5.151 5.151) rotate(-45)" fill="url(#k)"/></g></g><g transform="translate(59.209 80.809)"><g clip-path="url(#l)"><rect width="10.131" height="10.131" transform="translate(-5.108 5.108) rotate(-45)" fill="url(#m)"/></g></g><g transform="translate(64.59 80.809)"><g clip-path="url(#n)"><rect width="11.947" height="11.947" transform="translate(-5.187 5.187) rotate(-45)" fill="url(#o)"/></g></g><g transform="translate(72.093 80.809)"><g clip-path="url(#p)"><rect width="11.947" height="11.947" transform="translate(-5.187 5.187) rotate(-45)" fill="url(#q)"/></g></g><g transform="translate(79.596 80.809)"><g clip-path="url(#r)"><rect width="11.835" height="11.835" transform="translate(-5.108 5.108) rotate(-45)" fill="url(#s)"/></g></g><g clip-path="url(#a)"><path d="M204.125,127.93v2.691h1.4v1.643h-1.4v5.084a1.425,1.425,0,0,0,.166.795.8.8,0,0,0,.69.236c.093,0,.186,0,.279-.009s.181-.015.262-.026v1.677q-.4,0-.777.026c-.251.018-.515.026-.8.026a5.612,5.612,0,0,1-1.144-.1,1.159,1.159,0,0,1-.681-.385,1.646,1.646,0,0,1-.323-.76,6.665,6.665,0,0,1-.087-1.188v-5.381h-1.224v-1.643h1.224V127.93Z" transform="translate(-104.927 -66.952)" fill="#1a1311"/><path d="M215.219,127.124v4.036h.035a2.439,2.439,0,0,1,2.289-1.206,2.379,2.379,0,0,1,1.773.629,2.834,2.834,0,0,1,.62,2.044V139.6h-2.411v-6.482a1.61,1.61,0,0,0-.244-1.022.977.977,0,0,0-.786-.288q-1.275,0-1.275,1.555V139.6h-2.411V127.124Z" transform="translate(-111.373 -66.53)" fill="#1a1311"/></g><g transform="translate(95.565 60.978)"><g clip-path="url(#u)"><rect width="12.145" height="12.145" transform="translate(-6.072 6.072) rotate(-45)" fill="url(#v)"/></g></g><g transform="translate(101.435 60.594)"><g clip-path="url(#w)"><rect width="13.862" height="13.862" transform="translate(-6.237 6.237) rotate(-45)" fill="url(#x)"/></g></g><g clip-path="url(#a)"><path d="M148.636,68.389l.024-.271.1-.27-.1-.27-.016-.27.02-.271-.058-.268.028-.272.006-.271.029-.274-.116-.262.08-.28-.068-.265-.046-.267-.056-.266-.08-.263-.048-.266-.02-.271V63.54l-.1-.255.044-.283-.151-.246.037-.285-.16-.241.04-.287-.115-.25-.114-.251-.068-.261.023-.286-.147-.24.032-.291-.2-.223-.022-.276-.094-.254-.036-.275-.082-.257-.182-.223-.092-.254-.039-.276-.054-.271-.207-.208-.095-.255-.022-.284-.144-.233-.082-.261L146.1,56.6l-.132-.237-.138-.234-.141-.232-.141-.23-.069-.269-.178-.211-.061-.277-.147-.228-.156-.221-.081-.268-.163-.219-.149-.226-.142-.23-.168-.215-.126-.242-.172-.212-.147-.227-.136-.236-.2-.189-.137-.236-.183-.2-.177-.2-.15-.227-.247-.147-.09-.278-.173-.209-.263-.13-.187-.194-.179-.2-.077-.3-.242-.145-.208-.174-.184-.2-.2-.183-.125-.26-.258-.122-.151-.234-.179-.205-.286-.087-.127-.265-.209-.174-.212-.17-.273-.095-.2-.184-.2-.185-.249-.119-.2-.18-.2-.183-.181-.211-.25-.115-.176-.219L137.052,46l-.259-.1-.2-.183-.252-.107-.259-.1-.164-.247-.222-.159-.229-.144-.25-.108-.238-.131-.276-.057-.222-.161-.214-.174-.256-.094-.222-.162-.271-.063-.27-.06-.227-.152-.257-.085-.231-.15-.253-.1L132,43.428l-.251-.1-.245-.116-.26-.075-.212-.21-.252-.1-.256-.09-.256-.087-.273-.04-.286.012-.243-.127-.263-.065-.255-.09-.262-.067-.272-.024-.234-.188L127.918,42l-.265-.06-.278.005-.257-.1-.273-.016-.277.015L126.3,41.8l-.253-.131h-.274l-.268-.034-.26-.107-.271-.017-.284.111-.257-.152-.276.064-.266-.087-.272.019-.269-.05-.268-.057-.274.053-.272.018-.269-.092-.272.144-.271-.028-.27-.019-.273-.082-.268.1-.27,0-.272-.025-.271,0-.272-.006-.264.1-.278-.069-.269.045-.261.095-.278-.036-.265.064-.273,0-.244.2h-.273l-.274,0-.263.067-.257.1-.261.072-.283-.032-.275.016-.243.151-.26.075-.285-.017-.238.155-.257.085-.275.03-.237.144-.288-.011-.249.114-.25.1-.229.164-.3-.032-.257.089-.245.117-.211.2-.286.017-.209.2-.287.018-.214.184-.291.015-.244.12-.191.226-.277.05-.25.1-.2.2-.255.1-.246.114-.227.149-.245.115-.194.2-.252.1-.285.054-.2.188-.185.212-.3.042-.2.19-.2.187-.262.1-.224.153-.163.238-.22.158-.184.2-.285.076-.162.23-.251.121-.24.136-.174.213-.166.222-.195.187L104,48.4l-.245.135-.188.2-.105.282-.224.156-.235.148-.17.212-.14.24-.271.118-.153.228-.129.247-.224.162-.2.182-.154.226-.148.228-.155.221-.243.153-.088.275-.2.186-.1.26-.245.112-.037.017-.15.227-.168.214-.116.249-.047.067-.108.156-.136.235-.123.243-.05.06-.124.15-.164.218-.041.291-.079.048-.184.111v.313l-.247.171-.027.294-.129.238-.126.239-.231.186-.08.262-.069.267-.116.245-.132.236-.081.26-.117.141-.062.075-.141.235-.039.276-.056.269-.061.059-.154.149.031.3-.1.162-.046.071-.052.268-.015.054-.058.207-.1.252-.055.265-.08.258-.124.245-.162.235-.068.262.038.291-.164.238.038.286-.037.269-.072.261-.174.24L95.745,63l.061.285-.059.265-.041.267-.091.259-.113.256,0,.274.032.276-.111.26-.08.265.113.282-.153.259.039.275.008.272-.091.265.117.277-.147.265.042.273.071.272.019.27-.063.271.045.27-.012.27-.044.273.1.266-.031.272-.031.274.112.262-.1.281.118.26-.014.274.021.271.07.263-.011.276.04.268.132.253.028.269.061.264.061.263.021.271.061.263.083.259-.043.287.167.239-.029.286.087.257.094.256.027.274.007.009A20.415,20.415,0,0,0,97.6,70.311l0-.011-.007-.273.049-.138q.013-.155.024-.311l-.016-.1-.126-.267v-.273l-.011-.273.045-.274.073-.273-.038-.272-.061-.273.087-.271.061-.269-.126-.279.1-.179.046-.084-.04-.275,0-.273.1-.265-.1-.283.168-.254-.015-.276-.038-.28.021-.272.107-.259.007-.275.068-.265.08-.193.027-.064-.035-.286.1-.256.11-.254-.026-.287.189-.233-.009-.13-.01-.157.114-.251.086-.259.045-.271.128-.245.01-.03.075-.227,0-.287.107-.252.081-.261.087-.258.129-.243.1-.254.082-.262.207-.207.014-.292.2-.208.1-.252.1-.255.165-.221.036-.265,0-.021.123-.244.19-.207.153-.225h0l.063-.276.134-.238.176-.213.039-.056.023-.033.094-.135.179-.209.054-.289.2-.191.191-.2.1-.261.232-.169.168-.212.089-.274.205-.185.182-.2.086-.28.255-.143.117-.256.2-.191.155-.226.149-.232.235-.155.168-.214.245-.143.13-.254.23-.155.217-.166.161-.225.194-.189.238-.144.126-.267.235-.146.239-.138.164-.227.252-.122.164-.232.225-.154.229-.149.217-.163.242-.132.218-.162.225-.15.186-.211.219-.164.23-.146.237-.136.282-.061.187-.215.28-.06.224-.156.23-.144.24-.128.241-.127.245-.12.253-.1.227-.155.265-.076.253-.1.241-.126.242-.124.232-.151.274-.049.213-.2.26-.086.286-.01.254-.1.235-.153.265-.063.283-.006L115,44.65l.26-.079.285.007.255-.1.282,0,.24-.161.275-.02.253-.115.293.072.244-.17.265-.061.285.052.254-.133.281.04.255-.133.28.043.272-.021.272-.011.267-.058.276.043.263-.132.278.1.268-.082.27-.077.273.035.274.059.271-.02.272-.045.272.025.275-.058.269.091.27.028.272.024.277-.068.269.052.274,0,.265.082.28-.043.253.164.274,0,.261.1.287-.076.257.109.268.047.272.02.269.042.271.037.255.1.268.051.271.039.262.08.254.1.24.15.26.079.262.072.288-.006.258.086.232.16.258.087.242.13.275.041.236.141.246.116h.3l.191.239.3.01.234.143.2.2.3.017.227.155.216.17.287.042.179.239.293.036.183.226.283.059.182.222.256.1.19.208.218.161.3.037.142.271.307.039.175.223.185.2.241.134.185.2.259.109.253.121.2.185.143.251.187.2.3.077.1.3.256.123.191.193.155.23.2.186.229.156.153.229.189.2.158.223.223.164.152.228.164.217.2.185.226.168.133.242.226.169.158.222.121.251.128.242.248.157.071.282.208.188.17.214.063.283.2.2.129.24.151.227.105.254.214.192.086.263.1.258.2.2.021.295.2.2.105.25.086.261.185.214-.018.306.125.242.2.209.108.251-.026.3.158.23.149.235-.017.3.2.218-.013.29.153.236.1.255-.05.3.112.25.028.273.072.261.163.24-.017.283.172.24-.067.293.06.265.168.246.011.274-.015.278.088.261.073.265-.068.283,0,.274.061.267.077.265-.019.274.061.268-.014.273.047.271-.037.274.083.271v.272l-.069.273.045.273.037.273-.128.268.133.277-.112.269.055.275-.071.268-.048.269-.01.271-.1.264.072.282-.067.265-.09.261.1.29-.13.254-.006.276-.052.268-.1.257.029.285-.172.241-.01.277,0,.279-.155.241-.028.275-.146.242-.069.262-.1.255.05.3-.081.261-.173.228-.012.285-.138.239-.074.265-.113.247-.168.226-.095.254-.091.257-.141.235-.025.288-.217.2-.009.3-.143.233-.212.2-.039.286-.122.244-.158.224-.1.259-.174.214-.162.222-.184.2-.068.279-.237.171-.117.248-.14.233-.138.237-.123.245-.154.226-.182.2-.2.19-.122.25-.245.153-.1.274-.246.148-.1.274-.258.136-.143.237-.146.235-.189.2-.259.127-.136.247-.273.112-.108.279-.241.143-.192.194-.237.143-.207.175-.144.248-.208.175-.25.126-.241.133-.143.258-.222.158-.273.089-.195.193-.24.131-.184.211-.214.168-.214.168-.216.168-.218.163-.266.09-.2.19-.276.069-.227.149-.226.154-.27.072-.227.149-.239.133-.244.118-.233.142-.258.092-.237.136-.251.1-.259.084-.229.153-.263.076-.244.123-.247.113-.263.073-.222.186-.293-.013-.256.085-.224.192-.255.093-.264.075-.3-.061-.241.147-.255.1-.266.06-.261.077-.287-.034-.246.148-.28-.01-.272.023-.245.173-.287-.064-.267.049-.267.048-.255.14-.273.017-.272.01-.265.087-.274.009-.274,0-.275-.043-.268.07-.275-.064-.271.012-.27.073-.273-.037-.272.1-.273-.03-.272-.028-.27-.1-.275.081-.272-.021-.269-.056-.27-.037-.268-.048-.279.055-.26-.125-.271-.015-.278.03-.26-.107-.272-.014-.263-.081-.295.11-.26-.094-.258-.1-.27-.039-.275-.018-.27-.043-.242-.155-.252-.113-.286.018-.265-.067-.235-.162-.286,0-.263-.07-.243-.133-.279-.025-.224-.183-.265-.067-.26-.081-.282-.027-.2-.226-.246-.111-.257-.091-.293-.01-.208-.2-.291-.023-.2-.208-.28-.05-.192-.221-.242-.122-.3-.025-.2-.2-.225-.153-.277-.065L109.309,89l-.221-.161-.24-.13-.216-.166-.27-.086-.2-.189L108,88.034l-.25-.117-.266-.1-.141-.265-.244-.129-.239-.137-.168-.225-.206-.175-.269-.1-.2-.183-.237-.143-.125-.266-.254-.127-.154-.233-.162-.222-.229-.156-.234-.151-.2-.187-.158-.226-.137-.244-.192-.192-.279-.116-.145-.234-.129-.248-.2-.191-.224-.169-.078-.285-.2-.188-.22-.174-.116-.255-.133-.238-.181-.2-.182-.205-.17-.213-.047-.183q-.6,1.131-1.259,2.167l.087.051.124.245.122.247.219.172.115.255.23.161.159.22.155.222.175.206.15.229.184.2.177.2.234.153.2.185.185.2.181.2.123.259.255.128.132.251.214.168.209.173.2.184.2.18.2.182.192.192.233.142.182.207.2.18.224.153.224.152.247.122.183.207.284.069.214.164.172.228.227.147.264.091.215.167.185.212.29.046.233.137.19.21.249.11.2.2.286.043.218.166.266.074.183.238.294.016.248.106.2.207.284.03.214.185.286.02.219.177.247.113.245.117.265.07.229.156.294-.012.217.195.279.024.277.021.244.123.241.141.265.061.272.03.256.092.277,0,.243.144.259.079.262.069.284-.027.258.083.271.024.255.1.28-.027.245.174h.273l.261.1.284-.084.26.1.27.029.272,0,.27.01h.272l.265.065.271,0,.271-.016.27.021.27.038.269.083.271,0,.272-.01.271-.1.27,0,.272.065.271-.016.272.022.267-.077.273.024.27-.009.26-.142.284.114.256-.142.272,0,.281.054.252-.153.272-.006.276.006.25-.144.287.073.245-.162.285.048.245-.149.285.032.252-.109.279.005.266-.054.226-.205.3.064.22-.215.281,0,.275-.03.246-.119.273-.041.231-.161.233-.154.258-.081.289,0,.261-.074.2-.232.31.041.216-.185.251-.1.271-.059.242-.123.221-.164.265-.075.241-.125.257-.092.213-.177.256-.1.245-.118.219-.164.2-.194.256-.1.192-.2.235-.133.256-.1.249-.112.165-.242.281-.066.184-.209.208-.175.278-.075.18-.212.226-.149.207-.174.235-.138.155-.239.243-.131.233-.143.153-.239.279-.091.142-.249.21-.17.222-.159.144-.243.291-.085.181-.2.115-.267.184-.2.285-.1.138-.241.14-.239.266-.124.087-.285.255-.137.119-.254.157-.22.272-.127.139-.237.2-.187.162-.217.081-.279.225-.17.064-.286.258-.148.149-.227.052-.292.179-.206.2-.194.106-.254.112-.25.226-.178.163-.219.107-.252.089-.261.167-.216.092-.259.152-.224.094-.257.163-.222.051-.276.119-.244.177-.216.068-.266.07-.263.217-.2-.03-.305.193-.214.031-.277.143-.236.117-.245.076-.259.15-.235-.014-.29.114-.248.131-.243-.055-.3.158-.235.032-.272.071-.261.114-.251-.023-.283.174-.236.008-.276-.007-.277.143-.247.006-.274.123-.255.039-.268.06-.265-.1-.288.033-.268.123-.256-.052-.278.075-.264v-.272l.04-.268.091-.265.006-.27,0-.272.045-.269-.088-.274.12-.268Z" transform="translate(-49.839 -21.635)" fill="#2a4f2c"/></g><g clip-path="url(#z)"><rect width="53.669" height="82.336" transform="translate(0)" fill="url(#aa)"/></g><g clip-path="url(#a)"><path d="M132.923,75.461l.022-.063-.248-.1-.241-.115-.252-.092-.24-.12-.242-.114-.242-.115-.225-.148-.223-.149-.257-.094-.184-.208-.265-.09-.178-.21-.248-.115-.21-.168-.207-.172-.163-.22L129.1,73l-.221-.175.148-.249.147-.235.12-.249.165-.227.143-.238.09-.265.1-.263.171-.227.047-.282.133-.244.082-.266.092-.263.1-.257.076-.266.088-.264.107-.255.123-.254.075-.268.019-.282.118-.254.022-.293.286-.063.247-.1.165-.224-.154-.264L131.3,66.7l-.3-.1-.3-.092-.3-.128.3.026.291-.019.292-.034.293.04.293.026.293-.069.245.039.2-.145.062-.226-.03-.232-.186-.145-.166-.246-.23-.178-.239-.168-.22-.19-.191-.218-.228-.183-.207-.2-.339-.2-.273.25-.177.219-.176.216-.12.256-.21.2-.125.264-.282-.019L129,65.428l-.273.019-.273-.024h-.274l-.272.044-.275-.009-.274.007-.274.006-.274-.016-.282,0,.1-.281.171-.22.071-.269.159-.226.1-.253.1-.254.13-.242.061-.272.1-.255.134-.242v.012l.277-.1.261-.1.14-.22-.072-.209-.194-.13-.238-.019-.247-.106-.249-.1-.266-.045-.244-.119-.255-.082-.27-.033-.251-.1-.255-.085-.033.036-.047.014,0,.28-.055.272-.029.275-.027.276-.085.266-.044.273-.1.263-.021.28-.092.264-.085.264-.049.274-.075.267-.108.257-.03.282-.112.257-.112.247-.161-.167-.173-.236-.226-.188-.191-.22-.19-.221-.2-.216-.292-.2-.274.225-.14.206-.108.227-.131.213-.151.219-.33-.009.039-.3-.044-.277.044-.276-.012-.277-.006-.277V63.53l0-.277.011-.277-.02-.279.286-.095.264-.149.133-.276-.181-.262-.316-.05-.263-.061-.273.022-.267-.038-.261-.078L121,61.68l-.272,0-.266-.045-.271-.072.045.109.029.283-.021.286.029.281-.028.283.055.282-.019.284.028.285-.063.258.059.259.005.259-.049.259.045.26-.04.259.037.283-.324-.032-.305,0-.306-.01-.3.016.111-.246.014-.278.121-.251.029-.274.028-.273.061-.17.263-.056.226-.141.092-.239-.164-.264-.33-.061-.237-.094-.244-.061L118.8,63l-.255-.013-.244-.068-.25-.04-.242-.08-.025.02-.053.02.017.276-.037.275.049.278-.046.273-.016.275-.005.275-.019.274-.016.275-.054.271-.029.275-.023.274-.044.272-.057.269-.084.265-.047.271-.043.269,0,.277-.052.27-.089.263-.05.27-.072.265-.025.276-.077.267-.062.269.014.118.353.182,0-.07.163-.218.184-.205.091-.265.149-.23.152-.228.079-.266.173-.22.063-.272.155-.23.061-.27.142-.238.072-.265.1-.227.239.009.249-.071.249.071.249-.073.25.039.227.016.011.256-.023.276.039.276.033.276-.005.276-.049.275-.013.277.069.276-.077.277.043.277,0,.276-.028.277,0,.278.028.278-.265.038-.256.059-.261.041-.253.082-.259.034-.259.041-.255.062-.253.076-.263.016-.255.072-.261.03-.265.006-.265.011-.007.016.041.27.122.25.1.256.044.277.121.249.083.264.1.259.074.267.172.26L118,73.4l.228-.084.045-.247.084-.226.2-.131.251-.1.255-.09.235-.14.276-.042.243-.117.221-.162.286-.1-.065.3.033.284.03.286-.058.286.061.285-.051.286.037.286.011.286-.067.267.017.268-.025.268v.268l.048.268-.044.269.053.269-.066.268v.268l.056.3-.009.249.071.241.236.082h.25l.271.045.272-.01.265-.069.243-.122.218-.162.077-.258.029-.268-.019-.289.019-.292-.043-.289,0-.29.029-.292-.029-.29-.028-.3.055-.3-.078-.3.045-.3-.036-.267.026-.266.013-.268-.008-.267.034-.268-.052-.268.017-.267.026-.269-.07-.268.044-.267.223-.142.236-.126.245-.107.214-.167.261-.08.218-.156.212-.164.25-.1.21-.165.241-.12.214-.159.039-.045-.2-.341-.222.092-.275.034-.251.114-.27.052-.263.083-.271.06-.278.033-.268.068-.281.078.012-.267-.034-.261,0-.261.016-.26-.018-.261-.006-.261.073-.261-.043-.261-.029-.261.016-.261.049-.261-.023-.262-.011-.27.264.021.256-.042.257.018.256-.027.256.015.258.044.257-.028.257-.029.315-.079-.076.284-.157.216-.1.244-.129.228-.151.215-.072.262-.13.228-.193.188-.1.246-.16.209-.168.2-.106.227.143.24.236-.2.25-.115.2-.184.183-.2.222-.157.224-.156.164-.22.2-.186.209-.174.171-.167.056.233.013.272.033.27.054.265.08.262.1.254.049.265.057.265.031.272.121.246.077.258.07.262.084.258.084.256.138.235.061.268.117.244.143.231.086.258.134.235.1.226-.075.254-.171.217-.173.214-.151.229-.144.234-.16.224-.206.184-.193.195-.145.236-.182.2-.22.168-.162.225-.192.2-.217.169-.179.209-.237.144-.2.19-.2.184-.184.205-.254.123-.214.171-.207.181.013.024.2.352.024-.054.264-.06.226-.145.264-.064.238-.119.209-.174.252-.091.236-.123.206-.171.235-.127.228-.136.214-.157.223-.145.191-.19.223-.146.239-.127.186-.192.174-.2.239-.133.177-.2.175-.2.21-.168.16-.184.187.181.173.219.2.2.14.249.217.179.168.224.181.215.219.175.226.166.213.18.2.193.2.2.228.16.266.108.218.172.217.175.244.132.064.006.043,0,.088-.268.1-.266.184-.219.2-.2.194-.2.215-.185.241-.153.278-.057,0-.033.041-.365Zm-4.165-6.892-.047.276-.094.263-.131.251-.067.269-.08.267-.119.253-.062.275-.122.25-.083.267-.125.247-.136.224-.164-.2-.181-.207-.148-.231-.15-.228-.1-.261-.155-.225-.122-.243-.1-.257-.18-.216-.118-.247-.043-.278-.141-.238-.072-.263-.057-.268-.125-.245-.021-.278-.123-.248-.011-.264.109-.232.083-.222.146-.192.285.037.282-.049.282,0,.284.026.282.025.284-.042.283.03.284.013.283,0,.285-.027.288-.018-.031.291v.281l-.044.275-.061.273-.035.276-.053.274-.133.254Z" transform="translate(-61.15 -32.189)" fill="#2a4f2c"/><path d="M136.544,107.443l-.172-.185-.162-.2-.225-.129-.18-.177-.175-.185-.181-.179-.2-.16-.288-.142.01-.276-.035-.258-.012-.258.051-.261,0-.26-.032-.3,0-.307,0-.3-.043-.273v-.274l.03-.274-.012-.274.008-.275,0-.276.074-.017.211-.179.213-.168.125-.235-.188-.309-.1-.05-.227-.165-.212-.185-.2-.192-.213-.184-.182-.219-.185-.1-.2-.056-.282.174-.172.253-.219.218-.176.272-.28-.012h-.263l-.264-.043-.264.033-.263-.005h-.263l-.263.032-.263-.062-.265.033-.263-.047-.264.024-.263.048-.264-.063-.265.024-.261-.019-.267-.05-.237-.142-.251-.108-.25-.106-.26-.084-.275-.046-.241-.132-.257-.095.011.061-.027.256.021.254.062.254-.006.255-.038.254.041.253-.027.255.019.255.018.255-.029.258-.01.258-.01.256.023.258-.033.257v.258l.04.255v.255l.011.255-.028.255.02.256-.035.27-.055.27.045.272.052.293.241.148.292.088h.253l.244-.078.241-.055.244-.057.174-.174.116-.216.266,0,.266.009.265-.038.265.019.264,0,.266-.014h.265l.264.029.265.023.265-.026.266.03.265-.052.265.046.266,0,.267.01h.253l.078.252.213.2.3-.025.251.018.254-.007.237-.1.214-.064-.1.218-.177.169-.111.221-.176.168-.273.039-.276-.032h-.275l-.276.03-.276-.022-.276-.041-.276.045-.275-.02-.277.034-.275.006-.277-.061-.276.008-.276.056-.276-.014-.277-.031-.276.014-.275-.014-.277-.013-.276.009-.277.02-.276-.043-.276.027-.277.02-.277-.007-.277-.016-.277-.022-.276.015-.275-.01-.275-.029-.28.046-.272-.052-.121-.01.071.265.093.254.117.246.092.253.005.03.026-.02.264-.015.265-.015.262-.043.266.039.265-.039.3.031.3-.023-.123.26-.1.248-.092.254-.092.256-.178.211-.135.231-.1.26-.162.216-.187.2-.167.212-.132.242-.2.189-.18.2-.147.23-.183.2-.177.205-.174.208-.174.208-.216.17-.166.217-.063.031.227.3.047-.006.015-.026.244-.108.258-.081.2-.188.231-.132.263-.081.211-.166.237-.127.214-.161.217-.154.17-.214.252-.116.185-.194.185-.192.156-.219.224-.158.122-.246.2-.155.232-.036.241,0,.247-.009-.156.248-.117.246-.142.232-.141.233-.15.228-.152.226-.162.22-.17.213-.178.206-.23.159-.15.233-.187.2-.218.168-.215.17-.161.226-.227.157-.213.17-.183.2-.221.162-.22.163-.222.16-.026.063.25.326.048-.007.259-.091.243-.127.241-.128.243-.126.217-.172.244-.123.26-.1.2-.2.228-.148.245-.125.2-.189.234-.144.182-.208.193-.193.2-.186.22-.166.206-.181.182-.205.164-.218.167-.216.185-.2.161-.22.157-.224.14-.235.126-.242.149-.253.252.016.244.011.243-.025.232.061-.108.208-.085.256-.094.254-.144.23-.124.238-.15.225-.127.238-.171.211-.181.2-.141.23-.2.184-.175.2-.147.227-.194.189-.211.169-.146.235-.209.172-.231.145-.166.219-.226.15-.216.162-.219.156-.2.181-.229.145-.181.209-.227.147-.234.136-.2.181-.029,0,.067.193.139.154-.011-.02.26-.08.264-.076.252-.1.269-.062.244-.125.227-.16.268-.073.247-.119.213-.177.234-.139.245-.123.2-.181.244-.128.205-.176.212-.17,0,.049.269.056.255.1.263.079.23.147.23.145.211.179.084.264.143.24-.02.278.054.268-.014.05.046-.046.273,0,.275.03.266-.093.279.035.259-.094.273-.04.23-.153.241-.12.207-.172.2-.188.138-.236.128-.24.081-.26.122-.245.061-.265.038-.271.091-.258.061-.266-.01-.277.034-.27.1-.259-.009-.275.055-.267.03-.27.009-.273.04-.269v-.274l.073-.248.253-.131.212-.214.163-.228-.121-.2-.123-.205-.211-.15-.191-.171-.221-.14-.165-.2-.2-.168-.214-.147-.048-.05-.222-.077-.23.146-.176.168-.131.2-.145.191-.111.224-.271.013-.264.007-.264-.053-.265-.01-.265,0-.265.012-.264-.008-.265.027h-.265l-.264.021-.264-.016-.265.032-.265-.048-.265.009-.265.04-.264-.045-.265.011-.266.013-.275.008.185-.209.115-.225.094-.235.14-.206.121-.24.279.046.273-.051h.272l.272.041.272-.035.273.008.274.047.272-.057.273.063h.273l.272-.072.274.067.274-.053.272.03.272-.05.273.054.274.011.272.006.273-.048.274.011.273.012.275.009.274.014.274.006.241-.067.206-.109.107-.2-.069-.228Zm-3.433-2.411-.015.246-.261-.011-.265.019-.265.02-.265-.019-.265.03-.266,0-.264-.058-.264-.006-.266.023-.264-.006-.265-.009-.266.044h-.264l-.266-.03-.266.012-.267-.009,0-.251.028-.251-.035-.251,0-.251.014-.246.26.006.265-.023.265-.023.265,0,.265.012.265,0,.265.047.264-.02.266-.007.264-.007.265-.027.266.034.265-.037.266.016.266,0,.279.011-.015.263-.036.25.059.25Zm0-1.9-.274-.013-.265-.01-.265.019-.265.021-.265-.019-.266.03-.264,0-.264-.058-.266-.006-.264.023-.265-.006-.266-.008-.264.042h-.266l-.266-.03-.273.01.006-.3,0-.3.028-.3-.032-.3h.274l.265.014.265,0,.265-.023.265-.023.265,0,.265.011.264,0,.266.047.264-.02.265-.007.266-.007.265-.026.266.032.265-.036.28.026-.015.306-.036.3.059.3Zm-1.087,9.641.154-.234.149-.237.163-.226.164-.225.15-.235.184-.215.121-.253.126-.249.12-.251.1-.261.149-.236.256-.038.26.018.01.071-.044.262-.06.26.032.269-.036.264-.048.262-.042.262-.017.267-.02.265-.063.26-.023.268-.054.261-.129.239-.111.24-.185.184-.262.06-.271.006-.291.034-.29-.011-.289-.041-.291,0-.29-.019-.3-.012.224-.177.173-.222.194-.2.2-.2Z" transform="translate(-65.198 -52.413)" fill="#2a4f2c"/><path d="M120.581,111.393l.19-.182.237-.116.192-.177.223-.139.2-.162.194-.174.208-.194-.144-.17-.05-.21-.264.136-.264.092-.267.078-.272.061-.249.129-.261.041-.024-.261-.017-.266.039-.267.013-.267-.008-.268.007-.266-.062-.268.069-.267-.067-.266.038-.267.01-.267-.019-.268-.027-.266.052-.268-.041-.268.053-.268-.05-.285.288-.007.271.036.271.017.271-.07.272.006.272.059.23-.086.222-.058.126-.209-.2-.358-.16-.211-.221-.153-.157-.215-.2-.169-.16-.213-.328-.183-.228.237-.214.194-.122.255-.161.225-.09.022.058-.278-.051-.269.063-.269-.054-.268v-.269l.021-.27,0-.269v-.269l.007-.27.019-.27-.048-.27.028-.271,0-.267.247-.117.244-.135.137-.236-.166-.227-.272-.116-.061-.037-.259,0-.255-.019-.254-.032-.251-.063-.263.047-.254-.036-.256-.023-.249-.085-.038.032-.01.036.057.26-.022.267.021.263,0,.265.036.264-.042.264.045.264,0,.265.01.266-.028.266-.02.265,0,.267.012.266.021.267-.048.266.016.267.03.274-.3.015-.287-.051-.286.018-.286.029-.286-.034-.284-.044-.286-.021-.066.01.076.247.126.228.1.236.052.256.031,0,.014-.01.287.019.286-.022.285.046.287-.065.286.041.233,0,.031.264-.038.265-.008.267,0,.265.037.267-.055.265.007.266.068.266-.011.266.008.266-.036.266.01.265v.266l-.048.266.013.267.025.265.012.267-.025.268.023.269-.259.058-.246.076-.254.048-.256.026-.256.021-.249.067-.255.021-.253.041-.037-.006.128.255.075.278.109.266.113.264.129.255.1.27.127.258.091.273.023.07.138.241.208.13.187-.126.076-.233.072-.227.2-.178.228-.16.224-.165.256-.115.224-.165.227-.159.238-.145.247-.135.2-.2.228-.127.2-.164Z" transform="translate(-60.865 -52.535)" fill="#2a4f2c"/><path d="M175.487,68.294l-.053.274-.1.259-.125.249-.047.279-.143.241-.077.27-.146.239-.12.252-.085.267-.094.263-.16.232-.133.245-.091.266-.118.253-.153.234-.111.257-.17.226-.159.231-.017.053.3.238.025.04.035-.028.23-.144.2-.182.242-.126.205-.177.186-.2.22-.158.2-.185.19-.193.2-.182.215-.167.2-.182.193-.19.184-.2.125-.25.186-.2.211-.175.184-.2.142-.232.162-.225.253-.018.239-.031.209-.08.1-.192-.067-.218-.192-.137-.208-.113-.215-.156-.268-.054-.2-.179-.236-.114-.261-.069-.229-.132-.213-.162-.244-.1-.245-.091.01.034-.107.261Z" transform="translate(-90.741 -35.445)" fill="#2a4f2c"/><path d="M155.124,68.986l.151.23.146.232.1.256.132.24.166.224.093.26.119.247.113.252.1.256.029.281.134.246.068.268.044.252.065.247.139.219.108.228.132.225.238.109.254,0,.241-.048.239-.07.208-.142.214-.146.137-.221.073-.249.065-.248.029-.257-.066-.264-.05-.261-.057-.26-.108-.245-.153-.219L158.1,70.4l-.14-.228-.17-.208-.233-.147-.172-.205-.184-.2-.232-.138-.209-.167-.238-.125-.212-.164-.222-.15-.242-.116-.235-.125-.229-.138-.247-.1-.043-.033-.31.274.074.077.135.238Z" transform="translate(-81.007 -35.668)" fill="#2a4f2c"/><path d="M168.247,70.84l-.183-.162-.163-.218-.2-.172-.174-.2-.2-.175-.234-.14-.157-.225-.2-.176-.178-.2-.357-.162-.336.2-.118.278-.185.234-.158.252-.19.232-.154.239-.247.008-.263.038-.262,0-.263.023-.264-.068-.263.047-.263-.014-.263.01-.263,0-.263-.01-.264-.034-.263,0-.263.007-.263.052-.265-.031-.241-.021-.059-.245.067-.268-.054-.267-.011-.268.055-.268-.052-.267.069-.268-.06-.268.02-.268-.021-.267.013-.268.023-.268,0-.268.021-.268-.016-.268v-.268l-.034-.268v-.268l.01-.268.031-.268-.044-.268.007-.269.033-.268.01-.268-.048-.271.007-.282.284,0,.271.055.271-.035.271.013.272-.029.271.01.271.017.272-.024.271.032.271-.055.271.07.272-.01.27-.019.271,0,.272,0,.272-.019.271.023.272-.028.272-.014h.272l.273.03.272-.02.235-.057.192-.123.1-.213-.042-.25-.161-.2-.221-.15-.211-.16-.178-.2-.215-.154-.16-.215-.213-.161-.215-.159-.181-.194-.327-.161-.307.163-.168.241-.171.24-.119.275-.156.25-.18.243-.275-.051-.268.066-.268-.019-.268-.022-.268.01-.269.032-.268.012-.269-.068-.269.042-.269.019-.268-.043-.268-.007-.269.031-.269-.025-.269.006-.269.04-.269-.05-.269.029-.269-.014-.27.011-.269-.046-.268.044-.27.021-.269-.039-.269.048-.269-.03-.27-.017-.269-.006-.268.015-.27.01-.269-.017h-.27l-.27.022-.27.015-.27-.052-.271.026-.27.029-.287-.023-.286-.036-.287.028-.285-.018-.283-.043-.282-.046-.1.036.1.288.126.275.048.3.083.287.033.036.04-.045.268.018.26-.08.27.057.263-.013.264-.08.276.074.275-.006.276-.054.276.054.276-.061.276.068.276-.019.276-.044.275.042.276-.04.276.028.276,0,.277-.019.276-.019.277.07.278-.071.278.03-.032.268.038.268-.041.268.024.266.02.268.027.267-.049.268v.268l.023.268-.01.268-.011.267-.017.269-.008.268,0,.269.062.268-.054.268.044.267,0,.268-.007.268.022.268-.036.268-.033.269.054.268-.043.269,0,.27.034.276-.278,0-.273-.02-.272.051-.272-.053-.272,0-.272-.02-.273,0-.272.045-.272-.022-.272-.027-.271.043-.272.022-.272-.01L155,70.485l-.273-.02h-.273l-.272.007-.273-.035-.273.01-.274-.011-.287.046-.287.02-.285-.03-.285-.028-.285-.017-.285-.006-.074-.018.134.27.077.286.091.282.094.28-.009.032.027,0,.264-.028.265-.006.265-.015.266.025.263-.071.274.058.275-.066.275.052.274.023.275-.036.275-.01.275-.019.274.033.275-.013.275.041.274-.042.274-.01.275-.017.275.044.275.027.276,0,.275-.066.275.028.276-.023.3.01-.007.3-.042.284.009.285,0,.282.041.285-.031.285.019.285.013.285-.043.286.043.276-.042.276-.015.277.044.279-.005.279-.017.276-.01.279-.026.276.046.276-.061.276.012.27.156.222.24.112.266.025.276-.045.274-.02.273-.036.277-.05.221-.178.108-.252.059-.27,0-.259-.019-.258-.016-.26-.04-.274,0-.276.047-.276-.036-.275.01-.275-.015-.276v-.273l.032-.267-.036-.267v-.266l.039-.267-.057-.268.029-.267v-.267l.024-.268-.032-.279.276.05.265,0,.267-.051.266.014.266-.031.266.036.266-.039.267.036.267.016.266-.007.266.021.267-.006.266-.047.267.045.266-.007.266.006.266-.043h.266l.266.028.267-.019.267-.018.267.036.267-.026.267.033.268.007.268.019.248-.078.228-.123.058-.253Z" transform="translate(-79.328 -31.97)" fill="#2a4f2c"/><path d="M168.614,101.928l-.2-.2-.238-.149-.191-.211-.245-.143-.216-.177-.211-.187-.338-.1-.352.149-.106.218-.136.2-.134.2-.137.182-.254.032-.267,0-.267.02-.267-.047-.267.041-.268-.022-.267-.013-.268-.01-.266.041-.268-.017-.268.014-.267.016-.269-.064-.267.051-.267-.02-.267.043-.268-.042-.268.041-.268-.05-.268-.013-.268.043-.268-.033-.269-.01H159.7l-.27-.011-.267.039-.268-.022-.268.044-.268-.035-.268-.021-.268,0-.268.047-.27-.044-.269.026-.265-.015-.235-.1-.247-.085-.249-.08-.246-.092-.243-.094-.237-.112-.257-.063-.225-.143-.264-.049-.052-.067-.011.074.085.278-.046.291.046.284.033.285-.044.289.04.286.016.287-.039.287.033.272.007.273,0,.272-.018.271.005.272-.026.272.055.273,0,.273.006.271-.08.274.066.271-.037.273.022.272-.008.273.011.273-.048.273.041.272-.045.273.013.273.039.274-.028.271,0,.274,0,.274,0,.274.055.272-.007.272-.062.275-.005.272.05.273-.047.274,0,.272.041.273.026.274-.06.273-.01.274.013.275-.017.275.032.3,0,.3-.006.3,0,.3-.07.306.033.309-.041.307.025.261.187.166.225.1.256.046.286-.05.282-.024.281-.041.25-.127.243-.153.047-.286-.009-.282.052-.211-.039-.241.3.033.273.03.273-.03.272.036.274-.025.274-.007.273.007.273-.013.274.006.273-.042.272.076.274-.035.274.008.274.019.273-.024.274-.032.274.041.273.008.274-.029.274-.026.275.054.273-.026h.549l.274.036.274-.042.273-.03.274.008.274.026.275.037.275-.017.274-.005.276-.028.275.03.289-.029,0,.268-.025.253-.024.25.115.228.137.174.214.127.251,0,.254.013.255-.01.242-.092.25-.048.229-.121.133-.222.079-.246-.052-.25.024-.254-.049-.252.011-.252-.017-.26.011-.262,0-.26.01-.26-.025-.259.016-.272.022-.269-.049-.27.03-.27.028-.27-.049-.272v-.272l.037-.27-.064-.271.076-.27-.078-.271.057-.27-.038-.272,0-.272.035-.27.015-.272-.037-.27.046-.272-.021-.272-.02-.271.027-.271,0-.272-.049-.271.026-.271v-.273l.009-.271,0-.27-.034-.27.006-.273,0-.272.053-.272-.034-.271.021-.272-.011-.273-.029-.273.017-.274.238-.11.186-.181.2-.167.08-.243-.108-.26Zm-8.192,9.2,0,.276,0,.276-.016.277.035.276,0,.277.021.277-.046.278.041.278-.021.278-.271-.014-.272-.01-.272.04-.272-.016-.271.014-.271.015-.271-.063-.272.052-.272-.021-.272.042-.272-.042-.273.041-.272-.051-.255-.006-.037-.259.032-.276.011-.276v-.277l.011-.276-.039-.277.022-.276-.044-.277.035-.276.022-.276,0-.277-.048-.277.045-.277-.027-.277.016-.278.009-.277-.014-.277-.02-.279.272-.007.271,0,.271.016.273-.038.271.048.271-.054.271.049.272.013.272-.056.272.066.272-.03.272-.024.274.05.287-.044-.023.292.028.276-.048.276.038.277-.008.277-.018.277.049.277-.071.277Zm-.033-6.224.033.277,0,.276,0,.277-.016.277.035.276,0,.277.021.278-.046.277.041.278-.021.277-.271-.014-.272-.01-.272.041-.272-.016-.271.014-.271.015-.271-.061-.272.05-.272-.021-.272.043-.272-.043-.273.041-.272-.05-.255-.006-.037-.259.032-.276.011-.276v-.278l.011-.276-.039-.278.022-.276-.044-.277.035-.277.022-.276,0-.278-.048-.276.045-.278-.027-.276.016-.277.009-.279-.014-.278-.02-.278.272-.007.271,0,.271.015.273-.037.271.048.271-.053.271.049.272.015.272-.058.272.067.272-.03.272-.024.274.05.287-.046-.023.292.028.276-.048.278.038.276-.008.278-.018.276.049.277Zm5.807,6.224,0,.276,0,.276-.016.277.036.276,0,.277.022.277-.047.278.041.278-.022.278-.27-.014-.272-.01-.271.04-.273-.016-.271.014-.272.015-.272-.063-.272.052-.272-.021-.273.042-.273-.042-.273.041-.273-.051-.255-.006-.037-.259.032-.276.011-.276v-.277l.012-.276-.04-.277.023-.276-.044-.277.034-.276.022-.276,0-.277-.047-.277.044-.277-.025-.277.014-.278.011-.277-.015-.277-.019-.279.271-.007.273,0,.272.016.272-.038.272.048.271-.054.273.049.272.013.273-.056.272.066.272-.03.273-.024.275.05.287-.044-.024.292.028.276-.047.276.037.277-.007.277-.017.277.049.277-.071.277Zm-.032-6.224.032.277,0,.276,0,.277-.016.277.036.276,0,.277.022.278-.047.277.041.278-.022.277-.27-.014-.272-.01-.271.041-.273-.016-.271.014-.272.015-.272-.061-.272.05-.272-.021-.273.043-.273-.043-.273.041-.273-.05-.255-.006-.037-.259.032-.276.011-.276v-.278l.012-.276-.04-.278.023-.276-.044-.277.034-.277.022-.276,0-.278-.047-.276.044-.278-.025-.276.014-.277.011-.279-.015-.278-.019-.278.271-.007.273,0,.272.015.272-.037.272.048.271-.053.273.049.272.015.273-.058.272.067.272-.03.273-.024.275.05.287-.046-.024.292.028.276-.047.278.037.276-.007.278-.017.276.049.277Z" transform="translate(-80.846 -52.735)" fill="#2a4f2c"/></g></g><g transform="translate(301.093 72.969)"><g transform="translate(0 0)" clip-path="url(#ac)"><path d="M15.344,4.027v11.04h6.538l1.447-2.188c.154-.219.309-.33.472-.33a.843.843,0,0,1,.531.287l2.691,2.5a.961.961,0,0,1,.37.685c0,.373-.281.558-.842.558H15.344v4.949q0,1.041.059,3.8c.006.4.009.676.009.827a1.186,1.186,0,0,1-.3.944,3.72,3.72,0,0,1-2.175.46,1.146,1.146,0,0,1-.861-.244,1.16,1.16,0,0,1-.17-.731l.056-4.776V16.581h-9.1q-1.074,0-2.289.114L0,14.952q1.675.116,2.947.114h9.019V4.027H4.236q-1.06,0-2.289.114L1.376,2.382q1.671.13,2.947.13H20.611L22.055.367c.145-.222.29-.33.444-.33a.852.852,0,0,1,.543.272l2.691,2.475a.966.966,0,0,1,.373.685c0,.373-.284.558-.845.558ZM3.163,5.3A15.354,15.354,0,0,1,7.615,8.3a4.36,4.36,0,0,1,1.416,3.175,2.34,2.34,0,0,1-.571,1.657,1.742,1.742,0,0,1-1.333.645,1.2,1.2,0,0,1-1.046-.629,7.3,7.3,0,0,1-.543-1.5A21.856,21.856,0,0,0,2.777,5.742ZM21,5.156l3.462,1.759c.515.268.774.515.774.744,0,.259-.191.41-.574.457a5.8,5.8,0,0,1-.759.031,25.778,25.778,0,0,1-6.168,5.906l-.457-.373a33.425,33.425,0,0,0,3.348-7.165c.228-.762.352-1.216.373-1.358" transform="translate(0 0.076)" fill="#2a4f2c"/><path d="M14.087,2.193H29.2L30.147.807a.62.62,0,0,1,.475-.33.884.884,0,0,1,.528.228l2.3,1.8c.352.268.531.509.531.731,0,.315-.407.7-1.219,1.172V20.628q0,.042.074,3.073c.006.475.012.778.012.9a.857.857,0,0,1-.284.728,3.622,3.622,0,0,1-2.077.457,1.132,1.132,0,0,1-.932-.3,2.5,2.5,0,0,1-.1-.956V23.6H13.732v.771c0,.623-.1,1.009-.287,1.16a3.462,3.462,0,0,1-2,.4,1.417,1.417,0,0,1-.873-.185A.938.938,0,0,1,10.341,25l.012-.756c.059-1.8.086-2.752.086-2.845V4.624q0-2.546-.142-3.946Zm-.355,9.682h6.137V3.711H13.732Zm0,10.194h6.137V13.39H13.732ZM29.462,3.711H23.05v8.164h6.412Zm0,9.679H23.05v8.679h6.412Z" transform="translate(21.476 0.994)" fill="#2a4f2c"/><path d="M41.892,8.3l1.972.629c.432.136.645.324.645.574,0,.333-.376.54-1.129.626a29.37,29.37,0,0,1-3.737,9.34,22.51,22.51,0,0,0,7.029,4.56l-.043.586A4.259,4.259,0,0,0,44.8,25.877a3.926,3.926,0,0,0-.842,1.472,20.725,20.725,0,0,1-6.115-5.489,23.3,23.3,0,0,1-8.229,5.776l-.342-.472a43.087,43.087,0,0,0,4.039-3.6,25.94,25.94,0,0,0,3.033-4,26.361,26.361,0,0,1-2.931-9.179,21.479,21.479,0,0,1-2.765,3.3c.543-.145,1.071-.281,1.586-.417l.13.558a35.707,35.707,0,0,1-4.351,2.6v4.662c0,.207.006.531.015.969q.074,3.379.071,4.119a1.4,1.4,0,0,1-.2.873c-.287.352-.984.531-2.089.531a1.133,1.133,0,0,1-.8-.2,1.268,1.268,0,0,1-.16-.771c0-.012.006-.052.015-.13.043-2.212.059-3.727.059-4.548V17.913q-1.046.486-3.462,1.515c-.031.133-.046.234-.059.3-.068.466-.228.7-.488.7s-.466-.234-.629-.7l-1.2-3.517c.164-.019.478-.062.947-.13q2.129-.287,4.894-.9V8.388H22.21a23.047,23.047,0,0,1-2.675,5.5l-.558-.185q.828-4.045,1.031-5.319a44.9,44.9,0,0,0,.558-6.134l2.922.645c.562.111.839.293.839.54,0,.287-.333.525-1,.716q-.255,1.273-.645,2.7h2.234v-3.2A34.608,34.608,0,0,0,24.786.2l3.607.413c.5.056.744.228.744.515s-.376.552-1.129.827V6.858h.6l.984-1.487c.145-.219.278-.33.4-.33a.7.7,0,0,1,.46.287l1.709,1.845a1.9,1.9,0,0,1,.309.444l.059-.173A35.322,35.322,0,0,0,34.32.051L37.868,1.1c.543.16.821.364.821.614,0,.3-.392.525-1.163.657a43.884,43.884,0,0,1-1.978,4.4h5.326l1.373-2.015c.164-.219.321-.33.472-.33a.883.883,0,0,1,.558.287l2.579,2.373a.912.912,0,0,1,.342.657c0,.373-.281.558-.845.558Zm-13.885.086V14.38l2.32-.614-.358-.231q1.49-3.36,2.231-5.218a1.539,1.539,0,0,1-.5.071ZM40.2,8.3h-5.48c-.3.506-.521.882-.688,1.129A20.826,20.826,0,0,0,37.628,17.2,26.892,26.892,0,0,0,40.2,8.3" transform="translate(39.574 0.105)" fill="#2a4f2c"/><path d="M35.07,17.872q1.236-.375,2.836-.947l.244.531a25.7,25.7,0,0,1-3.536,2.8q-3.388,2.217-3.619,2.388c-.056.654-.219.984-.488.984a.415.415,0,0,1-.37-.244c-.012-.019-.083-.179-.219-.484L28.43,19.329q1.662-.2,3.548-.614V9.776h-.469a21.165,21.165,0,0,0-2.289.114l-.589-1.743q1.847.116,2.962.114h.386V3.6a30.3,30.3,0,0,0-.127-3.19L35.372.8c.534.059.8.228.8.512,0,.25-.367.515-1.1.8V8.261h.145l.845-1.287a.58.58,0,0,1,.441-.3.713.713,0,0,1,.5.272l1.518,1.716a1.013,1.013,0,0,1,.315.614c0,.333-.293.5-.873.5H35.07Zm10.651,6.2a21.589,21.589,0,0,1-6.285,3.36l-.268-.515a31.847,31.847,0,0,0,5.881-5.076,16.8,16.8,0,0,0,2.746-4.563H45.98a17.359,17.359,0,0,1-3.363,4.206A18.622,18.622,0,0,1,36.9,25.163l-.342-.484q5.012-3.948,6.6-7.4H41.784a17.2,17.2,0,0,1-6.14,4.733l-.355-.457a39.753,39.753,0,0,0,3.662-4.3,12.029,12.029,0,0,0,1.7-3.376h-1.1c-.728,0-1.484.04-2.277.114l-.586-1.759q1.814.13,2.95.13H51.417l.759-1.1a6.1,6.1,0,0,1-1.388.173,1.011,1.011,0,0,1-.842-.272,1.137,1.137,0,0,1-.114-.629H42.472c-.049.639-.744.957-2.089.957a1.3,1.3,0,0,1-.8-.185.743.743,0,0,1-.2-.614c0-.173.006-.41.015-.716.056-1.5.083-2.5.083-3V3.9q0-1.786-.114-3.545L42.8,1.7h6.757l.987-1.2A.725.725,0,0,1,51.031.18a1.038,1.038,0,0,1,.6.275l1.944,1.571c.278.222.417.417.417.586,0,.238-.349.574-1.046,1V6.487l.1,3.619v.272a.9.9,0,0,1,.488.244L55.8,12.695a.947.947,0,0,1,.358.642c0,.364-.293.543-.886.543H43.919a18.649,18.649,0,0,1-1.046,1.876h8.642l1.018-1.247a.5.5,0,0,1,.358-.241.7.7,0,0,1,.441.213l2.021,1.672a.965.965,0,0,1,.413.657q0,.375-1.1.9-.541,5.679-1.373,7.495a3.292,3.292,0,0,1-2.49,1.888,14.384,14.384,0,0,1-2.163.2,6.5,6.5,0,0,0-.1-1.1A2.212,2.212,0,0,0,47.11,24.75c-.2-.086-.67-.259-1.4-.515ZM42.487,5.3h7.343V3.213H42.487Zm0,3.706h7.343V6.817H42.487Zm3.69,14.671,1.1.043c1.243.037,1.932.059,2.077.059.688,0,1.126-.164,1.317-.488q.588-.972,1-6.007H50.7a20.431,20.431,0,0,1-4.523,6.393" transform="translate(59.29 0.374)" fill="#2a4f2c"/><path d="M45.265,6.5c.447.037,1,.059,1.645.059h1.333l.886-1.274Q49.313,5,49.517,5a.7.7,0,0,1,.441.259l1.7,1.731a.869.869,0,0,1,.318.586q0,.5-.833.5H46.894a19.861,19.861,0,0,0-2.1.114l-.3-.889c-.6.555-1.154,1.037-1.66,1.447l2.336.913H50.6l.83-1.015c.154-.191.287-.284.4-.284a.779.779,0,0,1,.441.228l1.919,1.614a.814.814,0,0,1,.33.614c0,.222-.305.549-.916.987v3.2c0,.114.031.75.086,1.9v.4c0,.506-.349.836-1.046,1a.276.276,0,0,0,.074.059c.028.019.043.031.043.04l1.814,1.574a.857.857,0,0,1,.346.645c0,.191-.133.386-.4.586-.077.059-.188.139-.33.244-.077.046-.154.1-.244.17v2.348c0,.247.019.818.059,1.716.019.2.031.37.031.512a.989.989,0,0,1-.747,1.046,5.693,5.693,0,0,1-1.444.142.89.89,0,0,1-.719-.244,1.566,1.566,0,0,1-.114-.756v-.315H45.864v.228a.948.948,0,0,1-.327.83,3.193,3.193,0,0,1-1.7.342c-.629,0-.947-.268-.947-.8,0-.114.006-.253.015-.417.049-.784.074-1.472.074-2.073V22.634a14.66,14.66,0,0,1-3.351,3.974l-.444-.386a31.675,31.675,0,0,0,1.3-2.953,26.24,26.24,0,0,0,.781-2.823,28.608,28.608,0,0,0,.728-6.307V12.066c0-.849-.015-1.725-.056-2.632a18.04,18.04,0,0,1-2.561,1.546l-.346-.488a33.942,33.942,0,0,0,6.325-9.352c.04-.1.12-.324.244-.685l.13-.386,3.363,1.015c.441.133.66.318.66.555,0,.268-.191.444-.571.531a17.19,17.19,0,0,1,3.289,1.688Q55.254,5.7,55.253,7.333A1.473,1.473,0,0,1,54.9,8.392a1.041,1.041,0,0,1-.774.342q-.713,0-1.589-1.188a33.421,33.421,0,0,0-4.335-4.7A29.489,29.489,0,0,1,45.265,6.5m-.589,11.21c-.056.315-.139.725-.256,1.231l1.574.629h4.924l.932-1.129h-.244a.915.915,0,0,1-.771-.256.985.985,0,0,1-.117-.475Zm.3-3.3c-.009.648-.04,1.243-.086,1.786h5.825V14.411Zm0-1.515h5.739v-1.7H44.978Zm.886,11.669h5.153V21.1H45.864ZM56.4,2.915l3.221.4c.583.068.873.241.873.515,0,.25-.179.46-.543.629-.133.059-.33.133-.586.228V15.312c0,.151.012,1.129.043,2.931l.015.759a.956.956,0,0,1-.617,1,4.027,4.027,0,0,1-1.444.228,1.046,1.046,0,0,1-.79-.216,1.069,1.069,0,0,1-.126-.626c0-.049,0-.312.012-.787.04-1.182.056-2.259.056-3.231V6.33c0-.867-.025-1.854-.083-2.959Zm5.7-2.7,3.462.413c.5.059.744.228.744.515,0,.238-.173.447-.528.629-.077.04-.265.117-.558.244V20.49c0,.676.009,1.28.031,1.814.015.734.025,1.327.025,1.774a3.436,3.436,0,0,1-.6,2.289c-.565.626-1.9,1.024-4.008,1.185a2.91,2.91,0,0,0-.83-2.246,6.641,6.641,0,0,0-2.549-1.3v-.589l4.051.086a1.077,1.077,0,0,0,.7-.127.742.742,0,0,0,.173-.586V3.273c0-1.117-.04-2.138-.114-3.061" transform="translate(81.382 0.145)" fill="#2a4f2c"/><path d="M68.676,7.149l.358.13c.515.17.771.37.771.6,0,.315-.333.472-1,.472-.065,0-.17,0-.312-.012a25.216,25.216,0,0,1-2.521,2.129h3.721l1.16-1.629c.16-.219.321-.33.472-.33a.888.888,0,0,1,.531.287l2.262,2.018a.84.84,0,0,1,.315.614c0,.38-.262.571-.787.571h-9.75V14.27h4.582l1.176-1.657c.151-.21.3-.318.441-.318a.981.981,0,0,1,.558.3l2.289,2.046a.785.785,0,0,1,.3.6c0,.373-.262.558-.787.558H63.894V18h6.788l1.3-1.731a.6.6,0,0,1,.457-.315.939.939,0,0,1,.531.287l2.518,2.129a.783.783,0,0,1,.33.6c0,.361-.262.543-.787.543H65.082a22.184,22.184,0,0,0,11.1,3.289v.6A4.633,4.633,0,0,0,73.9,26.526a20.017,20.017,0,0,1-6.282-3.018,16.125,16.125,0,0,1-3.724-3.561v3.2q0,.861.043,2.5c.009.219.015.4.015.543a1.094,1.094,0,0,1-.858,1.117,5.423,5.423,0,0,1-1.515.185,1.634,1.634,0,0,1-.861-.157c-.154-.1-.228-.33-.228-.673,0-.191,0-.413.012-.673.04-1.086.056-2.009.056-2.774v-2.3a28.689,28.689,0,0,1-11.577,5.906l-.272-.515a33.179,33.179,0,0,0,9.044-6.791H51.53q-1.074,0-2.293.114l-.571-1.746q1.847.116,2.95.117h8.942V15.8H54.32c-.713,0-1.484.037-2.3.114l-.562-1.759c1.111.077,2.092.114,2.95.114h6.152V12h-7.6q-1.074,0-2.293.114L50.1,10.352c1.117.077,2.1.114,2.95.114h4.236q-.13-.241-.617-1.373a10.538,10.538,0,0,0-1.089-1.944H51.66q-1.078,0-2.3.114L48.8,5.5c1.1.077,2.089.114,2.947.114h2.663A2.4,2.4,0,0,1,53.792,4.6,14.323,14.323,0,0,0,51.743.928L52.03.441a10.242,10.242,0,0,1,2.99,1.145,3.075,3.075,0,0,1,1.749,2.5,1.755,1.755,0,0,1-.676,1.53h2.092V3.2c0-1.145-.043-2.172-.13-3.089l3.292.355c.515.059.771.213.771.46,0,.287-.349.54-1.046.756V5.618H63.3V3.159c0-1.145-.046-2.169-.13-3.076L66.43.441c.506.059.759.2.759.429q0,.389-1.046.759v3.99h.987A31.131,31.131,0,0,0,68.4,1.987c.145-.488.253-.929.333-1.33l3.619,1.2c.447.145.673.339.673.586q0,.472-.889.472c-.1,0-.256-.009-.457-.028a28.4,28.4,0,0,1-3.264,2.731h3.249l1-1.33c.173-.238.336-.358.484-.358a.871.871,0,0,1,.531.3l1.79,1.716a.937.937,0,0,1,.33.657c0,.361-.272.543-.818.543Zm-3.434,0H58.112q2.023,1.088,2.021,2.4a1.664,1.664,0,0,1-.259.913h4.252l.342-.9a22.231,22.231,0,0,0,.774-2.416" transform="translate(101.494 0.172)" fill="#2a4f2c"/><path d="M68.436,10.383a6.156,6.156,0,0,1,2.2-.71c4.3,0,7.168,2.755,7.168,6.973a8.332,8.332,0,0,1-8.51,8.467c-4.671,0-8.368-3.579-8.368-9.509A14.209,14.209,0,0,1,70.864,1.947,33.617,33.617,0,0,1,76.424.753l.262,1.416a18.6,18.6,0,0,0-3.993,1.345,11.438,11.438,0,0,0-6.125,7.76Zm-2.129,2.345a17.876,17.876,0,0,0-.222,2.987c0,4.965,2.015,7.874,4,7.874,2.277-.037,2.839-2.91,2.839-5.3,0-3.505-1.759-5.97-4.258-5.97a6.826,6.826,0,0,0-2.354.41" transform="translate(127.067 1.569)" fill="#2a4f2c"/><path d="M84.617,12.872c0,5.446-1.978,12.083-8.251,12.083s-8.281-6.671-8.281-12.046c0-5.52,2.129-12.08,8.281-12.08,6.273,0,8.251,6.634,8.251,12.043M73.2,12.761c0,5.036.784,10.67,3.24,10.67s3.092-5.446,3.092-10.633c0-5.261-.784-10.447-3.2-10.447C73.8,2.35,73.2,7.762,73.2,12.761" transform="translate(141.99 1.728)" fill="#2a4f2c"/><path d="M95.188,24.408a4.9,4.9,0,0,1-1.691.259c-.392,0-.639-.089-.744-.272a2.238,2.238,0,0,1-.083-.818v-.213H87.644v.629c0,.534-.086.87-.256,1.015a2.968,2.968,0,0,1-1.762.37,1.459,1.459,0,0,1-.845-.17c-.151-.123-.228-.429-.228-.916l.086-3.487v-2.62q0-1.754-.086-3.675l3.366,1.574h4.492l.889-1.2c.151-.2.3-.3.441-.3a.734.734,0,0,1,.46.216l2.132,1.743a.767.767,0,0,1,.355.558c0,.3-.336.629-1.015,1v2.271q0,.574.074,2.462c0,.219,0,.413.015.586l1.716.056c.41.022.676-.056.8-.228a1.513,1.513,0,0,0,.126-.771V3.245h-15.9V11.7q0,10.872-5.44,15.832L76.6,27.17a24.173,24.173,0,0,0,2.3-7.751,62.935,62.935,0,0,0,.373-7.609V4.1c0-1.219-.046-2.5-.13-3.832L82.806,1.73H98.178L99.122.514c.182-.247.355-.37.515-.37a.976.976,0,0,1,.589.3L102.3,2.171c.324.268.488.509.488.716q0,.417-1.16,1.132V20.49q0,.717.031,1.919c.028.716.04,1.253.04,1.614a3.124,3.124,0,0,1-.528,2.018q-.972,1.171-3.968,1.373a5.191,5.191,0,0,0-.154-1.3,2.967,2.967,0,0,0-1.861-1.7M91.381,7.191h1.975L94.3,5.747q.245-.37.444-.37a.815.815,0,0,1,.528.3l1.848,1.83a1,1,0,0,1,.33.673c0,.355-.262.531-.787.531H91.381v3.474H93.6l1.176-1.617c.164-.219.315-.327.46-.327a.794.794,0,0,1,.5.272l1.987,1.956a1.01,1.01,0,0,1,.333.688c0,.361-.244.543-.731.543H85.571a21.817,21.817,0,0,0-2.3.13l-.574-1.759c1.135.074,2.123.114,2.962.114H88.32V8.709H86.385q-1.074,0-2.293.114l-.571-1.762c1.21.086,2.2.13,2.95.13H88.32v-.6a25.163,25.163,0,0,0-.13-2.746l3.548.358c.466.056.7.21.7.457a.542.542,0,0,1-.33.46c-.083.046-.327.154-.728.327ZM92.67,17.6H87.644v4.233H92.67Z" transform="translate(159.738 0.299)" fill="#2a4f2c"/><path d="M102.977,5.406v5.575h3.737l1.348-2.03a.6.6,0,0,1,.469-.327.847.847,0,0,1,.531.272l2.607,2.357a.944.944,0,0,1,.355.688c0,.38-.278.571-.83.571h-8.217v6.322h5.011l1.373-2.077a.593.593,0,0,1,.475-.339.858.858,0,0,1,.528.268l2.62,2.419a.975.975,0,0,1,.358.685c0,.37-.272.558-.815.558h-9.55v1.543c0,.87.022,2.046.059,3.533.009.438.015.71.015.815,0,.534-.12.882-.361,1.043a3.867,3.867,0,0,1-2.03.417,1.075,1.075,0,0,1-.858-.256,1.922,1.922,0,0,1-.145-.96v-.929q.06-3.2.059-3.505v-1.7H88.867q-1.078,0-2.289.114L85.988,18.7c1.234.086,2.215.13,2.95.13H91.07V13.042c0-1.583-.037-2.724-.114-3.419l3.823,1.358h4.937V5.406H93.76a30.956,30.956,0,0,1-6.813,6.822l-.429-.389A46.11,46.11,0,0,0,92.73,0l3.564,1.429c.45.182.673.4.673.657,0,.309-.213.478-.642.515-.154.009-.38.015-.676.015-.083.142-.355.568-.815,1.271h12.752l1.376-2.03a.607.607,0,0,1,.472-.327.837.837,0,0,1,.528.287l2.576,2.342a.941.941,0,0,1,.373.7q0,.546-.833.546Zm-8.67,13.428h5.409V12.512H94.306Z" transform="translate(179.327 -0.001)" fill="#2a4f2c"/><path d="M34.439,15.612l-2.033,1.54V14.9l2.033-1.524h2.043V28.142H34.439Z" transform="translate(67.581 27.899)" fill="#2a4f2c"/><path d="M37.157,28.192a3.216,3.216,0,0,1,.17-.367c.117-.247.281-.565.475-.956s.413-.827.66-1.305.481-.95.716-1.416.46-.895.666-1.287.376-.7.5-.919a1.58,1.58,0,0,1-.663.207,5.861,5.861,0,0,1-.855.015,3.143,3.143,0,0,1-1.172-.241,3.2,3.2,0,0,1-.867-.558,3.258,3.258,0,0,1-.611-.744,4.982,4.982,0,0,1-.386-.8,4.217,4.217,0,0,1-.213-.728,2.776,2.776,0,0,1-.068-.531c0-.04,0-.114-.006-.222s0-.228,0-.361,0-.265,0-.4a2.564,2.564,0,0,1,.028-.346,3.236,3.236,0,0,1,.068-.358,4.034,4.034,0,0,1,.207-.694,4.945,4.945,0,0,1,.426-.864,3.7,3.7,0,0,1,.713-.867,3.987,3.987,0,0,1,1.086-.7,4.639,4.639,0,0,1,1.524-.376,4.717,4.717,0,0,1,1.626.111,3.8,3.8,0,0,1,1.21.558,3.37,3.37,0,0,1,.839.849,4.434,4.434,0,0,1,.525.987,4.154,4.154,0,0,1,.244.972,3.015,3.015,0,0,1,.022.805c-.037.33-.08.626-.13.886s-.1.509-.17.747-.136.466-.216.7-.176.478-.284.747c-.025.077-.1.238-.216.488s-.272.555-.447.916-.373.762-.586,1.2-.435.886-.654,1.33c-.521,1.055-1.1,2.225-1.74,3.521ZM37.61,17.5c0,.262.012.552.04.87a2.613,2.613,0,0,0,.238.9,1.839,1.839,0,0,0,.623.719,2.3,2.3,0,0,0,1.2.339,1.671,1.671,0,0,0,.694-.1,1.933,1.933,0,0,0,.562-.309,2.09,2.09,0,0,0,.423-.435,3.353,3.353,0,0,0,.293-.481,2.078,2.078,0,0,0,.167-.441,1.571,1.571,0,0,0,.052-.324q-.009-.25-.019-.565a4.131,4.131,0,0,0-.059-.639,2.689,2.689,0,0,0-.185-.623,1.62,1.62,0,0,0-.38-.521,1.686,1.686,0,0,0-.623-.349,2.574,2.574,0,0,0-.944-.1,1.906,1.906,0,0,0-1.031.315,2.466,2.466,0,0,0-.636.629,2.359,2.359,0,0,0-.324.666,1.938,1.938,0,0,0-.089.447" transform="translate(74.041 27.846)" fill="#2a4f2c"/><path d="M46.037,13.329a1.484,1.484,0,0,1-.1.219q-.106.218-.287.592L45.225,15c-.164.324-.333.663-.512,1.021s-.361.719-.549,1.083-.364.713-.537,1.046-.327.629-.472.9-.259.484-.352.645a1.611,1.611,0,0,1,.663-.207,6.331,6.331,0,0,1,.855-.015,3.4,3.4,0,0,1,1.222.244,3.17,3.17,0,0,1,1.521,1.3,4.828,4.828,0,0,1,.389.8,4.071,4.071,0,0,1,.2.731,3.507,3.507,0,0,1,.056.531v.583c0,.13,0,.265,0,.4s-.009.25-.015.346c-.009.046-.031.17-.068.367a4.5,4.5,0,0,1-.2.71,5.262,5.262,0,0,1-.423.882,3.956,3.956,0,0,1-.719.889,4.144,4.144,0,0,1-1.086.725,4.317,4.317,0,0,1-1.518.373,4.438,4.438,0,0,1-1.629-.12,3.9,3.9,0,0,1-1.228-.577,3.643,3.643,0,0,1-.861-.867,4.775,4.775,0,0,1-.543-1.006,4.629,4.629,0,0,1-.265-.994,3.509,3.509,0,0,1-.025-.808c.04-.33.086-.626.133-.886s.1-.509.167-.747.139-.466.219-.7.176-.478.284-.75c.028-.065.1-.228.222-.481s.272-.565.45-.935.38-.781.6-1.225.447-.9.67-1.358q.791-1.6,1.774-3.573Zm-.426,10.8c0-.256-.009-.54-.031-.849a2.456,2.456,0,0,0-.228-.886,1.82,1.82,0,0,0-.642-.722,2.578,2.578,0,0,0-1.268-.364,1.72,1.72,0,0,0-.7.08,1.885,1.885,0,0,0-.555.3,2.119,2.119,0,0,0-.423.441,3.456,3.456,0,0,0-.3.491,2.118,2.118,0,0,0-.164.45,1.3,1.3,0,0,0-.052.318c0,.167,0,.355.009.562a4.708,4.708,0,0,0,.065.617,2.617,2.617,0,0,0,.188.6,1.584,1.584,0,0,0,.376.509,1.932,1.932,0,0,0,.623.364,2.718,2.718,0,0,0,.95.142,2.121,2.121,0,0,0,.8-.117,1.964,1.964,0,0,0,.577-.324,1.735,1.735,0,0,0,.389-.438,2.438,2.438,0,0,0,.238-.475,2.309,2.309,0,0,0,.117-.42,1.727,1.727,0,0,0,.031-.278" transform="translate(81.56 27.797)" fill="#2a4f2c"/><path d="M42.468,23.956,47.25,13.379h2.277L44.7,23.956h3.737V19.707h2.043v4.249h1.148v1.987H50.478v2.2H48.435v-2.2H42.468Z" transform="translate(88.566 27.9)" fill="#2a4f2c"/><rect width="6.041" height="2.104" transform="translate(142.735 49.244)" fill="#2a4f2c"/><path d="M49.159,26.235l5.594-7.22A2.712,2.712,0,0,0,55.2,18.2a2.918,2.918,0,0,0,.077-.67,2.221,2.221,0,0,0-.5-1.45,1.883,1.883,0,0,0-1.475-.639A1.907,1.907,0,0,0,51.893,16a2.452,2.452,0,0,0-.688,1.571H49.159a4.583,4.583,0,0,1,1.2-3.039,3.762,3.762,0,0,1,2.777-1.194,4.031,4.031,0,0,1,3,1.216,4.365,4.365,0,0,1,.324,5.6l-4.6,5.958H57.32v2.1H49.159Z" transform="translate(102.521 27.822)" fill="#2a4f2c"/><path d="M52.727,17.573a4.036,4.036,0,0,1,1.265-3.144,3.96,3.96,0,0,1,2.792-1.089,4.013,4.013,0,0,1,2.839,1.092,4.207,4.207,0,0,1,1.225,3.147v6.507a4.183,4.183,0,0,1-1.225,3.135,4.072,4.072,0,0,1-2.839,1.114,4.059,4.059,0,0,1-4.057-4.243Zm6.078.133q-.06-2.217-2.021-2.262-1.976.042-2.015,2.262V23.97q.037,2.24,2.015,2.262,1.962-.019,2.021-2.262Z" transform="translate(109.962 27.819)" fill="#2a4f2c"/><path d="M56.217,26.235l5.594-7.22a2.712,2.712,0,0,0,.444-.811,2.917,2.917,0,0,0,.077-.67,2.221,2.221,0,0,0-.5-1.45,1.883,1.883,0,0,0-1.475-.639A1.907,1.907,0,0,0,58.951,16a2.452,2.452,0,0,0-.688,1.571H56.217a4.583,4.583,0,0,1,1.2-3.039,3.762,3.762,0,0,1,2.777-1.194,4.031,4.031,0,0,1,3,1.216,4.365,4.365,0,0,1,.324,5.6l-4.6,5.958h5.467v2.1H56.217Z" transform="translate(117.24 27.822)" fill="#2a4f2c"/><path d="M59.619,23.956,64.4,13.379h2.277L61.85,23.956h3.737V19.707h2.043v4.249h1.148v1.987H67.629v2.2H65.586v-2.2H59.619Z" transform="translate(124.335 27.9)" fill="#2a4f2c"/></g></g></g></svg>