<svg id="グループ_1066" data-name="グループ 1066" xmlns="http://www.w3.org/2000/svg" width="64.962" height="64.95" viewBox="0 0 64.962 64.95">
  <g id="グループ_1065" data-name="グループ 1065">
    <g id="グループ_1064" data-name="グループ 1064">
      <path id="パス_2017" data-name="パス 2017" d="M448.744,1742.461a18.472,18.472,0,0,1,2.911-3.745l-9.547-10.468a32.673,32.673,0,0,0-6.061,7.889Z" transform="translate(-432.055 -1719.253)" fill="#5aa61f"/>
      <path id="パス_2018" data-name="パス 2018" d="M483.731,1733.006a18.232,18.232,0,0,1,4,2.508l9.573-10.452a32.558,32.558,0,0,0-8.484-5.294Z" transform="translate(-443.639 -1717.193)" fill="#d39400"/>
      <path id="パス_2019" data-name="パス 2019" d="M508.619,1741.411l-12.689,6.325a18.145,18.145,0,0,1,1.27,4.483l14.115-1.333a32.207,32.207,0,0,0-2.7-9.476" transform="translate(-446.603 -1722.45)" fill="#b7001e"/>
      <path id="パス_2020" data-name="パス 2020" d="M493.825,1742.789l12.687-6.324a32.608,32.608,0,0,0-5.929-7.872l-9.574,10.45a18.407,18.407,0,0,1,2.816,3.746" transform="translate(-445.407 -1719.336)" fill="#25862a"/>
      <path id="パス_2021" data-name="パス 2021" d="M444.941,1758.575c0-.286.009-.572.022-.855l-14.118-1.264c-.044.7-.07,1.406-.07,2.119a32.5,32.5,0,0,0,.961,7.852l13.635-3.912a18.321,18.321,0,0,1-.429-3.94" transform="translate(-430.774 -1726.105)" fill="#3d6726"/>
      <path id="パス_2022" data-name="パス 2022" d="M491.276,1774.582a18.57,18.57,0,0,1-3.443,3.239l7.454,12.069a32.751,32.751,0,0,0,7.3-6.779Z" transform="translate(-444.636 -1730.509)" fill="#ffad00"/>
      <path id="パス_2023" data-name="パス 2023" d="M497.734,1758.615a18.111,18.111,0,0,1-.42,3.9l13.634,3.917a32.384,32.384,0,0,0,.953-7.812q0-1-.063-1.994l-14.117,1.333c.008.221.013.44.013.661" transform="translate(-446.939 -1726.145)" fill="#e01f10"/>
      <path id="パス_2024" data-name="パス 2024" d="M451.656,1774.938l-11.284,8.577a32.735,32.735,0,0,0,7.369,6.676l7.453-12.056a18.47,18.47,0,0,1-3.538-3.2" transform="translate(-433.106 -1730.595)" fill="#f68e00"/>
      <path id="パス_2025" data-name="パス 2025" d="M445.255,1751.948a18.111,18.111,0,0,1,1.352-4.548l-12.684-6.319a32.252,32.252,0,0,0-2.8,9.6Z" transform="translate(-430.859 -1722.37)" fill="#0064ae"/>
      <path id="パス_2026" data-name="パス 2026" d="M491.605,1792.376l-7.443-12.053a18.258,18.258,0,0,1-4.345,1.766l2.628,13.943a32.244,32.244,0,0,0,9.16-3.655" transform="translate(-442.689 -1731.903)" fill="#830025"/>
      <path id="パス_2027" data-name="パス 2027" d="M495.961,1767.007a18.321,18.321,0,0,1-1.981,4.081l11.32,8.539a32.338,32.338,0,0,0,4.284-8.7Z" transform="translate(-446.129 -1728.668)" fill="#0098d1"/>
      <path id="パス_2028" data-name="パス 2028" d="M474.793,1783.192a18.117,18.117,0,0,1-4.773.067l-2.625,13.943a32.611,32.611,0,0,0,10.023-.079Z" transform="translate(-439.67 -1732.6)" fill="#e85200"/>
      <path id="パス_2029" data-name="パス 2029" d="M475.224,1730.561a18.2,18.2,0,0,1,4.533.875l5.092-13.233a32.243,32.243,0,0,0-9.625-1.822Z" transform="translate(-441.573 -1716.37)" fill="#db0015"/>
      <path id="パス_2030" data-name="パス 2030" d="M464.36,1782.273a18.193,18.193,0,0,1-4.5-1.7l-7.458,12.062a32.328,32.328,0,0,0,9.331,3.567Z" transform="translate(-436.029 -1731.964)" fill="#cd0068"/>
      <path id="パス_2031" data-name="パス 2031" d="M464.763,1731.367a18.138,18.138,0,0,1,4.626-.823v-14.178a32.32,32.32,0,0,0-9.754,1.777Z" transform="translate(-437.785 -1716.366)" fill="#002555"/>
      <path id="パス_2032" data-name="パス 2032" d="M448.571,1771.4a18.2,18.2,0,0,1-2.161-4.331l-13.626,3.911a32.356,32.356,0,0,0,4.5,9Z" transform="translate(-431.263 -1728.683)" fill="#cd7d00"/>
      <path id="パス_2033" data-name="パス 2033" d="M455.624,1735.276a18.342,18.342,0,0,1,3.928-2.377l-5.124-13.218a32.486,32.486,0,0,0-8.356,5.118Z" transform="translate(-434.49 -1717.171)" fill="#003d76"/>
    </g>
  </g>
</svg>
