<svg id="平田牧場ロゴ" xmlns="http://www.w3.org/2000/svg" width="226.356" height="52.441" viewBox="0 0 226.356 52.441">
  <g id="グループ_2007" data-name="グループ 2007">
    <g id="グループ_2006" data-name="グループ 2006">
      <g id="グループ_2005" data-name="グループ 2005">
        <g id="グループ_2004" data-name="グループ 2004" transform="translate(9.836 9.217)">
          <g id="グループ_1995" data-name="グループ 1995" transform="translate(0.255 0.194)">
            <path id="パス_3853" data-name="パス 3853" d="M190.84,4230.406l-.028.286v.275l-.044.269-.062.268-.032.27-.052.269-.131.249-.025.274-.047.271-.092.258-.129.247-.066.263-.077.26-.119.248-.058.269-.12.245-.083.262-.121.241-.133.22-.162-.193-.177-.2-.144-.226-.148-.224-.095-.255-.152-.222-.12-.238-.1-.251-.173-.212-.115-.242-.043-.271-.139-.234-.071-.258-.056-.262-.121-.241-.02-.271-.121-.243-.01-.259.106-.227.081-.217.143-.187.279.034.277-.046.277,0,.277.025.276.024.278-.041.277.029.277.012.279,0,.277-.025Zm-6.862,3.4.013-.263-.033-.256.005-.255.015-.253-.016-.256-.008-.256.072-.255-.043-.256-.027-.256.014-.256.048-.256-.021-.257-.01-.264.257.021.25-.041.252.017.252-.027.252.015.252.043.253-.028.252-.028.31-.078-.076.279-.153.211-.094.239-.126.223-.148.21-.07.257-.129.223-.188.186-.1.24-.157.2-.166.2-.1.222.14.234.231-.19.246-.112.193-.182.179-.2.219-.154.216-.153.163-.214.191-.182.2-.169.168-.165.056.227.011.267.032.263.056.26.077.257.1.25.049.257.057.26.029.267.119.242.076.252.067.256.082.252.083.252.135.23.061.263.114.238.14.226.086.254.129.229.1.222-.076.248-.167.213-.168.209-.149.224-.142.229-.157.22-.2.179-.188.192-.143.232-.178.2-.215.163-.159.221-.187.19-.212.166-.174.206-.234.139-.193.187-.2.181-.182.2-.249.122-.209.168-.2.177.011.024.2.345.024-.054.258-.058.222-.142.257-.062.235-.117.2-.172.249-.088.23-.119.2-.168.229-.125.222-.133.211-.154.217-.142.187-.187.219-.143.233-.123.183-.189.172-.2.234-.132.173-.2.171-.2.206-.164.157-.18.183.177.171.214.193.193.135.243.214.176.164.219.176.211.214.172.224.163.207.176.2.188.193.194.224.158.26.106.212.168.214.171.239.129.063.005h.042l.086-.264.1-.26.179-.215.191-.2.191-.2.21-.182.236-.15.274-.056-.005-.033.039-.358-.027,0,.021-.063-.241-.1-.238-.112-.246-.091-.235-.116-.236-.112-.236-.113-.22-.145-.219-.146-.253-.092-.181-.2-.258-.087-.176-.208-.244-.112-.2-.164-.2-.169-.161-.215-.211-.162-.215-.171.144-.245.143-.23.118-.244.163-.224.139-.233.087-.258.094-.258.167-.223.047-.276.13-.239.081-.259.09-.258.1-.251.075-.26.085-.259.106-.249.121-.248.072-.263.019-.275.115-.249.023-.287.279-.062.241-.1.163-.218-.152-.259-.282-.072-.291-.1-.3-.091-.293-.125.3.025.286-.019.286-.033.287.04.287.025.287-.067.239.038.2-.143.062-.22-.029-.228-.183-.142-.162-.243-.225-.173-.234-.165-.216-.186-.187-.213-.224-.18-.2-.2-.331-.2-.268.245-.173.215-.173.212-.116.251-.206.193-.123.258-.277-.019-.268,0-.267.019-.268-.024H189.9l-.267.042-.269-.009-.268.008-.268.006-.268-.017-.277,0,.1-.275.167-.215.071-.264.153-.221.1-.248.1-.249.128-.238.057-.265.1-.25.131-.238v.013l.272-.1.255-.1.137-.215-.072-.206-.188-.126-.234-.02-.243-.1-.244-.1-.26-.043-.239-.117-.25-.081-.265-.033-.244-.1-.249-.084-.034.037-.045.014-.005.272-.053.267-.029.27-.027.27-.082.261-.043.268-.1.257-.02.275-.09.258-.082.258-.049.268-.073.262-.1.253-.029.275-.109.252-.11.241-.157-.163-.171-.233-.22-.183-.188-.216-.186-.215-.195-.211-.284-.192-.27.221-.136.2-.1.223-.129.208-.148.214-.322-.008.038-.29-.043-.271.044-.271-.013-.273-.005-.27v-.544l0-.271.01-.271-.019-.273.279-.093.259-.146.13-.27-.177-.258-.31-.048-.257-.061-.267.021-.262-.038-.257-.076-.263-.028-.265,0-.26-.044-.264-.07.044.1.027.277-.019.279.029.275-.028.277.054.277-.019.276.028.28-.062.253.057.254.006.253-.049.254.046.254-.039.254.037.276-.317-.03-.3,0-.3-.009-.3.015.11-.24.011-.273.12-.247.028-.268.028-.267.058-.167.259-.054.221-.138.091-.233-.161-.258-.324-.06-.234-.092-.239-.06-.24-.055-.249-.013-.241-.067-.244-.039-.236-.077-.025.02-.051.018.016.271-.037.269.049.273-.046.267-.016.27-.005.27-.018.269-.018.267-.051.266-.028.269-.024.268-.042.267-.057.264-.082.258-.047.265-.042.264,0,.271-.051.264-.088.258-.048.264-.071.261-.025.269-.076.262-.059.264.014.115.345.178v-.068l.163-.213.179-.2.088-.259.147-.225.148-.224.078-.26.168-.216.061-.265.153-.224.062-.266.138-.233.071-.259.1-.223.234.009.245-.07.241.07.246-.071.244.037.222.017.01.25-.021.271.038.27.032.271,0,.272-.048.269-.014.271.07.269-.076.272.043.271-.005.27-.028.271,0,.273.027.273-.258.037-.253.058-.255.039-.248.081-.254.035-.254.039-.249.062-.249.074-.257.017-.25.07-.257.029-.259.006-.259.011-.008.017.04.264.12.244.1.252.043.271.119.244.082.259.094.253.073.262.167.255.227.156.224-.083.043-.242.081-.221.192-.129.245-.1.25-.087.23-.138.27-.041.236-.115.219-.158.281-.1-.064.291.032.278.029.279-.056.281.061.278-.052.281.037.28.01.28-.066.262.016.263-.024.262v.263l.048.263-.044.263.052.265-.064.262v.262l.054.3-.008.246.068.236.233.079.245,0,.263.042.268-.01.26-.067.238-.119.212-.159.076-.253.029-.262-.019-.284.019-.286-.043-.283,0-.284.03-.286-.03-.282-.027-.295.054-.293-.077-.292.047-.293-.038-.262.027-.262.013-.263-.008-.261.033-.263-.051-.263.016-.261.024-.264-.067-.263.043-.261.217-.139.234-.124.24-.1.209-.165.255-.077.215-.154.207-.159.244-.1.206-.161.236-.118.209-.154.038-.044-.2-.333-.215.089-.27.033-.246.112-.264.051-.257.081-.267.06-.272.033-.263.067Z" transform="translate(-178.797 -4225.647)" fill="#1a1a1a"/>
          </g>
          <g id="グループ_1998" data-name="グループ 1998" transform="translate(0 18.234)">
            <g id="グループ_1996" data-name="グループ 1996" transform="translate(3.865)">
              <path id="パス_3854" data-name="パス 3854" d="M193.372,4247.062l-.169-.18-.155-.195-.222-.126-.176-.174-.171-.181-.178-.176-.2-.157-.281-.138.009-.271-.034-.253-.013-.251.051-.257,0-.254-.032-.3,0-.3,0-.3-.04-.268v-.268l.028-.27-.011-.268.009-.269-.005-.269.072-.017.209-.175.207-.165.123-.229-.185-.3-.094-.049-.224-.161-.2-.181-.2-.188-.209-.181-.181-.213-.179-.1-.195-.055-.277.17-.169.249-.212.214-.176.267-.273-.013h-.258l-.26-.042-.255.033-.258-.005h-.257l-.26.032-.258-.061-.258.033-.255-.046-.262.024-.257.046-.259-.063-.258.024-.257-.018-.263-.049-.23-.139-.246-.1-.246-.1-.254-.082-.268-.045-.238-.129-.25-.094.01.061-.027.25.021.249.061.249-.008.25-.035.249.04.248-.025.25.016.25.018.25-.028.253-.009.253-.011.249.021.253-.032.253v.252l.039.25v.25l.011.249-.028.25.02.25-.034.265-.056.264.046.267.052.286.236.146.283.085h.25l.239-.077.235-.053.24-.056.171-.171.114-.211.26,0,.262.009.259-.037.259.019h.259l.262-.012h.259l.258.028.26.021.26-.025.26.029.258-.051.262.045.26,0,.26.011h.25l.073.245.209.195.3-.023.246.016.248-.006.234-.1.209-.064-.095.213-.174.166-.107.218-.174.164-.267.037-.27-.03h-.27l-.268.03-.272-.024-.269-.039-.272.043-.27-.018-.269.033-.272,0-.269-.059-.27.008-.272.055-.269-.014-.27-.032-.27.015-.27-.015-.272-.012-.269.008-.272.021-.27-.042-.27.024-.272.021-.272-.007-.272-.016-.272-.021-.272.015-.268-.011-.269-.028-.274.044-.268-.051-.116-.009.067.259.091.248.116.243.09.248,0,.029.027-.02.257-.014.262-.015.254-.042.263.038.26-.038.289.03.3-.023-.121.254-.1.244-.09.25-.091.25-.173.206-.134.226-.094.256-.159.211-.183.195-.163.206-.13.238-.192.185-.176.2-.145.225-.177.2-.174.2-.171.206-.171.2-.211.167-.163.213-.062.029.222.292.047-.006.014-.025.239-.106.253-.078.2-.186.225-.127.259-.08.2-.162.233-.125.21-.158.212-.152.168-.208.246-.114.181-.19.182-.188.152-.213.22-.155.119-.242.195-.152.229-.035.235,0,.243-.008-.153.243-.115.24-.138.227-.138.228-.148.224-.148.221-.159.216-.168.208-.173.2-.226.157-.145.229-.183.194-.215.164-.21.167-.159.22-.222.154-.207.167-.179.2-.217.158-.216.159-.217.157-.025.061.245.321.047-.006.255-.089.236-.125.236-.125.236-.125.212-.167.24-.12.253-.1.2-.192.222-.145.24-.123.2-.186.229-.14.178-.2.19-.189.192-.182.216-.165.2-.175.178-.2.16-.212.164-.211.181-.2.157-.215.153-.218.138-.23.124-.236.147-.247.245.015.239.012.238-.024.229.059-.107.2-.082.253-.094.248-.14.225-.123.232-.148.221-.123.233-.167.206-.176.2-.14.225-.193.179-.172.2-.145.224-.191.183-.206.166-.143.231-.2.167-.224.144-.164.213-.224.148-.21.158-.215.153-.195.175-.224.143-.178.2-.221.144-.231.133-.2.177-.029,0,.066.189.135.151-.009-.021.254-.077.257-.075.248-.1.264-.061.24-.123.221-.157.262-.071.243-.118.209-.172.229-.138.239-.122.2-.177.24-.125.2-.173.207-.167,0,.048.262.055.249.095.259.077.225.144.226.142.206.176.082.256.14.236-.021.273.053.263-.014.048.045-.044.268,0,.27.028.259-.091.273.034.255-.09.264-.039.228-.151.234-.117.2-.168.195-.186.134-.23.125-.235.081-.255.119-.239.058-.259.038-.267.088-.253.059-.258-.01-.272.034-.264.1-.252-.008-.271.053-.262.03-.264.008-.268.04-.263v-.268l.071-.244.248-.127.207-.21.161-.222-.119-.2-.12-.2-.207-.146-.187-.168-.215-.137-.163-.2-.192-.164-.211-.146-.045-.048-.219-.075-.224.144-.172.164-.129.194-.143.188-.107.219-.267.012-.258.007-.258-.052-.26-.009h-.259l-.258.013-.26-.007-.259.024H188.6l-.26.021-.258-.016-.258.03-.259-.045-.259.007-.259.04-.26-.044-.259.01-.26.013-.269.007.181-.2.112-.221.092-.23.138-.2.119-.235.273.044.267-.049h.268l.264.039.269-.034.265.007.269.045.267-.054.267.062h.267l.267-.071.268.065.268-.052.268.028.267-.048.267.053.268.013.267,0,.268-.047.268.011.265.012.27.009.268.014.268.006.235-.065.2-.107.1-.2-.066-.222Zm-3.359-5.4-.014.3-.037.291.058.289-.013.3-.267-.011-.262-.01-.258.018-.26.021-.259-.019-.258.029-.259,0-.26-.057-.26,0-.258.023-.26-.007-.26-.007-.26.041h-.258l-.262-.027-.27.008.009-.294-.005-.291.028-.291-.032-.3h.269l.259.014.259,0,.26-.024.259-.021.26,0,.258.012h.259l.258.046.262-.019.259-.007.26-.006.259-.026.262.031.259-.035Zm0,2.045-.014.258-.037.245.058.245-.01.246-.015.242-.254-.011-.262.019-.258.019-.26-.019-.259.029-.258,0-.259-.058-.26,0-.26.023-.258-.006-.26-.008-.26.043h-.26l-.258-.029-.262.011-.262-.008-.005-.247.028-.246-.034-.245,0-.245.014-.241.255.006.259-.022.259-.023h.26l.259.013.26,0,.258.045.259-.02.258-.007.262-.007.259-.027.26.034.259-.035.262.015.259,0Zm.992,6.054-.043.258-.059.254.032.263-.034.258-.047.258-.042.258-.016.261-.019.26-.062.255-.023.26-.053.257-.125.235-.109.234-.181.18-.258.059-.265.006-.284.034-.283-.012-.283-.04-.286,0-.284-.019-.288-.012.219-.173.169-.219.192-.2.191-.193.181-.208.15-.229.147-.231.158-.222.162-.22.148-.229.177-.211.12-.248.124-.244.116-.245.1-.258.144-.23.253-.038.253.018Z" transform="translate(-181.653 -4239.92)" fill="#1a1a1a"/>
            </g>
            <g id="グループ_1997" data-name="グループ 1997" transform="translate(0 0.108)">
              <path id="パス_3855" data-name="パス 3855" d="M184.018,4249.3l-.259.132-.258.089-.263.077-.266.061-.243.125-.256.04-.024-.255-.015-.262.038-.26.014-.262-.009-.262.009-.261-.06-.263.065-.262-.065-.261.036-.26.01-.263-.019-.261-.024-.262.05-.263-.04-.262.052-.262-.047-.279.279-.006.267.035.265.017.266-.068.266.005.266.058.225-.083.217-.057.123-.2-.193-.351-.156-.206-.217-.15-.154-.21-.2-.165-.158-.209-.319-.178-.224.232-.208.19-.12.25-.158.22-.089.021.058-.273-.05-.262.062-.265-.052-.262,0-.264.022-.265,0-.263v-.263l.007-.266.019-.263-.049-.266.028-.265,0-.261.242-.115.239-.132.135-.231-.163-.223-.265-.113-.06-.036-.254,0-.249-.018-.249-.032-.245-.062-.257.045-.249-.036-.251-.023-.243-.083-.037.032-.01.036.055.254-.022.262.021.258,0,.259.036.258-.042.259.044.258,0,.26.009.26-.029.261-.019.261,0,.261.014.261.021.261-.05.261.017.262.03.268-.3.017-.28-.05-.282.017-.279.029-.28-.033-.279-.043-.279-.02-.064.009.075.242.123.224.1.232.052.251.029,0,.015-.01.281.02.279-.022.28.044.279-.062.28.041.229,0,.031.259-.038.259-.009.262,0,.26.038.261-.054.26.007.26.067.261-.012.261.007.261-.033.26.009.261v.26l-.046.262.011.262.026.26.011.261-.025.264.023.263-.254.057-.242.074-.248.047-.251.025-.252.02-.243.066-.251.021-.248.039-.036-.006.124.25.076.273.107.26.111.258.126.25.1.266.124.251.089.268.023.068.137.235.2.127.184-.125.074-.227.071-.222.193-.175.223-.157.219-.162.251-.114.22-.162.22-.156.234-.143.242-.13.2-.2.223-.125.2-.16.214-.141.186-.178.232-.114.189-.173.218-.136.2-.158.189-.171.2-.19-.141-.167Z" transform="translate(-178.595 -4240.006)" fill="#1a1a1a"/>
            </g>
          </g>
          <g id="グループ_2002" data-name="グループ 2002" transform="translate(16.469)">
            <g id="グループ_1999" data-name="グループ 1999" transform="translate(10.18 3.099)">
              <path id="パス_3856" data-name="パス 3856" d="M203.96,4228.983l-.211-.154-.262-.053-.2-.175-.232-.111-.255-.067-.223-.129-.209-.157-.238-.1-.242-.09.01.034-.1.256-.052.267-.053.269-.1.253-.123.243-.045.274-.14.235-.077.265-.143.233-.115.248-.086.26-.091.258-.156.228-.13.239-.089.26-.114.248-.15.229-.108.252-.166.221-.158.226-.016.052.293.233.025.04.033-.028.226-.141.2-.178.237-.124.2-.173.184-.2.213-.154.193-.181.187-.19.194-.177.211-.165.2-.178.189-.186.18-.194.123-.245.184-.191.206-.171.179-.194.14-.228.159-.22.246-.019.236-.03.2-.078.1-.187-.067-.214-.187-.134Z" transform="translate(-199.68 -4227.945)" fill="#1a1a1a"/>
            </g>
            <g id="グループ_2000" data-name="グループ 2000" transform="translate(1.497 3.299)">
              <path id="パス_3857" data-name="パス 3857" d="M195.427,4233.106l.236-.048.236-.068.2-.14.208-.143.136-.216.072-.244.064-.243.028-.252-.065-.258-.048-.256-.055-.255-.107-.238-.15-.215-.122-.231-.139-.223-.163-.2-.23-.145-.168-.2-.181-.192-.226-.135-.2-.164-.233-.122-.208-.163-.218-.146-.236-.114-.23-.123-.225-.136-.241-.1-.045-.033-.3.268.072.075.132.234.127.238.148.225.143.227.1.251.129.235.163.221.09.255.116.242.111.246.1.251.028.275.132.241.067.263.042.248.064.241.136.215.1.223.13.22.233.107Z" transform="translate(-192.81 -4228.104)" fill="#1a1a1a"/>
            </g>
            <g id="グループ_2001" data-name="グループ 2001">
              <path id="パス_3858" data-name="パス 3858" d="M207.772,4234.886l-.159-.214-.2-.168-.171-.2-.2-.17-.23-.139-.152-.22-.2-.172-.175-.2-.348-.159-.329.2-.116.272-.181.229-.153.246-.187.228-.151.232-.241.01-.258.036-.257,0-.259.023-.256-.066-.258.046-.258-.015-.256.01-.259,0-.256-.01-.259-.034-.256,0-.259.007-.26.05-.257-.03-.237-.02-.057-.24.064-.262-.052-.262-.011-.263.052-.264-.05-.262.067-.261-.058-.264.021-.262-.021-.262.011-.263.023-.264,0-.262.021-.263-.016-.263v-.263l-.033-.263v-.262l.01-.263.03-.263-.044-.263.009-.265.032-.262.009-.262-.046-.266.007-.277.277,0,.266.055.265-.034.265.012.267-.028.266.01.265.017.267-.024.265.032.265-.054.266.068.265-.011.267-.018.266,0,.266,0,.266-.019.267.022.264-.027.267-.014h.266l.266.029.267-.018.231-.058.188-.12.1-.208-.04-.245-.16-.194-.214-.147-.207-.156-.174-.193-.212-.151-.156-.21-.208-.157-.21-.156-.178-.19-.321-.158-.3.161-.165.235-.168.236-.115.268-.153.246-.177.237-.27-.05-.261.065-.263-.019-.263-.021-.262.01-.262.03-.263.011-.263-.065-.264.041-.264.02-.263-.043-.263-.007-.263.03-.265-.023-.263.007-.262.037-.264-.049-.263.028-.265-.014-.263.011-.265-.045-.262.044-.266.02-.262-.038-.266.047-.262-.028-.264-.018-.264,0-.264.014-.264.01-.264-.017h-.265l-.265.022-.264.015-.264-.052-.266.025-.266.028-.28-.022-.28-.035-.28.027-.28-.018-.279-.041-.275-.046-.1.035.1.282.122.27.048.293.081.28.033.035.038-.043.263.017.254-.077.265.056.258-.013.256-.077.272.071.269-.006.272-.053.269.053.271-.06.271.067.27-.02.27-.043.27.042.271-.039.271.027.27,0,.272-.019.27-.019.272.067.272-.068.272.028-.032.262.036.264-.039.263.023.262.019.263.028.262-.048.263,0,.263.022.261-.011.264-.011.262-.015.264-.008.263,0,.263.062.264-.053.262.043.261,0,.264-.009.262.022.263-.034.263-.033.264.053.263-.041.264,0,.264.031.271-.27,0-.268-.019-.267.05-.265-.052-.267,0-.266-.02-.267,0-.267.044-.265-.021-.267-.026-.264.041-.268.023-.266-.011-.266-.009-.267-.019h-.267l-.266.007-.266-.035-.269.01-.267-.01-.282.044-.281.021-.279-.029-.279-.028-.279-.016-.279-.006-.072-.018.132.265.075.281.089.275.094.274-.01.031.027,0,.26-.027.26-.006.257-.015.262.023.258-.068.267.057.267-.064.272.051.267.023.268-.035.271-.011.268-.019.268.033.27-.014.269.04.268-.041.269-.01.269-.016.269.042.27.026.268,0,.27-.065.27.028.268-.023.292.011-.005.3-.041.277.009.279,0,.276.04.28-.031.278.019.278.012.278-.041.279.042.271-.04.27-.016.271.044.272-.005.272-.017.271-.009.272-.026.271.045.271-.059.271.011.266.154.216.235.111.26.023.271-.044.267-.02.268-.035.271-.05.215-.174.107-.246.057-.264,0-.255-.019-.253-.015-.254-.038-.268,0-.271.046-.27-.035-.27.011-.27-.016-.271v-.267l.034-.262-.038-.261v-.263l.039-.261-.057-.263.028-.261,0-.263.024-.263-.033-.272.273.048.26,0,.26-.049.263.014.26-.03.261.035.26-.039.261.035.261.017.261-.006.26.02.261,0,.262-.046.26.043.261-.007.261.006.26-.041h.261l.26.027.26-.019.263-.018.261.035.262-.025.262.031.262.007.262.019.243-.075.224-.12.055-.247-.074-.228Z" transform="translate(-191.625 -4225.493)" fill="#1a1a1a"/>
            </g>
          </g>
          <g id="グループ_2003" data-name="グループ 2003" transform="translate(17.823 18.521)">
            <path id="パス_3859" data-name="パス 3859" d="M206.542,4241.287l-.2-.193-.233-.147-.187-.206-.239-.141-.212-.174-.206-.182-.331-.1-.346.146-.1.214-.133.193-.133.2-.134.177-.248.031-.26,0-.263.021-.262-.047-.262.042-.263-.023-.263-.012-.263-.009-.26.04-.262-.017-.263.014-.262.016-.263-.063-.262.05-.263-.02-.26.042-.263-.042-.264.04-.263-.048-.26-.012-.264.042-.263-.033-.262-.009-.263,0-.264-.01-.26.037-.264-.021-.263.044-.262-.035-.263-.021-.263,0-.264.045-.264-.043-.263.025-.26-.015-.228-.1-.245-.083-.244-.079-.24-.089-.238-.094-.234-.109-.252-.062-.22-.14-.259-.047-.049-.066-.011.072.085.272-.044.285.044.278.033.28-.044.282.039.28.015.281-.037.282.032.265.006.267v.267l-.018.266.005.266-.024.266.052.269,0,.268.006.265-.077.267.064.267-.035.267.02.266-.009.268.013.267-.047.267.039.267-.044.268.014.267.038.268-.028.266,0,.268,0,.27,0,.267.056.265-.006.268-.061.27-.005.265.048.267-.044.269,0,.267.04.269.025.268-.059.268-.009.268.013.268-.016.269.032.295,0,.293-.005.294,0,.3-.067.3.03.3-.042.3.028.255.182.163.221.1.25.045.279-.048.278-.024.276-.041.244-.124.238-.149.044-.282-.008-.275.052-.207-.039-.235.292.033.267.028.267-.029.267.036.268-.024.268-.006.268.006.269-.014.265.008.269-.043.265.076.268-.036.269.009.269.018.265-.021.27-.033.267.041.268.007.269-.028.268-.025.269.052.264-.024h.27l.269,0,.267.034.269-.042.269-.03.267.009.267.024.272.037.268-.016.268,0,.27-.026.269.029.282-.028.005.263-.024.246-.024.245.112.224.135.17.21.124.246,0,.248.012.25-.009.236-.091.244-.046.225-.119.13-.217.078-.24-.052-.245.024-.248-.048-.246.011-.248-.016-.255.008-.256v-.255l.011-.253-.025-.255.015-.267.023-.263-.047-.264.03-.265.024-.264-.047-.266v-.267l.037-.264-.064-.265.076-.266-.076-.264.056-.265-.038-.266,0-.267.037-.265.014-.266-.038-.264.047-.267-.021-.265-.019-.266.027-.265,0-.268-.047-.264.025-.265v-.267l.008-.267,0-.266-.032-.263.005-.268,0-.268.051-.267-.032-.265.02-.267-.013-.267-.027-.267.016-.268.233-.108.182-.177.195-.163.078-.237-.106-.254Zm-2.348,6.557-.023.287.028.269-.047.272.037.271-.008.271-.016.271.048.271-.07.272.03.271,0,.271v.27l-.018.273.034.269,0,.272.021.271-.045.272.039.273-.021.271-.264-.013-.267-.011-.267.04-.267-.017-.264.015-.267.014-.267-.062-.267.052-.267-.021-.265.042-.269-.042-.265.042-.269-.051-.248,0-.035-.254.03-.27.013-.271v-.272l.013-.271-.04-.271.023-.272-.043-.271.035-.27.021-.27v-.272l-.047-.272.045-.271-.024-.271.014-.272.01-.271-.016-.271-.018-.274.265-.006.267,0,.267.015.265-.037.268.047.264-.053.267.048.265.013.267-.056.268.064.267-.029.268-.024.268.049Zm0-5.824-.023.286.028.271-.047.271.037.271-.008.272-.016.271.048.271-.07.271.03.271,0,.27v.271l-.018.271.034.271,0,.271.021.273-.045.271.039.272-.021.271-.264-.014-.267-.009-.267.04-.267-.015-.264.014-.267.015-.267-.059-.267.048-.267-.02-.265.043-.269-.042-.265.04-.269-.049-.248,0-.035-.254.03-.271.013-.271v-.273l.013-.269-.04-.273.023-.269-.043-.273.035-.269.021-.272v-.271l-.047-.271.045-.272-.024-.271.014-.27.01-.275-.016-.272-.018-.271.265-.008.267,0,.267.016.265-.037.268.046.264-.053.267.048.265.014.267-.056.268.065.267-.03.268-.023.268.049Zm-5.656,0-.024.286.03.271-.049.271.039.271-.008.272-.018.271.047.271-.07.271.032.271,0,.27v.271l-.016.271.034.271-.005.271.023.273-.046.271.04.272-.021.271-.264-.014-.268-.009-.264.04-.268-.015-.264.014-.265.015-.267-.059-.267.048-.265-.02-.267.043-.267-.042-.267.04-.267-.049-.249,0-.037-.254.033-.271.009-.271v-.273l.013-.269-.039-.273.023-.269-.044-.273.034-.269.023-.272,0-.271-.047-.271.045-.272-.028-.271.015-.27.009-.275-.014-.272-.019-.271.267-.008.267,0,.264.016.267-.037.265.046.265-.053.267.048.265.014.267-.056.267.065.265-.03.269-.023.265.049Zm0,5.824-.024.287.03.269-.049.272.039.271-.008.271-.018.271.047.271-.07.272.032.271,0,.271v.27l-.016.273.034.269-.005.272.023.271-.046.272.04.273-.021.271-.264-.013-.268-.011-.264.04-.268-.017-.264.015-.265.014-.267-.062-.267.052-.265-.021-.267.042-.267-.042-.267.042-.267-.051-.249,0-.037-.254.033-.27.009-.271v-.272l.013-.271-.039-.271.023-.272-.044-.271.034-.27.023-.27,0-.272-.047-.272.045-.271-.028-.271.015-.272.009-.271-.014-.271-.019-.274.267-.006.267,0,.264.015.267-.037.265.047.265-.053.267.048.265.013.267-.056.267.064.265-.029.269-.024.265.049Z" transform="translate(-192.697 -4240.147)" fill="#1a1a1a"/>
          </g>
        </g>
        <path id="パス_3860" data-name="パス 3860" d="M197.027,4218.339l-.264-.026-.264-.019-.269-.08-.262.1-.264,0-.268-.025h-.265l-.265-.005-.26.1-.272-.067-.262.043-.258.093-.272-.035-.259.063-.268,0-.239.195h-.267l-.27,0-.255.066-.253.093-.255.071-.278-.033-.268.016-.238.149-.254.073-.281-.018-.233.151-.252.085-.269.029-.233.14-.283-.011-.243.112-.245.1-.225.162-.293-.03-.253.086-.239.115-.206.2-.281.017-.2.194-.282.019-.209.181-.286.013-.238.119-.186.22-.273.049-.244.1-.2.2-.25.1-.24.111-.221.146-.243.113-.188.2-.248.1-.278.055-.2.184-.182.207-.291.042-.195.186-.2.184-.255.1-.22.15-.159.233-.216.155-.178.2-.279.075-.159.225-.245.119-.234.133-.172.208-.162.218-.191.182-.225.147-.24.132-.185.191-.1.276-.22.152-.231.145-.164.207-.138.235-.265.117-.15.223-.126.242-.217.159-.2.178-.152.221-.144.224-.152.217-.239.149-.085.269-.2.182-.1.254-.276.125-.145.222-.166.21-.113.244-.152.218-.134.23-.121.237-.169.205-.161.212-.04.286-.26.157,0,.3-.243.167-.027.289-.126.232-.123.234-.226.181-.08.258-.066.262-.114.24-.13.231-.078.255-.178.211-.137.231-.038.27-.053.264-.21.2.029.293-.148.228-.051.263-.072.255-.1.247-.053.259-.078.253-.121.24-.158.231-.067.257.038.284-.162.233.037.28-.037.263-.07.257-.172.234-.025.265.059.281-.058.259-.039.262-.09.252-.11.252,0,.268.03.271-.109.255-.078.259.11.276-.15.253.04.269.005.267-.087.261.115.27-.145.261.042.267.071.267.019.265-.064.264.045.264-.013.266-.042.267.1.26-.032.267-.029.269.109.255-.1.277.115.254-.014.268.021.264.068.258-.011.271.038.263.129.247.028.264.062.259.058.257.02.267.061.257.081.253-.042.281.164.234-.029.28.085.252.094.249.025.271.168.227.082.25.018.273.061.259.161.227.094.248.052.261.081.253.059.262.2.206.042.268.061.264.166.216.029.277.1.248.2.2.071.262.1.245.214.187.03.283.191.2.106.244.159.215.168.208.077.263.158.213.075.267.211.178.1.25.12.24.19.191.155.216.107.248.248.148.12.239.123.241.212.169.114.249.225.158.157.215.153.218.171.2.147.224.182.193.172.2.229.149.192.181.181.192.178.2.12.254.25.125.129.247.21.164.2.169.195.181.2.176.2.178.188.188.227.139.176.2.2.175.217.15.221.149.241.12.181.2.277.067.21.162.168.224.224.145.257.088.211.163.181.208.286.044.228.135.185.205.246.107.195.193.279.043.214.162.262.073.177.231.287.017.244.1.2.2.277.031.21.18.281.02.214.173.243.11.239.115.259.068.225.153.287-.011.214.189.273.024.269.02.241.122.234.138.262.06.265.029.252.09.273,0,.238.142.252.077.258.068.277-.028.255.082.265.024.249.1.273-.025.241.17h.267l.257.1.278-.082.255.1.263.028.268,0,.263.011h.268l.26.063.264,0,.267-.015.264.021.264.035.264.082.263,0,.268-.01.265-.1.265,0,.265.065.265-.016.268.021.26-.076.267.025.264-.01.257-.138.277.111.25-.139.267,0,.276.053.245-.149.269-.006.268.006.246-.14.281.071.239-.159.281.046.241-.145.277.031.249-.106.273,0,.262-.053.222-.2.291.062.216-.209.274,0,.269-.03.241-.115.267-.042.226-.157.228-.152.253-.08.284,0,.254-.072.195-.227.3.04.211-.181.246-.1.264-.057.238-.12.216-.163.26-.073.234-.123.25-.09.212-.173.25-.095.24-.116.212-.161.2-.189.252-.1.187-.2.233-.132.251-.1.244-.11.161-.237.276-.064.181-.2.2-.17.273-.075.177-.208.221-.145.2-.171.23-.135.153-.234.236-.129.228-.139.15-.234.273-.089.138-.244.206-.167.216-.156.142-.237.286-.083.177-.2.114-.26.179-.2.279-.1.137-.237.135-.232.262-.123.085-.28.25-.134.118-.249.153-.215.267-.125.135-.232.2-.184.158-.212.08-.273.221-.167.063-.28.252-.146.147-.222.051-.286.176-.2.191-.189.1-.249.109-.244.221-.174.161-.216.1-.245.088-.255.163-.212.09-.253.149-.219.091-.252.16-.217.048-.271.116-.237.173-.212.066-.262.069-.256.212-.2-.029-.3.19-.211.03-.272.138-.23.116-.241.075-.252.148-.23-.014-.285.112-.243.126-.237-.053-.293.155-.23.03-.267.071-.255.11-.247-.023-.277.172-.231.008-.271-.005-.272.139-.24.005-.271.121-.249.035-.262.059-.259-.095-.281.032-.262.12-.253-.051-.271.073-.258v-.267l.039-.262.09-.26.006-.264,0-.268.044-.262-.086-.269.116-.263-.115-.267.023-.264.095-.265-.1-.265-.015-.264.019-.266-.057-.263.028-.267.005-.266.028-.268-.114-.257.08-.274-.068-.259-.044-.262-.056-.26-.078-.258-.047-.26-.019-.265,0-.268-.1-.25.043-.277-.148-.241.037-.278-.157-.236.039-.282-.111-.244-.111-.248-.068-.255.024-.281-.144-.234.03-.286-.193-.218-.023-.271-.091-.249-.035-.269-.08-.253-.179-.217-.09-.249-.037-.27-.054-.264-.2-.2-.092-.25-.023-.277-.14-.229-.08-.255-.172-.213-.129-.231-.134-.229-.14-.227-.138-.226-.068-.264-.173-.206-.059-.271-.145-.224-.153-.218-.08-.263-.157-.213-.148-.221-.136-.227-.166-.209-.124-.238-.171-.206-.143-.223-.133-.231-.2-.186-.134-.231-.178-.2-.174-.2-.148-.221-.24-.146-.088-.272-.169-.2-.258-.126-.185-.191-.173-.2-.076-.291-.238-.143-.2-.169-.181-.2-.2-.179-.123-.254-.253-.121-.147-.229-.177-.2-.279-.085-.126-.259-.2-.169-.209-.167-.267-.092-.195-.181-.193-.182-.244-.116-.2-.176-.2-.178-.177-.208-.244-.111-.174-.214-.22-.151-.254-.1-.2-.179-.246-.1-.254-.094-.161-.243-.216-.157-.228-.14-.243-.106-.234-.128-.272-.057-.215-.157-.211-.171-.25-.092-.219-.158-.265-.062-.264-.059-.222-.148-.253-.083-.225-.146-.248-.095-.268-.047-.244-.1-.24-.113-.257-.073-.2-.206-.248-.1-.252-.088-.25-.085-.267-.038-.282.01-.236-.125-.258-.062-.252-.088-.255-.066-.267-.024-.229-.185-.258-.059-.259-.058-.274,0-.25-.093-.268-.017-.27.015-.262-.049-.246-.128h-.269l-.263-.033-.254-.1-.265-.017-.278.108-.253-.15-.27.064-.26-.085-.265.019-.263-.051-.263-.056-.269.053-.265.018-.264-.088Zm0,50.077-.268-.03-.265-.027-.264-.094-.268.079-.267-.021-.263-.056-.264-.036-.263-.046-.274.054-.254-.123-.265-.015-.27.03-.255-.106-.267-.013-.258-.08-.288.109-.255-.094-.253-.094-.263-.038-.269-.018-.265-.042-.236-.152-.246-.112-.281.017-.259-.065-.231-.157h-.279l-.258-.068-.238-.13-.274-.025-.219-.179-.26-.066-.253-.078-.278-.027-.2-.221-.241-.108-.252-.09-.289-.009-.2-.2-.286-.023-.2-.2-.273-.051-.19-.215-.238-.119-.291-.024-.193-.2-.22-.149-.274-.064-.211-.166-.216-.157-.236-.127-.21-.164-.264-.084-.2-.186-.159-.232-.246-.114-.26-.1-.136-.261-.24-.125-.233-.134-.166-.222-.2-.171-.263-.1-.2-.179-.234-.14-.124-.261-.248-.124-.15-.229-.159-.218-.224-.152-.23-.147-.192-.182-.154-.223-.135-.239-.187-.188-.273-.113-.143-.228-.126-.245-.192-.186-.219-.166-.077-.278-.2-.184-.215-.172-.115-.248-.13-.234-.176-.2-.181-.2-.164-.208-.072-.271-.226-.173-.1-.249-.2-.188-.011-.3-.143-.224-.121-.238-.168-.211-.125-.234-.139-.228-.145-.226-.087-.252-.095-.25-.216-.192.019-.3-.248-.18.014-.3-.21-.2-.1-.249-.1-.248.014-.292-.131-.234-.139-.234-.086-.253-.064-.257-.112-.246,0-.276-.038-.267-.139-.238-.116-.247.054-.286-.195-.228v-.273l-.095-.252-.071-.257-.034-.267-.076-.258-.046-.264.005-.269.048-.277-.04-.263-.144-.249.071-.277-.129-.255-.052-.263-.006-.267.1-.275-.043-.265-.124-.261v-.268l-.009-.267.044-.269.072-.266-.037-.267-.061-.268.087-.264.059-.263-.124-.274.144-.258-.039-.269,0-.267.1-.261-.095-.278.164-.247-.014-.271-.038-.274.021-.267.1-.254.006-.271.067-.258.1-.251-.034-.28.1-.251.106-.25-.024-.28.185-.229-.019-.279.11-.247.085-.253.044-.265.126-.24.083-.253,0-.279.1-.248.081-.255.086-.254.126-.236.1-.249.081-.258.2-.2.014-.286.2-.2.1-.248.1-.25.162-.216.039-.281.119-.239.187-.2.149-.219.062-.27.133-.234.172-.209.153-.219.177-.2.052-.283.2-.187.186-.193.1-.255.226-.166.166-.207.086-.269.2-.182.178-.2.085-.275.249-.14.114-.251.192-.186.153-.221.147-.229.229-.152.166-.211.239-.141.126-.248.226-.151.211-.163.159-.222.19-.184.233-.142.124-.262.23-.144.234-.134.162-.224.246-.118.161-.228.219-.15.226-.147.214-.158.236-.129.215-.158.221-.148.182-.206.214-.161.226-.143.231-.134.277-.06.183-.209.274-.06.22-.154.225-.141.235-.125.236-.124.239-.118.248-.1.222-.152.259-.075.248-.1.236-.124.236-.123.226-.148.268-.046.21-.2.253-.083.282-.01.249-.094.23-.151.259-.062.278,0,.222-.185.254-.079.281.006.25-.1.276,0,.235-.156.269-.021.248-.113.288.069.238-.167.26-.059.279.05.248-.129.276.039.25-.131.276.042.267-.019.265-.012.26-.057.272.042.258-.129.272.094.263-.081.265-.075.267.034.269.057.264-.019.267-.044.267.025.269-.056.263.087.264.027.267.025.27-.067.264.05.268,0,.262.08.272-.043.248.161.269,0,.255.1.282-.075.252.107.262.046.269.019.264.04.265.037.249.1.263.052.265.037.255.078.25.1.235.145.254.077.257.071.282,0,.254.084.228.155.253.086.235.126.27.04.233.138.24.114h.292l.188.234.287.01.229.139.2.195.291.016.224.152.211.167.281.042.176.234.286.034.179.223.277.057.178.218.25.1.186.2.215.158.3.036.139.266.3.038.172.217.181.2.236.131.181.2.253.107.249.118.2.182.14.244.183.2.291.075.095.292.25.121.188.189.153.226.192.184.225.152.15.225.183.192.155.217.217.16.15.224.161.214.2.181.222.164.13.236.221.166.154.218.119.246.124.236.244.156.07.274.2.185.164.211.062.277.2.19.126.235.148.223.1.247.21.189.083.257.094.252.2.2.02.287.2.2.1.245.082.256.183.21-.018.3.124.236.2.2.106.245-.027.3.154.225.148.229-.019.29.2.213-.014.283.152.233.1.249-.048.293.109.245.028.267.072.256.159.235-.016.278.168.235-.067.286.058.26.166.24.011.269-.015.273.087.255.071.259-.067.277v.267l.062.263.075.261-.018.268.059.262-.014.268.047.264-.037.269.083.264v.267l-.067.268.044.266.037.268-.125.262.128.273-.107.262.054.27-.071.263-.046.263-.01.267-.095.259.072.276-.064.259-.091.256.095.283-.126.25-.006.27-.052.261-.1.252.029.28-.168.236-.009.271-.005.274-.152.235-.028.27-.145.236-.064.258-.1.249.048.3-.078.255-.171.223-.011.28-.135.235-.073.258-.11.242-.166.221-.092.248-.09.252-.138.23-.025.282-.212.193-.01.293-.139.228-.209.193-.035.282-.12.239-.155.219-.092.253-.169.211-.159.216-.179.2-.067.274-.233.167-.114.243-.138.229-.134.23-.123.24-.149.223-.177.2-.2.185-.12.246-.24.151-.095.267-.241.145-.095.268-.253.135-.142.232-.14.23-.188.195-.253.125-.134.241-.267.111-.106.272-.235.14-.187.189-.233.14-.2.17-.14.244-.2.172-.244.123-.238.131-.139.251-.219.154-.267.088-.191.189-.234.127-.181.206-.21.166-.211.166-.211.164-.214.159-.259.088-.2.187-.268.066-.224.147-.22.149-.264.071-.225.147-.233.128-.239.117-.228.137-.253.092-.231.132-.248.1-.253.083-.224.151-.259.073-.238.122-.243.109-.258.072-.216.182-.288-.012-.25.083-.219.188-.252.092-.258.072-.294-.06-.236.143-.249.1-.262.058-.257.075-.279-.033-.241.145-.276-.009-.265.021-.24.171-.281-.063-.262.048-.262.048-.25.137-.268.018-.267.007-.26.086-.267.008h-.268l-.27-.043-.262.068-.269-.062-.267.012-.264.07-.268-.035Z" transform="translate(-170.813 -4218.201)" fill="#1a1a1a"/>
      </g>
    </g>
  </g>
  <g id="グループ_2012" data-name="グループ 2012" transform="translate(59.843 6.279)">
    <g id="グループ_2008" data-name="グループ 2008" transform="translate(86.45 0.294)">
      <path id="パス_3861" data-name="パス 3861" d="M315.448,4234.813l-.071.681v.661l-.1.644-.144.644-.078.646-.128.646-.312.595-.064.659-.111.647-.22.621-.308.589-.159.63-.185.626-.279.6-.145.644-.288.587-.2.627-.294.579-.318.527-.385-.463-.425-.487-.348-.542-.353-.534-.226-.617-.363-.527-.289-.571-.231-.6-.422-.507-.277-.58-.1-.652-.331-.56-.169-.618-.135-.629-.293-.575-.048-.653-.289-.583-.027-.619.257-.545.195-.521.344-.448.667.083.662-.113.664.01.666.061.661.057.666-.1.664.067.666.03.667-.007.666-.063Zm-16.453,8.139.028-.629-.078-.612.009-.614.039-.609-.043-.614-.014-.613.171-.615-.1-.61-.067-.615.037-.612.114-.614-.052-.615-.027-.63.619.045.6-.1.6.042.6-.063.6.035.6.1.6-.063.6-.072.741-.182-.179.665-.368.509-.225.575-.3.533-.356.5-.169.613-.307.539-.452.442-.239.578-.377.491-.394.473-.249.533.335.564.554-.459.589-.27.468-.434.43-.478.518-.369.525-.368.387-.513.46-.44.493-.408.4-.392.131.547.029.638.08.633.125.625.188.611.236.6.114.622.134.622.071.637.284.58.182.605.164.615.2.605.2.6.325.554.142.628.277.571.337.543.2.605.315.55.244.531-.173.6-.4.507-.4.5-.356.538-.339.55-.375.526-.484.433-.454.459-.341.556-.426.478-.517.393-.378.528-.451.46-.509.4-.421.493-.556.337-.461.445-.476.434-.434.483-.6.289-.5.4-.485.427.03.058.483.826.057-.124.621-.143.53-.341.618-.147.56-.281.49-.414.59-.211.557-.287.484-.4.55-.3.535-.321.5-.371.523-.34.447-.446.523-.342.561-.3.439-.452.41-.477.559-.312.42-.475.411-.473.49-.391.377-.433.44.423.406.512.464.463.329.584.511.421.393.524.423.505.516.412.53.391.5.421.471.453.468.469.535.375.624.254.512.4.509.415.573.307.152.014.1,0,.2-.631.244-.625.431-.512.46-.48.456-.483.5-.435.566-.36.655-.134-.011-.077.095-.858-.063-.014.051-.148-.583-.238-.565-.267-.592-.217-.564-.283-.566-.268-.567-.269-.528-.348-.522-.35-.608-.22-.428-.489-.624-.208-.417-.494-.581-.27-.5-.395-.487-.405-.384-.518-.507-.386-.518-.414.348-.585.344-.552.284-.584.388-.535.335-.559.209-.622.224-.618.4-.532.107-.664.313-.573.192-.623.216-.618.24-.6.179-.622.206-.619.252-.6.291-.594.174-.629.046-.662.276-.6.053-.687.669-.149.583-.241.388-.528-.364-.618-.675-.177-.7-.231-.707-.218-.705-.3.713.058.684-.042.688-.08.685.092.69.061.689-.162.575.094.469-.34.145-.53-.068-.545-.437-.341-.392-.579-.538-.418-.561-.4-.517-.445-.449-.513-.536-.429-.487-.479-.8-.479-.64.589-.415.515-.417.508-.279.6-.5.465-.293.618-.662-.044-.642-.014-.639.044-.641-.055H313.2l-.639.1-.645-.021-.642.018-.645.014-.642-.04-.662.005.236-.66.4-.516.167-.632.373-.532.245-.594.233-.6.306-.569.14-.639.239-.6.313-.569,0,.031.65-.228.61-.244.329-.52-.171-.489-.454-.307-.56-.044-.583-.249-.584-.234-.626-.106-.573-.28-.6-.193-.636-.077-.589-.233-.6-.2-.08.084-.109.035-.009.655-.129.641-.068.646-.064.647-.2.625-.1.639-.226.62-.051.659-.215.619-.2.619-.114.643-.177.628-.254.6-.069.666-.26.6-.262.58-.379-.392-.407-.556-.53-.44-.447-.517-.446-.52-.465-.505-.686-.46-.642.527-.33.486-.254.531-.306.5-.356.513-.772-.02.09-.693-.1-.65.1-.651-.027-.651-.015-.652,0-.651v-.652l.006-.652.024-.648-.043-.657.667-.221.621-.349.315-.651-.426-.614-.742-.119-.617-.144-.641.053-.626-.09-.616-.182-.628-.068-.637,0-.624-.1-.637-.169.107.255.066.661-.045.671.068.661-.066.664.129.66-.043.667.067.668-.149.606.137.609.013.607-.115.607.107.611-.095.61.087.665-.76-.076-.717-.011-.719-.023-.71.039.259-.577.034-.654.284-.589.068-.642.067-.642.144-.4.617-.133.531-.331.217-.562-.385-.617-.773-.143-.559-.222-.574-.142-.578-.134-.6-.032-.573-.159-.586-.094-.567-.186-.059.047-.124.045.04.649-.087.644.115.655-.111.641-.035.644-.01.649-.045.643-.038.646-.126.634-.067.645-.053.642-.106.641-.134.629-.2.622-.111.636-.1.632-.009.652-.125.634-.207.62-.116.634-.172.621-.057.646-.182.628-.145.633.035.277.827.426.009-.164.383-.51.434-.484.214-.623.35-.536.355-.538.186-.623.407-.519.145-.638.365-.541.145-.634.334-.556.171-.622.243-.533.562.019.585-.164.584.164.586-.172.588.091.532.038.027.6-.054.647.092.649.076.648-.011.651-.115.646-.03.651.164.646-.181.65.1.652-.009.651-.068.649.01.652.063.656-.623.087-.6.14-.614.1-.591.19-.61.083-.609.1-.6.146-.6.179-.617.039-.6.171-.612.068-.623.014-.621.028-.018.037.1.636.286.583.24.605.1.65.284.585.2.621.225.608.174.627.4.609.541.374.537-.2.1-.582.2-.531.459-.307.589-.228.6-.211.549-.328.647-.1.571-.275.521-.381.672-.237-.154.7.077.667.07.672-.134.672.144.667-.123.67.089.671.024.674-.157.625.039.629-.059.632v.629l.113.629-.106.631.128.633-.154.632v.628l.133.713-.021.585.167.563.554.194h.589l.634.1.638-.021.624-.162.569-.286.512-.38.182-.608.067-.629-.044-.679.044-.685-.1-.68-.006-.68.07-.684-.07-.684-.063-.7.13-.7-.183-.7.106-.7-.087-.627.062-.628.033-.628-.019-.628.077-.628-.123-.632.04-.625.061-.632-.162-.629.1-.627.524-.333.556-.3.576-.25.5-.4.612-.185.513-.366.5-.386.586-.238.494-.388.565-.282.5-.371.091-.108-.479-.8-.518.217-.645.079-.593.269-.633.122-.617.2-.636.144-.653.077-.632.16Z" transform="translate(-286.563 -4223.401)" fill="#1a1a1a"/>
    </g>
    <g id="グループ_2009" data-name="グループ 2009" transform="translate(128.59 0.557)">
      <path id="パス_3862" data-name="パス 3862" d="M355.338,4240.736l-.4-.437-.379-.465-.53-.3-.421-.418-.412-.433-.426-.42-.469-.375-.677-.334.023-.651-.083-.6-.028-.606.12-.611-.006-.61-.075-.716-.008-.72.006-.714-.1-.641v-.645l.07-.645-.028-.641.018-.646-.009-.647.174-.038.5-.421.5-.395.294-.552-.444-.727-.224-.116-.532-.39-.5-.431-.48-.453-.5-.432-.428-.514-.434-.246-.47-.131-.662.406-.407.6-.514.511-.413.638-.658-.029-.617,0-.619-.1-.619.077-.618-.012-.617,0-.618.077-.618-.148-.619.08-.618-.11-.619.058-.621.11-.618-.149-.622.057-.613-.045-.628-.117-.557-.333-.589-.251-.59-.248-.609-.2-.646-.107-.564-.312-.605-.222.027.143-.064.6.049.6.147.6-.013.6-.088.6.1.6-.064.6.044.6.043.6-.068.607-.023.6-.024.6.053.6-.077.606v.6l.092.6,0,.6.028.6-.064.6.047.6-.083.635-.129.632.106.638.123.689.565.347.686.205h.594l.573-.181.567-.131.574-.135.408-.405.273-.51.624-.007.626.021.619-.089.626.045.621,0,.624-.031.623,0,.619.068.626.054.622-.063.624.07.621-.123.626.111.626.007.627.025.591,0,.183.592.5.467.715-.061.589.044.594-.017.559-.233.5-.149-.231.51-.416.4-.259.521-.415.392-.642.092-.647-.075H347.6l-.647.07-.648-.053-.646-.1-.651.1-.645-.044-.648.08-.648.014-.65-.144-.65.02-.648.129-.647-.031-.652-.075-.647.034-.646-.034-.651-.03-.647.021-.651.046-.648-.1-.651.063-.65.045-.652-.014-.652-.036-.651-.056-.647.038-.648-.028-.647-.068-.656.11-.639-.122-.283-.021.166.619.217.6.274.578.216.6.011.066.061-.045.622-.037.621-.035.616-.1.627.09.623-.09.7.073.706-.052-.286.61-.235.583-.215.6-.217.6-.417.494-.32.542-.224.612-.38.509-.44.464-.392.5-.311.567-.463.445-.422.468-.346.539-.428.471-.416.48-.408.488-.408.49-.508.4-.391.509-.148.072.532.7.111-.015.035-.06.573-.256.608-.19.47-.442.543-.308.618-.19.494-.39.559-.3.5-.379.512-.365.4-.5.593-.27.434-.454.436-.451.367-.517.526-.37.284-.579.471-.363.543-.089.566,0,.578-.024-.364.583-.273.579-.334.545-.33.544-.353.537-.358.53-.379.518-.4.5-.417.484-.541.373-.354.548-.44.464-.512.393-.506.4-.378.53-.533.369-.5.4-.428.482-.518.378-.518.383-.521.376-.064.147.588.765.115-.018.608-.208.57-.3.565-.3.571-.3.508-.4.573-.288.609-.233.466-.46.535-.349.578-.294.474-.444.548-.336.426-.491.452-.454.466-.436.517-.391.484-.422.426-.484.388-.513.389-.506.434-.475.38-.516.368-.525.326-.553.3-.563.349-.594.591.038.569.024.571-.057.547.143-.254.489-.2.6-.221.6-.337.54-.292.563-.351.522-.3.564-.4.495-.423.473-.332.538-.468.431-.411.478-.348.533-.454.44-.494.4-.344.554-.492.4-.542.341-.389.514-.533.353-.507.379-.514.366-.466.425-.54.339-.425.493-.532.344-.55.32-.479.426-.064,0,.157.454.327.364-.025-.048.61-.187.619-.181.593-.239.631-.147.574-.291.532-.375.628-.173.58-.277.5-.417.547-.325.574-.292.479-.424.573-.3.483-.416.5-.4-.009.111.632.134.6.228.617.185.543.347.54.34.5.421.2.618.336.563-.049.655.129.629-.034.116.107-.106.641.006.646.071.624-.22.656.083.609-.221.64-.094.54-.359.565-.282.488-.4.466-.443.325-.554.3-.566.192-.61.283-.574.147-.624.086-.633.214-.606.143-.626-.025-.651.082-.633.239-.608-.019-.644.129-.627.071-.636.021-.643.094-.628,0-.645.168-.584.6-.305.5-.5.384-.539-.287-.468-.287-.482-.494-.354-.449-.4-.519-.328-.387-.478-.463-.395-.506-.348-.11-.113-.519-.184-.541.345-.413.392-.307.467-.341.449-.259.526-.638.032-.622.015-.618-.124-.621-.023h-.621l-.623.032-.619-.018-.623.061h-.621l-.619.052-.621-.039-.622.072-.621-.111-.623.022-.623.092-.622-.106-.622.025-.623.031-.645.018.436-.492.27-.528.22-.552.329-.484.283-.562.656.106.643-.121.638,0,.639.1.638-.083.64.019.643.112.638-.135.64.148.643,0,.64-.172.641.157.643-.122.641.069.64-.117.64.128.645.023.636.018.645-.113.642.024.64.028.645.023.645.031.641.014.566-.157.485-.253.249-.478-.158-.537Zm-8.056-12.954-.035.72-.087.695.139.7-.029.713-.642-.031-.621-.022-.623.044-.622.049-.622-.043-.623.068-.621.011-.619-.138-.624-.014-.621.056-.624-.016-.626-.018-.619.1h-.624l-.626-.069-.642.023.013-.709-.009-.695.066-.7-.073-.715h.641l.623.033.622.012.623-.054.623-.053.623.006.619.024.621.005.626.112.618-.05.626-.015.623-.019.621-.058.626.074.622-.085Zm0,4.905-.034.621-.087.584.139.588-.023.589-.035.581-.613-.025-.621.042-.623.045-.622-.043-.622.068-.623.011-.621-.135-.619-.014-.624.054-.621-.014-.624-.017-.626.1h-.619l-.624-.068-.626.027-.627-.018-.011-.594.066-.586-.082-.588.009-.586.03-.58.61.015.623-.055.622-.055.623.006.623.025.623.008.619.108.621-.047.626-.016.618-.017.626-.062.623.08.621-.088.626.037.623,0Zm2.38,14.518-.1.616-.142.611.077.633-.086.615-.113.62-.1.613-.037.628-.045.625-.152.61-.052.627-.126.614-.3.562-.26.564-.434.432-.617.141-.634.012-.686.081-.677-.025-.677-.1-.685,0-.681-.044-.693-.025.525-.42.408-.521.455-.47.46-.462.434-.5.364-.548.349-.557.382-.532.385-.531.353-.55.428-.5.284-.6.3-.585.283-.592.234-.612.35-.555.6-.088.609.04Z" transform="translate(-317.97 -4223.609)" fill="#1a1a1a"/>
      <path id="パス_3863" data-name="パス 3863" d="M332.907,4246.1l-.621.318-.619.216-.628.182-.641.145-.584.3-.612.1-.057-.614-.04-.625.092-.628.031-.627-.018-.628.016-.624-.144-.631.162-.626-.157-.627.086-.626.025-.627-.045-.631-.061-.626.121-.629-.1-.63.127-.629-.12-.67.677-.015.638.084.635.04.635-.161.64.014.638.136.537-.2.524-.136.3-.492-.463-.842-.375-.495-.518-.359-.371-.5-.479-.4-.376-.5L331,4232.4l-.537.557-.5.458-.288.6-.378.528-.21.05.135-.652-.118-.634.15-.632-.128-.63,0-.632.051-.632,0-.632,0-.632.017-.637.045-.632-.114-.634.064-.638.013-.625.579-.275.574-.316.323-.555-.389-.533-.639-.273-.142-.087-.609.008-.6-.044-.6-.076-.589-.148-.617.111-.6-.088-.6-.055-.585-.2-.089.075-.025.086.133.609-.051.625.046.621.009.621.086.618-.1.622.107.619-.005.623.021.624-.066.625-.05.624.005.626.03.623.05.627-.113.628.037.627.071.644-.714.037-.676-.119-.67.044-.674.065-.669-.078-.669-.105-.672-.047-.154.02.179.58.295.537.245.554.122.6.074.009.033-.022.674.044.671-.051.671.1.674-.149.671.1.545-.01.075.622-.09.625-.021.625-.008.623.088.628-.131.625.018.624.161.627-.028.624.018.624-.083.623.023.623,0,.626-.113.627.03.627.057.625.03.627-.06.629.053.633-.608.137-.579.177-.594.11-.6.06-.6.052-.586.157-.6.049-.6.1-.083-.016.3.6.175.655.258.624.266.62.3.6.241.632.3.608.217.639.052.167.326.563.488.3.44-.3.177-.545.171-.533.461-.419.536-.376.523-.387.6-.271.525-.39.533-.373.558-.342.582-.317.473-.473.536-.3.476-.385.513-.337.446-.426.557-.274.45-.415.525-.327.478-.379.456-.406.488-.458-.339-.4Z" transform="translate(-319.904 -4223.554)" fill="#1a1a1a"/>
    </g>
    <g id="グループ_2010" data-name="グループ 2010">
      <path id="パス_3864" data-name="パス 3864" d="M247.738,4231.533l-.507-.366-.628-.125-.48-.421-.555-.266-.613-.162-.536-.311-.5-.378-.571-.242-.578-.213.024.081-.251.612-.126.642-.123.641-.24.61-.293.584-.111.655-.337.566-.179.632-.343.562-.281.591-.2.626-.219.619-.375.546-.312.576-.213.625-.277.591-.36.551-.261.6-.4.531-.374.542-.039.125.7.559.06.092.083-.063.539-.34.474-.426.569-.3.484-.416.437-.468.515-.37.462-.435.447-.455.466-.427.5-.391.473-.429.45-.444.433-.469.293-.583.438-.46.5-.412.432-.462.334-.547.38-.528.592-.044.561-.07.491-.188.239-.449-.158-.514-.45-.32Z" transform="translate(-213.065 -4221.618)" fill="#1a1a1a"/>
      <path id="パス_3865" data-name="パス 3865" d="M227.277,4241.424l.567-.115.562-.166.487-.331.5-.345.324-.519.171-.584.153-.581.066-.6-.153-.618-.116-.614-.135-.611-.254-.574-.358-.513-.3-.558-.329-.537-.4-.487-.547-.347-.4-.482-.435-.462-.542-.323-.49-.393-.561-.293-.5-.386-.523-.352-.568-.274-.551-.294-.538-.323-.581-.232-.1-.082-.726.645.172.181.318.563.3.571.355.538.343.543.238.6.312.562.388.53.217.609.282.58.267.593.232.6.07.66.317.576.158.63.1.591.154.58.325.514.253.535.31.53.56.255Z" transform="translate(-217.412 -4221.518)" fill="#1a1a1a"/>
      <path id="パス_3866" data-name="パス 3866" d="M256.881,4245.687l-.379-.509-.481-.406-.41-.477-.47-.41-.552-.331-.369-.527-.478-.415-.419-.469-.837-.378-.79.479-.275.653-.437.549-.37.594-.447.543-.362.562-.581.019-.616.09-.616-.006-.617.054-.618-.16-.618.112-.617-.036-.617.025-.616.011-.617-.025-.619-.079-.618-.012-.618.018-.617.123-.623-.075-.566-.048-.138-.574.155-.629-.125-.628-.028-.629.129-.629-.123-.627.163-.629-.141-.628.049-.63-.049-.627.029-.631.053-.629-.008-.631.05-.629-.036-.632,0-.629-.082-.629v-.629l.025-.629.073-.627-.106-.63.018-.634.076-.632.021-.625-.11-.635.017-.665.666-.011.637.128.635-.082.637.03.639-.066.635.019.637.042.639-.057.636.075.637-.129.637.167.64-.026.634-.043.637-.008.639.008.637-.043.636.053.64-.066.637-.032h.639l.641.072.64-.047.553-.135.451-.286.232-.5-.1-.589-.377-.467-.52-.351-.493-.376-.417-.461-.506-.365-.378-.5-.5-.377-.505-.374-.426-.458-.767-.375-.721.382-.4.568-.4.563-.279.646-.367.588-.424.57-.647-.12-.629.155-.629-.042-.629-.054-.631.022-.631.074-.629.029-.633-.16-.632.1-.631.042-.629-.1-.632-.016-.63.075-.632-.059-.634.013-.632.093-.632-.118-.63.07-.633-.037-.634.026-.631-.106-.632.1-.633.047-.632-.091-.634.114-.631-.07-.635-.041-.631-.013-.633.036-.633.021-.631-.038h-.635l-.635.053-.633.034-.634-.121-.638.06-.636.066-.672-.054-.674-.082-.672.065-.671-.043-.667-.1-.661-.107-.233.083.247.678.3.648.113.7.2.676.079.084.093-.105.629.042.609-.189.635.137.617-.029.619-.188.648.173.646-.013.649-.13.649.13.649-.144.648.159.647-.043.649-.1.646.1.649-.092.649.066.649.009.652-.045.647-.046.65.166.653-.168.652.07-.075.627.087.631-.095.631.055.626.048.629.063.627-.115.627v.632l.055.627-.025.632-.028.627-.04.629-.018.629.01.632.146.629-.127.633.1.625-.009.629-.017.628.052.632-.084.632-.078.63.128.628-.1.633,0,.634.08.647-.652-.006-.639-.045-.64.118-.638-.125-.637.007-.64-.047-.64.01-.639.1-.639-.052-.642-.063-.634.1-.639.055-.639-.025-.639-.021-.64-.045-.642,0-.637.016-.642-.084-.641.027-.643-.029-.674.108-.674.048-.671-.07-.668-.067L219,4245.1l-.669-.014-.174-.041.316.635.18.671.212.665.223.657-.022.073.064-.01.622-.063.621-.015.623-.035.624.057.618-.166.643.136.645-.153.645.122.643.056.644-.086.646-.025.645-.042.644.077.648-.033.645.1.641-.1.645-.025.646-.038.646.1.646.064.647-.008.644-.156.648.068.646-.057.7.025-.017.715-.1.667.023.668,0,.664.1.668-.073.668.045.668.03.668-.1.668.1.65-.1.648-.034.65.1.658-.013.651-.04.648-.021.657-.061.647.109.649-.145.648.028.636.368.521.563.262.624.057.65-.1.643-.046.642-.085.648-.118.52-.417.253-.593.138-.632.006-.61-.043-.6-.038-.613-.094-.643.01-.645.112-.65-.087-.646.026-.647-.036-.646v-.643l.076-.626-.086-.625,0-.626.092-.627-.136-.63.067-.629v-.626l.057-.629-.077-.655.648.116.624-.007.628-.118.626.029.624-.072.624.086.626-.092.627.085.626.038.625-.014.625.049.628-.014.625-.111.627.1.628-.015.625.015.624-.1.625,0,.629.068.624-.045.629-.041.627.082.626-.062.628.078.629.018.631.043.583-.182.535-.289.136-.593-.183-.545Z" transform="translate(-218.162 -4223.169)" fill="#1a1a1a"/>
    </g>
    <g id="グループ_2011" data-name="グループ 2011" transform="translate(46.269 1.35)">
      <path id="パス_3867" data-name="パス 3867" d="M287.964,4226.969l-.474-.465-.56-.351-.447-.494-.573-.335-.508-.419-.494-.438-.8-.229-.827.348-.249.512-.319.466-.317.466-.322.425-.594.074-.628-.006-.626.052-.629-.111-.627.1-.632-.056-.627-.029-.631-.021-.624.1-.628-.041-.629.034-.628.036-.631-.148-.628.121-.628-.05-.628.1-.631-.1-.629.1-.629-.116-.631-.03-.628.1-.629-.079-.633-.021-.627,0-.633-.027-.627.091-.631-.054-.629.106-.629-.082-.632-.05-.629-.01-.632.112-.632-.105-.633.061-.623-.038-.551-.243-.58-.2-.586-.188-.576-.213-.573-.224-.557-.262-.6-.147-.53-.337-.617-.113-.121-.157-.025.173.2.654-.107.684.107.666.077.672-.1.677.1.67.035.672-.088.68.076.638.018.64-.005.639-.042.637.011.638-.061.639.129.64-.006.641.015.64-.186.639.154.638-.086.642.051.639-.02.64.028.641-.112.641.1.638-.106.643.032.639.09.646-.066.638-.006.64.008.645-.005.639.129.641-.016.641-.144.644-.013.637.115.643-.11.644.008.641.1.643.063.642-.142.64-.021.645.03.646-.039.643.075.705.009.7-.015.708.009.71-.162.719.077.725-.1.72.058.615.441.387.527.233.6.109.672-.117.661-.055.662-.1.585-.3.571-.36.109-.669-.022-.663.121-.5-.091-.567.7.08.641.07.641-.073.64.087.643-.06.642-.016.642.016.641-.032.642.017.642-.1.642.177.641-.078.645.017.643.046.638-.057.645-.074.642.1.642.015.646-.066.641-.06.646.126.64-.059h.646l.643,0,.645.086.642-.1.642-.067.645.016.643.062.642.088.647-.043.643-.01.646-.064.646.07.679-.068.009.63-.057.594-.057.586.272.538.322.409.5.3.589-.011.6.029.6-.022.569-.218.586-.111.538-.283.313-.521.186-.577-.121-.59.057-.592-.116-.591.025-.595-.039-.609.027-.618-.008-.609.025-.609-.061-.61.038-.64.054-.633-.114-.635.069-.632.064-.635-.116-.64v-.635l.088-.638-.15-.635.181-.634-.185-.636.133-.635-.088-.64-.006-.636.082-.637.037-.638-.087-.634.107-.64-.048-.638-.048-.636.064-.638-.008-.637-.115-.64.061-.634v-.642l.02-.64.013-.633-.081-.635.014-.642-.008-.638.125-.639-.081-.635.049-.641-.025-.639-.068-.642.04-.644.559-.259.439-.425.463-.391.19-.571-.254-.61Zm-5.629,15.725-.054.686.063.649-.11.649.088.649-.018.652-.039.648.114.65-.167.652.077.65-.009.648-.005.649-.042.652.086.649-.011.648.054.655-.11.649.1.655-.053.652-.636-.035-.638-.024-.637.1-.641-.037-.637.03-.637.038-.64-.149-.638.124-.638-.053-.641.1-.641-.1-.64.1-.642-.118-.6-.011-.086-.608.075-.649.028-.649v-.65l.03-.65-.094-.652.054-.649-.1-.651.081-.648.053-.646.006-.656-.111-.646.1-.651-.059-.652.035-.65.024-.652-.035-.651-.047-.654.637-.016.641-.009.638.034.637-.09.642.118.636-.128.639.114.638.028.64-.133.639.158.638-.07.64-.054.646.114Zm0-13.966-.054.686.063.649-.11.653.088.648-.018.649-.039.649.114.653-.167.647.077.647-.009.65-.005.651-.042.651.086.65-.011.65.054.652-.11.65.1.655-.053.649-.636-.032-.638-.021-.637.093-.641-.036-.637.031-.637.037-.64-.148-.638.121-.638-.05-.641.1-.641-.1-.64.094-.642-.116-.6-.015-.086-.607.075-.647.028-.651v-.649l.03-.648-.094-.654.054-.647-.1-.653.081-.646.053-.651.006-.65-.111-.648.1-.655-.059-.648.035-.649.024-.653-.035-.654-.047-.654.637-.015.641-.008.638.034.637-.086.642.111.636-.126.639.114.638.035.64-.135.639.155.638-.07.64-.056.646.117Zm-13.563,0-.054.686.067.649-.114.653.091.648-.018.649-.043.649.115.653-.168.647.078.647-.009.65,0,.651-.039.651.082.65-.006.65.048.652-.109.65.1.655-.049.649-.638-.032-.636-.021-.637.093-.638-.036-.637.031-.637.037-.637-.148-.638.121-.639-.05-.641.1-.636-.1-.641.094-.64-.116-.6-.015-.086-.607.076-.647.028-.651,0-.649.025-.648-.091-.654.052-.647-.1-.653.082-.646.052-.651.009-.65-.112-.648.106-.655-.064-.648.038-.649.021-.653-.032-.654-.047-.654.638-.015.637-.008.638.034.638-.086.637.111.637-.126.637.114.637.035.638-.135.641.155.64-.07.638-.056.642.117Zm0,13.966-.054.686.067.649-.114.649.091.649-.018.652-.043.648.115.65-.168.652.078.65-.009.648,0,.649-.039.652.082.649-.006.648.048.655-.109.649.1.655-.049.652-.638-.035-.636-.024-.637.1-.638-.037-.637.03-.637.038-.637-.149-.638.124-.639-.053-.641.1-.636-.1-.641.1-.64-.118-.6-.011-.086-.608.076-.649.028-.649,0-.65.025-.65-.091-.652.052-.649-.1-.651.082-.648.052-.646.009-.656-.112-.646.106-.651-.064-.652.038-.65.021-.652-.032-.651-.047-.654.638-.016.637-.009.638.034.638-.09.637.118.637-.128.637.114.637.028.638-.133.641.158.64-.07.638-.054.642.114Z" transform="translate(-254.771 -4224.237)" fill="#1a1a1a"/>
    </g>
  </g>
</svg>
