<svg xmlns="http://www.w3.org/2000/svg" xmlns:xlink="http://www.w3.org/1999/xlink" width="363" height="136.755" viewBox="0 0 363 136.755"><defs><clipPath id="a"><rect width="363" height="136.755" fill="none"/></clipPath><clipPath id="b"><path d="M42.206,59.757q-3.079,2.71-3.077,8.235a12.95,12.95,0,0,0,.575,4.04,8.314,8.314,0,0,0,1.8,3.076,11.724,11.724,0,0,0,3.051,2.32,26.907,26.907,0,0,0,4.327,1.825,29.652,29.652,0,0,1,3.153,1.223,7.957,7.957,0,0,1,2.058,1.331,4.287,4.287,0,0,1,1.121,1.641,6.227,6.227,0,0,1,.339,2.163,4.2,4.2,0,0,1-1.381,3.466,4.8,4.8,0,0,1-3.1,1.121,6.089,6.089,0,0,1-2.421-.418,3.794,3.794,0,0,1-1.538-1.147,4.093,4.093,0,0,1-.784-1.8,12.362,12.362,0,0,1-.208-2.371V83.37H38.609v1.51q0,5.161,2.738,7.923t9.1,2.764q6.1,0,9.512-2.686t3.415-8.572a14.465,14.465,0,0,0-.313-3.129,7.28,7.28,0,0,0-1.121-2.58,9.543,9.543,0,0,0-2.163-2.189,17.791,17.791,0,0,0-3.492-1.956l-5.788-2.5a6.516,6.516,0,0,1-3.125-2.163,5.354,5.354,0,0,1-.732-2.893,7.146,7.146,0,0,1,.183-1.615A3.33,3.33,0,0,1,47.5,63.9a3.513,3.513,0,0,1,1.328-.964,5.224,5.224,0,0,1,2.084-.363A3.455,3.455,0,0,1,54.038,64a7.48,7.48,0,0,1,.938,4.093H62.17V67.053a11.047,11.047,0,0,0-.859-4.562,8.319,8.319,0,0,0-2.4-3.127,9.68,9.68,0,0,0-3.647-1.772,18.363,18.363,0,0,0-4.615-.548q-5.368,0-8.443,2.712" transform="translate(-38.609 -57.045)" fill="none"/></clipPath><linearGradient id="c" x1="-1.262" y1="0.946" x2="-1.224" y2="0.946" gradientUnits="objectBoundingBox"><stop offset="0" stop-color="#867552"/><stop offset="1" stop-color="#b6ab96"/></linearGradient><clipPath id="d"><rect width="7.506" height="37.218" fill="none"/></clipPath><linearGradient id="e" x1="-2.634" y1="1.124" x2="-2.58" y2="1.124" xlink:href="#c"/><clipPath id="f"><path d="M80.8,57.468V82.959h-.1l-9.07-25.491H62.976v37.22h6.881V68.625h.1l9.175,26.063h8.548V57.468Z" transform="translate(-62.976 -57.468)" fill="none"/></clipPath><linearGradient id="g" x1="-2.259" y1="0.947" x2="-2.219" y2="0.947" xlink:href="#c"/><clipPath id="h"><path d="M85.838,58.478a9.644,9.644,0,0,0-3.832,3.99,17.336,17.336,0,0,0-1.72,6.124,78.462,78.462,0,0,0,0,15.61,17.3,17.3,0,0,0,1.72,6.1,9.14,9.14,0,0,0,3.832,3.911,14.188,14.188,0,0,0,6.725,1.355,13.622,13.622,0,0,0,6.022-1.149,8.68,8.68,0,0,0,3.6-3.179,12.992,12.992,0,0,0,1.744-4.742,33.543,33.543,0,0,0,.47-5.734H96.89a26.187,26.187,0,0,1-.365,4.873,8.838,8.838,0,0,1-.99,2.867,3.131,3.131,0,0,1-1.486,1.355A4.975,4.975,0,0,1,92.2,90.2a4.356,4.356,0,0,1-2.111-.5,3.7,3.7,0,0,1-1.51-1.927,15.123,15.123,0,0,1-.887-4.042,64.985,64.985,0,0,1-.288-6.828q0-3.96.21-6.7a20.7,20.7,0,0,1,.73-4.431,5,5,0,0,1,1.433-2.45,3.518,3.518,0,0,1,2.32-.754,3.606,3.606,0,0,1,3.518,1.851,13.514,13.514,0,0,1,.964,5.915h7.506a35.887,35.887,0,0,0-.286-4.352,11.474,11.474,0,0,0-1.434-4.327,8.867,8.867,0,0,0-3.466-3.31,12.968,12.968,0,0,0-6.334-1.3,13.541,13.541,0,0,0-6.725,1.433" transform="translate(-79.897 -57.045)" fill="none"/></clipPath><linearGradient id="i" x1="-2.862" y1="0.937" x2="-2.824" y2="0.937" xlink:href="#c"/><clipPath id="j"><path d="M96.605,57.468v37.22h21.32V88.537H104.113V78.529h12.511V72.379H104.113V63.621H117.4V57.468Z" transform="translate(-96.605 -57.468)" fill="none"/></clipPath><linearGradient id="k" x1="-3.776" y1="0.964" x2="-3.735" y2="0.964" xlink:href="#c"/><clipPath id="l"><path d="M125.066,57.65a6.493,6.493,0,0,1-2.736,4.536,10.774,10.774,0,0,1-5.915,1.407h-.678v4.9h7.35V94.556h7.506V57.65Z" transform="translate(-115.736 -57.65)" fill="none"/></clipPath><linearGradient id="m" x1="-5.148" y1="1.015" x2="-5.101" y2="1.015" xlink:href="#c"/><clipPath id="n"><path d="M135.471,75.218a11.312,11.312,0,0,1-.939-5.371q0-1.563.131-2.891a7.912,7.912,0,0,1,.548-2.32,3.379,3.379,0,0,1,1.224-1.538,3.783,3.783,0,0,1,2.163-.548,3.681,3.681,0,0,1,2.111.548,3.6,3.6,0,0,1,1.252,1.51,7.793,7.793,0,0,1,.6,2.321,25.7,25.7,0,0,1,.157,2.917,11.313,11.313,0,0,1-.938,5.371,3.378,3.378,0,0,1-3.181,1.615,3.328,3.328,0,0,1-3.127-1.615m-5.6-14.179q-2.841,3.389-2.841,9.8a20.174,20.174,0,0,0,.5,4.615,10.535,10.535,0,0,0,1.564,3.647,7.328,7.328,0,0,0,2.79,2.4,9.262,9.262,0,0,0,4.169.858,9.566,9.566,0,0,0,4.248-.858,6.711,6.711,0,0,0,2.686-2.27h.1V81q0,2.033-.158,3.754a10.636,10.636,0,0,1-.651,2.972,4.579,4.579,0,0,1-1.381,1.955,3.757,3.757,0,0,1-2.4.7,2.882,2.882,0,0,1-2.631-1.173,5.97,5.97,0,0,1-.756-3.258h-7.195a10.782,10.782,0,0,0,.913,4.457,7.653,7.653,0,0,0,2.268,2.867,8.038,8.038,0,0,0,3.256,1.459,18.536,18.536,0,0,0,3.832.393,12.9,12.9,0,0,0,7.062-1.643,9.569,9.569,0,0,0,3.7-4.457,20.153,20.153,0,0,0,1.409-6.489q.232-3.676.234-7.637a56.351,56.351,0,0,0-.365-6.516,16,16,0,0,0-1.589-5.5,9.648,9.648,0,0,0-3.52-3.8,11.5,11.5,0,0,0-6.149-1.434q-6.256,0-9.1,3.389" transform="translate(-127.026 -57.65)" fill="none"/></clipPath><linearGradient id="o" x1="-4.841" y1="0.927" x2="-4.801" y2="0.927" xlink:href="#c"/><clipPath id="p"><path d="M152.646,89.838a3.562,3.562,0,0,1-1.252-1.512,7.6,7.6,0,0,1-.6-2.318,25.361,25.361,0,0,1-.157-2.921,11.293,11.293,0,0,1,.938-5.369,3.378,3.378,0,0,1,3.179-1.614,3.333,3.333,0,0,1,3.129,1.614,11.318,11.318,0,0,1,.937,5.369q0,1.565-.129,2.893a8.023,8.023,0,0,1-.548,2.32,3.4,3.4,0,0,1-1.224,1.538,3.8,3.8,0,0,1-2.165.548,3.688,3.688,0,0,1-2.109-.548M148.085,59.37a10.082,10.082,0,0,0-3.675,4.562A20.384,20.384,0,0,0,143,70.448q-.235,3.673-.236,7.584a55.951,55.951,0,0,0,.365,6.516,15.936,15.936,0,0,0,1.589,5.5,9.091,9.091,0,0,0,3.518,3.726,12.06,12.06,0,0,0,6.151,1.355q6.256,0,9.1-3.31t2.841-9.723a20.28,20.28,0,0,0-.494-4.613,10.625,10.625,0,0,0-1.564-3.649,7.307,7.307,0,0,0-2.788-2.4,9.233,9.233,0,0,0-4.171-.863,9.518,9.518,0,0,0-4.248.863,6.522,6.522,0,0,0-2.685,2.318h-.105V71.934q0-2.035.157-3.754a10.609,10.609,0,0,1,.653-2.97,4.477,4.477,0,0,1,1.407-1.956,3.777,3.777,0,0,1,2.371-.7,2.919,2.919,0,0,1,2.633,1.147,6.1,6.1,0,0,1,.754,3.336h7.195a10.816,10.816,0,0,0-.913-4.457,7.9,7.9,0,0,0-2.268-2.893A8.719,8.719,0,0,0,159,58.12a15.5,15.5,0,0,0-3.832-.47q-4.585,0-7.088,1.72" transform="translate(-142.767 -57.65)" fill="none"/></clipPath><linearGradient id="q" x1="-5.469" y1="0.923" x2="-5.429" y2="0.923" xlink:href="#c"/><clipPath id="r"><path d="M171.539,67.033h.1V81.054h-7.3Zm-.782-9.383-12.25,23.092v6.151h13.136v7.663h6.883V86.893h3.544V81.054h-3.544V57.65Z" transform="translate(-158.507 -57.65)" fill="none"/></clipPath><linearGradient id="s" x1="-6.159" y1="0.929" x2="-6.119" y2="0.929" xlink:href="#c"/></defs><path d="M181.741,23.665l-.122,1.166v1.126l-.176,1.1-.246,1.092-.138,1.106-.214,1.1-.534,1.016-.107,1.119-.189,1.106-.377,1.054-.523,1-.27,1.076-.317,1.068-.477,1.013-.248,1.1-.489,1-.334,1.068-.5.988-.544.9-.656-.787-.725-.832-.591-.921-.6-.913-.386-1.045-.62-.9-.489-.973-.4-1.028-.722-.866-.468-.987-.172-1.111-.565-.952-.289-1.054-.229-1.073-.5-.983-.084-1.111-.489-.992-.045-1.057.434-.926.332-.887.584-.766,1.14.145,1.128-.2,1.128.019,1.135.1,1.128.1,1.135-.169,1.131.117,1.133.052,1.135-.015,1.137-.107ZM153.713,37.537l.048-1.071-.136-1.044.019-1.045.062-1.04-.072-1.044-.024-1.045L153.9,30.2l-.174-1.044-.114-1.045.062-1.044.2-1.047-.091-1.047-.045-1.08,1.054.081,1.025-.169,1.028.072,1.026-.11,1.026.06,1.03.176,1.028-.11,1.03-.115,1.259-.315-.3,1.135-.625.864-.382.976-.515.913-.6.859-.289,1.049-.522.913-.771.754-.408.983-.641.835-.673.808-.427.908.575.959.944-.782,1-.46.8-.739.73-.813.887-.63.894-.625.658-.88.784-.744.839-.694.684-.668.222.93.053,1.088.131,1.078.217,1.061.32,1.047.4,1.016.195,1.059.227,1.059.122,1.088.484.987.31,1.031.277,1.049.336,1.031.338,1.025.554.942.245,1.071.468.976.575.923.346,1.035.536.937.415.9-.3,1.016-.685.868-.691.856-.6.914-.577.937-.639.9-.827.739-.773.782-.579.945-.728.818-.88.67-.646.9-.766.784-.868.675-.718.837-.947.577-.787.758-.813.737-.737.821-1.014.494-.856.684-.828.725.052.1.821,1.407.1-.217,1.057-.238.9-.58,1.054-.257.951-.475.835-.7,1.009-.363.945-.491.825-.685.939-.506.911-.544.856-.632.892-.582.761-.758.892-.584.956-.51.747-.77.7-.816.956-.534.709-.806.7-.806.842-.67.639-.734.747.72.691.877.792.787.561.994.866.716.672.9.723.861.875.7.906.665.852.72.8.771.8.8.911.642,1.064.432.871.687.87.7.975.527.257.026.172-.012.353-1.073.415-1.068.734-.875.782-.815.777-.82.859-.74.963-.613,1.116-.231-.017-.131.164-1.462-.112-.024.09-.255-.994-.4L195,58.945l-1.006-.37-.961-.479-.966-.458-.968-.46-.9-.591-.892-.594-1.03-.375-.737-.833-1.057-.356-.713-.844-.994-.458-.842-.672-.828-.691-.653-.882-.864-.656-.883-.7.592-1,.589-.942.48-1,.66-.909.57-.954.358-1.061.382-1.05.684-.908.186-1.128.534-.976.327-1.064.365-1.05.412-1.03.3-1.061.351-1.056.429-1.019.493-1.014.3-1.075L188.8,30.1l.474-1.014.088-1.171,1.143-.253.99-.413.66-.9-.616-1.056-1.15-.3-1.192-.4-1.207-.37-1.2-.51,1.216.1,1.166-.074,1.169-.138,1.169.16,1.173.105,1.174-.277.982.158.8-.582.248-.9-.115-.926-.746-.582-.666-.985-.92-.713-.954-.673-.882-.761-.766-.873-.911-.732-.83-.815-1.355-.815-1.094,1-.708.875-.708.866-.477,1.026-.84.792-.5,1.054-1.128-.077-1.094-.021-1.09.074L179,19.9h-1.1l-1.09.177-1.1-.034-1.1.029-1.1.024-1.094-.064-1.128.009.4-1.124.684-.88.282-1.078.637-.9.415-1.013.4-1.016.52-.97.241-1.088.4-1.021.536-.968.005.05,1.107-.387,1.042-.417.561-.882-.291-.837-.775-.52-.954-.077-.99-.425-1-.4-1.064-.179-.976-.477L171.474,5.1l-1.081-.133-1.006-.4-1.018-.341-.134.145-.188.057-.016,1.119-.22,1.088-.117,1.1-.108,1.106-.341,1.064L167.071,11l-.387,1.052-.084,1.119-.368,1.056-.339,1.054-.195,1.1-.3,1.068-.432,1.03-.119,1.128-.446,1.028-.446.988-.642-.67L162.62,20l-.9-.751-.763-.88-.761-.885-.79-.863-1.171-.782-1.1.9-.558.825-.432.908-.525.852-.6.877-1.319-.036.157-1.18-.176-1.112.179-1.1-.05-1.111-.024-1.111.007-1.112V12.327l.009-1.109.045-1.111-.079-1.116,1.142-.379,1.057-.594.532-1.106-.723-1.05-1.262-.2-1.052-.246-1.092.09L151.3,5.352l-1.044-.31-1.071-.115-1.088.009-1.062-.179-1.083-.289.181.434.115,1.131-.081,1.142.117,1.124-.112,1.13.222,1.126-.076,1.135.114,1.14-.255,1.033.234,1.035.022,1.037-.2,1.035.181,1.04-.158,1.038.148,1.13-1.295-.126-1.219-.017-1.223-.04-1.214.065.443-.983.059-1.114.484-1,.117-1.1.112-1.092.246-.678,1.05-.226.9-.561.37-.956L144.58,11.3l-1.321-.241-.949-.377-.976-.243-.985-.229-1.021-.052-.976-.272-1-.16-.968-.317-.1.079-.214.079.071,1.106-.148,1.1.2,1.112L136,13.973l-.06,1.1-.022,1.1-.074,1.1-.065,1.1-.215,1.083-.115,1.1-.09,1.1-.177,1.088-.229,1.076-.336,1.059-.189,1.083-.17,1.076-.014,1.111-.208,1.081-.356,1.05-.2,1.081-.291,1.062-.1,1.1-.308,1.069-.25,1.078.059.472,1.41.727.016-.277.651-.873.74-.821.363-1.059.594-.92.606-.913.317-1.064.692-.882.251-1.085.62-.92.246-1.081.57-.952.289-1.057.415-.909.957.034,1-.284,1,.284,1-.293,1,.153.908.064.045,1.025-.093,1.106.157,1.106.131,1.107-.021,1.106-.195,1.1-.052,1.109.277,1.1-.306,1.111.17,1.111-.016,1.1-.114,1.111.017,1.111.11,1.114-1.062.152-1.026.238-1.045.16-1.011.329-1.038.138-1.037.165-1.023.25-1.013.3-1.052.064-1.019.291-1.044.117-1.061.024-1.057.046-.031.064.165,1.081.487,1,.406,1.025.177,1.109.484,1,.334,1.057.384,1.035.3,1.069.687,1.038.918.637.914-.336.179-.99.336-.9.784-.525,1-.389,1.023-.356.937-.563,1.1-.167.973-.468.885-.646,1.145-.408-.262,1.186.131,1.137.121,1.143-.231,1.143.246,1.138-.207,1.143.148,1.143.043,1.145-.269,1.069.067,1.071-.1,1.075v1.073l.193,1.071-.177,1.08.214,1.075-.263,1.075v1.071l.226,1.212-.034,1,.282.963.945.325,1,.005,1.083.179,1.088-.038,1.057-.276.973-.487.871-.649.308-1.033.117-1.073-.076-1.157.076-1.168-.172-1.155-.014-1.161.117-1.168-.117-1.161-.108-1.2.22-1.2-.312-1.19.183-1.2-.146-1.068.1-1.068.055-1.075L153.791,49l.134-1.073-.21-1.075.067-1.068.1-1.076-.277-1.073.177-1.069.894-.567.945-.5.983-.427.854-.67,1.044-.317.873-.625.851-.656,1-.408.839-.66.966-.479.856-.635.155-.179-.813-1.362-.887.369-1.1.136-1.006.458-1.083.208-1.05.332-1.083.241-1.114.133-1.073.272Z" transform="translate(95.693 3.053)" fill="#2a4f2c"/><path d="M209.521,59.07l-1.181-.046.9-.708.692-.889.778-.8.785-.792.739-.847.615-.937.6-.947.649-.9.656-.9.6-.94.735-.861.48-1.013.5-1,.48-1.006.4-1.044.6-.945,1.025-.152,1.038.069.041.282-.177,1.049-.241,1.042.129,1.076-.141,1.054-.193,1.049-.167,1.047-.071,1.069-.077,1.064-.255,1.038-.09,1.071-.217,1.045-.511.957-.444.961-.739.734-1.052.241-1.081.024-1.164.136L213,59.3l-1.154-.165-1.166.005Zm3.828-39.211,1.064.065,1.063-.01,1.118.043-.059,1.052-.146,1,.236,1-.036,1.007-.062.982-1.042-.043-1.062.076-1.059.081-1.059-.076-1.061.117-1.061.017-1.057-.231-1.056-.024L207,25.011l-1.057-.026-1.059-.033-1.069.174h-1.052l-1.066-.115-1.066.046-1.071-.034-.016-1,.112-1.006-.139-1,.012-1,.055-.985,1.04.026,1.062-.093,1.059-.093,1.063.009,1.059.046,1.059.01,1.059.186,1.057-.081,1.061-.026,1.057-.031,1.063-.105,1.061.136Zm2.125-8.362,1.121.1-.06,1.226-.146,1.186.236,1.185-.048,1.214-1.092-.05-1.062-.041-1.059.076-1.059.086-1.061-.077-1.061.119-1.057.017-1.056-.231L207,16.286l-1.057.093-1.059-.026-1.069-.033-1.052.17H201.7l-1.066-.117-1.094.038.022-1.209-.016-1.183.112-1.188-.127-1.216,1.1-.005,1.062.059,1.059.019,1.063-.093,1.059-.09,1.059.007,1.059.046,1.057.005,1.061.191,1.057-.079,1.063-.029,1.061-.028,1.061-.107,1.064.127Zm2.876-6.313L217.661,6.2l-.875.871-.7,1.087-1.123-.048-1.054.007-1.052-.172-1.057.134-1.052-.021-1.052-.005-1.05.131-1.056-.25-1.057.131-1.05-.188-1.056.1-1.054.189-1.056-.253-1.061.1-1.044-.074-1.069-.2-.949-.567-1-.431-1-.424-1.04-.336-1.1-.184-.964-.53-1.028-.379.047.241-.11,1.026.083,1.016.25,1.018L192.3,9.2l-.152,1.016.165,1.013-.11,1.021.077,1.021.069,1.023-.114,1.033-.038,1.033-.043,1.023.093,1.031-.131,1.03v1.031l.157,1.021.007,1.019.045,1.018-.11,1.021.081,1.025-.143,1.08-.22,1.08.184,1.088L192.325,30l.963.592,1.168.35h1.013l.978-.312.963-.22.978-.229.7-.7.467-.866,1.066-.01,1.064.034,1.057-.15,1.062.077,1.057.007,1.064-.055,1.061,0,1.056.115,1.064.093,1.059-.1,1.064.119,1.059-.208,1.063.184,1.066.016,1.068.036,1.011,0,.31,1.007.852.794,1.216-.1,1.007.072,1.013-.028.951-.4.856-.255-.394.87-.706.675-.443.885-.706.67-1.094.157-1.1-.127h-1.1l-1.1.121-1.106-.09-1.1-.167-1.106.183-1.1-.079-1.107.136-1.1.024-1.106-.246-1.106.034-1.106.226-1.1-.059-1.106-.126-1.1.059-1.1-.059L200.58,32.9l-1.1.034-1.111.084-1.1-.172-1.106.105-1.111.079L193.935,33l-1.109-.062-1.109-.091-1.1.06-1.1-.041-1.1-.119-1.119.184-1.092-.207-.482-.038L186,33.746l.374,1.016.465.987.367,1.013.019.119.107-.079,1.054-.06,1.061-.06,1.047-.172,1.068.153,1.061-.153,1.186.126,1.207-.091-.489,1.04-.4.994-.367,1.016-.37,1.021-.711.844-.544.925-.379,1.038-.651.866-.749.792-.668.846-.529.966-.787.756-.72.8-.589.921-.732.8-.708.82-.7.833-.7.832-.863.68-.668.868-.253.122.913,1.193.186-.026.057-.1.978-.436,1.031-.32.8-.756.928-.527,1.052-.322.842-.663.951-.506.852-.647.871-.616.682-.859,1.007-.463.74-.773.74-.766.623-.877.9-.632.486-.985.8-.622.926-.146.963-.015.987-.034-.623.99-.465.985-.568.925-.56.932-.6.913-.608.9-.649.882-.682.851-.711.823-.921.637-.6.933-.749.792-.873.67-.861.678-.646.9-.906.629-.852.678-.734.818-.883.647-.882.651-.889.639-.105.255,1,1.305.193-.029,1.035-.36.975-.51.963-.511.97-.506.868-.687.975-.492,1.038-.394.794-.784.913-.592.982-.5.806-.753.937-.577.727-.833.771-.775.792-.744.88-.665.823-.723.727-.82.66-.873.666-.864.74-.809.644-.88.629-.892.558-.94.5-.964.6-1.013,1.009.067.971.043.973-.1.93.245-.432.833-.343,1.026L210.3,47.5l-.579.92-.5.952-.6.9-.508.956-.682.842-.725.8-.563.92-.8.735-.7.809-.589.911-.773.754-.842.677-.586.942-.837.689-.921.582-.666.875-.906.6-.861.647-.88.622-.8.727-.918.58-.722.835-.909.589-.935.542-.813.723-.114.009.269.771.556.616-.045-.079,1.042-.322,1.056-.3,1.009-.406,1.075-.25.976-.5.909-.641,1.071-.293.987-.475.852-.708.935-.558.978-.493.818-.725.978-.511.821-.7.844-.682-.012.193,1.076.226,1.019.386,1.05.319.921.589.921.579.844.718.334,1.054.572.961-.079,1.112.215,1.075-.059.2.183-.184,1.092.016,1.1.117,1.066-.372,1.118.141,1.035-.375,1.092-.157.92-.615.963-.477.83-.687.8-.753.551-.947.51-.959.325-1.04.487-.98.246-1.059.15-1.081.365-1.033.241-1.062-.041-1.112.138-1.078.408-1.037-.036-1.1.222-1.071.121-1.083.036-1.09.162-1.076,0-1.1.291-1,1.013-.522.847-.852.656-.916-.487-.8-.491-.823-.846-.6-.763-.687-.883-.556-.658-.813-.79-.672-.858-.589-.191-.2-.885-.308-.921.587-.7.67-.525.8-.582.763-.443.894-1.085.052L218.234,41l-1.059-.212-1.057-.043-1.059.007L214,40.8l-1.056-.031-1.062.105h-1.059l-1.054.084-1.056-.065-1.061.127-1.057-.189-1.057.033-1.062.158-1.059-.181-1.061.046-1.062.052-1.1.033.742-.839.46-.9.375-.942.56-.825.486-.961,1.116.183,1.093-.2,1.087.005,1.09.162,1.09-.139,1.09.031,1.094.188,1.09-.226,1.092.253h1.092l1.088-.289,1.1.269,1.093-.212,1.09.117,1.088-.2,1.09.219,1.1.046,1.09.021,1.093-.191,1.1.041,1.092.05,1.1.036,1.1.055,1.1.024.963-.265.827-.437.427-.815-.276-.913-.672-.654-.689-.74-.647-.794-.9-.515-.72-.711-.7-.74-.723-.716-.8-.639-1.157-.568.04-1.106-.139-1.033-.048-1.031.2-1.044-.01-1.038-.127-1.217-.014-1.23.012-1.216-.176-1.092v-1.1l.117-1.1-.045-1.1.033-1.1-.017-1.1.3-.065.844-.716.852-.67.5-.942-.753-1.236-.381-.2-.911-.661-.846-.737-.818-.771-.851-.735-.728-.877-.742-.417-.8-.224Z" transform="translate(131.732 3.242)" fill="#2a4f2c"/><path d="M195.432,42.7l-1.057.542-1.054.367-1.071.31-1.088.248-1,.515-1.045.164-.095-1.045-.067-1.068.155-1.069.053-1.066-.031-1.073.029-1.064-.246-1.071.274-1.069-.267-1.068.15-1.068.04-1.069-.074-1.071-.107-1.068.207-1.073-.16-1.073.212-1.071-.2-1.14,1.152-.029,1.087.146,1.081.065,1.083-.277,1.09.024,1.085.234.921-.343.889-.232.5-.837-.787-1.433-.637-.842-.887-.613-.629-.859-.818-.677-.641-.852-1.31-.732-.914.951-.858.777-.487,1.021-.644.9-.36.088.231-1.114-.2-1.078.253-1.076-.217-1.073,0-1.076.084-1.08.009-1.076-.005-1.076.029-1.083.076-1.078-.193-1.083.11-1.081.019-1.068.99-.467.976-.541.549-.945-.663-.909-1.088-.465-.243-.148L188.59,5.6l-1.019-.077-1.018-.129-1-.253-1.052.186-1.016-.145-1.025-.093-1-.339-.152.127-.04.146.226,1.038-.088,1.069.081,1.054L181.5,9.24l.146,1.057-.171,1.056.177,1.054-.007,1.062.036,1.066-.112,1.062-.083,1.062.007,1.068.05,1.062.086,1.069-.193,1.068L181.5,22l.119,1.1-1.214.062-1.15-.2-1.142.072-1.149.117L175.825,23l-1.138-.179-1.142-.081-.265.04.307.987.5.913.415.947.208,1.026.126.015.057-.04,1.149.076,1.142-.088,1.142.183,1.149-.258,1.142.164.93-.014.127,1.056-.152,1.064-.034,1.066-.016,1.061.148,1.069-.22,1.062.029,1.066L181.7,35.2l-.045,1.066.031,1.062-.143,1.064.043,1.062,0,1.062-.195,1.068.052,1.069.1,1.062.052,1.068-.1,1.075.093,1.078-1.037.231-.987.3-1.014.189-1.025.1-1.028.081-.994.27-1.025.086-1.013.16-.146-.024.511,1.019.3,1.112.437,1.066.455,1.054.515,1.023.41,1.08.51,1.035.365,1.09.095.281.555.961.83.52.749-.506.3-.93.289-.909.785-.715.913-.639.894-.661,1.026-.463.894-.661.909-.637.951-.58.99-.537.806-.808.914-.51.811-.656.875-.573.759-.728.949-.465.77-.708.892-.556.816-.646.777-.694.832-.778-.579-.678Z" transform="translate(125.113 3.427)" fill="#2a4f2c"/><path d="M91.836,15.522l-.861-.623L89.9,14.683l-.82-.716-.945-.455-1.044-.276-.914-.525-.851-.647-.976-.412-.982-.365.04.139-.429,1.042-.214,1.09-.212,1.1-.408,1.038-.5,1L81.462,17.8l-.573.964-.307,1.078L80,20.8l-.479,1.009-.339,1.068L78.8,23.932l-.637.926-.532.98-.36,1.064L76.8,27.914l-.613.937-.444,1.028-.68.9-.637.925-.069.214,1.2.951.1.158.139-.11.921-.577.809-.725.968-.506.821-.708.747-.8.876-.63.785-.742.761-.773.8-.727.859-.668.806-.727.77-.759.737-.8.5-1L87.7,22l.842-.7.737-.792.572-.926.646-.9,1.009-.072.957-.122.835-.32L93.7,17.4l-.267-.871-.768-.548Z" transform="translate(53.687 8.15)" fill="#2a4f2c"/><path d="M64.446,32.2l.966-.193.954-.281.832-.567.858-.585.548-.885L68.9,28.7l.262-.994.114-1.026-.265-1.057-.2-1.045-.227-1.042-.432-.978-.611-.875-.5-.949-.56-.913-.678-.833-.932-.587-.689-.823-.739-.787-.926-.553-.837-.67-.954-.5-.847-.66-.887-.6-.968-.463-.942-.5-.916-.555-.99-.394L55,11.762l-1.238,1.1.3.308.541.956.513.97.6.92.584.928.406,1.025.529.959.663.9.374,1.04.475.988L59.2,22.86l.4,1.026.115,1.121.539.985.272,1.073.176,1.007.26.988.556.877.431.913.529.9.952.436Z" transform="translate(38.816 8.492)" fill="#2a4f2c"/><path d="M116.166,42.306l-.649-.871-.818-.691-.7-.815-.8-.7-.94-.56-.627-.9-.815-.7-.713-.8-1.428-.646-1.343.82-.472,1.111-.74.937-.63,1.009-.763.926-.617.956-.988.033-1.052.15-1.049-.009-1.05.093-1.054-.272-1.052.188-1.05-.055-1.05.04-1.05.016-1.052-.038-1.056-.136-1.052-.019-1.054.028-1.052.208-1.059-.126-.966-.083-.234-.978.267-1.073-.217-1.068L87.193,37.2l.22-1.071-.208-1.069.276-1.071-.239-1.075.083-1.073-.084-1.068.05-1.073.093-1.073-.015-1.073.084-1.073-.062-1.073,0-1.075-.136-1.071,0-1.073.038-1.073.126-1.073-.179-1.073.031-1.078.131-1.073.038-1.071-.189-1.083.028-1.13,1.137-.017,1.087.219,1.081-.139,1.083.05,1.087-.115,1.085.038,1.083.069,1.087-.1,1.085.131,1.085-.22,1.085.282,1.088-.043,1.081-.074,1.085-.016,1.087.016,1.087-.076,1.085.091,1.088-.11,1.088-.055h1.088l1.092.121,1.088-.079.942-.229.77-.489.4-.854-.167-1-.646-.8-.883-.6L110.79,8.9l-.711-.789-.863-.618-.641-.861-.849-.642-.859-.635-.725-.78-1.31-.641-1.228.651-.673.966-.684.961-.477,1.1-.625,1-.722.97-1.1-.2-1.071.265-1.073-.076L96.1,9.484l-1.073.038-1.075.127L92.883,9.7l-1.075-.27L90.732,9.6l-1.078.074L88.583,9.5,87.508,9.47,86.432,9.6l-1.078-.1-1.076.026L83.2,9.68l-1.078-.2L81.049,9.6l-1.075-.057-1.08.043L77.817,9.4l-1.075.176-1.08.084L74.586,9.5l-1.076.191-1.08-.119-1.08-.069-1.078-.022-1.075.06-1.08.038L67.04,9.515h-1.08l-1.08.091L63.8,9.665l-1.078-.21-1.087.105-1.081.114-1.145-.091L58.26,9.441l-1.147.112-1.142-.074-1.133-.17-1.13-.186-.393.145.418,1.152.5,1.1.191,1.2.332,1.15.134.143.157-.179,1.073.071,1.04-.319,1.08.229L59.3,13.76l1.056-.319,1.1.3,1.1-.026,1.107-.217,1.1.217,1.106-.241,1.1.27,1.106-.076,1.1-.177,1.1.169,1.107-.158,1.1.112,1.107.014,1.109-.074,1.1-.076,1.107.277,1.111-.281,1.112.117-.129,1.071.152,1.075L79,16.806l.1,1.066.077,1.075.108,1.068-.2,1.075,0,1.071.093,1.073-.043,1.073L79.1,25.373l-.069,1.078L79,27.52l.016,1.076.248,1.075-.215,1.073.176,1.066-.017,1.073-.029,1.075.091,1.073L79.127,36.1l-.133,1.076.219,1.073-.172,1.076-.009,1.081.136,1.1L78.058,41.5l-1.09-.081-1.088.2-1.087-.212-1.087.009-1.09-.079-1.09.019-1.088.179-1.087-.09-1.092-.108-1.083.172-1.088.09L65,41.565l-1.088-.033-1.09-.079-1.092,0-1.087.028-1.093-.141-1.093.041-1.1-.046-1.147.186-1.15.079-1.14-.119-1.138-.114L51.642,41.3,50.5,41.274l-.294-.071.539,1.081.307,1.143.362,1.13.379,1.119-.036.127.11-.014,1.054-.114,1.059-.022,1.061-.06,1.064.1,1.052-.282,1.1.231,1.1-.263,1.1.21,1.1.095,1.1-.146,1.1-.043,1.1-.074,1.1.133,1.1-.053,1.1.165,1.1-.17,1.1-.04,1.1-.067,1.1.176,1.1.108,1.1-.014,1.1-.263,1.1.112,1.1-.095,1.19.043L79.2,46.671l-.165,1.135.036,1.14.012,1.13.165,1.14-.126,1.138.076,1.14.052,1.137-.172,1.143.174,1.106-.169,1.1-.062,1.106L79.2,60.2l-.021,1.116-.067,1.106-.04,1.116-.1,1.1.184,1.1-.246,1.107.048,1.081.625.885.959.448,1.064.1,1.106-.181,1.1-.077,1.093-.145,1.107-.2.883-.709.43-1.007.236-1.08.007-1.038L87.488,63.9l-.064-1.038-.158-1.1.017-1.1.189-1.106-.146-1.1.043-1.1-.06-1.1,0-1.093.129-1.068-.146-1.066-.005-1.068.158-1.068-.231-1.073.114-1.069,0-1.068.1-1.073-.131-1.118,1.106.2,1.063-.015,1.069-.2,1.066.055,1.064-.124,1.063.145,1.064-.155,1.069.146,1.066.064,1.064-.028,1.066.084,1.069-.022,1.064-.188,1.069.177,1.066-.028,1.068.024,1.063-.17,1.066,0,1.066.112,1.068-.074,1.069-.072,1.068.143,1.069-.105,1.069.131,1.073.029,1.073.076.992-.31.913-.493.232-1.011-.308-.926Z" transform="translate(36.25 2.843)" fill="#2a4f2c"/><path d="M150.2,9.929l-.808-.789-.954-.6-.763-.842-.976-.573-.864-.709-.844-.751-1.352-.394-1.41.6-.424.871-.544.79-.537.8-.549.725-1.014.127-1.069-.009-1.068.081-1.069-.186-1.071.165L133.8,9.141l-1.069-.05-1.071-.04-1.066.162-1.071-.065-1.071.057-1.071.062-1.075-.255-1.069.2-1.069-.083-1.071.172-1.073-.167-1.071.164-1.075-.2-1.073-.05-1.073.17-1.071-.131-1.076-.04-1.069-.007L113.439,9l-1.068.155-1.073-.09-1.075.177L109.151,9.1l-1.075-.086L107,9l-1.075.188-1.078-.177-1.076.1-1.061-.062-.939-.415-.99-.341-1-.32L98.8,7.61l-.975-.379-.949-.444-1.028-.251-.9-.572-1.054-.2L93.689,5.5l-.043.294.343,1.114L93.8,8.073l.184,1.137.133,1.14-.177,1.155.162,1.142.062,1.149-.155,1.15.133,1.088.028,1.09-.007,1.088L94.094,19.3l.019,1.087-.1,1.087.219,1.093-.01,1.092.026,1.085-.319,1.093.263,1.085-.148,1.092L94.13,29.1,94.1,30.189l.046,1.092-.191,1.09.165,1.088-.181,1.09.052,1.092.157,1.1-.112,1.083-.014,1.1.016,1.1-.01,1.093.22,1.09-.028,1.088-.246,1.1-.022,1.087.2,1.092-.188,1.1.014,1.09.164,1.093.105,1.1L94,52.026l-.038,1.1.053,1.1-.069,1.1.129,1.2.012,1.2-.022,1.2.016,1.207L93.8,61.353l.133,1.235-.167,1.23.1,1.044.747.663.9.4,1.026.184,1.14-.2,1.13-.095,1.124-.165,1-.51.971-.613.188-1.142-.038-1.13.208-.844-.157-.964,1.192.134,1.09.117,1.09-.121,1.09.145,1.1-.1,1.1-.029,1.093.029,1.093-.055,1.093.026,1.093-.169,1.09.3,1.1-.138,1.1.033,1.1.074,1.09-.095,1.1-.127,1.1.165,1.092.031,1.1-.117,1.1-.1,1.1.215,1.092-.1,1.1.005,1.1,0,1.1.145,1.1-.17,1.094-.121,1.1.031,1.1.1,1.1.148,1.1-.069,1.1-.021,1.1-.112,1.1.121,1.157-.114.014,1.071-.1,1.013-.1,1,.461.913.548.7.859.506,1-.017,1.014.053,1.018-.038.968-.37,1-.193.918-.482.536-.887.313-.983-.208-1,.1-1.014-.2-1.007.045-1.011-.067-1.04.047-1.047-.014-1.04.043-1.042-.1-1.038.064-1.088.091-1.076-.195-1.083.119-1.078.11-1.08-.2-1.088V45.973l.15-1.08-.257-1.083.307-1.083-.312-1.081.226-1.081-.152-1.087-.012-1.088.141-1.081.062-1.087-.15-1.08.186-1.088-.084-1.087-.081-1.085.108-1.085-.012-1.087-.193-1.085.1-1.085V26.449l.034-1.085.019-1.081-.136-1.081.024-1.092-.014-1.088.214-1.087-.138-1.085.086-1.09-.046-1.088-.115-1.092.069-1.1.954-.441.746-.723.789-.668.32-.97-.434-1.038Zm-9.588,26.788-.095,1.169.112,1.1-.188,1.107.148,1.109-.029,1.109-.069,1.107.195,1.109-.286,1.109.129,1.107-.012,1.1-.01,1.107-.065,1.109.143,1.1-.017,1.109.088,1.112-.186,1.111.165,1.114-.09,1.111-1.081-.055-1.088-.041-1.085.16-1.092-.064-1.085.057-1.087.06-1.09-.251-1.087.207-1.088-.086-1.092.17-1.088-.167-1.092.165-1.092-.2-1.018-.024-.146-1.035.127-1.1.045-1.107.005-1.109.048-1.107-.16-1.109.091-1.106-.174-1.109.138-1.107.088-1.106.014-1.109-.191-1.106.179-1.111-.1-1.109.057-1.112L125.438,39l-.06-1.109-.076-1.116,1.083-.026,1.09-.015,1.088.06,1.088-.15,1.088.193,1.083-.217,1.092.2,1.087.052,1.09-.224,1.088.265,1.088-.121,1.092-.1,1.1.2Zm0-23.792-.095,1.168.112,1.107-.188,1.111.148,1.1-.029,1.111-.069,1.107.195,1.109-.286,1.106.129,1.107-.012,1.1-.01,1.109-.065,1.109.143,1.107-.017,1.109.088,1.112-.186,1.111.165,1.112-.09,1.107-1.081-.057-1.088-.038L137.286,33l-1.092-.065-1.085.055-1.087.062-1.09-.246-1.087.2-1.088-.081-1.092.174-1.088-.172-1.092.165-1.092-.2-1.018-.026-.146-1.035.127-1.106.045-1.1.005-1.114.048-1.1L125.3,26.3l.091-1.106-.174-1.109.138-1.107.088-1.1.014-1.111-.191-1.106.179-1.111-.1-1.107.057-1.107.043-1.116-.06-1.112-.076-1.112,1.083-.028,1.09-.014,1.088.06,1.088-.148,1.088.189,1.083-.214,1.092.2,1.087.057,1.09-.229,1.088.267L137.268,13l1.092-.095,1.1.2Zm-23.1,0-.095,1.168.114,1.107-.191,1.111.153,1.1-.031,1.111-.072,1.107.2,1.109-.286,1.106.133,1.107-.016,1.1-.009,1.109-.064,1.109.139,1.107-.012,1.109.083,1.112-.186,1.111.165,1.112-.086,1.107-1.083-.057-1.087-.038L114.183,33l-1.087-.065-1.083.055-1.087.062-1.085-.246-1.088.2-1.088-.081-1.09.174-1.087-.172-1.09.165-1.09-.2-1.018-.026-.146-1.035.129-1.106.046-1.1,0-1.114.048-1.1-.157-1.111.09-1.106-.176-1.109.138-1.107.09-1.1.015-1.111-.193-1.106.181-1.111-.108-1.107.065-1.107.033-1.116-.055-1.112-.077-1.112,1.088-.028,1.085-.014,1.085.06,1.09-.148,1.087.189,1.083-.214,1.087.2,1.087.057,1.087-.229,1.09.267L114.171,13l1.09-.095,1.094.2Zm0,23.792-.095,1.169.114,1.1-.191,1.107.153,1.109-.031,1.109-.072,1.107.2,1.109-.286,1.109.133,1.107-.016,1.1-.009,1.107-.064,1.109.139,1.1-.012,1.109.083,1.112L117.36,54.5l.165,1.114-.086,1.111-1.083-.055-1.087-.041-1.087.16-1.087-.064-1.083.057-1.087.06-1.085-.251-1.088.207-1.088-.086-1.09.17-1.087-.167-1.09.165-1.09-.2-1.018-.024-.146-1.035.129-1.1.046-1.107,0-1.109.048-1.107-.157-1.109.09-1.106-.176-1.109.138-1.107.09-1.106.015-1.109-.193-1.106.181-1.111-.108-1.109.065-1.112L102.347,39l-.055-1.109-.077-1.116,1.088-.026,1.085-.015,1.085.06,1.09-.15,1.087.193,1.083-.217,1.087.2,1.087.052,1.087-.224,1.09.265,1.088-.121,1.09-.1,1.094.2Z" transform="translate(67.615 3.807)" fill="#2a4f2c"/><path d="M26.968,15.4l-.045.429v.415l-.064.406-.091.4-.052.406-.079.4-.2.375-.04.412-.069.408-.139.389L26,19.82l-.1.4-.117.394-.176.374-.091.4-.181.369-.122.394-.184.363-.2.331-.243-.289-.267-.307-.217-.341-.222-.336-.143-.386-.227-.332-.181-.358-.146-.379-.265-.32-.174-.363-.064-.41-.207-.351-.107-.387-.084-.4-.184-.362-.031-.41-.181-.367-.017-.389.16-.343.124-.325.215-.284.418.055.417-.072.417.005.418.038.415.038.418-.064.417.043.418.021.418-.007.418-.038ZM16.634,20.516l.017-.394-.05-.386.007-.386.024-.382-.028-.386L16.6,18.2l.108-.386-.065-.386L16.6,17.04l.022-.384.072-.386-.033-.387-.017-.4.389.029.377-.064.379.028.379-.04.379.021.379.065.381-.04.379-.043.463-.117-.112.418-.231.319-.139.36-.191.338-.222.317-.107.386-.193.338-.284.277-.15.363-.238.308-.248.3-.157.336.212.353.348-.288.37-.17.293-.272.269-.3.327-.232.329-.231.243-.324.289-.274.31-.257.251-.246.083.343.019.4.048.4.081.391.117.386.148.375.072.389.084.391.045.4.177.365.115.379.1.387.124.381.124.377.2.348.09.394.174.36.212.341.127.382.2.344.153.334-.11.374-.253.32L23,26.019l-.222.338-.214.346-.236.331-.3.272-.284.288-.214.35-.269.3-.325.246-.238.332-.282.288-.32.25-.263.308-.35.214-.291.279-.3.272-.272.3-.374.181-.315.253-.307.267.021.036.3.518.036-.079.391-.088.332-.214.389-.095.35-.176.308-.258.372-.134.35-.179.3-.253.346-.188.336-.2.317-.232.327-.215.281-.279.331-.217L23.059,29l.276-.282.257-.3.353-.2.262-.3.258-.3.31-.246.236-.27.276.265.255.324.291.289.207.367.32.263.248.331.267.317.322.258.334.246.315.265.3.284.293.294.338.236.391.158.322.255.32.258.36.195.095.009.064,0,.129-.4.153-.394.27-.322.288-.3.288-.3.317-.274.355-.226.412-.084-.007-.048.06-.539-.041-.01.033-.093-.367-.148-.355-.169-.37-.136-.355-.177-.356-.169-.356-.169-.331-.219-.329-.219-.381-.138-.27-.308-.391-.131-.262-.312-.367-.169-.31-.248-.307-.253-.241-.325-.319-.243-.325-.258.219-.369.217-.348.177-.367.243-.336.21-.351.133-.391.141-.387.251-.334.069-.417.2-.36.121-.393L28.7,20.5l.15-.379.114-.391.129-.389.158-.377.181-.374.112-.4.026-.415.176-.375.033-.431.422-.095.363-.152.245-.331L30.581,16l-.425-.11-.439-.146-.444-.136-.444-.188.449.038.429-.028.432-.052.431.06L31,15.48l.432-.1.363.057.293-.214.093-.332-.043-.343-.276-.214-.246-.363-.338-.263-.353-.248-.324-.281-.282-.322-.336-.27-.307-.3-.5-.3-.4.369-.262.322-.262.32-.176.379-.31.291-.184.389-.417-.028-.4-.009-.4.028-.4-.036h-.4l-.4.065-.4-.012-.4.01-.4.009-.4-.024-.415,0,.148-.415.251-.324.105-.4.234-.332.153-.374.146-.375.193-.356.088-.4.15-.377.2-.358,0,.019.408-.143.384-.153.207-.325-.107-.308-.288-.191-.351-.029-.365-.157-.367-.146-.393-.065-.36-.176-.375-.122-.4-.048-.37-.146-.375-.126-.05.053-.069.021-.005.412-.081.4-.043.406-.041.408-.124.391-.065.4-.143.389-.031.412-.136.389-.124.389-.072.4-.11.393-.16.381-.043.415-.165.381-.164.363-.238-.246-.255-.35-.332-.277-.282-.324-.281-.327-.291-.317-.432-.289-.4.332-.207.3-.16.336-.193.313-.222.324-.487-.014.059-.434-.065-.41.065-.408-.017-.41-.009-.408,0-.412V11.22l0-.41.017-.408-.029-.412.42-.139.389-.22.2-.408-.267-.386-.467-.074-.387-.091-.4.034-.394-.057-.384-.115-.4-.043-.4,0-.393-.065-.4-.107.067.16.043.417-.031.422.043.413-.041.417.083.417-.028.418.041.418-.095.382.088.382.007.381-.072.382.067.384-.059.382.055.417-.477-.046-.451-.007-.451-.014-.446.024.164-.363.021-.41.179-.37.043-.4.041-.4.09-.25.387-.083.334-.207.136-.353-.243-.389-.486-.09-.351-.138-.36-.09-.363-.084-.375-.021-.36-.1-.369-.059-.356-.117-.038.029-.077.029.026.408-.055.406.072.408-.069.4-.022.406-.009.4-.028.406-.024.4-.079.4-.041.4-.034.4-.065.4-.084.4-.124.391-.069.4-.062.4-.005.408-.077.4-.131.387-.074.4-.107.393-.038.406-.114.394-.091.4L8.847,20l.52.267.005-.1.239-.322.274-.3.134-.391.219-.338.224-.338.115-.393.257-.324.093-.4.227-.339.091-.4.21-.351.107-.391.153-.334.353.012.367-.1.367.1.369-.107.37.055.334.024.015.377-.033.408.057.408.048.408-.007.408-.072.4-.019.41.1.406-.112.408.062.41-.005.408-.041.408.005.41.041.412-.393.055-.377.088-.386.06-.374.121-.382.05-.382.062-.377.091-.374.112-.387.024-.375.107-.386.045-.391.009-.389.017-.012.022.06.4.181.369.15.379.065.408L9.565,24l.124.391.141.382.11.393.253.384.338.234.338-.124.065-.365.124-.332.289-.193.37-.145.377-.131.346-.207.406-.062.358-.174.327-.238.422-.15-.1.437.048.418.045.422-.086.422.091.418-.076.422.053.422.017.422-.1.394.024.4-.038.4v.394l.072.4-.065.4.079.4-.1.4v.4l.083.446-.012.369.1.355.35.121.369,0,.4.065.4-.014.391-.1.358-.179.32-.239.115-.382.043-.394-.029-.427.029-.431-.064-.425-.005-.429.043-.431-.043-.427-.041-.443.083-.443-.115-.439.067-.443-.053-.394.038-.393.019-.4-.01-.393.048-.4-.077-.4.026-.394.038-.4-.1-.4.064-.394.331-.208.348-.186.363-.158.315-.246.384-.117.322-.231.313-.241.369-.152.308-.243.356-.176.315-.234.057-.067-.3-.5-.327.136-.4.05-.372.17-.4.076-.387.122-.4.09-.412.048-.394.1Z" transform="translate(6.372 5.945)" fill="#2a4f2c"/><path d="M29.636,34.771l-.255-.272-.238-.293-.332-.191-.265-.262-.258-.272-.267-.265-.294-.236-.427-.208.014-.408-.05-.381-.019-.381.076-.384,0-.384-.046-.449-.005-.453,0-.448-.064-.4v-.4l.043-.4-.017-.4.012-.4-.007-.406.11-.026.312-.263.313-.248.184-.346-.277-.456-.139-.074L27.4,25.4l-.312-.272-.3-.284-.313-.272-.269-.322-.272-.153-.3-.084-.417.257-.253.374-.322.322-.262.4-.413-.019-.387,0-.389-.064-.389.05-.387-.009-.387,0-.389.048-.387-.093-.391.05-.387-.069-.389.034-.387.071-.391-.093-.389.034-.386-.028-.394-.074L17.788,25l-.37-.158-.37-.157-.382-.124-.406-.067-.355-.2-.379-.139.017.09-.041.377.031.375.093.375-.009.375-.057.375.062.374-.041.375.028.377.028.377-.043.381-.014.381-.015.377.034.381-.05.381v.381l.059.375,0,.375.017.377-.04.375.029.379-.052.4-.081.4.065.4.077.432.355.217.431.129h.374l.36-.114.356-.081.36-.086.257-.257.172-.319.393-.005.393.014.389-.055.393.028.389,0,.393-.021h.391l.389.041.393.034.391-.038.391.043.393-.076.391.067.393.005.394.014h.372l.115.372.313.293.449-.038.37.028.374-.01.35-.146.317-.093-.146.32-.26.248-.164.327-.26.246-.4.059-.406-.048h-.406l-.406.045-.408-.033-.406-.06-.408.065-.406-.029-.408.052-.4.009-.408-.091-.408.012-.408.084-.406-.022-.408-.046-.406.022-.406-.022-.41-.019-.406.014-.408.031-.408-.064-.408.038-.408.029-.41-.01-.41-.022-.408-.033-.408.021-.406-.014-.4-.045-.413.069-.4-.077-.179-.014.105.391.136.375.172.363.136.372.007.045.038-.029.391-.022.391-.022.386-.064.393.057.393-.057.437.046.444-.033-.181.382-.148.367-.134.374-.136.377-.262.312-.2.341-.139.382-.239.32-.277.291-.246.312-.195.356-.289.279-.267.294-.217.339-.269.294-.262.3-.257.307-.257.308-.319.25-.246.32-.093.045.336.441.069-.01.022-.038.36-.16.381-.119.3-.277.343-.195.387-.119.312-.245.35-.188.313-.238.322-.227.251-.317.372-.17.272-.286.274-.282.229-.322L17.2,39.4l.179-.363.3-.229.341-.053.356-.007.363-.012-.231.365-.17.363-.21.341-.207.343-.222.338-.224.332-.239.325-.251.315-.262.3L16.383,42l-.222.344-.276.291-.322.248-.319.25-.238.334-.334.231-.315.251-.27.3-.325.239-.325.239-.327.236-.038.093.369.482.071-.01.382-.134.358-.186.355-.189.358-.188.32-.253.36-.181.382-.146.293-.288.336-.219.363-.186.3-.277.346-.214.267-.307.286-.286L18.5,42.2l.324-.245.3-.267.269-.3.243-.322.245-.319.274-.3.238-.325.231-.329.207-.346.186-.356.22-.372.37.024.36.015.358-.038.343.091-.16.307-.126.379-.138.375-.214.339-.183.351-.222.331-.186.351-.251.312-.267.3-.208.339-.294.27-.258.3-.217.336-.286.277-.31.25-.215.348-.308.253-.341.215-.246.322-.334.222-.317.238-.324.231-.294.267-.338.214-.267.308-.334.217-.346.2-.3.267-.043,0,.1.284.2.227-.017-.029.386-.119.389-.112.372-.15.4-.091.36-.184.336-.236.394-.107.363-.176.315-.262.344-.2.36-.183.3-.267.36-.188.3-.262.312-.25-.005.071.4.083.375.143.387.117.339.217.339.214.312.265.124.387.21.355-.031.41.081.4-.021.074.067-.069.4.007.406.043.393-.138.412.052.382-.138.4-.059.339-.226.356-.176.3-.253.294-.279.2-.348.188-.355.121-.384.179-.36.09-.391.055-.4.136-.381.088-.393-.015-.408.052-.4.15-.382-.012-.4.081-.394.045-.4.014-.4.059-.4,0-.4.108-.367.372-.193.313-.313.241-.338-.179-.294-.181-.3-.312-.22-.281-.253-.327-.207-.243-.3-.291-.246-.315-.217-.072-.074-.325-.114-.339.217-.26.246-.193.294-.215.281-.162.331-.4.019-.387.01-.391-.079-.389-.015-.391,0-.391.019-.389-.012-.391.04h-.389l-.391.031-.389-.026-.391.048-.389-.071-.391.012-.391.059-.391-.065-.391.017-.391.017-.4.012.272-.308.17-.332.138-.346.207-.3.179-.355.412.069.4-.076.4,0,.4.06.4-.052.4.01.4.071.4-.084.4.093h.4l.4-.107.4.1.4-.077.4.043.4-.074.4.081.4.017.4.009.4-.071.4.014.4.019.4.014.4.021.4.009.355-.1.3-.162.158-.3-.1-.336Zm-5.061-8.135-.022.451-.053.437.086.437-.017.448-.4-.019-.389-.014-.391.028-.391.031-.391-.028-.391.043-.389.007-.391-.086-.393-.009-.389.034-.391-.009-.393-.012-.389.062h-.393L18.69,28.4l-.4.014.009-.446-.005-.436.041-.437-.048-.449.4,0,.391.022.391.007.391-.034.393-.033.389,0,.391.017.389,0,.393.071.389-.029.391-.01.393-.01.391-.04.393.048.391-.053Zm0,3.081-.022.387-.053.37.086.369-.014.372-.022.362-.386-.015-.389.029-.391.029-.391-.028-.391.043-.391.005-.389-.084-.391-.009-.393.033-.389-.009-.391-.012-.393.064h-.389l-.393-.043-.393.017-.4-.012-.005-.37.041-.37-.052-.37,0-.37.021-.362.384.009.391-.034.391-.034.391,0,.393.017.389,0,.391.069.389-.029.393-.01.389-.01.391-.04.393.05.391-.053.393.022.391,0Zm1.495,9.12L26,39.224l-.088.384.046.4-.052.389-.072.386-.062.387-.024.394-.029.391-.093.382-.034.4-.079.386-.189.353-.164.353-.272.272-.387.088-.4.009-.431.052-.427-.017-.425-.06-.429,0-.429-.028-.436-.017.331-.26.255-.329.288-.294.289-.293.272-.313.227-.344.219-.35.239-.332.243-.334.222-.346.27-.317.177-.374.186-.369.177-.37.146-.384.22-.35.379-.057.382.028Z" transform="translate(8.652 17.338)" fill="#2a4f2c"/><path d="M16.77,38.1l-.389.2-.389.136-.394.114-.4.091-.369.189-.384.06-.036-.384-.024-.394.057-.394.021-.393-.012-.4.01-.393-.091-.394.1-.394-.1-.394.055-.393.015-.394-.028-.4-.04-.393.076-.4-.059-.4.077-.394-.074-.42.425-.01.4.053.4.024.4-.1.4.009.4.086.339-.126.327-.086.186-.308-.291-.529-.234-.312-.327-.226-.232-.317-.3-.25-.236-.313-.484-.27-.336.351-.317.286-.181.375-.236.332-.133.031.084-.41-.074-.4.093-.4-.079-.4,0-.4.031-.4,0-.4,0-.4.01-.4.029-.4-.072-.4.041-.4.007-.393.365-.174.36-.2.2-.35-.243-.334-.4-.172-.09-.053-.382.005-.375-.029-.375-.048-.37-.093-.387.069-.375-.053-.377-.034-.369-.124-.055.046-.014.053.083.384-.033.393.029.389.005.391.053.389-.062.389.065.389,0,.391.014.393-.041.393-.031.391,0,.394.019.391.031.394-.071.394.022.394.045.4-.448.022-.425-.076-.42.028-.424.043-.42-.05-.42-.067L8.7,30.744l-.1.014.112.365.186.336.153.35.077.379.045.005.022-.014.422.028.422-.033.42.067.424-.095.422.06.343-.005.046.389-.055.393-.014.393-.005.391.055.394-.081.393.01.393.1.393-.015.393.01.391-.052.393.015.393V37.3l-.071.393.019.394.036.393.019.393-.038.4.034.4-.382.086-.363.112-.375.069-.377.038L9.789,40l-.367.1-.377.031-.374.059-.055-.009.189.375.112.412.16.393.167.387.191.377.152.4.188.381.134.4.034.1.2.355.307.191.276-.186.112-.344.107-.334.289-.263.336-.236.331-.245.377-.17.331-.243.336-.236.35-.214.365-.2.3-.3L14.3,40.8l.3-.243.322-.212.281-.267.35-.172.284-.262.329-.2.3-.239.286-.257.307-.286-.214-.251Z" transform="translate(6.211 17.407)" fill="#2a4f2c"/><path d="M38.357,12.335l-.317-.229-.4-.081-.3-.263-.35-.167-.384-.1-.338-.195-.313-.238-.36-.153-.362-.134.014.052-.158.384-.077.4-.079.4-.15.382-.184.369-.069.412-.212.355-.114.4-.215.351-.176.372-.126.394-.139.389-.234.341-.2.362-.133.393-.176.372-.226.346-.164.379-.251.332-.234.341-.026.079.441.351.038.059.052-.041.339-.214.3-.267.358-.186.3-.262.276-.294.324-.232.289-.274.281-.284.293-.269.317-.246.3-.267.284-.281.272-.293.184-.369.274-.289.312-.258.272-.293.21-.341.238-.332.374-.028.351-.045.308-.117.152-.284-.1-.32-.282-.2Z" transform="translate(23.041 7.779)" fill="#2a4f2c"/><path d="M28.258,18.485l.356-.071.351-.105.307-.208.317-.215.2-.325.108-.367.1-.367.041-.379-.1-.389-.074-.386-.083-.384-.16-.36L29.4,14.6l-.184-.35-.207-.336-.25-.308-.344-.217-.253-.3-.274-.289-.341-.2-.308-.246-.351-.184-.313-.243-.327-.222-.356-.17-.348-.184-.338-.2L24.838,11l-.064-.048-.456.4.108.114.2.353.189.356.222.339.215.343.152.377.195.355.245.332.138.382.174.365.169.372.146.379.043.413.2.363.1.394.064.372.1.365.2.324.158.336.2.332.35.16Z" transform="translate(17.558 7.906)" fill="#2a4f2c"/><path d="M47.329,22.211l-.239-.322-.3-.253-.258-.3-.294-.257-.346-.208-.232-.331-.3-.26-.263-.294-.525-.239-.5.3-.174.41-.274.344-.232.372-.281.343-.227.351-.365.012-.387.055-.387,0-.387.033-.387-.1-.387.069-.387-.021-.387.016-.387.005-.387-.014-.391-.05-.387-.007-.387.01-.389.076-.391-.046-.355-.029-.086-.36.1-.4-.081-.394-.017-.4.083-.394-.077-.394.1-.4-.088-.394.029-.4-.031-.394.019-.4.034-.394-.007-.4.033-.4-.024-.4,0-.394-.052-.4,0-.4.014-.394.046-.4-.065-.4.01-.4.048-.394.014-.4-.069-.4.01-.418L37.1,11.6l.4.081.4-.052.4.019.4-.043.4.014.4.026.4-.036.4.048.4-.081.4.1.4-.016.4-.028.4-.007.4.007.4-.028.4.033.4-.041.4-.019h.4l.4.045.4-.029.348-.086.284-.179.145-.315-.06-.369-.239-.294-.325-.22-.31-.236L45.085,9.6l-.319-.227-.236-.319-.313-.236L43.9,8.588,43.633,8.3l-.484-.238L42.7,8.3l-.248.356-.253.353-.176.406-.229.369-.267.358-.406-.074-.394.1-.4-.028-.4-.033-.394.014-.4.046-.4.019-.4-.1-.4.062-.4.028-.394-.064-.4-.01-.4.046-.4-.036-.4.009-.4.059-.4-.074-.4.043-.4-.021-.4.015-.4-.067-.4.065-.4.031-.4-.059-.4.071-.4-.043-.4-.026-.4-.009-.4.022-.4.014-.4-.024h-.4l-.4.033-.4.022-.4-.077-.4.038-.4.043-.422-.034-.424-.052-.422.041-.422-.028-.418-.062L24.3,9.976l-.146.053.155.424.186.406.071.441.122.425.05.052.057-.065.4.026.384-.117.4.084.387-.019.389-.119.408.11.4-.009.408-.081.406.081.408-.09.408.1.406-.029.406-.065.406.062.408-.057.406.041.408.005.41-.028.406-.029.408.1.41-.1.41.043-.046.394.055.4-.06.4.036.393.029.4.04.394-.072.4,0,.394.033.4-.016.4-.016.393-.026.4-.01.394.005.4.091.4-.079.394.065.394-.007.394-.01.4.033.4-.053.4-.048.4.079.4-.062.4,0,.4.05.406-.41,0-.4-.029-.4.076-.4-.079-.4,0-.4-.029-.4.007-.4.067-.4-.033-.4-.041-.4.064-.4.033-.4-.014-.4-.012-.4-.029-.4,0-.4.009-.4-.052-.4.015-.4-.017-.424.069-.424.029-.42-.045-.42-.041-.42-.024-.42-.009-.11-.026.2.4.112.422.134.415.139.413-.014.046.041-.005.389-.041.389-.009.393-.022.391.036.389-.1.4.084.406-.1.4.077.4.034.406-.053.4-.016.406-.028.4.048.406-.019.406.06.4-.062.4-.015.406-.024.4.064.4.04.408,0,.4-.1.406.041.406-.034.439.015-.01.449-.062.418.014.42.005.417.06.42-.046.42.028.42.019.418-.064.422.065.408-.062.406-.024.408.065.412-.007.412-.026.406-.014.412-.038.406.067.408-.09.408.017.4.231.327.353.165.393.036.408-.067.4-.028.4-.053.408-.074.325-.262.16-.372.086-.4,0-.382-.028-.381-.022-.382-.059-.4.005-.406.071-.408-.053-.4.015-.406-.022-.406,0-.4.048-.394-.053-.393,0-.394.059-.393-.086-.4.043-.394,0-.394.036-.394-.048-.412.408.072.391-.005.394-.074.393.021.393-.046.393.053.393-.057.393.053.394.024.393-.01.393.031.394-.009.393-.069.394.065.393-.01.393.009.393-.062.393,0,.394.041.393-.028.394-.026.394.052.394-.038.394.048.4.01.394.028.367-.114.336-.183.086-.372-.114-.341Z" transform="translate(16.612 5.822)" fill="#2a4f2c"/><path d="M45.043,25.981l-.3-.291-.351-.22-.281-.31-.36-.212-.32-.262-.31-.276-.5-.146-.52.22-.155.32-.2.293-.2.293-.2.267-.374.048-.4,0-.393.029-.394-.069-.4.062L39,25.69l-.394-.019-.394-.014-.393.06-.4-.024-.394.021-.394.022-.4-.095-.394.076-.394-.029-.4.064-.394-.062-.4.06-.4-.074-.4-.019-.394.064-.4-.05-.4-.014-.394,0-.4-.017L31.1,25.7l-.4-.033-.4.065-.394-.052-.4-.033-.4,0-.394.069-.4-.067-.4.04-.391-.024-.346-.152-.365-.127-.369-.117-.362-.134-.36-.141-.35-.164-.379-.093-.332-.21-.389-.072-.076-.1-.015.11.126.41-.067.431.067.418.05.42-.067.425.06.422.024.424-.059.424.05.4.009.4,0,.4-.028.4.009.4-.038.4.081.4,0,.4.009.4-.117.4.1.4-.053.4.031.4-.012.4.017.4-.071.4.062.4-.067.4.019.4.059.4-.041.4-.005.4.005.4,0,.4.081.4-.01.4-.091.4-.007.4.072.4-.069.4.005.4.06.4.038.4-.088.4-.014.4.019.4-.024.4.046.443.005.441-.009.444.005.446-.1.451.048.455-.062.455.038.384.276.245.332.146.379.067.42-.072.417-.034.415-.062.369-.188.358-.226.069-.422-.014-.415.077-.312-.059-.356.439.05.4.043.4-.045.4.053.4-.036.4-.01.4.01.4-.021.4.01.4-.062.4.112.4-.052.4.012.4.028.4-.034.4-.046.4.06.4.012.4-.043.4-.04.4.081.4-.04.4,0,.4,0,.4.053.4-.062.4-.045.4.01.4.038.406.055.4-.026.4-.007.408-.041.4.045.427-.041.005.394-.038.374-.034.369.17.338.2.257.317.186.37-.005.374.019.375-.014.356-.138.37-.071.338-.177.2-.327.115-.362-.077-.37.036-.374-.072-.372.017-.372L44.5,43.6l.017-.386-.005-.384.015-.384-.036-.382.022-.4.034-.4-.072-.4.045-.4.04-.4-.072-.4v-.4l.055-.4-.095-.4.114-.4-.115-.4.084-.4-.057-.4-.005-.4.053-.4.022-.4-.055-.4.069-.4-.031-.4-.031-.4.04-.4,0-.4-.072-.4.038-.4v-.4l.014-.4.007-.4-.05-.4.009-.4-.005-.4.079-.4-.052-.4.031-.4-.016-.4-.043-.4.026-.4.351-.162.274-.267.291-.246.119-.358-.16-.382Zm-3.535,9.878-.034.431.041.408-.069.408.053.408-.01.41-.026.408.072.408-.105.41.048.408-.005.406,0,.408-.024.41.052.406-.005.41.031.41-.069.41.062.41-.033.41-.4-.021-.4-.015-.4.06-.4-.024-.4.021-.4.022-.4-.093-.4.076-.4-.031-.4.062-.4-.06-.4.06-.4-.074-.375-.009-.053-.382.046-.406.015-.408,0-.41.019-.408-.06-.408.034-.408-.064-.41.05-.408.033-.406.005-.41-.071-.408.065-.408-.036-.41.021-.41.015-.408-.022-.41-.028-.412.4-.009.4-.007.4.022.4-.055.4.071.4-.079.4.072.4.019.4-.083.4.1.4-.045.4-.034.4.072Zm0-8.772-.034.431.041.408-.069.41.053.406-.01.41-.026.408.072.408-.105.408.048.408-.005.406,0,.41-.024.408.052.408-.005.41.031.41-.069.408.062.412-.033.408-.4-.021-.4-.014-.4.06-.4-.024-.4.021-.4.022-.4-.091-.4.072-.4-.029-.4.064-.4-.064-.4.062-.4-.074-.375-.009-.053-.382.046-.408.015-.406,0-.412.019-.406-.06-.41.034-.406-.064-.41.05-.408.033-.406.005-.41-.071-.408.065-.41-.036-.408.021-.408.015-.41-.022-.412-.028-.41.4-.01.4-.005.4.022.4-.055.4.071.4-.079.4.072.4.021.4-.084.4.1.4-.045.4-.034.4.074Zm-8.519,0-.034.431.041.408-.071.41.057.406-.012.41-.026.408.072.408-.105.408.048.408-.005.406,0,.41-.024.408.052.408-.005.41.031.41-.069.408.062.412-.033.408-.4-.021-.4-.014-.4.06-.4-.024-.4.021-.4.022-.4-.091-.4.072-.4-.029-.4.064-.4-.064-.4.062-.4-.074-.375-.009-.055-.382.048-.408.017-.406,0-.412.017-.406-.059-.41.033-.406-.064-.41.05-.408.033-.406.007-.41-.072-.408.067-.41-.04-.408.024-.408.012-.41-.021-.412-.028-.41.4-.01.4-.005.4.022.4-.055.4.071.4-.079.4.072.4.021.4-.084.4.1.4-.045.4-.034.4.074Zm0,8.772-.034.431L33,36.7l-.071.408.057.408-.012.41-.026.408.072.408-.105.41.048.408-.005.406,0,.408-.024.41.052.406-.005.41.031.41-.069.41.062.41-.033.41-.4-.021-.4-.015-.4.06-.4-.024-.4.021-.4.022-.4-.093-.4.076-.4-.031-.4.062-.4-.06-.4.06-.4-.074-.375-.009-.055-.382.048-.406.017-.408,0-.41.017-.408-.059-.408.033-.408-.064-.41.05-.408.033-.406.007-.41-.072-.408.067-.408-.04-.41.024-.41L27.4,36.7l-.021-.41-.028-.412.4-.009.4-.007.4.022.4-.055.4.071.4-.079.4.072.4.019.4-.083.4.1.4-.045.4-.034.4.072Z" transform="translate(17.468 17.519)" fill="#2a4f2c"/><path d="M40.692,3.406l.4.134.4.041.4.036.41-.1.4.076.4-.007.391.121.412-.064.374.241.4,0,.384.145.425-.114.377.162.4.069.4.029.4.062.4.053.377.153.394.076.4.059.384.117.375.146.355.22.382.117.387.107.425-.009.381.126.343.236.381.127.356.193.406.06.348.207.363.172h.439l.282.353.434.014.346.21.3.293.437.026.334.227.32.251.424.064.263.351.432.052.27.336.417.084.269.329.375.152.281.308.322.236.448.055.21.4.453.057.258.329.272.3.356.2.272.3.382.16.374.179.3.274.212.369.276.293.436.115.145.437.377.183.282.284.229.339.293.276.338.231.226.338.277.289.232.329.331.243L66.67,16l.243.32.3.274.332.248.2.356.334.248.232.327.179.372.188.356.367.231.1.417.307.277.251.317.093.417.293.291.193.353.222.334.155.374.315.284.127.387.141.381.3.3.031.434.3.3.155.369.127.386.272.317-.026.451.184.356.3.31.16.37-.038.446.232.339.22.346-.028.436.3.32-.019.427.226.35.148.375-.072.441.165.369.04.4.107.384.241.356-.024.418.253.353-.1.432.086.391.248.362.017.4-.024.412.131.384.108.391-.1.417,0,.4.091.394.114.393-.028.4.091.4-.022.4.071.4-.055.4.124.4,0,.4-.1.4.067.4.055.4-.189.4.2.408-.165.4.081.4-.1.4-.071.4-.015.4-.141.389.107.417-.1.391-.133.384.139.431-.191.375-.009.4-.077.4-.145.379.043.42-.255.355-.014.41-.005.412-.229.356-.041.4-.215.356-.1.386-.143.377.072.444-.119.386-.257.338-.017.42-.2.351-.108.391L73,52.846l-.248.334-.141.375-.133.379-.208.346-.036.424-.322.291-.014.443-.21.343-.312.293-.057.424-.181.358-.234.331-.139.382-.255.317-.239.325-.27.3-.1.413-.35.251-.172.365-.208.344-.2.35-.181.362-.226.334-.269.3L68,61.514l-.181.369-.362.226-.141.4-.363.22-.145.4-.381.2-.212.351L66,64.034l-.279.293-.382.188-.2.365-.4.165-.16.412-.355.21-.282.286-.35.21-.308.258-.212.367-.307.257-.369.188-.356.195-.212.381-.327.234-.4.131-.286.284-.355.193-.27.312-.315.248-.317.248-.319.248-.324.241-.391.131-.3.281-.408.1-.334.219-.334.227-.4.105-.336.22-.351.195-.36.174-.344.21-.381.134-.35.2-.37.15-.382.124-.339.227-.387.11-.358.183-.367.165-.387.107-.327.276-.431-.019-.379.124-.331.284-.377.138-.389.11-.443-.09L49,74.252l-.379.145-.391.088-.386.114-.422-.052-.365.219-.412-.014-.4.034-.362.255-.424-.095-.393.072-.394.071L44.3,75.3l-.4.024-.4.014-.391.131-.4.012-.4-.005-.406-.064-.4.1-.4-.095-.4.019-.4.108-.4-.055-.4.152-.4-.045-.4-.041-.4-.141-.4.117-.4-.031-.4-.081-.4-.055-.4-.069-.41.081-.384-.184-.4-.022-.41.045-.382-.16-.4-.019-.387-.119-.434.164-.384-.139-.379-.143-.4-.057-.4-.028-.4-.064-.358-.229-.37-.167-.422.024-.391-.1-.346-.239-.424,0-.387-.1-.356-.2-.413-.036-.331-.27-.389-.1-.386-.119-.415-.04-.3-.334-.365-.164-.381-.134-.432-.014-.307-.294-.429-.034-.3-.307-.412-.074-.284-.325-.356-.179-.437-.038-.3-.3-.332-.224-.41-.1-.317-.25-.327-.238-.355-.191-.319-.245-.4-.129-.3-.277-.243-.351-.37-.172-.391-.146-.208-.391-.36-.189-.351-.2L16.9,67.45l-.3-.26-.4-.15-.3-.269-.351-.212-.186-.393-.374-.186-.227-.344-.239-.329-.338-.229-.344-.224-.291-.276-.234-.332-.2-.36-.282-.284-.412-.17-.215-.344-.191-.367-.288-.282-.331-.248-.114-.42-.3-.277-.324-.257-.172-.375-.2-.351-.267-.3-.269-.3-.251-.313L9.4,59.179l-.343-.258L8.9,58.545l-.3-.284-.017-.46-.217-.336-.183-.358-.251-.317-.188-.355-.21-.343-.217-.339-.134-.382-.141-.377-.327-.289.029-.453L6.37,53.98l.019-.446-.315-.3-.15-.372-.145-.374.021-.439-.2-.353-.21-.351-.129-.381-.1-.391L5,50.2l-.005-.418-.06-.4-.207-.358-.174-.369.079-.434-.289-.343,0-.412-.145-.381-.1-.387-.053-.4-.115-.386-.067-.4.007-.406.072-.418-.06-.394-.215-.377.105-.417-.2-.382-.076-.4-.01-.4.148-.413-.064-.4-.184-.394v-.4l-.017-.4.065-.4.108-.4-.055-.4-.091-.4.129-.4.091-.4-.186-.412L3.64,37.1,3.58,36.7l0-.4.148-.393-.146-.417.25-.375-.022-.406-.057-.413.033-.4.157-.381.01-.406.1-.391.157-.377-.052-.422.153-.379.16-.375-.036-.422.277-.344-.028-.424.167-.369.126-.381.067-.4.189-.362.126-.381.005-.422.157-.372L5.64,26.9l.127-.381.191-.356.143-.375.122-.387.3-.3.022-.431.3-.307.146-.372.148-.377.243-.325.059-.424.181-.36.281-.3.227-.332.093-.406.2-.351.258-.313.231-.331.265-.307.079-.429.3-.281.281-.291.152-.386.343-.25.248-.312.131-.4.3-.274.269-.3.124-.412.379-.212.172-.377.289-.282.229-.332.219-.343.346-.229.248-.317.362-.21.191-.375.339-.229.32-.245.238-.332.286-.277.35-.215.186-.393.348-.215.351-.2.245-.336.372-.181.241-.343.332-.226.338-.22.32-.238.356-.2.322-.238.334-.22.274-.312.324-.243.339-.215.35-.2.417-.091.276-.315.415-.09.329-.231.339-.212.355-.189.356-.188.358-.176.374-.15.336-.227.389-.112.374-.148.355-.186.356-.184.343-.222.4-.072.315-.3.382-.127.424-.015.375-.139.346-.229.393-.093.417-.007.336-.277.386-.117.42.01.374-.145.417.005.355-.239.406-.029L31.9,4.2l.434.105.358-.251.393-.09.42.077.375-.2.413.059.379-.2.412.064.4-.031.4-.015.394-.086.406.064.389-.195.41.141.4-.121.4-.114.4.05.4.088.4-.029.4-.065.4.036ZM39.886,0l-.4.212-.4-.041-.4-.028-.4-.121L37.888.17l-.4.007-.4-.038-.4,0-.4-.009L35.9.286l-.41-.1-.4.065L34.7.391,34.294.338,33.9.432l-.4.005-.36.293h-.4l-.4.005-.386.1-.379.139-.386.107-.417-.048-.406.026L30,1.279l-.382.11-.42-.026-.353.229-.379.127-.4.043-.35.212-.427-.015-.365.167-.37.148-.338.243-.443-.046-.381.131-.36.172-.31.3L24.3,3.1l-.308.294-.425.026-.313.272-.431.022-.36.177-.281.332L21.77,4.3l-.37.153-.294.3-.377.145-.362.167-.336.22-.362.17-.286.3-.372.153-.42.081-.3.277-.272.312-.437.064-.294.279-.294.276-.386.145-.331.227-.238.35-.324.232-.272.3-.42.114-.239.339-.369.177-.355.2-.257.315-.245.327-.289.276-.338.222-.362.2L12.3,10.9l-.155.417-.331.231-.348.219-.251.31-.2.355-.4.174-.224.339-.191.362-.332.241-.3.267-.229.334-.219.336-.229.327-.358.226-.127.4-.3.276-.153.382-.415.191-.22.332-.248.317-.17.365-.229.331-.2.346-.184.356-.255.31-.243.322-.062.427-.389.236,0,.46-.363.253-.04.434-.191.35-.186.355-.339.272-.119.387-.1.394-.17.36-.195.35-.121.384-.265.319-.207.348-.059.408-.081.4-.317.3.046.443L2.4,26.2l-.077.394-.108.384-.152.372-.081.391-.117.381-.183.36-.239.348-.1.387.055.429L1.161,30l.053.422-.053.4-.105.386L.8,31.553l-.04.4.088.422-.088.389L.7,33.158l-.134.384L.4,33.919l0,.4.046.408-.164.382L.167,35.5l.167.417L.11,36.3l.057.4.01.4L.045,37.5l.172.408L0,38.3l.062.4.105.4.028.4L.1,39.9l.065.4-.017.4-.065.4.153.393-.045.4-.045.4.164.386L.165,43.1l.176.384-.022.4.031.4.1.387-.017.408.06.4.193.372.041.4.091.389.09.387.031.4.091.387.122.382-.064.424.246.351-.043.422.129.381.139.375.038.4.251.341.124.381.028.41.09.389.246.339.138.374.081.4.121.381.09.394.3.31.065.4.091.4.248.327.045.418.152.372.294.3.107.393.157.369.324.284.043.427.288.3.16.367.238.325.255.312.115.4.239.322.11.4.319.272.153.375.179.36.286.288L7.171,62l.162.374.374.222.183.36.183.365.322.253.17.375.339.238.234.325.229.327.26.3.22.338.272.293.26.3.344.224.291.274.272.289.267.3.181.381.377.189.195.37.317.248.308.257.293.27.3.265.3.269.284.282.343.21.267.3.3.265.331.226.329.226.367.181.269.3.418.1.319.241.251.338.336.217.389.133.315.246.276.313.427.069.343.2.281.31.367.162.294.289.422.064.32.246.394.108.267.351.434.024.367.157.3.3.418.046.313.272.425.029.32.262.365.165.36.174.389.1.339.231.434-.019.32.286.412.036.41.031.36.181.355.208.391.09.4.045.379.134.408.007.36.214.381.115.387.1.418-.04.381.122.4.036.375.15.413-.038.36.257.4,0,.384.145.418-.124.386.143.4.043.4-.005.4.014h.4l.391.1.4.005.4-.022.4.031.4.055.4.122.4.007.4-.016.4-.145.4-.005.4.1.4-.024.4.033.394-.114.4.036.4-.014.382-.208.418.167.379-.208.4-.005.415.081.372-.224.4-.01.408.01.369-.214.425.107.358-.238.422.071.363-.22.42.046.372-.16.412.007.394-.079.332-.3.441.093.325-.317.413-.005.406-.043.363-.176.4-.062.343-.238.343-.226.379-.121.427-.007.386-.108.291-.343.456.06.32-.274.37-.15.4-.086.356-.181.325-.243.391-.11.356-.186.377-.136.315-.26.379-.145.36-.172.324-.241.3-.286.377-.143.284-.3.346-.2.379-.15.367-.165.245-.358.415-.1.272-.308.307-.257.412-.112.265-.313.334-.219.307-.257.346-.2.229-.351.356-.195.344-.21.226-.351.412-.136.208-.367.31-.25.327-.236.212-.356.429-.126.267-.3.17-.394.272-.291.42-.15.2-.356.2-.351.393-.184.129-.418.377-.2.176-.374.231-.325.4-.188.2-.35.3-.277.239-.32.119-.412.334-.25.095-.424.381-.219.219-.334.077-.432.263-.3.288-.286.157-.375.165-.369.334-.263.241-.322.157-.37.133-.386.245-.319.134-.384.226-.329.138-.381.241-.325.074-.406.174-.36.263-.32.1-.391.1-.389.322-.3-.045-.451.282-.317.046-.406.212-.35.174-.36.11-.384.224-.344-.022-.431.169-.363.193-.36L77.2,50.5l.234-.344.048-.4.1-.386.169-.37-.033-.418.257-.348.01-.406-.01-.41.21-.365.01-.4.181-.375.055-.394.091-.391-.146-.425.048-.394.181-.379-.076-.41.11-.389,0-.4.057-.4.136-.389.009-.4-.005-.4.065-.4-.129-.4.177-.4-.177-.4.036-.4.143-.4-.152-.4-.026-.4.029-.4-.084-.394.04-.4.01-.4.04-.4-.17-.387.119-.413-.1-.389-.067-.394-.083-.393-.119-.386-.069-.393-.031-.4,0-.4-.155-.375.065-.417-.222-.365.055-.418-.236-.356.059-.424-.17-.369-.167-.37-.1-.387.034-.42-.215-.355.046-.431-.291-.329-.034-.406-.138-.375-.053-.406-.121-.379-.269-.329-.136-.374-.057-.408-.081-.4-.3-.308-.139-.375-.033-.418-.212-.344-.122-.384-.257-.322-.2-.35-.2-.343-.208-.343-.208-.339-.1-.4-.262-.312-.091-.406-.217-.339-.231-.325-.119-.394-.239-.324-.22-.334-.208-.339-.248-.315-.186-.356-.253-.313-.219-.336-.2-.348-.3-.279-.2-.35-.27-.3-.262-.3-.22-.334-.365-.215-.133-.412-.255-.308-.389-.191-.274-.286-.263-.3-.115-.437-.356-.214-.308-.257-.269-.294-.294-.27-.184-.382-.382-.181-.222-.343-.265-.3-.42-.127-.188-.391-.308-.257-.313-.251-.4-.138-.291-.274-.291-.272-.369-.177-.3-.263-.3-.27-.267-.31-.369-.17-.26-.322-.332-.226-.382-.146-.3-.269-.372-.158-.381-.141L60.011,5.8l-.327-.234-.338-.215L58.978,5.2,58.626,5l-.408-.083-.327-.238-.315-.257L57.2,4.286l-.327-.238-.4-.095-.4-.088-.338-.224-.379-.124L55.017,3.3l-.372-.143-.4-.072-.37-.145-.362-.17-.382-.11-.312-.31L52.443,2.2l-.377-.131-.377-.129-.4-.059-.422.017-.36-.188-.387-.1-.377-.133-.387-.1-.4-.036-.344-.277L48.217.976,47.828.89,47.416.9,47.039.754l-.4-.024-.41.022L45.835.68,45.462.487h-.4l-.4-.05L44.278.279l-.4-.024-.42.162L43.08.193l-.41.095L42.281.16l-.4.028-.4-.074L41.088.029l-.4.079-.4.026Z" fill="#2a4f2c"/><g transform="translate(0 0)"><g clip-path="url(#a)"><path d="M46.115,84.464a12.362,12.362,0,0,0,.208,2.371,4.1,4.1,0,0,0,.784,1.8,3.815,3.815,0,0,0,1.536,1.147,6.107,6.107,0,0,0,2.425.418,4.788,4.788,0,0,0,3.1-1.123,4.2,4.2,0,0,0,1.381-3.465,6.173,6.173,0,0,0-.339-2.163,4.261,4.261,0,0,0-1.121-1.643,8,8,0,0,0-2.058-1.329,29.521,29.521,0,0,0-3.155-1.224,27.113,27.113,0,0,1-4.326-1.824,11.653,11.653,0,0,1-3.05-2.321,8.29,8.29,0,0,1-1.8-3.076,12.952,12.952,0,0,1-.573-4.04q0-5.525,3.076-8.235t8.443-2.71a18.354,18.354,0,0,1,4.615.548,9.665,9.665,0,0,1,3.647,1.77,8.321,8.321,0,0,1,2.4,3.129,11.014,11.014,0,0,1,.859,4.562V68.1H54.977A7.469,7.469,0,0,0,54.038,64a3.453,3.453,0,0,0-3.127-1.434,5.226,5.226,0,0,0-2.085.365A3.529,3.529,0,0,0,47.5,63.9a3.307,3.307,0,0,0-.677,1.381,7.064,7.064,0,0,0-.183,1.617,5.359,5.359,0,0,0,.73,2.891,6.514,6.514,0,0,0,3.127,2.165l5.786,2.5a17.792,17.792,0,0,1,3.492,1.955A9.576,9.576,0,0,1,61.936,78.6a7.3,7.3,0,0,1,1.121,2.581,14.443,14.443,0,0,1,.312,3.127q0,5.892-3.413,8.574t-9.514,2.686q-6.359,0-9.094-2.764t-2.738-7.923V83.369h7.506Z" transform="translate(27.877 41.188)" fill="#1a1311"/><rect width="7.506" height="37.218" transform="translate(95.364 98.963)" fill="#1a1311"/><path d="M80.7,82.958h.1V57.469h6.881V94.687H79.136L69.961,68.624h-.1V94.687H62.976V57.469h8.653Z" transform="translate(45.471 41.494)" fill="#1a1311"/><path d="M95.613,64.421a3.611,3.611,0,0,0-3.518-1.851,3.515,3.515,0,0,0-2.32.756,5.008,5.008,0,0,0-1.434,2.45,20.9,20.9,0,0,0-.73,4.431q-.209,2.735-.208,6.7a65.044,65.044,0,0,0,.288,6.83,15.025,15.025,0,0,0,.887,4.04,3.693,3.693,0,0,0,1.51,1.929,4.351,4.351,0,0,0,2.111.5,5.009,5.009,0,0,0,1.851-.339A3.144,3.144,0,0,0,95.534,88.5a8.787,8.787,0,0,0,.99-2.867,26.024,26.024,0,0,0,.367-4.875h7.5a33.742,33.742,0,0,1-.468,5.736,12.974,12.974,0,0,1-1.746,4.742,8.658,8.658,0,0,1-3.6,3.179,13.613,13.613,0,0,1-6.02,1.149,14.156,14.156,0,0,1-6.725-1.357A9.145,9.145,0,0,1,82.007,90.3a17.27,17.27,0,0,1-1.72-6.1,78.135,78.135,0,0,1,0-15.612,17.3,17.3,0,0,1,1.72-6.124,9.64,9.64,0,0,1,3.832-3.988,13.514,13.514,0,0,1,6.725-1.433,12.989,12.989,0,0,1,6.334,1.3,8.891,8.891,0,0,1,3.466,3.31,11.482,11.482,0,0,1,1.433,4.327,35.58,35.58,0,0,1,.288,4.352H96.577a13.514,13.514,0,0,0-.964-5.915" transform="translate(57.687 41.188)" fill="#1a1311"/><path d="M117.4,63.62H104.112v8.758h12.511v6.149H104.112V88.536h13.814v6.151H96.605V57.469h20.8Z" transform="translate(69.752 41.494)" fill="#1a1311"/><path d="M123.086,68.493h-7.35v-4.9h.677a10.761,10.761,0,0,0,5.917-1.407,6.5,6.5,0,0,0,2.736-4.534h5.526v36.9h-7.506Z" transform="translate(83.565 41.625)" fill="#1a1311"/><path d="M135.862,89.212a2.888,2.888,0,0,0,2.633,1.174,3.754,3.754,0,0,0,2.4-.7,4.6,4.6,0,0,0,1.383-1.955,10.823,10.823,0,0,0,.651-2.972q.158-1.72.157-3.752V79.23h-.105a6.664,6.664,0,0,1-2.685,2.268,9.541,9.541,0,0,1-4.248.861,9.238,9.238,0,0,1-4.169-.861,7.319,7.319,0,0,1-2.79-2.4,10.544,10.544,0,0,1-1.564-3.649,20.158,20.158,0,0,1-.5-4.613q0-6.411,2.841-9.8t9.1-3.387a11.508,11.508,0,0,1,6.151,1.433,9.635,9.635,0,0,1,3.518,3.806,15.94,15.94,0,0,1,1.591,5.5,56.3,56.3,0,0,1,.365,6.514q0,3.962-.234,7.637a20.185,20.185,0,0,1-1.409,6.49,9.6,9.6,0,0,1-3.7,4.457,12.925,12.925,0,0,1-7.064,1.641,18.538,18.538,0,0,1-3.832-.391,8.08,8.08,0,0,1-3.258-1.459,7.69,7.69,0,0,1-2.266-2.869,10.782,10.782,0,0,1-.913-4.457h7.193a5.978,5.978,0,0,0,.756,3.258m-.391-13.995a3.325,3.325,0,0,0,3.127,1.615,3.375,3.375,0,0,0,3.181-1.615,11.31,11.31,0,0,0,.938-5.369,25.727,25.727,0,0,0-.157-2.919,7.716,7.716,0,0,0-.6-2.32,3.6,3.6,0,0,0-1.252-1.512,3.694,3.694,0,0,0-2.111-.548,3.8,3.8,0,0,0-2.163.548,3.388,3.388,0,0,0-1.224,1.538,7.912,7.912,0,0,0-.548,2.32c-.086.887-.131,1.849-.131,2.893a11.309,11.309,0,0,0,.939,5.369" transform="translate(91.716 41.625)" fill="#1a1311"/><path d="M157.494,63.7a2.917,2.917,0,0,0-2.633-1.147,3.777,3.777,0,0,0-2.371.7,4.48,4.48,0,0,0-1.409,1.956,10.673,10.673,0,0,0-.651,2.97q-.155,1.72-.157,3.752v1.825h.105a6.521,6.521,0,0,1,2.683-2.32,9.547,9.547,0,0,1,4.248-.861,9.246,9.246,0,0,1,4.171.861,7.332,7.332,0,0,1,2.79,2.4,10.59,10.59,0,0,1,1.562,3.649,20.158,20.158,0,0,1,.5,4.613q0,6.411-2.841,9.721t-9.1,3.311a12.06,12.06,0,0,1-6.151-1.355,9.084,9.084,0,0,1-3.518-3.728,15.915,15.915,0,0,1-1.589-5.5,55.951,55.951,0,0,1-.365-6.516q0-3.908.236-7.586a20.4,20.4,0,0,1,1.407-6.516,10.075,10.075,0,0,1,3.675-4.56q2.5-1.72,7.09-1.72a15.573,15.573,0,0,1,3.83.468,8.747,8.747,0,0,1,3.258,1.565,7.9,7.9,0,0,1,2.268,2.891,10.831,10.831,0,0,1,.913,4.458h-7.195a6.085,6.085,0,0,0-.754-3.336m-6.7,22.309a7.6,7.6,0,0,0,.6,2.32,3.57,3.57,0,0,0,1.25,1.512,3.7,3.7,0,0,0,2.111.548,3.8,3.8,0,0,0,2.163-.548,3.394,3.394,0,0,0,1.226-1.538,8.023,8.023,0,0,0,.548-2.32c.086-.885.129-1.851.129-2.893a11.313,11.313,0,0,0-.937-5.369,3.331,3.331,0,0,0-3.129-1.615,3.375,3.375,0,0,0-3.179,1.615,11.288,11.288,0,0,0-.938,5.369,25.33,25.33,0,0,0,.157,2.919" transform="translate(103.082 41.625)" fill="#1a1311"/><path d="M170.757,57.651h7.766v23.4h3.544v5.839h-3.544v7.661h-6.881V86.894H158.507V80.743Zm.782,9.383-7.193,14.021h7.3V67.034Z" transform="translate(114.446 41.625)" fill="#1a1311"/></g></g><g transform="translate(66.486 98.233)"><g clip-path="url(#b)"><rect width="44.748" height="44.748" transform="translate(-19.261 19.261) rotate(-45)" fill="url(#c)"/></g></g><g transform="translate(95.364 98.964)"><g clip-path="url(#d)"><rect width="31.625" height="31.625" transform="translate(-18.609 18.609) rotate(-45)" fill="url(#e)"/></g></g><g transform="translate(108.446 98.962)"><g clip-path="url(#f)"><rect width="43.789" height="43.789" transform="translate(-18.61 18.61) rotate(-45)" fill="url(#g)"/></g></g><g transform="translate(137.585 98.233)"><g clip-path="url(#h)"><rect width="44.563" height="44.563" transform="translate(-19.261 19.261) rotate(-45)" fill="url(#i)"/></g></g><g transform="translate(166.356 98.962)"><g clip-path="url(#j)"><rect width="41.394" height="41.394" transform="translate(-18.61 18.61) rotate(-45)" fill="url(#k)"/></g></g><g transform="translate(199.301 99.275)"><g clip-path="url(#l)"><rect width="36.602" height="36.602" transform="translate(-18.453 18.454) rotate(-45)" fill="url(#m)"/></g></g><g transform="translate(218.742 99.275)"><g clip-path="url(#n)"><rect width="43.163" height="43.164" transform="translate(-18.74 18.74) rotate(-45)" fill="url(#o)"/></g></g><g transform="translate(245.849 99.275)"><g clip-path="url(#p)"><rect width="43.162" height="43.162" transform="matrix(0.707, -0.707, 0.707, 0.707, -18.74, 18.74)" fill="url(#q)"/></g></g><g transform="translate(272.953 99.275)"><g clip-path="url(#r)"><rect width="42.758" height="42.758" transform="translate(-18.453 18.454) rotate(-45)" fill="url(#s)"/></g></g></svg>