<svg id="グループ_1077" data-name="グループ 1077" xmlns="http://www.w3.org/2000/svg" width="66.051" height="66.08" viewBox="0 0 66.051 66.08">
  <g id="グループ_1076" data-name="グループ 1076" transform="translate(12.392 11.616)">
    <g id="グループ_1067" data-name="グループ 1067" transform="translate(0.321 0.246)">
      <path id="パス_2034" data-name="パス 2034" d="M326.165,1737.282l-.038.36v.347l-.054.339-.076.337-.043.341-.066.338-.164.314-.033.345-.059.341-.116.325-.163.31-.082.332-.1.329-.148.313-.076.338-.151.308-.1.33-.155.3-.168.276-.2-.242-.223-.257-.183-.285-.185-.282-.12-.322-.19-.278-.151-.3-.122-.317-.223-.267-.145-.3-.053-.343-.174-.294-.09-.325-.07-.331-.154-.3-.026-.343-.151-.306-.014-.326.134-.286.1-.273.18-.237.351.045.348-.061.348.005.35.032.347.03.351-.052.349.036.35.015.35,0,.351-.033Zm-8.645,4.278.014-.33-.041-.322.005-.322.02-.321-.023-.323-.007-.322.089-.323-.053-.322-.036-.322.02-.323.06-.323-.028-.323-.014-.332.325.024.316-.051.318.023.316-.035.316.019.319.054.316-.033.318-.036.388-.1-.094.351-.193.267-.118.3-.158.282-.187.265-.089.323-.161.282-.238.233-.126.3-.2.257-.207.25-.132.279.177.3.291-.241.309-.142.245-.229.225-.25.274-.195.276-.192.2-.272.241-.229.258-.214.211-.206.069.286.017.336.04.333.067.326.1.323.123.313.061.327.07.326.039.335.149.3.1.319.085.323.1.318.1.316.17.291.076.33.145.3.176.284.107.319.165.289.128.279-.092.313-.211.268-.213.263-.186.282-.179.289-.2.276-.255.228-.238.241-.178.292-.225.252-.272.207-.2.278-.237.242-.268.207-.22.259-.293.177-.242.234-.251.228-.227.254-.313.152-.264.211-.256.224.017.029.253.434.03-.066.326-.074.278-.179.326-.079.293-.147.258-.216.311-.112.292-.151.254-.212.289-.157.281-.167.264-.195.275-.18.235-.233.276-.18.294-.157.23-.238.215-.251.3-.164.219-.249.216-.248.259-.207.2-.226.232.222.213.27.245.243.173.307.267.221.207.276.223.266.27.217.279.205.263.222.248.238.245.246.282.2.328.133.269.212.268.217.3.163.08.008.053,0,.109-.332.129-.329.226-.27.241-.251.24-.253.266-.228.3-.189.344-.07-.005-.041.05-.45-.034-.008.027-.078-.307-.124-.3-.141-.31-.114-.3-.148-.3-.141-.3-.142-.277-.182-.275-.184-.318-.115-.227-.257-.326-.11-.22-.26-.307-.141-.259-.207-.256-.213-.2-.272-.266-.2-.273-.217.182-.307.182-.291.148-.307.2-.281.176-.294.111-.326.118-.324.21-.28.058-.348.165-.3.1-.328.113-.325.126-.317.094-.328.109-.325.132-.315.152-.313.092-.332.023-.348.147-.313.026-.361.353-.078.305-.127.2-.276-.19-.325-.355-.092-.368-.123-.372-.114-.371-.157.375.031.36-.023.36-.042.361.049.362.033.362-.086.3.048.246-.179.076-.279-.036-.286-.23-.179-.205-.3-.284-.22-.294-.208-.272-.234-.236-.27-.28-.226-.257-.251-.418-.251-.338.309-.218.27-.218.267-.148.316-.259.245-.155.325-.348-.024-.337-.007-.336.023-.337-.029h-.338l-.336.055-.338-.011-.338.009-.338.007-.338-.019-.347,0,.124-.347.21-.272.087-.332.2-.279.128-.312.122-.314.16-.3.075-.335.124-.315.166-.3,0,.017.341-.12.321-.129.173-.272-.089-.258-.24-.16-.294-.023-.305-.131-.308-.123-.328-.055-.3-.148-.314-.1-.333-.04-.31-.123-.314-.105-.041.044-.058.018,0,.345-.068.335-.036.339-.033.341-.1.328-.055.336-.12.325-.026.345-.114.326-.1.325-.06.338-.093.329-.133.318-.036.348-.138.316-.137.305-.2-.206-.214-.292-.278-.232-.236-.271-.235-.273-.243-.266-.361-.242-.338.278-.173.254-.134.28-.161.263-.186.271-.407-.011.048-.364-.054-.343.055-.34-.015-.343-.008-.343,0-.343v-.342l0-.341.013-.343-.023-.344.352-.117.326-.183.164-.341-.223-.323-.39-.062-.324-.076-.337.028-.33-.048-.322-.1-.33-.036-.336,0-.327-.055-.335-.089.056.135.036.348-.026.352.036.347-.034.348.068.348-.023.35.036.351-.079.319.073.319.006.319-.06.319.055.321-.048.32.045.35-.4-.04-.377,0-.377-.013-.374.021.136-.3.018-.343.15-.31.036-.338.035-.337.076-.208.324-.07.279-.173.114-.3-.2-.326-.407-.074-.293-.117-.3-.074-.3-.071-.314-.016-.3-.084-.307-.049-.3-.1-.03.024-.065.025.021.341-.045.339.06.343-.057.337-.02.339-.007.339-.023.339-.02.339-.066.333-.036.339-.028.338-.055.335-.07.332-.1.326-.058.334-.052.333,0,.342-.064.333-.11.325-.062.333-.089.328-.03.341-.1.329-.076.332.017.147.435.223,0-.086.2-.269.228-.254.113-.327.182-.283.188-.282.1-.329.214-.271.078-.335.192-.284.075-.333.176-.293.089-.327.127-.281.3.011.307-.087.307.087.308-.09.309.048.28.019.014.316-.028.341.048.341.041.341-.007.342-.06.338-.017.342.086.34-.095.342.054.343-.005.341-.035.343.005.342.033.343-.328.048-.316.073-.323.049-.312.1-.32.042-.319.05-.315.078-.312.093-.326.021-.314.09-.322.036-.327.007-.326.015-.01.02.051.333.151.308.125.316.055.341.149.308.1.325.118.319.092.33.211.32.283.2.282-.1.055-.305.1-.279.241-.161.31-.12.315-.11.289-.174.341-.052.3-.144.273-.2.353-.126-.08.366.039.351.038.352-.071.353.076.351-.064.353.045.353.014.353-.083.33.021.33-.032.332v.331l.06.331-.055.333.067.332-.082.331V1750l.07.374-.011.308.087.3.291.1.309,0,.334.055.335-.011.327-.086.3-.15.269-.2.1-.319.036-.331-.024-.357.024-.36-.055-.357,0-.358.036-.36-.036-.359-.033-.369.067-.369-.1-.367.056-.37-.045-.329.032-.329.017-.331-.01-.329.042-.332-.065-.331.02-.329.033-.332-.086-.331.054-.329.276-.175.292-.156.3-.132.263-.206.323-.1.269-.192.263-.2.307-.125.259-.2.3-.148.264-.2.048-.055-.251-.421-.273.114-.338.042-.31.142-.334.064-.324.1-.334.074-.344.042-.331.083Z" transform="translate(-310.988 -1731.287)" fill="#20411a"/>
    </g>
    <g id="グループ_1070" data-name="グループ 1070" transform="translate(0 22.975)">
      <g id="グループ_1068" data-name="グループ 1068" transform="translate(4.87)">
        <path id="パス_2035" data-name="パス 2035" d="M331.763,1770.309l-.213-.229-.2-.245-.278-.16-.223-.219-.216-.229-.223-.221-.247-.2-.357-.175.012-.341-.044-.319-.014-.318.064-.322,0-.32-.039-.376,0-.379,0-.375-.053-.337v-.338l.036-.338-.014-.339.01-.339,0-.34.092-.02.26-.221.263-.207.154-.291-.232-.382-.117-.062-.28-.2-.262-.228-.252-.237-.263-.228-.225-.269-.228-.129-.248-.07-.348.214-.212.313-.27.269-.218.335-.346-.015-.325,0-.326-.053-.326.042-.325-.007-.324,0-.324.04-.326-.077-.326.042-.325-.058-.326.03-.325.058-.326-.079-.327.03-.322-.023-.33-.061-.293-.175-.309-.133-.31-.131-.321-.1-.338-.058-.3-.163-.317-.117.014.075-.034.316.026.313.076.313-.006.315-.047.313.051.312-.033.315.023.315.022.316-.036.319-.012.319-.013.315.029.319-.041.317v.319l.048.315,0,.314.014.314-.034.315.025.316-.044.333-.068.333.056.335.064.362.3.182.36.108h.313l.3-.1.3-.067.3-.071.215-.214.144-.268.329,0,.329.011.326-.046.327.023.326,0,.329-.018h.327l.326.036.329.029.326-.032.328.036.327-.064.328.057.329,0,.329.011h.312l.1.311.263.245.375-.031.31.023.313-.009.293-.122.264-.079-.122.269-.218.208-.136.273-.218.207-.337.048-.341-.039h-.34l-.34.037-.341-.028-.339-.051-.342.055-.338-.024-.341.042-.34.008-.341-.076-.341.011-.341.069-.341-.017-.341-.039-.34.018-.339-.018-.343-.016-.339.011-.343.026-.341-.053-.341.032-.343.025-.342-.009-.342-.019-.342-.028-.341.019-.34-.013-.339-.036-.345.056-.337-.064-.148-.011.087.326.114.313.145.3.113.312.006.036.033-.024.326-.018.327-.019.323-.054.329.048.327-.048.366.039.372-.028-.151.321-.124.306-.113.313-.114.315-.22.26-.168.285-.117.32-.2.267-.23.244-.207.261-.163.3-.243.233-.223.246-.182.285-.225.246-.218.253-.215.257-.214.257-.266.21-.206.268-.078.037.28.368.058-.008.017-.032.3-.134.319-.1.248-.233.286-.162.324-.1.26-.205.293-.156.263-.2.268-.19.21-.264.311-.143.229-.239.228-.236.192-.27.277-.2.149-.3.248-.192.285-.045.3-.005.3-.011-.192.305-.144.3-.175.285-.173.287-.185.282-.187.279-.2.273-.21.263-.22.254-.285.2-.185.288-.232.244-.269.208-.266.209-.2.279-.279.194-.263.21-.226.252-.273.2-.272.2-.274.2-.033.078.309.4.059-.01.319-.111.3-.156.3-.159.3-.156.268-.212.3-.151.32-.122.245-.241.281-.183.3-.154.248-.232.289-.178.223-.257.238-.239.245-.231.27-.2.254-.223.225-.253.2-.269.206-.266.228-.25.2-.271.195-.276.172-.29.156-.3.183-.313.311.021.3.014.3-.033.287.076-.133.257-.1.317-.117.313-.178.283-.154.294-.185.277-.156.295-.211.26-.223.248-.174.284-.245.226-.217.25-.182.281-.238.232-.26.21-.18.29-.258.212-.285.18-.206.27-.279.186-.266.2-.271.192-.246.223-.282.179-.223.258-.28.182-.288.167-.251.223-.036,0,.083.238.173.189-.014-.024.322-.1.326-.094.311-.126.332-.076.3-.154.28-.2.33-.09.3-.147.263-.218.288-.172.3-.153.253-.223.3-.157.253-.218.261-.21,0,.06.332.069.313.12.324.1.285.182.284.179.26.221.1.326.176.3-.026.344.067.332-.017.061.056-.057.337,0,.339.037.329-.116.344.045.319-.116.336-.049.284-.189.3-.148.256-.211.245-.232.17-.292.157-.3.1-.32.15-.3.076-.326.046-.335.113-.319.074-.329-.013-.342.042-.332.126-.319-.011-.339.068-.329.037-.334.011-.337.049-.332,0-.339.09-.307.313-.161.261-.263.2-.282-.15-.246-.152-.254-.26-.185-.235-.211-.273-.172-.2-.251-.244-.207-.264-.182-.059-.061-.273-.1-.284.181-.216.207-.162.245-.179.235-.136.277-.335.015-.326.009-.326-.066-.326-.013-.326,0-.327.015-.326-.009-.327.032h-.327l-.326.026-.326-.02-.326.039-.327-.058-.326.011-.327.048-.327-.055-.326.014-.328.015-.339.011.229-.258.142-.278.117-.291.172-.254.15-.3.344.056.337-.064.336,0,.335.05.336-.042.337.01.337.058.336-.07.336.079h.337l.336-.089.338.083.338-.065.337.036.335-.061.336.067.338.014.336.007.336-.059.338.013.337.015.338.011.338.017.338.008.3-.083.254-.135.132-.251-.085-.281Zm-4.233-6.805-.019.378-.045.366.073.366-.015.374-.337-.015-.328-.012-.326.023-.326.026-.327-.023-.328.036-.326.005-.326-.071-.328-.008-.326.029-.327-.008-.329-.01-.325.051h-.329l-.329-.036-.337.011.006-.372,0-.365.035-.366-.039-.375h.338l.328.018.326.005.327-.028.327-.028.327,0,.326.015.326,0,.329.058.326-.024.328-.009.328-.009.326-.033.329.04.327-.045Zm0,2.577-.018.325-.045.308.073.309-.011.311-.019.3-.322-.014-.328.024-.326.024-.326-.023-.327.037-.328.005-.326-.072-.326-.007-.328.029-.326-.008-.327-.01-.329.053h-.325l-.329-.036-.329.014-.331-.01,0-.31.035-.31-.044-.31,0-.309.017-.3.321.007.328-.028.326-.029.327,0,.327.014.327,0,.326.058.326-.025.329-.008.326-.008.328-.032.328.041.326-.045.329.02.328,0Zm1.251,7.629-.054.323-.074.321.039.332-.044.325-.059.325-.052.322-.02.33-.024.327-.079.321-.028.33-.067.323-.158.3-.137.3-.228.226-.324.074-.333.008-.359.042-.357-.014-.357-.051-.358,0-.359-.023-.364-.015.276-.218.213-.274.24-.248.242-.244.228-.263.19-.288.184-.293.2-.279.2-.279.185-.289.227-.266.148-.312.156-.308.148-.31.123-.323.185-.291.316-.048.32.023Z" transform="translate(-316.997 -1761.31)" fill="#20411a"/>
      </g>
      <g id="グループ_1069" data-name="グループ 1069" transform="translate(0 0.137)">
        <path id="パス_2036" data-name="パス 2036" d="M317.4,1773.2l-.326.167-.325.113-.33.1-.336.076-.307.16-.322.05-.03-.322-.02-.33.048-.329.017-.33-.01-.33.009-.329-.076-.331.085-.33-.083-.329.046-.329.012-.33-.023-.33-.033-.33.064-.331-.05-.33.066-.331-.062-.351.355-.009.335.045.334.021.335-.085.336.008.335.072.284-.105.274-.072.155-.258-.243-.442-.2-.26-.273-.189-.194-.265-.252-.208-.2-.263-.4-.226-.282.293-.265.24-.151.314-.2.277-.111.027.071-.343-.063-.333.079-.332-.067-.331v-.332l.026-.333,0-.332,0-.332.009-.334.024-.333-.059-.334.034-.334.006-.329.3-.144.3-.167.169-.292-.2-.281-.335-.144-.075-.045-.32,0-.314-.024-.314-.04-.31-.078-.325.058-.313-.045-.316-.028-.308-.1-.046.04-.012.044.07.321-.027.33.025.325,0,.326.045.326-.052.326.055.325,0,.328.011.329-.034.327-.026.328,0,.329.015.328.026.33-.059.329.019.33.037.338-.374.019-.355-.062-.352.022-.354.036-.353-.042-.351-.055-.353-.025-.081.012.094.3.156.281.128.292.064.317.039,0,.018-.012.355.023.352-.028.352.057.354-.079.352.05.287,0,.039.326-.046.328-.01.328,0,.328.046.33-.068.328.009.328.084.329-.014.328.01.328-.044.328.013.328v.328l-.06.33.016.33.03.328.015.329-.031.331.028.333-.32.072-.3.094-.313.058-.316.032-.317.025-.307.083-.316.026-.312.05-.046-.008.158.314.093.343.135.329.14.325.159.315.126.333.158.319.113.337.029.086.171.3.256.16.231-.157.094-.287.089-.28.243-.22.281-.2.276-.2.316-.144.277-.2.28-.2.294-.179.305-.166.249-.249.282-.157.25-.2.27-.177.234-.224.292-.143.238-.218.275-.172.252-.2.24-.214.257-.24-.179-.209Z" transform="translate(-310.565 -1761.491)" fill="#20411a"/>
      </g>
    </g>
    <g id="グループ_1074" data-name="グループ 1074" transform="translate(20.75)">
      <g id="グループ_1071" data-name="グループ 1071" transform="translate(12.827 3.905)">
        <path id="パス_2037" data-name="パス 2037" d="M360.308,1737.426l-.266-.193-.33-.066-.252-.221-.292-.14-.322-.085-.282-.163-.263-.2-.3-.127-.3-.113.013.043-.133.322-.066.336-.066.337-.126.32-.154.308-.058.344-.176.3-.095.333-.181.294-.148.312-.1.329-.116.325-.2.286-.164.3-.111.328-.146.312-.189.289-.137.317-.21.278-.2.285-.021.066.369.293.031.049.043-.034.284-.178.25-.224.3-.156.253-.218.23-.247.271-.194.242-.229.234-.238.246-.224.265-.206.249-.224.237-.234.227-.245.154-.308.23-.242.26-.216.228-.244.176-.286.2-.278.312-.023.295-.037.258-.1.126-.236-.083-.269-.237-.169Z" transform="translate(-354.916 -1736.12)" fill="#20411a"/>
      </g>
      <g id="グループ_1072" data-name="グループ 1072" transform="translate(1.887 4.156)">
        <path id="パス_2038" data-name="パス 2038" d="M343.762,1742.756l.3-.06.295-.086.256-.174.264-.181.169-.273.09-.307.08-.306.035-.317-.081-.326-.061-.323-.07-.321-.133-.3-.189-.27-.155-.293-.173-.281-.209-.257-.288-.181-.212-.254-.228-.243-.286-.17-.258-.207-.294-.154-.261-.2-.274-.185-.3-.143-.29-.154-.282-.171-.306-.121-.054-.041-.382.338.092.095.167.295.159.3.186.284.18.286.125.316.163.3.2.277.115.321.147.305.14.31.123.317.035.346.167.3.084.331.054.311.081.3.171.271.133.281.163.278.293.135Z" transform="translate(-340.466 -1736.452)" fill="#20411a"/>
      </g>
      <g id="グループ_1073" data-name="グループ 1073">
        <path id="パス_2039" data-name="パス 2039" d="M358.318,1742.8l-.2-.269-.252-.212-.215-.251-.248-.215-.29-.173-.193-.278-.252-.217-.22-.247-.44-.2-.414.253-.145.342-.228.289-.2.311-.235.286-.19.295-.3.01-.325.046-.324,0-.324.028-.325-.083-.324.058-.324-.017-.324.012-.324,0-.325-.011-.325-.042-.324-.006-.325.009-.325.064-.327-.039-.3-.025-.073-.3.082-.331-.067-.329-.014-.332.068-.331-.065-.329.085-.331-.074-.331.025-.331-.026-.329.016-.331.028-.331,0-.331.026-.331-.019-.33v-.332l-.042-.331v-.331l.011-.331.039-.331-.055-.331.009-.333.04-.331.012-.33-.059-.334.009-.349.35-.005.335.068.334-.043.334.015.336-.036.334.011.334.022.336-.03.334.04.335-.067.335.087.335-.013.334-.023.334,0,.335,0,.336-.023.334.028.336-.035.335-.017h.336l.337.037.336-.024.29-.071.237-.151.122-.263-.052-.308-.2-.246-.272-.185-.26-.2-.219-.243-.266-.191-.2-.266-.262-.2-.265-.2-.224-.24-.4-.2-.379.2-.208.3-.211.3-.147.339-.193.309-.222.3-.34-.062-.33.081-.331-.023-.331-.027-.331.012-.332.039-.331.015-.332-.083-.332.052-.332.023-.331-.054-.331-.008-.332.039-.332-.031-.332.008-.332.049-.332-.062-.332.036-.332-.018-.333.014-.332-.056-.332.054-.333.026-.332-.049-.332.059-.333-.036-.333-.021-.332-.007-.331.019-.333.012-.332-.021h-.333l-.334.028-.333.018-.333-.065-.335.032-.334.035-.354-.028-.354-.044-.354.035-.352-.023-.349-.052-.348-.058-.121.044.129.356.156.34.059.368.1.355.041.044.049-.055.331.022.32-.1.333.071.324-.016.325-.1.341.091.34-.007.342-.067.34.067.341-.074.341.083.341-.024.34-.055.34.052.342-.048.34.034.341,0,.342-.023.341-.024.342.086.342-.086.343.036-.04.33.047.332-.05.331.03.329.024.331.033.329-.061.331v.33l.029.332-.013.331-.013.33-.021.332-.009.33,0,.332.077.331-.067.331.054.329-.006.33-.009.331.028.331-.045.331-.041.332.067.331-.053.332,0,.333.042.341-.343,0-.337-.025-.336.063-.335-.066-.335,0-.336-.024-.336.006-.336.055-.335-.027-.336-.033-.334.053-.336.027-.336-.012-.336-.01-.336-.024-.337,0-.336.009-.337-.043-.337.013-.338-.014-.354.057-.355.024-.352-.037-.351-.035-.352-.02-.352-.007-.091-.023.166.334.095.353.111.348.117.345-.011.039.034,0,.325-.035.327-.007.327-.019.328.03.324-.087.338.071.339-.081.339.065.338.03.339-.045.339-.013.34-.023.338.041.34-.017.339.051.338-.052.339-.012.339-.02.339.054.339.034.341,0,.339-.082.341.035.34-.029.367.013-.009.375-.051.35.011.352,0,.348.051.352-.039.351.024.352.016.35-.053.352.054.342-.052.34-.019.342.054.344-.007.344-.021.341-.012.344-.032.341.057.341-.076.342.015.333.193.273.3.138.328.031.341-.056.338-.024.337-.045.342-.062.272-.218.133-.311.073-.333,0-.32-.023-.318-.019-.32-.049-.338.005-.34.058-.34-.045-.339.014-.34-.019-.34v-.338l.04-.329-.045-.329,0-.329.049-.33-.071-.331.035-.329v-.33l.031-.331-.041-.345.341.061.328,0,.33-.062.329.017.328-.038.328.045.328-.048.33.045.329.02.328-.008.329.026.33-.007.329-.058.329.055.329-.008.329.007.328-.053h.329l.329.035.329-.023.33-.022.329.044.33-.032.33.04.331.009.331.023.306-.1.281-.152.072-.311-.095-.286Z" transform="translate(-337.973 -1730.962)" fill="#20411a"/>
      </g>
    </g>
    <g id="グループ_1075" data-name="グループ 1075" transform="translate(22.457 23.337)">
      <path id="パス_2040" data-name="パス 2040" d="M357.67,1763.224l-.249-.244-.294-.184-.235-.26-.3-.177-.267-.219-.26-.232-.417-.121-.435.183-.13.269-.167.244-.167.246-.169.223-.313.04-.331,0-.329.025-.329-.058-.33.052-.332-.028-.33-.016-.33-.012-.329.051-.331-.02-.331.017-.329.019-.332-.079-.331.064-.33-.025-.329.053-.331-.052-.331.051-.332-.062-.331-.016-.33.053-.332-.041-.331-.012-.33,0-.333-.014-.329.048-.331-.027-.332.055-.331-.043-.332-.026-.332,0-.332.058-.332-.056-.332.033-.327-.019-.29-.128-.305-.105-.307-.1-.3-.113-.3-.117-.292-.137-.318-.078-.277-.176-.326-.06-.064-.083-.014.092.105.343-.056.36.056.35.042.351-.055.357.05.352.02.355-.048.354.041.335.008.337v.335l-.023.334.006.335-.031.335.067.338,0,.336.008.335-.1.338.082.335-.045.337.026.335-.01.337.014.336-.059.337.051.335-.055.336.016.337.048.338-.034.334,0,.337.005.338,0,.337.067.336-.008.336-.076.338-.006.336.061.336-.058.338,0,.336.051.338.033.338-.074.337-.011.338.016.339-.02.338.039.369,0,.371-.007.371.005.372-.086.378.041.381-.051.379.031.322.231.2.278.122.316.057.352-.061.348-.029.347-.052.308-.157.3-.19.058-.351-.012-.348.064-.261-.048-.3.368.042.336.036.336-.037.336.045.338-.03.338-.009.337.009.338-.017.337.008.338-.052.336.094.337-.043.339.011.338.023.336-.03.338-.039.338.051.337.009.338-.036.338-.031.339.066.336-.032h.339l.338,0,.338.044.338-.052.338-.037.338.009.338.032.339.045.338-.021.338-.007.341-.034.339.037.357-.035,0,.33-.031.312-.03.309.142.282.17.216.264.156.31-.005.313.016.314-.011.3-.114.308-.059.283-.149.165-.273.1-.3-.064-.309.03-.312-.061-.311.014-.312-.021-.321.014-.323,0-.322.013-.32-.031-.32.02-.336.028-.332-.06-.334.036-.332.034-.334-.061-.334v-.336l.046-.333-.079-.334.094-.334-.1-.334.07-.333-.048-.335,0-.336.043-.333.02-.335-.046-.334.057-.335-.026-.335-.025-.334.033-.335,0-.335-.059-.335.031-.335v-.336l.011-.335.006-.334-.042-.333.008-.337,0-.336.067-.335-.043-.335.026-.336-.014-.335-.036-.337.021-.338.294-.136.23-.223.243-.206.1-.3-.134-.32Zm-2.957,8.263-.03.36.035.341-.058.341.045.342-.008.342-.021.341.06.342-.089.341.04.342,0,.34,0,.341-.02.342.045.341-.005.342.026.343-.058.343.051.343-.028.343-.333-.017-.336-.014-.335.05-.337-.02-.334.017-.335.019-.336-.078-.335.064-.335-.026-.337.052-.336-.051-.337.051-.336-.061-.314-.008-.045-.319.039-.341.014-.341,0-.342.015-.341-.05-.343.029-.341-.055-.342.043-.341.027-.342,0-.341-.058-.342.055-.342-.032-.342.018-.344.013-.342-.018-.341-.023-.344.335-.008.335,0,.336.018.336-.045.335.058.335-.067.337.061.335.016.337-.068.335.081.335-.037.337-.03.338.061Zm0-7.338-.03.359.035.342-.058.342.045.34-.008.343-.021.341.06.342-.089.34.04.342,0,.341,0,.342-.02.341.045.341-.005.343.026.343-.058.342.051.344-.028.341-.333-.018-.336-.011-.335.051-.337-.02-.334.017-.335.019-.336-.076-.335.062-.335-.026-.337.054-.336-.053-.337.051-.336-.062-.314-.007-.045-.319.039-.342.014-.341,0-.343.015-.34-.05-.343.029-.341-.055-.342.043-.341.027-.341,0-.342-.058-.341.055-.343-.032-.341.018-.341.013-.344-.018-.344-.023-.342.335-.009.335,0,.336.018.336-.045.335.058.335-.066.337.061.335.017.337-.07.335.082.335-.037.337-.03.338.062Zm-7.126,0-.03.359.035.342-.059.342.048.34-.01.343-.022.341.061.342-.089.34.041.342,0,.341,0,.342-.02.341.043.341,0,.343.025.343-.057.342.05.344-.026.341-.335-.018-.335-.011-.335.051-.335-.02-.335.017-.335.019-.335-.076-.335.062-.336-.026-.336.054-.335-.053-.336.051-.336-.062-.314-.007-.045-.319.04-.342.014-.341v-.343l.014-.34-.048-.343.027-.341-.054-.342.042-.341.028-.341,0-.342-.06-.341.056-.343-.033-.341.02-.341.01-.344-.017-.344-.024-.342.336-.009.334,0,.335.018.336-.045.335.058.335-.066.335.061.335.017.335-.07.337.082.335-.037.336-.03.337.062Zm0,7.338-.03.36.035.341-.059.341.048.342-.01.342-.022.341.061.342-.089.341.041.342,0,.34,0,.341-.02.342.043.341,0,.342.025.343-.057.343.05.343-.026.343-.335-.017-.335-.014-.335.05-.335-.02-.335.017-.335.019-.335-.078-.335.064-.336-.026-.336.052-.335-.051-.336.051-.336-.061-.314-.008-.045-.319.04-.341.014-.341v-.342l.014-.341-.048-.343.027-.341-.054-.342.042-.341.028-.342,0-.341-.06-.342.056-.342-.033-.342.02-.344.01-.342-.017-.341-.024-.344.336-.008.334,0,.335.018.336-.045.335.058.335-.067.335.061.335.016.335-.068.337.081.335-.037.336-.03.337.061Z" transform="translate(-340.228 -1761.788)" fill="#20411a"/>
    </g>
  </g>
  <path id="パス_2041" data-name="パス 2041" d="M327.225,1715.8l-.334-.035-.334-.023-.337-.1-.33.124-.334.005-.336-.031-.335,0-.336-.007-.326.127-.344-.086-.331.055-.323.117-.343-.044-.329.079-.336,0-.3.245h-.337l-.338,0-.324.083-.317.116-.322.09-.35-.041-.338.02-.3.187-.32.092-.352-.022-.294.192-.317.106-.338.036-.292.177-.357-.014-.307.141-.31.125-.282.2-.369-.039-.318.11-.3.145-.26.25-.353.021-.258.247-.355.022-.263.226-.359.019-.3.148-.235.279-.343.063-.308.128-.248.249-.314.121-.3.141-.28.183-.3.143-.24.251-.311.129-.351.067-.249.232-.228.261-.366.052-.246.235-.247.231-.323.121-.276.189-.2.293-.27.195-.227.251-.351.094-.2.285-.31.148-.3.168-.216.262-.205.274-.24.23-.283.185-.3.167-.232.241-.131.348-.277.192-.29.183-.21.261-.173.3-.334.146-.189.282-.159.3-.277.2-.249.226-.19.279-.183.281-.192.273-.3.188-.108.339-.249.229-.128.32-.348.159-.185.28-.207.264-.143.307-.191.276-.168.289-.152.3-.215.259-.2.269-.051.358-.326.2,0,.385-.305.211-.034.363-.16.294-.155.3-.284.229-.1.324-.085.329-.144.3-.163.292-.1.321-.222.267-.173.291-.048.342-.067.332-.266.256.039.37-.186.287-.064.331-.091.322-.126.311-.068.328-.1.317-.154.3-.2.291-.083.323.046.359-.2.294.047.354-.046.331-.089.323-.214.3-.033.336.074.352-.072.326-.051.329-.112.319-.139.316,0,.338.04.342-.137.321-.1.326.139.348-.188.319.048.338.009.335-.112.328.145.341-.182.328.052.336.089.335.023.334-.078.333.055.334-.014.334-.055.336.129.329-.039.336-.038.338.138.323-.123.347.145.322-.017.337.026.334.086.326-.014.339.048.332.162.312.035.332.076.325.075.325.026.334.076.325.1.319-.053.354.207.3-.036.352.108.318.116.314.034.339.21.285.1.316.022.344.076.326.205.283.116.313.068.33.1.319.076.33.251.258.055.338.076.332.207.272.036.351.126.311.246.253.091.328.129.309.272.236.036.357.24.25.135.308.2.27.213.263.1.331.2.27.094.335.266.227.128.315.151.3.238.24.2.273.136.313.313.186.153.3.151.305.27.213.142.313.284.2.2.271.192.274.217.254.185.283.226.244.218.254.288.188.244.228.228.241.223.25.152.319.314.158.164.31.264.208.258.213.245.227.25.222.248.224.237.238.287.176.224.255.251.222.277.189.276.188.3.151.226.255.351.086.265.2.211.282.28.181.326.112.264.206.229.262.357.056.287.169.235.26.307.135.246.244.353.053.269.2.329.092.225.294.363.02.306.131.249.255.351.038.264.229.354.023.269.219.305.139.3.145.326.086.284.193.363-.015.268.241.344.03.342.027.3.151.3.173.326.076.337.036.316.112.342.006.3.178.321.1.323.085.351-.033.319.1.335.03.315.127.345-.032.3.214h.338l.322.121.351-.1.322.12.332.035.336,0,.333.012h.336l.328.08.335.005.335-.02.333.027.332.047.332.1.334,0,.336-.013.334-.12.333-.005.335.081.334-.021.337.027.329-.095.337.03.333-.01.321-.175.35.14.316-.175.336,0,.346.067.311-.188.335-.008.341.008.309-.178.354.09.3-.2.352.06.3-.185.351.04.311-.136.345.007.329-.066.279-.253.369.079.272-.265.347,0,.339-.037.3-.147.336-.052.285-.2.287-.189.318-.1.356,0,.323-.091.244-.286.382.05.267-.229.309-.125.335-.073.3-.151.273-.2.327-.093.3-.155.317-.114.263-.219.316-.12.3-.146.27-.2.248-.239.317-.12.237-.251.29-.165.316-.124.307-.139.2-.3.348-.082.228-.257.257-.217.343-.092.223-.261.279-.185.256-.215.29-.17.192-.294.3-.162.288-.176.188-.294.345-.113.174-.307.259-.209.273-.2.178-.3.359-.105.223-.251.143-.329.227-.245.352-.125.17-.3.173-.294.329-.154.107-.351.314-.169.147-.313.194-.272.335-.157.171-.293.248-.23.2-.269.1-.344.279-.209.079-.354.319-.183.183-.28.065-.36.22-.254.242-.239.13-.313.138-.308.28-.219.2-.27.133-.311.11-.323.205-.267.113-.32.189-.276.115-.317.2-.274.062-.341.146-.3.219-.267.084-.329.086-.324.269-.25-.038-.377.238-.265.039-.341.177-.292.145-.3.094-.319.185-.29-.017-.359.14-.306.162-.3-.068-.369.2-.29.04-.336.087-.321.14-.31-.027-.349.215-.292.009-.34-.008-.343.176-.3.007-.338.152-.314.047-.33.074-.327-.121-.356.04-.33.152-.317-.064-.343.092-.326v-.335l.049-.33.112-.327.008-.333,0-.336.055-.333-.108-.338.148-.332L360.1,1749l.03-.333.12-.334-.128-.333-.02-.334.024-.333-.073-.331.035-.336.007-.334.035-.338-.143-.324.1-.346L360,1745l-.056-.329-.07-.329-.1-.323-.058-.328-.026-.334,0-.338-.129-.314.054-.35-.185-.3.045-.351-.2-.3.05-.354-.142-.308-.141-.31-.083-.323.029-.354-.182-.3.039-.36-.244-.276-.028-.341-.116-.313-.043-.34-.1-.318-.225-.274-.114-.313-.048-.339-.067-.334-.254-.257-.117-.314-.027-.351-.178-.288-.1-.322-.215-.269-.164-.292-.17-.288-.173-.286-.174-.284-.086-.332-.219-.259-.076-.343-.182-.281-.193-.273-.1-.331-.2-.27-.184-.279-.175-.284-.207-.264-.156-.3-.212-.26-.182-.281-.167-.292-.249-.232-.168-.292-.225-.249-.22-.252-.185-.28-.305-.181-.111-.344-.214-.257-.324-.16-.231-.239-.22-.251-.1-.366-.3-.179-.257-.215-.226-.246-.246-.226-.154-.32-.319-.15-.186-.288-.221-.254-.353-.108-.157-.327-.258-.213-.26-.209-.338-.117-.245-.228-.244-.229-.307-.147-.252-.221-.247-.226-.224-.26-.308-.142-.217-.27-.278-.189-.32-.121-.252-.226-.311-.133-.319-.118-.2-.3-.274-.2-.283-.178-.309-.133-.294-.161-.341-.07-.273-.2-.264-.214-.317-.117-.273-.2-.335-.078-.333-.073-.281-.188-.317-.1-.285-.186-.312-.12-.336-.061-.31-.122-.3-.142-.321-.093-.26-.258-.312-.124-.316-.111-.316-.107-.336-.049-.354.015-.3-.157-.324-.08-.315-.11-.323-.083-.335-.031-.288-.231-.326-.077-.326-.073-.344.006-.316-.119-.338-.021-.342.019-.327-.062-.313-.161h-.338l-.331-.042-.32-.132-.335-.022-.351.138-.318-.188-.341.08-.327-.108-.335.023-.332-.062-.332-.07-.338.067-.335.021-.332-.113Zm0,63.1-.337-.037-.335-.035-.332-.118-.339.1-.335-.026-.332-.07-.333-.044-.332-.06-.344.07-.321-.155-.334-.018-.343.035-.32-.132-.336-.017-.323-.1-.364.136-.321-.117-.318-.12-.334-.048-.339-.021-.333-.054-.3-.192-.311-.14-.354.022-.326-.083-.29-.2-.354,0-.324-.085-.3-.164-.344-.032-.277-.226-.326-.083-.321-.1-.347-.033-.25-.28-.305-.136-.317-.113-.362-.011-.257-.246-.358-.028-.248-.258-.345-.062-.237-.272-.3-.15-.365-.031-.248-.248-.278-.189-.342-.081-.266-.208-.273-.2-.3-.161-.266-.205-.333-.107-.248-.232-.2-.295-.309-.145-.329-.122-.173-.325-.3-.158-.294-.17-.208-.279-.254-.217-.332-.124-.251-.226-.294-.177-.154-.329-.313-.157-.191-.288-.2-.274-.282-.192-.289-.187-.243-.23-.2-.28-.169-.3-.237-.237-.345-.143-.179-.289-.16-.307-.241-.235-.276-.208-.1-.352-.248-.231-.272-.215-.143-.313-.164-.294-.223-.253-.225-.254-.21-.262-.089-.344-.286-.214-.129-.315-.254-.239-.014-.383-.181-.282-.152-.3-.212-.266-.156-.3-.175-.288-.184-.284-.111-.319-.118-.316-.273-.241.024-.379-.313-.227.017-.374-.264-.254-.124-.312-.123-.313.018-.366-.167-.3-.176-.294-.108-.318-.081-.327-.141-.307,0-.349-.05-.336-.174-.3-.145-.309.067-.363-.242-.288,0-.344-.12-.318-.088-.324-.043-.336-.1-.323-.057-.333.006-.341.06-.348-.051-.331-.179-.314.086-.349-.163-.32-.064-.332-.008-.336.123-.346-.053-.332-.154-.329v-.337l-.014-.337.055-.338.091-.336-.047-.335-.076-.337.108-.334.076-.332-.156-.345.181-.324-.05-.339,0-.337.123-.328-.122-.349.208-.313-.019-.341-.046-.346.026-.336.132-.319.008-.339.083-.326.133-.316-.044-.354.127-.316.135-.314-.032-.354.233-.288-.025-.353.142-.311.106-.319.056-.335.158-.3.1-.317,0-.354.132-.311.1-.322.108-.319.159-.3.12-.313.1-.324.254-.255.017-.36.248-.256.123-.312.123-.315.2-.273.048-.352.151-.3.234-.255.19-.278.079-.341.165-.294.217-.262.192-.277.221-.257.067-.357.253-.235.235-.245.128-.322.285-.208.207-.262.11-.338.254-.228.224-.25.105-.345.316-.177.145-.316.241-.235.192-.279.185-.286.289-.191.207-.265.3-.176.16-.313.284-.191.268-.205.2-.279.239-.232.294-.178.156-.33.289-.18.3-.17.2-.28.31-.151.2-.286.277-.19.283-.184.268-.2.3-.162.27-.2.279-.185.229-.26.27-.2.285-.18.292-.167.347-.076.232-.266.345-.073.276-.194.285-.177.3-.158.3-.156.3-.147.312-.125.281-.192.326-.094.311-.123.3-.156.3-.154.285-.186.338-.061.263-.248.32-.107.353-.012.313-.118.291-.189.329-.078.349-.007.28-.232.323-.1.351.008.314-.121.347,0,.3-.2.339-.025.313-.141.362.088.3-.209.328-.076.351.064.314-.165.347.049.316-.164.345.053.335-.026.336-.013.329-.072.341.054.326-.163.342.118.331-.1.333-.1.337.043.338.073.335-.025.336-.055.335.031.339-.071.332.112.334.034.335.03.342-.083.332.063.338-.005.328.1.344-.053.312.2.338,0,.322.122.355-.094.317.135.331.058.336.025.333.052.335.045.315.129.331.063.335.048.323.1.315.122.3.185.32.1.324.09.356-.008.319.106.287.2.318.106.3.161.34.051.292.173.3.143h.367l.235.294.364.011.289.177.251.245.366.021.279.191.269.21.354.052.221.3.361.044.226.279.349.073.224.274.316.127.234.256.27.2.375.045.175.335.379.047.216.274.228.253.3.166.228.252.321.134.312.149.248.228.178.309.23.245.366.1.12.366.316.152.236.239.192.285.244.229.282.192.189.284.232.242.2.274.276.2.187.281.2.268.25.228.279.208.164.3.279.208.2.275.148.309.157.3.306.195.088.348.257.232.209.264.079.35.245.242.161.3.186.281.129.312.264.238.106.324.119.319.247.25.027.363.253.249.129.309.107.323.228.264-.022.378.154.3.251.259.134.309-.033.372.2.285.184.289-.022.364.253.269-.016.357.189.292.124.314-.061.369.139.309.033.337.089.322.2.3-.021.35.212.3-.083.361.073.326.207.3.014.338-.018.344.108.322.09.327-.083.349,0,.337.076.33.1.328-.023.338.076.331-.017.336.058.335-.045.338.1.334,0,.335-.086.337.057.336.045.337-.159.331.164.342-.139.331.068.34-.086.33-.059.332-.013.335-.117.325.089.348-.083.327-.111.323.117.358-.161.313-.007.341-.065.331-.121.317.036.352-.213.3-.011.342,0,.344-.192.3-.035.34-.18.3-.084.324-.121.313.061.373-.1.323-.214.282-.014.352-.17.295-.091.326-.14.305-.208.279-.117.313-.112.318-.174.289-.032.356-.268.243-.011.369-.176.288-.261.245-.048.354-.151.3-.2.277-.117.32-.214.264-.2.274-.227.253-.083.344-.293.211-.144.306-.173.288-.17.292-.152.3-.189.279-.224.252-.248.235-.151.309-.3.189-.118.337-.3.183-.121.338-.318.169-.176.292-.18.291-.234.245-.32.157-.167.3-.337.138-.133.344-.3.175-.237.239-.293.177-.256.215-.178.307-.257.215-.308.156-.3.164-.176.318-.274.2-.336.11-.241.237-.3.161-.226.26-.264.208-.263.208-.267.207-.27.2-.329.111-.25.234-.341.085-.28.184-.279.19-.333.089-.281.183-.294.164-.3.145-.288.176-.318.112-.292.168-.31.127-.32.1-.283.19-.324.093-.3.152-.306.138-.325.09-.273.229-.361-.016-.316.1-.276.238-.316.115-.325.093-.372-.076-.3.182-.315.121-.329.074-.322.093-.355-.042-.3.182-.345-.01-.335.028-.3.214-.355-.079-.329.061-.329.059-.315.173-.337.021-.336.011-.327.108-.338.01-.338,0-.34-.054-.332.086-.339-.08-.335.015-.333.091-.336-.046Z" transform="translate(-294.196 -1715.619)" fill="#20411a"/>
</svg>
