<svg id="logo_white" xmlns="http://www.w3.org/2000/svg" width="120" height="120" viewBox="0 0 120 120">
  <g id="VI">
    <path id="パス_32" data-name="パス 32" d="M52.606,34.227l-.065.656v.628l-.1.619-.138.61-.074.619-.12.619-.323.563-.065.628-.1.619-.212.591-.3.563-.148.6-.175.6-.268.563-.12.637-.277.563-.185.6-.277.554-.3.5-.342-.462-.406-.462-.332-.517-.332-.508-.212-.582-.351-.508-.277-.545-.222-.573-.406-.489-.268-.554-.092-.619-.314-.536-.166-.591-.129-.6-.277-.554-.074-.582-.277-.554v-.591l.24-.517.185-.5.323-.434.637.083.637-.111h.628l.637.055.628.055.637-.092.637.065h1.274l.637-.065ZM36.912,42v-.6l-.074-.582V38.494l.175-.6-.1-.582-.065-.582v-.582l.111-.582-.055-.591v-.6h.591l.572-.092h.572l.572-.065h.572l.582.1.572-.065.582-.065.7-.175-.175.637-.351.489-.212.545-.286.508-.342.48-.157.591-.3.508-.434.425-.231.554-.36.471L39,39.676l-.24.508.323.536.526-.434.563-.259.443-.416.406-.453.5-.351.5-.351.369-.489.443-.416.471-.388.388-.379.129.517v.61l.074.6.12.591.175.582.222.573.111.591.129.591.065.61.268.554.175.582.157.591.185.582.185.573.314.526.138.6.258.545.323.517.194.582.3.526.231.508-.166.573-.388.489-.388.48-.342.508-.323.526-.36.5-.462.416-.434.434-.323.526-.406.462-.5.379-.36.508-.434.434-.489.379-.406.471-.526.323-.443.425-.452.416-.415.462-.563.277-.48.379-.462.406v.055l.462.785.055-.12.591-.129.508-.323.591-.139.535-.268.471-.388.563-.2.526-.277.462-.388.526-.286.508-.3.48-.351.5-.323.425-.425.5-.323.535-.286.415-.434.388-.453.535-.3.4-.453.388-.453.471-.379.36-.416.415.406.388.489.443.443.314.554.489.4.378.5.406.48.489.4.508.369.48.406.452.434.443.443.508.36.591.24.489.388.489.4.545.3h.24l.194-.6.231-.6.415-.489.434-.453.434-.462.48-.416.535-.342.628-.129v-.074l.092-.822H60.96l.046-.139-.554-.222-.545-.259-.563-.212-.406-.212-.545-.259-.545-.259-.526-.3-.5-.332-.582-.212-.388-.48-.591-.2-.4-.471-.554-.259-.471-.379-.462-.388-.369-.489-.48-.369-.5-.4.332-.563.332-.526.268-.554.369-.508.323-.536.2-.591.212-.591.388-.508.1-.628.3-.545.185-.591.2-.591.231-.573.175-.591.194-.591.24-.573.277-.563.166-.6v-.628l.268-.573.046-.656.637-.139.554-.231.369-.5-.342-.591-.646-.166-.665-.222-.674-.2-.6-.3.683.055h.655l.655-.074.655.092.655.055.655-.157.554.092.443-.323.138-.508-.065-.517-.415-.379-.369-.554-.554-.4-.535-.379-.5-.425-.434-.489-.508-.406-.462-.453-.757-.453-.609.563-.4.489-.4.489-.268.573-.471.443-.277.591H51.711L51.1,32.14h-.609l-.646.12H46.762l.231-.628.378-.489.157-.6.36-.508.2-.637.222-.573.3-.545.138-.609.231-.573.3-.545h0l.619-.222.582-.231.314-.489-.166-.471-.406-.268H49.68l-.554-.24-.563-.222-.6-.1-.545-.268-.572-.185-.6-.111-.563-.222-.572-.194-.074.083h-.1v.628l-.12.61-.065.619-.065.619-.194.6-.1.609-.212.591-.046.628-.2.591-.194.591-.111.619-.166.6-.24.573-.065.628-.249.573-.249.554-.36-.379-.388-.526-.508-.425-.425-.489-.425-.5-.443-.48-.655-.434-.609.508-.314.462-.24.508-.351.508-.342.489h-.739l.083-.665-.1-.619.1-.619V26.054l.628-.259.591-.332.3-.619-.406-.591-.711-.111L36.746,24l-.609.046-.591-.1-.582-.175-.6-.065h-.609l-.591-.1-.609-.166.1.24.065.637v.637l.065.628-.065.628.12.628v.637l.065.637-.138.582.129.582v.582l-.111.582.1.582L32.8,31.6l.083.637-.729-.074H30.1l.249-.554v-.628l.268-.563.065-.619.065-.61.138-.379.591-.129.508-.314.2-.536-.369-.591-.739-.139-.526-.157-.545-.139-.554-.129h-.572l-.545-.148-.563-.092-.545-.175h-.175v.619l-.083.619.111.619-.1.61v2.475l-.12.61-.065.619-.046.61-.1.61-.129.6-.185.591-.1.61-.092.6v.619l-.12.61-.2.591-.111.61-.166.591-.055.619-.175.6-.138.6v.268l.794.406V41.5l.369-.489.415-.462.111-.619.332-.517.342-.508.175-.6.388-.489.138-.61.351-.517.138-.61.323-.536.166-.591.231-.508h.535l.563-.157.554.157.563-.166.563.083h.508v.573l-.055.619.083.619.074.619V37.4l-.111.619v.619l.157.619-.175.619.092.619v.619l-.065.619v.683l.065.628-.591.083-.572.129-.582.092-.563.185-.582.074-.582.092-.572.139-.572.166h-.591l-.572.166-.619.092H25.216l.092.61.277.563.231.573.1.619.268.563.185.591.212.582.166.6.388.582.517.36.517-.185.1-.554.185-.508.434-.3.563-.222.572-.2.526-.314.619-.092.545-.259.5-.36.637-.231-.148.665.074.637.065.637-.129.637.138.637-.12.637.083.637v.646l-.148.6v.6l-.055.6v.6l.111.6-.1.6.12.6-.148.6v.6l.129.683v.563l.157.536.526.185h.563l.609.1h.609l.591-.157.545-.277.489-.36.175-.582.065-.6v-1.3l-.092-.646V54.72l.065-.656-.065-.646-.065-.674.12-.674-.175-.665.1-.674-.083-.6.055-.6v-1.2l.074-.6-.12-.6v-.6l.148-.508-.157-.6.1-.6.5-.314.526-.286.554-.24.48-.379.582-.175.489-.351.48-.369.563-.231L41.6,42.1l.545-.268.48-.36.083-.1-.452-.767-.5.2-.619.074-.563.259-.609.12-.591.185-.609.139-.628.074-.6.148Z" transform="translate(-1.934 -1.785)" fill="#fff"/>
    <path id="パス_33" data-name="パス 33" d="M60.772,84.408l-.388-.416-.36-.443-.508-.286-.406-.4-.4-.416-.406-.406-.452-.36-.646-.314v-.619l-.074-.582v-.582l.111-.582v-.582l-.074-.683V76.364l-.092-.61v-.619l.065-.619V72.661h.166l.471-.4.48-.379.277-.526-.425-.693-.212-.111-.508-.369-.471-.416-.462-.434L56,68.93l-.406-.49-.415-.231-.452-.129-.628.388-.388.573-.489.489-.4.61H51.605l-.591-.092-.591.074H49.242l-.591.074-.591-.139-.591.074-.545-.175-.591.055-.591.1-.665-.138-.591.055h-.582l-.572-.175-.535-.314-.563-.24-.563-.24-.582-.185-.628-.092-.545-.3-.572-.212v.139l-.065.573.046.573.138.573V70.7l-.083.573.092.563-.055.573v.573l.12.563-.065.582v1.154l.055.582-.074.582v.582l.092.573v1.136l-.065.573v.573l-.083.61-.12.6.1.609.12.656.535.332.655.194h.563l.545-.175.545-.12.545-.129.388-.388.258-.489h1.219l.591-.083h2.372l.591.065.6.055.591-.055.591.065.591-.12.591.1h1.763l.175.563.48.443.683-.055H55.51l.535-.222.48-.139-.222.489-.4.379-.249.5-.4.379-.609.083-.619-.074h-.646l-.619.065-.619-.046-.619-.092-.619.1h-.619l-.619.074h-.619l-.619-.139H47.82l-.619.129h-.619L46,84H43.528l-.619.046-.619-.092-.619.055H39.817l-.619-.055H37.961l-.619-.065-.628.1-.609-.12h-.268l.157.591.212.573.258.554.2.573v.065h1.237l.591-.092.6.083.591-.083.665.074.674-.046-.277.582-.222.554-.2.573-.2.573-.4.471-.3.517-.212.582-.36.49-.415.443-.378.471-.3.545-.443.425-.406.443-.332.517-.406.453-.4.462-.388.471L35,95.2l-.48.379-.369.489-.138.065.508.665h.1v-.055l.545-.24.582-.185L36.2,95.9l.517-.3.591-.185.471-.369.535-.286.48-.36.489-.351.378-.48.563-.259.415-.434.415-.434.351-.489.5-.351.277-.554.452-.351.517-.083h1.089l-.351.554-.258.554-.314.517L43,92.756l-.332.508-.342.508-.36.5-.378.48-.4.462-.517.36-.342.526-.415.443-.489.379-.48.379-.36.508-.508.351-.48.379L37.195,99l-.5.36-.5.369-.5.36-.055.139.563.73h.111l.582-.2.545-.286.535-.286.545-.286.489-.388.545-.277.582-.222.443-.434.508-.332.554-.277.452-.425.526-.323.406-.471.434-.434.443-.416.489-.369.462-.406.406-.462.369-.49.369-.48.415-.453.36-.49.351-.5.314-.526.286-.545.332-.563h1.108l.545-.055.517.138-.24.471-.194.573-.212.573-.323.517-.277.536-.332.5-.286.536-.388.471-.406.452-.314.517-.443.416-.4.453-.332.508-.434.416-.471.379-.332.526-.471.388-.517.323-.369.49-.508.332-.48.36-.489.351-.443.406-.517.323-.406.471-.508.332-.526.3-.452.406H39.1l.148.434.314.342h0l.582-.175.591-.175.563-.231.6-.139.545-.277.508-.36.6-.166.554-.268.48-.4.526-.314.545-.277.462-.406.545-.286.462-.4.471-.379v.111l.6.129.572.222.591.175.517.333.517.323.471.4.185.591.323.536V103l.12.6v.111l.1-.1H52.2l.619.065.6-.212.628.083.582-.212.609-.092.517-.342.535-.268.462-.379.443-.425.3-.526.286-.536.185-.582.277-.545.138-.591.083-.61.2-.582.138-.6v-.619l.074-.6.231-.582v-.619l.129-.6.065-.61v-.609l.092-.6V91.8l.166-.554.563-.3.471-.48.369-.508-.277-.443-.277-.462-.563-.536-.425-.379-.5-.314-.369-.453L58.113,87l-.48-.332-.111-.111-.5-.175-.517.332-.4.379-.3.443-.323.425-.249.5h-1.2l-.591-.12H51.088L50.5,88.4h-.619l-.591.046H48.7l-.591.074-.591-.1h-.591l-.591.092-.591-.1h-1.8l.415-.471.258-.508.212-.526.314-.462.268-.536.628.1.609-.12h.609l.609.092.609-.083h.609l.609.1.609-.129.609.139h.628l.609-.166.609.148.609-.12.609.065.609-.111.609.12h1.228l.609-.111h3.083l.535-.148.462-.24.24-.453-.157-.508ZM53.11,72.042v.683l-.083.665.129.665v.683H51.365l-.591.046h-.591l-.591.065H49l-.591-.129H47.82l-.591.055H45.956l-.591.092h-.6l-.609-.157h-.609V73.39l.065-.665-.074-.683h1.8l.591-.055.591-.046h1.772l.6.1h1.772l.591-.055.6.074.609-.083Zm0,4.682v.591l-.083.563.129.563v1.117H50.8l-.591.065H49.62l-.591-.129h-.591l-.591.055H46.666l-.6.1h-.591l-.6-.065h-1.2V79l.065-.563-.083-.563V76.752h.5l.591-.055.591-.055h1.772l.591.1h1.782l.591-.055.591.074.591-.083h1.209Zm2.271,13.853-.1.591-.138.582.074.6-.074.591-.111.591-.092.591v1.2l-.138.582-.055.6-.12.582-.286.536-.249.536-.415.416-.591.139h-.609l-.655.074h-.646l-.646-.092H48.55l.5-.4.388-.5.434-.453.443-.443.415-.48.342-.526.332-.536.36-.508.369-.508.332-.526.415-.48.268-.563.277-.563.268-.563.222-.582.332-.526.572-.083H55.4Z" transform="translate(-2.614 -5.208)" fill="#fff"/>
    <path id="パス_34" data-name="パス 34" d="M36.806,89.588l-.591.3-.591.212-.6.166-.619.139-.554.3-.582.092-.055-.591-.037-.6.083-.6.028-.591-.009-.6.009-.6-.138-.6.157-.6-.148-.6.083-.591.018-.6-.037-.6-.065-.6.12-.6-.092-.6.12-.6-.111-.646.646-.009.609.083.6.037.609-.157.609.009.609.129.517-.185.5-.139.286-.462-.443-.8-.36-.471-.5-.342-.351-.489-.462-.379-.351-.471-.739-.416-.517.536-.48.434-.268.573-.36.5-.2.055.129-.628-.111-.6.138-.609-.12-.6v-.6l.046-.6v-1.21l.018-.609.037-.6-.1-.61.055-.609.009-.591.563-.268.545-.3.3-.536-.369-.508-.609-.259-.138-.083-.582.009-.572-.046-.563-.074-.563-.139-.591.1L30.1,68.56l-.572-.046-.554-.194-.092.074-.018.083.129.582-.055.591.046.6.009.591.083.591-.1.591.1.591v.591l.018.6-.065.591-.046.6.009.6.028.591.046.6-.111.6.037.6.065.609-.674.037-.646-.111-.646.037-.637.065-.646-.074-.637-.1-.637-.046-.148.018.166.554.286.517.231.526.12.582h.074l.028-.018.646.046.637-.055.637.1.646-.139.637.092.526-.009.065.591-.083.591-.018.6-.009.6.083.591-.12.6.018.6.148.591-.018.6.009.591-.074.6.018.591v.6l-.1.6.028.6.055.591.028.6-.055.6.046.6-.582.129-.554.175-.563.1-.572.065-.582.046-.554.148-.572.046-.572.092-.083-.009.3.563.166.628.24.6.258.582.286.582.231.6.286.582.2.609.055.157.3.536.471.3.415-.286.175-.517.157-.508.443-.406.517-.36.5-.369.572-.259.5-.369.517-.36.526-.323.554-.3.452-.443.517-.286.452-.369.489-.323.425-.406.535-.259.434-.4.5-.314.452-.36.434-.388.471-.443-.323-.379Z" transform="translate(-1.874 -5.226)" fill="#fff"/>
    <path id="パス_35" data-name="パス 35" d="M100.274,32.9l-.489-.342-.6-.129-.452-.4-.535-.259-.582-.148-.517-.3-.471-.369-.554-.222-.545-.212.018.083-.24.582-.12.61-.12.619L94.846,33l-.286.563-.1.628-.323.536-.175.609-.323.536-.268.563-.194.6-.212.582-.351.526-.3.545-.194.6-.268.563-.342.526-.249.573-.388.508-.351.517-.046.12.674.536.055.092.083-.065.517-.323.452-.406.535-.286.462-.4.425-.443.489-.36.443-.416.425-.425.443-.416.48-.369.452-.406.434-.425.415-.453.277-.554.415-.443.471-.388.415-.443.323-.526.36-.5.572-.046.535-.065.462-.175.231-.434-.148-.489-.434-.3Z" transform="translate(-6.953 -2.335)" fill="#fff"/>
    <path id="パス_36" data-name="パス 36" d="M74.931,42.481l.545-.111.535-.157.462-.314.48-.332.314-.489.157-.563.148-.554.065-.573-.148-.591-.111-.591-.129-.582-.24-.545-.342-.489-.286-.536-.314-.508-.378-.471-.517-.332-.388-.462-.415-.434-.517-.314-.471-.369-.535-.286-.471-.369-.5-.332-.545-.259L70.8,31.63l-.517-.3-.554-.222-.092-.074-.7.61.166.175.3.536.3.545.332.517.332.517.222.573.3.536.378.508.2.582.268.554.258.563.222.573.065.637.3.545.148.6.1.563.148.554.3.5.249.508.3.508.526.24Z" transform="translate(-5.298 -2.374)" fill="#fff"/>
    <path id="パス_37" data-name="パス 37" d="M102.193,44.349l-.36-.489-.462-.379-.388-.462-.452-.388L100,42.317l-.351-.508-.452-.4-.406-.443L98,40.609l-.757.453-.268.628-.415.526-.351.563-.425.517-.351.536-.545.018-.591.083-.591-.009-.591.055-.591-.148-.591.1-.582-.028-.591.018-.591.009-.591-.018-.591-.074-.591-.018-.591.018-.591.12-.591-.074-.545-.046-.129-.545.148-.6-.12-.6-.028-.6.129-.6-.12-.6.157-.6-.138-.6.046-.6-.046-.6.028-.6.055-.6-.009-.6.046-.61-.037-.6v-.6l-.074-.6v-.6l.028-.6.065-.6-.1-.6.018-.61.074-.6.018-.6-.1-.6L86,28.234l.637-.009.609.12.609-.074.609.028.609-.065.609.018.609.037.6-.055.609.074.609-.12.609.157.609-.028.609-.037.609-.009.609.009.609-.046.609.055.609-.065.6-.028H98.2l.609.065.609-.046.526-.129.434-.268.222-.48-.092-.563-.36-.443-.5-.342-.471-.351-.4-.443-.489-.351-.36-.48L97.466,24l-.48-.36-.406-.434-.739-.36-.683.369-.378.536-.388.545-.268.61-.351.563-.4.545-.619-.111-.6.148-.6-.046-.609-.046-.6.018-.6.074-.6.028-.609-.157-.6.1-.6.037-.6-.092-.609-.018-.6.074-.6-.055-.609.009-.6.092-.6-.111-.609.065-.6-.037-.609.028-.6-.1-.6.092-.609.055-.6-.092-.6.111-.609-.074-.609-.037-.6-.009-.6.028-.609.028-.6-.037h-.609l-.6.046-.609.037-.6-.12-.609.065-.609.055-.637-.046-.646-.083L69.1,26l-.637-.037-.637-.1-.628-.1-.222.083.231.646.286.61.1.674.194.646.074.074.083-.092.6.037.582-.175.609.12.591-.028.591-.175.619.166.619-.009.618-.129.619.129.619-.139.619.148.619-.037.619-.1.619.092.619-.083.619.055.618.009.628-.037.619-.046.619.157.619-.157.628.065-.074.6.083.6-.092.6.055.6.046.6.055.6-.1.6v.6l.046.6-.018.6-.028.6-.037.6-.018.6.009.609.138.6-.12.6.1.6-.009.6-.018.6.046.6-.074.6-.074.6.12.6-.1.61v.6l.074.619H80.84l-.619-.046-.609.111-.6-.12-.609.009-.619-.046-.609.009-.609.1-.609-.046-.609-.065-.609.1-.609.046-.609-.028-.609-.018-.609-.037-.619-.009-.609.018-.609-.083-.609.028-.618-.028-.637.111-.646.037-.646-.065-.637-.065-.637-.037-.637-.009-.166-.037.3.6.166.637.2.637.212.628-.018.074.065-.009.591-.065.591-.018.591-.028.6.055.591-.157.609.129.619-.148.619.12.609.046.619-.083.619-.018.609-.046.619.074.619-.028.619.092.609-.092.619-.028.609-.037.619.1.618.055h.619l.618-.148.619.065.619-.055.665.018-.018.683-.092.637.018.637.009.637.092.637-.074.637.046.637.028.637-.092.637.092.628-.092.619-.037.619.1.619-.009.628-.037.619-.028.628-.055.619.1.619-.138.619.028.609.351.489.535.259.6.055.619-.1.619-.046.609-.083.618-.111.5-.4.24-.563.129-.609.009-.582-.046-.573-.037-.591L86,55.256l.009-.619.1-.619-.083-.619.028-.61-.037-.619v-.619l.074-.591-.083-.6v-.6l.083-.6-.129-.6.065-.6v-.591l.055-.61-.074-.619.619.111.6-.009.6-.111.591.028.6-.065.591.074.6-.083.6.083.6.037L92,46.187l.6.046.6-.009.6-.111.6.1.591-.018.6.018.6-.092.591-.009.6.065.6-.037.6-.046.591.083.6-.055.6.074.6.009.609.046.554-.175.508-.277.129-.563-.166-.517Z" transform="translate(-5.013 -1.748)" fill="#fff"/>
    <path id="パス_38" data-name="パス 38" d="M100.283,71.373l-.452-.443L99.3,70.6l-.425-.471-.545-.323-.489-.4-.471-.425-.757-.222-.794.332-.24.489-.3.443-.3.443-.3.406-.572.074h-.6l-.6.046-.6-.1-.6.092-.563-.055h-1.2l-.6.092h-1.8l-.628-.194-.6.111-.6-.046-.6.092-.6-.092-.6.092-.6-.111h-.6l-.6.092-.6-.074H79.7l-.6.083-.6-.046-.6.1-.618-.129-.6-.074h-.6l-.6.1-.609-.1-.6.055h-.591l-.526-.231-.554-.194-.563-.175-.554-.2-.545-.212-.535-.249-.572-.139-.508-.323-.591-.111-.12-.148v.166l.194.628-.1.656.1.637.074.637-.1.646.092.637v.646l-.083.646.074.609v2.438l-.055.609.12.61v1.219l-.175.61.148.609-.083.609.046.61v1.219l-.111.609.092.61-.1.61v.609l.083.619-.065.61v1.847l.12.609v.609l-.138.619V91.3l.111.609-.1.619v.609l.092.609.055.61-.138.609v1.856l.074.674v1.958l-.157.683.074.693-.092.693.055.582.415.369.508.222.572.1.637-.111.637-.055.628-.092.563-.286.545-.342.1-.637v-.637l.12-.471-.083-.545.665.074.609.065.609-.065.609.083.609-.055H78.9l.609-.092.609.166.609-.074h1.237l.609-.055L83.2,99.6l.619.092h.609l.618-.065.609-.055.618.12.609-.055h1.228l.618.083.609-.092.609-.065h.618l.619.055.618.083h1.237l.618-.065.618.065.646-.065v.6l-.055.563-.055.563.258.517.3.388.48.286H97.56l.545-.212.563-.111.517-.268.3-.5.175-.554-.12-.563.055-.563-.111-.563v-2.9l-.055-.582v-.609l.046-.6-.111-.609.065-.6.065-.609-.111-.609v-.61l.083-.61-.148-.609.175-.61-.175-.609.129-.609-.083-.61v-.609l.083-.609V86l-.083-.609.1-.61-.046-.609v-.609l.065-.61v-.609l-.111-.609.055-.609V79.417l-.074-.609V77.589l.12-.609-.046-.61.046-.609v-.609l-.046-.628V73.9l.535-.249.415-.406.443-.379.175-.545-.24-.582ZM94.91,86.38l-.055.656.065.619-.1.619.083.619V90.13l.111.619-.157.619.074.619v1.856l.083.619v.619l.046.619-.1.619.092.628L95,97.564H93.784l-.609.092H91.347l-.609-.139-.609.12-.609-.046-.609.092-.609-.092-.609.092-.609-.111H86.51l-.083-.582.074-.619V94.5l-.175-.582.055-.619-.1-.619.074-.619.046-.619v-.665l-.111-.619.1-.619-.055-.619V86.436h1.828l.609-.083.609.111.609-.12.609.111h.609l.609-.129.609.148.609-.065.609-.055.619.111Zm0-13.335-.055.656.065.619-.1.619.083.619v1.237l.111.619-.157.619.074.619v1.856l.083.619v.619l.046.619-.24.656.092.628-.046.619H93.646l-.609.092H91.209l-.609-.139-.609.111-.609-.046-.609.092-.609-.092-.609.092-.609-.111h-.572l-.083-.582.074-.619V81.209l-.092-.619.055-.619-.1-.619.074-.619.046-.619V77.5l-.111-.619.1-.619-.055-.619V73.147h1.828l.609-.083.609.111.609-.12.609.111h.609l.609-.129.609.148.609-.065.609-.055.618.111Zm-12.924,0-.055.656.065.619-.111.619.083.619v1.237l.111.619-.157.619.074.619v1.856l.083.619v.619l.046.619-.231.656.092.628-.046.619H80.722l-.609.092H78.285l-.609-.139-.609.111-.609-.046-.609.092-.609-.092-.609.092-.609-.111h-.572l-.083-.582.074-.619V81.209l-.083-.619.046-.619-.1-.619.074-.619.046-.619V77.5l-.111-.619.1-.619-.065-.619V73.147h1.828l.609-.083.609.111.609-.12.609.111h.609l.609-.129.609.148.609-.065.609-.055.609.111Zm0,13.335-.055.656.065.619-.111.619.083.619V90.13l.111.619-.157.619.074.619v1.856l.083.619v.619l.046.619-.1.619.092.628-.222.665H80.676l-.609.092H78.238l-.609-.139-.609.12-.572-.074-.609.092-.609-.092-.609.092-.609-.111h-.572l-.083-.582.074-.619V94.5l-.037-.582.046-.619-.1-.619.074-.619.046-.619v-.665l-.111-.619.1-.619-.065-.619V86.436h1.828l.609-.083.609.111.609-.12.609.111h.609l.609-.129.609.148.609-.065.609-.055.609.111Z" transform="translate(-5.273 -5.26)" fill="#fff"/>
    <path id="パス_39" data-name="パス 39" d="M60,.323,59.4.259H58.8L58.158,0l-.6.222h-.609L56.367.212H55.149l-.591.222L53.93.277l-.6.1-.591.212L52.121.517l-.6.148h-.609l-.545.443H49.139l-.591.148L48,1.478l-.582.166-.637-.074h-.619l-.545.342-.582.166H44.4l-.535.351-.572.194-.619.065-.535.323H41.5l-.554.259-.563.231-.517.369L39.188,3.8l-.582.2-.545.259-.471.453h-.665l-.471.453h-.646l-.48.416h-.655l-.517.332-.452.554-.619.111-.563.231-.452.453L31.5,7.48l-.554.259-.48.286-.563.286-.434.453-.563.231-.637.12-.452.425-.415.471-.665.092-.443.425-.443.416-.591.222-.5.342-.36.536-.489.351-.415.453-.637.166-.36.517-.563.268-.535.3-.388.48-.369.5-.434.416-.517.332-.545.3-.425.443-.24.628-.5.351-.526.332-.378.471-.314.536-.609.268-.342.517-.286.554-.508.36L14.567,21l-.342.508-.332.508-.351.5L13,22.857l-.194.619-.452.416-.231.582-.628.286-.332.508-.378.48-.258.554-.369.48-.3.526-.277.545-.388.471-.369.489-.092.656-.591.36v.7l-.554.379-.065.656-.286.536-.286.536-.517.416-.175.591-.157.6-.258.545-.3.545-.185.582-.406.489-.332.536-.083.619-.12.6-.48.462.074.674-.314.517-.12.6-.166.582-.268.563-.12.6-.175.582-.277.545-.36.526-.148.591.083.656-.369.536.083.646-.083.6-.157.582-.388.536-.065.61L1.3,49.2l-.129.591-.092.6-.2.582-.249.573v.619l.074.619-.249.582-.175.591.249.637-.342.582.083.619v.61l-.2.6.258.619L0,58.181l.092.61.157.61v.61l-.138.61.1.61v.61l-.1.61.231.6-.065.61-.065.61.249.591-.222.628.268.582v.619l.046.61.157.591v.619l.092.6.3.563.065.6.138.591.138.591.046.61.138.591.185.582-.092.646.378.536-.065.637.194.582.212.573.065.619.378.517.185.573v.628l.138.591.369.517.212.573.12.6.185.582.138.6.462.471.1.619.138.6.378.5.065.637L5.6,85.4l.443.462.166.591.24.563.489.434.065.646.434.453.24.563.36.489.388.48.175.6.36.489.175.61.48.406.231.573.277.545.434.434.351.5.249.563.572.342.277.545.277.554.489.388.258.573.517.36.36.489.351.5.4.462.332.517.415.443.4.462.526.342.443.416.415.443.406.453.277.582.572.286.3.563.48.379.471.388.443.416.452.406.452.406.425.434.526.323.406.462.462.406.5.342.5.342.554.277.415.462.637.157.48.369.388.508.443.3.591.2.48.369.415.48.646.1.526.3.425.471.554.249.443.443.637.1.489.369.6.166.406.536h.665l.554.24.452.462.637.065.48.416h.646l.489.4.554.249.545.259.591.157.517.351h.655l.489.434.628.055.619.046.545.277.535.314.591.139.609.065.572.2h.619l.545.323.582.175.591.157.637-.065.582.185.609.055.572.231.628-.055.545.388h.619l.582.222.637-.185.582.222.6.065h1.828l.6.148h1.219l.6.046.6.083.6.185h1.219l.609-.222h.609l.609.148h.609l.609.046.6-.175.609.055h.609l.582-.314.637.259.572-.314h.609l.628.12.563-.342h1.228l.563-.323.646.166.545-.36.637.111.554-.332.637.074.563-.24h.628l.6-.12.508-.462.674.148.5-.48h.628l.619-.065.554-.268.609-.092.517-.36.517-.342.582-.185h.646l.591-.166.443-.517.692.092.48-.416.563-.231.609-.129.545-.277.5-.369.591-.166.545-.277.572-.2.48-.4.572-.222.545-.259.489-.369.452-.434.572-.222.434-.453.526-.3.572-.231.563-.249.369-.545.628-.148.415-.471.471-.388.628-.166.406-.471.508-.332.462-.388.526-.314.351-.536.545-.3.517-.323.342-.536.628-.2.314-.554.471-.379.5-.36.323-.545.655-.194.406-.453.258-.6.415-.443.637-.231.314-.545.314-.536.6-.277.194-.637.572-.3.268-.573.351-.489.609-.286.314-.536.452-.416.36-.489.185-.628.508-.379.148-.637.582-.332.332-.508.12-.656.4-.462.443-.434.24-.573.249-.563.508-.4.369-.489.24-.563.2-.582.369-.489.2-.582.342-.508.212-.573.369-.5.111-.619.268-.545.4-.489.157-.6.157-.591.471-.563-.065-.683.434-.48.065-.619.323-.526.268-.554.175-.582.332-.526v-.656l.258-.554.3-.545-.12-.674.36-.526.074-.61.157-.582.258-.563-.046-.637.388-.526V72.033l.323-.554V70.86l.277-.573.083-.6.138-.591-.222-.646.074-.6.277-.573-.12-.628.166-.591v-.61l.092-.6.2-.591V63.075l.1-.6-.212-.6.268-.6-.268-.61.055-.61.212-.61-.231-.6V57.627l-.129-.6.065-.61v-.61l.065-.619-.258-.591.175-.628-.148-.591-.1-.6-.129-.6-.175-.591-.111-.6V49.758l-.231-.573.1-.637-.342-.554.083-.637-.36-.545.092-.646-.258-.563-.258-.563-.157-.582.055-.646-.332-.536.074-.656-.443-.5-.055-.619-.212-.573-.083-.619-.185-.582-.406-.5-.2-.573-.092-.619-.12-.61-.462-.471-.212-.573-.046-.637-.323-.526-.185-.582-.388-.489-.3-.526-.314-.526-.314-.517-.314-.517-.157-.6-.4-.471-.138-.619-.332-.508-.351-.5-.185-.6-.36-.489-.332-.508-.314-.517-.415-.471-.286-.545-.388-.471-.332-.508-.3-.526-.452-.425-.3-.526-.406-.453-.4-.462-.332-.508-.554-.332-.2-.628-.388-.471-.591-.3L104.5,20.2l-.4-.453-.175-.665-.545-.323-.471-.388-.415-.443-.443-.406-.277-.582-.582-.277-.342-.526-.406-.462-.637-.194-.286-.591-.471-.388-.471-.379-.609-.212-.443-.416-.443-.416-.554-.268-.462-.4-.452-.406-.406-.471-.563-.259-.4-.489-.508-.342-.582-.222L92.7,9.817l-.563-.24-.582-.212-.369-.554-.5-.36-.517-.323-.563-.24-.535-.3-.618-.129-.5-.36-.48-.388L86.905,6.5l-.5-.36-.554-.129-.609-.139-.526-.332-.582-.185-.517-.332-.535-.231-.609-.111-.563-.222L81.366,4.2l-.582-.166-.471-.471-.563-.222-.572-.2-.572-.194L78,2.854h-.646l-.545-.286-.591-.148-.572-.2-.591-.148-.609-.055-.591-.388-.591-.139-.591-.129h-.628l-.572-.212H70.242l-.6-.111L69.1.739h-.618l-.6-.074L67.3.425h-.609l-.637.249L65.479.3,64.86.443l-.6-.2L63.7.286,63.051.175,62.451,0l-.6.166h-.609L60.623,0Zm0,114.634-.609-.065-.609-.065-.6-.212-.619.185-.609-.046-.609-.129-.6-.083-.6-.111-.628.12-.582-.277H53.33l-.628.065-.582-.24h-.609l-.591-.185-.665.249-.582-.212-.582-.222-.609-.083h-.619l-.609-.1-.545-.351-.554-.342H45.52l-.591-.148-.526-.36h-.646l-.591-.157-.545-.3-.628-.055-.5-.406-.591-.148-.582-.185-.628-.065-.452-.508-.554-.249-.572-.2h-.655l-.471-.443-.646-.055-.452-.471-.628-.129-.434-.5-.545-.268-.665-.055-.452-.453-.508-.342-.619-.148-.48-.379-.5-.36-.535-.286-.48-.369-.6-.194L29,105.2l-.369-.536-.563-.259-.6-.222-.314-.591-.545-.286-.535-.3-.378-.508-.462-.4-.6-.222-.452-.406-.535-.323-.277-.6-.572-.286-.342-.517-.36-.5-.508-.351-.526-.342-.443-.416-.351-.508-.3-.545-.434-.434-.628-.259-.323-.526-.286-.554-.434-.425-.5-.379-.175-.637-.452-.425-.489-.388-.258-.573-.3-.536-.406-.462-.406-.462-.378-.48-.166-.628-.563-.332-.231-.573-.462-.434v-.693l-.332-.508-.277-.545-.388-.48-.286-.536-.314-.526-.4-.554-.2-.582-.212-.573-.452-.462v-.693l-.572-.416v-.683L9.231,80.9l-.222-.554-.222-.573v-.665l-.3-.536-.323-.536-.194-.582-.148-.591L7.561,76.3v-.637l-.092-.61-.314-.545-.268-.563.12-.656-.443-.526v-.628l-.222-.582-.157-.591-.074-.61-.175-.591-.1-.6v-.619l.111-.637-.092-.6-.314-.554.157-.637-.277-.545-.12-.6v-.61l.24-.637-.092-.6-.286-.6V61.265l.1-.619.111-.619-.083-.61-.138-.61.2-.628.138-.6-.286-.628.332-.563-.092-.619v-.61l.222-.591-.222-.637.378-.573v-.619l-.083-.628V51.5l.24-.582V50.3l.157-.591.24-.573L6.3,48.5l.231-.573.249-.573-.055-.646.434-.536v-.646l.231-.545.194-.582.1-.61.286-.545.194-.573v-.646l.24-.563.185-.582.194-.582.277-.591.222-.573.185-.591.462-.462V37.43l.452-.462L10.6,36.4l.222-.573.369-.5.092-.637.277-.545.425-.462.342-.508.138-.619.3-.536.4-.48.351-.5.406-.471.12-.646.462-.425.425-.443.231-.582.517-.379.378-.471.2-.619.462-.416.406-.453.194-.628.572-.323.258-.573.443-.425.351-.508.332-.517.526-.351.378-.48.545-.323.3-.573.517-.351.489-.369.36-.508.434-.425.535-.323.286-.6.526-.323.535-.314.369-.508.563-.277.369-.517.508-.342.517-.332.489-.36.545-.3.489-.36.508-.332.415-.471.489-.369.517-.323.535-.3.628-.139.415-.48.628-.139.5-.351.517-.323.535-.286.535-.286.545-.268.563-.231.508-.351.591-.166.563-.222.545-.286.545-.277.517-.342.609-.111.48-.453.582-.194h.646l.6-.222.526-.342.6-.139h.637l.48-.443.582-.175h.637l.628-.175h.628l.535-.36h.619l.572-.259.655.157.545-.379.6-.139.637.12.572-.3.628.092.572-.3.628.092.609-.046h.609l.572-.185.619.1.554-.314.619.212.6-.185.628-.166.609.083.609.129h.609l.609-.1.609.055.646-.175.6.2.609.065.637.092.619-.148.6.111h.628l.591.185.591-.148.563.369h.619l.582.222.646-.175.572.24.6.1h.609l.609.092.609.083.572.231.6.111.609.083.582.175.572.222.535.332.582.175.591.166h.646l.582.194.517.36.582.194.545.3.619.092.526.314.554.259h.665l.425.536H83.1l.526.323.462.443h.665l.508.351.489.379.646.092.4.536.655.083.406.508.637.129.406.5.572.231.425.462.489.36.683.083.314.61.692.083.388.5.415.462.535.3.415.462.582.24.572.268.452.416.323.563.415.443.665.175.222.665.572.277.434.434.351.517.443.416.517.351.342.517.425.443.351.5.5.369.342.508.369.489.452.416.508.379.3.545.508.379.351.5.268.563.286.545.554.351.157.628.471.425.378.48.138.637.443.443.286.536.342.508.24.563.48.434.194.591.212.582.452.453.046.665.462.453.24.563.194.582.415.48v.683l.277.545.452.471.24.563-.055.674.351.517.332.526v.665l.462.489v.646l.342.526.148.619-.111.665.249.563.065.61.157.582.369.536v.637l.388.536-.148.656.129.591.379.554V51.5l.2.582.166.591-.148.637v.61l.138.6.175.6v.619l.138.6v.61l.111.61-.083.619.185.61v.61l-.157.61.1.61.083.61-.286.6.3.619-.249.6.12.619-.157.6-.111.6v.61l-.212.591.166.628-.148.591-.2.582.212.656-.3.573v.619l-.12.6-.222.582.065.637-.388.545v1.247l-.351.545-.065.619-.332.545-.157.591-.222.573.111.674-.185.582-.388.508V78.6l-.3.536-.166.591-.258.554-.378.508-.212.573-.2.582-.314.526-.055.646-.489.443v.674l-.323.517-.471.443-.083.646-.277.545-.351.5-.212.582-.388.48-.36.5-.415.462-.148.628-.535.379-.258.554-.314.526-.3.526-.277.554-.342.508-.406.462-.452.425-.277.563-.545.342-.212.61-.554.332-.222.619-.582.3-.323.536-.332.526-.425.443-.582.286-.3.554-.609.249-.24.628-.535.323-.434.434-.535.323-.462.388-.323.554-.471.388-.563.286-.545.3-.323.582-.5.351-.609.2-.434.434-.535.3-.406.471-.48.379-.48.379-.48.379-.489.36-.6.2-.452.425-.619.157-.508.332-.508.342-.609.166-.508.332-.535.3-.545.268-.526.314-.582.2-.526.3-.563.231-.582.185-.517.342-.591.166-.545.277-.554.249-.591.166-.5.416h-.655l-.572.194-.5.434-.572.212-.831.166-.674-.139-.535.332-.572.222-.6.129-.582.175-.646-.074-.554.332h-.628l-.609.055-.545.388-.646-.148-.6.111-.6.111-.572.314H66.116l-.6.194H64.3l-.619-.092-.6.157-.619-.148h-.609l-.609.166-.609-.083Z" fill="#fff"/>
  </g>
</svg>
