<svg xmlns="http://www.w3.org/2000/svg" xmlns:xlink="http://www.w3.org/1999/xlink" width="182.099" height="74.309" viewBox="0 0 182.099 74.309"><defs><clipPath id="a"><path d="M37.155,0a37.155,37.155,0,0,0,0,74.309H144.943a37.155,37.155,0,1,0,0-74.309Z" fill="none"/></clipPath><linearGradient id="b" y1="1" x2="0.007" y2="1" gradientUnits="objectBoundingBox"><stop offset="0" stop-color="#867552"/><stop offset="1" stop-color="#b6ab96"/></linearGradient><clipPath id="c"><rect width="182.099" height="74.309" fill="rgba(0,0,0,0)"/></clipPath></defs><g transform="translate(-750 -4507.999)"><g transform="translate(750 4507.999)"><g clip-path="url(#a)"><rect width="182.099" height="74.309" transform="translate(0 0)" fill="url(#b)"/></g></g><g transform="translate(750 4507.999)"><g clip-path="url(#c)"><path d="M24.352,23.7a14.554,14.554,0,0,0,2.519-.215,7.883,7.883,0,0,0,2.214-.717,5.685,5.685,0,0,0,1.693-1.29A3.969,3.969,0,0,0,31.7,19.54h3.353V44.717H30.544V26.953H24.352Z" transform="translate(7.633 6.124)" fill="#fff"/><path d="M24.352,23.7a14.554,14.554,0,0,0,2.519-.215,7.883,7.883,0,0,0,2.214-.717,5.685,5.685,0,0,0,1.693-1.29A3.969,3.969,0,0,0,31.7,19.54h3.353V44.717H30.544V26.953H24.352Z" transform="translate(7.633 6.124)" fill="rgba(0,0,0,0)"/><path d="M44.825,38.457a3.937,3.937,0,0,0,1.1,2.513,3.466,3.466,0,0,0,2.573.957,3.821,3.821,0,0,0,2.645-.883,5.9,5.9,0,0,0,1.53-2.2,11.363,11.363,0,0,0,.739-2.813q.193-1.5.3-2.76l-.081-.071a5.609,5.609,0,0,1-2.264,2.258,6.546,6.546,0,0,1-3.165.778,8.334,8.334,0,0,1-3.256-.612,7.258,7.258,0,0,1-2.5-1.706,7.657,7.657,0,0,1-1.619-2.661,10.1,10.1,0,0,1-.574-3.506,9.714,9.714,0,0,1,.577-3.4,7.793,7.793,0,0,1,1.689-2.732,7.668,7.668,0,0,1,2.737-1.816,9.816,9.816,0,0,1,3.668-.646,8.49,8.49,0,0,1,4.391,1.026,7.367,7.367,0,0,1,2.719,2.8,12.873,12.873,0,0,1,1.383,4.19,31.693,31.693,0,0,1,.4,5.142,22.2,22.2,0,0,1-.485,4.566,13.78,13.78,0,0,1-1.6,4.19,9.2,9.2,0,0,1-2.933,3.075,8.024,8.024,0,0,1-4.48,1.186,7.944,7.944,0,0,1-2.841-.5,7.635,7.635,0,0,1-2.359-1.4,7.228,7.228,0,0,1-1.672-2.162,6.725,6.725,0,0,1-.72-2.809ZM48.74,22.569a4.3,4.3,0,0,0-1.943.412,3.845,3.845,0,0,0-1.366,1.132,5.062,5.062,0,0,0-.808,1.652,6.933,6.933,0,0,0-.271,1.939,7.286,7.286,0,0,0,.271,1.994,5.074,5.074,0,0,0,.808,1.669A4.223,4.223,0,0,0,46.8,32.535a4.03,4.03,0,0,0,1.943.449,4.471,4.471,0,0,0,2.015-.431,3.982,3.982,0,0,0,1.419-1.168,5.361,5.361,0,0,0,.846-1.688,6.912,6.912,0,0,0,.289-1.994,6.579,6.579,0,0,0-.289-1.939,4.943,4.943,0,0,0-.846-1.635A4.151,4.151,0,0,0,50.755,23a4.454,4.454,0,0,0-2.015-.431" transform="translate(12.617 6.005)" fill="#fff"/><path d="M44.825,38.457a3.937,3.937,0,0,0,1.1,2.513,3.466,3.466,0,0,0,2.573.957,3.821,3.821,0,0,0,2.645-.883,5.9,5.9,0,0,0,1.53-2.2,11.363,11.363,0,0,0,.739-2.813q.193-1.5.3-2.76l-.081-.071a5.609,5.609,0,0,1-2.264,2.258,6.546,6.546,0,0,1-3.165.778,8.334,8.334,0,0,1-3.256-.612,7.258,7.258,0,0,1-2.5-1.706,7.657,7.657,0,0,1-1.619-2.661,10.1,10.1,0,0,1-.574-3.506,9.714,9.714,0,0,1,.577-3.4,7.793,7.793,0,0,1,1.689-2.732,7.668,7.668,0,0,1,2.737-1.816,9.816,9.816,0,0,1,3.668-.646,8.49,8.49,0,0,1,4.391,1.026,7.367,7.367,0,0,1,2.719,2.8,12.873,12.873,0,0,1,1.383,4.19,31.693,31.693,0,0,1,.4,5.142,22.2,22.2,0,0,1-.485,4.566,13.78,13.78,0,0,1-1.6,4.19,9.2,9.2,0,0,1-2.933,3.075,8.024,8.024,0,0,1-4.48,1.186,7.944,7.944,0,0,1-2.841-.5,7.635,7.635,0,0,1-2.359-1.4,7.228,7.228,0,0,1-1.672-2.162,6.725,6.725,0,0,1-.72-2.809ZM48.74,22.569a4.3,4.3,0,0,0-1.943.412,3.845,3.845,0,0,0-1.366,1.132,5.062,5.062,0,0,0-.808,1.652,6.933,6.933,0,0,0-.271,1.939,7.286,7.286,0,0,0,.271,1.994,5.074,5.074,0,0,0,.808,1.669A4.223,4.223,0,0,0,46.8,32.535a4.03,4.03,0,0,0,1.943.449,4.471,4.471,0,0,0,2.015-.431,3.982,3.982,0,0,0,1.419-1.168,5.361,5.361,0,0,0,.846-1.688,6.912,6.912,0,0,0,.289-1.994,6.579,6.579,0,0,0-.289-1.939,4.943,4.943,0,0,0-.846-1.635A4.151,4.151,0,0,0,50.755,23,4.454,4.454,0,0,0,48.74,22.569Z" transform="translate(12.617 6.005)" fill="rgba(0,0,0,0)"/><path d="M56.722,19.54H73.953v3.418a44.6,44.6,0,0,0-3.6,4.621,33.776,33.776,0,0,0-4.785,10.737,37.317,37.317,0,0,0-1.007,6.4H60.054a29.915,29.915,0,0,1,1.027-5.9,36.3,36.3,0,0,1,2.091-5.65,38.96,38.96,0,0,1,2.975-5.254A44.729,44.729,0,0,1,69.789,23.2H56.722Z" transform="translate(17.779 6.124)" fill="#fff"/><path d="M56.722,19.54H73.953v3.418a44.6,44.6,0,0,0-3.6,4.621,33.776,33.776,0,0,0-4.785,10.737,37.317,37.317,0,0,0-1.007,6.4H60.054a29.915,29.915,0,0,1,1.027-5.9,36.3,36.3,0,0,1,2.091-5.65,38.96,38.96,0,0,1,2.975-5.254A44.729,44.729,0,0,1,69.789,23.2H56.722Z" transform="translate(17.779 6.124)" fill="rgba(0,0,0,0)"/><path d="M81.882,19.159a7.336,7.336,0,0,1,4.412,1.24,8.547,8.547,0,0,1,2.668,3.165,14.092,14.092,0,0,1,1.3,4.224,29.172,29.172,0,0,1,0,8.918,14.1,14.1,0,0,1-1.3,4.225A8.533,8.533,0,0,1,86.293,44.1a8.464,8.464,0,0,1-8.825,0A8.533,8.533,0,0,1,74.8,40.932a14.1,14.1,0,0,1-1.3-4.225,29.172,29.172,0,0,1,0-8.918,14.09,14.09,0,0,1,1.3-4.224A8.547,8.547,0,0,1,77.468,20.4a7.342,7.342,0,0,1,4.413-1.24m0,22.768a3.306,3.306,0,0,0,2.237-.774,5.248,5.248,0,0,0,1.425-2.087,12.517,12.517,0,0,0,.739-3.077,30.949,30.949,0,0,0,.215-3.741,30.541,30.541,0,0,0-.215-3.725,12.8,12.8,0,0,0-.739-3.077,5.23,5.23,0,0,0-1.425-2.1,3.647,3.647,0,0,0-4.492,0,5.321,5.321,0,0,0-1.407,2.1,12.74,12.74,0,0,0-.739,3.077,30.271,30.271,0,0,0-.217,3.725,30.675,30.675,0,0,0,.217,3.741,12.458,12.458,0,0,0,.739,3.077,5.34,5.34,0,0,0,1.407,2.087,3.292,3.292,0,0,0,2.255.774" transform="translate(22.932 6.005)" fill="#fff"/><path d="M81.882,19.159a7.336,7.336,0,0,1,4.412,1.24,8.547,8.547,0,0,1,2.668,3.165,14.092,14.092,0,0,1,1.3,4.224,29.172,29.172,0,0,1,0,8.918,14.1,14.1,0,0,1-1.3,4.225A8.533,8.533,0,0,1,86.293,44.1a8.464,8.464,0,0,1-8.825,0A8.533,8.533,0,0,1,74.8,40.932a14.1,14.1,0,0,1-1.3-4.225,29.172,29.172,0,0,1,0-8.918,14.09,14.09,0,0,1,1.3-4.224A8.547,8.547,0,0,1,77.468,20.4,7.342,7.342,0,0,1,81.882,19.159Zm0,22.768a3.306,3.306,0,0,0,2.237-.774,5.248,5.248,0,0,0,1.425-2.087,12.517,12.517,0,0,0,.739-3.077,30.949,30.949,0,0,0,.215-3.741,30.541,30.541,0,0,0-.215-3.725,12.8,12.8,0,0,0-.739-3.077,5.23,5.23,0,0,0-1.425-2.1,3.647,3.647,0,0,0-4.492,0,5.321,5.321,0,0,0-1.407,2.1,12.74,12.74,0,0,0-.739,3.077,30.271,30.271,0,0,0-.217,3.725,30.675,30.675,0,0,0,.217,3.741,12.458,12.458,0,0,0,.739,3.077,5.34,5.34,0,0,0,1.407,2.087A3.292,3.292,0,0,0,81.882,41.927Z" transform="translate(22.932 6.005)" fill="rgba(0,0,0,0)"/><path d="M97.432,27.841h10.416v1.721h-5.539v2.343H107.3v1.689h-4.992v3.117h6.2v1.73h-6.2V42.3h-1.8V38.441H92.353v-1.73H94.8V31.905h5.707V29.562h-4a14.675,14.675,0,0,1-3.144,3.528l-1.219-1.528a10.229,10.229,0,0,0,3.825-5.5l1.966.481a13.567,13.567,0,0,1-.5,1.3m3.076,5.753H96.641v3.117h3.867Z" transform="translate(28.881 8.168)" fill="#fff"/><path d="M97.432,27.841h10.416v1.721h-5.539v2.343H107.3v1.689h-4.992v3.117h6.2v1.73h-6.2V42.3h-1.8V38.441H92.353v-1.73H94.8V31.905h5.707V29.562h-4a14.675,14.675,0,0,1-3.144,3.528l-1.219-1.528a10.229,10.229,0,0,0,3.825-5.5l1.966.481A13.567,13.567,0,0,1,97.432,27.841Zm3.076,5.753H96.641v3.117h3.867Z" transform="translate(28.881 8.168)" fill="rgba(0,0,0,0)"/><path d="M107.8,33.99a14.989,14.989,0,0,1-1.185,1.445l-.747-2.183a11.586,11.586,0,0,0,1.966-3.285,20.341,20.341,0,0,0,1.052-3.83l1.873.286a24.016,24.016,0,0,1-1.185,4.216V42.273H107.8Zm6.734-3.1q-.209-1.8-.361-4.753H116.1q.108,2.51.319,4.619l5.775-.411.151,1.7-5.708.437a38.28,38.28,0,0,0,1,4.358,6.478,6.478,0,0,0,1.731,3.033.767.767,0,0,0,.479.227.534.534,0,0,0,.5-.336,10.22,10.22,0,0,0,.546-2.234l1.7.873a8.908,8.908,0,0,1-1.1,3.234,1.559,1.559,0,0,1-1.345.688,3.109,3.109,0,0,1-2.388-1.267,9.759,9.759,0,0,1-1.916-3.578,43.32,43.32,0,0,1-1.1-4.856l-3.783.286-.177-1.765Zm3.742-4.652a13.938,13.938,0,0,1,3.118,2.561l-1.244,1.369a16.158,16.158,0,0,0-2.959-2.644Z" transform="translate(33.181 8.192)" fill="#fff"/><path d="M107.8,33.99a14.989,14.989,0,0,1-1.185,1.445l-.747-2.183a11.586,11.586,0,0,0,1.966-3.285,20.341,20.341,0,0,0,1.052-3.83l1.873.286a24.016,24.016,0,0,1-1.185,4.216V42.273H107.8Zm6.734-3.1q-.209-1.8-.361-4.753H116.1q.108,2.51.319,4.619l5.775-.411.151,1.7-5.708.437a38.28,38.28,0,0,0,1,4.358,6.478,6.478,0,0,0,1.731,3.033.767.767,0,0,0,.479.227.534.534,0,0,0,.5-.336,10.22,10.22,0,0,0,.546-2.234l1.7.873a8.908,8.908,0,0,1-1.1,3.234,1.559,1.559,0,0,1-1.345.688,3.109,3.109,0,0,1-2.388-1.267,9.759,9.759,0,0,1-1.916-3.578,43.32,43.32,0,0,1-1.1-4.856l-3.783.286-.177-1.765Zm3.742-4.652a13.938,13.938,0,0,1,3.118,2.561l-1.244,1.369a16.158,16.158,0,0,0-2.959-2.644Z" transform="translate(33.181 8.192)" fill="rgba(0,0,0,0)"/></g></g></g></svg>