<svg xmlns="http://www.w3.org/2000/svg" xmlns:xlink="http://www.w3.org/1999/xlink" width="181.599" height="74.105" viewBox="0 0 181.599 74.105"><defs><clipPath id="a"><path d="M37.052,0a37.052,37.052,0,0,0,0,74.1H144.545a37.052,37.052,0,1,0,0-74.1Z" fill="none"/></clipPath><linearGradient id="b" y1="1" x2="0.007" y2="1" gradientUnits="objectBoundingBox"><stop offset="0" stop-color="#867552"/><stop offset="1" stop-color="#b6ab96"/></linearGradient><clipPath id="c"><rect width="181.599" height="74.105" fill="none"/></clipPath></defs><g clip-path="url(#a)"><rect width="181.599" height="74.105" transform="translate(0 0)" fill="url(#b)"/></g><g transform="translate(0 0)"><g clip-path="url(#c)"><path d="M24.353,23.688a14.514,14.514,0,0,0,2.512-.215,7.9,7.9,0,0,0,2.208-.714,5.7,5.7,0,0,0,1.688-1.288,3.959,3.959,0,0,0,.917-1.931h3.344V44.648h-4.5V26.932H24.353Z" transform="translate(7.545 6.054)" fill="#fff"/><path d="M44.812,38.4a3.938,3.938,0,0,0,1.1,2.507,3.456,3.456,0,0,0,2.566.954,3.806,3.806,0,0,0,2.638-.88,5.868,5.868,0,0,0,1.525-2.194,11.208,11.208,0,0,0,.737-2.8q.195-1.493.3-2.753l-.081-.071a5.6,5.6,0,0,1-2.259,2.252,6.528,6.528,0,0,1-3.157.775,8.3,8.3,0,0,1-3.246-.61,7.255,7.255,0,0,1-2.493-1.7,7.614,7.614,0,0,1-1.614-2.654,10.068,10.068,0,0,1-.574-3.5,9.718,9.718,0,0,1,.575-3.389,7.774,7.774,0,0,1,1.686-2.724,7.638,7.638,0,0,1,2.728-1.81,9.8,9.8,0,0,1,3.66-.646,8.472,8.472,0,0,1,4.377,1.023,7.337,7.337,0,0,1,2.711,2.8,12.838,12.838,0,0,1,1.381,4.178,31.634,31.634,0,0,1,.394,5.128,22.037,22.037,0,0,1-.483,4.553,13.708,13.708,0,0,1-1.6,4.178,9.19,9.19,0,0,1-2.924,3.068,8.018,8.018,0,0,1-4.468,1.181,7.929,7.929,0,0,1-2.834-.5,7.652,7.652,0,0,1-2.351-1.4,7.233,7.233,0,0,1-1.669-2.156,6.715,6.715,0,0,1-.716-2.8Zm3.906-15.845a4.282,4.282,0,0,0-1.937.411A3.826,3.826,0,0,0,45.419,24.1a5.063,5.063,0,0,0-.807,1.648,6.962,6.962,0,0,0-.269,1.933,7.316,7.316,0,0,0,.269,1.988,5.037,5.037,0,0,0,.807,1.665A4.184,4.184,0,0,0,46.781,32.5a4.015,4.015,0,0,0,1.937.448,4.453,4.453,0,0,0,2.008-.43,3.973,3.973,0,0,0,1.416-1.164,5.333,5.333,0,0,0,.844-1.683,6.892,6.892,0,0,0,.287-1.988,6.56,6.56,0,0,0-.287-1.933,4.955,4.955,0,0,0-.844-1.631,4.157,4.157,0,0,0-1.416-1.128,4.436,4.436,0,0,0-2.008-.43" transform="translate(12.472 5.936)" fill="#fff"/><path d="M65.48,45.264a11.274,11.274,0,0,1-3.537-.537,8.144,8.144,0,0,1-2.817-1.559,7.108,7.108,0,0,1-1.848-2.491,7.9,7.9,0,0,1-.664-3.3A6.359,6.359,0,0,1,57.848,33.4,5.889,5.889,0,0,1,61.2,31.25v-.072a5.343,5.343,0,0,1-2.637-1.991,5.5,5.5,0,0,1-.917-3.176,6.414,6.414,0,0,1,2.026-5.04,8.413,8.413,0,0,1,5.795-1.813,8.412,8.412,0,0,1,5.793,1.813,6.414,6.414,0,0,1,2.026,5.04,5.509,5.509,0,0,1-.916,3.176,5.356,5.356,0,0,1-2.639,1.991v.072A5.975,5.975,0,0,1,73.1,33.4a6.311,6.311,0,0,1,1.248,3.981,7.923,7.923,0,0,1-.664,3.3,7.108,7.108,0,0,1-1.848,2.491,8.156,8.156,0,0,1-2.817,1.559,11.272,11.272,0,0,1-3.535.537m0-3.243a4.934,4.934,0,0,0,3.411-1.216,4.353,4.353,0,0,0,1.365-3.432,4.018,4.018,0,0,0-1.365-3.235,5.586,5.586,0,0,0-6.824,0A4.021,4.021,0,0,0,60.7,37.374a4.357,4.357,0,0,0,1.364,3.432,4.946,4.946,0,0,0,3.413,1.216M65.465,22.4a4.166,4.166,0,0,0-2.8.984,3.551,3.551,0,0,0-1.149,2.848,3.4,3.4,0,0,0,1.113,2.738,4.716,4.716,0,0,0,5.673,0,3.4,3.4,0,0,0,1.113-2.738,3.547,3.547,0,0,0-1.149-2.848,4.165,4.165,0,0,0-2.8-.984" transform="translate(17.541 5.936)" fill="#fff"/><path d="M81.859,19.159a7.318,7.318,0,0,1,4.4,1.236,8.528,8.528,0,0,1,2.66,3.158,14.09,14.09,0,0,1,1.293,4.212,29.084,29.084,0,0,1,0,8.892,14.1,14.1,0,0,1-1.293,4.214,8.524,8.524,0,0,1-2.66,3.157,8.448,8.448,0,0,1-8.8,0,8.524,8.524,0,0,1-2.66-3.157A14.1,14.1,0,0,1,73.5,36.658a29.194,29.194,0,0,1,0-8.892A14.09,14.09,0,0,1,74.8,23.553a8.528,8.528,0,0,1,2.66-3.158,7.32,7.32,0,0,1,4.4-1.236m0,22.706a3.3,3.3,0,0,0,2.229-.77,5.225,5.225,0,0,0,1.421-2.083,12.41,12.41,0,0,0,.739-3.068,30.9,30.9,0,0,0,.215-3.732,30.472,30.472,0,0,0-.215-3.715,12.692,12.692,0,0,0-.739-3.068,5.207,5.207,0,0,0-1.421-2.1,3.635,3.635,0,0,0-4.478,0,5.312,5.312,0,0,0-1.4,2.1,12.692,12.692,0,0,0-.739,3.068,30.475,30.475,0,0,0-.215,3.715,30.9,30.9,0,0,0,.215,3.732,12.41,12.41,0,0,0,.739,3.068,5.33,5.33,0,0,0,1.4,2.083,3.286,3.286,0,0,0,2.249.77" transform="translate(22.668 5.936)" fill="#fff"/><path d="M97.417,27.836h10.388v1.716H102.28V31.89h4.98v1.684h-4.98v3.107h6.188v1.725H102.28v3.852h-1.794V38.406H92.353V36.681h2.44V31.89h5.693V29.552H96.495a14.634,14.634,0,0,1-3.136,3.518l-1.214-1.523a10.21,10.21,0,0,0,3.814-5.487l1.961.477a13.475,13.475,0,0,1-.5,1.3m3.069,5.738H96.63v3.107h3.856Z" transform="translate(28.549 8.074)" fill="#fff"/><path d="M107.791,33.968a14.962,14.962,0,0,1-1.181,1.442l-.745-2.178a11.536,11.536,0,0,0,1.961-3.276,20.258,20.258,0,0,0,1.049-3.819l1.868.286a23.949,23.949,0,0,1-1.181,4.2v11.6h-1.77Zm6.715-3.091q-.208-1.8-.36-4.74h1.929q.108,2.505.318,4.607l5.759-.41.151,1.7-5.693.436a38.267,38.267,0,0,0,1,4.347,6.474,6.474,0,0,0,1.726,3.024.763.763,0,0,0,.478.225.533.533,0,0,0,.5-.335,10.169,10.169,0,0,0,.545-2.228l1.694.872a8.884,8.884,0,0,1-1.1,3.223,1.556,1.556,0,0,1-1.341.688,3.1,3.1,0,0,1-2.381-1.265,9.721,9.721,0,0,1-1.911-3.568,43.2,43.2,0,0,1-1.1-4.842l-3.772.286-.177-1.759Zm3.732-4.639a13.971,13.971,0,0,1,3.11,2.554l-1.24,1.366a16.123,16.123,0,0,0-2.951-2.638Z" transform="translate(32.8 8.098)" fill="#fff"/></g></g></svg>