<svg xmlns="http://www.w3.org/2000/svg" xmlns:xlink="http://www.w3.org/1999/xlink" width="181.348" height="74.003" viewBox="0 0 181.348 74.003"><defs><clipPath id="a"><path d="M37,0a37,37,0,0,0,0,74H144.346a37,37,0,1,0,0-74Z" fill="none"/></clipPath><linearGradient id="b" y1="1" x2="0.007" y2="1" gradientUnits="objectBoundingBox"><stop offset="0" stop-color="#867552"/><stop offset="1" stop-color="#b6ab96"/></linearGradient><clipPath id="c"><rect width="181.348" height="74.003" fill="none"/></clipPath></defs><g clip-path="url(#a)"><rect width="181.348" height="74.003" transform="translate(0 0)" fill="url(#b)"/></g><g transform="translate(0 0)"><g clip-path="url(#c)"><path d="M47.965,44.731H30.849a10.228,10.228,0,0,1,1.5-5.445,13.744,13.744,0,0,1,4.009-4.05q1.216-.895,2.54-1.737a20.164,20.164,0,0,0,2.434-1.809,9.657,9.657,0,0,0,1.825-2.1,4.965,4.965,0,0,0,.751-2.6,7.109,7.109,0,0,0-.161-1.449,3.84,3.84,0,0,0-.625-1.434A3.68,3.68,0,0,0,41.836,23a4.457,4.457,0,0,0-2.144-.447,3.872,3.872,0,0,0-2.021.483,3.614,3.614,0,0,0-1.288,1.326,6.585,6.585,0,0,0-.714,1.987,14.3,14.3,0,0,0-.268,2.472H31.316a12.821,12.821,0,0,1,.556-3.851,8.491,8.491,0,0,1,1.664-3.061,7.844,7.844,0,0,1,2.7-2.018,8.773,8.773,0,0,1,3.7-.734,8.715,8.715,0,0,1,3.83.751,7.382,7.382,0,0,1,2.487,1.9A6.936,6.936,0,0,1,47.6,24.3a9.128,9.128,0,0,1,.392,2.561,7.615,7.615,0,0,1-.463,2.723,8.82,8.82,0,0,1-1.25,2.239,12.759,12.759,0,0,1-1.787,1.881q-1,.859-2.073,1.613t-2.144,1.432q-1.073.683-1.984,1.362a11.611,11.611,0,0,0-1.588,1.415,4.024,4.024,0,0,0-.93,1.559H47.965Z" transform="translate(9.502 5.901)" fill="#fff"/><path d="M55.867,19.159a7.3,7.3,0,0,1,4.394,1.235,8.512,8.512,0,0,1,2.657,3.152,14.071,14.071,0,0,1,1.291,4.207,29.044,29.044,0,0,1,0,8.88,14.056,14.056,0,0,1-1.291,4.208,8.491,8.491,0,0,1-2.657,3.152,7.308,7.308,0,0,1-4.394,1.236,7.31,7.31,0,0,1-4.395-1.236,8.491,8.491,0,0,1-2.657-3.152,14.056,14.056,0,0,1-1.291-4.208,29.154,29.154,0,0,1,0-8.88,14.071,14.071,0,0,1,1.291-4.207,8.512,8.512,0,0,1,2.657-3.152,7.3,7.3,0,0,1,4.395-1.235m0,22.675a3.3,3.3,0,0,0,2.226-.77,5.213,5.213,0,0,0,1.419-2.078,12.419,12.419,0,0,0,.738-3.065,30.827,30.827,0,0,0,.215-3.727,30.446,30.446,0,0,0-.215-3.71,12.69,12.69,0,0,0-.738-3.063,5.209,5.209,0,0,0-1.419-2.1,3.635,3.635,0,0,0-4.472,0,5.314,5.314,0,0,0-1.4,2.1,12.69,12.69,0,0,0-.738,3.063,30.445,30.445,0,0,0-.215,3.71,30.826,30.826,0,0,0,.215,3.727,12.419,12.419,0,0,0,.738,3.065,5.318,5.318,0,0,0,1.4,2.078,3.282,3.282,0,0,0,2.246.77" transform="translate(14.534 5.901)" fill="#fff"/><path d="M80.827,44.731H63.711a10.228,10.228,0,0,1,1.5-5.445,13.744,13.744,0,0,1,4.009-4.05q1.216-.895,2.54-1.737A20.163,20.163,0,0,0,74.2,31.69a9.657,9.657,0,0,0,1.825-2.1,4.965,4.965,0,0,0,.751-2.6,7.109,7.109,0,0,0-.161-1.449,3.839,3.839,0,0,0-.625-1.434A3.68,3.68,0,0,0,74.7,23a4.457,4.457,0,0,0-2.144-.447,3.872,3.872,0,0,0-2.021.483,3.614,3.614,0,0,0-1.288,1.326,6.585,6.585,0,0,0-.714,1.987,14.294,14.294,0,0,0-.268,2.472H64.178a12.822,12.822,0,0,1,.556-3.851A8.491,8.491,0,0,1,66.4,21.911a7.844,7.844,0,0,1,2.7-2.018,9.929,9.929,0,0,1,7.534.017,7.382,7.382,0,0,1,2.487,1.9A6.935,6.935,0,0,1,80.464,24.3a9.128,9.128,0,0,1,.392,2.561,7.615,7.615,0,0,1-.463,2.723,8.82,8.82,0,0,1-1.25,2.239,12.759,12.759,0,0,1-1.787,1.881q-1,.859-2.073,1.613t-2.144,1.432q-1.073.683-1.984,1.362a11.611,11.611,0,0,0-1.588,1.415,4.024,4.024,0,0,0-.93,1.559H80.827Z" transform="translate(19.625 5.901)" fill="#fff"/><path d="M97.584,38.666H94.358v5.948H90.492V38.666H79.736V34.619L90.492,19.54h3.867V35.426h3.226Zm-14.693-3.24h7.6V24.393H90.42Z" transform="translate(24.561 6.019)" fill="#fff"/><path d="M104.293,27.832h10.373v1.716H109.15v2.334h4.972v1.681H109.15v3.1h6.178v1.723H109.15v3.848h-1.792V38.389H99.236V36.667h2.437V31.882h5.685V29.549h-3.986a14.632,14.632,0,0,1-3.131,3.512l-1.214-1.521a10.189,10.189,0,0,0,3.809-5.479l1.959.477a13.651,13.651,0,0,1-.5,1.295m3.065,5.73h-3.851v3.1h3.851Z" transform="translate(30.503 8.027)" fill="#fff"/></g></g></svg>