<svg xmlns="http://www.w3.org/2000/svg" xmlns:xlink="http://www.w3.org/1999/xlink" width="182.099" height="74.309" viewBox="0 0 182.099 74.309"><defs><clipPath id="a"><path d="M37.154,0a37.154,37.154,0,0,0,0,74.309H144.943a37.154,37.154,0,1,0,0-74.309Z" fill="none"/></clipPath><linearGradient id="b" y1="1" x2="0.007" y2="1" gradientUnits="objectBoundingBox"><stop offset="0" stop-color="#867552"/><stop offset="1" stop-color="#b6ab96"/></linearGradient><clipPath id="c"><rect width="182.099" height="74.309" fill="none"/></clipPath></defs><g clip-path="url(#a)"><rect width="182.099" height="74.309" transform="translate(0 0)" fill="url(#b)"/></g><g transform="translate(0 0)"><g clip-path="url(#c)"><path d="M41.151,44.838H23.965a10.278,10.278,0,0,1,1.509-5.469A13.812,13.812,0,0,1,29.5,35.3q1.221-.9,2.551-1.744a20.014,20.014,0,0,0,2.444-1.818,9.625,9.625,0,0,0,1.832-2.1,4.974,4.974,0,0,0,.754-2.61,7.161,7.161,0,0,0-.162-1.457,3.855,3.855,0,0,0-.628-1.44A3.692,3.692,0,0,0,35,23.019a4.474,4.474,0,0,0-2.153-.451,3.888,3.888,0,0,0-2.029.486,3.636,3.636,0,0,0-1.294,1.331,6.626,6.626,0,0,0-.717,2,14.384,14.384,0,0,0-.269,2.484h-4.1A12.868,12.868,0,0,1,24.992,25a8.526,8.526,0,0,1,1.671-3.073A7.9,7.9,0,0,1,29.376,19.9a8.83,8.83,0,0,1,3.72-.737,8.746,8.746,0,0,1,3.846.755,7.4,7.4,0,0,1,2.5,1.908,6.98,6.98,0,0,1,1.349,2.5,9.165,9.165,0,0,1,.394,2.572,7.652,7.652,0,0,1-.465,2.735,8.893,8.893,0,0,1-1.254,2.249,12.815,12.815,0,0,1-1.8,1.887q-1.007.865-2.08,1.621t-2.153,1.438q-1.08.684-1.994,1.367a11.659,11.659,0,0,0-1.595,1.421,4.031,4.031,0,0,0-.934,1.566h12.24Z" transform="translate(7.511 6.005)" fill="#fff"/><path d="M49.02,19.159A7.33,7.33,0,0,1,53.431,20.4,8.537,8.537,0,0,1,56.1,23.566a14.129,14.129,0,0,1,1.3,4.224,29.164,29.164,0,0,1,0,8.917,14.114,14.114,0,0,1-1.3,4.225A8.537,8.537,0,0,1,53.431,44.1a7.339,7.339,0,0,1-4.412,1.241A7.34,7.34,0,0,1,44.606,44.1a8.537,8.537,0,0,1-2.668-3.165,14.114,14.114,0,0,1-1.3-4.225,29.275,29.275,0,0,1,0-8.917,14.129,14.129,0,0,1,1.3-4.224A8.537,8.537,0,0,1,44.606,20.4a7.331,7.331,0,0,1,4.413-1.241m0,22.77a3.312,3.312,0,0,0,2.235-.774,5.244,5.244,0,0,0,1.425-2.087,12.47,12.47,0,0,0,.741-3.077,30.971,30.971,0,0,0,.215-3.742,30.557,30.557,0,0,0-.215-3.725,12.727,12.727,0,0,0-.741-3.076,5.231,5.231,0,0,0-1.425-2.105,3.645,3.645,0,0,0-4.491,0,5.336,5.336,0,0,0-1.407,2.105,12.727,12.727,0,0,0-.741,3.076,30.557,30.557,0,0,0-.215,3.725,30.971,30.971,0,0,0,.215,3.742,12.47,12.47,0,0,0,.741,3.077,5.35,5.35,0,0,0,1.407,2.087,3.3,3.3,0,0,0,2.255.774" transform="translate(12.632 6.005)" fill="#fff"/><path d="M57.215,23.7a14.554,14.554,0,0,0,2.519-.215,7.883,7.883,0,0,0,2.214-.717,5.71,5.71,0,0,0,1.693-1.291,3.97,3.97,0,0,0,.919-1.936h3.353V44.718H63.407V26.954H57.215Z" transform="translate(17.933 6.125)" fill="#fff"/><path d="M81.882,19.159A7.327,7.327,0,0,1,86.293,20.4a8.537,8.537,0,0,1,2.668,3.165,14.092,14.092,0,0,1,1.3,4.224,29.164,29.164,0,0,1,0,8.917,14.077,14.077,0,0,1-1.3,4.225A8.537,8.537,0,0,1,86.293,44.1a8.464,8.464,0,0,1-8.825,0A8.537,8.537,0,0,1,74.8,40.932a14.075,14.075,0,0,1-1.3-4.225,29.164,29.164,0,0,1,0-8.917,14.09,14.09,0,0,1,1.3-4.224A8.537,8.537,0,0,1,77.468,20.4a7.334,7.334,0,0,1,4.413-1.241m0,22.77a3.313,3.313,0,0,0,2.237-.774,5.257,5.257,0,0,0,1.425-2.087,12.531,12.531,0,0,0,.739-3.077,30.971,30.971,0,0,0,.215-3.742,30.557,30.557,0,0,0-.215-3.725,12.791,12.791,0,0,0-.739-3.076,5.244,5.244,0,0,0-1.425-2.105,3.647,3.647,0,0,0-4.492,0,5.336,5.336,0,0,0-1.407,2.105,12.729,12.729,0,0,0-.739,3.076,30.287,30.287,0,0,0-.217,3.725,30.7,30.7,0,0,0,.217,3.742,12.472,12.472,0,0,0,.739,3.077,5.35,5.35,0,0,0,1.407,2.087,3.3,3.3,0,0,0,2.255.774" transform="translate(22.932 6.005)" fill="#fff"/><path d="M97.432,27.841h10.416v1.722h-5.539v2.343H107.3v1.688h-4.992v3.115h6.2V38.44h-6.2V42.3h-1.8V38.44H92.353V36.709H94.8v-4.8h5.707V29.563h-4a14.7,14.7,0,0,1-3.144,3.528l-1.219-1.529a10.231,10.231,0,0,0,3.825-5.5l1.966.478a13.208,13.208,0,0,1-.5,1.3m3.076,5.753H96.641v3.115h3.867Z" transform="translate(28.881 8.168)" fill="#fff"/><path d="M107.8,33.989a15.008,15.008,0,0,1-1.185,1.446l-.747-2.184a11.579,11.579,0,0,0,1.966-3.284,20.37,20.37,0,0,0,1.052-3.83l1.873.285a23.952,23.952,0,0,1-1.185,4.216V42.271H107.8Zm6.734-3.1q-.209-1.807-.361-4.753H116.1q.108,2.51.319,4.618l5.775-.411.151,1.706-5.708.436a38.368,38.368,0,0,0,1,4.359,6.492,6.492,0,0,0,1.731,3.033.767.767,0,0,0,.479.227.536.536,0,0,0,.5-.336,10.242,10.242,0,0,0,.546-2.234l1.7.873a8.927,8.927,0,0,1-1.1,3.234,1.559,1.559,0,0,1-1.345.688,3.111,3.111,0,0,1-2.388-1.269,9.748,9.748,0,0,1-1.916-3.578,43.319,43.319,0,0,1-1.1-4.856l-3.783.286-.177-1.764Zm3.742-4.654a14.009,14.009,0,0,1,3.118,2.561l-1.244,1.37a16.168,16.168,0,0,0-2.959-2.645Z" transform="translate(33.181 8.192)" fill="#fff"/></g></g></svg>