<svg xmlns="http://www.w3.org/2000/svg" xmlns:xlink="http://www.w3.org/1999/xlink" width="181.349" height="74.003" viewBox="0 0 181.349 74.003"><defs><clipPath id="a"><path d="M37,0a37,37,0,0,0,0,74H144.346a37,37,0,1,0,0-74Z" fill="none"/></clipPath><linearGradient id="b" y1="1" x2="0.007" y2="1" gradientUnits="objectBoundingBox"><stop offset="0" stop-color="#867552"/><stop offset="1" stop-color="#b6ab96"/></linearGradient><clipPath id="c"><rect width="181.349" height="74.003" fill="none"/></clipPath></defs><g clip-path="url(#a)"><rect width="181.349" height="74.003" transform="translate(0 0)" fill="url(#b)"/></g><g transform="translate(0 0)"><g clip-path="url(#c)"><path d="M41.081,44.731H23.965a10.228,10.228,0,0,1,1.5-5.445,13.744,13.744,0,0,1,4.009-4.05q1.216-.895,2.54-1.737a20.164,20.164,0,0,0,2.434-1.809,9.657,9.657,0,0,0,1.825-2.1,4.965,4.965,0,0,0,.751-2.6,7.109,7.109,0,0,0-.161-1.449,3.84,3.84,0,0,0-.625-1.434A3.68,3.68,0,0,0,34.952,23a4.457,4.457,0,0,0-2.144-.447,3.872,3.872,0,0,0-2.021.483A3.614,3.614,0,0,0,29.5,24.364a6.586,6.586,0,0,0-.714,1.987,14.3,14.3,0,0,0-.268,2.472H24.432a12.821,12.821,0,0,1,.556-3.851,8.491,8.491,0,0,1,1.664-3.061,7.844,7.844,0,0,1,2.7-2.018,8.773,8.773,0,0,1,3.7-.734,8.715,8.715,0,0,1,3.83.751,7.382,7.382,0,0,1,2.487,1.9A6.936,6.936,0,0,1,40.718,24.3a9.128,9.128,0,0,1,.392,2.561,7.616,7.616,0,0,1-.463,2.723,8.821,8.821,0,0,1-1.25,2.239,12.759,12.759,0,0,1-1.787,1.881q-1,.859-2.073,1.613t-2.144,1.432q-1.073.683-1.984,1.362a11.611,11.611,0,0,0-1.588,1.415,4.024,4.024,0,0,0-.93,1.559h12.19Z" transform="translate(7.382 5.901)" fill="#fff"/><path d="M48.984,19.159a7.3,7.3,0,0,1,4.394,1.235,8.512,8.512,0,0,1,2.657,3.152,14.071,14.071,0,0,1,1.291,4.207,29.044,29.044,0,0,1,0,8.88,14.056,14.056,0,0,1-1.291,4.208,8.491,8.491,0,0,1-2.657,3.152,7.308,7.308,0,0,1-4.394,1.236,7.31,7.31,0,0,1-4.395-1.236,8.491,8.491,0,0,1-2.657-3.152,14.056,14.056,0,0,1-1.291-4.208,29.154,29.154,0,0,1,0-8.88,14.071,14.071,0,0,1,1.291-4.207,8.512,8.512,0,0,1,2.657-3.152,7.3,7.3,0,0,1,4.395-1.235m0,22.675a3.3,3.3,0,0,0,2.226-.77,5.213,5.213,0,0,0,1.419-2.078,12.419,12.419,0,0,0,.738-3.065,30.829,30.829,0,0,0,.215-3.727,30.447,30.447,0,0,0-.215-3.71,12.69,12.69,0,0,0-.738-3.063,5.209,5.209,0,0,0-1.419-2.1,3.635,3.635,0,0,0-4.472,0,5.314,5.314,0,0,0-1.4,2.1,12.69,12.69,0,0,0-.738,3.063,30.446,30.446,0,0,0-.215,3.71A30.827,30.827,0,0,0,44.6,35.92a12.419,12.419,0,0,0,.738,3.065,5.318,5.318,0,0,0,1.4,2.078,3.282,3.282,0,0,0,2.246.77" transform="translate(12.414 5.901)" fill="#fff"/><path d="M65.416,19.159a7.3,7.3,0,0,1,4.394,1.235,8.512,8.512,0,0,1,2.657,3.152,14.071,14.071,0,0,1,1.291,4.207,29.045,29.045,0,0,1,0,8.88,14.056,14.056,0,0,1-1.291,4.208,8.491,8.491,0,0,1-2.657,3.152,8.429,8.429,0,0,1-8.789,0,8.491,8.491,0,0,1-2.657-3.152,14.056,14.056,0,0,1-1.291-4.208,29.155,29.155,0,0,1,0-8.88,14.071,14.071,0,0,1,1.291-4.207,8.512,8.512,0,0,1,2.657-3.152,7.3,7.3,0,0,1,4.395-1.235m0,22.675a3.3,3.3,0,0,0,2.226-.77,5.213,5.213,0,0,0,1.419-2.078A12.418,12.418,0,0,0,69.8,35.92a30.827,30.827,0,0,0,.215-3.727,30.446,30.446,0,0,0-.215-3.71,12.689,12.689,0,0,0-.738-3.063,5.209,5.209,0,0,0-1.419-2.1,3.635,3.635,0,0,0-4.472,0,5.314,5.314,0,0,0-1.4,2.1,12.69,12.69,0,0,0-.738,3.063,30.447,30.447,0,0,0-.215,3.71,30.829,30.829,0,0,0,.215,3.727,12.419,12.419,0,0,0,.738,3.065,5.318,5.318,0,0,0,1.4,2.078,3.282,3.282,0,0,0,2.246.77" transform="translate(17.475 5.901)" fill="#fff"/><path d="M81.846,19.159a7.3,7.3,0,0,1,4.394,1.235A8.512,8.512,0,0,1,88.9,23.546a14.071,14.071,0,0,1,1.291,4.207,29.044,29.044,0,0,1,0,8.88A14.056,14.056,0,0,1,88.9,40.841a8.491,8.491,0,0,1-2.657,3.152,8.429,8.429,0,0,1-8.789,0,8.491,8.491,0,0,1-2.657-3.152A14.056,14.056,0,0,1,73.5,36.633a29.155,29.155,0,0,1,0-8.88,14.071,14.071,0,0,1,1.291-4.207,8.512,8.512,0,0,1,2.657-3.152,7.3,7.3,0,0,1,4.395-1.235m0,22.675a3.3,3.3,0,0,0,2.226-.77,5.213,5.213,0,0,0,1.419-2.078,12.419,12.419,0,0,0,.738-3.065,30.827,30.827,0,0,0,.215-3.727,30.446,30.446,0,0,0-.215-3.71,12.69,12.69,0,0,0-.738-3.063,5.209,5.209,0,0,0-1.419-2.1,3.635,3.635,0,0,0-4.472,0,5.314,5.314,0,0,0-1.4,2.1,12.69,12.69,0,0,0-.738,3.063,30.448,30.448,0,0,0-.215,3.71,30.829,30.829,0,0,0,.215,3.727,12.419,12.419,0,0,0,.738,3.065,5.318,5.318,0,0,0,1.4,2.078,3.282,3.282,0,0,0,2.246.77" transform="translate(22.536 5.901)" fill="#fff"/><path d="M97.409,27.832h10.374v1.716h-5.517v2.334h4.973v1.681h-4.973v3.1h6.179v1.723h-6.179v3.848h-1.792V38.389H92.352V36.667H94.79V31.882h5.683V29.549H96.488a14.6,14.6,0,0,1-3.13,3.512l-1.214-1.521a10.184,10.184,0,0,0,3.809-5.479l1.958.477a13.3,13.3,0,0,1-.5,1.295m3.065,5.73H96.623v3.1h3.851Z" transform="translate(28.383 8.027)" fill="#fff"/><path d="M107.787,33.958a14.929,14.929,0,0,1-1.18,1.439l-.744-2.174a11.538,11.538,0,0,0,1.958-3.271,20.257,20.257,0,0,0,1.048-3.814l1.865.285a23.869,23.869,0,0,1-1.18,4.2V42.2h-1.767Zm6.706-3.087q-.208-1.8-.36-4.734h1.927q.108,2.5.318,4.6l5.751-.408.15,1.7-5.685.436a38.183,38.183,0,0,0,1,4.34,6.465,6.465,0,0,0,1.724,3.02.764.764,0,0,0,.477.226.532.532,0,0,0,.494-.335,10.177,10.177,0,0,0,.544-2.225l1.691.87a8.89,8.89,0,0,1-1.1,3.22,1.553,1.553,0,0,1-1.339.685A3.1,3.1,0,0,1,117.709,41a9.729,9.729,0,0,1-1.908-3.563,43.236,43.236,0,0,1-1.1-4.837l-3.767.286-.177-1.758Zm3.727-4.633a13.913,13.913,0,0,1,3.105,2.549l-1.239,1.364a16.043,16.043,0,0,0-2.947-2.633Z" transform="translate(32.609 8.051)" fill="#fff"/></g></g></svg>