<svg xmlns="http://www.w3.org/2000/svg" xmlns:xlink="http://www.w3.org/1999/xlink" width="182.099" height="74.309" viewBox="0 0 182.099 74.309"><defs><clipPath id="a"><path d="M37.155,0a37.155,37.155,0,0,0,0,74.309H144.943a37.155,37.155,0,1,0,0-74.309Z" fill="none"/></clipPath><linearGradient id="b" y1="1" x2="0.007" y2="1" gradientUnits="objectBoundingBox"><stop offset="0" stop-color="#867552"/><stop offset="1" stop-color="#b6ab96"/></linearGradient><clipPath id="c"><rect width="182.099" height="74.309" fill="none"/></clipPath></defs><g clip-path="url(#a)"><rect width="182.099" height="74.309" transform="translate(0 0)" fill="url(#b)"/></g><g transform="translate(0 0)"><g clip-path="url(#c)"><path d="M24.353,23.7a14.554,14.554,0,0,0,2.519-.215,7.924,7.924,0,0,0,2.214-.716,5.727,5.727,0,0,0,1.693-1.291,3.97,3.97,0,0,0,.919-1.936h3.353V44.717H30.545V26.953H24.353Z" transform="translate(7.633 6.125)" fill="#fff"/><path d="M44.825,38.457a3.949,3.949,0,0,0,1.1,2.514,3.466,3.466,0,0,0,2.573.956,3.817,3.817,0,0,0,2.645-.883,5.884,5.884,0,0,0,1.529-2.2,11.239,11.239,0,0,0,.739-2.812q.2-1.5.3-2.761l-.081-.071a5.612,5.612,0,0,1-2.266,2.258,6.546,6.546,0,0,1-3.165.778,8.323,8.323,0,0,1-3.255-.612,7.275,7.275,0,0,1-2.5-1.706,7.635,7.635,0,0,1-1.618-2.661,10.1,10.1,0,0,1-.575-3.506,9.745,9.745,0,0,1,.577-3.4,7.8,7.8,0,0,1,1.69-2.732,7.659,7.659,0,0,1,2.736-1.815,9.828,9.828,0,0,1,3.67-.648,8.5,8.5,0,0,1,4.39,1.026,7.358,7.358,0,0,1,2.719,2.8,12.874,12.874,0,0,1,1.384,4.19,31.721,31.721,0,0,1,.4,5.142,22.1,22.1,0,0,1-.485,4.566,13.746,13.746,0,0,1-1.6,4.19A9.216,9.216,0,0,1,52.8,44.152a8.041,8.041,0,0,1-4.48,1.185,7.95,7.95,0,0,1-2.842-.5,7.673,7.673,0,0,1-2.358-1.405,7.253,7.253,0,0,1-1.673-2.162,6.733,6.733,0,0,1-.718-2.809Zm3.917-15.889a4.294,4.294,0,0,0-1.943.412,3.836,3.836,0,0,0-1.366,1.132,5.077,5.077,0,0,0-.809,1.652,6.981,6.981,0,0,0-.269,1.939,7.336,7.336,0,0,0,.269,1.994,5.051,5.051,0,0,0,.809,1.669A4.2,4.2,0,0,0,46.8,32.535a4.026,4.026,0,0,0,1.943.449,4.466,4.466,0,0,0,2.014-.431,3.984,3.984,0,0,0,1.42-1.168,5.348,5.348,0,0,0,.846-1.688,6.911,6.911,0,0,0,.288-1.994,6.578,6.578,0,0,0-.288-1.939,4.969,4.969,0,0,0-.846-1.635A4.169,4.169,0,0,0,50.755,23a4.448,4.448,0,0,0-2.014-.431" transform="translate(12.617 6.005)" fill="#fff"/><path d="M61.256,38.457a3.949,3.949,0,0,0,1.1,2.514,3.466,3.466,0,0,0,2.573.956,3.817,3.817,0,0,0,2.645-.883,5.884,5.884,0,0,0,1.529-2.2,11.239,11.239,0,0,0,.739-2.812q.2-1.5.3-2.761l-.081-.071A5.612,5.612,0,0,1,67.8,35.459a6.546,6.546,0,0,1-3.165.778,8.323,8.323,0,0,1-3.255-.612,7.275,7.275,0,0,1-2.5-1.706,7.635,7.635,0,0,1-1.618-2.661,10.1,10.1,0,0,1-.575-3.506,9.745,9.745,0,0,1,.577-3.4,7.8,7.8,0,0,1,1.69-2.732,7.659,7.659,0,0,1,2.736-1.815,9.828,9.828,0,0,1,3.67-.648,8.5,8.5,0,0,1,4.39,1.026,7.357,7.357,0,0,1,2.719,2.8,12.873,12.873,0,0,1,1.384,4.19,31.721,31.721,0,0,1,.4,5.142,22.1,22.1,0,0,1-.485,4.566,13.746,13.746,0,0,1-1.6,4.19,9.216,9.216,0,0,1-2.932,3.076,8.041,8.041,0,0,1-4.48,1.185,7.95,7.95,0,0,1-2.842-.5,7.673,7.673,0,0,1-2.358-1.405,7.253,7.253,0,0,1-1.673-2.162,6.733,6.733,0,0,1-.718-2.809Zm3.917-15.889a4.294,4.294,0,0,0-1.943.412,3.836,3.836,0,0,0-1.366,1.132,5.077,5.077,0,0,0-.809,1.652,6.981,6.981,0,0,0-.269,1.939,7.336,7.336,0,0,0,.269,1.994,5.051,5.051,0,0,0,.809,1.669,4.2,4.2,0,0,0,1.366,1.168,4.026,4.026,0,0,0,1.943.449,4.466,4.466,0,0,0,2.013-.431,3.984,3.984,0,0,0,1.42-1.168,5.347,5.347,0,0,0,.846-1.688,6.911,6.911,0,0,0,.288-1.994,6.578,6.578,0,0,0-.288-1.939,4.969,4.969,0,0,0-.846-1.635A4.169,4.169,0,0,0,67.186,23a4.448,4.448,0,0,0-2.013-.431" transform="translate(17.767 6.005)" fill="#fff"/><path d="M81.883,19.159a7.338,7.338,0,0,1,4.412,1.24,8.551,8.551,0,0,1,2.668,3.167,14.129,14.129,0,0,1,1.3,4.224,29.164,29.164,0,0,1,0,8.917,14.137,14.137,0,0,1-1.3,4.225A8.547,8.547,0,0,1,86.294,44.1a8.471,8.471,0,0,1-8.825,0A8.547,8.547,0,0,1,74.8,40.932a14.137,14.137,0,0,1-1.3-4.225,29.275,29.275,0,0,1,0-8.917,14.129,14.129,0,0,1,1.3-4.224A8.551,8.551,0,0,1,77.469,20.4a7.34,7.34,0,0,1,4.413-1.24m0,22.768a3.311,3.311,0,0,0,2.235-.772,5.239,5.239,0,0,0,1.425-2.088,12.444,12.444,0,0,0,.741-3.076,30.987,30.987,0,0,0,.215-3.742,30.557,30.557,0,0,0-.215-3.725,12.727,12.727,0,0,0-.741-3.076,5.222,5.222,0,0,0-1.425-2.105,3.645,3.645,0,0,0-4.491,0,5.326,5.326,0,0,0-1.407,2.105,12.727,12.727,0,0,0-.741,3.076,30.56,30.56,0,0,0-.215,3.725,30.99,30.99,0,0,0,.215,3.742,12.444,12.444,0,0,0,.741,3.076,5.345,5.345,0,0,0,1.407,2.088,3.3,3.3,0,0,0,2.255.772" transform="translate(22.932 6.005)" fill="#fff"/><path d="M97.432,27.841h10.417v1.721h-5.54v2.344H107.3V33.6h-4.992v3.115h6.2v1.73h-6.2V42.3h-1.8V38.44H92.354v-1.73H94.8v-4.8h5.708V29.562h-4a14.65,14.65,0,0,1-3.144,3.528l-1.219-1.528a10.236,10.236,0,0,0,3.826-5.5l1.966.479a13.606,13.606,0,0,1-.5,1.3m3.077,5.754H96.643v3.115h3.867Z" transform="translate(28.881 8.168)" fill="#fff"/><path d="M107.8,33.99a15.2,15.2,0,0,1-1.185,1.446l-.747-2.184a11.6,11.6,0,0,0,1.966-3.285,20.217,20.217,0,0,0,1.051-3.83l1.874.286a24.13,24.13,0,0,1-1.185,4.216V42.273H107.8Zm6.734-3.1q-.211-1.8-.361-4.753H116.1q.108,2.512.319,4.619l5.774-.411.152,1.7-5.708.437a38.385,38.385,0,0,0,1,4.359,6.514,6.514,0,0,0,1.731,3.033.771.771,0,0,0,.481.226.534.534,0,0,0,.5-.336,10.2,10.2,0,0,0,.546-2.234l1.7.875a8.9,8.9,0,0,1-1.1,3.232,1.557,1.557,0,0,1-1.344.69,3.109,3.109,0,0,1-2.388-1.269,9.748,9.748,0,0,1-1.916-3.578,43.594,43.594,0,0,1-1.1-4.856l-3.781.286-.179-1.764Zm3.742-4.652A14.009,14.009,0,0,1,121.39,28.8l-1.244,1.37a16.211,16.211,0,0,0-2.959-2.645Z" transform="translate(33.182 8.192)" fill="#fff"/></g></g></svg>