<svg xmlns="http://www.w3.org/2000/svg" xmlns:xlink="http://www.w3.org/1999/xlink" width="182.099" height="74.309" viewBox="0 0 182.099 74.309"><defs><clipPath id="a"><path d="M37.155,0a37.155,37.155,0,0,0,0,74.309H144.943a37.155,37.155,0,1,0,0-74.309Z" fill="none"/></clipPath><linearGradient id="b" y1="1" x2="0.007" y2="1" gradientUnits="objectBoundingBox"><stop offset="0" stop-color="#867552"/><stop offset="1" stop-color="#b6ab96"/></linearGradient><clipPath id="c"><rect width="182.099" height="74.309" fill="none"/></clipPath></defs><g clip-path="url(#a)"><rect width="182.099" height="74.309" transform="translate(0 0)" fill="url(#b)"/></g><g transform="translate(0 0)"><g clip-path="url(#c)"><path d="M31.235,23.7a14.554,14.554,0,0,0,2.519-.215,7.883,7.883,0,0,0,2.214-.717,5.71,5.71,0,0,0,1.693-1.291,3.97,3.97,0,0,0,.919-1.936h3.353V44.718H37.427V26.954H31.235Z" transform="translate(9.79 6.125)" fill="#fff"/><path d="M51.708,38.456a3.938,3.938,0,0,0,1.1,2.514,3.471,3.471,0,0,0,2.573.957,3.815,3.815,0,0,0,2.645-.884,5.9,5.9,0,0,0,1.53-2.2,11.363,11.363,0,0,0,.739-2.813q.193-1.5.3-2.76l-.081-.072a5.6,5.6,0,0,1-2.266,2.258,6.541,6.541,0,0,1-3.164.778,8.33,8.33,0,0,1-3.256-.611,7.3,7.3,0,0,1-2.5-1.707,7.652,7.652,0,0,1-1.617-2.661,10.1,10.1,0,0,1-.577-3.506,9.745,9.745,0,0,1,.578-3.4A7.816,7.816,0,0,1,49.4,21.621a7.659,7.659,0,0,1,2.736-1.815,9.828,9.828,0,0,1,3.67-.648A8.5,8.5,0,0,1,60.2,20.184a7.386,7.386,0,0,1,2.719,2.8,12.873,12.873,0,0,1,1.383,4.19,31.717,31.717,0,0,1,.4,5.142,22.2,22.2,0,0,1-.485,4.567,13.761,13.761,0,0,1-1.6,4.19,9.22,9.22,0,0,1-2.93,3.075A8.045,8.045,0,0,1,55.2,45.337a7.944,7.944,0,0,1-2.841-.5A7.664,7.664,0,0,1,50,43.428a7.228,7.228,0,0,1-1.672-2.162,6.714,6.714,0,0,1-.72-2.809Zm3.915-15.889a4.315,4.315,0,0,0-1.943.412,3.859,3.859,0,0,0-1.366,1.132,5.062,5.062,0,0,0-.808,1.652,6.94,6.94,0,0,0-.271,1.939,7.272,7.272,0,0,0,.271,1.994,5.023,5.023,0,0,0,.808,1.669,4.207,4.207,0,0,0,1.366,1.168,4.015,4.015,0,0,0,1.943.449,4.471,4.471,0,0,0,2.015-.431,3.98,3.98,0,0,0,1.419-1.168A5.334,5.334,0,0,0,59.9,29.7a6.9,6.9,0,0,0,.289-1.994,6.586,6.586,0,0,0-.289-1.939,4.969,4.969,0,0,0-.846-1.635A4.164,4.164,0,0,0,57.638,23a4.454,4.454,0,0,0-2.015-.431" transform="translate(14.774 6.005)" fill="#fff"/><path d="M76.559,26.04a3.958,3.958,0,0,0-1.1-2.514,3.469,3.469,0,0,0-2.573-.957,4.181,4.181,0,0,0-1.926.414,4.233,4.233,0,0,0-1.369,1.1,5.721,5.721,0,0,0-.9,1.567,12.837,12.837,0,0,0-.557,1.859,15.445,15.445,0,0,0-.307,1.927q-.091.956-.162,1.785l.072.071a5.308,5.308,0,0,1,2.285-2.258,6.849,6.849,0,0,1,3.15-.742,8.272,8.272,0,0,1,3.347.648,7.29,7.29,0,0,1,2.5,1.781A7.73,7.73,0,0,1,80.589,33.4a10.048,10.048,0,0,1,.54,3.344,9.491,9.491,0,0,1-.594,3.4,8.054,8.054,0,0,1-1.709,2.733,7.811,7.811,0,0,1-2.664,1.815,8.781,8.781,0,0,1-3.419.648,9.041,9.041,0,0,1-4.551-1.026,7.5,7.5,0,0,1-2.808-2.8,12.311,12.311,0,0,1-1.421-4.171,31.637,31.637,0,0,1-.4-5.16,22.107,22.107,0,0,1,.485-4.566,13.78,13.78,0,0,1,1.6-4.19,9.228,9.228,0,0,1,2.932-3.076,8.042,8.042,0,0,1,4.481-1.186,7.933,7.933,0,0,1,2.842.506,7.653,7.653,0,0,1,2.356,1.4,7.253,7.253,0,0,1,1.673,2.162,6.739,6.739,0,0,1,.72,2.809ZM72.606,41.929a4.015,4.015,0,0,0,1.943-.449,4.365,4.365,0,0,0,1.383-1.166,4.9,4.9,0,0,0,.827-1.672,7.141,7.141,0,0,0,.269-1.958,6.955,6.955,0,0,0-.269-1.94,4.71,4.71,0,0,0-.827-1.635,4.279,4.279,0,0,0-1.383-1.131,4.15,4.15,0,0,0-1.943-.432,4.408,4.408,0,0,0-1.96.414,4.193,4.193,0,0,0-1.42,1.114,4.736,4.736,0,0,0-.863,1.634,6.936,6.936,0,0,0,0,3.953,5.146,5.146,0,0,0,.863,1.669,4.2,4.2,0,0,0,1.42,1.169,4.256,4.256,0,0,0,1.96.431" transform="translate(19.925 6.005)" fill="#fff"/><path d="M97.658,38.744H94.419v5.974H90.536V38.744h-10.8V34.68l10.8-15.14h3.883V35.49h3.239ZM82.9,35.49h7.632V24.413h-.072Z" transform="translate(24.992 6.124)" fill="#fff"/><path d="M104.315,27.841H114.73v1.722h-5.539v2.343h4.992v1.688h-4.992v3.115h6.2V38.44h-6.2V42.3h-1.8V38.44H99.236V36.709h2.448v-4.8h5.707V29.563h-4a14.7,14.7,0,0,1-3.144,3.528l-1.219-1.529a10.231,10.231,0,0,0,3.825-5.5l1.966.478a13.21,13.21,0,0,1-.5,1.3m3.076,5.753h-3.867v3.115h3.867Z" transform="translate(31.039 8.168)" fill="#fff"/></g></g></svg>