<svg xmlns="http://www.w3.org/2000/svg" xmlns:xlink="http://www.w3.org/1999/xlink" width="182.099" height="74.309" viewBox="0 0 182.099 74.309"><defs><clipPath id="a"><path d="M37.155,0a37.155,37.155,0,0,0,0,74.309H144.943a37.155,37.155,0,1,0,0-74.309Z" fill="none"/></clipPath><linearGradient id="b" y1="1" x2="0.007" y2="1" gradientUnits="objectBoundingBox"><stop offset="0" stop-color="#867552"/><stop offset="1" stop-color="#b6ab96"/></linearGradient><clipPath id="c"><rect width="182.099" height="74.309" fill="none"/></clipPath></defs><g clip-path="url(#a)"><rect width="182.099" height="74.309" transform="translate(0 0)" fill="url(#b)"/></g><g transform="translate(0 0)"><g clip-path="url(#c)"><path d="M41.152,44.837H23.966a10.278,10.278,0,0,1,1.509-5.469A13.812,13.812,0,0,1,29.5,35.3q1.221-.9,2.551-1.744A20.116,20.116,0,0,0,34.5,31.741a9.66,9.66,0,0,0,1.832-2.1,4.986,4.986,0,0,0,.754-2.61,7.161,7.161,0,0,0-.162-1.457,3.856,3.856,0,0,0-.628-1.44A3.693,3.693,0,0,0,35,23.018a4.474,4.474,0,0,0-2.153-.451,3.888,3.888,0,0,0-2.029.486,3.636,3.636,0,0,0-1.294,1.331,6.626,6.626,0,0,0-.717,2,14.384,14.384,0,0,0-.269,2.484h-4.1A12.868,12.868,0,0,1,24.993,25a8.526,8.526,0,0,1,1.671-3.073,7.9,7.9,0,0,1,2.714-2.028,8.83,8.83,0,0,1,3.72-.737,8.75,8.75,0,0,1,3.846.755,7.41,7.41,0,0,1,2.5,1.908,6.981,6.981,0,0,1,1.349,2.5,9.166,9.166,0,0,1,.394,2.572,7.652,7.652,0,0,1-.465,2.735,8.857,8.857,0,0,1-1.256,2.249,12.737,12.737,0,0,1-1.794,1.887q-1.007.865-2.082,1.621t-2.153,1.438q-1.078.684-1.992,1.367a11.659,11.659,0,0,0-1.595,1.421,4.031,4.031,0,0,0-.934,1.566h12.24Z" transform="translate(7.512 6.005)" fill="#fff"/><path d="M49.021,19.159A7.33,7.33,0,0,1,53.432,20.4,8.537,8.537,0,0,1,56.1,23.566a14.13,14.13,0,0,1,1.3,4.224,29.165,29.165,0,0,1,0,8.917,14.115,14.115,0,0,1-1.3,4.225A8.537,8.537,0,0,1,53.432,44.1a7.339,7.339,0,0,1-4.412,1.241A7.34,7.34,0,0,1,44.607,44.1a8.537,8.537,0,0,1-2.668-3.165,14.114,14.114,0,0,1-1.3-4.225,29.275,29.275,0,0,1,0-8.917,14.129,14.129,0,0,1,1.3-4.224A8.537,8.537,0,0,1,44.607,20.4a7.331,7.331,0,0,1,4.413-1.241m0,22.77a3.312,3.312,0,0,0,2.235-.774,5.244,5.244,0,0,0,1.425-2.087,12.47,12.47,0,0,0,.741-3.077,30.971,30.971,0,0,0,.215-3.742,30.557,30.557,0,0,0-.215-3.725,12.727,12.727,0,0,0-.741-3.076,5.231,5.231,0,0,0-1.425-2.105,3.645,3.645,0,0,0-4.491,0,5.336,5.336,0,0,0-1.407,2.105,12.727,12.727,0,0,0-.741,3.076,30.555,30.555,0,0,0-.215,3.725,30.969,30.969,0,0,0,.215,3.742,12.47,12.47,0,0,0,.741,3.077,5.35,5.35,0,0,0,1.407,2.087,3.3,3.3,0,0,0,2.255.774" transform="translate(12.632 6.005)" fill="#fff"/><path d="M74.014,44.837H56.828a10.278,10.278,0,0,1,1.509-5.469A13.812,13.812,0,0,1,62.363,35.3q1.221-.9,2.551-1.744a20.117,20.117,0,0,0,2.444-1.818,9.66,9.66,0,0,0,1.832-2.1,4.986,4.986,0,0,0,.754-2.61,7.161,7.161,0,0,0-.162-1.457,3.856,3.856,0,0,0-.628-1.44,3.692,3.692,0,0,0-1.294-1.114,4.474,4.474,0,0,0-2.153-.451,3.888,3.888,0,0,0-2.029.486,3.636,3.636,0,0,0-1.294,1.331,6.626,6.626,0,0,0-.717,2,14.385,14.385,0,0,0-.269,2.484H57.3A12.868,12.868,0,0,1,57.855,25a8.526,8.526,0,0,1,1.671-3.073,7.9,7.9,0,0,1,2.714-2.028,9.962,9.962,0,0,1,7.565.018,7.41,7.41,0,0,1,2.5,1.908,6.981,6.981,0,0,1,1.349,2.5,9.166,9.166,0,0,1,.394,2.572,7.652,7.652,0,0,1-.465,2.735,8.857,8.857,0,0,1-1.256,2.249,12.737,12.737,0,0,1-1.794,1.887q-1.007.865-2.082,1.621T66.3,36.824q-1.078.684-1.992,1.367a11.658,11.658,0,0,0-1.595,1.421,4.031,4.031,0,0,0-.934,1.566h12.24Z" transform="translate(17.812 6.005)" fill="#fff"/><path d="M81.883,19.159A7.33,7.33,0,0,1,86.294,20.4a8.537,8.537,0,0,1,2.668,3.165,14.13,14.13,0,0,1,1.3,4.224,29.165,29.165,0,0,1,0,8.917,14.115,14.115,0,0,1-1.3,4.225A8.537,8.537,0,0,1,86.294,44.1a8.464,8.464,0,0,1-8.825,0A8.537,8.537,0,0,1,74.8,40.932a14.113,14.113,0,0,1-1.3-4.225,29.275,29.275,0,0,1,0-8.917,14.128,14.128,0,0,1,1.3-4.224A8.537,8.537,0,0,1,77.469,20.4a7.331,7.331,0,0,1,4.413-1.241m0,22.77a3.312,3.312,0,0,0,2.235-.774,5.244,5.244,0,0,0,1.425-2.087,12.469,12.469,0,0,0,.741-3.077,30.969,30.969,0,0,0,.215-3.742,30.555,30.555,0,0,0-.215-3.725,12.726,12.726,0,0,0-.741-3.076,5.231,5.231,0,0,0-1.425-2.105,3.645,3.645,0,0,0-4.491,0,5.336,5.336,0,0,0-1.407,2.105,12.727,12.727,0,0,0-.741,3.076,30.558,30.558,0,0,0-.215,3.725,30.972,30.972,0,0,0,.215,3.742,12.47,12.47,0,0,0,.741,3.077,5.35,5.35,0,0,0,1.407,2.087,3.3,3.3,0,0,0,2.255.774" transform="translate(22.932 6.005)" fill="#fff"/><path d="M97.432,27.84h10.417v1.723h-5.54v2.343H107.3v1.688h-4.994v3.115h6.2V38.44h-6.2V42.3h-1.8V38.44H92.354V36.709H94.8v-4.8h5.708V29.563h-4a14.663,14.663,0,0,1-3.143,3.527l-1.219-1.529a10.23,10.23,0,0,0,3.825-5.5l1.966.478a13.332,13.332,0,0,1-.5,1.3m3.077,5.754H96.642v3.115h3.867Z" transform="translate(28.882 8.168)" fill="#fff"/><path d="M107.8,33.989a15,15,0,0,1-1.185,1.446l-.747-2.184a11.579,11.579,0,0,0,1.966-3.284,20.37,20.37,0,0,0,1.052-3.83l1.873.285a23.95,23.95,0,0,1-1.185,4.216V42.271H107.8Zm6.734-3.1q-.209-1.807-.361-4.753H116.1q.108,2.51.319,4.618l5.775-.411.151,1.706-5.708.436a38.371,38.371,0,0,0,1,4.359,6.492,6.492,0,0,0,1.731,3.033.767.767,0,0,0,.479.227.536.536,0,0,0,.5-.336,10.239,10.239,0,0,0,.546-2.234l1.7.873a8.927,8.927,0,0,1-1.1,3.234,1.559,1.559,0,0,1-1.345.688,3.111,3.111,0,0,1-2.388-1.269,9.748,9.748,0,0,1-1.916-3.578,43.316,43.316,0,0,1-1.1-4.856l-3.783.286-.177-1.764Zm3.742-4.654A14.009,14.009,0,0,1,121.39,28.8l-1.244,1.37a16.167,16.167,0,0,0-2.959-2.645Z" transform="translate(33.182 8.192)" fill="#fff"/></g></g></svg>