<svg xmlns="http://www.w3.org/2000/svg" xmlns:xlink="http://www.w3.org/1999/xlink" width="760.926" height="639.111" viewBox="0 0 760.926 639.111"><defs><clipPath id="a"><rect width="760.926" height="639.111" fill="none"/></clipPath><clipPath id="b"><path d="M54.068,174.193Q48.1,179.45,48.1,190.169a25.129,25.129,0,0,0,1.113,7.838,16.092,16.092,0,0,0,3.488,5.967,22.672,22.672,0,0,0,5.917,4.5,52.284,52.284,0,0,0,8.392,3.541,57.338,57.338,0,0,1,6.12,2.372,15.576,15.576,0,0,1,4,2.583,8.308,8.308,0,0,1,2.172,3.184,12,12,0,0,1,.662,4.2q0,4.55-2.683,6.725a9.3,9.3,0,0,1-6.017,2.175,11.86,11.86,0,0,1-4.7-.812,7.428,7.428,0,0,1-2.983-2.225,8.015,8.015,0,0,1-1.517-3.488,23.983,23.983,0,0,1-.4-4.6V220H47.092v2.93q0,10.013,5.309,15.371t17.643,5.362q11.837,0,18.458-5.212t6.622-16.631a28.072,28.072,0,0,0-.6-6.07,14.123,14.123,0,0,0-2.175-5,18.445,18.445,0,0,0-4.2-4.246,34.519,34.519,0,0,0-6.775-3.8l-11.225-4.854q-4.656-1.919-6.067-4.2a10.417,10.417,0,0,1-1.417-5.613,13.675,13.675,0,0,1,.354-3.134,6.45,6.45,0,0,1,1.313-2.683,6.881,6.881,0,0,1,2.579-1.871,10.143,10.143,0,0,1,4.046-.7q4.25,0,6.067,2.78t1.821,7.941H92.8v-2.025a21.379,21.379,0,0,0-1.667-8.85,16.1,16.1,0,0,0-4.65-6.067,18.811,18.811,0,0,0-7.083-3.438,35.555,35.555,0,0,0-8.947-1.062q-10.418,0-16.384,5.262" transform="translate(-47.092 -168.931)" fill="none"/></clipPath><linearGradient id="c" x1="-1.589" y1="0.946" x2="-1.551" y2="0.946" gradientUnits="objectBoundingBox"><stop offset="0" stop-color="#867552"/><stop offset="1" stop-color="#b6ab96"/></linearGradient><clipPath id="d"><rect width="14.563" height="72.206" fill="none"/></clipPath><linearGradient id="e" x1="-3.096" y1="1.124" x2="-3.041" y2="1.124" xlink:href="#c"/><clipPath id="f"><path d="M106.046,169.354v49.455h-.2l-17.6-49.455H71.458v72.21h13.35V191h.2l17.8,50.564h16.584v-72.21Z" transform="translate(-71.458 -169.354)" fill="none"/></clipPath><linearGradient id="g" x1="-2.592" y1="0.947" x2="-2.553" y2="0.947" xlink:href="#c"/><clipPath id="h"><path d="M99.908,171.711a18.69,18.69,0,0,0-7.433,7.741,33.426,33.426,0,0,0-3.338,11.88,151.552,151.552,0,0,0,0,30.285,33.345,33.345,0,0,0,3.338,11.833,17.714,17.714,0,0,0,7.433,7.587q4.851,2.626,13.046,2.629,7.181,0,11.676-2.228a16.778,16.778,0,0,0,6.979-6.167,25.212,25.212,0,0,0,3.391-9.2,65.432,65.432,0,0,0,.905-11.125h-14.56a50.8,50.8,0,0,1-.708,9.455,17.068,17.068,0,0,1-1.921,5.563,6.075,6.075,0,0,1-2.883,2.629,9.652,9.652,0,0,1-3.591.658,8.418,8.418,0,0,1-4.093-.962,7.158,7.158,0,0,1-2.933-3.738,29.469,29.469,0,0,1-1.721-7.841,127.144,127.144,0,0,1-.555-13.247q0-7.682.4-13a40.8,40.8,0,0,1,1.416-8.6,9.756,9.756,0,0,1,2.783-4.754,6.831,6.831,0,0,1,4.5-1.463q4.951,0,6.825,3.591t1.874,11.476H135.3a69.629,69.629,0,0,0-.555-8.442,22.374,22.374,0,0,0-2.78-8.4,17.212,17.212,0,0,0-6.729-6.421q-4.5-2.531-12.284-2.529-8.193,0-13.046,2.78" transform="translate(-88.379 -168.931)" fill="none"/></clipPath><linearGradient id="i" x1="-3.19" y1="0.937" x2="-3.152" y2="0.937" xlink:href="#c"/><clipPath id="j"><path d="M105.088,169.354v72.21h41.363V229.63h-26.8V210.213h24.271v-11.93H119.651V181.291h25.788V169.354Z" transform="translate(-105.088 -169.354)" fill="none"/></clipPath><linearGradient id="k" x1="-4.129" y1="0.964" x2="-4.088" y2="0.964" xlink:href="#c"/><clipPath id="l"><path d="M142.322,169.536q-1.112,6.069-5.309,8.8t-11.483,2.73h-1.313v9.508H138.48v50.564h14.56v-71.6Z" transform="translate(-124.218 -169.536)" fill="none"/></clipPath><linearGradient id="m" x1="-5.547" y1="1.015" x2="-5.5" y2="1.015" xlink:href="#c"/><clipPath id="n"><path d="M151.892,203.62q-1.819-3.137-1.821-10.42,0-3.032.254-5.609a15.461,15.461,0,0,1,1.059-4.5,6.607,6.607,0,0,1,2.379-2.983,7.339,7.339,0,0,1,4.2-1.062,7.159,7.159,0,0,1,4.1,1.062,6.986,6.986,0,0,1,2.425,2.93,15.02,15.02,0,0,1,1.163,4.5,49.131,49.131,0,0,1,.3,5.659q0,7.286-1.817,10.42t-6.171,3.134q-4.245,0-6.067-3.134M141.02,176.111q-5.512,6.575-5.512,19.01a38.947,38.947,0,0,0,.966,8.953,20.251,20.251,0,0,0,3.034,7.076,14.206,14.206,0,0,0,5.409,4.657,17.974,17.974,0,0,0,8.092,1.664,18.569,18.569,0,0,0,8.242-1.664,13,13,0,0,0,5.205-4.4h.2v3.438q0,3.944-.3,7.283a21,21,0,0,1-1.263,5.766,8.918,8.918,0,0,1-2.683,3.792,7.279,7.279,0,0,1-4.647,1.363q-3.648,0-5.112-2.275a11.612,11.612,0,0,1-1.467-6.321H137.229A20.867,20.867,0,0,0,139,233.1a14.875,14.875,0,0,0,4.4,5.563,15.65,15.65,0,0,0,6.321,2.83,35.94,35.94,0,0,0,7.433.762q8.8,0,13.7-3.187a18.6,18.6,0,0,0,7.18-8.646,38.922,38.922,0,0,0,2.729-12.588q.456-7.131.454-14.817a109.35,109.35,0,0,0-.7-12.642,30.824,30.824,0,0,0-3.087-10.671,18.662,18.662,0,0,0-6.825-7.38q-4.45-2.781-11.934-2.783-12.137,0-17.646,6.575" transform="translate(-135.508 -169.536)" fill="none"/></clipPath><linearGradient id="o" x1="-5.179" y1="0.927" x2="-5.139" y2="0.927" xlink:href="#c"/><clipPath id="p"><path d="M170.412,231.983a6.951,6.951,0,0,1-2.425-2.933,14.849,14.849,0,0,1-1.163-4.5,49.221,49.221,0,0,1-.3-5.666q0-7.281,1.821-10.417t6.167-3.13q4.255,0,6.07,3.13t1.821,10.417q0,3.037-.254,5.613a15.565,15.565,0,0,1-1.062,4.5,6.584,6.584,0,0,1-2.379,2.983,7.365,7.365,0,0,1-4.2,1.062,7.174,7.174,0,0,1-4.1-1.062m-8.847-59.11a19.537,19.537,0,0,0-7.129,8.85,39.634,39.634,0,0,0-2.733,12.642q-.451,7.126-.454,14.713a109.3,109.3,0,0,0,.708,12.642,30.919,30.919,0,0,0,3.084,10.671,17.615,17.615,0,0,0,6.825,7.23q4.455,2.626,11.934,2.629,12.137,0,17.65-6.421t5.509-18.863a38.965,38.965,0,0,0-.962-8.95,20.482,20.482,0,0,0-3.03-7.079,14.187,14.187,0,0,0-5.412-4.647,17.892,17.892,0,0,0-8.092-1.674,18.474,18.474,0,0,0-8.242,1.674,12.643,12.643,0,0,0-5.205,4.5h-.2v-3.538q0-3.949.3-7.283a20.708,20.708,0,0,1,1.263-5.763,8.719,8.719,0,0,1,2.733-3.8,7.327,7.327,0,0,1,4.6-1.363q3.643,0,5.1,2.225a11.772,11.772,0,0,1,1.47,6.471h13.955a20.93,20.93,0,0,0-1.771-8.646,15.361,15.361,0,0,0-4.4-5.613,17,17,0,0,0-6.324-3.033,30.054,30.054,0,0,0-7.43-.912q-8.905,0-13.754,3.338" transform="translate(-151.249 -169.536)" fill="none"/></clipPath><linearGradient id="q" x1="-5.807" y1="0.923" x2="-5.767" y2="0.923" xlink:href="#c"/><clipPath id="r"><path d="M192.27,187.74h.2v27.2H178.316Zm-1.517-18.2-23.764,44.8v11.934h25.481v14.867h13.35V226.271H212.7V214.942h-6.876V169.536Z" transform="translate(-166.99 -169.536)" fill="none"/></clipPath><linearGradient id="s" x1="-6.501" y1="0.929" x2="-6.461" y2="0.929" xlink:href="#c"/><clipPath id="u"><path d="M209.065,127.93v18.863h-8.573V158.3h8.573V196.02a46.789,46.789,0,0,0,.611,8.329,11.607,11.607,0,0,0,2.265,5.325,8.119,8.119,0,0,0,4.777,2.693,39.252,39.252,0,0,0,8.021.675q2.942,0,5.569-.184t5.452-.184V200.918c-.575.08-1.183.144-1.841.187s-1.3.06-1.961.06q-3.668,0-4.834-1.654t-1.163-5.573V158.3h9.8V146.793h-9.8V127.93Z" transform="translate(-200.492 -127.93)" fill="none"/></clipPath><linearGradient id="v" x1="-7.576" y1="2.497" x2="-7.537" y2="2.497" xlink:href="#c"/><clipPath id="w"><path d="M212.808,127.124v87.437h16.9V170.843q0-10.9,8.933-10.9,3.8,0,5.512,2.025t1.714,7.163v45.432h16.9V165.7q0-9.922-4.347-14.329t-12.431-4.41q-11.145,0-16.043,8.452h-.241v-28.29Z" transform="translate(-212.808 -127.124)" fill="none"/></clipPath><linearGradient id="x" x1="-7.075" y1="2.253" x2="-7.04" y2="2.253" xlink:href="#c"/><clipPath id="z"><path d="M173.792,0,41.614,206.426C16.835,238.1,1.647,274.923.254,315.268.094,318.619.01,321.923,0,325.2v1.273C.521,513.231,241.538,577.1,340.448,435.643a202.51,202.51,0,0,0,18.308-32.216q1.979-4.33,3.8-8.84c.053.087.1.177.154.264a195.846,195.846,0,0,0,6.755-20.149l-.23,0a184.592,184.592,0,0,0,6.541-39.068l.04-.007c.227-4.948.351-9.9.227-14.857a191.517,191.517,0,0,0-5.285-40.147l-.06.023c-1.1-4.714-2.486-9.4-3.989-13.975l.087-.007c-1.306-3.992-2.766-7.918-4.323-11.8l-.04.06-.023.07-.01-.02c-.084.124-.157.257-.247.377l-.261.347-.882,2.222a10.7,10.7,0,0,1-1.026,1.981,11.134,11.134,0,0,1-2.506,4.808l-.625,1.647a12.1,12.1,0,0,1-.581,1.273l-.474.889-.792,2.492c-.084.274-.177.541-.281.805a11.086,11.086,0,0,1-.558,3.184l-.6,1.8a10.976,10.976,0,0,1-.708,1.674l-.094.281a11.2,11.2,0,0,1-.424,1.7l-.608,1.811c-.027.087-.057.167-.083.251a11.184,11.184,0,0,1-1.243,5.095,11.129,11.129,0,0,1-.809,2.933l-.341.8a11.131,11.131,0,0,1-.835,4.63l-.418,1.009-.017.595a11.038,11.038,0,0,1-.752,3.772l.023.177c.037.294.067.591.084.889l.1,1.931a11.142,11.142,0,0,1-.484,3.875,11.021,11.021,0,0,1-.585,4.076l.074.484a11.132,11.132,0,0,1-.057,3.364,159.438,159.438,0,0,1,.057,20.129,11.089,11.089,0,0,1-.237,3.418c-.017.19-.027.384-.04.578a150.858,150.858,0,0,1-16.738,57.239c-45.613,87.01-171.266,122.343-254.123,39.7-60.69-57.79-61.532-164.134-1.594-222.589,71.341-76.292,202.206-58.786,251.186,30.282a11.548,11.548,0,0,1,.772-1.741l.952-1.764.22-.845c.033-.147.077-.294.12-.441l.558-1.837a11.107,11.107,0,0,1,3.231-5.068,11.163,11.163,0,0,1,2.1-5.081,11.135,11.135,0,0,1,2.633-4.45,11.582,11.582,0,0,1,1.246-2.108l1.149-1.527c.11-.147.224-.291.341-.428l.428-.511.294-.588c.094-.177.19-.357.291-.535l.956-1.644c.15-.261.314-.514.484-.762l.137-.2c-50.19-72.093-147.309-96.18-228.268-64.155L198.538,16.992Z" fill="none"/></clipPath><linearGradient id="aa" x1="0" y1="1.107" x2="0.009" y2="1.107" xlink:href="#c"/></defs><g clip-path="url(#a)"><path d="M61.654,222.124a23.985,23.985,0,0,0,.4,4.6,7.958,7.958,0,0,0,1.52,3.488,7.4,7.4,0,0,0,2.98,2.225,11.849,11.849,0,0,0,4.7.812,9.29,9.29,0,0,0,6.017-2.178q2.676-2.17,2.679-6.722a11.977,11.977,0,0,0-.658-4.2,8.266,8.266,0,0,0-2.175-3.187,15.521,15.521,0,0,0-3.992-2.579,57.27,57.27,0,0,0-6.12-2.375,52.6,52.6,0,0,1-8.392-3.538,22.609,22.609,0,0,1-5.917-4.5A16.084,16.084,0,0,1,49.216,198a25.129,25.129,0,0,1-1.113-7.838q0-10.719,5.967-15.976t16.38-5.259a35.563,35.563,0,0,1,8.95,1.062,18.743,18.743,0,0,1,7.079,3.434,16.144,16.144,0,0,1,4.654,6.07,21.368,21.368,0,0,1,1.667,8.85v2.021H78.846q0-5.157-1.821-7.938t-6.067-2.783a10.14,10.14,0,0,0-4.046.708,6.845,6.845,0,0,0-2.579,1.871,6.416,6.416,0,0,0-1.313,2.679,13.7,13.7,0,0,0-.354,3.137,10.4,10.4,0,0,0,1.417,5.609q1.413,2.28,6.067,4.2l11.225,4.854A34.524,34.524,0,0,1,88.15,206.5a18.579,18.579,0,0,1,4.2,4.246,14.164,14.164,0,0,1,2.175,5.008,28.019,28.019,0,0,1,.6,6.067q0,11.431-6.622,16.634t-18.458,5.212q-12.338,0-17.643-5.362t-5.312-15.371V220H61.654Z" transform="translate(110.234 395.445)" fill="#1a1311"/><rect width="14.563" height="72.206" transform="translate(213.351 565.793)" fill="#1a1311"/><path d="M105.843,218.806h.2V169.355h13.35v72.206H102.809L85.009,191h-.2v50.564H71.458V169.355H88.246Z" transform="translate(167.275 396.437)" fill="#1a1311"/><path d="M118.87,183.24q-1.874-3.588-6.825-3.591a6.82,6.82,0,0,0-4.5,1.467,9.715,9.715,0,0,0-2.783,4.754,40.549,40.549,0,0,0-1.417,8.6q-.406,5.307-.4,12.993a126.2,126.2,0,0,0,.558,13.25,29.15,29.15,0,0,0,1.721,7.838,7.164,7.164,0,0,0,2.93,3.742,8.441,8.441,0,0,0,4.1.962,9.718,9.718,0,0,0,3.591-.658,6.1,6.1,0,0,0,2.88-2.629,17.048,17.048,0,0,0,1.921-5.563,50.485,50.485,0,0,0,.712-9.458h14.559A65.467,65.467,0,0,1,135,226.07a25.173,25.173,0,0,1-3.388,9.2,16.8,16.8,0,0,1-6.979,6.167q-4.5,2.225-11.68,2.228-8.193,0-13.046-2.633a17.743,17.743,0,0,1-7.433-7.584,33.505,33.505,0,0,1-3.337-11.833,151.584,151.584,0,0,1,0-30.288,33.565,33.565,0,0,1,3.337-11.88,18.7,18.7,0,0,1,7.433-7.737q4.856-2.781,13.046-2.78,7.788,0,12.288,2.526a17.249,17.249,0,0,1,6.725,6.421,22.276,22.276,0,0,1,2.78,8.4,69.034,69.034,0,0,1,.558,8.442H120.741q0-7.888-1.871-11.476" transform="translate(206.881 395.445)" fill="#1a1311"/><path d="M145.438,181.288H119.65V198.28h24.271v11.93H119.65v19.417h26.8v11.934H105.087V169.355h40.351Z" transform="translate(245.996 396.437)" fill="#1a1311"/><path d="M138.477,190.571H124.218v-9.508h1.313q7.281,0,11.483-2.73t5.305-8.8H153.04v71.6H138.477Z" transform="translate(290.778 396.864)" fill="#1a1311"/><path d="M152.65,230.768q1.463,2.275,5.108,2.278a7.283,7.283,0,0,0,4.65-1.366,8.918,8.918,0,0,0,2.683-3.792,21,21,0,0,0,1.263-5.766q.306-3.338.3-7.28V211.4h-.2a12.929,12.929,0,0,1-5.208,4.4,18.512,18.512,0,0,1-8.242,1.67,17.923,17.923,0,0,1-8.088-1.67,14.2,14.2,0,0,1-5.412-4.651,20.456,20.456,0,0,1-3.033-7.079,39.106,39.106,0,0,1-.962-8.95q0-12.438,5.512-19.013t17.646-6.571q7.487,0,11.934,2.78a18.693,18.693,0,0,1,6.825,7.383,30.925,30.925,0,0,1,3.087,10.671,109.236,109.236,0,0,1,.708,12.639q0,7.687-.454,14.817a39.158,39.158,0,0,1-2.733,12.592,18.63,18.63,0,0,1-7.18,8.646q-4.906,3.182-13.7,3.184a35.964,35.964,0,0,1-7.433-.758,15.676,15.676,0,0,1-6.321-2.83,14.92,14.92,0,0,1-4.4-5.566,20.92,20.92,0,0,1-1.771-8.646h13.955a11.6,11.6,0,0,0,1.467,6.321m-.758-27.151q1.819,3.137,6.067,3.134,4.35,0,6.171-3.134T165.95,193.2a49.926,49.926,0,0,0-.3-5.663,14.97,14.97,0,0,0-1.163-4.5,6.978,6.978,0,0,0-2.429-2.933,7.167,7.167,0,0,0-4.1-1.062,7.373,7.373,0,0,0-4.2,1.062,6.574,6.574,0,0,0-2.375,2.983,15.35,15.35,0,0,0-1.062,4.5c-.167,1.721-.254,3.588-.254,5.613q0,7.281,1.821,10.417" transform="translate(317.206 396.864)" fill="#1a1311"/><path d="M179.82,181.269q-1.468-2.225-5.108-2.225a7.327,7.327,0,0,0-4.6,1.363,8.692,8.692,0,0,0-2.733,3.8,20.708,20.708,0,0,0-1.263,5.763q-.3,3.338-.3,7.28v3.541h.2a12.65,12.65,0,0,1,5.205-4.5,18.521,18.521,0,0,1,8.242-1.67,17.938,17.938,0,0,1,8.092,1.67,14.224,14.224,0,0,1,5.412,4.65,20.545,20.545,0,0,1,3.03,7.079,39.109,39.109,0,0,1,.962,8.95q0,12.438-5.509,18.859T173.8,242.25q-7.482,0-11.934-2.629a17.624,17.624,0,0,1-6.825-7.233,30.878,30.878,0,0,1-3.084-10.667,108.572,108.572,0,0,1-.708-12.642q0-7.582.458-14.716a39.585,39.585,0,0,1,2.73-12.642,19.546,19.546,0,0,1,7.129-8.847q4.851-3.338,13.754-3.338a30.212,30.212,0,0,1,7.43.909,16.971,16.971,0,0,1,6.321,3.037,15.321,15.321,0,0,1,4.4,5.609,21.013,21.013,0,0,1,1.771,8.65H181.283a11.8,11.8,0,0,0-1.463-6.471m-13,43.281a14.748,14.748,0,0,0,1.163,4.5,6.926,6.926,0,0,0,2.425,2.933,7.174,7.174,0,0,0,4.1,1.062,7.365,7.365,0,0,0,4.2-1.062A6.584,6.584,0,0,0,181.083,229a15.565,15.565,0,0,0,1.062-4.5c.167-1.717.251-3.591.251-5.613q0-7.281-1.817-10.417t-6.07-3.134q-4.35,0-6.167,3.134t-1.821,10.417a49.163,49.163,0,0,0,.3,5.663" transform="translate(354.054 396.861)" fill="#1a1311"/><path d="M190.756,169.536h15.067v45.406H212.7v11.329h-6.875v14.863h-13.35V226.271H166.989V214.337Zm1.517,18.2-13.955,27.2h14.155v-27.2Z" transform="translate(390.899 396.861)" fill="#1a1311"/></g><g transform="translate(157.328 564.376)"><g clip-path="url(#b)"><rect width="86.809" height="86.809" transform="translate(-37.368 37.368) rotate(-45)" fill="url(#c)"/></g></g><g transform="translate(213.348 565.793)"><g clip-path="url(#d)"><rect width="61.355" height="61.355" transform="translate(-36.103 36.103) rotate(-45)" fill="url(#e)"/></g></g><g transform="translate(238.732 565.789)"><g clip-path="url(#f)"><rect width="84.955" height="84.955" transform="translate(-36.105 36.105) rotate(-45)" fill="url(#g)"/></g></g><g transform="translate(295.263 564.376)"><g clip-path="url(#h)"><rect width="86.453" height="86.453" transform="translate(-37.368 37.368) rotate(-45)" fill="url(#i)"/></g></g><g transform="translate(351.085 565.789)"><g clip-path="url(#j)"><rect width="80.308" height="80.308" transform="translate(-36.105 36.105) rotate(-45)" fill="url(#k)"/></g></g><g transform="translate(414.996 566.397)"><g clip-path="url(#l)"><rect width="71.01" height="71.01" transform="translate(-35.801 35.801) rotate(-45)" fill="url(#m)"/></g></g><g transform="translate(452.714 566.397)"><g clip-path="url(#n)"><rect width="83.738" height="83.738" transform="translate(-36.357 36.357) rotate(-45)" fill="url(#o)"/></g></g><g transform="translate(505.303 566.397)"><g clip-path="url(#p)"><rect width="83.738" height="83.738" transform="translate(-36.357 36.357) rotate(-45)" fill="url(#q)"/></g></g><g transform="translate(557.892 566.397)"><g clip-path="url(#r)"><rect width="82.949" height="82.949" transform="translate(-35.801 35.801) rotate(-45)" fill="url(#s)"/></g></g><g clip-path="url(#a)"><path d="M225.965,127.93v18.859h9.8V158.3h-9.8v35.637q0,3.919,1.163,5.569t4.838,1.654q.977,0,1.958-.06c.655-.043,1.266-.1,1.838-.184v11.753q-2.816,0-5.449.184c-1.757.124-3.612.184-5.573.184a39.328,39.328,0,0,1-8.021-.672,8.124,8.124,0,0,1-4.774-2.7,11.541,11.541,0,0,1-2.265-5.325,46.736,46.736,0,0,1-.611-8.329V158.3h-8.576V146.789h8.576V127.93Z" transform="translate(469.323 299.467)" fill="#1a1311"/><path d="M229.706,127.124v28.29h.244q4.9-8.454,16.043-8.452,8.083,0,12.428,4.41t4.346,14.329v48.86h-16.9V169.129q0-5.142-1.714-7.163t-5.512-2.021q-8.935,0-8.937,10.9v43.719h-16.9V127.124Z" transform="translate(498.155 297.581)" fill="#1a1311"/></g><g transform="translate(669.817 427.397)"><g clip-path="url(#u)"><rect width="85.123" height="85.123" transform="translate(-42.556 42.556) rotate(-45)" fill="url(#v)"/></g></g><g transform="translate(710.963 424.704)"><g clip-path="url(#w)"><rect width="97.156" height="97.156" transform="translate(-43.719 43.719) rotate(-45)" fill="url(#x)"/></g></g><g clip-path="url(#a)"><path d="M469.549,230.933l.17-1.9.675-1.894-.725-1.891-.114-1.891.137-1.9-.408-1.881.194-1.908.04-1.9.2-1.921-.812-1.837.558-1.961-.478-1.854-.324-1.871-.391-1.864-.561-1.841-.334-1.861-.144-1.9-.01-1.918-.732-1.787.307-1.985-1.059-1.727.261-1.995-1.119-1.69.281-2.011L464.357,184l-.8-1.761-.474-1.831.164-2.008-1.032-1.684.227-2.041-1.387-1.564-.157-1.938-.658-1.781-.251-1.928-.575-1.8-1.276-1.56-.645-1.777-.274-1.931-.381-1.9-1.45-1.46-.665-1.784-.154-1.991-1.009-1.634-.575-1.827-1.226-1.527-.929-1.66-.969-1.637-.986-1.624-.989-1.614-.484-1.888-1.246-1.477-.431-1.941-1.029-1.6-1.1-1.547-.565-1.881-1.139-1.537-1.042-1.587-1-1.61-1.179-1.5-.882-1.694-1.206-1.483-1.032-1.594-.952-1.657-1.41-1.323-.959-1.657-1.28-1.413-1.243-1.433-1.052-1.59-1.731-1.029-.631-1.951-1.213-1.463-1.844-.909-1.31-1.363-1.253-1.427-.538-2.075-1.7-1.019-1.46-1.219-1.286-1.4-1.4-1.283-.875-1.821-1.811-.855-1.059-1.637-1.256-1.44-2-.611-.892-1.857-1.463-1.216-1.483-1.189-1.914-.665L400.159,83.6l-1.387-1.3-1.744-.835-1.43-1.259-1.407-1.28-1.269-1.477-1.751-.805-1.236-1.537-1.577-1.072-1.817-.688L385.1,72.072l-1.764-.752-1.814-.675-1.153-1.734L378.817,67.8l-1.607-1.009-1.754-.755-1.67-.919-1.934-.4L370.3,63.586l-1.5-1.216L367,61.708l-1.557-1.136-1.9-.441-1.894-.418-1.59-1.066-1.8-.595L356.637,57l-1.771-.682-1.908-.341L351.2,55.29l-1.717-.812-1.821-.525-1.483-1.47-1.767-.7-1.794-.631-1.8-.608-1.911-.281-2.008.084-1.7-.889L333.355,49l-1.791-.631-1.837-.468-1.9-.17-1.637-1.316-1.851-.434-1.854-.418-1.951.037-1.8-.678-1.911-.114-1.944.107-1.861-.344-1.774-.915h-1.921l-1.881-.241-1.821-.748-1.9-.12-1.991.778-1.8-1.066-1.938.451-1.861-.611-1.9.13-1.884-.351-1.881-.4-1.918.374-1.9.124-1.888-.641-1.908,1.009-1.9-.2-1.891-.13-1.914-.575-1.878.7-1.894.03L271.448,42l-1.9.017-1.908-.04-1.851.718-1.951-.481-1.884.314-1.831.665-1.948-.251-1.861.451-1.914.02-1.707,1.393h-1.914l-1.921.023-1.841.468-1.8.668-1.831.508L241.4,46.25l-1.924.11-1.7,1.059-1.821.525-2-.12-1.67,1.089-1.8.6-1.924.207-1.664,1.009-2.021-.08-1.744.8-1.754.7-1.6,1.153-2.1-.224-1.8.625-1.717.819-1.477,1.42-2,.117-1.467,1.4-2.015.124-1.5,1.29-2.041.107-1.707.842-1.336,1.584-1.941.351-1.754.732-1.4,1.413-1.784.688-1.727.8-1.59,1.046-1.717.808-1.36,1.427-1.767.732-1.995.381-1.417,1.32-1.3,1.483-2.078.294-1.4,1.333-1.4,1.31-1.834.688-1.567,1.076-1.139,1.667-1.54,1.106-1.286,1.423-1.994.531-1.133,1.614-1.757.849-1.684.952-1.223,1.49-1.166,1.557-1.366,1.31-1.6,1.049-1.717.945-1.316,1.37-.738,1.978-1.574,1.092-1.65,1.036L148.5,98.742l-.979,1.684-1.9.829-1.069,1.6-.905,1.731-1.574,1.136L140.663,107l-1.079,1.584-1.039,1.6-1.089,1.55-1.7,1.069-.615,1.928-1.42,1.3L133,117.852l-1.714.785-.261.117-1.049,1.59-1.176,1.5-.812,1.744-.327.471-.758,1.092-.955,1.644-.862,1.7-.351.418-.872,1.049-1.149,1.527-.291,2.038-.555.334-1.293.778.007,2.192-1.734,1.2-.19,2.061-.905,1.667-.882,1.674-1.617,1.3-.558,1.837-.481,1.874-.815,1.714-.925,1.657-.568,1.824-.822.989-.438.528-.986,1.65-.271,1.938L109,160.631l-.424.411-1.079,1.046.217,2.095-.735,1.136-.321.5-.364,1.878-.107.378-.408,1.45-.718,1.764-.384,1.861-.558,1.807-.872,1.714-1.136,1.65-.474,1.837.264,2.038-1.153,1.667.264,2.008-.257,1.884-.5,1.827-1.216,1.68-.194,1.908.424,2-.411,1.854-.284,1.871-.638,1.817-.8,1.794.013,1.921.224,1.938-.778,1.824-.561,1.854.8,1.978-1.069,1.814.271,1.924.053,1.9-.635,1.861.819,1.941-1.032,1.861.3,1.914.5,1.9.13,1.894-.444,1.9.314,1.894-.084,1.894-.307,1.914.728,1.864-.214,1.908-.217,1.918.785,1.834-.7,1.971.825,1.821-.1,1.918.15,1.9.491,1.844-.08,1.931.277,1.881.922,1.771.2,1.888.431,1.848.424,1.844.147,1.9.431,1.844.581,1.814-.3,2.011,1.173,1.674-.2,2,.611,1.8.658,1.791.19,1.921.047.063a143.093,143.093,0,0,0,8.94-37.187l-.013-.08-.05-1.914.344-.966q.09-1.087.167-2.178l-.114-.7-.882-1.871,0-1.911-.077-1.914.314-1.918.514-1.914-.264-1.9-.431-1.911.611-1.9.428-1.884-.882-1.958.7-1.256.324-.588-.281-1.928-.013-1.911.7-1.858-.692-1.984,1.179-1.781-.1-1.938-.264-1.961.147-1.908.752-1.817.047-1.928.478-1.854.558-1.35.187-.448-.244-2,.718-1.8.768-1.781-.18-2.011,1.323-1.63-.063-.909-.074-1.1.8-1.757.6-1.814.317-1.9.9-1.714.067-.21.528-1.594.023-2.011.748-1.767.565-1.831.611-1.811.905-1.7.682-1.781.578-1.837,1.45-1.453.1-2.045,1.41-1.457.7-1.767.7-1.791,1.156-1.55.254-1.858.02-.147.862-1.707,1.333-1.453,1.076-1.577v0l.444-1.931.942-1.667,1.236-1.493.271-.391.16-.231.658-.945,1.256-1.463.378-2.028,1.437-1.336,1.336-1.386.725-1.827,1.624-1.186,1.179-1.483.621-1.921,1.44-1.3,1.273-1.42.6-1.961,1.791-1,.819-1.794,1.373-1.34,1.086-1.584,1.046-1.627L157.2,112.8l1.179-1.5,1.714-1,.912-1.777,1.61-1.086,1.52-1.166,1.129-1.58,1.36-1.323,1.667-1.009.882-1.874,1.647-1.022,1.677-.969,1.153-1.59,1.764-.852,1.149-1.627,1.577-1.082,1.607-1.042,1.523-1.139,1.7-.922L184.5,89.1l1.58-1.052,1.306-1.477,1.537-1.149,1.614-1.022,1.66-.952,1.974-.431,1.313-1.51,1.964-.418,1.57-1.1,1.614-1.009,1.684-.9L204,77.2l1.714-.839,1.771-.708,1.594-1.086,1.854-.535,1.771-.7,1.687-.885,1.7-.872,1.624-1.059,1.918-.341,1.493-1.413,1.821-.6,2.008-.07,1.781-.668,1.65-1.076,1.861-.444,1.984-.04,1.594-1.316,1.824-.555,2,.047,1.787-.688,1.974.023,1.684-1.129,1.928-.14,1.774-.805,2.055.5,1.711-1.193,1.861-.431,2,.364,1.781-.935,1.968.277,1.791-.935,1.964.3,1.9-.144,1.908-.08,1.871-.408,1.938.3L271.382,58l1.948.672,1.878-.575,1.891-.541,1.914.244,1.921.411,1.9-.137,1.908-.314,1.9.174,1.924-.4,1.884.635,1.894.2,1.9.17,1.941-.478,1.888.364L300,58.384l1.858.575,1.961-.3,1.774,1.149,1.918-.027,1.831.692,2.015-.535,1.8.765,1.881.327,1.908.14,1.888.294,1.9.257,1.791.732,1.881.357,1.9.271,1.834.558,1.781.7,1.68,1.049,1.824.551,1.837.508,2.021-.043,1.811.6,1.627,1.123,1.807.608,1.7.909,1.928.291,1.657.986,1.724.812h2.088l1.336,1.674,2.068.067,1.64,1,1.43,1.4,2.078.117,1.594,1.086,1.517,1.193,2.015.294,1.253,1.677,2.051.251,1.283,1.587,1.981.411,1.273,1.557,1.794.722,1.33,1.457,1.53,1.129,2.131.257,1,1.9,2.152.271,1.226,1.56,1.3,1.437,1.687.942,1.3,1.43,1.817.762,1.774.845,1.413,1.3,1.006,1.757,1.31,1.4,2.078.538.682,2.081,1.794.865,1.34,1.353,1.089,1.614,1.386,1.306,1.6,1.092,1.069,1.607,1.323,1.38,1.109,1.56,1.564,1.149,1.066,1.6,1.153,1.52,1.417,1.3,1.584,1.179.932,1.694,1.587,1.183,1.106,1.557.845,1.761.9,1.7,1.737,1.1.5,1.974,1.46,1.32,1.189,1.5.444,1.984,1.393,1.373.905,1.68,1.059,1.59.738,1.777,1.5,1.346.6,1.844.671,1.807,1.407,1.42.15,2.065,1.437,1.417.738,1.754.6,1.831,1.3,1.5-.124,2.148.879,1.7,1.427,1.467.758,1.757-.18,2.118,1.106,1.614,1.042,1.644-.12,2.071,1.433,1.527-.09,2.031,1.072,1.657.7,1.784-.347,2.095.788,1.754.194,1.914.5,1.827,1.146,1.684-.117,1.984,1.2,1.684-.471,2.051.418,1.854,1.176,1.724.08,1.921-.107,1.951.618,1.831.511,1.854-.478,1.981.02,1.918.428,1.874.541,1.861-.134,1.921.431,1.878-.1,1.911.331,1.9-.257,1.918.585,1.9.007,1.9-.481,1.911.317,1.914.261,1.911-.9,1.878.929,1.941-.782,1.884.384,1.931-.494,1.878-.334,1.888-.074,1.9-.668,1.851.508,1.978-.468,1.858-.631,1.831.668,2.035-.912,1.781-.04,1.931-.368,1.878-.688,1.8.2,2-1.206,1.687-.067,1.941-.027,1.958-1.089,1.69-.2,1.928L447.054,276l-.481,1.837-.682,1.784.347,2.115-.568,1.831-1.216,1.6-.083,2-.966,1.677-.518,1.854-.8,1.734-1.179,1.584-.665,1.781-.638,1.8-.989,1.644-.177,2.018-1.523,1.383-.064,2.1-1,1.63-1.483,1.39-.271,2.008-.855,1.707-1.109,1.574-.668,1.814-1.216,1.5-1.133,1.553-1.286,1.437-.474,1.958-1.66,1.2-.819,1.737-.982,1.634-.966,1.66-.865,1.721L421,330.852l-1.273,1.433-1.4,1.333-.855,1.754-1.721,1.072-.672,1.918-1.724,1.039-.688,1.918-1.807.955-1,1.664-1.026,1.65-1.326,1.39-1.817.892-.952,1.734-1.914.785-.755,1.954-1.687,1-1.346,1.36-1.664,1-1.45,1.226-1.012,1.741-1.46,1.226-1.754.882-1.69.932-1,1.807-1.553,1.109-1.911.625-1.366,1.35-1.684.915-1.286,1.48-1.5,1.179-1.5,1.179-1.517,1.179-1.53,1.139-1.864.628-1.423,1.333-1.934.484-1.594,1.042-1.584,1.079-1.894.5-1.594,1.042-1.674.929-1.711.825-1.63.992-1.807.641-1.66.956-1.761.718-1.817.588-1.607,1.076-1.844.531-1.711.859-1.731.789-1.844.511-1.554,1.306-2.051-.09-1.8.595-1.57,1.346-1.791.655-1.847.525-2.108-.431-1.687,1.032-1.791.685-1.864.418-1.831.538-2.011-.241-1.727,1.036-1.961-.067-1.9.164-1.714,1.216-2.015-.451-1.871.344-1.871.334-1.787.982-1.914.12-1.908.067-1.861.611-1.918.06-1.918-.02-1.931-.3-1.881.488-1.931-.451-1.9.087-1.894.515-1.911-.261-1.908.722-1.911-.21-1.9-.2-1.891-.672-1.924.565-1.9-.15-1.888-.391-1.891-.257-1.881-.334-1.954.388-1.821-.875-1.9-.1-1.948.207-1.824-.752-1.9-.1-1.841-.565-2.065.772-1.824-.658-1.807-.682-1.891-.271-1.931-.124-1.891-.3-1.694-1.089-1.767-.8-2,.124-1.854-.468-1.65-1.133-2,.017-1.844-.488-1.7-.935-1.958-.177-1.57-1.283-1.858-.471-1.821-.568-1.978-.19-1.42-1.587-1.727-.775-1.8-.638-2.055-.067-1.46-1.4-2.041-.164-1.406-1.46-1.961-.351-1.346-1.547-1.694-.852-2.075-.174-1.407-1.413-1.58-1.076-1.944-.454-1.513-1.186-1.55-1.126-1.684-.912-1.513-1.166-1.891-.6-1.413-1.323-1.149-1.671-1.754-.818-1.864-.692-.986-1.854-1.707-.9-1.674-.962-1.179-1.58-1.443-1.229-1.888-.708-1.427-1.283-1.664-1.006-.879-1.864-1.777-.889-1.082-1.634-1.136-1.557-1.6-1.092L161,349.494l-1.383-1.31L158.51,346.6l-.959-1.707-1.346-1.343-1.958-.812-1.019-1.64-.905-1.741-1.37-1.34-1.567-1.183-.548-2-1.41-1.316-1.543-1.219-.812-1.784-.932-1.67-1.27-1.437-1.276-1.44-1.193-1.493-.331-1.28q-4.184,7.928-8.827,15.191l.608.361.869,1.714.859,1.731,1.533,1.206.809,1.784,1.614,1.129,1.113,1.544,1.089,1.553,1.229,1.443,1.052,1.6,1.29,1.39,1.239,1.437,1.637,1.069,1.38,1.3,1.3,1.373,1.266,1.413.865,1.818,1.787.9.929,1.761,1.5,1.179,1.467,1.213,1.39,1.286,1.423,1.259,1.407,1.276,1.343,1.346,1.63,1,1.273,1.45,1.43,1.263,1.57,1.076,1.57,1.066,1.731.855,1.283,1.45,1.991.481,1.5,1.153,1.2,1.6,1.59,1.029,1.851.635,1.5,1.169,1.3,1.487,2.031.324,1.634.959,1.33,1.473,1.747.768,1.4,1.383,2,.3,1.527,1.163,1.864.521,1.28,1.667,2.061.114,1.737.742,1.416,1.45,1.991.211,1.5,1.3,2,.14,1.533,1.24,1.731.792,1.714.819,1.854.491,1.607,1.092,2.058-.087,1.523,1.366,1.958.167,1.941.147,1.707.862,1.69.986,1.858.428,1.908.207,1.8.641,1.941.033,1.7,1.009,1.817.555,1.838.484,1.988-.19,1.811.581,1.9.17,1.791.718,1.961-.187,1.714,1.219,1.914.01,1.831.685,1.991-.588,1.824.678,1.891.2,1.908-.023,1.894.07H267.7l1.861.454,1.9.033,1.9-.114,1.891.15,1.891.264,1.888.585,1.9.027,1.908-.074,1.9-.685,1.891-.03,1.908.458,1.9-.114,1.908.154,1.871-.538,1.914.17,1.891-.06,1.824-1,1.988.8,1.8-.992,1.908-.023,1.968.381,1.767-1.069,1.9-.043,1.934.043,1.754-1.009,2.015.511,1.714-1.136,2,.334,1.721-1.046,2,.224,1.767-.765,1.958.037,1.868-.381,1.587-1.44,2.091.448,1.544-1.5,1.968-.03,1.928-.207,1.724-.835,1.911-.291,1.617-1.126,1.634-1.079,1.807-.571,2.025-.027,1.831-.518,1.386-1.627,2.172.284,1.517-1.3,1.757-.712,1.9-.411,1.7-.859,1.55-1.153,1.858-.528,1.687-.879,1.8-.645,1.493-1.239,1.794-.682,1.717-.825,1.533-1.146,1.406-1.36,1.8-.682,1.346-1.426,1.647-.935,1.8-.708,1.747-.788,1.159-1.694,1.971-.461,1.293-1.463,1.46-1.226,1.948-.528,1.263-1.483,1.587-1.046L397.3,376.9l1.65-.969,1.086-1.674,1.7-.919,1.63-1,1.069-1.674,1.954-.638.992-1.744,1.47-1.189,1.557-1.116,1.009-1.7,2.038-.6,1.27-1.427.808-1.871,1.293-1.39,2-.712.969-1.69.979-1.674,1.868-.872.608-1.995,1.787-.962.835-1.781,1.1-1.54,1.908-.892.972-1.664,1.407-1.31,1.132-1.523.568-1.954,1.58-1.193.451-2.008,1.807-1.039,1.042-1.594.367-2.048,1.253-1.443,1.37-1.36.742-1.781.785-1.751,1.587-1.246,1.143-1.534.748-1.764.625-1.831,1.169-1.517.641-1.814,1.066-1.574.658-1.8,1.139-1.554.354-1.934.832-1.707,1.243-1.517.474-1.864.488-1.844,1.52-1.423-.207-2.138,1.35-1.5.217-1.944,1.006-1.654.822-1.717.535-1.817,1.052-1.644-.1-2.035.8-1.737.919-1.7-.384-2.1,1.109-1.647.227-1.908.5-1.827.8-1.757-.16-1.984,1.219-1.657.053-1.938-.047-1.944,1-1.731.04-1.921.862-1.784.271-1.878.421-1.854-.692-2.021.234-1.878.862-1.8-.364-1.951.524-1.847,0-1.9.277-1.878.635-1.858.043-1.894-.02-1.908.314-1.884-.618-1.921.842-1.881Z" transform="translate(222.923 96.769)" fill="#2a4f2c"/></g><g clip-path="url(#z)"><rect width="376.168" height="577.098" transform="translate(0)" fill="url(#aa)"/></g><g clip-path="url(#a)"><path d="M229.547,159.317l.157-.444-1.741-.7-1.687-.805-1.764-.648-1.68-.839-1.694-.8-1.694-.805-1.574-1.036-1.563-1.042-1.8-.658-1.29-1.457-1.854-.628-1.249-1.473-1.741-.805-1.473-1.179-1.453-1.206-1.143-1.543-1.513-1.153-1.547-1.229,1.036-1.747,1.032-1.65.842-1.747,1.156-1.594,1-1.67.628-1.858.668-1.841,1.2-1.59.327-1.978.935-1.707.571-1.864.645-1.841.715-1.8.535-1.861.618-1.848.752-1.787.862-1.777.525-1.881.13-1.974.829-1.781.154-2.051,2-.444,1.734-.722,1.159-1.567-1.082-1.851-2.018-.525-2.085-.695-2.115-.648-2.1-.9,2.128.18,2.041-.13,2.048-.241,2.051.281,2.055.184,2.055-.484,1.721.274,1.4-1.016.438-1.584-.207-1.624-1.306-1.019-1.166-1.724-1.61-1.25-1.674-1.179L220.313,85l-1.34-1.53-1.6-1.283-1.453-1.427-2.375-1.427-1.914,1.754-1.243,1.533-1.236,1.517-.839,1.8-1.473,1.386-.879,1.847-1.978-.134L202.072,89l-1.911.13-1.911-.17h-1.921l-1.908.311-1.924-.06-1.918.05-1.921.04-1.918-.11-1.974.017.7-1.971,1.2-1.543.494-1.888,1.116-1.584.725-1.774.695-1.781.912-1.7.424-1.908.708-1.787.939-1.7.007.087,1.941-.678,1.827-.732.979-1.543-.508-1.467-1.36-.912L193.9,66.2l-1.734-.745-1.747-.695-1.864-.314-1.71-.835-1.784-.575-1.894-.234-1.761-.695-1.784-.6-.234.251-.327.1-.027,1.961-.388,1.908-.2,1.928-.19,1.934-.6,1.864-.307,1.911-.678,1.844-.147,1.964-.645,1.848-.595,1.848-.341,1.921-.525,1.871-.758,1.8-.207,1.974-.782,1.8-.782,1.731L170.761,90.8l-1.213-1.657-1.584-1.316-1.336-1.543L165.3,84.732l-1.386-1.513-2.048-1.37-1.918,1.577-.982,1.443-.755,1.594-.919,1.49-1.059,1.537-2.312-.064.274-2.068-.307-1.944.311-1.938-.083-1.944-.043-1.944.01-1.948V75.691l.017-1.941.077-1.944-.137-1.954,2-.665,1.851-1.042.935-1.938-1.27-1.837-2.212-.351-1.844-.431-1.911.157-1.874-.267-1.827-.545-1.878-.2-1.9.017-1.861-.314-1.9-.508.317.762.2,1.981-.144,2,.2,1.968-.194,1.981.388,1.974-.13,1.988.2,1.994-.444,1.811.411,1.814.037,1.817-.344,1.814.317,1.821-.277,1.817.261,1.981-2.268-.224-2.138-.03-2.141-.067-2.128.114.778-1.724.1-1.951.849-1.757.2-1.921.2-1.911.431-1.189,1.841-.394,1.584-.986.648-1.674-1.153-1.848-2.312-.424-1.664-.661-1.711-.424-1.727-.4-1.787-.09-1.711-.474-1.751-.281-1.694-.558-.174.14-.371.14.12,1.934-.257,1.928.341,1.948-.324,1.914-.11,1.924-.037,1.931-.13,1.921-.114,1.924-.378,1.9-.2,1.924-.16,1.918-.311,1.908-.4,1.884-.588,1.854-.331,1.9-.3,1.888-.023,1.944-.364,1.894-.625,1.841-.351,1.894-.508,1.861-.174,1.934-.541,1.871-.434,1.888.1.829,2.472,1.273.027-.488,1.143-1.527,1.293-1.44.638-1.858,1.042-1.61,1.062-1.6.555-1.864,1.209-1.543.444-1.9,1.086-1.61.431-1.894,1-1.667.508-1.854.728-1.594,1.677.063,1.744-.5,1.747.5,1.747-.514,1.754.271,1.59.11.077,1.794-.16,1.938.274,1.938.231,1.938-.037,1.938-.341,1.928-.09,1.944.484,1.931-.538,1.944.3,1.944-.03,1.938-.2,1.944.03,1.948.194,1.948-1.861.267-1.8.414-1.831.284-1.774.575-1.817.241-1.817.291-1.791.438-1.774.531-1.844.114-1.784.508-1.831.207-1.858.043-1.854.08-.05.114.287,1.894.855,1.751.712,1.8.311,1.941.845,1.747.585,1.851.675,1.814.521,1.874,1.2,1.821,1.607,1.116,1.6-.588.317-1.734.588-1.584,1.37-.919,1.761-.682,1.791-.628,1.644-.982,1.931-.294,1.7-.822,1.55-1.133,2-.715-.458,2.078.231,1.991.21,2-.4,2,.431,2-.361,2,.257,2,.077,2-.471,1.874.117,1.878-.177,1.881V158.4l.337,1.878-.311,1.888.374,1.888-.461,1.881v1.878l.394,2.125-.06,1.747.494,1.687,1.657.571,1.754.007,1.9.314,1.9-.067,1.854-.484,1.7-.852,1.527-1.136.541-1.811.2-1.878-.134-2.028.134-2.048-.3-2.025-.02-2.031.2-2.048-.2-2.031-.194-2.1.387-2.1-.545-2.085.317-2.1-.254-1.874.18-1.868.094-1.881-.057-1.871.237-1.878-.368-1.881.117-1.874.184-1.884-.488-1.881.311-1.871,1.564-.992,1.657-.885,1.721-.748,1.5-1.173,1.828-.558,1.53-1.092,1.487-1.153,1.751-.712,1.47-1.156,1.69-.839,1.5-1.113.271-.314-1.423-2.389-1.553.648-1.924.237-1.761.8-1.894.364-1.841.585-1.9.421-1.951.234-1.878.474-1.968.545.084-1.874-.237-1.831.03-1.831.11-1.821-.127-1.831-.04-1.831.511-1.831-.3-1.827-.2-1.831.11-1.831.344-1.831-.16-1.837-.08-1.891,1.848.144,1.794-.3,1.8.127,1.8-.19,1.8.1,1.807.307,1.8-.194,1.8-.2,2.205-.551L170.11,97.2l-1.1,1.517-.668,1.711-.9,1.6-1.059,1.507-.508,1.837-.912,1.6-1.353,1.32-.715,1.724-1.123,1.463-1.179,1.413-.745,1.59,1.006,1.68,1.654-1.37,1.754-.805,1.393-1.293,1.28-1.427,1.553-1.1,1.567-1.1,1.153-1.543,1.373-1.3L174.045,105l1.2-1.169.391,1.63.09,1.9.234,1.891.378,1.858.561,1.834.7,1.781.344,1.854.4,1.854.214,1.908.849,1.727.541,1.811.488,1.834.588,1.807.591,1.8.969,1.65.431,1.878.822,1.707,1.006,1.62.6,1.811.939,1.644.728,1.584-.525,1.777-1.2,1.523-1.209,1.5-1.059,1.6-1.012,1.64-1.119,1.57-1.447,1.293-1.353,1.366-1.016,1.657-1.273,1.433-1.543,1.176-1.133,1.577-1.343,1.37-1.52,1.183-1.256,1.467-1.66,1.009-1.38,1.33-1.423,1.29-1.29,1.44-1.777.865-1.5,1.2-1.453,1.27.094.17,1.437,2.466.17-.381,1.851-.418,1.584-1.016,1.848-.448,1.667-.835,1.463-1.223,1.767-.638,1.657-.859,1.443-1.2,1.644-.889,1.6-.955,1.5-1.1,1.56-1.019,1.336-1.33,1.564-1.026,1.674-.892,1.306-1.346,1.223-1.43,1.677-.935,1.239-1.413,1.226-1.41,1.473-1.176,1.119-1.286,1.31,1.266,1.213,1.533,1.386,1.376.982,1.744,1.52,1.253,1.176,1.57,1.266,1.507,1.533,1.229,1.587,1.166,1.493,1.26,1.41,1.35,1.4,1.4,1.6,1.123,1.861.758L215,170.9l1.523,1.226,1.707.925.451.04.3-.02.618-1.881.728-1.868,1.286-1.533,1.37-1.427,1.36-1.437,1.507-1.3,1.687-1.076,1.951-.4-.03-.234.287-2.559Zm-29.189-48.306-.331,1.938-.661,1.844-.919,1.761-.471,1.884-.558,1.871-.835,1.774-.431,1.924-.859,1.754-.585,1.871-.879,1.731-.952,1.57-1.153-1.38-1.27-1.453-1.036-1.617-1.052-1.6-.675-1.831-1.086-1.58-.859-1.7-.692-1.8-1.263-1.517-.825-1.731-.3-1.948-.989-1.667-.508-1.844-.4-1.881-.875-1.721-.147-1.948-.859-1.737-.08-1.851.762-1.624.581-1.553,1.026-1.346,1.995.257,1.978-.344,1.974.03,1.988.18,1.974.174,1.988-.3,1.984.207,1.988.09,1.985-.027,1.994-.187,2.021-.127-.217,2.041v1.971l-.307,1.928-.428,1.914-.244,1.934-.374,1.921-.935,1.781Z" transform="translate(273.514 143.977)" fill="#2a4f2c"/><path d="M208.447,151.265l-1.206-1.3-1.136-1.39-1.577-.905-1.26-1.243-1.229-1.3-1.266-1.253-1.4-1.123-2.021-.992.067-1.938-.244-1.807-.087-1.807.361-1.827-.02-1.821-.224-2.135-.023-2.152.017-2.135-.3-1.911v-1.921l.207-1.918-.083-1.921.053-1.928-.023-1.931.521-.117,1.477-1.253,1.493-1.176.875-1.65-1.316-2.165-.668-.351-1.594-1.156-1.483-1.3L194.92,104.1l-1.493-1.29-1.276-1.533-1.3-.732-1.4-.394-1.978,1.219-1.206,1.774-1.533,1.527-1.236,1.9-1.964-.084-1.844.01-1.848-.3-1.851.234-1.841-.037-1.844-.007-1.844.227-1.844-.438-1.854.234-1.841-.331-1.851.17-1.844.334-1.851-.444-1.854.167-1.831-.13-1.874-.351-1.664-.992-1.757-.755-1.754-.742-1.824-.591-1.924-.321-1.687-.929-1.8-.665.08.424-.19,1.8.147,1.781.438,1.781-.04,1.787-.267,1.781.291,1.774-.19,1.787.134,1.791.124,1.791-.2,1.811-.067,1.807-.073,1.794.16,1.807-.231,1.8v1.807l.277,1.787.01,1.787.08,1.784-.194,1.787.14,1.8-.247,1.891-.384,1.891.317,1.908.364,2.051,1.687,1.036,2.045.615h1.774l1.711-.545,1.69-.388,1.711-.4,1.223-1.223.815-1.517,1.868-.02,1.864.063,1.854-.264,1.861.134,1.851.013,1.868-.1,1.858,0,1.851.2,1.861.164,1.857-.184,1.861.21,1.861-.364,1.858.321,1.868.027,1.871.067,1.771,0,.545,1.764,1.493,1.39,2.131-.174,1.761.127,1.777-.05,1.664-.692,1.5-.448-.692,1.527-1.24,1.183-.775,1.547-1.236,1.176-1.914.274-1.938-.224h-1.928l-1.934.211-1.934-.157-1.931-.291-1.938.317-1.928-.14-1.941.241-1.928.043-1.941-.428-1.934.057-1.938.394-1.931-.1-1.941-.22-1.934.1-1.928-.1-1.944-.094-1.931.064-1.944.144-1.934-.3-1.938.187-1.944.14-1.944-.05-1.944-.11-1.941-.157-1.938.1-1.931-.074-1.928-.2-1.961.321-1.908-.364-.849-.067.494,1.854.651,1.781.818,1.727.641,1.774.037.207.184-.137,1.848-.107,1.857-.107,1.837-.3,1.868.271,1.861-.271,2.075.22,2.118-.16-.859,1.824-.7,1.737-.641,1.781-.648,1.791-1.246,1.48-.949,1.617-.672,1.821-1.136,1.517-1.313,1.386-1.169,1.483-.929,1.694-1.376,1.323-1.263,1.4-1.032,1.614-1.28,1.4-1.239,1.44-1.219,1.46-1.216,1.46-1.517,1.189-1.166,1.52-.444.214,1.59,2.088.331-.04.1-.184,1.711-.758,1.811-.565,1.41-1.32,1.62-.925,1.844-.565,1.477-1.163,1.664-.889,1.5-1.129,1.523-1.082,1.193-1.5,1.767-.812,1.3-1.356,1.3-1.343,1.092-1.533,1.57-1.109.852-1.727,1.406-1.089,1.624-.254,1.687-.027,1.731-.063-1.092,1.737-.818,1.724-.992,1.624-.986,1.63-1.052,1.6L150.667,180l-1.136,1.543-1.193,1.49-1.246,1.443-1.614,1.116-1.052,1.634-1.313,1.386-1.53,1.176-1.51,1.189-1.129,1.584-1.59,1.1-1.493,1.189-1.283,1.433-1.55,1.136-1.544,1.139-1.557,1.123-.184.444,1.754,2.285.337-.05,1.814-.635,1.7-.889,1.687-.9,1.7-.885,1.52-1.2,1.707-.862,1.821-.692,1.39-1.373,1.6-1.039,1.721-.879,1.413-1.323,1.64-1.009,1.273-1.46,1.35-1.353,1.386-1.306,1.54-1.163,1.447-1.266,1.273-1.44,1.153-1.527,1.169-1.517,1.3-1.417,1.129-1.54,1.1-1.567.979-1.644.885-1.694,1.042-1.771,1.764.114,1.707.077,1.7-.177,1.627.431-.755,1.46-.595,1.8-.662,1.781-1.009,1.614-.872,1.667-1.049,1.574-.889,1.67-1.2,1.477-1.266,1.41-.989,1.61-1.4,1.286-1.229,1.423-1.032,1.594-1.356,1.323-1.477,1.186-1.022,1.647-1.467,1.206-1.617,1.019-1.166,1.533-1.587,1.052-1.513,1.133-1.537,1.092-1.4,1.269-1.607,1.016-1.266,1.467-1.59,1.029-1.64.952-1.423,1.266-.2.017.471,1.35.976,1.079-.08-.14,1.824-.558,1.851-.535,1.767-.712,1.884-.434,1.71-.875,1.59-1.123,1.878-.511,1.731-.835,1.493-1.239,1.637-.976,1.714-.865,1.433-1.269,1.711-.9,1.44-1.236,1.483-1.193-.023.341,1.884.394,1.784.675,1.844.555,1.614,1.032,1.614,1.016,1.477,1.256.588,1.847,1,1.684-.144,1.951.378,1.881-.1.347.321-.324,1.911.027,1.924.207,1.868-.651,1.958.247,1.814-.658,1.914-.277,1.61-1.072L194,207.7l1.453-1.2,1.393-1.32.966-1.657.9-1.68.568-1.824.852-1.714.431-1.854.264-1.9.638-1.811.424-1.864-.073-1.944.241-1.891.715-1.814-.06-1.924.388-1.874.21-1.894.063-1.914.281-1.884.01-1.921.511-1.741,1.774-.915,1.483-1.5,1.146-1.6-.849-1.4-.862-1.44-1.48-1.052-1.336-1.2-1.547-.979-1.156-1.423-1.383-1.176-1.5-1.032-.334-.347-1.553-.538-1.61,1.026-1.233,1.176-.919,1.393-1.019,1.336-.775,1.567-1.9.09-1.847.05-1.851-.371-1.854-.073-1.854.013-1.854.087-1.851-.053-1.857.187h-1.854l-1.851.144-1.851-.114-1.854.224-1.854-.334-1.854.06-1.861.277-1.851-.317-1.861.08-1.861.09-1.924.057,1.3-1.467.805-1.577.661-1.647.979-1.447.849-1.684,1.958.321,1.911-.357,1.908.007,1.908.284,1.908-.244,1.911.057,1.918.327,1.908-.4,1.911.444h1.914l1.908-.508,1.918.471,1.921-.371,1.908.207,1.908-.347,1.911.381,1.921.08,1.908.04,1.911-.337,1.921.074,1.911.087,1.924.064,1.918.1,1.921.043,1.687-.468,1.447-.765.748-1.423-.481-1.6Zm-24.061-16.9-.107,1.724-1.831-.077-1.854.134-1.858.14-1.854-.134-1.858.207-1.861.03-1.851-.408-1.851-.04-1.864.16-1.851-.04-1.861-.06-1.864.307h-1.851l-1.864-.207-1.868.083-1.874-.06-.03-1.761.2-1.757-.247-1.757.023-1.757.1-1.724,1.824.043,1.857-.164,1.858-.16L162,127.1l1.861.084,1.854.013,1.854.327,1.848-.14,1.864-.047,1.851-.05L175,127.1l1.861.237,1.857-.261,1.864.114,1.861-.02,1.958.077-.1,1.844-.251,1.754.411,1.754Zm-.02-13.327-1.918-.09-1.854-.067-1.858.13-1.854.15-1.858-.134-1.861.207-1.851.03-1.851-.4-1.864-.043-1.851.164-1.861-.043-1.864-.057-1.851.3h-1.864l-1.868-.207-1.914.067.04-2.118-.03-2.071.2-2.081-.224-2.132,1.921-.007,1.857.1,1.858.033L162,112.6l1.861-.16,1.854.013,1.854.08,1.848.013,1.864.331,1.851-.14,1.861-.05,1.861-.05,1.857-.184,1.864.224,1.858-.251,1.964.18-.107,2.148-.251,2.078.411,2.075Zm-7.617,67.576,1.082-1.637,1.042-1.66,1.139-1.584,1.149-1.58,1.052-1.647,1.286-1.51.845-1.774.882-1.747.842-1.761.7-1.831,1.046-1.657,1.8-.264,1.821.124.07.494-.307,1.837-.421,1.824.227,1.884-.254,1.847-.337,1.838-.294,1.834L190,183.518l-.137,1.861-.444,1.821-.16,1.878-.378,1.831-.9,1.677-.775,1.684-1.3,1.286-1.837.421-1.9.043-2.038.237-2.031-.077-2.025-.291-2.038.013-2.035-.13-2.068-.084,1.57-1.239,1.213-1.557,1.363-1.407,1.373-1.386Z" transform="translate(291.621 234.438)" fill="#2a4f2c"/><path d="M146.316,177.553l1.33-1.276,1.664-.815,1.346-1.239,1.564-.972,1.43-1.133,1.36-1.216,1.457-1.363-1.012-1.189-.347-1.47-1.851.952-1.847.641-1.874.545-1.908.431-1.744.905-1.831.284-.167-1.831-.117-1.868.271-1.874.094-1.871-.053-1.878.05-1.864-.431-1.878.481-1.874-.468-1.868.264-1.871.067-1.874-.13-1.878-.187-1.868.364-1.881-.284-1.878.374-1.878-.351-2,2.018-.05,1.9.254,1.9.117,1.9-.488,1.9.043,1.9.411,1.61-.6,1.557-.408.882-1.463-1.38-2.512-1.119-1.477-1.55-1.072-1.1-1.507-1.433-1.186-1.123-1.49L149.4,126l-1.6,1.664-1.5,1.36-.855,1.787-1.129,1.574-.628.154.4-1.951-.354-1.888.444-1.884-.381-1.881,0-1.888.147-1.891.017-1.884-.01-1.888.05-1.894.134-1.891-.337-1.894.194-1.9.033-1.871,1.734-.819,1.711-.945.962-1.657-1.163-1.59-1.9-.815-.424-.261-1.817.027-1.784-.134-1.781-.227-1.761-.444-1.841.327-1.781-.254-1.794-.164-1.747-.595-.267.224-.067.254.4,1.821-.157,1.874.144,1.844.02,1.854.254,1.851-.3,1.851.314,1.848-.017,1.861.067,1.864-.2,1.864-.144,1.861.013,1.871.087,1.861.147,1.874-.337,1.868.114,1.874.207,1.921-2.128.107-2.015-.354-2,.127-2.008.2-2-.241-1.991-.311-2-.144-.464.07.535,1.731.885,1.6.725,1.657.367,1.8.217.027.1-.067,2.011.13,2-.154,2,.321,2.015-.454,2,.287,1.63-.023.22,1.851-.267,1.861-.057,1.871-.03,1.858.261,1.874-.384,1.861.05,1.864.478,1.868-.08,1.864.057,1.864-.251,1.864.074,1.861,0,1.864-.337,1.868.09,1.874.174,1.861.087,1.871-.177,1.881.16,1.888-1.817.408-1.727.531-1.777.334-1.8.18-1.8.144-1.744.471-1.791.15-1.774.284-.261-.043.9,1.784.528,1.951.765,1.864.8,1.847.905,1.791.718,1.894.892,1.811.641,1.914.164.488.969,1.687,1.457.909,1.313-.885.531-1.63.5-1.594,1.376-1.249,1.6-1.123,1.567-1.159,1.794-.809,1.567-1.159,1.594-1.116,1.667-1.016,1.734-.945,1.413-1.413,1.6-.892,1.42-1.149Z" transform="translate(272.24 234.982)" fill="#2a4f2c"/><path d="M188.124,71.705l-.371,1.918-.715,1.817-.875,1.747-.331,1.954-1,1.687-.538,1.891-1.026,1.674-.839,1.767-.595,1.871-.658,1.844L180.056,91.5l-.929,1.717-.635,1.864-.829,1.771-1.072,1.64-.778,1.8-1.193,1.584-1.116,1.617-.12.374,2.1,1.667.174.277.244-.194,1.614-1.009,1.42-1.273,1.694-.885,1.44-1.239,1.306-1.4,1.54-1.106,1.373-1.3,1.333-1.353,1.393-1.273,1.507-1.173,1.413-1.273,1.35-1.33,1.29-1.393.875-1.751,1.306-1.376,1.477-1.226,1.293-1.386,1-1.627,1.133-1.577,1.771-.127,1.674-.214,1.463-.561.715-1.343L206.81,76.9l-1.346-.962-1.457-.8L202.5,74.051l-1.878-.378-1.433-1.253-1.657-.8-1.827-.481-1.6-.922-1.49-1.133-1.711-.722-1.721-.638.07.241-.752,1.827Z" transform="translate(405.87 158.538)" fill="#2a4f2c"/><path d="M157.154,73.987l1.056,1.61,1.022,1.627.715,1.794.925,1.684,1.163,1.574.655,1.824.832,1.734.8,1.764.7,1.8.2,1.968.942,1.724.478,1.878.307,1.767.458,1.731L168.38,100l.755,1.6.925,1.577,1.667.765,1.781.023,1.69-.337,1.674-.491,1.457-.992,1.5-1.026.959-1.55.515-1.744.454-1.737.2-1.8-.461-1.851-.347-1.831-.4-1.824L180,87.063l-1.069-1.533-.882-1.66-.979-1.6-1.189-1.46-1.634-1.029-1.206-1.44-1.293-1.38-1.624-.969-1.467-1.173-1.67-.875L165.5,72.791l-1.553-1.052-1.7-.812-1.65-.879-1.6-.969-1.734-.692-.3-.234-2.172,1.921.521.541.949,1.67Z" transform="translate(362.333 159.538)" fill="#2a4f2c"/><path d="M268.417,129.442l-1.283-1.133-1.139-1.53-1.43-1.206-1.223-1.427-1.407-1.226-1.644-.982-1.1-1.577-1.43-1.233-1.249-1.4-2.5-1.133-2.352,1.437-.829,1.948-1.3,1.637-1.106,1.767-1.333,1.627-1.082,1.674-1.731.057-1.844.264-1.838-.017-1.841.164-1.848-.474-1.841.327-1.841-.1-1.841.074-1.841.027-1.844-.067-1.848-.237-1.844-.033-1.844.047-1.844.364-1.858-.221-1.69-.144L216.37,125l.468-1.878-.381-1.871-.08-1.881.388-1.881-.368-1.871.484-1.878-.418-1.881.144-1.881-.15-1.871.09-1.878.16-1.881-.027-1.878.15-1.881-.11-1.881,0-1.881-.241-1.878,0-1.878.067-1.881.22-1.881-.311-1.878.05-1.888.231-1.881.067-1.878-.334-1.9.05-1.978,1.991-.033,1.9.384,1.9-.244,1.9.09,1.9-.2,1.9.067,1.9.12,1.9-.17,1.9.227,1.9-.384,1.9.491,1.908-.074,1.894-.13,1.9-.027,1.9.027,1.9-.13,1.9.16,1.9-.2,1.908-.1h1.908l1.911.214,1.908-.14,1.65-.4,1.346-.859.695-1.493-.294-1.754-1.129-1.393-1.547-1.049-1.477-1.123-1.246-1.383-1.51-1.082-1.123-1.507-1.49-1.126-1.507-1.116-1.266-1.363-2.3-1.126-2.152,1.143-1.179,1.69-1.2,1.684-.835,1.928-1.1,1.754-1.263,1.7-1.928-.354-1.878.464-1.881-.134-1.881-.157-1.878.067-1.884.224-1.881.087-1.884-.478-1.888.3-1.884.13-1.881-.3-1.881-.047-1.884.22-1.888-.174-1.888.043-1.884.277L207.5,70.8l-1.884.2-1.884-.1-1.891.077-1.888-.321-1.881.307-1.894.147-1.884-.274-1.888.334-1.887-.207-1.894-.12-1.888-.04-1.881.107-1.894.067-1.888-.117h-1.891l-1.894.157-1.891.1-1.891-.367-1.9.184-1.894.2-2.011-.16-2.008-.251-2.011.2-2-.127-1.985-.3-1.978-.324-.688.251.732,2.021.885,1.928.334,2.095.585,2.015.231.251.277-.314,1.881.124,1.821-.558,1.891.4,1.844-.09,1.847-.558,1.934.518,1.931-.043,1.938-.381,1.931.381,1.934-.424,1.938.474,1.934-.13,1.931-.311,1.931.294,1.938-.277,1.934.2,1.938.023,1.944-.13,1.931-.134,1.941.488,1.948-.494,1.948.207-.224,1.878.264,1.881-.287,1.881.17,1.868.14,1.881.187,1.871-.344,1.881.007,1.878.16,1.881-.073,1.878-.077,1.871-.12,1.888-.053,1.878.027,1.884.434,1.881-.378,1.878.311,1.871-.03,1.881-.05,1.881.157,1.878-.254,1.881-.231,1.884.381,1.881-.3,1.888-.017,1.891.241,1.934-1.948-.017-1.911-.137-1.9.354-1.9-.374-1.9.02-1.908-.14-1.911.033-1.908.314-1.9-.157-1.908-.19-1.9.3-1.908.157-1.908-.07-1.908-.06-1.911-.137-1.911-.01-1.9.05-1.914-.247-1.914.074-1.921-.08-2.011.324-2.015.14-1.994-.21-2-.2-2-.117-2-.04-.518-.124.942,1.894.538,2,.635,1.978.661,1.961-.06.224.19-.027,1.847-.2,1.858-.04,1.858-.107,1.864.174,1.844-.494,1.918.4,1.924-.461,1.928.367,1.918.164,1.924-.254,1.928-.074,1.928-.134,1.921.234,1.928-.094,1.928.291,1.918-.3,1.921-.074,1.928-.117,1.924.307,1.928.19,1.934-.023,1.924-.464,1.931.2,1.931-.164,2.085.073-.047,2.135-.294,1.988.063,2,.023,1.978.287,2-.22,1.995.134,1.995.09,1.994-.3,2,.3,1.938-.294,1.931-.107,1.941.307,1.954-.037,1.954-.117,1.934-.07,1.954-.18,1.938.324,1.934-.431,1.938.084,1.894,1.1,1.554,1.68.782,1.864.174,1.934-.314,1.921-.137,1.914-.254,1.941-.351,1.547-1.246.755-1.764.414-1.891.013-1.817-.13-1.807-.11-1.821L216.5,162.4l.033-1.934.331-1.934-.254-1.928.074-1.928-.107-1.931,0-1.914.227-1.871-.254-1.871-.01-1.868.274-1.871-.4-1.881.2-1.871-.007-1.871.17-1.881-.227-1.954,1.934.347,1.861-.027,1.874-.354,1.868.1,1.864-.217,1.864.254,1.864-.271,1.871.254,1.871.114,1.861-.047,1.868.147,1.874-.04,1.864-.331,1.874.314,1.868-.05,1.868.043,1.864-.3,1.867-.007,1.868.2,1.871-.13,1.871-.127,1.871.251,1.874-.184,1.874.231,1.881.05,1.878.134,1.737-.545,1.6-.862.408-1.771Z" transform="translate(354.821 142.999)" fill="#2a4f2c"/><path d="M253.549,108.922l-1.413-1.383-1.67-1.046-1.336-1.477-1.714-1.006-1.513-1.243-1.48-1.313-2.369-.692-2.469,1.042-.742,1.527-.952,1.386-.942,1.393-.962,1.273-1.777.224-1.874-.017-1.871.144-1.874-.327-1.874.287-1.881-.157-1.874-.09-1.878-.07-1.867.287-1.878-.117-1.878.1-1.874.11-1.884-.448-1.874.357-1.874-.144-1.874.3-1.878-.294-1.881.284-1.881-.351-1.878-.09-1.878.3-1.881-.234-1.884-.07-1.874-.01-1.891-.08-1.871.271L185.4,107.4l-1.881.311-1.881-.244-1.881-.15-1.881-.023-1.881.327-1.891-.311-1.888.18-1.854-.107-1.647-.728-1.734-.6-1.747-.561-1.724-.641-1.7-.661-1.664-.782-1.8-.441-1.574-1-1.848-.344-.364-.471-.077.518.6,1.951-.321,2.041.321,1.991.234,1.995L155,111.679l.284,2,.11,2.015-.274,2.015.234,1.9.047,1.914-.013,1.9-.127,1.9.037,1.9-.18,1.908.384,1.914-.017,1.911.043,1.9-.558,1.918.461,1.9-.257,1.911.154,1.9-.057,1.911.08,1.911-.334,1.914.287,1.9-.317,1.911.094,1.914.274,1.918-.2,1.9-.023,1.918.027,1.918-.017,1.918.384,1.908-.047,1.908-.434,1.924-.037,1.9.347,1.911-.331,1.921.023,1.908.291,1.914.18,1.921-.418,1.911-.067,1.921.09,1.928-.117,1.924.224,2.1.023,2.1-.04,2.108.027,2.118-.488,2.142.231,2.165-.291,2.155.177,1.827,1.31,1.163,1.58.692,1.8.324,2-.347,1.978-.167,1.971-.291,1.751-.892,1.7-1.072.331-2-.067-1.978.364-1.48-.274-1.687,2.088.234,1.911.207,1.911-.214,1.908.254,1.918-.174,1.921-.05,1.914.05,1.914-.094,1.918.043,1.914-.3,1.908.535,1.921-.244,1.921.057,1.921.134,1.911-.167,1.918-.224,1.921.291,1.914.053,1.921-.2,1.918-.184,1.928.381,1.911-.184,1.924.01,1.924.007,1.918.251,1.921-.3,1.914-.214,1.921.057,1.921.18,1.924.257,1.924-.117,1.918-.037,1.931-.2,1.928.214,2.025-.2.027,1.878-.174,1.771-.167,1.754.808,1.6.959,1.219,1.5.889,1.761-.03,1.777.094,1.784-.067,1.694-.648,1.754-.337,1.607-.845.935-1.553.551-1.724-.364-1.751.17-1.777-.344-1.767.08-1.767-.12-1.824.08-1.834-.023-1.824.074-1.824-.177-1.817.114-1.908.157-1.888-.341-1.894.21-1.891.194-1.891-.344-1.9v-1.9l.261-1.894-.448-1.9.535-1.894-.545-1.9.4-1.894-.267-1.9-.02-1.908.247-1.891.107-1.9-.261-1.894.324-1.9-.147-1.9-.144-1.9.19-1.9-.02-1.9-.341-1.9.18-1.9v-1.914l.06-1.9.033-1.894-.237-1.894.04-1.911-.023-1.908.374-1.9-.241-1.9.15-1.908-.08-1.911-.2-1.911.12-1.921,1.67-.772,1.306-1.266,1.383-1.169.561-1.7-.758-1.821Zm-57.416,64.5-.023,1.938-.017,1.938-.11,1.944.244,1.934-.023,1.944.144,1.944-.321,1.948.287,1.951-.15,1.948-1.9-.1-1.9-.074-1.9.281-1.9-.11-1.9.1-1.9.1-1.9-.441-1.908.364-1.908-.15-1.908.3-1.9-.294-1.911.291-1.908-.354-1.784-.04-.257-1.814.227-1.934.08-1.938.007-1.944.08-1.938-.274-1.944.157-1.938-.307-1.944.244-1.938.154-1.938.027-1.941-.337-1.941.317-1.941-.19-1.944.114-1.951.06-1.941-.1-1.944-.137-1.954,1.908-.047,1.9-.027,1.9.11,1.911-.264,1.9.337,1.9-.381,1.9.344,1.9.09,1.9-.391,1.908.464,1.908-.214,1.908-.167,1.918.347,2.011-.311-.164,2.048.2,1.934-.334,1.938.267,1.944-.053,1.941-.127,1.941.344,1.941-.5,1.944ZM195.9,129.8l.231,1.941-.023,1.934-.017,1.941-.11,1.944.244,1.938-.023,1.944.144,1.951-.321,1.941.287,1.951-.15,1.941-1.9-.1-1.9-.067-1.9.287-1.9-.114-1.9.1-1.9.107-1.9-.431-1.908.347-1.908-.144-1.908.3-1.9-.3-1.911.291-1.908-.351-1.784-.043-.257-1.814.227-1.938.08-1.934.007-1.951.08-1.931-.274-1.948.157-1.934-.307-1.941.244-1.941.154-1.934.027-1.948-.337-1.934.317-1.948-.19-1.938.114-1.941.06-1.954-.1-1.951-.137-1.948,1.908-.05,1.9-.02,1.9.1,1.911-.261,1.9.334,1.9-.374,1.9.341,1.9.1,1.9-.4,1.908.468,1.908-.21,1.908-.167,1.918.351,2.011-.321-.164,2.045.2,1.938-.334,1.948.267,1.931-.053,1.948-.127,1.938.344,1.944Zm40.705,43.625-.023,1.938-.017,1.938-.114,1.944.251,1.934-.03,1.944.154,1.944-.327,1.948.291,1.951-.157,1.948-1.894-.1-1.908-.074-1.9.281-1.914-.11-1.9.1-1.9.1-1.908-.441-1.9.364-1.908-.15-1.911.3-1.911-.294-1.911.291-1.911-.354-1.784-.04-.257-1.814.224-1.934.08-1.938.007-1.944.084-1.938-.281-1.944.164-1.938-.307-1.944.241-1.938.154-1.938.023-1.941-.331-1.941.311-1.941L210,163.749l.1-1.951.073-1.941-.1-1.944-.134-1.954,1.9-.047,1.911-.027,1.9.11,1.908-.264,1.908.337,1.9-.381,1.911.344,1.9.09,1.911-.391,1.9.464,1.908-.214,1.911-.167,1.924.347,2.015-.311-.167,2.048.2,1.934-.327,1.938.257,1.944-.05,1.941-.12,1.941.341,1.941-.5,1.944ZM236.38,129.8l.227,1.941-.023,1.934-.017,1.941-.114,1.944.251,1.938-.03,1.944.154,1.951-.327,1.941.291,1.951-.157,1.941-1.894-.1-1.908-.067-1.9.287-1.914-.114-1.9.1-1.9.107L223.308,149l-1.9.347-1.908-.144-1.911.3-1.911-.3-1.911.291-1.911-.351-1.784-.043-.257-1.814.224-1.938.08-1.934.007-1.951.084-1.931-.281-1.948.164-1.934-.307-1.941.241-1.941.154-1.934.023-1.948-.331-1.934.311-1.948L210,122.072l.1-1.941.073-1.954-.1-1.951-.134-1.948,1.9-.05,1.911-.02,1.9.1,1.908-.261,1.908.334,1.9-.374,1.911.341,1.9.1,1.911-.4,1.9.468,1.908-.21,1.911-.167,1.924.351,2.015-.321-.167,2.045.2,1.938-.327,1.948.257,1.931-.05,1.948-.12,1.938.341,1.944Z" transform="translate(361.615 235.875)" fill="#2a4f2c"/></g></svg>