<svg xmlns="http://www.w3.org/2000/svg" width="175.132" height="183.786" viewBox="0 0 175.132 183.786">
  <g id="グループ_3627" data-name="グループ 3627" transform="translate(-110.414 -163.242)">
    <path id="パス_6455" data-name="パス 6455" d="M285.546,267.558a4.315,4.315,0,0,1-4.314,4.316H114.726a4.313,4.313,0,0,1-4.312-4.316v-36.07a4.311,4.311,0,0,1,4.312-4.312H281.232a4.313,4.313,0,0,1,4.314,4.314v36.068" transform="translate(0 75.154)" fill="#a9853a"/>
    <path id="パス_6456" data-name="パス 6456" d="M276.847,245.16a81.918,81.918,0,1,1-81.921-81.918,81.922,81.922,0,0,1,81.921,81.918" transform="translate(3.052 0)" fill="#a9853a"/>
    <path id="パス_6457" data-name="パス 6457" d="M133.117,248.484a3.5,3.5,0,0,0,.637.065c.131,0,.415,0,.415-.311,0-.2-.154-.333-.35-.444l-1.647-.84h2.722c.152,0,.57,0,.57-.4a.6.6,0,0,0-.263-.487l-1.536-1.375a.371.371,0,0,0,.176-.333.8.8,0,0,0-.263-.487l-1.384-1.266h2.326c.154,0,.572,0,.572-.418a.761.761,0,0,0-.241-.468l-1.492-1.4a1.1,1.1,0,0,0,.022-.265c0-.268-.046-1.619-.046-1.908v-2.084c.287-.178.835-.463.835-.777,0-.244-.154-.376-.328-.531l-1.471-1.264a.591.591,0,0,0-.372-.178c-.154,0-.22.087-.331.22l-.722.933h-1.932v-.62c.614-.222.811-.333.811-.555,0-.287-.329-.333-.526-.355l-2.524-.311c.065.866.087,1.751.087,1.84h-2.193v-.62c.613-.222.811-.289.811-.577,0-.265-.35-.311-.526-.333l-2.545-.311c.087.866.087,1.751.087,1.84h-1.821l-2.5-.953c.067.687.067,2.019.067,2.173v2.55c0,.287-.046,1.73-.046,2.038,0,.355.022.424.176.557l-1.118-.466c.043.885.065,1.906.065,2.33v2.015c0,4.682-.811,6.72-1.777,8.493l.35.265a9.954,9.954,0,0,0,3.557-6.518l2.28,0v3.679c-1.031.067-1.492.067-2.545.067l.9,2.482c.109.311.218.444.416.444.285,0,.35-.289.418-.622a61.41,61.41,0,0,0,7-2.528l-.087-.442c-1.251.2-2.217.309-3.862.442v-3.522h2.2c.7,1.682,2.391,4.721,7.81,6.429a3.257,3.257,0,0,1,1.932-2.171v-.446a18.74,18.74,0,0,1-5.354-1.242c1.009-.355,1.93-.755,2.567-1.04m-4.1-11.643v-1.22h2.171v1.22Zm0,2.441v-1.288h2.171v1.288Zm-4.344-2.441v-1.22h2.193v1.22Zm0,2.441v-1.288h2.193v1.288Zm-4.3-2.441v-1.22h2.149v1.22Zm0,2.441v-1.288h2.149v1.288Zm-1.712,1.682a1.734,1.734,0,0,0,.35.024c.109,0,1.142,0,1.338-.557h10.84c.024.178.065.557.922.444l-.418.579h-11.8Zm.922,4.836c.041-.511.041-.731.041-1.307V242.6h11.654l-.746,1.025H122.89c-.877,0-1.558-.046-2.215-.091l.416,1.329a16.781,16.781,0,0,1,1.734-.087h9.942L132,245.8Zm9.962,3.261a8.1,8.1,0,0,1-2.634-2.106h4.477A9.076,9.076,0,0,1,129.54,249.061Z" transform="translate(6.027 81.562)" fill="#fff"/>
    <path id="パス_6458" data-name="パス 6458" d="M141.392,238.824h4.542c.154,0,.5,0,.5-.418a.637.637,0,0,0-.244-.468l-1.753-1.662a.53.53,0,0,0-.394-.2c-.089,0-.2.02-.331.22l-.964,1.375h-1.6v-3.727c.724-.244.79-.442.79-.6,0-.289-.352-.333-.616-.379l-2.565-.333c.065.888.109,1.684.109,2.6v2.439h-1.447c-.9,0-1.582-.046-2.217-.091l.044.181-1.164-1.331c-.109-.133-.22-.244-.35-.244-.154,0-.22.089-.352.268l-.809,1.218h-.727V233.9c.659-.222.79-.379.79-.6,0-.287-.329-.333-.613-.376l-2.545-.311a21.589,21.589,0,0,1,.109,2.617v2.439h-1.579c-.9,0-1.579-.046-2.215-.091l.372,1.334c.746-.065,1.229-.091,1.712-.091h1.514a32.65,32.65,0,0,1-3.862,9.694l.35.287a19.658,19.658,0,0,0,3.707-4.967v5.254c0,.489-.041,2.974-.041,3.526s.041.755.679.755c1.69,0,1.69-.6,1.69-1.02,0-.555-.067-3.3-.067-3.949v-7.34a10.275,10.275,0,0,1,1.56,2.972c.174.6.329,1.066.92,1.066.4,0,1.1-.287,1.1-1.375,0-2.263-3.4-3.413-3.579-3.483v-1.421h3.27a.5.5,0,0,0,.4-.109l.065.2a15.289,15.289,0,0,1,1.712-.091h1.229a27.467,27.467,0,0,1-5.267,10.336l.329.287a17.232,17.232,0,0,0,5.289-5.941v5.567c0,.574-.044,3.168-.044,3.57,0,.507.022.731.657.731,1.712,0,1.712-.6,1.712-1.02,0-.555-.044-3.3-.044-3.949v-7.982a21.457,21.457,0,0,0,3.8,8.983,3.875,3.875,0,0,1,1.777-2.33l.044-.444a19.763,19.763,0,0,1-5.376-7.808" transform="translate(17.766 81.55)" fill="#fff"/>
    <path id="パス_6459" data-name="パス 6459" d="M150.286,241.93a27.108,27.108,0,0,0,5.025-3.35,1.976,1.976,0,0,0,.613.157c.176,0,.35-.065.35-.311a.9.9,0,0,0-.35-.553l-2.26-2.2a21.8,21.8,0,0,1-3.861,5.434,21.526,21.526,0,0,1-2.2-6.011v-1.155c.616-.263.814-.331.814-.642,0-.265-.331-.333-.572-.355l-2.765-.333a24.634,24.634,0,0,1,.111,2.617v3.99a1.028,1.028,0,0,0-.307-.4l-1.625-1.573c-.22-.176-.328-.244-.439-.244-.131,0-.218.046-.394.265l-.857,1.044h-2.785c-.879,0-1.538-.046-2.219-.089l.463,1.329a15.941,15.941,0,0,1,1.645-.087h2.963a20.618,20.618,0,0,1-1.975,5.722,24,24,0,0,1-3.862,5.565l.261.355c5.071-2.641,7.177-7.671,7.988-10.908.966-.313,1.031-.444,1.142-.69v10.068c0,.444-.111.574-.7.555l-3.091-.067v.444c2.456.931,2.809,1.064,2.874,2.9,2.632-.2,3.4-.82,3.4-2.528,0-.422-.067-2.55-.067-3.037v-9.759c1.536,7.386,4.895,11.286,7.218,12.909a3.819,3.819,0,0,1,1.975-2.484v-.446c-.568-.244-3.553-1.462-6.516-6.141" transform="translate(29.846 81.55)" fill="#fff"/>
    <path id="パス_6460" data-name="パス 6460" d="M162.267,245.184c-.111-.087-.263-.22-.4-.22a.461.461,0,0,0-.35.244l-1.1,1.6h-3.335v-2.639h5.154c.178,0,.529,0,.529-.422a.7.7,0,0,0-.242-.487l-1.777-1.686a.6.6,0,0,0-.4-.222c-.131,0-.218.091-.328.244l-.986,1.421h-1.954v-2.482h5.552c.152,0,.526,0,.526-.424a.852.852,0,0,0-.263-.531l-1.669-1.64a.615.615,0,0,0-.374-.2c-.174,0-.263.154-.326.241l-.966,1.4h-2.48v-1.44c.592-.268.833-.376.833-.666s-.328-.333-.548-.355l-2.787-.333c.065.888.087,1.864.087,2.417v.376h-2.282c.2-.42.285-.6.461-1.02.679-.13.811-.289.811-.485,0-.287-.374-.4-.548-.446l-2.545-.62a25.485,25.485,0,0,1-2.149,7.316l.372.2a14.875,14.875,0,0,0,2.985-3.79h2.9v2.482h-2.106c-.879,0-1.558-.043-2.2-.089l.418,1.329a14.591,14.591,0,0,1,1.71-.087h2.173V246.8h-4.784c-.877,0-1.579-.044-2.215-.089l.44,1.331a14.207,14.207,0,0,1,1.71-.089H163.89c.287,0,.572-.111.572-.42a.809.809,0,0,0-.285-.533l-1.91-1.821" transform="translate(43.801 86.211)" fill="#fff"/>
    <path id="パス_6461" data-name="パス 6461" d="M150.307,240.866h15.339c.2,0,.57-.048.57-.424a.846.846,0,0,0-.285-.531l-1.886-1.795c-.089-.067-.244-.222-.4-.222s-.263.131-.35.244l-1.033,1.573h-3.2a15.289,15.289,0,0,0,2.062-1.973c.657-.065,1.031-.111,1.031-.444,0-.154-.065-.309-.548-.466l-1.471-.509H165.1c.178,0,.572-.044.572-.442a.718.718,0,0,0-.285-.511l-1.91-1.84a.659.659,0,0,0-.394-.2.45.45,0,0,0-.352.244l-1.1,1.6h-4.366v-1.2c.681-.287.833-.424.833-.666,0-.265-.241-.333-.57-.376l-2.809-.311c.065.866.087,1.706.087,2.552h-5.769c-.879,0-1.582-.046-2.217-.091l.437,1.331a12.708,12.708,0,0,1,1.714-.089h1.862l-.044.022a9.77,9.77,0,0,1,.966,1.684,16,16,0,0,0,.724,1.686h-1.951l-2.787-1.151c.087,1.329.087,2.639.087,2.859v2.062c0,5.635-.857,7.475-1.777,9.494l.35.241c3.905-3.348,3.905-8.867,3.905-10.645v-1.706m1.492-4.547h7a12.525,12.525,0,0,1-1.053,3.392H154.41a.936.936,0,0,0,.309-.729C154.719,237.627,152.94,236.829,151.8,236.32Z" transform="translate(41.892 81.55)" fill="#fff"/>
    <path id="パス_6462" data-name="パス 6462" d="M167.617,240.5h8.58c.131,0,.57,0,.57-.42a.768.768,0,0,0-.285-.533l-2.084-1.975a.845.845,0,0,0-.394-.2c-.133,0-.222.041-.352.244l-1.14,1.73H167.2c.091-1.753.133-2.617.154-5.321.616-.222.9-.333.9-.646,0-.263-.241-.331-.616-.374l-2.985-.355a31.4,31.4,0,0,1,.111,3.213c0,1.575-.043,2.373-.131,3.483h-6.146c-.877,0-1.579-.046-2.217-.087l.442,1.327a14.553,14.553,0,0,1,1.71-.087h6.1c-.437,2.926-1.251,8.447-8.206,12.418l.174.422c9-2.286,10.073-9.292,10.577-12.555.527,4.527,1.932,9.518,7.351,12.331a3.714,3.714,0,0,1,2.48-2.326l.044-.444a13.261,13.261,0,0,1-9.326-9.846" transform="translate(53.906 81.587)" fill="#fff"/>
    <path id="パス_6463" data-name="パス 6463" d="M183.526,248.92a.616.616,0,0,0-.4-.2.432.432,0,0,0-.35.246l-1.053,1.551H177.1v-4.5h3.862v.357c0,.509,0,.777.768.777,1.821,0,1.821-.6,1.821-.933,0-.067-.067-2.173-.067-2.571V240.8c.309-.176.881-.509.881-.864,0-.178-.046-.313-.374-.576l-1.69-1.377a.983.983,0,0,0-.394-.176.5.5,0,0,0-.4.244l-.746,1.044H177.1V235.48h7.5c.22,0,.681,0,.681-.418a.561.561,0,0,0-.263-.466l-1.951-1.686a.582.582,0,0,0-.374-.2c-.176,0-.265.113-.374.246l-.964,1.375H170.031l-2.963-1.286c.089.953.089,1.995.089,2.793v13.9c0,.444-.065,2.419-.065,2.8,0,.553.22.685.744.685a3.84,3.84,0,0,0,1.558-.268c.285-.155.285-.263.285-1.284H185.17c.2,0,.683,0,.683-.422a.725.725,0,0,0-.265-.466l-2.062-1.862M169.679,239.1V235.48h5V239.1Zm0,5.765v-4.614h11.28v4.614Zm5,1.151v4.5h-5v-4.5Z" transform="translate(66.597 81.657)" fill="#fff"/>
    <path id="パス_6464" data-name="パス 6464" d="M186.322,241c-2.086-.157-3.139-.178-4.653-.2l-.065.422a32.248,32.248,0,0,1,5.023,1.8c1.3.731,1.449.82,2,.82a1.062,1.062,0,0,0,1.164-1.022c0-1.551-2.434-1.751-3.466-1.817" transform="translate(83.682 91.172)" fill="#fff"/>
    <path id="パス_6465" data-name="パス 6465" d="M196.463,236.385l-1.582-1.44a.713.713,0,0,0-.372-.176.461.461,0,0,0-.352.2l-.768.82h-2.676a20.3,20.3,0,0,0,1.843-1.416c.526-.024.855-.048.855-.381,0-.109-.022-.263-.5-.42l-2.521-.777a10.158,10.158,0,0,1-1.055,2.993h-1.558v-1.84c.637-.263.835-.4.835-.664,0-.287-.331-.333-.594-.355l-2.741-.311c.087,1.418.087,2.663.087,2.75v.42h-1.954a1.022,1.022,0,0,0,.285-.731c0-1.129-1.843-1.884-3.883-2.2l-.176.4a6.134,6.134,0,0,1,1.316,1.421c.089.157.548.933.659,1.107h-2.35a5.713,5.713,0,0,0-.263-.972h-.437a5.6,5.6,0,0,1-1.449,2.748c-.524.555-.679.774-.679,1.153a1.032,1.032,0,0,0,1.164.977c.218,0,1.973,0,1.819-2.752h14.023c-.087.379-.309,1-.418,1.331l-1.492-1.086a.647.647,0,0,0-.372-.157.416.416,0,0,0-.35.2l-.594.644h-7.4l-2.456-.888c.065.753.065,1.373.065,1.951v.644c0,.287-.065,1.708-.065,1.838a.644.644,0,0,0,.065.357l-.964-.379c.065.888.065,1.71.065,2.243V248c0,.291-.065,1.71-.065,2.043,0,.4.065.62.746.62.57,0,1.534-.087,1.623-.62h.92a31.294,31.294,0,0,1-6.274,2.928l.131.42a26.041,26.041,0,0,0,8.054-1.886,1.93,1.93,0,0,0,.7.157c.285,0,.416-.157.416-.311,0-.222-.152-.376-.416-.509l-1.536-.8H191.2c.022.355.307.442.722.442,1.275,0,1.69-.352,1.69-.953,0-.265-.065-1.575-.065-1.884v-3.616c.748-.463.768-.642.768-.777,0-.22-.131-.374-.372-.574l-1.362-1.088c.067-.044.176-.154.176-.444,0-.154-.065-1-.065-1.2v-.4c.57-.333.79-.466.79-.733a14.379,14.379,0,0,0,1.867-1.305c1.294-.178,1.447-.2,1.447-.579,0-.133-.044-.287-.328-.555m-13.673,3.883v-1.244h7.484v1.244Zm8.384,7.584v1.042h-9.326v-1.042Zm0-2.176v1.02h-9.326v-1.02Zm0-2.171v1.02h-9.326v-1.02ZM191,242.352h-9.017l-.814-.289c.242,0,1.449,0,1.6-.644h7.5c.043.489.2.6,1.031.579Z" transform="translate(77.6 81.55)" fill="#fff"/>
    <path id="パス_6466" data-name="パス 6466" d="M152.188,205.064l-1.753-1.323-.044-.026a.839.839,0,0,0-.422-.161.582.582,0,0,0-.444.311l-.655,1h-8.3l-3.024-1.216.017.213c.083.925.083,1.777.083,2.678v12.718c0,.176-.022,1.007-.039,1.675-.013.481-.024.894-.024.957,0,.674.355.8.968.8,1.71,0,1.786-.442,1.786-1.355v-.255h8.682v.463c0,.748,0,1.125.82,1.125,1.8,0,1.954-.557,1.954-1.081,0-.2-.02-.764-.039-1.364s-.046-1.251-.046-1.479V206.674c.7-.509.883-.687.883-1a.843.843,0,0,0-.407-.613m-3.165,1.164v5.913H140.34v-5.913Zm0,7.268v6.233H140.34V213.5Z" transform="translate(31.897 47.387)" fill="#fff"/>
    <path id="パス_6467" data-name="パス 6467" d="M164.393,219.965l.052-.152a4.056,4.056,0,0,1,1.864-2.421l.072-.035v-.6l-.089-.028a14.844,14.844,0,0,1-8.458-7.527h7.473c.587,0,.677-.335.677-.531a.812.812,0,0,0-.294-.583l-2.01-1.882a.893.893,0,0,0-.47-.25.515.515,0,0,0-.42.257l-1.1,1.632h-4.5v-2.985c.594-.2.8-.374.8-.664,0-.2-.113-.457-.64-.507l-2.815-.337.035.618c.028.561.057,1.053.057,2.028v1.847h-6.272c-.881,0-1.562-.048-2.11-.087l-.189-.011.511,1.549.1-.011a13.8,13.8,0,0,1,1.625-.083h4.827a28.009,28.009,0,0,1-7.242,10.608l-.083.072.355.55.1-.052a19.572,19.572,0,0,0,8.376-8.332v5.8h-1.969c-.814,0-1.427-.041-2.091-.085l-.191-.015.513,1.551.1-.009a13.422,13.422,0,0,1,1.625-.085h2.01c0,.474-.017,1.571-.028,2.393-.009.533-.013.948-.013,1.02,0,.435,0,.849.82.849,1.706,0,1.849-.6,1.849-1.166,0-.1-.015-.855-.03-1.614-.015-.609-.028-1.214-.03-1.482h3.772c.161,0,.653,0,.653-.509a.956.956,0,0,0-.246-.553l-1.436-1.56a.723.723,0,0,0-.5-.3c-.235,0-.372.194-.485.355l-.8,1.214h-.957V209.91c1.553,4.756,3.751,7.854,7.064,9.975l.139.08" transform="translate(41.587 47.148)" fill="#fff"/>
    <path id="パス_6468" data-name="パス 6468" d="M176.168,209.479a.849.849,0,0,0-.294-.581l-2.093-1.925a.657.657,0,0,0-.448-.252.594.594,0,0,0-.463.313l-1.031,1.532h-13.3c-.829,0-1.5-.041-2.11-.083l-.189-.013.531,1.634.1-.011a13.746,13.746,0,0,1,1.625-.083h16.973c.463,0,.7-.178.7-.531" transform="translate(53.868 51.108)" fill="#fff"/>
    <path id="パス_6469" data-name="パス 6469" d="M158.615,181.325c.587.37.646.411,3.6,1.012,1.307.3,3.833,1.012,5.8,1.582a1.19,1.19,0,0,0,1.31-1.756c-2.265-3.424-5.576-5.724-8.515-5.756a3.074,3.074,0,0,0-3.255,2.7,2.428,2.428,0,0,0,1.062,2.217" transform="translate(55.402 15.474)" fill="#fff"/>
    <path id="パス_6470" data-name="パス 6470" d="M166.065,180.615c.938.9,2.713,2.763,4.092,4.231a1.187,1.187,0,0,0,1.98-.927c-.2-4.164-1.814-7.836-4.273-9.313a3.03,3.03,0,0,0-4.12.853,2.519,2.519,0,0,0-.233,2.467c.292.65.363.7,2.554,2.689" transform="translate(62.157 12.818)" fill="#fff"/>
    <path id="パス_6471" data-name="パス 6471" d="M173.073,188.49a1.173,1.173,0,0,0,2.162-.268c1.151-4.075.809-8.125-1.038-10.3a2.932,2.932,0,0,0-4.136-.435,2.676,2.676,0,0,0-1,2.323c.07.711.091.768,1.512,3.363.611,1.155,1.684,3.487,2.5,5.313" transform="translate(68.93 15.971)" fill="#fff"/>
    <path id="パス_6472" data-name="パス 6472" d="M175.095,193.064a1.147,1.147,0,0,0,2.141.178c2.045-3.766,2.608-7.83,1.331-10.36a2.845,2.845,0,0,0-3.888-1.3,2.657,2.657,0,0,0-1.473,2.075c-.111.714-.094.77.7,3.616.32,1.275.811,3.805,1.188,5.787" transform="translate(73.755 21.183)" fill="#fff"/>
    <path id="パス_6473" data-name="パス 6473" d="M182.374,188.055a2.48,2.48,0,0,0-2.841-2.282,2.421,2.421,0,0,0-1.895,1.334c-.322.579-.322.631-.561,3.287-.137,1.184-.524,3.492-.825,5.3a1,1,0,0,0,1.723.8c2.9-2.6,4.675-5.9,4.4-8.43" transform="translate(77.373 26.457)" fill="#fff"/>
    <path id="パス_6474" data-name="パス 6474" d="M185.122,192.957a2.491,2.491,0,0,0-4.492-1.69c-.4.516-.429.579-1.109,3.159-.329,1.157-1.105,3.372-1.721,5.117a1,1,0,0,0,1.564,1.062c3.309-2.108,5.6-5.089,5.759-7.647" transform="translate(79.143 31.741)" fill="#fff"/>
    <path id="パス_6475" data-name="パス 6475" d="M179.812,205.4c3.522-1.716,6.154-4.408,6.607-6.929a2.442,2.442,0,0,0-2.071-2.976,2.473,2.473,0,0,0-2.191.777c-.461.468-.492.52-1.475,3.015-.461,1.105-1.484,3.218-2.293,4.869a.994.994,0,0,0,1.423,1.244" transform="translate(79.784 37.875)" fill="#fff"/>
    <path id="パス_6476" data-name="パス 6476" d="M186.955,200.939a2.492,2.492,0,0,0-2.328.052c-.581.3-.627.339-2.341,2.4-.783.907-2.419,2.6-3.707,3.907a1,1,0,0,0,.962,1.629c3.885-.524,7.227-2.262,8.45-4.512a2.447,2.447,0,0,0-1.036-3.477" transform="translate(79.81 44.004)" fill="#fff"/>
    <path id="パス_6477" data-name="パス 6477" d="M172.7,199.991a2.446,2.446,0,0,0-3.109,1.864,2.479,2.479,0,0,0,.627,2.241c.437.489.485.524,2.906,1.671,1.073.537,3.115,1.7,4.708,2.621a.994.994,0,0,0,1.338-1.334c-1.475-3.635-3.988-6.442-6.47-7.064" transform="translate(69.49 43.089)" fill="#fff"/>
    <path id="パス_6478" data-name="パス 6478" d="M172.23,195.17a2.448,2.448,0,0,0-3.091,1.9,2.478,2.478,0,0,0,.655,2.232c.442.487.489.522,2.924,1.642,1.077.522,3.131,1.664,4.736,2.569a.993.993,0,0,0,1.323-1.347c-1.514-3.62-4.059-6.4-6.546-6.994" transform="translate(68.971 37.43)" fill="#fff"/>
    <path id="パス_6479" data-name="パス 6479" d="M170.9,190.467a2.447,2.447,0,0,0-2.917,2.154,2.479,2.479,0,0,0,.84,2.169c.483.448.531.479,3.052,1.388,1.12.429,3.261,1.395,4.938,2.158a1,1,0,0,0,1.2-1.458c-1.817-3.476-4.588-6.026-7.116-6.411" transform="translate(67.656 31.96)" fill="#fff"/>
    <path id="パス_6480" data-name="パス 6480" d="M168.264,185.888a2.447,2.447,0,0,0-2.619,2.51,2.48,2.48,0,0,0,1.109,2.043c.537.383.59.4,3.207.986,1.166.285,3.411.966,5.171,1.508a.992.992,0,0,0,1.007-1.595c-2.243-3.22-5.319-5.4-7.875-5.452" transform="translate(64.924 26.618)" fill="#fff"/>
    <path id="パス_6481" data-name="パス 6481" d="M184.706,199.35a50.818,50.818,0,0,0-7.666-11.036,36.122,36.122,0,0,0-10.734-8.123l-.02-.011a1.045,1.045,0,0,0-.931,1.871,33.833,33.833,0,0,1,9.846,7.917,48.193,48.193,0,0,1,6.951,10.669,60.273,60.273,0,0,1,5.865,24.672,53.558,53.558,0,0,1-5.117,24.531,47.385,47.385,0,0,1-16.221,18.642l-.059.043a2.587,2.587,0,1,0,3.017,4.2l.015-.011A52.2,52.2,0,0,0,186.89,251.7a57.5,57.5,0,0,0,4.753-26.526,63.52,63.52,0,0,0-6.938-25.823" transform="translate(63.92 19.791)" fill="#fff"/>
    <path id="パス_6482" data-name="パス 6482" d="M139.776,183.918c1.969-.57,4.492-1.286,5.8-1.582,2.95-.6,3.011-.642,3.6-1.012a2.423,2.423,0,0,0,1.062-2.217,3.072,3.072,0,0,0-3.252-2.7c-2.941.033-6.252,2.332-8.515,5.756a1.189,1.189,0,0,0,1.31,1.756" transform="translate(32.768 15.474)" fill="#fff"/>
    <path id="パス_6483" data-name="パス 6483" d="M142.6,177.926a2.525,2.525,0,0,0-.235-2.467,3.028,3.028,0,0,0-4.118-.853c-2.458,1.477-4.07,5.149-4.275,9.313a1.187,1.187,0,0,0,1.98.927c1.381-1.468,3.157-3.331,4.094-4.231,2.191-1.984,2.26-2.038,2.554-2.689" transform="translate(27.692 12.818)" fill="#fff"/>
    <path id="パス_6484" data-name="パス 6484" d="M131.955,188.488c.811-1.823,1.882-4.155,2.5-5.31,1.421-2.6,1.442-2.652,1.512-3.363a2.68,2.68,0,0,0-1-2.323,2.932,2.932,0,0,0-4.136.435c-1.847,2.171-2.189,6.222-1.04,10.3a1.173,1.173,0,0,0,2.162.265" transform="translate(22 15.971)" fill="#fff"/>
    <path id="パス_6485" data-name="パス 6485" d="M129.526,193.064c.374-1.982.866-4.512,1.19-5.787.792-2.846.807-2.9.7-3.616a2.652,2.652,0,0,0-1.473-2.075,2.846,2.846,0,0,0-3.888,1.3c-1.275,2.53-.711,6.592,1.334,10.36a1.147,1.147,0,0,0,2.141-.178" transform="translate(17.584 21.183)" fill="#fff"/>
    <path id="パス_6486" data-name="パス 6486" d="M128.408,195.687c-.3-1.8-.687-4.109-.822-5.293-.239-2.656-.239-2.708-.561-3.287a2.424,2.424,0,0,0-1.895-1.334,2.477,2.477,0,0,0-2.841,2.282c-.274,2.534,1.495,5.835,4.4,8.43a1,1,0,0,0,1.723-.8" transform="translate(13.925 26.457)" fill="#fff"/>
    <path id="パス_6487" data-name="パス 6487" d="M125.8,194.425c-.681-2.58-.707-2.643-1.112-3.161a2.466,2.466,0,0,0-2.084-1.018,2.439,2.439,0,0,0-2.406,2.711c.161,2.558,2.447,5.539,5.756,7.647a.994.994,0,0,0,1.562-1.062c-.611-1.745-1.388-3.959-1.716-5.117" transform="translate(11.495 31.741)" fill="#fff"/>
    <path id="パス_6488" data-name="パス 6488" d="M125.068,199.282c-.983-2.5-1.014-2.547-1.473-3.015a2.479,2.479,0,0,0-2.191-.777,2.438,2.438,0,0,0-2.071,2.976c.455,2.521,3.083,5.212,6.607,6.929a.994.994,0,0,0,1.423-1.244c-.809-1.651-1.836-3.764-2.3-4.869" transform="translate(10.423 37.875)" fill="#fff"/>
    <path id="パス_6489" data-name="パス 6489" d="M124.462,203.391c-1.712-2.06-1.758-2.1-2.341-2.4a2.487,2.487,0,0,0-2.326-.052,2.444,2.444,0,0,0-1.036,3.477c1.22,2.249,4.562,3.988,8.447,4.512a1,1,0,0,0,.962-1.629c-1.288-1.312-2.922-3-3.707-3.907" transform="translate(9.4 44.004)" fill="#fff"/>
    <path id="パス_6490" data-name="パス 6490" d="M133.887,199.992c-2.48.622-4.995,3.429-6.468,7.062a.994.994,0,0,0,1.338,1.336c1.592-.92,3.633-2.084,4.7-2.621,2.426-1.146,2.471-1.181,2.909-1.671a2.482,2.482,0,0,0,.629-2.241,2.445,2.445,0,0,0-3.111-1.864" transform="translate(19.885 43.089)" fill="#fff"/>
    <path id="パス_6491" data-name="パス 6491" d="M136.822,199.3a2.476,2.476,0,0,0,.653-2.232,2.446,2.446,0,0,0-3.091-1.9c-2.487.6-5.03,3.374-6.544,6.994a.993.993,0,0,0,1.323,1.347c1.605-.9,3.657-2.047,4.734-2.569,2.437-1.12,2.482-1.155,2.926-1.642" transform="translate(20.374 37.43)" fill="#fff"/>
    <path id="パス_6492" data-name="パス 6492" d="M138.846,192.621a2.449,2.449,0,0,0-2.919-2.154c-2.528.385-5.3,2.935-7.114,6.411a1,1,0,0,0,1.2,1.458c1.675-.764,3.816-1.729,4.936-2.158,2.521-.909,2.569-.94,3.054-1.388a2.479,2.479,0,0,0,.84-2.169" transform="translate(21.471 31.96)" fill="#fff"/>
    <path id="パス_6493" data-name="パス 6493" d="M140.358,190.441a2.475,2.475,0,0,0,1.11-2.043,2.445,2.445,0,0,0-2.619-2.51c-2.556.057-5.63,2.232-7.875,5.452a.992.992,0,0,0,1.007,1.595c1.76-.542,4.009-1.223,5.171-1.508,2.619-.581,2.672-.6,3.207-.986" transform="translate(23.921 26.618)" fill="#fff"/>
    <path id="パス_6494" data-name="パス 6494" d="M149.6,180.182l-.02.009a36.179,36.179,0,0,0-10.734,8.123,51.123,51.123,0,0,0-7.666,11.036,63.486,63.486,0,0,0-6.938,25.823,57.534,57.534,0,0,0,4.753,26.526,52.218,52.218,0,0,0,17.236,21.017l.028.017a.3.3,0,0,0,.05.037,2.588,2.588,0,0,0,2.9-4.29,47.379,47.379,0,0,1-16.218-18.642,53.5,53.5,0,0,1-5.117-24.531,60.238,60.238,0,0,1,5.865-24.672,48.038,48.038,0,0,1,6.951-10.669,33.788,33.788,0,0,1,9.844-7.917,1.044,1.044,0,0,0-.931-1.869" transform="translate(16.154 19.791)" fill="#fff"/>
    <g id="グループ_3623" data-name="グループ 3623" transform="translate(174.48 203.191)">
      <path id="パス_6495" data-name="パス 6495" d="M143.557,184.042c.131.013.335.05.335.228s-.109.226-.431.359v.559h.3l.263-.333c.059-.083.107-.109.168-.109a.253.253,0,0,1,.178.085l.622.633a.316.316,0,0,1,.107.228c0,.154-.141.25-.429.429v1.962c0,.918,0,.955-.061,1.062-.107.191-.513.25-.681.25-.359,0-.359-.1-.359-.394h-1.41v1.827l1.338-.274a5.009,5.009,0,0,0-.524-.931l.178-.215c.848.335,1.971,1.133,1.971,2.056,0,.548-.333.835-.681.835-.285,0-.394-.178-.489-.537-.1-.324-.131-.442-.226-.7-.885.468-2.093,1.075-2.569,1.29-.013.178-.024.42-.215.42-.131,0-.167-.085-.239-.252l-.6-1.373a8.313,8.313,0,0,0,.848-.109V185.5a10.029,10.029,0,0,1-.883.692l-.2-.2a12.568,12.568,0,0,0,2.284-4.386l1.338.429c.191.063.274.109.274.241s-.107.189-.287.25c1.255.455,1.888.883,1.888,1.566a.66.66,0,0,1-.035.213c.311.013.537.024.859.024h1.053l.418-.609c.072-.094.12-.157.191-.157a.442.442,0,0,1,.239.146l.8.788a.538.538,0,0,1,.154.335c0,.261-.25.261-.357.261h-2.51a7.709,7.709,0,0,0-.931.05l-.146-.492a.506.506,0,0,1-.333.109c-.276,0-.311-.072-.635-.668a5.62,5.62,0,0,0-.955-1.231,8,8,0,0,1-.729,1.051Zm-1.17,1.146c-.013-.463-.037-.929-.048-1.133a12.386,12.386,0,0,1-.861.944l.55.189Zm1.181.766h-1.41v.742h1.41Zm0,1.505h-1.41v.779h1.41Zm6.035-5.58c.061-.083.109-.133.2-.133a.333.333,0,0,1,.215.1l.883.755a.36.36,0,0,1,.144.263c0,.178-.133.274-.5.524v6.862c0,.178.037,1.014.037,1.192,0,1.149-.67,1.292-1.745,1.388-.048-.933-.479-1.077-1.553-1.41v-.287l1.636.046c.322.013.383-.07.383-.346v-7.684h-3.3a7.025,7.025,0,0,0-.933.048l-.263-.859c.348.024.718.046,1.21.046h3.189Zm-2.234,4.471.346-.492a.227.227,0,0,1,.167-.1.281.281,0,0,1,.181.085l.692.694a.272.272,0,0,1,.122.213c0,.109-.05.191-.42.431v1.029c0,.226.048,1.181.048,1.386,0,.3-.157.537-.742.537-.322,0-.346-.133-.346-.465h-1.064v.37c0,.178,0,.479-.716.479-.359,0-.359-.2-.359-.311,0-.239.048-1.314.048-1.529v-1.138c0-.572-.013-.8-.037-1.708l1.1.516Zm-1.016.764v1.793h1.064v-1.793Z" transform="translate(-139.863 -181.605)" fill="#fff"/>
      <path id="パス_6496" data-name="パス 6496" d="M148.864,190.243c0,.335.024,1.758.024,2.045,0,.37-.311.513-.883.513-.359,0-.383-.144-.383-.4,0-.2.011-1.747.011-1.975v-1.947a9.012,9.012,0,0,1-2.125,2.393l-.215-.181a13.35,13.35,0,0,0,2.2-4.327h-.835c-.178,0-.466.011-.885.048l-.261-.862c.346.026.729.05,1.205.05h.92v-2.569a13.525,13.525,0,0,0-.048-1.4l1.423.17c.144.011.3.059.3.213s-.144.228-.442.359V185.6h.814l.287-.433c.059-.083.1-.141.189-.141a.255.255,0,0,1,.191.109l.633.692a.546.546,0,0,1,.144.287c0,.215-.2.25-.394.25h-1.864v.324c.324.117,1.853.846,1.853,2.017a.892.892,0,0,1-.061.324c.322-.059.753-.144,1.064-.215l2.247-.55V183.3c0-.274,0-1.04-.048-1.662l1.447.167c.141.011.346.037.346.2s-.144.241-.455.346v5.582l.154-.037.218-.572c.022-.072.07-.191.165-.191a.313.313,0,0,1,.191.107l.657.574a.508.508,0,0,1,.168.324c0,.189-.168.25-.311.285l-1.242.311v1.4c0,.335.035,2,.035,2.128,0,.191,0,.524-.955.524-.383,0-.394-.117-.394-.429s.024-1.6.024-1.875v-1.436l-2.1.5a6.7,6.7,0,0,0-.848.261l-.418-.679a.568.568,0,0,1-.489.285c-.324,0-.372-.213-.526-.764a5.3,5.3,0,0,0-.718-1.518Zm-3.048-7.8c.144.1,1.555.97,1.555,1.995,0,.624-.442.729-.611.729-.309,0-.333-.1-.537-1.014a6.124,6.124,0,0,0-.62-1.518Zm5.08.55c.239.107.311.13.311.252,0,.2-.215.213-.442.226a12.125,12.125,0,0,1-1.518,1.816l-.239-.154a8.662,8.662,0,0,0,.861-2.617Zm.346,2.378c.659.168,2.056.779,2.056,1.875a.7.7,0,0,1-.7.707c-.3,0-.335-.109-.729-1.005a7.986,7.986,0,0,0-.8-1.349Zm.085-3.1c.67.181,2.115.779,2.115,1.8a.681.681,0,0,1-.646.731c-.333,0-.418-.181-.824-1.112a4.571,4.571,0,0,0-.822-1.194Z" transform="translate(-133.481 -181.58)" fill="#fff"/>
      <path id="パス_6497" data-name="パス 6497" d="M159.685,182.361l.357-.513a.284.284,0,0,1,.215-.144.394.394,0,0,1,.215.1l.944.753a.365.365,0,0,1,.181.285c0,.157-.122.263-.492.539v6.511c0,.241.024,1.3.024,1.521,0,.775-.131,1.192-1.851,1.312,0-.322,0-1.062-1.505-1.4l.011-.285,1.649.035c.287.013.335-.035.335-.274v-2.2H157.2v2.043c0,.215.024,1.157.024,1.349,0,.215,0,.563-.92.563-.4,0-.466-.1-.466-.324s.035-1.314.035-1.529v-2.1h-2.7A6.308,6.308,0,0,1,151,192.686l-.215-.181c.968-1.8,1.266-3.154,1.266-7.075v-2.125c0-.3,0-.659-.048-1.529l1.505.585Zm-6.3,3.476c-.026.731-.037,1.279-.109,2h2.593v-2Zm0-2.711v1.945h2.484v-1.945Zm6.381,1.945v-1.945H157.2v1.945Zm0,2.763v-2H157.2v2Z" transform="translate(-127.029 -181.489)" fill="#fff"/>
      <path id="パス_6498" data-name="パス 6498" d="M167.677,190.2a2.247,2.247,0,0,0-1.088,1.458,8.985,8.985,0,0,1-4.038-5.043v3.537c0,.324.024,1.782.024,2.078,0,.228,0,.574-.957.574-.394,0-.429-.131-.429-.429s.024-1.614.024-1.877v-2.915a10.742,10.742,0,0,1-4.888,4.205l-.144-.25a15.164,15.164,0,0,0,4.088-4.984h-2.7a7.859,7.859,0,0,0-.931.048l-.276-.859c.346.024.729.046,1.207.046h3.646v-2.759c0-.788-.037-1.22-.05-1.4l1.542.167c.12.024.3.074.3.239,0,.144-.109.215-.455.346v3.4h2.785l.585-.857a.222.222,0,0,1,.191-.122.367.367,0,0,1,.213.109l1.04,1.051a.5.5,0,0,1,.17.311c0,.274-.252.274-.348.274h-4.266a8.538,8.538,0,0,0,4.756,3.359Zm-10.168-7.995c.55.154,2.652.992,2.652,2.271a.787.787,0,0,1-.718.859c-.442,0-.572-.346-.716-.694a7.8,7.8,0,0,0-1.362-2.2Zm8.687.681c.215.12.311.191.311.311,0,.228-.181.228-.585.228a9.425,9.425,0,0,1-2.63,2.2l-.191-.215a13.219,13.219,0,0,0,1.721-3.311Z" transform="translate(-120.68 -181.573)" fill="#fff"/>
    </g>
    <g id="グループ_3624" data-name="グループ 3624" transform="translate(168.548 218.43)">
      <path id="パス_6499" data-name="パス 6499" d="M137.267,191.513c.681.141,2.032.513,2.032,1.6a.743.743,0,0,1-.683.835c-.274,0-.309-.094-.655-.835a5.261,5.261,0,0,0-.825-1.351Zm3.62-.346c-.346,1.325-.872,2.867-1.421,4.516a6.611,6.611,0,0,0-.322,1.194,2.189,2.189,0,0,0,.237.848,2.728,2.728,0,0,1,.252.992.959.959,0,0,1-.944.957.5.5,0,0,1-.526-.537c0-.17.059-.933.059-1.088,0-1.112-.239-1.22-.835-1.458l.011-.276c.468-.011.777-.037.992-.357.157-.255,1.447-2.893,2.223-4.88Zm-2.939-2.3c.968.12,2.247.692,2.247,1.612a.762.762,0,0,1-.694.824c-.239,0-.261-.059-.526-.62a4.948,4.948,0,0,0-1.147-1.553Zm8.043,6.033.407-.548a.207.207,0,0,1,.178-.117.351.351,0,0,1,.2.094l.944.814a.363.363,0,0,1,.133.25c0,.109-.024.191-.49.49v2.186c0,.191.035,1.016.035,1.183,0,.455-.548.527-.907.527-.407,0-.407-.157-.407-.407v-.228h-3.6c0,.348,0,.4-.1.468a1.345,1.345,0,0,1-.742.178c-.324,0-.489-.046-.489-.333,0-.218.035-1.16.035-1.364v-2.628c0-.67-.024-1.016-.035-1.183l1.4.62h1.04v-1.912h-1.816a5.247,5.247,0,0,0-.859.05l-.287-.862c.42.024.718.048,1.207.048H143.6v-1.8c-.407.022-2.2.131-2.569.144l-.035-.287a20.8,20.8,0,0,0,5.474-1.66l1.051,1.062a.452.452,0,0,1,.167.3.193.193,0,0,1-.215.189.833.833,0,0,1-.418-.154,17.477,17.477,0,0,1-2.128.311v1.9h1.386l.513-.74c.048-.059.1-.133.191-.133a.328.328,0,0,1,.215.12l1.029.979a.4.4,0,0,1,.141.276c0,.261-.333.261-.4.261h-3.072V194.9Zm-3.5.766v2.713h3.6v-2.713Z" transform="translate(-137.136 -188.596)" fill="#fff"/>
      <path id="パス_6500" data-name="パス 6500" d="M151.457,189.361l.357-.513a.281.281,0,0,1,.215-.144.4.4,0,0,1,.215.1l.944.753a.368.368,0,0,1,.178.285c0,.157-.12.263-.49.539v6.511c0,.241.024,1.3.024,1.521,0,.774-.131,1.192-1.851,1.312,0-.322,0-1.062-1.505-1.4l.011-.285,1.649.035c.287.013.335-.035.335-.274v-2.2h-2.569v2.043c0,.215.024,1.157.024,1.349,0,.215,0,.563-.92.563-.4,0-.468-.1-.468-.324s.037-1.314.037-1.529v-2.1h-2.7a6.307,6.307,0,0,1-2.173,4.086l-.215-.181c.968-1.8,1.266-3.155,1.266-7.075v-2.125c0-.3,0-.659-.048-1.529l1.505.585Zm-6.3,3.476c-.024.731-.035,1.279-.107,2h2.593v-2Zm0-2.711v1.945h2.487v-1.945Zm6.383,1.945v-1.945h-2.569v1.945Zm0,2.763v-2h-2.569v2Z" transform="translate(-130.768 -188.5)" fill="#fff"/>
      <path id="パス_6501" data-name="パス 6501" d="M156.355,191.177c.013.013.252.109.252.274,0,.181-.191.181-.252.181a2.815,2.815,0,0,1-.394-.035,15.609,15.609,0,0,1-2.426,1.708c.753-.011.992-.024,3.168-.107a6.489,6.489,0,0,0-1.136-.946l.12-.261c.74.144,3.154.681,3.154,2.091a.629.629,0,0,1-.6.7c-.274,0-.431-.2-.585-.418-.346-.466-.4-.55-.574-.742a67.755,67.755,0,0,1-7.181.851l.992.37h5.474l.3-.429a.226.226,0,0,1,.191-.122.352.352,0,0,1,.239.109l.968.668a.3.3,0,0,1,.154.239c0,.107-.011.181-.466.489v2.282c0,.191.024,1.16.024,1.207,0,.215-.048.322-.322.407a2.37,2.37,0,0,1-.609.1c-.4,0-.4-.13-.4-.55h-5.665c0,.228,0,.55-.774.55-.526,0-.574-.1-.574-.4,0-.191.035-1.088.035-1.292v-2.223c0-.633,0-.968-.035-1.364a.772.772,0,0,0-.167.013c-.048.228-.083.359-.226.359-.12,0-.157-.1-.228-.3l-.466-1.253c.455-.013,2.713.009,3.226,0-.154-.087-.191-.133-.524-.574a6.159,6.159,0,0,0-1.579-1.375l.133-.263a7.994,7.994,0,0,1,1.6.333,6.607,6.607,0,0,0,.49-.87h-2.474c-.431,0-.657.024-.933.046l-.263-.859c.359.026.731.048,1.2.048h3.644c0-.561-.011-.622-.046-1.183l1.588.167c.144.011.3.061.3.215,0,.12-.083.2-.466.346v.455h2.809l.55-.8c.059-.083.107-.131.178-.131A.355.355,0,0,1,158,189l1.016.981a.576.576,0,0,1,.167.322c0,.109-.059.276-.346.276H154.9Zm-5.569,4.434v1.029h2.189v-1.029Zm0,1.795v1.075h2.189v-1.075Zm2.428-6.825c.25.072.442.131.442.3,0,.2-.239.189-.633.181-.239.178-.657.5-1.088.764a1.082,1.082,0,0,1,.62.9.632.632,0,0,1-.381.611l.524-.013a18.009,18.009,0,0,0,2.152-2.737Zm3.237,5.03h-2.21v1.029h2.21Zm0,1.795h-2.21v1.075h2.21Z" transform="translate(-124.336 -188.584)" fill="#fff"/>
      <path id="パス_6502" data-name="パス 6502" d="M155.85,194c0,1.005-.011,3.9-2.1,5.737l-.239-.154a9.647,9.647,0,0,0,.992-5.078v-1.16c0-.561-.024-1.029-.048-1.542l1.482.6H157c-.072-.122-.3-.718-.346-.838a4.935,4.935,0,0,0-.537-.9h-.957a8.149,8.149,0,0,0-.944.048l-.25-.859c.346.024.716.048,1.194.048H158.3c0-.492-.024-.957-.05-1.292l1.532.181c.131.011.311.046.311.2s-.157.252-.468.394v.516h2.391l.585-.837a.264.264,0,0,1,.191-.133.355.355,0,0,1,.215.122l1.029,1a.521.521,0,0,1,.178.335c0,.107-.072.274-.348.274H161.4l.611.2c.25.083.3.165.3.25,0,.215-.228.239-.574.263a8.894,8.894,0,0,1-1.038,1.016h1.66l.585-.824a.233.233,0,0,1,.191-.131.349.349,0,0,1,.215.1l1.016,1.005a.485.485,0,0,1,.168.348c0,.117-.085.263-.348.263h-8.33Zm3.42.742c0-.537-.013-.9-.048-1.421l1.505.178c.131.013.311.037.311.191s-.144.239-.455.394v.657h1.351l.513-.729a.255.255,0,0,1,.191-.131.286.286,0,0,1,.2.109l.9.929a.518.518,0,0,1,.154.337c0,.25-.213.25-.3.25h-3.011v1.183h1.064l.524-.753c.05-.072.109-.133.181-.133a.367.367,0,0,1,.226.133l.957.931a.533.533,0,0,1,.154.322c0,.263-.215.263-.311.263h-2.8v1.255H162.4l.585-.835c.048-.061.109-.133.191-.133a.355.355,0,0,1,.215.12l1.04,1.005a.484.484,0,0,1,.165.333c0,.191-.154.276-.346.276h-7.588a7.394,7.394,0,0,0-.931.046l-.263-.859c.346.024.729.048,1.207.048h2.593v-1.255h-1.149a7.723,7.723,0,0,0-.944.05l-.25-.864c.335.026.718.05,1.194.05h1.149v-1.183h-1.638a9,9,0,0,1-1.505,1.971l-.25-.133a13.042,13.042,0,0,0,1.146-3.905l1.375.309c.046.013.3.085.3.25,0,.146-.131.2-.444.263a2.726,2.726,0,0,1-.213.479Zm-2.487-4.075c.633.3,1.468.7,1.468,1.4a.563.563,0,0,1-.107.335h1.782a7.513,7.513,0,0,0,.548-1.734Z" transform="translate(-117.89 -188.61)" fill="#fff"/>
      <path id="パス_6503" data-name="パス 6503" d="M168.63,190.288c.107-.141.154-.168.226-.168a.531.531,0,0,1,.274.133l.827.753a.4.4,0,0,1,.178.3c0,.168-.167.3-.455.513a33.964,33.964,0,0,1-.526,6.574c-.311,1.075-1.181,1.266-2.149,1.3-.013-.418-.013-.931-1.292-1.421l.061-.287c1.253.12,1.4.133,1.6.133.644,0,.7-.409.835-1.5a48.189,48.189,0,0,0,.263-5.054h-.2a13.924,13.924,0,0,1-1.231,4.242,8.805,8.805,0,0,1-3.285,3.7l-.181-.215a13.864,13.864,0,0,0,3.67-7.732h-.633a10.967,10.967,0,0,1-3.633,5.987l-.2-.215a14.992,14.992,0,0,0,2.724-5.772H165.1a8.582,8.582,0,0,1-1.745,2.308l-.226-.17c.226-.5.657-1.41.7-1.516h-1.3v2.258c.561-.168.872-.276,1.686-.572l.12.261a12.7,12.7,0,0,1-1.806,1.173v1.971c0,.25.024,1.734.024,1.984,0,.2,0,.524-.872.524-.37,0-.37-.168-.37-.392,0-.3.024-1.688.024-1.975v-1.455c-.572.285-.742.381-1.17.585-.037.2-.061.429-.263.429-.133,0-.191-.107-.252-.274l-.513-1.423c1.351-.261,1.745-.37,2.2-.49v-2.6h-.981a10.579,10.579,0,0,1-.944,2.319l-.274-.1a25.906,25.906,0,0,0,.609-4.9l1.149.25c.12.024.237.083.237.215,0,.154-.178.226-.346.3a10.823,10.823,0,0,1-.226,1.149h.777v-1.375a11.159,11.159,0,0,0-.048-1.412l1.4.167c.07.011.3.048.3.228,0,.165-.133.226-.455.357v2.034h.167l.346-.624c.061-.083.1-.154.191-.154s.144.061.2.133l.644.729a12.613,12.613,0,0,0,.742-2.883l1.447.372c.144.037.309.1.309.263,0,.215-.226.252-.49.3-.191.42-.537,1.17-.572,1.242h2.748Z" transform="translate(-111.27 -188.591)" fill="#fff"/>
    </g>
    <g id="グループ_3625" data-name="グループ 3625" transform="translate(178.292 233.302)">
      <path id="パス_6504" data-name="パス 6504" d="M141.974,197.7a.961.961,0,0,0,.979.55c.287,0,5.258-.442,5.293-.442.109-.013.587-.191.694-.191.431,0,1.183.835,1.183,1.157,0,.109-.024.12-.3.335a.98.98,0,0,0-.287.5c-1.984,5.6-5.33,6.524-6.835,6.918l-.133-.239a11.125,11.125,0,0,0,4.888-5.139,8.508,8.508,0,0,0,.766-2.128c0-.131-.109-.141-.263-.141a42.574,42.574,0,0,0-4.244.455c-.165.033-.883.224-1.027.224-.537,0-1.075-.859-1.075-1.325a1.415,1.415,0,0,1,.1-.479Zm6.99-1.447c1.662.346,2.33,1.112,2.33,1.6a.454.454,0,0,1-.394.5c-.178,0-.226-.061-.609-.548a4.888,4.888,0,0,0-1.458-1.316Zm.885-.811c1.6.165,2.45.92,2.45,1.445a.411.411,0,0,1-.359.455c-.167,0-.215-.048-.633-.5a5.387,5.387,0,0,0-1.566-1.146Z" transform="translate(-141.615 -195.446)" fill="#fff"/>
      <path id="パス_6505" data-name="パス 6505" d="M146.771,198.651a1.37,1.37,0,0,0,1.244.524c.764,0,4.623-.4,5.317-.537.144-.022.7-.226.824-.226.335,0,1.173.622,1.173.981,0,.12-.037.141-.348.407a1.886,1.886,0,0,0-.5.814c-1.625,3.775-4.051,4.671-6.213,5.054l-.1-.263a9.732,9.732,0,0,0,4.625-4.29,6.76,6.76,0,0,0,.489-1.255c0-.083-.059-.1-.131-.1-.4,0-3.239.359-4.41.561-.168.035-.944.226-1.112.226-.466,0-1.173-.8-1.173-1.434a1.741,1.741,0,0,1,.061-.383Zm1.255-2.343a1.142,1.142,0,0,0,.933.324c.513,0,2.162-.144,3.131-.287.154-.024.79-.191.92-.191.285,0,1.157.322,1.157.79,0,.429-.274.452-1.756.524-.633.037-1.614.085-2.545.2-.157.024-.835.141-.979.141a1.284,1.284,0,0,1-1.136-1.157,1.361,1.361,0,0,1,.024-.25Z" transform="translate(-135.92 -194.614)" fill="#fff"/>
      <path id="パス_6506" data-name="パス 6506" d="M151.5,196.258c.418.074,3.476.6,3.476,2.189,0,.489-.274.835-.62.835-.324,0-.526-.287-.766-.633a7.842,7.842,0,0,0-2.234-2.139Zm.274,6.55c.12.178.431.574.814.574.825,0,4.995-2.487,7.445-5.761l.239.144c-1.279,3.167-3.479,4.862-6.261,6.609a3.663,3.663,0,0,0-.587.415c-.274.228-.394.289-.537.289a1.977,1.977,0,0,1-1.421-1.734,3.918,3.918,0,0,1,.035-.442Z" transform="translate(-130.166 -194.492)" fill="#fff"/>
      <path id="パス_6507" data-name="パス 6507" d="M156.3,196.139a1.675,1.675,0,0,1,.742-.226c.646,0,1.6.442,1.6.918,0,.12-.154.657-.168.766a16.942,16.942,0,0,0-.1,1.862,9.631,9.631,0,0,1,3.037,1.005,1.525,1.525,0,0,1,.859,1.266.58.58,0,0,1-.527.646c-.309,0-.394-.072-1.325-.92a9.827,9.827,0,0,0-2.045-1.3c.013.764.061,4.17.061,4.862,0,.37,0,1.005-.55,1.005-.646,0-.848-1.018-.848-1.268,0-.107.072-.6.085-.7a6.5,6.5,0,0,0,.048-1.051c0-1.553,0-5.069-.013-5.439-.024-.74-.072-.931-.872-1.146Zm3.933.811c1.6.287,2.474,1.053,2.474,1.662a.467.467,0,0,1-.407.5c-.215,0-.274-.07-.55-.429A5.2,5.2,0,0,0,160.1,197.2Zm.931-1c1.519.168,2.569.92,2.569,1.54a.437.437,0,0,1-.383.479c-.178,0-.226-.048-.657-.537a5.574,5.574,0,0,0-1.636-1.22Z" transform="translate(-124.361 -194.897)" fill="#fff"/>
    </g>
    <g id="グループ_3626" data-name="グループ 3626" transform="translate(172.827 277.714)">
      <path id="パス_6508" data-name="パス 6508" d="M139.414,222.02a1.059,1.059,0,0,0,.981.476c.274,0,4.386-.322,4.923-.37.12-.8.526-3.55.526-4.146,0-.109-.061-.122-.168-.122s-1.854.109-3.979.383c-.191.024-1.04.228-1.22.228a1.506,1.506,0,0,1-1.109-1.314,1.557,1.557,0,0,1,.059-.444l.25-.083a1.057,1.057,0,0,0,.992.513c.55,0,4.875-.394,5.091-.418.133-.024.67-.215.777-.215.37,0,1.1.79,1.1,1.112,0,.107-.085.167-.287.359-.181.154-.2.237-.322.918-.1.516-.479,2.822-.55,3.287.3.12.609.287.609.67,0,.154-.059.49-.574.49-.2,0-1.112-.037-1.3-.037a22.89,22.89,0,0,0-3.287.228c-.263.035-1.41.3-1.649.3-.561,0-1.173-.8-1.173-1.314a2.318,2.318,0,0,1,.048-.431Z" transform="translate(-139.103 -215.099)" fill="#fff"/>
      <path id="パス_6509" data-name="パス 6509" d="M144.252,216.207c.42.072,3.479.6,3.479,2.186,0,.489-.276.838-.622.838-.322,0-.524-.287-.764-.635a7.842,7.842,0,0,0-2.236-2.138Zm.276,6.548c.118.178.429.574.811.574.825,0,5-2.487,7.447-5.761l.237.144c-1.277,3.165-3.476,4.864-6.261,6.609a3.517,3.517,0,0,0-.585.418c-.274.226-.4.287-.54.287a1.98,1.98,0,0,1-1.421-1.734c0-.178.024-.311.035-.442Z" transform="translate(-133.22 -215.454)" fill="#fff"/>
      <path id="パス_6510" data-name="パス 6510" d="M149.727,225.35a5.894,5.894,0,0,0,2.748-2.869,5.116,5.116,0,0,0,.479-1.995.849.849,0,0,0-.144-.563c-.561.074-1.458.2-2.258.4a7.116,7.116,0,0,1-.862.191c-.452,0-1.027-.7-1.027-1.242a1.735,1.735,0,0,1,.048-.383l.263-.109a.893.893,0,0,0,.872.5c.561,0,3.024-.346,3.524-.394.957-.109,1.183-.12,2.45-.2.167-.011.933-.12,1.1-.12.479,0,1.338.431,1.338.92,0,.335-.287.431-.537.431-.061,0-.526-.048-.755-.059-.585-.037-1.11-.085-1.78-.085-.585,0-.814.013-1.1.037.154.1.37.226.37.418a4.932,4.932,0,0,1-.226.633c-.324,1.529-.825,3.931-4.375,4.745Zm.811-9.035c.109.12.263.261.766.261s1.995-.117,2.88-.226c.2-.024,1.075-.215,1.253-.215.563,0,1.22.311,1.22.766,0,.394-.25.407-1.447.418a24.232,24.232,0,0,0-2.5.168c-.215.024-1.183.191-1.386.191a1.1,1.1,0,0,1-1.064-1.242Z" transform="translate(-127.865 -215.539)" fill="#fff"/>
      <path id="パス_6511" data-name="パス 6511" d="M153.481,224.776a13.36,13.36,0,0,0,5.952-6.287,4.674,4.674,0,0,0,.335-.835c0-.035-.037-.035-.074-.035-.117,0-1.708.226-2.891.476-.168.035-.885.276-1.027.276-.492,0-.992-.875-.992-1.316a2.225,2.225,0,0,1,.1-.585l.263-.072a.837.837,0,0,0,.9.585c.4,0,3.463-.383,3.716-.452a6.389,6.389,0,0,1,.716-.335c.359,0,1.268.753,1.268,1.112,0,.154-.144.25-.3.346-.239.157-.287.287-.718,1.123a19.758,19.758,0,0,1-1.194,2.032c1.194.6,3.463,1.912,3.463,3.239a.721.721,0,0,1-.655.788c-.324,0-.42-.168-.755-.753a10.782,10.782,0,0,0-2.413-2.772,9.106,9.106,0,0,1-5.582,3.716Z" transform="translate(-122.202 -215.467)" fill="#fff"/>
      <path id="パス_6512" data-name="パス 6512" d="M159.486,216.087a1.657,1.657,0,0,1,.753-.226c.622,0,1.59.442,1.59.92,0,.131-.157.657-.168.764a17,17,0,0,0-.1,1.864,9.9,9.9,0,0,1,3.035,1.005,1.513,1.513,0,0,1,.859,1.266.581.581,0,0,1-.524.646c-.311,0-.394-.074-1.327-.92a9.787,9.787,0,0,0-2.043-1.3c.011.788.059,4.253.059,4.958,0,.263,0,.909-.548.909-.646,0-.848-1.016-.848-1.266,0-.109.07-.585.083-.681a6.935,6.935,0,0,0,.048-1.088c0-1.758,0-5.163-.011-5.413-.024-.779-.085-.946-.872-1.162Z" transform="translate(-115.156 -215.861)" fill="#fff"/>
    </g>
  </g>
</svg>
