<svg xmlns="http://www.w3.org/2000/svg" width="808.419" height="107.747" viewBox="0 0 808.419 107.747">
  <g id="logo.png" transform="translate(-0.49 -0.998)">
    <g id="レイヤー_1" data-name="レイヤー 1">
      <path id="パス_2" data-name="パス 2" d="M172.586,68.66a26.216,26.216,0,0,1-11.448,7.646,48.062,48.062,0,0,1-16.472,2.8,32.9,32.9,0,0,1-16.691-4.02,27.658,27.658,0,0,1-11.142-11.972,42.032,42.032,0,0,1-4.107-18.482V39.648a44.873,44.873,0,0,1,3.583-19.006,27.308,27.308,0,0,1,10.53-12.321,34.954,34.954,0,0,1,36.7,1.7,26.609,26.609,0,0,1,8.739,18H157.643a14.55,14.55,0,0,0-4.369-9.132,14.069,14.069,0,0,0-9.481-2.884,13.458,13.458,0,0,0-11.666,5.855,30.148,30.148,0,0,0-3.932,17.215v4.675a29.187,29.187,0,0,0,4.369,17.477,14.856,14.856,0,0,0,12.846,5.811,16.691,16.691,0,0,0,12.1-3.714V50.746h-13.72v-11.1h28.794Z" transform="translate(379.736 13.22)" fill="#0099d9"/>
      <path id="パス_3" data-name="パス 3" d="M191.245,61.718H165.029l-4.894,15.118H144.1L170.622,4H184.56l27.876,72.967H196.444ZM168.83,49.659h18.264L177.7,22.307Z" transform="translate(485.515 13.477)" fill="#0099d9"/>
      <path id="パス_4" data-name="パス 4" d="M176.181,64.9l31.983-.218.087,12.1-47.057.306L160.67,3.947l15.074-.087Z" transform="translate(541.344 13.005)" fill="#0099d9"/>
      <path id="パス_5" data-name="パス 5" d="M213.308,58.417a7.778,7.778,0,0,0-3.058-6.554,38.974,38.974,0,0,0-10.88-4.719,77.338,77.338,0,0,1-12.453-4.937q-12.453-6.641-12.584-18.045a18.089,18.089,0,0,1,3.277-10.617,21.847,21.847,0,0,1,9.569-7.3,35.829,35.829,0,0,1,14.026-2.709,32.639,32.639,0,0,1,13.982,2.753,22.5,22.5,0,0,1,9.569,8.039,20.972,20.972,0,0,1,3.452,11.753H213.133a9.875,9.875,0,0,0-3.19-7.777,13.108,13.108,0,0,0-8.739-2.709,13.807,13.807,0,0,0-8.739,2.359,7.472,7.472,0,0,0-3.015,6.2,7.078,7.078,0,0,0,3.452,5.9,41.944,41.944,0,0,0,10.617,4.369,46.009,46.009,0,0,1,18.788,9.438,19.094,19.094,0,0,1,6.117,14.157,17.477,17.477,0,0,1-7.078,14.943,31.415,31.415,0,0,1-19.312,5.549,36.92,36.92,0,0,1-15.38-3.015,24.031,24.031,0,0,1-10.617-8.389A21.847,21.847,0,0,1,172.281,54.7H187.4q0,12.147,14.593,12.016a13.72,13.72,0,0,0,8.345-2.228,7.035,7.035,0,0,0,2.971-6.117" transform="translate(580.461 11.885)" fill="#0099d9"/>
      <path id="パス_6" data-name="パス 6" d="M143.186,22.681a21.191,21.191,0,0,1,3.321-4.369L135.584,6.34a37.662,37.662,0,0,0-6.9,9Z" transform="translate(433.56 21.361)" fill="#58b431"/>
      <path id="パス_7" data-name="パス 7" d="M138.12,19.8a20.8,20.8,0,0,1,4.369,2.884L153.413,10.71a35.565,35.565,0,0,0-9.656-6.03Z" transform="translate(465.367 15.768)" fill="#d7a600"/>
      <path id="パス_8" data-name="パス 8" d="M155.046,9,140.54,16.253a20.187,20.187,0,0,1,1.442,5.112L158.1,19.836A36.7,36.7,0,0,0,155.046,9" transform="translate(473.52 30.324)" fill="#c60f28"/>
      <path id="パス_9" data-name="パス 9" d="M142.793,22.64,157.3,15.431a37.14,37.14,0,0,0-6.772-9L139.56,18.358a19.357,19.357,0,0,1,3.233,4.369" transform="translate(470.218 21.665)" fill="#00973b"/>
      <path id="パス_10" data-name="パス 10" d="M143.806,14.387a6.782,6.782,0,0,1,0-.961L127.64,11.94v2.447a35.7,35.7,0,0,0,1.136,8.957l15.555-4.369a21.844,21.844,0,0,1-.481-4.369" transform="translate(430.056 40.229)" fill="#427935"/>
      <path id="パス_11" data-name="パス 11" d="M142.906,15.53a21.324,21.324,0,0,1-3.976,3.714l8.739,13.807a38.931,38.931,0,0,0,8.345-7.734Z" transform="translate(468.096 52.325)" fill="#fabd00"/>
      <path id="パス_12" data-name="パス 12" d="M141.291,14.252a18.832,18.832,0,0,1-.481,4.369l15.6,4.369a37.446,37.446,0,0,0,1.092-8.739V11.98l-16.123,1.486v.786" transform="translate(474.43 40.364)" fill="#e83819"/>
      <path id="パス_13" data-name="パス 13" d="M142.6,15.6,129.49,25.431a36.66,36.66,0,0,0,8.389,7.6L146.4,19.27a21.365,21.365,0,0,1-4.02-3.67" transform="translate(436.29 52.561)" fill="#f5a200"/>
      <path id="パス_14" data-name="パス 14" d="M143.866,21.309a23.725,23.725,0,0,1,1.529-5.2L130.933,8.9A37.053,37.053,0,0,0,127.7,19.867Z" transform="translate(430.259 29.987)" fill="#0075ba"/>
      <path id="パス_15" data-name="パス 15" d="M150.976,30.433,142.237,16.67a19.531,19.531,0,0,1-4.937,2.01l3.015,15.948a36.351,36.351,0,0,0,10.443-4.369" transform="translate(462.604 56.166)" fill="#970b31"/>
      <path id="パス_16" data-name="パス 16" d="M142.422,14a20.147,20.147,0,0,1-2.272,4.675l13.108,9.744A36.966,36.966,0,0,0,158.2,18.5Z" transform="translate(472.206 47.17)" fill="#00a6d9"/>
      <path id="パス_17" data-name="パス 17" d="M143.323,17.24a22.24,22.24,0,0,1-3.015.218,22.941,22.941,0,0,1-2.447,0l-2.971,15.9a36.748,36.748,0,0,0,5.418.437,34.385,34.385,0,0,0,6.03-.524Z" transform="translate(454.484 58.087)" fill="#ed6a02"/>
      <path id="パス_18" data-name="パス 18" d="M136.44,20.254a19.968,19.968,0,0,1,5.156.961L147.625,6.1A36.964,36.964,0,0,0,136.44,4Z" transform="translate(459.706 13.477)" fill="#e5001e"/>
      <path id="パス_19" data-name="パス 19" d="M145.764,18.686a20.973,20.973,0,0,1-5.156-1.966L131.87,30.527a37.4,37.4,0,0,0,10.661,4.063Z" transform="translate(444.309 56.335)" fill="#dc007a"/>
      <path id="パス_20" data-name="パス 20" d="M139.2,21.171a21.322,21.322,0,0,1,5.287-.961V4A37.576,37.576,0,0,0,133.35,6.054Z" transform="translate(449.295 13.477)" fill="#003067"/>
      <path id="パス_21" data-name="パス 21" d="M146.075,18.987a20.8,20.8,0,0,1-2.447-4.937l-15.6,4.369a36.526,36.526,0,0,0,5.156,10.268Z" transform="translate(431.37 47.339)" fill="#d39200"/>
      <path id="パス_22" data-name="パス 22" d="M141.583,22.487a20.534,20.534,0,0,1,4.369-2.709L140.1,4.66a38.276,38.276,0,0,0-9.438,5.855Z" transform="translate(440.232 15.701)" fill="#004c88"/>
      <path id="パス_23" data-name="パス 23" d="M60.435,27.276A3.146,3.146,0,0,0,59.3,24.7a15.118,15.118,0,0,0-4.107-1.922,46.487,46.487,0,0,1-4.631-1.835,9.088,9.088,0,0,1-6.073-8.214,7.3,7.3,0,0,1,1.529-4.369,9.525,9.525,0,0,1,4.369-3.1,16.734,16.734,0,0,1,6.248-1.092,14.856,14.856,0,0,1,6.03,1.18A9.613,9.613,0,0,1,66.771,8.75a8.738,8.738,0,0,1,1.267,4.85H60.479a3.714,3.714,0,0,0-1.18-2.927,4.369,4.369,0,0,0-3.146-1.049,5.025,5.025,0,0,0-3.19.874,2.622,2.622,0,0,0,0,4.369,17.477,17.477,0,0,0,4.369,2.01A24.773,24.773,0,0,1,62.664,19.1a8.739,8.739,0,0,1,5.374,8.127,7.646,7.646,0,0,1-3.059,6.423A13.938,13.938,0,0,1,56.5,35.97a16.56,16.56,0,0,1-6.86-1.354A10.486,10.486,0,0,1,45.012,30.9a9.656,9.656,0,0,1-1.66-5.593H50.91a4.719,4.719,0,0,0,1.311,3.67A5.942,5.942,0,0,0,56.59,30.2a4.763,4.763,0,0,0,2.709-.524,2.534,2.534,0,0,0,1.092-2.228" transform="translate(146.058 14.014)" fill="#0099d9"/>
      <path id="パス_24" data-name="パス 24" d="M74.4,4.21v20.4A11.8,11.8,0,0,1,72.958,30.6a9.744,9.744,0,0,1-4.369,3.889,15.074,15.074,0,0,1-6.51,1.311,12.671,12.671,0,0,1-8.739-2.971,10.486,10.486,0,0,1-3.364-8.083V4.21h7.559V25.139c0,3.408,1.66,5.112,4.763,5.112a4.369,4.369,0,0,0,3.539-1.311,5.986,5.986,0,0,0,1.18-4.369V4.21Z" transform="translate(168.358 14.185)" fill="#0099d9"/>
      <path id="パス_25" data-name="パス 25" d="M73.6,27.276a3.058,3.058,0,0,0-1.18-2.578,14.505,14.505,0,0,0-4.107-1.922,49.374,49.374,0,0,1-4.763-1.835,9.088,9.088,0,0,1-6.073-8.214,7.253,7.253,0,0,1,1.486-4.369,9.656,9.656,0,0,1,4.369-3.1,16.516,16.516,0,0,1,6.2-1.092,14.55,14.55,0,0,1,6.03,1.18A9.481,9.481,0,0,1,79.712,8.75,8.739,8.739,0,0,1,81.2,13.818H73.6a3.8,3.8,0,0,0-1.136-2.927,4.588,4.588,0,0,0-3.19-1.049,4.894,4.894,0,0,0-3.146.874,2.753,2.753,0,0,0-1.18,2.272,2.84,2.84,0,0,0,1.267,2.185,17.739,17.739,0,0,0,4.369,2.01,23.42,23.42,0,0,1,5.549,2.01,8.739,8.739,0,0,1,5.068,8.04,7.559,7.559,0,0,1-3.1,6.423,13.807,13.807,0,0,1-8.433,2.316,16.56,16.56,0,0,1-6.86-1.354A10.486,10.486,0,0,1,58.172,30.9a9.656,9.656,0,0,1-1.66-5.593H64.07a4.85,4.85,0,0,0,1.267,3.67A5.986,5.986,0,0,0,69.706,30.2a4.85,4.85,0,0,0,2.927-.83,2.534,2.534,0,0,0,1.092-2.228" transform="translate(190.397 14.014)" fill="#0099d9"/>
      <path id="パス_26" data-name="パス 26" d="M88.845,9.977H79.451V35.363H71.936V9.977H62.76V4.21H88.845Z" transform="translate(211.457 14.185)" fill="#0099d9"/>
      <path id="パス_27" data-name="パス 27" d="M88.465,29.508H78.241l-1.791,5.811H68.41L79.726,4.21h7.035L98.3,35.363H90.344ZM79.726,23.7h6.729L83.091,12.9Z" transform="translate(230.493 14.185)" fill="#0099d9"/>
      <rect id="長方形_2" data-name="長方形 2" width="7.515" height="31.197" transform="translate(332.154 18.395)" fill="#0099d9"/>
      <path id="パス_28" data-name="パス 28" d="M105.071,35.363H97.6l-11.054-19.4v19.4H79.03V4.21h7.515L97.6,23.61V4.21h7.471Z" transform="translate(266.275 14.185)" fill="#0099d9"/>
      <path id="パス_29" data-name="パス 29" d="M105.819,29.542H95.682l-1.835,5.811H85.72L97.124,4.2h7.3l11.535,31.153h-8.3Zm-8.476-5.767h6.685l-3.364-10.792Z" transform="translate(288.816 14.151)" fill="#0099d9"/>
      <path id="パス_30" data-name="パス 30" d="M93.21,35.392V4.239H104.4a15.817,15.817,0,0,1,9.175,2.185,7.384,7.384,0,0,1,3.146,6.423,7.3,7.3,0,0,1-1.136,4.107,6.423,6.423,0,0,1-3.277,2.534,6.641,6.641,0,0,1,3.758,2.4,6.947,6.947,0,0,1,1.311,4.369,8.214,8.214,0,0,1-2.927,6.9,13.545,13.545,0,0,1-8.739,2.316Zm7.515-18.176h3.932a5.33,5.33,0,0,0,3.5-.918A3.146,3.146,0,0,0,109.2,13.72a3.364,3.364,0,0,0-1.136-2.84,6.117,6.117,0,0,0-3.67-.874h-3.67Zm0,4.937v7.384h4.937a4.631,4.631,0,0,0,3.1-.918A3.321,3.321,0,0,0,109.857,26a3.452,3.452,0,0,0-3.845-3.932Z" transform="translate(314.052 14.156)" fill="#0099d9"/>
      <path id="パス_31" data-name="パス 31" d="M107.305,29.6h13.064v5.767H99.79V4.21h7.515Z" transform="translate(336.222 14.185)" fill="#0099d9"/>
      <path id="パス_32" data-name="パス 32" d="M124.642,22.124h-11.8V29.6h13.982v5.767h-21.5V4.21h21.5V9.977H112.845v6.6h11.8Z" transform="translate(354.888 14.185)" fill="#0099d9"/>
      <path id="パス_33" data-name="パス 33" d="M43.57,44.586V14h9.875A14.419,14.419,0,0,1,60.7,15.836a13.108,13.108,0,0,1,5.068,5.2A15.336,15.336,0,0,1,67.6,28.551v1.4a15.773,15.773,0,0,1-1.791,7.515,12.715,12.715,0,0,1-4.981,5.2,14.331,14.331,0,0,1-7.209,1.922Zm7.384-24.9V38.906h2.578a5.68,5.68,0,0,0,5.025-2.272,10.923,10.923,0,0,0,1.7-6.685V28.638a10.923,10.923,0,0,0-1.7-6.685,5.9,5.9,0,0,0-4.937-2.272Z" transform="translate(146.8 47.169)" fill="#0099d9"/>
      <path id="パス_34" data-name="パス 34" d="M67.916,31.608H57.08v7.3H70.014v5.68H49.74V14H70.057v5.68H57.08v6.467H67.916Z" transform="translate(167.589 47.17)" fill="#0099d9"/>
      <path id="パス_35" data-name="パス 35" d="M69.064,36.24,75.137,14h8.214L73.084,44.585H65.044L54.82,14h8.171Z" transform="translate(184.705 47.17)" fill="#0099d9"/>
      <path id="パス_36" data-name="パス 36" d="M79.949,31.608h-10.7v7.3h12.8v5.68H61.86V14H82.09v5.68H69.244v6.467h10.7Z" transform="translate(208.424 47.17)" fill="#0099d9"/>
      <path id="パス_37" data-name="パス 37" d="M74.444,38.9H86.066v5.68H67.06V14h7.384Z" transform="translate(225.945 47.17)" fill="#0099d9"/>
      <path id="パス_38" data-name="パス 38" d="M98.213,30.188a18,18,0,0,1-1.66,7.908,12.758,12.758,0,0,1-4.719,5.331,14.215,14.215,0,0,1-13.894.044,12.19,12.19,0,0,1-4.588-5.112,17.958,17.958,0,0,1-1.748-7.69v-1.7a18.133,18.133,0,0,1,1.617-7.908,12.409,12.409,0,0,1,4.5-5.287,14.025,14.025,0,0,1,13.938,0,12.321,12.321,0,0,1,4.762,5.243,18.525,18.525,0,0,1,1.7,7.821Zm-7.384-1.267a12.54,12.54,0,0,0-1.529-6.9,4.85,4.85,0,0,0-4.369-2.359c-3.714,0-5.68,2.753-5.855,8.3v2.228a13.414,13.414,0,0,0,1.486,6.9,4.937,4.937,0,0,0,4.369,2.447,4.85,4.85,0,0,0,4.369-2.4,12.715,12.715,0,0,0,1.529-6.816Z" transform="translate(241.238 46.886)" fill="#0099d9"/>
      <path id="パス_39" data-name="パス 39" d="M85.526,34.188v10.4H78.36V14H90.55a14.2,14.2,0,0,1,6.2,1.311,9.787,9.787,0,0,1,5.636,9.088,8.739,8.739,0,0,1-3.19,7.078,13.108,13.108,0,0,1-8.739,2.665Zm0-5.68h4.85a4.369,4.369,0,0,0,3.233-1.049A4.107,4.107,0,0,0,94.745,24.4a5.112,5.112,0,0,0-1.136-3.408,4.369,4.369,0,0,0-3.146-1.311H85.526Z" transform="translate(264.018 47.169)" fill="#0099d9"/>
      <path id="パス_40" data-name="パス 40" d="M94.136,14l6.816,21.278L107.768,14h9.7V44.585h-7.384V37.419l.7-14.593L103.4,44.585h-4.85L91.121,22.826l.7,14.593v7.166H84.48V14Z" transform="translate(284.638 47.17)" fill="#0099d9"/>
      <path id="パス_41" data-name="パス 41" d="M111,31.608H100.164v7.3H113.1v5.68H92.78V14h20.361v5.68H100.164v6.467H111Z" transform="translate(312.603 47.17)" fill="#0099d9"/>
      <path id="パス_42" data-name="パス 42" d="M123.517,44.585h-7.34L105.34,25.535v19.05H98V14h7.34l10.836,19.05V14h7.34Z" transform="translate(330.191 47.17)" fill="#0099d9"/>
      <path id="パス_43" data-name="パス 43" d="M129.927,19.68h-9.132v24.9h-7.384V19.68h-9V14h25.517Z" transform="translate(351.788 47.17)" fill="#0099d9"/>
      <line id="線_1" data-name="線 1" y2="80.22" transform="translate(152.095 14.812)" fill="none" stroke="#231815" stroke-miterlimit="10" stroke-width="0.5"/>
      <g id="レイヤー_2" data-name="レイヤー 2" transform="translate(0.49 0.998)">
        <g id="レイヤー_1-2" data-name="レイヤー 1">
          <path id="パス_109" data-name="パス 109" d="M69.6,51.611l-.055.591v.563l-.088.554-.125.545-.074.554-.1.554-.268.513-.051.568-.1.55-.189.55-.259.462-.139.545-.162.54-.236.508-.125.554-.245.5-.171.536-.254.508-.268.462-.337-.4-.365-.416L65.7,60.5l-.3-.462-.189-.526-.314-.462-.254-.462-.194-.508-.365-.462-.208-.5-.088-.563-.291-.462-.148-.531-.115-.54-.282-.508v-.554l-.268-.5v-.526l.212-.462.175-.434.282-.393.582.065.54-.1h.573l.563.051.573.055.563-.106.577.06.563.028h.573l.577-.051ZM55.51,58.589l.046-.513-.074-.526v-.526l.023-.522-.037-.531v-.517l.148-.531-.088-.54-.065-.517.032-.531.1-.526-.042-.531v-.54l.522.032.513-.079.517.037.517-.06.513.028.526.1.513-.055.517-.06.637-.162-.157.559-.314.462L59.666,53l-.259.462-.3.429-.139.526-.268.462-.383.374-.231.517-.319.425-.337.4-.222.462.291.462.462-.4.5-.231.4-.369.369-.411.462-.319.462-.314.337-.434.4-.379.42-.346.342-.337.115.462v.545l.069.545.106.531.162.526.2.513.106.526.106.536.069.55.245.5.152.517.139.522.171.522.166.536.286.462.134.545.226.489.291.462.175.508.272.462.217.462-.162.513-.337.429-.351.434-.3.462-.3.462-.323.462-.411.365-.388.411-.3.462-.365.411-.462.332-.328.462-.383.393-.462.337-.351.425-.462.286-.393.383-.4.369-.383.411-.513.249-.42.351-.42.36.028.046.411.716.051-.115.531-.12.462-.3.522-.125.462-.245.416-.346.508-.175.462-.249.416-.342.462-.259.462-.272.429-.323.462-.286.383-.388.462-.291.462-.254.379-.388.351-.411.462-.272.369-.4.342-.406.42-.351.323-.36.374.36.36.462.388.393.282.5.439.365.337.462.365.462.429.351.462.332.42.365.406.388.406.393.462.328.531.222.429.342.462.351.494.272h.222l.171-.55.212-.531.365-.462.4-.411.388-.406.439-.379.462-.309.559-.12v-.06l.083-.734h-.051l.032-.129-.462-.208-.494-.222-.5-.189-.485-.24-.462-.231-.462-.231-.462-.3-.462-.3-.522-.185-.374-.429-.531-.175-.351-.42-.5-.231-.42-.332-.42-.351-.332-.462-.434-.328-.462-.351.346-.513.291-.462.217-.5.342-.462.291-.462.171-.531.194-.526.332-.462.1-.568.268-.494.166-.536.189-.522.208-.517.152-.545L72.508,57l.222-.513.245-.508.152-.545.037-.568.24-.508.037-.586.573-.125.5-.208.332-.462-.3-.531-.573-.148-.6-.231-.614-.18-.6-.249.6.042.591-.037.582-.065.6.074.586.06.591-.139.462.074.4-.291L76.7,50.9l-.065-.462-.379-.291-.332-.5-.462-.356L75,48.961l-.462-.388-.383-.434-.462-.374-.42-.411-.628-.4-.577.5-.346.462-.351.462-.249.462-.42.4-.259.522H69.331l-.554.028-.554-.046h-.545l-.554.092H65.475l-.55-.032h-.6l.212-.563.337-.462.152-.531.323-.462.2-.5.208-.508.254-.485.157-.554.208-.517.268-.462v.032l.559-.2.526-.217.286-.462-.143-.42-.4-.263-.462-.037-.5-.217-.5-.2-.531-.088L65,42.454l-.513-.175-.536-.065-.54-.194-.522-.18-.065.079-.092.028v.563l-.1.545-.069.55-.074.568-.166.513-.083.554-.212.536-.037.568-.18.526-.171.531-.074.545-.148.545-.217.517-.1.573-.217.513-.231.494-.319-.337-.342-.462-.462-.374-.393-.462-.388-.462-.388-.429-.591-.4-.55.462-.277.42-.231.462-.259.425-.3.462h-.665l.079-.6-.088-.559.1-.554-.018-.6V44.223l.577-.189.508-.272.272-.554-.36-.522-.642-.106-.522-.125-.554.046-.54-.083-.517-.152-.531-.069h-.559l-.536-.088-.54-.143.092.212.06.573-.046.573.06.563-.06.573.143.573-.065.577.065.568-.134.513.134.526v.517l-.1.522.1.517-.088.531.088.559-.656-.06h-.6l-.637-.037-.614.037.222-.5.028-.559.245-.5.055-.559.065-.55.115-.337.531-.115.462-.286.175-.462-.314-.536-.67-.12-.462-.194-.494-.125-.462-.111-.526-.028-.531-.139-.5-.092-.508-.139-.042.042-.106.032.028.559-.069.545.1.559-.088.554-.037.554v.554l-.037.55-.032.55-.106.545-.069.554-.046.55-.069.55-.115.545-.171.531-.1.54-.078.55v.554l-.106.54-.175.536-.1.536-.152.545-.046.55L45,57.111l-.12.536.032.245.707.36v-.134l.332-.462.374-.42.18-.526.3-.462.3-.462.166-.536.342-.462.088-.513.328-.462.134-.531.277-.485.148-.536L48.8,51.8l.462.023.5-.139.494.139.513-.148.5.079.462.037V52.3l-.037.554.065.559.1.545v.568l-.1.554-.028.554.143.563-.166.554.083.554v.559l-.06.55v.563l.051.559-.526.083-.517.12-.526.074-.508.171-.517.069-.526.083-.508.125-.517.148-.522.032-.517.143-.531.069H45.014v.037l.083.536.245.508.208.513.083.554.226.536.175.531.185.517.152.54.365.54.462.319.462-.171.088-.494.175-.462.383-.259.5-.2.513-.175.462-.282.55-.088.489-.236.462-.323.577-.222-.125.6.055.573.069.573-.111.577.111.573-.106.573.106.577v.573l-.139.536.037.54-.051.545v.513l.1.545-.088.54.1.54-.139.55v.526l.115.614v.5l.143.489.462.166h.508l.531.092h.563l.526-.143.489-.24.462-.328.157-.513.051-.54-.032-.577.032-.6-.079-.577-.06-.586.055-.591-.055-.582-.051-.61.106-.6-.166-.591.111-.619-.083-.526.083-.536V64.352l.06-.545-.1-.531.037-.54.042-.54-.139-.54.1-.536.462-.272.462-.254.489-.208.434-.342.522-.152.462-.323.425-.323L59.288,59l.425-.328.462-.249.462-.314.065-.092-.4-.683-.462.185-.54.1-.5.231-.55.1-.522.162-.55.125-.559.069-.536.134Z" transform="translate(-24.155 -22.519)" fill="#2f613b"/>
          <path id="パス_110" data-name="パス 110" d="M84.943,136.731l-.351-.369-.319-.4-.462-.254-.365-.36-.351-.374-.365-.36-.411-.323-.568-.282v-.559l-.042-.517-.032-.517.106-.526v-.517l-.069-.619v-1.228l-.083-.55v-.55l.055-.554v-1.653l.148-.037.429-.36.429-.328.254-.462-.379-.619-.2-.1-.462-.337-.416-.369-.411-.379-.434-.379-.369-.462-.374-.212-.4-.111-.573.351-.342.508-.434.462-.36.545-.554-.028H76.7l-.536-.092-.526.074H74.585l-.531.069-.531-.12-.526.06-.526-.092-.54.051-.522.092-.531-.125-.526.042-.536-.028-.536-.106-.5-.3-.462-.222-.5-.212-.517-.171-.559-.092-.462-.268-.522-.189v.12l-.051.522.042.5.12.513v.522l-.074.5.074.508-.042.508.028.522.037.508-.055.531v1.025l.042.513-.065.526v.517l.079.513v1.025l-.046.508.042.522-.074.536-.111.55.088.545.1.586.489.3.582.175h.517l.494-.157.462-.111.494-.115.351-.346.236-.439h.531l.54.028.531-.083.526.046h.536l.536-.028h.531l.536.055.531.046.531-.051.536.06.531-.106.536.092h.536l.536.023h.5l.152.5.434.4.61-.046.5.037h.513l.462-.194.42-.134-.194.434-.36.342-.217.462-.356.332-.55.079-.554-.074h-.554l-.554.074-.563-.055-.536-.092-.559.079-.554-.028-.554.065h-.554l-.559-.115h-.554l-.559.115-.55-.028-.563-.06h-1.1L70,136.347h-.545l-.559.042-.577-.069-.55.055-.568.032H66.093l-.554-.055-.563.028h-.55l-.554-.06-.559.092-.554-.1h-.236l.134.531.185.513.24.494.185.508v.06l.055-.042.536-.032h.531l.526-.092.536.083.54-.083.586.069.633-.125-.249.526-.2.49-.18.513-.189.522-.36.425-.268.462-.217.5-.323.429-.379.4-.332.429-.263.462-.388.374-.369.4-.3.462-.365.4-.356.411-.36.429-.346.411-.425.342-.346.462-.129.055.462.6h.092l.023-.046.489-.222.517-.162.406-.369.462-.277.531-.162.416-.319.462-.268.429-.319.462-.314.342-.434.508-.231.369-.393.379-.383.309-.434.462-.319.236-.5.406-.309.462-.083h.956l-.314.494-.236.5-.282.462-.282.462-.3.462-.3.462-.323.434-.351.425-.36.42-.462.319-.291.462-.388.4-.462.342-.434.342-.328.462-.462.309-.42.346-.369.416-.462.323-.462.332-.462.314-.046.129.5.656h.092l.526-.185.494-.259.462-.254.489-.254.462-.351.494-.24.517-.2.4-.388.462-.3.5-.259.4-.369.462-.291.369-.42.388-.388.4-.369.462-.337.4-.365.374-.416.323-.434.332-.434.374-.406.332-.462.3-.462.277-.462.263-.462.3-.508.508.037.485.023.462-.055.462.125-.217.416-.171.522-.189.508-.3.462-.249.462-.3.462-.249.462-.346.42-.365.411-.286.462-.4.369-.351.4-.3.462-.388.379-.434.342-.166.453-.411.351-.462.286-.346.439-.462.309-.42.323-.462.314-.388.36-.462.291-.369.416-.462.3-.462.277-.406.356H65.46l.139.383.268.309v-.037l.517-.162.526-.157.517-.2.531-.129.5-.249.462-.323.54-.148.494-.236.425-.356.462-.277.5-.249.416-.374.489-.249.42-.356.416-.342v.1l.54.115.508.189.531.157.462.3.462.291.416.36.18.526.291.485-.042.559.1.54-.028.106.092-.1h.554l.554.055.531-.18.554.074.531-.189.545-.083.462-.3.489-.245.416-.346.393-.379.282-.462.254-.489.166-.522.24-.5.125-.526.074-.545.185-.517.125-.531v-.563l.074-.536.2-.526V145.9l.106-.531.055-.54v-.554l.078-.545v-.545l.143-.494.5-.272.434-.429.323-.462-.245-.406-.245-.411-.416-.3-.388-.342-.462-.282-.332-.406-.393-.342-.462-.3-.083-.1-.462-.143-.462.286-.356.337-.272.406-.286.374-.222.462-.545.023h-.526l-.54-.115H77.286l-.531.032h-.531l-.54.055h-.526l-.531.042-.526-.037-.54.065-.526-.092H72.5l-.536.083-.536-.092-.531.023-.531.028h-.554l.369-.42.236-.462.18-.462.291-.406.245-.489.559.1.54-.106h.55l.545.078.559-.074h.531l.568.1.54-.115.554.129h.55l.55-.143.554.129.55-.106.54.06.559-.106.55.12.536.023h.559l.545-.1h.55l.55.028h.55l.55.028h.554l.462-.134.416-.226.212-.411-.134-.462Zm-6.894-11.083-.032.61-.074.6.115.6-.028.61-.531-.023h-.54l-.526.028-.536.051-.536-.037-.526.055h-.513l-.531-.115h-.536l-.526.046H71.657l-.536.079h-.545l-.545-.106h-.554V126.83l.055-.6-.074-.61h.559l.54.032h.531l.531-.055.526-.042h.531l.531.032h.536l.531.088.531-.037h1.067l.545-.055.526.069.536-.069Zm0,4.207-.032.489-.074.508.115.5v.517l-.042.508-.522-.028-.54.046-.526.042-.536-.042-.536.065h-.522l-.513-.115h-.531l-.536.042H72.71l-.545-.028-.526.088h-.55l-.526-.06-.545.028h-.536v-.5l.055-.5-.074-.513v-.55l.037-.462h.522l.54-.042.526-.051h1.589l.531.088.536-.042h1.062l.536-.046.531.065.545-.074.526.028h.536Zm2.032,12.431-.088.526-.12.522.06.54-.065.526-.106.531-.083.522-.037.54-.032.536-.129.517-.051.54-.1.526-.249.462-.226.485-.374.365-.531.12H77.4l-.586.074-.577-.023-.582-.088h-.591l-.577-.051H73.9l.462-.346.346-.462.393-.4.388-.4.374-.429.309-.462.3-.462.323-.462.332-.462.309-.462.356-.429.249-.508.259-.508.226-.5.212-.531.3-.462.513-.078.517.037Z" transform="translate(-32.762 -65.695)" fill="#2f613b"/>
          <path id="パス_111" data-name="パス 111" d="M54.873,141.641l-.536.268-.526.185-.54.152-.55.129-.494.259-.531.088-.055-.531-.023-.531.079-.54.037-.545-.032-.531.032-.536-.139-.536.139-.545-.139-.536.074-.526.028-.55-.042-.531-.051-.54.106-.536-.088-.54.111-.54-.1-.573.573-.014.554.069.536.037.55-.143.55.014.545.125.462-.175.443-.12.254-.42-.4-.72-.314-.42-.448-.314-.319-.429-.416-.337-.323-.429-.651-.369-.457.485-.425.388-.249.5-.328.457-.185.046.12-.563-.106-.536.129-.545-.111-.54v-.536l.042-.55v-1.085l.018-.55.051-.536-.111-.54.06-.545,0-.536.5-.24.485-.268.286-.476-.337-.453-.545-.236-.12-.078-.522.014-.517-.042-.513-.06-.508-.129-.517.092-.522-.074-.5-.051-.508-.166-.074.065-.023.074.115.517-.046.545.046.531,0,.531.065.526-.078.531.092.522-.014.54.023.536-.055.536-.037.526v.545l.023.531.046.54-.1.54.037.536.065.54-.619.037-.573-.106-.582.037-.568.06-.577-.065-.582-.1-.563-.028-.129.009.143.494.263.457.212.485.106.517.055,0,.023-.023.582.042.577-.042.568.088.577-.129.573.083.466-.009.065.536-.079.531-.009.54-.009.531.078.536-.115.531.014.545.134.522-.018.545.009.526-.069.54.018.536v.54l-.088.522.014.54.055.545.032.531-.055.545.042.536-.513.111-.5.162-.508.092-.517.06-.513.032-.508.139-.513.046-.5.079-.088-.018.259.522.157.559.217.531.236.526.263.526.208.54.245.513.189.55.042.148.282.476.416.268.388-.259.148-.466.143-.462.4-.356.462-.323.443-.332.517-.231.453-.332.448-.323.485-.3.489-.268.411-.4.457-.254.406-.332.448-.286.383-.365.466-.236.388-.36.448-.282.416-.319.388-.346.416-.4-.286-.337Z" transform="translate(-23.542 -65.964)" fill="#2f613b"/>
          <path id="パス_112" data-name="パス 112" d="M171.032,56.893l-.434-.319-.536-.106-.416-.365-.485-.222-.522-.148-.457-.259-.429-.323-.489-.2-.489-.189,0,.069-.2.526-.106.55-.12.55-.2.522-.249.5-.092.554-.291.494-.152.536-.291.48-.24.508-.18.536-.185.531-.319.466-.263.494-.189.526-.231.513-.3.471-.236.522-.332.453-.328.462-.028.106.6.48.055.083.065-.06.466-.3.4-.356.494-.259.411-.36.379-.4.439-.319.393-.369.388-.388.4-.369.434-.337.393-.365.393-.379.374-.4.245-.5.383-.393.425-.351.369-.4.277-.466.328-.457.517-.032.485-.06.411-.162.212-.388-.143-.439-.393-.272Z" transform="translate(-87.321 -29.473)" fill="#2f613b"/>
          <path id="パス_113" data-name="パス 113" d="M129,65.925l.48-.092.485-.139.416-.291.434-.291.282-.443.139-.5.129-.5.06-.513-.134-.536-.1-.517-.12-.531-.217-.494-.3-.434-.254-.476-.291-.466-.328-.416-.471-.3-.346-.406-.374-.4-.462-.282-.429-.332-.466-.254-.434-.328-.453-.3-.48-.231-.476-.245-.457-.286-.494-.2-.1-.06-.614.55.148.148.272.485.259.485.309.457.286.471.208.522.259.485.337.453.18.522.249.494.226.508.2.513.055.559.272.5.139.531.092.513.129.494.272.443.226.462.259.457.485.212Z" transform="translate(-66.54 -29.957)" fill="#2f613b"/>
          <path id="パス_114" data-name="パス 114" d="M150.13,60.264l-.328-.429-.411-.351-.351-.411-.406-.346-.471-.282-.319-.457-.411-.346-.365-.411-.7-.323-.679.411-.245.559-.369.471-.314.5-.388.471-.3.48-.489.018-.536.074-.536-.009-.531.055-.522-.143-.526.1-.522-.028-.531.014-.536.014-.526-.018-.531-.074-.526,0-.526.009-.536.106-.531-.065-.485-.042-.12-.494.134-.526-.106-.54-.028-.545.115-.54-.106-.536.134-.536-.115-.531.046-.55-.046-.531.023-.545.051-.54,0-.54.037-.54-.032-.536v-.54l-.065-.54V50.16l.014-.545.065-.531-.088-.54.023-.55.055-.536.023-.54-.092-.545.014-.563.568-.014.55.115.54-.065.545.018.549-.055.54.018.55.037.54-.051.545.065.54-.115.559.143.54-.023.545-.032.55,0,.545,0,.545-.037.55.042.536-.06.559-.028h.536l.554.074.55-.046.471-.12.388-.245.194-.425-.078-.508-.328-.393-.443-.3-.425-.323-.351-.393-.443-.309-.319-.429-.425-.332-.429-.323-.36-.388-.66-.323-.619.323-.342.494-.346.485-.231.55-.319.5-.365.489-.545-.106-.545.129-.54-.032-.545-.046-.526.028-.554.051-.536.032-.54-.139-.531.083-.559.042-.536-.083-.526-.014-.554.055-.54-.042-.54.014-.531.069-.545-.1-.545.055-.55-.023-.526.023-.55-.1-.54.088-.545.042-.536-.074-.55.088-.54-.055-.536-.032-.545-.014-.54.032-.55.023-.536-.037h-.55l-.526.042-.554.028-.536-.106-.545.06-.545.055-.582-.042-.582-.083-.568.06-.577-.032-.568-.088-.573-.092-.194.069.208.582.254.554.106.6.152.573.079.074.078-.088.54.032.517-.162.54.111.536-.018.522-.162.559.148.554-.009.563-.111.55.111.55-.129.559.143.554-.046.554-.079.554.079.559-.074.554.055.554,0,.563-.037.55-.037.559.134.559-.143.559.074-.069.526.078.54-.078.545.037.536.046.54.06.531-.106.545v.54l.055.536-.023.54-.032.536-.018.54-.018.54v.536l.129.55-.106.536.088.536-.014.536-.014.536.046.54-.074.545-.065.545.106.536-.079.545v.536l.06.554h-.545l-.563-.046-.545.1-.545-.1h-.545l-.55-.042-.55.018-.55.083-.54-.046-.554-.055-.545.088-.554.051-.536-.023-.55-.018-.55-.042h-.545l-.545.014-.55-.069-.55.023-.559-.023-.568.088-.582.046-.573-.065-.577-.051-.568-.037-.573-.014-.148-.042.263.554.162.573.175.563.194.577-.023.055.051,0,.545-.051.526-.018.531-.032.531.051.54-.139.54.111.554-.139.563.111.54.055.55-.083.559-.014.545-.042.563.069.55-.028.554.079.554-.079.554-.023.545-.037.559.088.554.055.545,0,.554-.139.554.06.554-.042.6.018-.014.614-.079.573.014.563v.559l.092.591-.069.568.037.568.032.573-.092.582.092.55-.092.554-.028.559.088.559-.009.563-.032.554-.018.568-.051.545.088.554-.115.559.014.545.314.443.485.226.54.051.55-.1.554-.037.554-.065.55-.106.443-.356.226-.513.115-.536v-.526l-.046-.517-.023-.522-.069-.545v-.559l.092-.554-.069-.554.023-.554-.046-.554v-.55l.079-.536-.079-.536v-.536l.079-.531-.111-.54.055-.54v-.54l.042-.54-.065-.554.559.1h.531l.536-.115.531.028.545-.051.54.069.526-.083.54.069.526.037.545-.009.526.037.545-.009.536-.092.531.088.54-.018.536.018.536-.088h.54l.536.06.531-.046.545-.032.531.069.536-.051.545.065.54.009.531.046.494-.157.466-.249.115-.513-.148-.462Z" transform="translate(-62.956 -22.056)" fill="#2f613b"/>
          <path id="パス_115" data-name="パス 115" d="M151.459,125.7l-.416-.4-.462-.291-.379-.429-.5-.3-.462-.351-.425-.379-.679-.194-.711.3-.2.462-.272.4-.277.393-.282.369-.5.06h-.536l-.545.042-.536-.1-.54.078-.54-.042h-1.071l-.54.078-.531-.037-.545.032-.54.037-.54-.134-.536.1-.536-.037-.531.088-.54-.088-.55.079-.545-.1h-.531l-.54.083-.54-.065h-1.621l-.531.078-.545-.051-.54.092-.536-.074-.545-.042h-.536l-.54.088-.545-.083-.54.051-.536-.028-.462-.212L126.6,125l-.5-.162-.5-.185-.462-.185-.462-.222-.522-.129-.462-.286-.526-.1-.106-.129v.139l.175.563-.092.586.092.573.065.573-.088.582.083.573v.573l-.083.586.078.54v1.09l-.032.545v.55l-.065.545.115.55v1.094l-.157.55.129.545-.065.554.046.55V136l.028.55-.1.55.083.554-.088.545.023.55.078.545-.06.545v1.653l.106.545v.554l-.134.559v.536l.1.549-.1.55v.55l.092.55.046.554-.12.545v1.658l.06.6v1.81l-.134.619.069.619-.092.619.06.522.374.332.462.194.517.1.582-.1.568-.046.563-.083.5-.259.489-.3.092-.586v-.563l.092-.425-.074-.462.6.069.55.06.545-.065.55.083.55-.06h1.1l.55-.023h.554l.545-.088.55.162.549-.078h.545l.559.042.549-.055.55-.06.554.083h.545l.554-.055.549-.046.559.1.526-.055H140.6l.545.069.554-.083.55-.065.54.028.563.046.545.069.554-.032h.554l.554-.06.55.06.582-.051v.531l-.051.513-.051.5.231.462.286.346.425.259h1.459l.462-.185.513-.092.462-.259.277-.434.143-.494-.1-.5.051-.513-.092-.508v-.5l-.042-.531V148.25l-.051-.526.028-.54.046-.54-.1-.545.065-.55.051-.536-.1-.54v-.55l.079-.545-.134-.554.157-.54-.157-.545.115-.536-.078-.55v-.55l.069-.54.028-.55-.079-.54.1-.545.032-.651-.046-.55.055-.55v-.517l-.1-.55.046-.545v-.54l.023-.55v-.586l-.06-.536v-1.081l.1-.55-.065-.55.051-.55-.032-.545-.055-.545.032-.554.462-.217.379-.374.4-.328.157-.494-.212-.517Zm-4.83,13.461-.042.586.055.554-.1.559.079.563v.55l-.028.563.1.549-.143.563.06.559v1.108l-.042.554.069.563v.554l.042.554-.088.563.083.559-.037.563-.55-.028-.55-.028-.536.083-.559-.028-.54.028-.55.028-.55-.125-.545.1-.545-.037-.545.078-.554-.078-.55.078-.55-.1h-.508l-.069-.531.06-.55.028-.563v-.559l.028-.55-.088-.55.046-.573-.092-.554.074-.55.051-.55V143.1l-.1-.554.1-.55-.051-.568.032-.554v-.559l-.037-.559-.037-.568h1.094l.545.042.545-.083.549.1.55-.12.55.115h.526l.559-.111.55.129.55-.06.54-.037.559.092Zm0-11.955-.046.61.055.55-.1.563.079.554v.563l-.037.54.1.554-.143.559.06.559v1.1l-.042.549.069.554v.568l.042.559-.083.54.083.563-.037.549-.55-.032h-.55l-.536.074-.559-.032-.54.032-.55.032-.549-.129-.545.111-.545-.046-.545.088-.554-.088-.55.083-.55-.1H139l-.069-.517.06-.559.028-.554v-.559l.028-.55-.088-.568.046-.554-.092-.55.074-.568.051-.545v-.568l-.1-.559.1-.554-.051-.563.032-.55v-.563l-.037-.559-.037-.559h1.094l.545.032.545-.069.55.088.55-.1.55.1.526.028.559-.115.55.134.549-.065.54-.051.559.106Zm-11.6,0-.06.586.06.55-.1.563.074.554v.563l-.042.554.106.554-.148.559.06.559v1.108l-.023.549.065.554v.568l.046.559-.092.554.078.563-.046.549-.536-.032h-.545l-.554.074-.54-.032-.549.032-.545.032-.55-.129-.54.111-.545-.046-.563.088-.536-.088-.545.083-.55-.1H127.4l-.079-.517.065-.559V134.5l-.079-.568.042-.554-.079-.55.065-.568.037-.545v-.563l-.1-.559.1-.554-.06-.563.032-.55v-1.122l-.042-.559h1.1l.54.032.54-.069.545.088.55-.1.545.1.55.028.55-.115.545.134.545-.065.559-.051.545.106Zm0,11.955-.06.586.069.536-.1.559.074.563v.55l-.042.563.106.55-.148.563.06.559v1.108l-.023.554.065.563v.554l.046.554-.092.563.079.559-.046.563-.536-.028-.545-.028-.554.083-.54-.028-.55.028-.545.028-.55-.125-.54.1-.545-.037-.563.079-.536-.079-.545.079-.55-.1h-.55l-.078-.531.065-.55v-1.672l-.078-.55.042-.573-.078-.554.065-.55.037-.55v-.568l-.1-.554.1-.55-.06-.568.032-.554v-1.118l-.042-.568h1.1l.54.042.54-.083.545.1.55-.12.545.115h.55l.55-.111.545.129.545-.06.559-.037.545.092Z" transform="translate(-66.234 -66.395)" fill="#2f613b"/>
          <path id="パス_116" data-name="パス 116" d="M53.83.277,53.28.236,52.74.185,52.181.023l-.545.212h-.545L50.556.185H49.475l-.526.2L48.394.245,47.84.332l-.531.194L46.755.462l-.536.125h-.554l-.489.4h-1.1l-.526.129-.517.189-.522.152-.573-.074-.554.032-.489.309-.517.148L39.8,1.847l-.462.309-.545.185-.545.055-.462.291H37.2l-.5.222-.513.2-.462.342-.614-.069-.513.175-.489.245-.4.388-.568.032-.425.4-.582.042-.429.369-.6.051-.494.24-.379.462-.559.106-.508.208-.4.411-.513.2-.5.226-.462.3-.489.231-.388.42-.513.2-.573.111-.406.374L24.557,9l-.6.079-.4.388-.4.374L22.627,10l-.462.3-.328.462-.462.319L21,11.494l-.568.152-.332.462-.5.245-.462.272-.342.425-.332.462-.4.365-.462.3-.489.272-.383.4-.2.568-.462.309-.462.3-.342.434-.286.462-.545.24-.3.462-.263.494-.462.337L13,18.817l-.314.462-.3.462-.3.462-.494.3-.175.559-.406.365-.212.526-.568.263-.286.462-.346.429-.236.508-.314.462-.272.462-.249.489-.346.416-.332.462-.083.582-.489.291v.623l-.5.337-.055.6-.263.462-.245.462-.462.379-.166.526-.125.531-.245.5-.259.462-.162.522-.36.434-.286.462-.079.6-.12.536-.434.416.065.6-.3.462-.1.545-.148.522-.208.5-.106.531-.162.526-.236.5-.328.462-.134.536.074.577-.328.485.079.573-.092.563-.143.536-.356.462-.055.54.129.586-.129.526-.074.54-.18.5-.226.522v.55l.065.559-.222.517L.222,48.4l.24.55-.3.526.069.545v.545l-.162.554.226.559-.3.531.083.55.139.55.046.545L.129,54.4l.092.554V55.5l-.092.55.217.536-.069.55-.055.55.2.5-.2.568.24.531-.032.554.046.536L.61,60.9v.55l.074.531.24.522.046.545.134.522.115.531.065.545.1.526.166.522-.088.573.328.489-.051.573.18.508.194.526.042.554.351.462.171.513.032.563.129.531.323.462.194.508.125.54.166.522.12.536.411.425.092.554.134.536.328.462.06.568L5,76.609l.4.416.143.54.212.5.462.383.065.577.388.4.226.508.319.439.346.429.162.536.328.462.143.55.434.365.212.513.249.494.383.388.328.462.212.5.513.3.24.494.259.5.429.346.231.513.462.319.314.462.314.462.356.406.291.462.379.4.356.416.462.3.4.369.36.4.379.406.231.522.522.259.263.5.429.337.425.351.4.369.416.369.406.36.379.383.462.3.36.4.411.365.462.314.462.309.494.245.369.416.568.134.434.337.346.462.462.286.531.185.429.337.374.429.586.083.462.291.383.416.494.217.4.4.573.088.462.332.54.162.36.462.582.037.508.208.411.411.563.06.429.374.582.042.434.356.5.226.494.231.536.148.462.319.591-.028.434.393.568.046.55.042.494.254.462.277.545.125.536.065.513.18h.563l.494.291.508.157.536.143.563-.055.526.171.545.046.513.2.559-.055.5.356h.55l.526.2.573-.175.522.208.545.051H49.5l.531.143h.55l.54-.032.545.046.545.065.545.18h1.09l.545-.194h.531l.55.134.55-.032.554.037.526-.152.554.051H58.2l.517-.282.582.231.5-.286h.559l.554.111.5-.3H62.53l.5-.291.577.139.489-.323.577.1.489-.3.573.065.517-.222h.559l.536-.111.462-.411.6.129.462-.434h.559l.559-.055.489-.24.559-.083.462-.332.462-.3.517-.162h.6l.513-.152.406-.462.623.078.429-.369.508-.2.55-.12.462-.254.462-.328.531-.148.462-.254.513-.189.439-.351.508-.194.5-.245.434-.323.406-.508.508-.2.393-.406.462-.268.531-.212.489-.226.332-.494.568-.12.374-.425.411-.356.563-.148.365-.434.462-.3.42-.346L87.152,96l.314-.462.485-.272.462-.286.319-.462.563-.185.272-.5L90,93.492l.462-.319.3-.489.586-.175.36-.406.236-.54.365-.393.582-.208.268-.489.286-.462.536-.259.175-.573.513-.272.236-.513.323-.462.545-.259.272-.462.4-.374.337-.462.162-.563.462-.337.134-.577.517-.3.3-.462.106-.586.36-.42.4-.388.208-.5.226-.508.462-.356.319-.434.226-.508.175-.536.332-.434.185-.517.314-.462.185-.522.323-.462.1-.563.24-.462.356-.462.134-.54.139-.526.434-.411-.046-.6.379-.434,0-.536.286-.462.24-.5.152-.517.3-.462-.032-.582.24-.494.259-.462-.111-.6.314-.462.065-.55.139-.526.231-.5-.042-.577.356-.462V64.691l.282-.494v-.554l.245-.508.074-.54.129-.531-.175-.646.069-.54.249-.513-.115-.563.162-.522v-.554l.083-.531.185-.536V56.563l.078-.54-.166-.55.231-.536-.231-.55.042-.545.2-.545-.2-.545-.037-.54.042-.545-.115-.54.046-.55v-.545l.051-.554-.226-.526.157-.563-.134-.526-.092-.536-.111-.54-.162-.522-.078-.55-.042-.55v-.522l-.212-.508.088-.586-.3-.489.079-.577-.328-.462.079-.568-.226-.508-.236-.508-.134-.526.046-.573-.309-.5.065-.586-.4-.462-.051-.568-.175-.5-.088-.559-.152-.513-.379-.462-.18-.517-.06-.494-.115-.54-.416-.416-.194-.513-.032-.573-.3-.462-.166-.522-.356-.439-.259-.462-.282-.462-.277-.462-.291-.462-.134-.545-.36-.429-.129-.545-.291-.462-.309-.462-.166-.545-.323-.439-.3-.462-.277-.462-.342-.434-.254-.526-.346-.429-.3-.462L97.38,22.2l-.411-.388-.272-.462-.369-.4-.356-.411-.3-.462-.5-.291L95,19.219l-.337-.425-.526-.249-.383-.393-.356-.411-.157-.6-.462-.291-.42-.346L92,16.093l-.406-.356-.254-.526-.513-.249-.309-.462-.365-.411-.573-.175-.291-.522-.429-.346-.42-.346-.55-.189-.4-.369-.4-.379-.5-.231-.411-.36-.4-.369-.365-.42-.494-.231-.365-.462-.462-.3-.513-.208-.416-.374-.508-.2-.526-.2L81.8,7.906l-.462-.323L80.881,7.3l-.508-.217-.462-.254L79.352,6.7l-.439-.323-.462-.346-.513-.189-.462-.328-.54-.125-.545-.12-.462-.3L75.4,4.793l-.462-.3L74.43,4.3l-.54-.1-.5-.2-.425-.231-.526-.162-.42-.411-.508-.208-.513-.18-.522-.175-.545-.079H69.35L68.888,2.3l-.54-.125-.508-.185-.522-.134-.586-.014-.462-.388-.536-.115L65.2,1.219h-.559l-.522-.194-.54-.032-.563.032-.536-.1-.5-.268h-.563L60.881.591,60.355.374,59.819.346l-.563.212-.531-.3-.54.129L57.639.217l-.55.032-.54-.106L56.018.028l-.563.115-.55.032L54.374,0Zm0,102.861-.554-.065-.54-.055-.54-.2-.559.166-.545-.042-.536-.115-.55-.069-.531-.1-.573.106-.513-.245-.55-.037-.554.069-.526-.222-.55-.028-.526-.162-.591.222-.526-.189-.513-.189-.54-.083-.568-.032-.54-.092-.489-.314-.5-.226-.591.032-.517-.143-.462-.328h-.568l-.554-.134-.462-.272-.573-.046-.462-.369-.536-.134-.522-.162-.563-.055-.416-.462-.494-.212-.526-.18-.591-.028-.42-.388-.582-.055-.406-.42-.568-.1-.388-.439-.462-.245-.6-.046-.393-.416-.462-.3-.554-.139-.462-.346-.462-.314-.462-.259-.434-.337-.54-.171-.416-.383-.314-.462-.513-.236-.531-.194-.286-.54L23.86,92.7l-.485-.272-.332-.462-.416-.356-.545-.2-.411-.369-.462-.286-.259-.536-.5-.254-.309-.462-.332-.462-.462-.314-.462-.309-.393-.369-.323-.462-.277-.489-.383-.383-.559-.24-.3-.462-.254-.5-.4-.374-.462-.346-.162-.568-.4-.388-.462-.342-.236-.508L14.01,82.5l-.365-.406-.369-.416-.342-.434-.143-.563-.462-.337-.2-.522-.425-.383-.023-.623-.291-.462-.24-.485-.346-.434-.254-.489-.3-.462-.286-.462-.185-.513-.2-.517L9.139,74.6l.042-.623-.513-.365L8.7,73l-.434-.416-.185-.545-.2-.508.028-.6-.277-.462-.277-.462-.18-.522-.125-.531-.24-.508v-.563l-.074-.55-.291-.485-.236-.513.115-.586-.406-.462v-.554l-.185-.517-.157-.526L5.5,63.134l-.148-.526-.1-.545v-.55l.1-.568-.088-.54-.3-.508.152-.573L4.849,58.8l-.106-.531v-.55l.2-.573-.092-.536-.231-.559v-1.1l.088-.55.148-.545-.069-.545-.125-.554.175-.545.125-.55L4.7,51.105l.3-.526-.074-.55v-.554l.162-.526-.189-.577.337-.517L5.2,47.309l-.074-.573.042-.54.217-.517v-.563l.139-.526.208-.513L5.661,43.5l.2-.513.222-.508-.051-.586.379-.462-.037-.573.217-.508.175-.517.1-.545.249-.5.185-.522V37.69l.2-.508.166-.522.175-.517.254-.462.208-.536.166-.513.42-.411.032-.591.4-.416.194-.513.2-.508.337-.462.1-.573.24-.5.388-.416.314-.462.125-.55.263-.489.36-.425.314-.462.36-.42.111-.577.416-.388.374-.393.217-.526.462-.337.342-.425.18-.559.416-.374.356-.4.185-.559.508-.291.231-.517.4-.374.314-.462.3-.462.462-.309.337-.434.5-.282.259-.513.462-.314.439-.328.332-.462.383-.379.462-.291.249-.536.462-.291.494-.263.328-.462.508-.24.332-.462.462-.309.462-.3.462-.328.462-.259.462-.328.462-.3.379-.425.462-.323.462-.3.462-.268.568-.134.379-.429.554-.12.462-.309.462-.3.462-.249.462-.254.494-.245.508-.2.462-.314.536-.152.494-.208.462-.259.462-.24.462-.3.554-.1.429-.406.522-.166.573-.023.508-.194.462-.309.526-.12h.582l.462-.374.522-.166h.577l.508-.189h.568l.462-.323.55-.037.517-.236.591.139.559-.319.526-.12.573.1.517-.263.573.074.508-.268.559.092.55-.051h.55l.531-.12.554.092.536-.272.554.2.54-.171.55-.152.55.074.545.115.55-.042.545-.088.54.055.554-.12.55.185.54.055.545.051.554-.139.545.1h.55l.536.162.563-.083.5.328h.554l.526.194.577-.143.513.226.536.079.55.051.55.079L64.7,5.9l.513.212.536.1.55.074.526.171.517.194.462.3.513.166.531.139h.577l.526.18.462.319.522.18.462.259.563.079.462.286.489.231h.6l.383.462.591.023.462.277.411.4.6.032.462.314.439.342.573.092.365.462.586.069.369.462.563.115.365.462.517.2.388.416.434.323.61.079.282.55.619.074.351.462.374.411.485.263.369.416.526.217.513.24.4.374.286.5.383.4.591.157.189.6.517.245.388.388.309.462.443.319.462.3.3.462.379.4.314.462.462.319.3.462.328.462.411.365.462.342.272.462.462.342.314.462.249.513.245.462.5.319.148.573.42.374.337.462.129.568.4.393.254.462.3.462.212.5.434.388.175.531.18.522.416.406.032.591.416.4.208.508.175.526.374.425-.037.623.254.462.416.42.208.5-.046.61.3.462.309.462-.032.591.406.434-.023.6.309.462.2.508-.092.6.217.5.055.545.152.522.323.489-.032.568.351.462-.143.591.115.531.342.494.028.559-.032.554.175.531.152.526-.134.568v.554l.125.54.143.526-.032.554.129.54-.032.545.1.545-.074.55.175.545v.554l-.143.545.088.545.083.55-.263.54.272.563-.236.536.12.554-.139.54-.111.536v.545l-.189.531.148.563-.139.545-.18.522.189.582-.263.508v.559l-.115.531-.194.526.055.568-.342.489v1.118l-.3.462-.06.554-.3.462-.12.531-.208.513.1.61-.162.522-.346.462-.028.582-.282.462-.143.536-.231.5-.332.462-.194.508-.185.513-.272.485-.06.573-.434.4v.6l-.3.462-.425.4-.074.586-.245.485-.319.462-.194.517-.346.434-.323.462-.369.4-.139.568L94.9,80.6l-.231.5-.286.462-.272.485-.249.494-.3.462-.374.416-.4.379-.24.508-.5.3-.189.559-.494.3-.2.545-.517.277-.282.462-.3.462-.379.411-.522.249-.272.494-.55.222-.217.568-.485.286-.383.388-.462.3-.411.342-.3.5-.416.351-.513.254-.462.272-.286.513-.462.319-.545.18-.393.388-.485.263-.369.429-.429.332-.434.337-.429.342-.462.323-.531.185-.411.383-.554.139-.462.291-.462.314-.54.139-.462.309-.462.263-.485.24-.462.286L75.053,98l-.462.272-.522.2-.508.171-.462.309-.526.166-.485.24-.5.222-.536.148-.462.383L70,100.081l-.513.175-.462.388-.526.185-.522.157-.61-.125-.462.3-.522.194-.531.12-.531.152-.568-.06-.494.291h-.568l-.545.042-.494.356-.573-.134-.545.1-.536.1-.508.282-.554.032h-.55l-.536.175H57.759l-.554-.088-.54.143-.545-.129-.55.028-.545.143-.55-.069Z" fill="#2f613b"/>
        </g>
      </g>
    </g>
  </g>
</svg>
