<svg xmlns="http://www.w3.org/2000/svg" width="193.311" height="220.649" viewBox="0 0 193.311 220.649">
  <g id="TPコピー" transform="translate(-80.938 -298.055)">
    <rect id="長方形_251" data-name="長方形 251" width="58.84" height="220.649" transform="translate(215.409 298.055)" fill="#fff"/>
    <rect id="長方形_252" data-name="長方形 252" width="58.84" height="220.649" transform="translate(148.173 298.055)" fill="#fff"/>
    <rect id="長方形_253" data-name="長方形 253" width="58.84" height="220.649" transform="translate(80.938 298.055)" fill="#fff"/>
    <g id="グループ_977" data-name="グループ 977" transform="translate(95.902 310.545)">
      <g id="グループ_976" data-name="グループ 976">
        <path id="パス_1897" data-name="パス 1897" d="M1122.461,206.564a4.152,4.152,0,0,0-2.039,3.56c-10.518-.033-13.689-.065-17.475-3.754a17.435,17.435,0,0,1-4.433,4.53l-.453-.42a21.7,21.7,0,0,0,3.268-6.214,23.8,23.8,0,0,1-2.1-7.637l.84-.1a16.509,16.509,0,0,0,2.039,5.178,45.9,45.9,0,0,0,1-6.343h-1c-.258.518-.42.906-1.844.906-.453,0-1.489-.13-1.489-.712,0-.356,2.75-8.155,3.2-9.709a20.7,20.7,0,0,0-2.427.13l-.323-1.068c-.519,1.456-.842,2.3-1.781,4.531l.712.064c.227.033.68.1.68.55,0,.389-.323.583-.971.874v12.783c0,.906.1,4.951.1,5.761,0,.485,0,1.488-2.557,1.488-.906,0-.906-.55-.906-1.068,0-.259.1-5.016.1-5.178v-9.87a19.681,19.681,0,0,1-2.848,3.657l-.519-.389c2.072-5.113,4.4-10.938,4.985-17.572l4.109,1.068c.259.065.778.259.778.615,0,.55-.746.679-1.263.744-.032.162-.291.939-.323,1.1.387.032,1.586.1,2.491.1l.906-1.326a.769.769,0,0,1,.583-.324.877.877,0,0,1,.55.291l1.942,1.78-.226-.712c.938.065,1.941.13,3.268.13h1.262c0-.13,0-1.456-.13-3.269l3.722.486c.292.032.842.1.842.517s-.357.615-1.262.939v1.327h2.3l.842-1.2c.226-.291.355-.323.485-.323a.863.863,0,0,1,.55.259l1.91,1.812a.931.931,0,0,1,.355.647c0,.324-.1.389-1.067.971v2.006h.291l.712-1.262c.162-.259.259-.42.453-.42.259,0,.388.226.485.355l1.068,1.586a1.381,1.381,0,0,1,.324.809c0,.518-.389.615-.842.615h-2.491v1.683c0,.226,0,2.1-.033,2.33a.993.993,0,0,1-.615.841,1.812,1.812,0,0,1,.259.227l2.2,2.039a1.234,1.234,0,0,1,.421.776c0,.615-.647.615-.906.615h-6.7v1.489c0,.162.032.906.032,1.068h3.074l1.36-1.942a.651.651,0,0,1,.517-.356.963.963,0,0,1,.582.324l2.428,2.3a1.245,1.245,0,0,1,.388.776c0,.583-.615.583-.841.583h-7.476a27.429,27.429,0,0,1-.064,2.912c-.292.615-1.586.777-2.266.777-.906,0-.97-.324-.97-.939,0-.194.032-2.168.032-2.75h-2.655a21.59,21.59,0,0,0-2.555.129l-.162-.55c-.325.874-.453,1.262-.712,1.877,2.815,2.265,7.249,2.363,9.449,2.363a85.56,85.56,0,0,0,8.77-.518Zm-16.213-13.236-.324-.971c1,.065,1.974.13,3.268.13h1.1v-2.622h-2.557a21.592,21.592,0,0,0-2.556.13l-.616-1.877c-.614,1.844-.744,2.233-1.876,5.566h1.359l.712-.906c.1-.1.259-.324.453-.324a.927.927,0,0,1,.615.356Zm2.653-7.638c-.744,0-.938.033-2.524.13-.162.194-.259.291-1.23.615-.064.259-.453,1.359-.549,1.618,1.941.129,2.621.129,3.235.129h2.46V185.69Zm-2.977,12.686c-.291,1.23-.453,1.813-.648,2.492,1.425.065,1.813.065,2.428.065h2.589v-2.557h-1.813a24.248,24.248,0,0,0-2.524.13Zm3.172-4.207a16.465,16.465,0,0,0-2.136.1c.453.583.518.648.518.874,0,.291-.13.55-1.133.906-.065.324-.065.421-.1.583,1.358.065,1.715.065,2.33.065h1.715v-2.525Zm6.892-8.479h-2.523v2.492h2.523Zm0,4.175h-2.523v2.622h2.523Zm0,4.3h-2.523v2.525h2.653l1.165-1.716C1115.988,195.14,1115.988,194.687,1115.988,194.169Z" transform="translate(-958.044 -180.545)" fill="#2a4f2c"/>
        <path id="パス_1898" data-name="パス 1898" d="M1121.813,241.547a5.022,5.022,0,0,0-2.621,3.625,18.587,18.587,0,0,1-9.255-10.291v3.43c0,.647.065,3.43.065,4.013,0,1.877-.356,3.268-4.531,3.495-.033-2.2-1.294-2.783-3.915-3.366v-.744l4.141.065c.874,0,.874-.356.874-.68v-2.913c-1.456,1.069-5.889,4.013-7.67,5.049,0,.356,0,1.165-.614,1.165-.356,0-.486-.291-.647-.68l-1.554-3.592a31.159,31.159,0,0,0,6.148-1.618c-.646-.1-.776-.324-1.326-1.359a20.573,20.573,0,0,0-1.262-1.974c-.841-.939-.939-1.036-1.1-1.23l.291-.582c1.165.161,5.372.906,5.372,3.43a1.62,1.62,0,0,1-.485,1.23c.906-.324,1.1-.389,2.847-1.036V233.1h-4.433a21.421,21.421,0,0,0-2.525.129l-.647-1.942c.938.065,1.974.13,3.268.13h4.337v-2.492h-5.922a19.481,19.481,0,0,0-2.556.129l-.583-1.812v.647a35.211,35.211,0,0,1-.971,8.868,19.647,19.647,0,0,1-4.628,8.575l-.55-.355c1.845-4.467,2.719-7.735,2.719-16.537v-7.055c0-1.23-.033-2.945-.13-4.175l4.045,1.586h7.606c0-.777-.033-1.942-.163-3.366l4.24.486c.259.032.809.1.809.517,0,.453-.356.583-1.229.939V218.8h6.634l1.488-2.1c.194-.291.356-.356.518-.356a.9.9,0,0,1,.582.291l2.687,2.46a1.184,1.184,0,0,1,.388.777c0,.614-.55.614-.841.614H1106.6l3.592.421c.42.065.939.1.939.486,0,.259-.13.453-1.2.841v.906h4.531l1-1.359a.664.664,0,0,1,.485-.324,1.19,1.19,0,0,1,.648.292l2.135,1.683c.162.129.518.42.518.744,0,.388-.873.971-1.165,1.2v1.877h.485l.842-1.424c.1-.162.259-.388.485-.388.195,0,.357.194.486.324l1.391,1.779a1.263,1.263,0,0,1,.324.777c0,.615-.518.615-.777.615h-3.236v.518c0,.485.13,2.621.13,3.042,0,.744-.227.906-.81,1.132l2.557,1.716a1.1,1.1,0,0,1,.518.744.466.466,0,0,1-.518.485,4.577,4.577,0,0,1-1-.194,24.01,24.01,0,0,1-4.111,1.78,14.3,14.3,0,0,0,6.991,2.751Zm-24.3-21.068v6.635c.517.032,1.78.129,3.236.129h5.825v-2.427H1102.1a24.23,24.23,0,0,0-2.524.13l-.647-1.942c.97.065,1.974.129,3.268.129h4.337a20.461,20.461,0,0,0-.13-2.654Zm17.152,6.764v-2.427h-4.725v2.427Zm0,4.175v-2.492h-4.725v2.492ZM1110.2,233.1a15.972,15.972,0,0,0,3.43,4.11,29.449,29.449,0,0,0,2.621-3.3c-1.488.194-1.553-.389-1.585-.809Z" transform="translate(-958.044 -180.545)" fill="#2a4f2c"/>
        <path id="パス_1899" data-name="パス 1899" d="M1092.623,264.879a1.771,1.771,0,0,0,1.359.874c.971,0,1.36-.453,3.884-3.366,3.01-3.43,4.142-4.757,6.02-4.757,1.65,0,1.973.356,6.828,5.34a32.158,32.158,0,0,0,8.349,6.57c1.036.517,2.589,1.294,2.589,3.236a1.606,1.606,0,0,1-1.586,1.78c-2.847,0-8.219-5.631-9.093-6.6-2.33-2.557-4.66-5.372-5.276-6.117-.873-1.1-1.359-1.327-1.877-1.327-.647,0-.906,0-3.138,3.269-1.133,1.618-1.165,1.65-3.042,4.757a2.557,2.557,0,0,1-2.136,1.489c-1.748,0-3.527-2.136-3.527-3.851,0-.1.1-.906.1-1Z" transform="translate(-958.044 -180.545)" fill="#2a4f2c"/>
        <path id="パス_1900" data-name="パス 1900" d="M1120.261,291.19a4.547,4.547,0,1,1-4.532-4.563A4.544,4.544,0,0,1,1120.261,291.19Zm-7.541,0a2.994,2.994,0,1,0,3.009-3.01A3,3,0,0,0,1112.72,291.19Z" transform="translate(-958.044 -180.545)" fill="#2a4f2c"/>
        <path id="パス_1901" data-name="パス 1901" d="M1019.89,181.937c.84.291.874.485.874.679,0,.55-.357.615-1.36.744a61.757,61.757,0,0,1-2.848,6.214l.809.1c.291.032.68.13.68.518,0,.356-.357.582-.971.874v12.782c0,.874.1,4.984.1,5.47,0,.679,0,1.715-2.783,1.715-.939,0-.971-.518-.971-1.036,0-.744.064-4.369.064-5.21V194.558a22.7,22.7,0,0,1-3.85,4.433l-.518-.42c5.405-10.777,6.375-15.955,6.634-18.026Zm14.756,4.886,1.133-1.585c.161-.2.291-.357.55-.357.194,0,.324.033.68.324l2.362,2.039a.922.922,0,0,1,.389.68c0,.582-.81.582-1,.582h-16.376a23.451,23.451,0,0,0-2.621.129l-.648-1.941c.68.065,1.91.129,3.4.129Zm-1.812,8.285,1.1-1.521c.128-.194.258-.356.485-.356a1,1,0,0,1,.615.291l2.3,2.039a.829.829,0,0,1,.356.647c0,.583-.744.583-.97.583H1024.1a22.843,22.843,0,0,0-2.621.129l-.648-1.942c.971.065,2.039.13,3.4.13Zm.032-4.142,1.069-1.554c.194-.259.355-.388.517-.388a1.094,1.094,0,0,1,.648.356l2.265,2.038c.291.259.388.454.388.615,0,.615-.712.615-1,.615h-12.621a24.1,24.1,0,0,0-2.621.13l-.648-1.942c1.068.065,2.072.13,3.4.13Zm-.032-8.285,1.133-1.554c.13-.194.259-.388.485-.388a1.094,1.094,0,0,1,.648.356l2.265,2.007a.929.929,0,0,1,.388.679c0,.583-.744.583-1.035.583h-12.427a23.466,23.466,0,0,0-2.622.129l-.647-1.941c1.068.064,2.071.129,3.4.129Zm.194,16.8,1.069-1.36a.58.58,0,0,1,.485-.291.888.888,0,0,1,.582.259l2.557,2.007a.634.634,0,0,1,.291.55c0,.161,0,.421-1.132,1.1v3.43c0,.389.129,3.69.129,4.24,0,.615-.065,1.424-2.751,1.424-1,0-1-.324-1-1.165v-.712h-8.317c0,1.294,0,1.424-.454,1.65a5.623,5.623,0,0,1-2.038.356c-.938,0-1.2-.259-1.2-.938,0-.648.1-3.56.1-4.143v-3.948c0-.679-.033-2.718-.13-4.045l4.046,1.586Zm-8.09,1.682v6.117h8.317v-6.117Z" transform="translate(-943.25 -180.545)" fill="#2a4f2c"/>
        <path id="パス_1902" data-name="パス 1902" d="M1015.65,217.6a5.271,5.271,0,0,1,1.974-.421c1.975,0,4.466,1.683,4.466,3.074,0,.1-.68,3.625-.777,4.305-.162,1.262-.744,7.249-.744,10.55,0,1.779,0,5.177,3.754,5.177,3.624,0,8.867-2.588,13.042-8.349l.55.259c-1.877,7.994-8.155,11.586-13.2,11.586-3.139,0-7.54-1.23-7.54-8.382,0-2.2.68-11.909.68-13.883,0-2.266-.907-2.751-2.266-3.3Zm10.841,2.233c4.239,1.068,6.343,3.3,6.343,4.789a1.312,1.312,0,0,1-1.165,1.457c-.55,0-.582-.033-1.65-1.683a15.654,15.654,0,0,0-3.883-4.013Zm2.978-2.589c3.98.712,6.634,2.88,6.634,4.53a1.2,1.2,0,0,1-1.068,1.327c-.551,0-.647-.162-1.716-1.553a14.894,14.894,0,0,0-4.141-3.722Z" transform="translate(-943.655 -180.545)" fill="#2a4f2c"/>
        <path id="パス_1903" data-name="パス 1903" d="M1019.016,278.342c3.527-.582,12.944-2.524,12.944-8.77,0-2.2-1.262-3.948-4.207-3.948-4.013,0-6.8,3.042-8.543,5.049-.874,1.035-1.3,1.553-2.071,1.553-1.2,0-2.395-1.424-2.395-2.977,0-.777.939-4.013,1.068-4.693.162-.906.679-4.983.97-5.728.519-1.262,1.781-2.039,5.5-2.686a5.617,5.617,0,0,0,1.23-.323c0-.065-1.651-.777-1.942-.971a4.415,4.415,0,0,1-1.877-1.942c-.064-.162-.13-.874-.162-1.036l.486-.356c.647.518,1.909,1.521,5.89,2.266,1.585.291,4.077.776,4.077,3.009a1.465,1.465,0,0,1-1.456,1.521,6.832,6.832,0,0,1-1.456-.291,7.813,7.813,0,0,0-3.043-.615c-.938,0-4.951.324-4.951,2.071,0,.356.583,1.813.583,2.1,0,.906-1.359,4.789-1.359,5.6,0,.227.13.324.226.324.227,0,.518-.226.971-.55a15.339,15.339,0,0,1,8.8-3.107c3.883,0,7.443,2.1,7.443,6.343,0,8.8-13.3,8.8-16.7,8.77Z" transform="translate(-943.399 -180.545)" fill="#2a4f2c"/>
        <path id="パス_1904" data-name="パス 1904" d="M1017.947,296.529c-1.165.421-1.488.551-1.682.615-1.392.583-1.553.648-1.974.648-1.3,0-2.1-1.521-2.233-1.781a3.126,3.126,0,0,1-.356-1.941l.55-.291a2.738,2.738,0,0,0,1.877.873,12.368,12.368,0,0,0,3.948-.906c.065-1.812.1-2.718.1-3.333,0-1.909-.356-2.427-1.844-3.074l.1-.648a3.74,3.74,0,0,1,1.488-.356c1.489,0,3.916,1.424,3.916,2.492,0,.291-.453,1.586-.518,1.877a13.9,13.9,0,0,0-.453,2.33c.55.227,1.23.647,1.23,1.262a1.532,1.532,0,0,1-.453.939c-.486.615-.777,1.1-1.1,1.586l-.033.679c3.851-3.851,6.052-6.116,9.159-6.116,1.909,0,3.786,1.165,3.786,4.336,0,.809-.226,3.2-.453,5.7-.226,2.4-.389,4.822-.389,5.6,0,.906.389,1.812,1.554,1.812,1.035,0,3.171-.55,5.016-3.431l.551.292c-.551,1.618-2.169,6.472-6.441,6.472-1.133,0-4.077-.582-4.077-5.081,0-.809.193-3.2.42-5.566.194-2.136.389-4.207.389-5.016,0-.906,0-2.718-1.554-2.718-2.2,0-5.469,3.139-8.026,5.889-.032,2.2,0,4.466.033,5.987,0,.615.13,3.528.13,4.207,0,2.007-1.037,3.884-2.3,3.884-1,0-1.069-.809-1.23-2.33-.13-.971-.485-1.683-1.845-3.2l.421-.55c.259.162,1.619,1.1,1.747,1.1.2,0,.227-.226.227-.453.032-.453.13-4.466.162-5.307a54.688,54.688,0,0,0-3.366,5.178c-1.165,2.039-1.294,2.265-1.909,2.265-.841,0-1.392-1.165-1.392-2.265a2.7,2.7,0,0,1,1.069-2.1,40.1,40.1,0,0,0,5.759-9.061Z" transform="translate(-943.427 -180.545)" fill="#2a4f2c"/>
        <path id="パス_1905" data-name="パス 1905" d="M1017.786,322.969a2.325,2.325,0,0,0,2.33,1.262,34.382,34.382,0,0,0,5.6-.938c.55-.13,2.653-.647,2.976-.647,1.392,0,2.622,1.941,2.622,2.589,0,.614-.388.841-1.715,1.553a29.979,29.979,0,0,0-3.754,2.88c-.68.615-4.045,3.657-5.275,4.79a13.846,13.846,0,0,1,7.476-2.2c5.016,0,8.478,2.751,8.478,7.055,0,5.34-5.113,8.8-11.132,8.8-4.4,0-6.8-1.845-6.8-4.272,0-2.363,2.265-4.207,4.822-4.207a6.492,6.492,0,0,1,6.052,5.145,6.143,6.143,0,0,0,3.463-5.631c0-3.333-2.3-5.048-5.535-5.048-2.847,0-7.281,1.456-11.229,6.116-1.683,2.007-1.78,2.071-2.362,2.071-1.069,0-1.554-1.359-1.554-2.136,0-.97.162-1.1,2.524-3.3,1.715-1.554,11.294-10.777,11.294-11.23,0-.1-.129-.162-.258-.162a11.872,11.872,0,0,0-2.622.712,23.06,23.06,0,0,1-3.43,1.392c-1.262,0-2.783-1.586-2.783-3.237a3.117,3.117,0,0,1,.226-1.165Zm4.887,18.8a1.868,1.868,0,0,0-2.007,1.716c0,1.78,2.621,2.33,4.369,2.33a8.214,8.214,0,0,0,1.586-.13C1025.941,342.548,1023.74,341.771,1022.673,341.771Z" transform="translate(-943.25 -180.545)" fill="#2a4f2c"/>
        <path id="パス_1906" data-name="パス 1906" d="M935.5,193.3c-.518.291-1.133.776-1.133,1.391,0,.842,1.231,1.165,2.071,1.359.357-1.488.421-1.78,1.1-4.433-2.751-.421-3.431-.809-3.916-1.1a4.041,4.041,0,0,1-2.071-3.2c0-.194.033-.454.065-.874l.582-.227c.971,1.23,2.2,1.974,6.116,2.46a18.84,18.84,0,0,0,.874-4.143,2.032,2.032,0,0,0-1.586-2.006l.066-.615a5.07,5.07,0,0,1,1.585-.323c1.812,0,4.046,1.779,4.046,2.977,0,.421-.13.68-.778,1.747a16.079,16.079,0,0,0-1.261,2.622c1.682.1,3.786.226,3.786,2.2,0,.939-.841,1.2-1.618,1.2s-2.2-.194-3.269-.324c-.259.777-.712,2.168-1.359,4.466a16.686,16.686,0,0,0,2.071.129c.324,0,1.78-.1,2.071-.1,1.295,0,2.655,1.1,2.655,2.169,0,1.229-1.554,1.229-2.007,1.229a40.306,40.306,0,0,1-5.437-.55,12.782,12.782,0,0,0-.259,2.492c0,4.563,5.048,4.563,5.955,4.563,2.071,0,6.084-.421,6.084-4.951a10.3,10.3,0,0,0-3.5-7.508l.421-.486c1.586.842,6.6,3.463,6.6,8.835,0,4.563-3.69,7.087-8.835,7.087-4.821,0-9.028-2.006-9.028-7.572a15.268,15.268,0,0,1,.291-2.913c-1.295-.323-4.143-1.133-4.143-3.3,0-.647.389-2.492,3.495-2.88Z" transform="translate(-928.902 -180.545)" fill="#2a4f2c"/>
        <path id="パス_1907" data-name="パス 1907" d="M941.588,242.97c6.019-2.329,10.421-6.86,10.421-12.912,0-6.828-5.21-8.705-8.318-8.705a14.34,14.34,0,0,0-1.585.1,3.792,3.792,0,0,1,1.715,2.783c0,1.489-2.686,7.8-3.625,9.9-1.617,3.657-3.138,6.8-5.792,6.8-2.815,0-5.5-3.334-5.5-7.9,0-6.666,5.6-13.4,14.789-13.4,6.311,0,12.136,3.657,12.136,10.97,0,6.538-4.853,11.91-14.045,12.945Zm-9.708-10.064c0,2.719,1.262,4.822,2.232,4.822.648,0,1.554-.1,4.855-8.382.679-1.683,1.941-4.887,1.941-6.44a2.209,2.209,0,0,0-.355-1.2A11.97,11.97,0,0,0,931.88,232.906Z" transform="translate(-928.902 -180.545)" fill="#2a4f2c"/>
        <path id="パス_1908" data-name="パス 1908" d="M936.572,251.87a3.384,3.384,0,0,1,1.521-.42c1.942,0,3.787,1.553,3.787,2.621,0,.324-.066.453-.583,1.456-.162.324-.453,1.036-.841,2.007a8.2,8.2,0,0,0,1.844-.648c1-.517,1.295-.679,1.845-.679,1.2,0,2.33.647,2.33,1.586,0,1-1.2,1.456-2.363,1.78-1.65.485-2.815.711-4.757,1.1-.517,1.488-2.686,8.123-3.171,9.45-2.686,7.475-3.4,8.252-4.531,8.252-.938,0-1.65-1-1.65-2.168,0-.551.1-.777.938-2.233,2.1-3.593,4.757-11.457,5.178-12.783a18.732,18.732,0,0,1-2.524.194c-3.333,0-3.851-2.071-4.11-3.01l.486-.388a4.737,4.737,0,0,0,2.912.647,25.212,25.212,0,0,0,4.142-.356A22.786,22.786,0,0,0,938,254.33c0-1.133-.938-1.586-1.586-1.877Zm6.991,17.7a4.643,4.643,0,0,0-1.1,2.783c0,2.654,4.466,2.654,6.214,2.654.614,0,3.365-.194,3.915-.194a2.38,2.38,0,0,1,2.556,2.039c0,.906-1.067,1.2-1.65,1.294a32.277,32.277,0,0,1-4.3.227c-2.135,0-9,0-9-4.822,0-2.265,1.748-3.528,2.913-4.4Zm-.486-6.99a11.372,11.372,0,0,1,6.764-2.136c2.976,0,4.951,1.133,4.951,2.428,0,1-.906,1.229-1.586,1.229-1.65,0-2.232,0-5.4,1.845l-.357-.486a17.31,17.31,0,0,0,2.169-2.2c0-.421-1.942-.421-2.46-.421a26.324,26.324,0,0,0-3.883.324Zm4.628-9.449c4.336.841,6.311,2.912,6.311,4.3a1.219,1.219,0,0,1-1.069,1.326c-.517,0-.615-.161-1.65-1.521a14.625,14.625,0,0,0-3.916-3.559Zm2.653-2.428c4.5.518,6.6,2.622,6.6,3.949a1.147,1.147,0,0,1-.971,1.262c-.485,0-.582-.13-1.682-1.392a13.082,13.082,0,0,0-4.207-3.236Z" transform="translate(-928.902 -180.545)" fill="#2a4f2c"/>
        <path id="パス_1909" data-name="パス 1909" d="M930.779,288.083a4.434,4.434,0,0,1,.939-.129c1.586,0,3.786,1.812,3.786,3.366,0,.582-.065.776-.744,2.394a22.877,22.877,0,0,0-1.521,8.479c0,1.845.161,3.333.453,3.333.162,0,.259-.194.356-.388.776-1.456,1.682-3.3,2.071-4.077l.582.194a48.274,48.274,0,0,0-1.229,6.634c0,.356.226,1.974.226,2.33a1.444,1.444,0,0,1-1.586,1.521c-1.909,0-3.721-2.913-3.721-9.223a45.719,45.719,0,0,1,.453-5.7c.388-2.459.809-5.307.809-5.825a2.742,2.742,0,0,0-1.132-2.362Zm9.774,25.987c6.958-4.142,6.926-9.191,6.8-16.8-1.974.194-3.463.324-4.37.324-3.4,0-4.044-1.489-4.562-2.751l.421-.453a10.461,10.461,0,0,0,3.2.356,36.713,36.713,0,0,0,5.178-.388c-.194-5.7-.194-6.084-2.2-6.6l-.033-.615a3.473,3.473,0,0,1,1.974-.68c1.295,0,3.787.809,3.787,2.266,0,.42-.194,2.265-.194,2.783v2.33c.55-.1,2.977-.777,3.4-.777,1.069,0,2.33.745,2.33,1.78,0,.777-.582,1.133-1.294,1.327-.679.162-1.65.324-4.337.68.065,2.265.1,4.077.1,4.627,0,3.851,0,10.68-9.935,13.171Z" transform="translate(-928.902 -180.545)" fill="#2a4f2c"/>
        <path id="パス_1910" data-name="パス 1910" d="M949.905,330.542a3.723,3.723,0,0,1,1.392-.292,4.114,4.114,0,0,1,3.786,3.236c0,1.036-.841,1.263-2.653,1.716a50.018,50.018,0,0,0-7.411,2.524c.162,1.909.194,2.427.194,3.171,0,.615,0,2.363-1.845,2.363a1.535,1.535,0,0,1-1.586-1.78c0-.356.032-1.91.032-2.233-.97.485-4.012,2.1-4.012,3.948,0,1.489,1.78,1.974,4.854,1.974a33.806,33.806,0,0,0,4.789-.388c.2-.033,1.878-.291,2.007-.291.842,0,2.719.809,2.719,2.1,0,1.23-1.359,1.489-2.136,1.553a56.722,56.722,0,0,1-6.019.259c-1.1,0-4.337,0-6.182-.971a4,4,0,0,1-2.33-3.462c0-3.2,3.042-5.016,6.246-6.958-.1-1.262-.227-3.3-2.4-3.3-2.492,0-3.916,2.039-5.4,4.207-.874,1.262-1.068,1.521-1.748,1.521a1.7,1.7,0,0,1-1.553-1.845c0-1.2.971-2.1,1.812-2.88.906-.841,1.327-1.23,4.305-5.178-3.658.227-4.628-1.553-5.34-3.268l.485-.389a6.656,6.656,0,0,0,3.722.939,25.573,25.573,0,0,0,3.171-.227c.615-.874,1.78-2.686,1.78-3.462,0-.55-.453-1-1.586-1.23l.13-.615a3.86,3.86,0,0,1,1.715-.421c1.521,0,3.559,1.2,3.559,2.3,0,.582-.291.874-.938,1.586-.032.032-.712.841-1.068,1.294a15.375,15.375,0,0,0,3.01-.874,6.937,6.937,0,0,1,2.136-.711c1.067,0,2.395.679,2.395,1.617,0,1.036-1.262,1.425-3.3,1.91-2.007.453-5.081.938-6.6,1.165-1.068,1.424-1.521,1.974-2.524,3.3a6.235,6.235,0,0,1,2.556-.583A4.309,4.309,0,0,1,944.7,335.4c.809-.453,4.595-2.233,5.34-2.622.614-.291.971-.485.971-.776,0-.162-.1-.615-1.165-.842Z" transform="translate(-928.902 -180.545)" fill="#2a4f2c"/>
        <path id="パス_1911" data-name="パス 1911" d="M955.893,360.768a4.547,4.547,0,1,1-4.532-4.563A4.544,4.544,0,0,1,955.893,360.768Zm-7.541,0a2.994,2.994,0,1,0,3.009-3.01A3,3,0,0,0,948.352,360.768Z" transform="translate(-928.902 -180.545)" fill="#2a4f2c"/>
      </g>
    </g>
  </g>
</svg>
